<?xml version="1.0" standalone="no"?>
<!DOCTYPE svg PUBLIC "-//W3C//DTD SVG 20010904//EN"
 "http://www.w3.org/TR/2001/REC-SVG-20010904/DTD/svg10.dtd">
<svg version="1.0" xmlns="http://www.w3.org/2000/svg"
 width="3000.000000pt" height="4000.000000pt" viewBox="0 0 3000.000000 4000.000000"
 preserveAspectRatio="xMidYMid meet">
<metadata>
Created by potrace 1.16, written by Peter Selinger 2001-2019
</metadata>
<g transform="translate(0.000000,4000.000000) scale(0.100000,-0.100000)"
fill="#000000" stroke="none">
<path d="M17228 8062 c-113 -114 -116 -119 -142 -199 l-27 -81 36 -71 c25 -51
32 -73 23 -76 -7 -2 -62 -12 -121 -21 l-108 -17 -29 28 -30 29 -29 -28 -30
-28 -74 25 -74 25 -136 -28 c-123 -24 -140 -31 -174 -61 -21 -19 -53 -41 -72
-49 -33 -13 -35 -13 -62 17 l-27 31 -58 -115 c-50 -103 -55 -118 -41 -128 14
-10 14 -13 1 -27 -13 -13 -13 -16 0 -27 11 -10 19 -9 35 1 19 11 26 7 81 -47
l60 -59 -27 -28 -27 -28 24 -25 24 -25 -40 -43 c-21 -23 -65 -70 -98 -104
l-59 -62 237 -245 237 -245 78 -26 c72 -24 80 -29 96 -66 l18 -39 -26 -28 -27
-28 71 -69 70 -70 20 24 c30 37 49 18 80 -75 l25 -79 -26 -107 -27 -106 20
-21 21 -21 -23 -24 -24 -25 34 -38 c23 -25 42 -64 59 -116 27 -88 65 -130 150
-168 l45 -20 52 25 c50 24 53 25 65 8 30 -42 41 -35 229 154 l184 184 122 25
122 24 68 -25 c37 -14 79 -36 93 -48 14 -13 70 -47 125 -76 55 -29 118 -70
140 -91 l41 -39 31 64 c31 63 33 64 98 86 79 26 86 23 130 -69 l28 -60 146
-35 c80 -19 185 -43 233 -53 l87 -17 22 -47 c12 -26 38 -64 58 -83 l37 -36 28
29 c15 16 32 47 37 69 11 50 60 443 90 725 l22 208 -49 50 -48 49 47 95 c26
52 47 101 47 109 0 7 -9 21 -20 31 -25 23 -25 33 2 117 l22 68 -56 58 c-53 54
-88 107 -88 133 0 6 11 24 25 41 33 39 32 50 -9 72 -19 10 -49 33 -67 52 l-33
34 -26 -25 -26 -25 -193 194 -193 193 22 44 c12 24 36 59 53 77 l31 32 -35 36
c-18 20 -52 45 -74 56 -22 11 -41 22 -43 23 -2 2 8 26 22 54 l26 51 -57 29
c-32 16 -74 45 -92 65 l-35 36 -31 -30 -31 -30 -73 25 -73 24 -51 -25 c-29
-15 -79 -52 -112 -83 -47 -45 -73 -61 -122 -75 -34 -10 -68 -16 -77 -13 -8 3
-31 37 -50 74 -45 90 -75 115 -173 147 l-81 27 -52 -26 -51 -26 -79 27 -80 27
-24 -22 c-20 -19 -25 -20 -35 -7 -11 13 -8 29 12 89 l24 73 -36 42 -36 42
-117 -118z m129 37 c8 -8 3 -33 -15 -90 l-26 -79 39 -41 40 -40 27 32 26 31
77 -25 77 -26 52 26 51 26 65 -23 c78 -27 113 -57 150 -130 15 -30 41 -67 57
-82 l29 -28 80 26 c66 22 89 36 139 84 33 32 79 68 103 80 l43 21 80 -26 80
-27 23 21 c21 20 24 20 36 6 8 -9 35 -28 62 -41 l48 -24 -26 -51 c-14 -28 -24
-52 -22 -54 2 -1 28 -15 58 -30 30 -15 63 -34 72 -42 16 -14 15 -18 -11 -53
-15 -21 -36 -59 -45 -84 l-18 -46 213 -220 c117 -121 215 -220 219 -220 4 0
15 9 25 20 23 26 29 25 70 -7 l34 -28 -26 -27 -27 -28 25 -52 c13 -29 48 -79
78 -111 l55 -58 -26 -78 -26 -79 25 -24 24 -24 -49 -105 -49 -105 51 -59 52
-58 -13 -116 c-51 -459 -86 -742 -97 -776 -7 -22 -19 -40 -27 -40 -8 0 -30 30
-49 66 l-34 67 -136 27 c-74 14 -178 38 -231 52 l-97 26 -22 48 c-13 26 -38
62 -55 79 l-33 32 -87 -29 c-83 -27 -89 -30 -108 -70 -21 -42 -21 -43 -41 -24
-12 10 -66 41 -121 69 -55 27 -111 62 -124 76 -15 16 -56 36 -108 53 l-83 27
-138 -27 -137 -26 -171 -178 -172 -178 -27 25 -27 25 -49 -28 -49 -27 -43 21
c-69 35 -94 66 -122 149 -14 43 -35 86 -46 96 -19 17 -19 18 8 46 l27 28 -31
31 -30 31 25 100 25 100 -24 76 c-17 55 -35 89 -63 120 l-39 43 -27 -26 -26
-25 -34 35 -34 35 23 24 22 23 -33 67 -32 66 -76 25 -75 25 -225 225 -225 225
105 105 104 104 -22 24 c-27 29 -27 39 -2 62 21 19 20 19 -75 115 l-96 97 32
66 33 67 23 -21 22 -22 58 33 c32 18 69 43 83 56 19 17 57 30 145 49 l120 26
82 -28 83 -28 22 22 22 23 23 -22 22 -21 163 27 c223 38 208 30 160 80 -22 22
-50 60 -61 84 l-22 43 23 70 c20 62 33 81 111 164 49 52 92 95 96 95 4 0 12
-5 18 -11z"/>
</g>
</svg>
