<?xml version="1.0" standalone="no"?>
<!DOCTYPE svg PUBLIC "-//W3C//DTD SVG 20010904//EN"
 "http://www.w3.org/TR/2001/REC-SVG-20010904/DTD/svg10.dtd">
<svg version="1.0" xmlns="http://www.w3.org/2000/svg"
 width="3000.000000pt" height="4000.000000pt" viewBox="0 0 3000.000000 4000.000000"
 preserveAspectRatio="xMidYMid meet">
<metadata>
Created by potrace 1.16, written by Peter Selinger 2001-2019
</metadata>
<g transform="translate(0.000000,4000.000000) scale(0.100000,-0.100000)"
fill="#000000" stroke="none">
<path d="M26182 7227 c-213 -213 -213 -214 -263 -318 -43 -90 -62 -116 -136
-191 -83 -84 -86 -88 -70 -106 17 -18 14 -20 -90 -41 l-108 -21 -101 -101
-101 -101 -73 81 -74 81 -28 -27 -28 -27 -26 25 -26 24 -394 -400 -394 -400
-34 -105 c-19 -58 -40 -131 -47 -162 -12 -57 -24 -72 -35 -43 -11 28 -31 15
-55 -37 -13 -29 -52 -83 -88 -120 -51 -55 -62 -71 -57 -91 8 -33 34 -61 81
-85 62 -32 228 -207 263 -277 40 -81 129 -165 174 -165 22 0 37 7 46 20 16 26
30 25 59 -2 l23 -22 56 55 c31 29 67 75 80 102 13 26 26 47 29 47 2 0 25 -10
49 -22 l45 -21 43 39 c24 22 57 45 74 53 29 11 37 10 83 -13 l51 -26 50 25 50
25 70 -72 c55 -57 83 -98 126 -183 31 -60 58 -112 61 -115 3 -3 31 23 62 56
51 54 67 64 138 88 l80 27 31 67 c16 37 40 97 51 133 12 37 31 75 42 85 12 11
30 37 41 59 26 52 25 51 46 32 17 -16 27 -15 151 10 l133 26 55 -27 56 -27 74
73 73 72 50 -49 50 -49 42 42 43 42 -54 54 -53 53 25 49 c13 27 37 87 52 133
l27 83 -25 26 -26 25 21 41 c19 39 85 116 99 116 3 0 14 -17 23 -39 10 -21 44
-65 77 -97 l59 -58 23 22 c29 27 35 27 64 0 l24 -23 50 57 c46 53 56 59 137
84 48 15 99 31 113 36 l26 9 -27 85 c-15 46 -35 93 -44 103 -18 19 -17 21 2
46 l21 26 -25 72 c-14 40 -38 137 -55 216 -20 102 -35 151 -49 166 -19 21 -19
22 -3 37 10 9 41 27 68 41 48 24 235 202 235 224 0 15 -35 43 -54 43 -9 0 -41
22 -69 49 -44 41 -57 62 -76 121 -21 68 -22 73 -6 90 18 20 14 50 -7 50 -7 0
-31 -18 -54 -41 l-41 -41 -44 22 c-24 12 -57 35 -74 50 -22 20 -55 33 -125 50
-86 20 -100 27 -143 69 -28 26 -64 76 -84 116 l-35 69 -25 -28 c-22 -26 -53
-30 -53 -6 0 5 -5 10 -12 10 -6 0 -39 11 -72 24 -34 13 -70 27 -81 30 -16 5
-61 -35 -233 -207z m305 133 c33 -12 74 -35 89 -51 l28 -29 22 21 23 21 19
-38 c11 -22 47 -65 79 -96 55 -54 63 -58 157 -82 75 -19 106 -32 130 -54 17
-17 55 -42 84 -57 49 -24 55 -25 71 -11 10 9 20 16 23 16 3 0 13 -26 22 -59
14 -49 26 -68 80 -120 35 -33 72 -61 81 -61 30 0 -121 -152 -181 -183 -30 -15
-70 -44 -88 -65 l-35 -37 29 -30 c24 -25 32 -50 55 -163 14 -72 37 -163 50
-201 l23 -69 -29 -28 -29 -28 30 -31 c35 -36 89 -178 61 -161 -4 3 -44 -6 -87
-21 -61 -21 -90 -37 -130 -75 l-51 -48 -23 25 -24 25 -26 -25 -27 -26 -49 53
c-27 29 -60 77 -73 106 -14 28 -28 52 -32 52 -17 0 -135 -149 -158 -198 l-25
-53 26 -26 26 -25 -23 -72 c-12 -39 -35 -97 -51 -129 l-28 -57 48 -49 c29 -30
45 -54 41 -61 -5 -8 -25 5 -61 41 l-54 53 -80 -79 -79 -79 -48 22 -48 23 -124
-26 -125 -25 -33 32 c-18 17 -34 30 -37 27 -2 -2 -16 -29 -31 -59 -15 -30 -40
-68 -55 -85 -15 -16 -38 -61 -50 -100 -12 -38 -34 -96 -47 -127 l-25 -57 -76
-26 c-57 -18 -87 -36 -119 -67 -23 -23 -44 -40 -47 -37 -2 2 -24 45 -49 94
-36 71 -62 106 -126 170 l-81 79 -52 -26 -53 -25 -52 25 -53 26 -60 -29 c-33
-16 -70 -39 -82 -52 l-21 -23 -52 30 -52 30 -28 -60 c-15 -32 -49 -79 -75
-105 l-46 -45 -24 25 -24 25 -37 -36 -37 -37 -57 54 c-32 30 -69 77 -84 106
-30 60 -214 252 -273 285 -57 32 -58 52 -5 107 25 25 53 62 62 81 24 48 22 47
54 16 l29 -28 32 133 c17 72 44 165 58 205 l27 73 373 377 373 377 28 -27 27
-26 24 25 24 26 79 -78 78 -78 107 111 107 112 140 27 c77 16 142 30 144 32 3
2 -10 18 -27 36 l-32 33 71 69 c57 56 81 91 124 175 51 101 60 113 250 308
109 112 203 201 209 199 6 -2 39 -14 73 -27z"/>
</g>
</svg>
