<?xml version="1.0" standalone="no"?>
<!DOCTYPE svg PUBLIC "-//W3C//DTD SVG 20010904//EN"
 "http://www.w3.org/TR/2001/REC-SVG-20010904/DTD/svg10.dtd">
<svg version="1.0" xmlns="http://www.w3.org/2000/svg"
 width="3000.000000pt" height="4000.000000pt" viewBox="0 0 3000.000000 4000.000000"
 preserveAspectRatio="xMidYMid meet">
<metadata>
Created by potrace 1.16, written by Peter Selinger 2001-2019
</metadata>
<g transform="translate(0.000000,4000.000000) scale(0.100000,-0.100000)"
fill="#000000" stroke="none">
<path d="M21587 4651 l-33 -30 -94 24 c-112 28 -140 21 -160 -42 -7 -21 -28
-54 -47 -75 -20 -20 -33 -40 -30 -45 3 -5 24 -18 47 -28 46 -21 48 -25 20 -50
-21 -19 -20 -19 13 -54 21 -22 43 -61 55 -99 l21 -63 -34 -16 c-34 -16 -36
-16 -60 7 l-26 24 -80 -26 -81 -27 -54 27 -54 26 -32 -31 c-18 -17 -56 -42
-84 -56 -39 -20 -54 -35 -69 -66 l-18 -41 -24 22 -23 22 -28 -27 -28 -27 -24
25 -24 25 -27 -26 c-26 -25 -30 -26 -61 -13 -18 7 -52 31 -76 53 l-43 40 -67
-67 -66 -66 28 -30 28 -29 -26 -50 c-14 -27 -37 -59 -51 -70 -34 -27 -34 -83
2 -148 38 -71 70 -102 144 -139 l66 -34 26 27 26 26 56 -18 c30 -9 55 -22 55
-29 0 -7 -9 -41 -20 -76 -19 -59 -19 -65 -4 -82 20 -22 14 -33 -26 -49 -22 -9
-40 -29 -61 -71 -16 -32 -29 -62 -29 -66 0 -17 92 -53 225 -88 234 -61 296
-84 329 -122 l30 -33 31 30 31 30 70 -23 c38 -13 93 -36 123 -51 l53 -27 152
25 151 25 50 -48 c27 -27 77 -62 110 -79 l60 -30 49 25 49 25 123 -130 124
-130 80 26 80 26 27 -26 26 -26 53 26 53 26 76 -24 75 -24 78 19 c81 19 122
39 122 60 0 7 7 18 16 26 23 19 53 83 90 192 l33 99 -45 48 -46 49 20 28 c11
15 30 60 42 98 18 57 33 81 77 127 l55 56 -26 78 -26 78 26 27 27 28 -31 38
c-17 21 -80 87 -141 148 l-111 110 -62 -62 c-50 -48 -76 -65 -128 -82 l-65
-22 -20 26 c-25 31 -32 31 -90 3 -45 -22 -45 -22 -64 -3 -10 11 -30 56 -45
100 -20 60 -36 90 -68 122 l-42 43 28 29 28 30 -68 35 c-54 27 -96 62 -194
161 -80 81 -143 136 -175 152 -76 38 -92 59 -122 150 l-27 84 -65 35 c-36 18
-73 34 -83 34 -9 0 -32 -13 -51 -29z m73 -19 c0 -4 20 -18 44 -29 41 -21 45
-26 70 -101 29 -87 61 -125 136 -162 27 -13 103 -80 190 -165 80 -78 155 -146
168 -150 l22 -6 -19 -28 -20 -28 58 -57 c49 -49 61 -68 81 -129 15 -48 34 -86
57 -111 l36 -39 52 26 52 25 24 -24 25 -24 92 31 c78 26 98 37 130 74 l38 44
114 -114 114 -114 -22 -23 -21 -23 24 -80 25 -80 -49 -50 c-38 -39 -54 -66
-71 -120 -15 -47 -34 -82 -58 -108 l-36 -37 56 -58 56 -57 -28 -80 c-55 -163
-95 -211 -193 -236 -60 -15 -64 -15 -139 10 l-77 25 -51 -24 -50 -23 -25 23
-25 24 -75 -24 -76 -24 -132 131 -132 131 -52 -25 c-47 -24 -54 -25 -85 -13
-18 8 -62 42 -98 77 l-66 62 -157 -26 -157 -26 -67 31 c-38 16 -96 40 -131 53
l-63 22 -24 -23 -25 -23 -22 20 c-25 21 -133 61 -238 88 -122 30 -270 78 -270
87 0 32 36 71 91 99 l61 31 -31 32 -31 32 25 74 c14 40 25 78 25 85 0 6 -42
25 -94 42 l-94 31 -25 -25 -24 -25 -39 20 c-48 25 -85 64 -113 119 -24 49 -21
83 13 123 12 14 32 49 45 78 l24 52 -23 25 -24 25 34 35 c33 34 34 35 54 16
12 -10 49 -33 82 -49 61 -31 62 -31 79 -12 23 25 33 25 62 -2 l23 -22 16 22
c20 28 32 28 64 -3 l26 -25 29 60 c25 53 36 65 90 95 34 19 68 41 74 49 11 14
19 12 61 -9 l48 -24 73 24 73 25 27 -26 27 -25 63 31 c35 18 65 34 67 35 9 8
-53 183 -71 203 l-21 22 27 28 27 28 -45 22 c-44 21 -54 35 -36 47 5 3 17 28
26 55 9 28 22 50 28 50 7 0 54 -11 106 -25 l95 -24 38 35 c37 33 58 43 58 26z"/>
</g>
</svg>
