<?xml version="1.0" standalone="no"?>
<!DOCTYPE svg PUBLIC "-//W3C//DTD SVG 20010904//EN"
 "http://www.w3.org/TR/2001/REC-SVG-20010904/DTD/svg10.dtd">
<svg version="1.0" xmlns="http://www.w3.org/2000/svg"
 width="3000.000000pt" height="4000.000000pt" viewBox="0 0 3000.000000 4000.000000"
 preserveAspectRatio="xMidYMid meet">
<metadata>
Created by potrace 1.16, written by Peter Selinger 2001-2019
</metadata>
<g transform="translate(0.000000,4000.000000) scale(0.100000,-0.100000)"
fill="#000000" stroke="none">
<path d="M12644 7429 l-61 -61 26 -104 25 -104 -26 -26 -26 -27 28 -62 c26
-58 70 -240 70 -289 0 -13 -27 -48 -71 -91 -39 -39 -83 -95 -99 -125 -19 -36
-65 -90 -132 -156 l-103 -101 -109 -38 c-59 -21 -118 -47 -131 -59 -12 -12
-32 -45 -45 -74 l-24 -53 28 -87 c16 -48 38 -97 49 -110 l21 -22 -24 -75 -24
-75 24 -25 24 -25 -51 -53 c-28 -28 -61 -72 -73 -97 -12 -25 -46 -70 -76 -101
l-55 -55 27 -60 c15 -32 36 -69 47 -82 l21 -23 -52 -52 -52 -52 56 -56 56 -57
-22 -68 c-12 -38 -35 -82 -50 -99 -36 -39 -70 -144 -70 -215 0 -45 7 -69 37
-125 20 -39 37 -72 39 -74 6 -7 140 42 167 61 l29 20 24 -23 25 -23 41 42 42
41 -23 25 -23 24 20 29 c11 15 28 52 37 81 18 55 25 61 45 36 12 -13 25 -4
102 73 56 55 100 109 118 144 16 30 36 61 44 69 29 23 86 -15 217 -146 l123
-123 -21 -23 c-31 -33 -76 -309 -56 -338 8 -11 19 -20 26 -20 6 0 27 -16 47
-35 l36 -35 28 29 28 29 79 -26 79 -26 37 36 c21 20 58 46 83 58 25 12 53 30
64 39 17 15 23 11 103 -73 l85 -89 -57 -57 -56 -57 88 -22 c48 -12 169 -49
268 -81 99 -33 189 -60 200 -60 11 0 45 9 75 20 70 25 80 25 139 -4 l48 -25
35 37 c19 20 41 52 48 71 8 19 30 53 50 76 33 38 39 55 60 161 34 182 54 220
182 350 l109 110 -19 45 c-25 58 -38 67 -108 80 -55 10 -156 58 -170 80 -3 5
5 22 18 37 13 15 34 51 47 80 l25 52 -31 33 c-45 47 -127 230 -154 341 l-23
96 23 123 c20 106 27 126 54 154 l31 33 -29 30 c-21 22 -35 56 -56 137 l-28
107 -73 73 -72 73 17 64 c9 35 17 80 17 99 0 42 -32 138 -59 176 -20 28 -20
28 -1 46 27 25 26 30 -20 82 -22 25 -40 52 -40 59 0 8 -4 14 -9 14 -5 0 -12
12 -16 28 -14 56 -116 128 -164 115 -39 -10 -23 43 30 105 32 36 36 57 14 66
-8 3 -27 30 -41 59 l-27 54 -42 -8 c-24 -4 -78 -17 -121 -28 l-77 -20 -41 21
c-23 11 -57 35 -76 52 -27 24 -57 36 -135 55 -80 18 -107 30 -133 54 l-32 31
-58 -56 c-54 -54 -62 -58 -150 -80 -84 -20 -94 -21 -108 -6 -14 14 -13 20 11
68 21 42 24 55 13 62 -24 16 -107 58 -115 58 -5 0 -36 -27 -69 -61z m134 -24
c2 -2 -6 -21 -17 -44 -27 -53 -27 -59 10 -97 l30 -31 117 29 c113 28 118 30
159 76 l42 47 23 -22 c14 -13 61 -31 122 -46 65 -17 107 -34 125 -50 14 -13
52 -38 83 -54 l57 -31 106 26 106 27 34 -40 c32 -39 33 -41 15 -60 -10 -11
-29 -43 -43 -71 l-26 -51 28 -27 c15 -14 35 -26 44 -26 26 0 89 -34 113 -62
12 -12 32 -43 44 -68 12 -25 31 -55 42 -67 20 -21 20 -21 -3 -52 l-23 -31 32
-33 c31 -32 72 -130 72 -172 0 -11 -11 -52 -24 -91 l-24 -69 82 -85 82 -85 23
-100 c14 -61 31 -109 44 -122 l20 -23 -20 -22 c-15 -16 -29 -62 -48 -157 l-27
-134 27 -106 c28 -115 110 -299 151 -342 l26 -27 -22 -43 c-12 -24 -36 -59
-53 -76 l-31 -33 35 -36 c44 -46 130 -90 195 -99 41 -5 54 -11 63 -31 6 -14
11 -30 11 -36 0 -6 -45 -56 -99 -112 -119 -120 -139 -160 -171 -331 -19 -99
-27 -125 -50 -150 -15 -16 -39 -52 -53 -80 -14 -27 -34 -58 -45 -68 -19 -17
-21 -17 -66 5 l-46 22 -78 -25 -77 -26 -155 52 c-85 29 -189 60 -230 70 -41
10 -77 20 -79 22 -3 2 15 24 39 48 l44 45 -119 120 -119 120 -36 -34 c-19 -19
-55 -44 -80 -56 -25 -12 -57 -33 -71 -47 l-27 -24 -76 27 -77 27 -24 -23 -23
-22 -37 28 c-25 21 -34 35 -31 49 2 11 12 70 22 130 15 97 20 114 47 142 l30
33 -133 137 c-104 107 -149 146 -198 171 l-64 34 -34 -33 c-18 -17 -42 -55
-54 -83 -22 -52 -142 -186 -167 -186 -7 0 -20 11 -29 25 -9 14 -19 25 -23 25
-4 0 -20 -40 -36 -90 -21 -66 -37 -98 -62 -122 l-33 -32 26 -27 c37 -38 21
-59 -17 -23 l-29 28 -38 -36 c-38 -37 -102 -64 -127 -54 -8 3 -27 31 -43 63
-31 62 -31 56 5 183 8 30 28 69 43 85 17 18 39 64 56 118 l28 87 -47 48 -47
47 52 52 51 52 -39 43 c-22 24 -46 58 -53 76 -13 32 -13 33 32 81 25 26 57 73
72 102 15 30 52 80 83 111 l56 58 -28 29 -28 30 26 77 26 78 -30 31 c-28 29
-70 128 -70 166 0 10 8 35 17 55 20 41 81 76 198 114 64 20 78 31 173 124 73
71 112 119 134 161 19 37 60 91 111 142 l81 83 -27 141 c-16 77 -38 161 -49
185 l-22 44 23 24 24 25 -26 103 -26 103 41 42 c41 42 41 42 72 26 17 -8 32
-17 34 -18z"/>
</g>
</svg>
