<?xml version="1.0" standalone="no"?>
<!DOCTYPE svg PUBLIC "-//W3C//DTD SVG 20010904//EN"
 "http://www.w3.org/TR/2001/REC-SVG-20010904/DTD/svg10.dtd">
<svg version="1.0" xmlns="http://www.w3.org/2000/svg"
 width="3000.000000pt" height="4000.000000pt" viewBox="0 0 3000.000000 4000.000000"
 preserveAspectRatio="xMidYMid meet">
<metadata>
Created by potrace 1.16, written by Peter Selinger 2001-2019
</metadata>
<g transform="translate(0.000000,4000.000000) scale(0.100000,-0.100000)"
fill="#000000" stroke="none">
<path d="M29401 9816 l-76 -74 -45 23 c-25 13 -50 24 -56 25 -6 0 -23 -27 -39
-60 -16 -33 -36 -67 -45 -75 -15 -13 -19 -12 -40 10 l-24 25 -28 -27 -28 -27
-50 24 -50 23 -51 -23 c-27 -13 -62 -24 -77 -24 -30 0 -67 -38 -59 -60 9 -23
-33 -52 -114 -81 -71 -25 -83 -33 -187 -138 l-112 -112 54 -54 54 -53 -45 -97
c-25 -53 -54 -106 -65 -118 -12 -12 -55 -34 -98 -48 -56 -19 -86 -36 -113 -63
-20 -21 -37 -43 -37 -49 0 -5 -12 -19 -26 -29 -14 -10 -36 -39 -49 -64 -13
-25 -37 -58 -54 -74 l-31 -30 27 -28 27 -28 -23 -49 c-14 -29 -55 -80 -100
-125 l-77 -77 26 -165 27 -165 55 -57 c31 -31 65 -78 76 -103 19 -45 19 -47 1
-105 -25 -78 -24 -79 15 -102 l33 -20 134 134 c87 88 155 147 194 169 34 19
81 57 109 90 45 52 47 57 32 74 -22 24 -21 28 17 47 17 9 42 26 55 37 l22 20
23 -21 c13 -12 55 -33 93 -45 63 -21 71 -28 94 -69 14 -25 50 -72 80 -104 55
-59 56 -59 172 -90 l116 -31 23 49 c13 27 26 51 30 53 3 3 71 -7 150 -21 l144
-25 161 28 162 27 31 63 31 64 -25 102 c-14 56 -37 127 -51 158 l-26 56 26 51
26 52 -26 53 c-14 28 -35 62 -46 73 l-19 22 42 23 c38 22 45 31 65 94 13 39
38 100 56 137 l32 68 -24 25 -24 25 27 28 27 28 -25 24 -26 24 61 61 c87 88
86 104 -27 217 l-87 87 24 26 24 25 -22 30 c-27 36 -27 41 -2 90 l20 40 -29
57 c-16 32 -55 86 -87 121 l-57 63 -28 -27 -29 -28 -48 47 c-71 70 -94 67
-191 -27z m181 -23 l58 -57 25 24 25 24 41 -40 c22 -21 52 -60 65 -86 l24 -47
-27 -55 -27 -56 24 -25 23 -25 -23 -25 -23 -25 23 -25 c22 -24 23 -27 7 -42
-15 -16 -15 -18 0 -35 15 -17 17 -17 35 -1 10 9 19 14 21 12 1 -3 27 -30 57
-62 l54 -57 -72 -73 c-40 -40 -72 -77 -72 -82 0 -5 10 -19 22 -32 l21 -23 -23
-25 -24 -25 28 -29 28 -29 -25 -48 c-13 -27 -35 -81 -47 -121 -22 -68 -25 -72
-71 -94 -61 -28 -67 -45 -30 -83 16 -17 39 -51 50 -75 l19 -45 -25 -49 -25
-50 30 -66 c16 -36 40 -107 52 -158 l22 -92 -24 -43 -23 -43 -144 -24 -144
-25 -136 23 c-75 12 -147 24 -161 27 -23 5 -29 0 -50 -45 -13 -28 -28 -51 -33
-51 -5 0 -47 10 -93 22 -74 19 -89 28 -131 70 -25 26 -60 73 -77 105 -30 56
-32 57 -108 82 -46 16 -89 38 -107 55 l-31 30 -33 -31 c-17 -17 -61 -45 -96
-63 l-63 -31 28 -30 28 -29 -40 -41 c-21 -22 -61 -52 -89 -66 -32 -16 -97 -71
-177 -151 -70 -69 -130 -124 -133 -121 -3 3 4 32 15 63 l19 58 -25 51 c-14 29
-50 77 -79 107 l-54 55 -25 150 -26 150 79 80 c45 46 91 103 106 134 l26 53
-22 25 c-30 31 -16 59 29 57 30 -2 32 0 58 80 34 103 56 126 146 155 97 31
131 65 198 201 l54 110 -49 50 -49 50 98 99 c92 92 102 99 171 121 94 29 145
75 127 114 -10 23 -10 24 11 17 16 -6 37 -1 75 17 l52 26 54 -26 c53 -26 54
-27 72 -7 22 24 36 24 59 -1 19 -20 19 -20 56 16 20 20 45 54 54 75 10 21 22
39 26 39 5 0 29 -10 54 -22 l46 -23 75 83 c42 45 83 82 92 82 9 0 42 -26 74
-57z"/>
</g>
</svg>
