<?xml version="1.0" standalone="no"?>
<!DOCTYPE svg PUBLIC "-//W3C//DTD SVG 20010904//EN"
 "http://www.w3.org/TR/2001/REC-SVG-20010904/DTD/svg10.dtd">
<svg version="1.0" xmlns="http://www.w3.org/2000/svg"
 width="3000.000000pt" height="4000.000000pt" viewBox="0 0 3000.000000 4000.000000"
 preserveAspectRatio="xMidYMid meet">
<metadata>
Created by potrace 1.16, written by Peter Selinger 2001-2019
</metadata>
<g transform="translate(0.000000,4000.000000) scale(0.100000,-0.100000)"
fill="#000000" stroke="none">
<path d="M24370 13435 l-64 -65 31 -32 31 -33 -24 -220 c-22 -198 -27 -227
-55 -284 l-30 -64 27 -28 26 -27 -22 -69 c-14 -43 -35 -81 -57 -104 l-34 -36
41 -18 c46 -21 49 -28 18 -42 -29 -13 -87 14 -140 65 l-38 36 -25 -24 -25 -23
-26 24 -26 24 -36 -40 c-32 -34 -41 -55 -61 -140 l-23 -100 -78 -80 c-71 -73
-80 -87 -104 -161 -17 -52 -37 -90 -55 -108 l-29 -28 26 -79 26 -79 -40 -42
c-61 -64 -58 -80 36 -173 l79 -79 26 24 25 24 28 -27 28 -27 27 27 27 27 47
-46 c27 -25 74 -61 106 -78 32 -18 61 -39 64 -47 8 -21 -25 -87 -63 -124 l-33
-32 31 -61 c18 -37 58 -90 101 -133 l71 -72 -24 -26 -24 -25 60 -62 c88 -93
95 -95 119 -49 l15 30 67 -23 c38 -13 118 -48 179 -79 l111 -56 29 30 c16 16
71 52 123 80 l95 49 28 -27 28 -27 113 111 c85 84 128 119 180 145 l68 34 -70
33 c-59 29 -72 40 -88 75 -10 22 -31 55 -46 73 l-28 32 22 43 c11 24 35 58 52
75 l31 33 -24 25 -23 25 22 24 23 25 -26 77 c-26 78 -26 78 -6 99 11 11 29 48
40 80 11 33 22 66 25 73 7 18 59 -9 108 -56 l37 -36 78 77 77 77 22 -22 22
-22 53 25 c29 13 65 35 81 48 l29 24 92 -92 c65 -65 102 -110 121 -152 16 -32
34 -59 40 -59 6 0 45 11 85 25 l74 25 63 -21 c67 -22 112 -20 134 7 7 9 36 27
63 41 28 14 61 34 74 46 l22 20 25 -23 25 -23 23 21 c30 28 35 28 68 -4 l28
-26 10 38 c5 22 20 79 32 127 l22 88 -34 35 c-18 19 -78 57 -134 85 -55 29
-108 59 -118 67 -16 15 -16 17 10 44 l27 28 -24 25 -23 24 102 107 c56 59 98
110 94 114 -4 4 -44 19 -88 34 -69 22 -89 35 -134 80 -29 30 -71 62 -92 72
-22 9 -39 21 -39 26 0 5 9 27 21 50 26 51 20 57 -76 88 -38 12 -83 35 -100 50
-43 39 -110 74 -190 100 -110 36 -186 78 -245 136 -44 43 -70 59 -130 79 -60
20 -86 36 -130 79 -52 50 -61 55 -150 76 -78 18 -102 29 -130 56 -20 19 -38
34 -41 34 -3 0 -18 -26 -33 -58 l-28 -59 -90 -22 c-50 -12 -92 -21 -93 -19 -2
2 -13 24 -23 49 l-20 46 -135 27 c-140 28 -220 61 -267 111 -13 14 -26 25 -30
25 -3 0 -35 -29 -70 -65z m180 -68 c30 -14 108 -35 172 -48 l117 -23 22 -49
c13 -26 27 -51 31 -54 5 -2 60 8 123 23 113 28 114 28 131 66 18 41 26 45 42
25 6 -7 58 -24 114 -37 99 -23 105 -26 163 -81 48 -45 74 -61 130 -79 57 -18
81 -33 130 -80 66 -64 105 -86 210 -120 91 -30 182 -75 220 -110 17 -15 58
-37 93 -50 34 -12 62 -24 62 -27 0 -2 -9 -21 -20 -43 -25 -50 -27 -83 -2 -78
29 7 87 -28 142 -86 42 -44 65 -60 117 -77 l65 -21 -98 -99 -98 -99 27 -28 27
-28 -25 -24 -25 -24 37 -39 c23 -23 81 -61 144 -92 58 -29 111 -60 118 -69 10
-12 10 -29 -4 -90 -9 -42 -21 -76 -25 -76 -4 0 -13 7 -20 15 -12 14 -16 13
-40 -10 l-26 -25 -24 25 -23 25 -38 -35 c-21 -19 -57 -44 -81 -56 -24 -12 -55
-32 -70 -46 l-27 -25 -75 25 -76 26 -70 -24 -70 -24 -24 47 c-14 27 -72 94
-135 157 l-111 109 -32 -31 c-18 -17 -52 -40 -74 -51 l-41 -21 -23 24 c-13 14
-29 25 -36 25 -7 0 -43 -34 -82 -75 -61 -65 -71 -73 -83 -59 -11 13 -140 84
-153 84 -2 0 -17 -37 -31 -82 -18 -53 -39 -95 -58 -116 l-31 -32 26 -79 26
-79 -29 -28 -29 -28 26 -27 27 -28 -24 -28 c-13 -16 -35 -52 -48 -81 l-25 -52
31 -33 c17 -17 43 -56 57 -84 17 -33 37 -58 57 -68 l31 -16 -44 -28 c-24 -15
-80 -67 -125 -116 l-82 -89 -26 24 -26 24 -101 -50 c-56 -27 -117 -62 -135
-77 l-32 -29 -98 51 c-89 46 -229 101 -258 101 -7 0 -17 -12 -24 -27 l-12 -27
-42 42 -41 42 27 28 27 28 -86 84 c-47 47 -94 102 -105 123 l-20 37 25 33 c13
17 36 56 51 86 l27 53 -34 35 c-18 19 -58 48 -88 63 -30 16 -80 53 -110 84
l-54 56 -26 -25 -26 -25 -24 25 -24 25 -26 -25 -26 -25 -62 63 -62 63 49 48
49 48 -26 79 -26 78 22 24 c12 13 33 56 47 96 21 64 35 84 104 156 l78 82 24
98 c13 54 31 108 41 119 l16 21 26 -24 26 -24 25 23 c23 21 26 22 42 8 10 -9
46 -30 81 -47 l63 -32 70 38 c38 20 69 40 69 43 0 4 -22 17 -50 30 -54 25 -58
31 -36 50 15 11 66 152 66 179 0 8 -9 24 -20 36 l-21 22 22 49 c28 65 78 508
60 533 -24 34 -23 43 10 77 l33 34 25 -24 c15 -14 51 -36 81 -49z"/>
</g>
</svg>
