<?xml version="1.0" standalone="no"?>
<!DOCTYPE svg PUBLIC "-//W3C//DTD SVG 20010904//EN"
 "http://www.w3.org/TR/2001/REC-SVG-20010904/DTD/svg10.dtd">
<svg version="1.0" xmlns="http://www.w3.org/2000/svg"
 width="3000.000000pt" height="4000.000000pt" viewBox="0 0 3000.000000 4000.000000"
 preserveAspectRatio="xMidYMid meet">
<metadata>
Created by potrace 1.16, written by Peter Selinger 2001-2019
</metadata>
<g transform="translate(0.000000,4000.000000) scale(0.100000,-0.100000)"
fill="#000000" stroke="none">
<path d="M25176 8365 c-30 -94 -25 -91 -105 -59 -51 21 -74 17 -111 -21 l-34
-35 24 -25 24 -25 -44 -45 c-45 -46 -133 -85 -191 -85 -36 0 -84 -28 -102 -60
-8 -14 -24 -68 -37 -120 -18 -74 -29 -102 -53 -127 l-31 -33 24 -25 23 -25
-54 -59 c-30 -32 -58 -59 -63 -60 -6 0 -20 9 -33 21 l-23 22 -30 -29 -31 -29
-87 22 c-107 27 -110 27 -193 0 -60 -19 -70 -20 -100 -7 -19 7 -50 28 -69 45
-43 38 -167 108 -173 97 -8 -15 -107 -331 -107 -344 0 -7 7 -21 17 -31 14 -16
15 -20 1 -35 -9 -10 -28 -43 -43 -73 -15 -30 -40 -68 -55 -85 -20 -22 -34 -56
-50 -125 -16 -64 -32 -106 -51 -130 -18 -23 -36 -68 -52 -133 l-25 -98 -83
-87 c-46 -48 -87 -88 -91 -90 -4 -2 -8 -9 -8 -17 0 -7 -7 -18 -15 -25 -26 -22
-20 -160 9 -223 13 -29 27 -60 30 -69 3 -11 15 -18 31 -18 14 0 42 -8 63 -19
20 -10 69 -29 107 -41 39 -13 114 -45 167 -71 92 -46 99 -52 124 -102 14 -28
58 -85 97 -124 l71 -72 -24 -26 -24 -25 37 -38 c27 -28 57 -44 110 -61 87 -28
118 -55 152 -135 17 -39 40 -73 65 -93 l38 -33 32 132 c17 72 44 164 58 204
l27 73 373 377 373 377 28 -27 27 -26 24 25 24 26 79 -78 78 -78 107 111 107
112 140 27 c77 16 142 30 144 32 3 2 -10 18 -27 36 l-32 33 71 69 c57 56 81
91 124 175 51 102 60 113 251 309 l199 203 65 -25 c62 -24 67 -24 88 -9 12 10
32 49 47 92 l25 74 -63 63 -63 63 -74 -25 -74 -25 -48 47 c-44 43 -49 53 -69
142 -26 115 -51 152 -130 191 -32 17 -81 55 -115 90 l-57 60 -29 -27 -28 -27
-25 24 -25 23 -25 -23 -25 -24 -48 46 c-26 25 -69 57 -97 71 -27 14 -61 37
-75 52 -14 15 -47 38 -75 52 -27 14 -77 52 -111 84 l-60 60 -24 -26 -24 -25
-31 30 -31 30 -28 -85z m194 -41 c25 -25 70 -58 100 -74 30 -15 64 -38 75 -50
11 -12 45 -35 76 -51 35 -17 76 -50 107 -86 l51 -58 29 28 28 27 24 -25 24
-25 26 25 26 25 43 -44 c24 -25 70 -59 102 -76 32 -17 66 -41 76 -54 11 -13
29 -69 43 -124 23 -99 25 -102 82 -159 l58 -57 79 26 79 26 41 -42 41 -42 -21
-61 -20 -61 -72 24 -71 24 -214 -212 -213 -213 -50 -105 c-43 -91 -61 -116
-136 -192 -83 -84 -86 -88 -70 -106 17 -18 14 -20 -90 -41 l-108 -21 -101
-101 -101 -101 -73 81 -74 81 -28 -27 -28 -27 -26 25 -26 24 -394 -400 -394
-400 -34 -105 c-19 -58 -40 -131 -47 -162 -7 -32 -16 -58 -20 -58 -5 0 -22 26
-38 58 -40 79 -82 114 -173 147 -99 35 -110 47 -75 83 l27 28 -90 89 c-59 59
-96 105 -110 137 -20 46 -25 51 -128 102 -59 29 -145 67 -192 84 -119 42 -139
52 -146 76 -3 12 -12 28 -19 36 -6 8 -22 34 -35 57 -30 54 -22 123 15 143 14
7 28 23 31 34 4 12 39 55 78 96 l72 75 23 100 c18 75 30 107 51 130 21 22 34
55 51 130 17 70 32 109 50 130 15 16 36 50 49 75 12 25 38 62 58 82 l36 38
-29 30 -29 31 43 132 c24 72 45 133 46 135 6 7 81 -37 103 -60 12 -13 49 -37
82 -53 l61 -29 79 26 80 26 92 -24 c109 -29 116 -29 140 -7 17 15 20 15 43 -7
l26 -24 94 94 95 94 -27 28 -27 28 21 22 c13 14 32 63 46 121 27 104 53 147
91 147 12 0 57 12 101 26 69 23 89 35 142 87 l63 61 -21 23 c-22 23 -20 53 4
53 7 0 45 -11 84 -24 l70 -24 22 70 23 70 22 -21 22 -21 24 25 c13 14 26 25
30 25 3 0 26 -21 50 -46z"/>
</g>
</svg>
