<?xml version="1.0" standalone="no"?>
<!DOCTYPE svg PUBLIC "-//W3C//DTD SVG 20010904//EN"
 "http://www.w3.org/TR/2001/REC-SVG-20010904/DTD/svg10.dtd">
<svg version="1.0" xmlns="http://www.w3.org/2000/svg"
 width="3000.000000pt" height="4000.000000pt" viewBox="0 0 3000.000000 4000.000000"
 preserveAspectRatio="xMidYMid meet">
<metadata>
Created by potrace 1.16, written by Peter Selinger 2001-2019
</metadata>
<g transform="translate(0.000000,4000.000000) scale(0.100000,-0.100000)"
fill="#000000" stroke="none">
<path d="M26388 12813 c-88 -91 -151 -222 -100 -211 29 7 87 -28 142 -86 42
-44 65 -60 117 -77 l65 -21 -98 -99 -98 -99 27 -28 27 -28 -25 -24 -25 -24 37
-39 c23 -23 81 -61 144 -92 58 -29 111 -60 118 -69 10 -12 10 -29 -4 -90 -9
-42 -21 -76 -25 -76 -4 0 -13 7 -20 15 -12 14 -16 13 -40 -10 l-26 -25 -24 25
-23 25 -38 -35 c-21 -19 -57 -44 -81 -56 -84 -42 -100 -70 -78 -135 8 -24 5
-44 -15 -104 l-25 -74 47 -49 c52 -53 90 -77 123 -77 11 0 42 -11 69 -24 l48
-25 25 26 25 25 48 -25 48 -24 79 26 78 25 76 -25 c91 -29 108 -47 77 -81 -13
-14 -30 -63 -46 -132 l-26 -108 28 -57 c36 -70 138 -168 209 -200 l52 -25 33
31 c17 16 50 40 71 52 l39 22 26 -25 c20 -19 53 -30 150 -49 l123 -25 113
-112 113 -113 32 64 c40 80 63 105 122 135 l46 23 64 -21 c34 -11 75 -32 90
-45 l26 -25 -25 -74 -25 -74 71 -78 70 -77 -24 -25 -25 -26 27 -27 27 -26 -22
-23 -21 -23 26 -85 25 -85 147 -150 c179 -183 205 -197 289 -156 l52 25 54
-26 c53 -26 54 -27 72 -7 22 24 36 24 59 -1 19 -20 19 -20 56 16 20 20 45 54
54 75 10 21 22 39 26 39 5 0 29 -10 54 -22 l46 -22 83 89 c76 82 86 97 110
172 l27 82 -29 58 c-17 32 -39 66 -50 76 l-20 18 25 56 25 55 -71 72 c-39 39
-71 76 -71 81 0 5 10 19 22 32 l22 24 -86 87 c-47 48 -96 106 -107 129 l-21
43 25 152 26 153 54 55 c44 45 68 85 129 212 l75 157 -26 133 c-18 92 -32 140
-46 156 l-20 22 20 23 21 22 -25 135 c-31 162 -45 186 -142 235 l-68 34 -24
-25 -23 -24 -23 22 -23 22 -74 -24 -74 -23 -29 24 c-16 13 -48 33 -72 43 -34
16 -48 31 -71 75 -43 86 -70 106 -184 135 -69 17 -106 32 -125 50 -15 14 -67
39 -115 56 l-89 31 -23 -22 -24 -22 -25 23 -25 24 -36 -35 c-20 -19 -49 -59
-64 -89 -30 -59 -101 -133 -163 -170 l-38 -22 -29 27 -28 27 -49 -26 -50 -25
-24 25 -24 24 -82 -27 -82 -27 -176 24 -176 24 -154 157 c-94 97 -170 166
-196 180 -24 12 -71 47 -104 78 -58 55 -64 58 -167 84 -59 15 -109 27 -111 27
-1 0 -28 -26 -59 -57z m160 -14 c80 -20 92 -26 147 -79 33 -32 81 -67 105 -80
27 -13 108 -85 205 -180 l160 -159 183 -26 184 -26 73 24 73 25 25 -26 26 -26
51 24 51 24 26 -26 26 -27 61 31 c81 40 150 108 191 189 46 91 58 99 94 65
l28 -27 25 30 24 31 64 -21 c36 -12 79 -35 96 -51 24 -22 56 -36 130 -54 112
-29 133 -44 174 -125 23 -45 37 -59 72 -75 24 -10 61 -36 84 -56 l41 -38 77
26 77 26 30 -28 29 -28 27 26 26 27 46 -24 c72 -36 82 -53 107 -183 l23 -117
-29 -29 -29 -30 32 -35 c28 -31 35 -52 55 -156 l23 -120 -71 -150 c-59 -122
-83 -161 -128 -207 l-56 -57 -26 -163 -27 -163 33 -65 c20 -41 56 -89 98 -130
l66 -64 -25 -26 -25 -26 75 -74 c41 -41 75 -80 75 -87 0 -7 -10 -33 -22 -57
l-21 -45 34 -38 c19 -21 42 -57 53 -80 18 -41 18 -42 -4 -110 -19 -58 -33 -79
-93 -140 l-70 -72 -48 25 c-27 13 -52 24 -57 24 -5 0 -21 -27 -37 -60 -16 -33
-36 -67 -45 -75 -15 -13 -19 -12 -40 10 l-24 25 -28 -27 -28 -27 -50 24 -51
24 -52 -25 c-78 -38 -93 -30 -254 135 -131 134 -139 144 -160 211 l-23 69 27
28 27 28 -24 25 -24 26 27 27 27 27 -81 81 -82 82 27 78 26 78 -32 33 c-22 23
-57 41 -118 61 l-86 29 -50 -24 c-61 -31 -110 -76 -135 -125 -11 -21 -23 -38
-27 -38 -4 0 -47 42 -97 93 l-90 94 -125 23 c-109 20 -129 27 -157 54 l-33 30
-60 -29 c-33 -16 -70 -39 -81 -51 l-22 -23 -46 24 c-61 31 -135 109 -160 168
l-21 49 24 95 c19 74 31 103 56 128 l31 32 -43 39 c-31 28 -64 46 -119 63
l-76 24 -78 -26 -78 -27 -52 30 -51 29 -27 -27 -27 -26 -54 27 c-36 17 -57 23
-62 16 -4 -7 -28 10 -59 41 l-53 52 26 79 26 78 -22 24 c-21 22 -21 24 -5 39
10 9 38 26 63 38 25 12 55 32 68 43 l22 20 25 -23 25 -23 23 21 c30 28 35 28
68 -4 l28 -26 10 38 c5 22 20 79 32 127 l22 88 -34 35 c-18 19 -78 57 -134 85
-55 29 -108 59 -118 67 -16 15 -16 17 10 44 l27 28 -24 25 -23 24 102 107 c56
59 98 110 94 114 -4 4 -44 19 -88 34 -69 22 -89 35 -134 80 -29 30 -71 62 -92
72 -44 19 -45 23 -23 67 14 27 101 127 111 127 2 0 43 -10 91 -21z"/>
</g>
</svg>
