<?xml version="1.0" standalone="no"?>
<!DOCTYPE svg PUBLIC "-//W3C//DTD SVG 20010904//EN"
 "http://www.w3.org/TR/2001/REC-SVG-20010904/DTD/svg10.dtd">
<svg version="1.0" xmlns="http://www.w3.org/2000/svg"
 width="3000.000000pt" height="4000.000000pt" viewBox="0 0 3000.000000 4000.000000"
 preserveAspectRatio="xMidYMid meet">
<metadata>
Created by potrace 1.16, written by Peter Selinger 2001-2019
</metadata>
<g transform="translate(0.000000,4000.000000) scale(0.100000,-0.100000)"
fill="#000000" stroke="none">
<path d="M21412 12417 c-12 -13 -36 -64 -52 -113 -17 -49 -42 -113 -57 -142
l-26 -52 23 -25 23 -25 -21 -23 -22 -23 26 -129 c25 -126 26 -128 8 -169 -10
-22 -44 -68 -75 -101 -44 -47 -61 -75 -79 -130 -13 -38 -38 -101 -57 -140
l-33 -70 126 -126 c79 -79 124 -131 119 -139 -5 -8 -13 -6 -29 8 -11 11 -48
34 -82 50 l-61 31 -31 -32 c-16 -18 -56 -83 -87 -146 l-56 -114 29 -31 c17
-17 40 -51 52 -75 l22 -43 -28 -29 -28 -29 24 -25 24 -25 -42 -43 c-24 -24
-56 -70 -71 -103 -16 -32 -47 -77 -70 -99 l-41 -39 -28 27 -27 27 -57 -62
c-52 -56 -58 -66 -58 -105 0 -56 30 -114 91 -180 27 -28 49 -60 49 -70 0 -10
-11 -60 -24 -111 -13 -50 -21 -94 -17 -96 3 -2 53 -16 111 -31 83 -21 112 -33
138 -58 l33 -32 25 29 c23 26 27 27 57 15 48 -20 145 -117 179 -179 40 -76 79
-130 93 -130 6 0 32 -21 57 -48 24 -26 68 -58 96 -71 l52 -24 50 23 51 24 55
-55 55 -54 177 183 177 183 49 -49 48 -50 86 29 c52 18 98 41 117 58 16 16 50
39 75 51 25 12 55 32 68 43 l22 20 25 -23 25 -24 33 31 c17 17 52 41 76 53
l44 22 53 -53 54 -53 24 23 c14 13 29 20 34 17 6 -3 24 6 42 20 l31 27 -22 23
-22 24 23 25 23 25 -21 23 c-27 28 -27 35 -3 61 13 15 25 63 42 171 22 142 26
152 58 188 18 21 32 39 30 41 -2 1 -35 17 -72 34 l-68 32 -48 -25 -48 -24 -71
72 c-60 62 -73 81 -90 137 l-20 65 25 27 c14 14 24 31 22 37 -4 10 -229 241
-235 241 -2 0 -30 -53 -63 -118 -68 -136 -80 -150 -104 -124 -9 10 -44 31 -77
47 l-61 29 -99 -49 -100 -49 -62 61 c-58 58 -61 63 -46 80 9 10 29 45 46 78
18 35 57 86 96 125 l66 64 29 -28 29 -28 28 53 c44 88 83 215 114 369 l29 145
-21 22 -21 23 57 60 c35 36 56 67 54 78 -2 13 -37 26 -156 56 l-153 39 -23
-22 c-21 -20 -24 -20 -36 -6 -8 9 -31 25 -52 36 -43 22 -44 25 -21 51 15 17
15 20 -11 47 l-28 29 27 52 27 53 -84 84 c-47 48 -105 96 -133 110 -30 15 -97
71 -165 138 -63 62 -129 120 -147 129 -45 23 -85 20 -111 -7z m243 -167 c61
-62 119 -111 150 -127 53 -27 185 -148 185 -171 0 -21 -30 -74 -58 -105 -24
-25 -25 -28 -9 -44 15 -16 18 -16 36 1 32 29 37 -2 6 -34 l-27 -29 58 -29 c33
-17 75 -46 93 -66 l35 -36 31 30 32 31 89 -22 c49 -12 98 -30 109 -40 19 -19
19 -20 -33 -72 l-52 -53 30 -30 30 -30 -25 -124 c-14 -69 -32 -147 -41 -175
-22 -68 -65 -165 -74 -165 -4 0 -15 9 -24 19 -17 18 -20 16 -104 -71 -48 -49
-98 -111 -111 -136 -13 -26 -38 -63 -56 -82 l-33 -35 87 -93 87 -94 106 53
106 53 40 -18 c22 -10 55 -33 73 -52 18 -19 38 -34 44 -34 24 0 76 69 115 153
23 48 44 87 48 87 4 0 43 -36 87 -80 l79 -79 -23 -25 -23 -24 28 -86 c27 -81
32 -89 116 -173 l89 -88 51 27 c47 25 52 26 79 12 33 -17 34 -21 15 -43 -8 -9
-25 -85 -39 -170 -24 -142 -29 -157 -57 -186 l-30 -31 25 -24 25 -24 -24 -25
c-20 -21 -23 -30 -14 -45 8 -14 6 -23 -12 -40 l-22 -21 -47 54 -48 53 -59 -33
c-32 -18 -68 -41 -80 -51 -20 -18 -21 -18 -44 7 l-24 25 -35 -34 c-20 -19 -56
-44 -81 -56 -25 -12 -58 -35 -75 -50 -16 -15 -61 -38 -99 -50 l-68 -22 -54 53
-54 54 -183 -183 -183 -183 -45 52 -45 52 -53 -28 -54 -27 -41 18 c-64 29
-192 158 -231 234 -41 80 -110 148 -191 189 l-61 30 -24 -25 -23 -24 -21 20
c-12 11 -61 31 -109 44 -47 13 -89 25 -92 28 -2 3 5 49 17 102 l23 97 -56 57
c-99 101 -115 172 -53 232 l35 34 25 -24 25 -24 61 60 c33 32 73 84 89 114 16
30 53 80 84 110 l56 54 -27 28 -27 28 24 25 24 25 -29 60 c-16 33 -39 70 -51
81 l-23 21 48 97 c27 53 58 104 69 114 19 18 21 18 59 -1 21 -11 51 -34 67
-51 17 -17 35 -31 40 -30 6 0 26 19 45 40 l34 40 -128 129 -128 129 25 58 c14
32 35 88 47 124 16 49 32 76 67 110 25 24 61 74 79 110 l34 66 -25 128 -25
128 25 26 c32 33 32 42 1 71 l-24 23 23 46 c13 25 33 78 46 116 12 39 32 80
43 92 l20 22 46 -24 c25 -13 91 -69 146 -125z"/>
</g>
</svg>
