<?xml version="1.0" standalone="no"?>
<!DOCTYPE svg PUBLIC "-//W3C//DTD SVG 20010904//EN"
 "http://www.w3.org/TR/2001/REC-SVG-20010904/DTD/svg10.dtd">
<svg version="1.0" xmlns="http://www.w3.org/2000/svg"
 width="3000.000000pt" height="4000.000000pt" viewBox="0 0 3000.000000 4000.000000"
 preserveAspectRatio="xMidYMid meet">
<metadata>
Created by potrace 1.16, written by Peter Selinger 2001-2019
</metadata>
<g transform="translate(0.000000,4000.000000) scale(0.100000,-0.100000)"
fill="#000000" stroke="none">
<path d="M22987 11933 c-2 -5 -16 -45 -31 -89 -25 -77 -29 -82 -69 -100 -23
-10 -71 -46 -107 -80 -36 -34 -80 -69 -99 -79 -33 -16 -34 -16 -60 8 -14 13
-47 29 -72 35 -47 12 -119 6 -119 -9 0 -5 -29 -37 -65 -71 l-66 -61 31 -32 30
-31 -25 -125 c-14 -68 -32 -146 -41 -174 -22 -68 -65 -165 -74 -165 -4 0 -15
9 -24 19 -17 18 -20 16 -104 -71 -48 -49 -98 -111 -111 -136 -13 -26 -38 -63
-56 -82 l-33 -35 87 -93 87 -94 106 53 106 53 40 -18 c22 -10 55 -33 73 -52
18 -19 38 -34 44 -34 24 0 76 69 115 153 23 48 44 87 48 87 4 0 43 -36 87 -80
l79 -79 -23 -25 -23 -24 28 -86 c27 -81 32 -89 116 -173 l88 -87 47 24 c27 14
51 26 54 28 3 1 22 -9 43 -23 20 -14 58 -30 83 -36 26 -5 81 -24 122 -41 68
-28 89 -44 199 -152 l122 -120 38 36 c30 29 64 44 182 83 l145 47 77 76 78 76
80 -26 81 -27 31 63 31 63 -26 138 c-20 105 -32 144 -49 162 l-22 23 33 75 33
74 -59 55 -58 54 27 29 28 29 -86 84 c-47 47 -94 102 -105 123 l-20 37 25 33
c13 17 36 56 51 86 l27 53 -34 35 c-18 19 -58 48 -88 63 -30 16 -80 53 -110
84 l-54 56 -26 -25 -26 -25 -24 25 -24 25 -26 -25 -26 -25 -62 63 c-62 63 -63
63 -42 82 11 10 20 23 20 29 0 6 -51 62 -113 124 l-113 113 -101 -53 -100 -53
-44 47 c-44 46 -174 125 -182 111z m71 -82 c20 -11 61 -44 91 -74 l54 -55 104
51 103 52 87 -87 c69 -69 84 -90 78 -105 -23 -52 -17 -67 65 -148 l79 -79 26
24 26 24 26 -27 27 -27 28 27 28 27 48 -46 c26 -25 73 -61 105 -78 32 -18 61
-39 64 -47 8 -21 -25 -87 -63 -124 l-33 -32 31 -61 c18 -37 58 -90 101 -133
l71 -72 -24 -26 -24 -25 57 -58 c31 -32 57 -63 57 -70 0 -7 -14 -40 -31 -74
l-31 -60 31 -32 c26 -27 33 -46 52 -153 22 -119 22 -123 4 -163 -10 -22 -19
-40 -20 -40 -1 0 -35 12 -76 26 l-74 25 -76 -81 -76 -81 -159 -55 c-87 -30
-167 -63 -177 -72 -17 -15 -24 -10 -115 80 -104 103 -146 129 -290 180 -48 16
-108 41 -134 54 l-48 24 -48 -24 -49 -25 -71 72 c-60 62 -73 81 -90 137 l-20
65 25 27 c14 14 24 31 22 37 -4 10 -229 241 -235 241 -2 0 -30 -53 -63 -118
-68 -136 -80 -150 -104 -124 -9 10 -44 31 -77 47 l-61 29 -99 -49 -100 -49
-62 61 c-58 58 -61 63 -46 80 9 10 29 45 46 78 18 35 57 86 96 125 l66 64 29
-28 29 -28 28 53 c44 88 83 215 114 369 l29 145 -22 23 -21 23 54 54 55 55 52
-14 c36 -10 61 -24 79 -45 l25 -31 62 31 c34 17 91 59 127 93 36 34 84 70 107
80 40 18 44 24 65 87 12 38 23 69 25 69 2 0 20 -9 41 -19z"/>
</g>
</svg>
