<?xml version="1.0" standalone="no"?>
<!DOCTYPE svg PUBLIC "-//W3C//DTD SVG 20010904//EN"
 "http://www.w3.org/TR/2001/REC-SVG-20010904/DTD/svg10.dtd">
<svg version="1.0" xmlns="http://www.w3.org/2000/svg"
 width="3000.000000pt" height="4000.000000pt" viewBox="0 0 3000.000000 4000.000000"
 preserveAspectRatio="xMidYMid meet">
<metadata>
Created by potrace 1.16, written by Peter Selinger 2001-2019
</metadata>
<g transform="translate(0.000000,4000.000000) scale(0.100000,-0.100000)"
fill="#000000" stroke="none">
<path d="M21968 4990 c-139 -144 -272 -272 -295 -286 -24 -14 -43 -30 -43 -37
0 -16 30 -41 79 -66 36 -19 42 -28 65 -99 29 -87 61 -125 136 -162 27 -13 103
-80 190 -165 80 -78 155 -146 168 -150 l22 -6 -19 -28 -20 -28 58 -57 c49 -49
61 -68 81 -129 15 -48 34 -86 57 -111 l36 -39 52 26 52 25 24 -24 25 -24 92
31 c78 26 98 37 130 74 l38 44 114 -114 114 -114 -22 -23 -21 -23 24 -80 25
-80 -49 -50 c-38 -39 -54 -66 -71 -120 -15 -47 -34 -82 -58 -108 l-36 -37 56
-58 56 -57 -28 -80 c-32 -94 -55 -142 -83 -172 -31 -35 -18 -87 37 -142 l45
-45 30 28 c28 27 29 27 62 11 19 -9 77 -59 129 -111 l95 -94 58 115 c53 107
60 116 104 139 27 13 82 59 123 101 81 83 153 126 276 165 l71 23 48 151 c49
151 101 272 128 294 11 9 19 7 37 -13 l24 -25 48 47 c26 26 49 45 52 42 2 -2
14 -26 28 -52 l24 -48 127 131 c70 73 127 137 127 144 0 16 -37 49 -77 70 -38
19 -39 24 -14 75 l20 38 -28 109 c-26 101 -66 198 -96 234 -38 45 -11 187 47
247 l32 33 -29 30 -30 31 31 87 c17 48 37 101 44 118 13 31 13 31 -59 100 -43
40 -84 89 -99 121 -31 61 -213 250 -276 287 -45 26 -130 48 -143 36 -4 -4 -39
-18 -78 -30 -39 -12 -83 -35 -100 -51 -25 -23 -50 -32 -148 -50 l-117 -23 -81
26 -80 27 -75 -27 -76 -27 -22 28 c-12 15 -27 27 -33 27 -6 0 -29 -20 -51 -45
-22 -25 -43 -45 -48 -45 -4 0 -18 10 -31 22 l-23 22 -53 -52 c-50 -50 -54 -52
-69 -35 -9 10 -27 54 -41 98 l-25 80 -158 27 -158 27 -58 58 -58 57 -25 -24
-25 -23 -23 21 c-13 12 -26 22 -29 22 -4 0 -120 -117 -260 -260z m610 80 l147
-25 25 -73 c18 -49 38 -84 63 -109 l37 -37 50 49 50 49 25 -24 25 -24 53 52
53 52 22 -22 22 -22 80 26 81 26 75 -25 76 -25 136 27 c118 23 141 31 167 56
33 31 131 68 183 69 55 0 122 -44 224 -147 65 -66 106 -118 126 -159 20 -39
53 -81 92 -117 60 -56 60 -57 47 -84 -8 -16 -27 -67 -43 -115 l-28 -87 22 -24
c22 -23 22 -24 3 -41 -54 -49 -83 -264 -40 -294 30 -21 66 -100 94 -211 l25
-101 -29 -58 -30 -59 60 -28 c32 -16 59 -34 59 -40 0 -6 -42 -52 -93 -103
l-93 -93 -24 51 -24 51 -51 -51 c-28 -27 -55 -50 -60 -50 -5 0 -20 10 -33 23
l-24 22 -35 -40 c-45 -50 -77 -123 -137 -302 l-47 -142 -52 -19 c-29 -11 -63
-23 -77 -27 -61 -19 -120 -59 -190 -130 -46 -47 -97 -88 -133 -106 -55 -28
-59 -33 -104 -124 l-47 -94 -76 72 c-44 42 -97 82 -128 96 l-52 24 -23 -21
-23 -22 -32 33 c-36 37 -39 49 -16 68 23 19 53 83 90 192 l33 99 -45 48 -46
49 20 28 c11 15 30 60 42 98 18 57 33 81 77 127 l55 56 -26 78 -26 78 26 27
27 28 -31 38 c-17 21 -80 87 -141 148 l-111 110 -62 -62 c-50 -48 -76 -65
-128 -82 l-65 -22 -20 26 c-25 31 -32 31 -90 3 -45 -22 -45 -22 -64 -3 -10 11
-30 56 -45 100 -20 60 -36 90 -68 122 l-42 43 28 29 28 30 -68 35 c-54 27 -96
62 -194 161 -80 81 -143 136 -175 152 -76 38 -92 59 -122 151 -27 80 -30 86
-70 105 -24 12 -42 23 -41 26 0 4 120 123 264 266 l263 259 26 -24 26 -24 26
27 27 27 49 -48 48 -47 147 -25z"/>
</g>
</svg>
