<?xml version="1.0" standalone="no"?>
<!DOCTYPE svg PUBLIC "-//W3C//DTD SVG 20010904//EN"
 "http://www.w3.org/TR/2001/REC-SVG-20010904/DTD/svg10.dtd">
<svg version="1.0" xmlns="http://www.w3.org/2000/svg"
 width="3000.000000pt" height="4000.000000pt" viewBox="0 0 3000.000000 4000.000000"
 preserveAspectRatio="xMidYMid meet">
<metadata>
Created by potrace 1.16, written by Peter Selinger 2001-2019
</metadata>
<g transform="translate(0.000000,4000.000000) scale(0.100000,-0.100000)"
fill="#000000" stroke="none">
<path d="M17800 5694 c-36 -8 -88 -19 -117 -25 -50 -10 -57 -16 -232 -199 -99
-105 -190 -209 -202 -232 -12 -24 -26 -46 -31 -49 -5 -3 -53 -16 -107 -29
l-99 -23 -27 -90 -27 -90 23 -49 23 -49 -27 -27 -27 -26 52 -53 52 -53 -28
-29 -28 -30 62 -31 c55 -28 64 -37 82 -81 19 -46 28 -54 89 -84 58 -30 69 -32
79 -20 20 24 25 18 44 -42 10 -32 29 -69 41 -83 l24 -25 -26 -103 -26 -103 39
-40 38 -39 27 26 26 25 20 -25 c11 -13 28 -54 38 -91 16 -59 26 -75 96 -149
l79 -84 157 -53 c104 -36 169 -64 190 -82 17 -15 70 -41 116 -56 l85 -29 25
26 26 26 83 -19 c45 -11 114 -34 152 -52 l69 -34 24 23 24 22 72 -71 c71 -70
73 -72 170 -97 121 -32 128 -32 156 -2 l22 23 117 -24 c100 -20 121 -28 148
-54 l32 -31 52 28 51 28 72 -23 c59 -19 82 -33 129 -79 l58 -56 24 23 25 24
28 -24 c16 -13 52 -35 81 -48 l52 -24 25 23 25 23 50 -23 50 -23 52 24 c29 13
64 34 79 46 26 22 27 22 43 4 19 -21 226 -77 250 -68 8 3 18 27 22 54 11 75
28 100 95 134 l61 31 -31 32 -31 32 25 74 c14 40 25 78 25 85 0 6 -42 25 -94
42 l-94 31 -25 -25 -24 -25 -39 20 c-48 25 -85 64 -113 119 -24 49 -21 83 13
123 12 14 32 49 45 78 l24 52 -23 25 -24 25 34 35 c33 34 34 35 54 16 12 -10
49 -33 82 -49 61 -31 62 -31 79 -12 23 25 33 25 62 -2 l23 -22 16 22 c20 28
32 28 64 -3 l26 -25 29 60 c25 53 36 65 90 95 34 19 68 41 74 49 11 14 19 12
61 -9 l48 -24 73 24 73 25 27 -26 27 -25 63 31 c35 18 65 34 67 35 9 8 -53
183 -71 203 l-21 22 27 28 28 29 -41 18 c-47 21 -56 31 -42 48 6 7 22 44 36
82 l25 70 -41 42 -42 43 32 33 c54 56 41 105 -57 201 -58 58 -61 59 -80 42
-22 -20 -22 -19 -45 51 -16 49 -23 56 -80 88 -35 19 -71 44 -82 56 -10 12 -45
35 -78 51 l-58 29 -28 -26 -27 -26 -198 75 c-109 42 -203 76 -210 76 -7 0 -20
-9 -30 -20 -18 -19 -18 -19 -44 3 -15 12 -50 33 -79 46 l-52 24 -50 -23 -51
-24 -53 26 -53 27 -36 -37 c-24 -25 -42 -60 -58 -108 l-22 -72 -111 -22 c-61
-12 -150 -34 -197 -49 l-86 -28 -39 20 c-21 10 -49 29 -62 40 -12 11 -38 26
-56 32 -31 11 -35 10 -40 -8 -8 -32 -29 -15 -66 55 l-34 66 -136 27 c-74 14
-178 38 -231 52 l-97 26 -22 48 c-13 26 -38 62 -55 79 l-33 32 -87 -29 c-83
-27 -89 -30 -108 -70 -21 -42 -21 -43 -41 -24 -12 10 -64 40 -116 66 -52 26
-109 60 -125 76 -34 32 -161 80 -209 78 -17 -1 -60 -7 -96 -15z m176 -50 c38
-14 80 -36 94 -48 14 -13 70 -47 125 -76 55 -29 118 -70 140 -91 l41 -39 31
64 c31 63 33 64 98 86 79 26 86 23 130 -69 l28 -60 146 -35 c80 -19 185 -43
233 -53 l87 -17 22 -47 c12 -26 38 -64 58 -84 l37 -35 24 25 c23 25 24 25 44
7 12 -10 47 -33 78 -50 l57 -32 68 25 c50 19 330 85 359 85 1 0 15 37 29 83
15 45 36 91 46 102 19 20 20 20 66 -7 l47 -26 52 26 53 26 51 -24 c29 -13 61
-37 71 -52 25 -34 36 -35 69 -3 l27 25 201 -76 202 -77 23 21 c13 12 29 22 36
22 21 0 85 -37 111 -65 14 -15 46 -38 72 -51 44 -22 47 -27 73 -106 15 -46 30
-87 32 -91 3 -5 20 5 38 23 l32 31 41 -46 c60 -68 62 -90 13 -139 l-41 -41 47
-47 47 -48 -12 -47 c-8 -30 -27 -62 -49 -85 -19 -20 -33 -40 -30 -45 3 -5 24
-18 47 -28 46 -21 48 -25 20 -50 -21 -19 -20 -19 13 -54 21 -22 43 -61 55 -99
l21 -63 -34 -16 c-34 -16 -36 -16 -60 7 l-26 24 -80 -26 -81 -27 -54 27 -54
26 -32 -31 c-18 -17 -56 -42 -84 -56 -39 -20 -54 -35 -69 -66 l-18 -41 -24 22
-23 22 -28 -27 -28 -27 -24 25 -24 25 -27 -26 c-26 -25 -30 -26 -61 -13 -18 7
-52 31 -76 53 l-43 40 -67 -67 -66 -66 28 -30 28 -29 -26 -50 c-14 -27 -37
-59 -51 -70 -34 -27 -34 -83 2 -148 38 -71 70 -102 144 -139 l66 -34 26 27 26
26 56 -18 c30 -9 55 -22 55 -29 0 -7 -9 -41 -20 -76 -19 -59 -19 -65 -4 -82
20 -22 14 -33 -26 -49 -23 -10 -40 -30 -65 -80 -19 -37 -31 -71 -27 -75 4 -4
-2 -5 -13 -2 -11 3 -49 13 -85 22 -47 12 -75 26 -100 51 l-36 34 -38 -39 c-21
-21 -56 -47 -78 -57 l-40 -18 -51 27 -51 27 -27 -26 -27 -26 -43 22 c-24 12
-59 36 -76 53 l-33 31 -25 -24 -25 -23 -52 49 c-43 40 -68 54 -131 74 l-78 24
-46 -23 -46 -22 -21 20 c-16 15 -63 29 -163 49 l-141 29 -26 -26 -26 -25 -96
24 -96 24 -79 85 -79 85 -30 -29 -30 -29 -45 22 c-24 12 -94 35 -154 51 l-109
29 -25 -26 -26 -25 -63 19 c-36 11 -78 32 -98 50 -26 23 -74 44 -180 79 l-145
47 -77 76 c-72 70 -80 83 -104 157 -17 50 -38 92 -57 113 -36 37 -48 39 -65
12 -14 -23 -40 -26 -48 -6 -3 7 6 58 20 112 l25 99 -28 30 c-18 18 -39 63 -56
115 -15 47 -30 89 -32 93 -3 5 -20 -6 -38 -23 l-33 -32 -39 20 c-29 15 -45 33
-63 72 -18 38 -34 57 -62 71 -43 22 -44 25 -21 51 16 18 14 21 -30 66 -52 53
-56 66 -27 82 13 7 18 16 13 23 -4 7 -8 14 -8 17 0 3 -9 25 -19 48 -20 43 -19
43 2 111 l22 68 104 27 103 28 28 58 c22 45 65 95 204 234 l176 176 115 24
c63 13 118 24 121 25 4 1 38 -11 75 -25z"/>
</g>
</svg>
