<?xml version="1.0" standalone="no"?>
<!DOCTYPE svg PUBLIC "-//W3C//DTD SVG 20010904//EN"
 "http://www.w3.org/TR/2001/REC-SVG-20010904/DTD/svg10.dtd">
<svg version="1.0" xmlns="http://www.w3.org/2000/svg"
 width="3000.000000pt" height="4000.000000pt" viewBox="0 0 3000.000000 4000.000000"
 preserveAspectRatio="xMidYMid meet">
<metadata>
Created by potrace 1.16, written by Peter Selinger 2001-2019
</metadata>
<g transform="translate(0.000000,4000.000000) scale(0.100000,-0.100000)"
fill="#000000" stroke="none">
<path d="M19079 9263 c-31 -32 -65 -74 -74 -93 -23 -47 -22 -46 -48 -22 -21
19 -23 20 -43 3 -12 -9 -29 -41 -39 -70 l-17 -53 110 -112 c108 -109 111 -113
180 -259 l71 -149 -45 -91 c-32 -65 -64 -110 -107 -155 l-61 -62 27 -27 27
-27 -52 -53 -52 -53 29 -30 c16 -17 81 -58 145 -91 l115 -61 43 21 c23 12 45
21 47 21 9 0 38 -66 66 -149 16 -47 38 -94 49 -106 19 -20 19 -23 5 -35 -30
-25 -74 -126 -100 -231 -20 -80 -33 -111 -56 -134 l-29 -31 26 -77 c29 -86 27
-115 -11 -153 -13 -13 -21 -24 -18 -24 4 0 -6 -13 -22 -30 l-29 -30 25 -52
c13 -29 48 -79 78 -111 l55 -58 -26 -78 -26 -79 25 -24 24 -24 -49 -105 -49
-105 51 -59 52 -58 -13 -116 c-47 -427 -84 -731 -93 -763 -9 -30 -8 -44 4 -65
8 -16 15 -24 16 -19 0 5 10 0 23 -11 12 -11 48 -34 79 -51 l57 -32 68 25 c50
19 330 85 359 85 1 0 15 37 29 83 15 45 36 91 46 102 19 20 20 20 66 -7 l47
-26 52 26 53 26 51 -24 c29 -13 61 -37 71 -52 25 -34 36 -35 69 -3 l27 25 201
-76 202 -77 23 21 c13 12 29 22 36 22 21 0 85 -37 111 -65 14 -15 46 -38 72
-51 44 -22 47 -27 73 -106 15 -46 30 -87 32 -91 3 -5 20 5 38 23 l32 31 37
-41 c20 -23 41 -52 46 -65 5 -13 22 -31 39 -39 l29 -16 61 66 c47 52 65 80 82
132 11 37 35 98 52 135 l30 68 -23 56 -23 56 22 67 c14 44 35 83 60 112 l39
43 29 -27 29 -28 42 43 42 43 -42 41 c-24 22 -65 52 -93 66 -29 15 -87 63
-140 116 l-89 90 24 26 23 25 -24 52 c-13 29 -41 72 -63 95 l-38 43 -49 -27
-49 -26 -30 28 -30 29 -30 -29 -31 -30 -144 49 c-91 30 -151 56 -165 71 -16
17 -35 78 -70 222 l-48 198 29 31 29 30 -25 24 c-25 23 -25 24 -6 44 10 12 29
65 42 118 25 108 22 121 -34 132 -58 11 -151 63 -196 110 l-45 45 22 122 c15
81 33 141 53 181 l31 61 -51 51 -52 52 45 95 c26 53 60 109 81 129 l35 34 -62
63 c-53 54 -73 67 -132 86 -37 12 -71 28 -74 35 -7 18 38 159 55 174 20 16 16
46 -8 58 -15 9 -38 7 -95 -6 l-75 -18 -52 51 c-41 40 -69 57 -129 78 -42 15
-84 35 -93 45 -9 10 -28 62 -41 116 l-25 97 24 26 c21 22 29 49 48 166 12 77
23 142 25 144 2 2 30 -6 62 -17 59 -20 82 -16 82 13 0 6 -37 48 -83 93 l-83
82 -29 -31 c-41 -42 -122 -81 -229 -109 l-88 -22 -132 129 -131 130 -115 22
c-63 13 -124 25 -135 27 -15 4 -35 -11 -76 -53z m190 -17 l114 -25 133 -132
132 -132 114 28 c124 31 196 61 234 96 l24 22 25 -23 c30 -28 33 -45 6 -28
-16 10 -23 9 -39 -6 -15 -13 -25 -51 -43 -163 -20 -130 -26 -150 -51 -179
l-29 -32 27 -109 c34 -137 60 -168 167 -202 59 -19 82 -33 129 -79 l57 -56 48
12 c26 6 58 14 70 18 l23 6 -25 -73 c-14 -40 -25 -94 -25 -120 l0 -47 78 -26
c61 -21 88 -36 121 -70 39 -39 41 -44 25 -57 -16 -13 -124 -227 -124 -246 0
-5 20 -29 45 -53 25 -24 45 -50 45 -57 0 -8 -9 -32 -21 -54 -11 -23 -32 -102
-46 -176 l-26 -135 59 -60 c54 -55 174 -128 211 -128 23 0 25 -21 8 -90 -11
-43 -25 -76 -41 -91 -17 -16 -21 -26 -13 -35 7 -8 7 -14 -1 -19 -8 -5 -6 -13
6 -26 16 -18 16 -20 -4 -42 l-21 -22 53 -212 c69 -275 57 -260 276 -335 l165
-57 22 21 23 21 24 -22 24 -22 52 26 c61 31 68 27 107 -48 l25 -49 -28 -29
-28 -29 114 -116 c79 -79 133 -125 172 -145 61 -31 76 -45 61 -60 -6 -6 -18 1
-33 16 l-24 26 -63 -63 c-56 -56 -67 -72 -88 -141 -30 -95 -30 -95 -3 -152
l22 -45 -27 -57 c-15 -32 -36 -87 -47 -123 -15 -52 -29 -75 -69 -114 -50 -49
-50 -49 -60 -25 -5 13 -36 51 -70 83 -58 58 -61 59 -80 42 -22 -20 -22 -19
-45 51 -16 49 -23 56 -80 88 -35 19 -71 44 -82 56 -10 12 -45 35 -78 51 l-58
29 -28 -26 -27 -26 -198 75 c-109 42 -203 76 -210 76 -7 0 -20 -9 -30 -20 -18
-19 -18 -19 -44 3 -15 12 -50 33 -79 46 l-52 24 -50 -23 -51 -24 -53 26 -53
27 -36 -37 c-24 -25 -42 -60 -58 -108 l-22 -72 -111 -22 c-61 -12 -150 -34
-197 -49 l-86 -28 -39 20 c-53 26 -105 77 -99 96 6 22 59 450 86 704 l22 208
-49 50 -48 49 47 95 c26 52 47 101 47 109 0 7 -9 21 -20 31 -25 23 -25 33 2
117 l22 68 -56 58 c-55 56 -88 107 -88 135 0 8 8 21 18 30 10 9 31 43 46 76
l29 59 -26 75 -25 75 23 22 c17 16 31 53 50 134 31 128 53 176 103 228 l36 38
-31 32 c-17 18 -38 58 -48 88 -9 30 -35 94 -57 142 l-41 87 -56 -28 -56 -29
-90 45 c-49 25 -100 55 -113 66 l-22 21 50 51 c50 51 51 51 30 70 -28 25 -25
36 16 76 21 20 61 83 95 151 l59 118 -79 162 c-76 156 -84 168 -179 268 -94
98 -99 106 -90 132 12 34 15 34 48 3 l26 -25 25 52 c13 29 48 79 78 111 30 31
54 57 55 57 1 0 52 -11 115 -24z"/>
</g>
</svg>
