<?xml version="1.0" standalone="no"?>
<!DOCTYPE svg PUBLIC "-//W3C//DTD SVG 20010904//EN"
 "http://www.w3.org/TR/2001/REC-SVG-20010904/DTD/svg10.dtd">
<svg version="1.0" xmlns="http://www.w3.org/2000/svg"
 width="3000.000000pt" height="4000.000000pt" viewBox="0 0 3000.000000 4000.000000"
 preserveAspectRatio="xMidYMid meet">
<metadata>
Created by potrace 1.16, written by Peter Selinger 2001-2019
</metadata>
<g transform="translate(0.000000,4000.000000) scale(0.100000,-0.100000)"
fill="#000000" stroke="none">
<path d="M22788 9656 c-32 -18 -66 -40 -76 -49 -17 -16 -20 -16 -42 8 l-24 25
-35 -34 c-20 -19 -56 -44 -81 -56 -25 -12 -58 -35 -75 -50 -16 -15 -61 -38
-99 -50 l-68 -22 -54 53 -54 54 -183 -183 -183 -183 -45 52 -45 52 -53 -28
-54 -27 -48 22 c-26 13 -69 45 -95 71 -27 27 -57 49 -69 49 -13 0 -58 -39
-121 -102 -97 -98 -103 -107 -128 -183 -24 -73 -33 -87 -105 -160 -72 -73 -81
-87 -105 -161 -15 -45 -36 -90 -48 -100 -23 -21 -128 -225 -128 -249 0 -9 9
-34 21 -57 l21 -40 -38 -39 c-21 -22 -45 -39 -53 -39 -8 0 -33 11 -55 24 -61
35 -181 76 -205 69 -12 -3 -29 -19 -38 -36 -31 -60 -63 -171 -63 -218 l0 -47
78 -26 c61 -21 88 -36 121 -70 39 -39 41 -44 25 -57 -16 -13 -124 -227 -124
-246 0 -5 20 -29 45 -53 25 -24 45 -50 45 -57 0 -8 -9 -32 -21 -54 -11 -23
-32 -102 -46 -176 l-26 -135 59 -60 c56 -58 174 -128 214 -128 9 0 25 -7 36
-15 25 -19 31 -19 37 4 5 19 7 19 102 -5 l97 -25 61 35 c74 41 96 64 131 133
31 63 32 72 5 125 l-21 40 28 29 28 29 -35 36 c-19 20 -59 49 -90 64 -76 39
-88 54 -61 83 14 15 28 61 46 152 22 109 31 134 55 160 16 16 40 53 54 80 14
28 44 68 66 90 l42 40 48 -27 48 -27 23 24 c13 14 29 25 36 25 6 0 108 -32
225 -71 206 -69 216 -74 265 -121 45 -44 54 -59 78 -139 l26 -89 113 56 112
57 93 -23 93 -22 27 -54 c14 -30 31 -54 37 -54 5 0 46 12 90 26 68 22 89 35
140 84 33 32 75 65 94 75 33 16 33 16 62 -11 l30 -29 163 164 c96 96 181 173
207 186 l43 23 53 -26 53 -26 78 77 c43 43 81 75 84 71 4 -3 14 8 23 25 13 26
14 38 4 71 -12 38 -11 42 14 68 l27 28 -25 24 -25 24 27 28 27 28 -22 23 c-12
13 -22 27 -22 32 0 5 32 42 71 81 l71 71 -30 59 c-51 100 -123 150 -300 208
-45 15 -102 42 -127 59 -40 29 -112 83 -219 162 -23 17 -54 55 -70 85 -17 30
-38 64 -48 74 -23 25 -23 35 4 63 l21 23 -23 25 c-21 23 -22 26 -8 42 9 10 30
47 48 82 29 58 31 66 16 76 -22 16 -66 7 -95 -19 l-23 -21 -47 53 c-25 28 -48
52 -51 51 -3 0 -31 -15 -62 -33z m109 -78 l53 -52 23 22 c55 52 37 1 -21 -60
l-36 -38 22 -23 c27 -29 27 -39 2 -62 -21 -19 -20 -19 14 -54 19 -20 45 -58
59 -86 31 -61 77 -106 178 -173 42 -28 79 -58 82 -66 8 -20 122 -77 212 -106
85 -28 162 -65 193 -94 25 -22 62 -87 62 -108 0 -7 -35 -47 -77 -90 l-77 -77
24 -26 23 -25 -23 -25 -24 -25 27 -28 27 -28 -24 -23 c-23 -22 -24 -25 -11
-60 l12 -36 -78 -83 -78 -83 -51 26 -50 25 -52 -26 c-37 -18 -100 -73 -205
-177 l-153 -152 -21 22 -22 22 -61 -31 c-34 -16 -86 -54 -116 -83 -33 -32 -73
-58 -100 -68 -25 -8 -53 -18 -62 -22 -13 -5 -22 5 -42 43 l-25 50 -114 28
-114 27 -87 -47 c-48 -25 -90 -44 -95 -42 -4 3 -16 32 -26 65 -14 48 -29 70
-79 119 l-61 61 -236 79 -236 80 -25 -25 -25 -25 -54 27 -53 27 -58 -63 c-32
-35 -70 -86 -85 -114 -14 -27 -37 -64 -52 -80 -21 -24 -31 -55 -50 -155 -21
-114 -27 -128 -58 -161 l-34 -36 40 -36 c22 -20 62 -47 89 -61 69 -35 81 -52
54 -78 l-21 -21 25 -48 c29 -58 29 -69 5 -117 -24 -46 -64 -84 -118 -111 l-43
-21 -106 26 c-83 21 -108 24 -114 14 -17 -28 -154 37 -219 104 l-45 45 22 122
c15 81 33 141 53 181 l31 61 -51 51 -52 52 45 95 c26 53 60 109 81 129 l35 34
-62 63 c-53 54 -73 67 -132 86 -37 12 -71 28 -74 35 -8 23 40 160 64 183 21
20 23 20 55 3 19 -9 77 -31 130 -49 l97 -33 56 57 c31 31 56 62 56 69 0 8 -10
36 -22 64 l-21 50 44 91 c24 50 58 107 75 127 17 19 41 66 54 105 20 61 33 81
100 150 69 72 80 88 104 160 25 76 31 86 121 175 l96 95 48 -50 c27 -28 72
-61 100 -74 l51 -24 50 23 51 24 55 -55 55 -54 177 183 177 183 49 -49 48 -50
86 29 c52 18 98 41 117 58 16 16 50 39 75 51 25 12 55 32 68 43 l22 20 25 -23
25 -24 33 31 c27 26 100 71 117 73 2 0 28 -23 57 -52z"/>
</g>
</svg>
