<?xml version="1.0" standalone="no"?>
<!DOCTYPE svg PUBLIC "-//W3C//DTD SVG 20010904//EN"
 "http://www.w3.org/TR/2001/REC-SVG-20010904/DTD/svg10.dtd">
<svg version="1.0" xmlns="http://www.w3.org/2000/svg"
 width="3000.000000pt" height="4000.000000pt" viewBox="0 0 3000.000000 4000.000000"
 preserveAspectRatio="xMidYMid meet">
<metadata>
Created by potrace 1.16, written by Peter Selinger 2001-2019
</metadata>
<g transform="translate(0.000000,4000.000000) scale(0.100000,-0.100000)"
fill="#000000" stroke="none">
<path d="M28074 7689 c-53 -53 -86 -79 -102 -79 -13 0 -40 -16 -62 -37 -32
-31 -45 -54 -67 -126 l-27 -88 25 -77 26 -77 -27 -80 c-42 -125 -65 -162 -169
-267 l-96 -98 -54 14 c-70 19 -86 11 -182 -92 -47 -50 -93 -89 -127 -106 -28
-14 -68 -43 -86 -64 l-35 -37 29 -30 c24 -25 32 -50 55 -163 14 -72 37 -163
50 -201 l23 -69 -29 -28 -29 -28 30 -31 c34 -35 67 -123 74 -195 3 -32 -4 -81
-20 -144 l-25 -97 26 -132 c29 -154 78 -307 105 -332 19 -17 19 -18 -5 -64
-13 -25 -44 -66 -70 -91 -26 -25 -58 -67 -72 -95 -14 -27 -50 -77 -80 -110
-33 -36 -75 -100 -106 -160 -42 -83 -53 -115 -62 -187 -16 -122 -6 -128 125
-80 73 26 80 32 210 167 85 87 143 156 155 183 15 35 29 49 74 72 70 36 154
120 180 183 11 26 24 47 28 47 4 0 70 11 145 23 l137 24 30 -31 31 -31 16 23
c19 27 36 28 59 2 17 -19 18 -19 84 14 36 19 79 48 95 65 l29 30 -46 50 c-48
51 -55 65 -37 76 6 4 26 38 45 76 l35 69 -47 51 -47 50 78 78 77 77 -43 40
c-24 21 -62 48 -86 58 -35 16 -49 30 -72 75 -16 31 -47 74 -69 96 -23 21 -41
45 -41 52 0 22 36 86 60 108 12 11 35 45 50 75 16 30 41 68 58 83 l29 28 -28
116 c-16 64 -30 117 -31 118 -2 2 -23 12 -47 25 -42 21 -43 23 -37 58 3 20 11
54 17 75 10 38 11 38 30 21 19 -17 21 -16 74 36 l54 54 51 -24 51 -24 105 105
c68 67 116 124 134 159 15 30 42 68 59 84 37 35 38 43 9 73 l-21 23 20 23 c12
12 32 45 46 72 14 28 37 61 51 74 33 31 32 39 -3 109 -16 31 -39 90 -52 130
-36 111 -64 133 -215 162 -130 25 -211 59 -258 109 l-30 31 -29 -27 -29 -28
-18 23 c-11 13 -32 27 -48 32 -28 7 -35 3 -108 -71z m201 -19 l25 23 23 -20
c43 -40 123 -71 252 -97 152 -31 162 -38 195 -141 13 -38 33 -93 46 -122 20
-46 21 -53 7 -64 -8 -7 -28 -40 -45 -73 -16 -34 -44 -76 -61 -93 l-31 -33 24
-25 23 -25 -20 -22 c-12 -13 -32 -45 -46 -73 -14 -27 -68 -95 -119 -149 l-93
-99 -54 27 -54 28 -48 -48 -49 -48 -43 42 c-33 33 -46 39 -55 30 -16 -16 -15
-28 4 -49 15 -17 15 -25 -5 -106 -12 -48 -24 -96 -27 -105 -4 -13 8 -24 48
-44 29 -14 55 -28 56 -29 2 -2 14 -44 27 -94 l23 -90 -21 -18 c-11 -10 -30
-41 -43 -70 -13 -29 -39 -69 -57 -90 -19 -21 -47 -62 -61 -91 l-27 -54 58 -61
c32 -34 69 -85 82 -114 19 -41 32 -55 64 -70 23 -10 54 -29 70 -42 l29 -24
-78 -78 -78 -79 53 -54 c53 -54 54 -55 41 -87 -8 -17 -30 -53 -51 -79 l-37
-47 49 -49 c47 -46 48 -49 31 -67 -9 -11 -34 -28 -56 -39 l-38 -20 -29 28 -29
28 -28 -27 -28 -27 -22 22 -22 22 -142 -23 c-199 -31 -185 -26 -217 -90 -34
-65 -127 -158 -187 -185 -33 -14 -46 -28 -65 -69 -16 -37 -61 -91 -153 -184
-120 -123 -134 -134 -193 -154 -36 -11 -66 -19 -67 -18 -2 2 0 30 4 61 12 87
90 241 154 308 30 30 64 75 76 100 13 25 47 72 77 104 30 32 69 87 86 122 l31
64 -31 32 c-38 41 -74 149 -104 312 l-22 118 23 97 c13 53 24 112 25 131 1 47
-43 190 -68 218 l-20 22 21 23 22 23 -26 75 c-14 41 -38 139 -55 218 -20 102
-35 151 -49 166 -19 21 -19 22 -3 37 10 9 38 26 63 38 25 12 88 65 141 117
l96 94 59 -15 59 -16 108 108 c118 117 146 161 192 302 l27 85 -24 80 -25 80
24 70 c27 80 73 136 95 117 11 -9 33 7 103 78 l89 90 38 -37 38 -37 25 24z"/>
</g>
</svg>
