<?xml version="1.0" standalone="no"?>
<!DOCTYPE svg PUBLIC "-//W3C//DTD SVG 20010904//EN"
 "http://www.w3.org/TR/2001/REC-SVG-20010904/DTD/svg10.dtd">
<svg version="1.0" xmlns="http://www.w3.org/2000/svg"
 width="3000.000000pt" height="4000.000000pt" viewBox="0 0 3000.000000 4000.000000"
 preserveAspectRatio="xMidYMid meet">
<metadata>
Created by potrace 1.16, written by Peter Selinger 2001-2019
</metadata>
<g transform="translate(0.000000,4000.000000) scale(0.100000,-0.100000)"
fill="#000000" stroke="none">
<path d="M26314 9560 l-30 -30 -123 25 -123 25 -106 -26 c-153 -38 -164 -50
-198 -219 l-26 -129 -175 -181 c-97 -99 -191 -189 -211 -200 -29 -16 -39 -31
-56 -82 -25 -73 -45 -97 -108 -129 l-47 -24 -55 27 c-31 15 -57 25 -58 22 -2
-2 -30 -33 -63 -67 l-59 -62 74 -75 c63 -64 73 -78 64 -93 -9 -13 -8 -24 2
-44 10 -20 31 -32 87 -51 l74 -25 22 70 23 70 21 -21 21 -21 28 27 28 27 53
-51 c28 -28 75 -62 102 -76 28 -14 59 -35 70 -47 11 -12 45 -35 76 -51 35 -17
76 -50 107 -86 l51 -58 29 28 28 27 24 -25 24 -25 26 25 26 25 43 -44 c24 -25
70 -59 102 -76 32 -17 66 -41 76 -54 11 -13 29 -69 43 -124 23 -99 25 -102 82
-159 l58 -57 79 26 79 26 41 -42 42 -43 -26 -70 c-14 -39 -25 -75 -25 -82 0
-6 17 -26 38 -45 l37 -35 22 21 22 20 19 -38 c11 -22 47 -65 79 -96 55 -54 63
-58 157 -82 75 -19 106 -32 130 -54 17 -17 55 -42 84 -57 49 -24 55 -25 71
-11 10 9 20 16 23 16 3 0 13 -26 22 -59 14 -49 26 -68 80 -120 35 -33 69 -61
76 -61 6 0 19 -7 27 -16 9 -9 25 -13 37 -10 12 3 46 -1 76 -9 l55 -15 108 108
c118 117 146 161 192 302 l27 85 -24 80 -25 80 24 70 c15 45 35 82 58 105 19
20 35 45 35 56 0 12 9 47 20 78 l19 58 -25 51 c-14 29 -50 77 -79 107 l-54 55
-25 150 -26 150 79 80 c45 46 91 103 106 134 l26 53 -22 24 c-24 25 -20 53 9
61 21 6 72 71 72 93 0 39 -26 51 -234 105 -114 29 -232 66 -261 81 l-53 28
-39 -34 c-21 -19 -80 -55 -131 -80 l-92 -44 -68 22 c-65 21 -70 24 -92 71 -12
27 -51 78 -87 113 l-64 63 -19 -22 c-10 -13 -23 -23 -28 -23 -5 0 -26 18 -46
41 -33 36 -41 40 -68 34 -21 -5 -33 -3 -39 6 -17 27 -9 34 34 31 39 -3 45 0
96 52 l55 56 -23 24 -23 25 20 26 21 27 -33 66 c-19 37 -48 80 -65 96 l-31 30
-25 -24 -25 -24 -48 47 c-26 26 -52 47 -57 47 -5 0 -19 -10 -32 -22 l-23 -22
-49 48 -48 48 -50 -26 -50 -25 -29 30 -29 29 -31 -30z m-134 -56 l122 -26 21
21 21 21 23 -22 23 -22 54 26 53 26 54 -54 53 -54 25 25 25 25 53 -52 53 -52
25 24 c23 22 26 22 44 6 10 -9 26 -35 36 -57 l19 -40 -27 -27 -27 -26 25 -26
25 -26 -31 -37 c-17 -20 -38 -37 -46 -37 -9 0 -41 14 -71 31 -30 17 -56 29
-58 26 -4 -3 65 -217 72 -226 2 -3 14 5 27 17 34 32 50 27 95 -25 l40 -48 30
28 29 28 44 -48 c24 -26 55 -71 67 -99 24 -51 24 -51 111 -79 l87 -27 109 55
c61 30 118 64 129 75 l18 21 47 -23 c25 -12 132 -44 236 -71 105 -26 191 -49
193 -51 8 -6 -39 -82 -67 -108 l-31 -30 27 -28 27 -28 -23 -49 c-14 -29 -55
-80 -100 -125 l-77 -77 26 -165 27 -165 55 -57 c31 -31 65 -78 76 -103 19 -45
19 -46 0 -110 -12 -37 -32 -77 -48 -94 -19 -20 -39 -61 -56 -118 l-28 -88 25
-77 26 -77 -27 -80 c-42 -125 -65 -162 -169 -267 l-96 -98 -94 24 c-84 22 -99
30 -141 71 -36 36 -51 61 -69 116 -21 65 -21 72 -7 88 20 22 20 40 0 48 -10 4
-31 -9 -58 -36 l-43 -43 -44 22 c-24 12 -57 35 -74 50 -22 20 -55 33 -125 50
-86 20 -100 27 -143 69 -28 26 -64 76 -84 116 l-35 69 -25 -28 c-14 -16 -30
-26 -38 -22 -20 7 -19 10 10 96 l25 74 -63 63 -63 63 -74 -25 -74 -25 -48 47
c-44 43 -49 53 -69 142 -26 115 -51 152 -130 191 -32 17 -81 55 -115 90 l-57
60 -29 -27 -28 -27 -25 24 -25 23 -25 -23 -25 -24 -48 46 c-26 25 -69 57 -97
71 -27 14 -61 37 -75 52 -14 15 -47 38 -75 52 -27 14 -77 52 -111 84 l-60 60
-24 -26 -24 -25 -31 30 -31 30 -28 -85 c-15 -47 -28 -85 -30 -85 -1 0 -24 7
-50 16 l-48 17 21 21 21 21 -77 77 -77 78 38 39 39 40 48 -25 49 -24 69 34
c75 38 105 69 121 124 7 28 61 88 229 257 l219 220 26 130 c32 160 41 171 159
202 106 27 104 27 247 -3z"/>
</g>
</svg>
