<?xml version="1.0" standalone="no"?>
<!DOCTYPE svg PUBLIC "-//W3C//DTD SVG 20010904//EN"
 "http://www.w3.org/TR/2001/REC-SVG-20010904/DTD/svg10.dtd">
<svg version="1.0" xmlns="http://www.w3.org/2000/svg"
 width="3000.000000pt" height="4000.000000pt" viewBox="0 0 3000.000000 4000.000000"
 preserveAspectRatio="xMidYMid meet">
<metadata>
Created by potrace 1.16, written by Peter Selinger 2001-2019
</metadata>
<g transform="translate(0.000000,4000.000000) scale(0.100000,-0.100000)"
fill="#000000" stroke="none">
<path d="M26688 5757 c-35 -40 -74 -96 -87 -125 l-25 -53 26 -26 26 -25 -23
-72 c-12 -39 -35 -97 -51 -129 l-28 -57 48 -49 c29 -30 45 -54 41 -61 -5 -8
-25 5 -61 41 l-54 53 -80 -79 -79 -79 -48 22 -48 23 -124 -26 -125 -25 -33 32
c-18 17 -34 30 -37 27 -2 -2 -16 -29 -31 -59 -15 -30 -40 -68 -55 -85 -15 -16
-38 -61 -50 -100 -12 -38 -34 -96 -47 -127 l-25 -57 -76 -26 c-57 -18 -87 -36
-119 -67 -23 -23 -44 -40 -47 -37 -2 2 -24 45 -49 94 -36 71 -62 106 -126 170
l-81 79 -52 -26 -53 -25 -52 25 -53 26 -60 -29 c-33 -16 -70 -39 -82 -52 l-21
-23 -52 30 -52 30 -24 -53 c-13 -28 -46 -76 -73 -105 l-49 -53 -27 26 -26 25
-41 -43 c-42 -42 -79 -120 -119 -249 -18 -58 -18 -58 4 -81 22 -23 22 -24 3
-41 -54 -49 -83 -264 -40 -294 30 -21 66 -100 94 -211 l25 -101 -29 -58 -30
-59 60 -28 c32 -16 59 -34 59 -41 0 -8 10 -18 23 -25 12 -6 38 -26 57 -45 l35
-33 115 24 c141 30 158 30 291 1 l107 -23 151 25 152 25 52 -50 c43 -42 67
-55 136 -78 l83 -27 63 62 c54 54 65 71 80 127 10 35 28 77 42 93 l23 28 76
-25 76 -25 31 30 c18 16 50 39 73 50 l41 21 26 -26 26 -26 92 33 c51 18 129
52 173 76 45 24 89 44 99 44 26 0 89 -34 117 -65 14 -15 48 -38 75 -52 28 -14
90 -64 142 -116 62 -61 94 -86 97 -76 3 8 17 78 32 157 l27 143 -31 32 c-16
18 -40 52 -52 77 -12 25 -34 57 -47 72 l-26 27 25 199 c25 194 27 202 72 298
33 70 62 115 100 154 30 30 64 75 76 100 13 25 47 72 77 104 30 32 69 87 86
122 l31 64 -31 32 c-39 42 -74 147 -104 310 l-22 124 26 105 c29 115 25 143
-24 166 -22 11 -37 9 -105 -14 -61 -21 -90 -37 -130 -75 l-51 -48 -23 25 -24
25 -26 -25 -27 -26 -49 53 c-27 29 -60 77 -73 106 -14 28 -28 52 -32 52 -4 0
-36 -33 -71 -73z m86 -46 c10 -21 44 -65 77 -97 l59 -58 23 22 c29 27 35 27
64 0 l24 -22 52 57 c44 49 62 61 124 81 67 23 72 23 87 7 13 -15 13 -26 -10
-114 l-25 -98 26 -132 c29 -154 78 -307 105 -332 19 -17 19 -18 -5 -64 -13
-25 -44 -66 -70 -91 -26 -25 -58 -67 -72 -95 -14 -27 -52 -79 -83 -115 -34
-38 -78 -105 -106 -160 l-48 -95 -28 -220 -28 -220 30 -35 c17 -19 42 -57 56
-85 14 -27 35 -60 46 -72 20 -22 20 -23 3 -115 -10 -51 -21 -97 -25 -101 -3
-4 -34 21 -66 57 -36 37 -83 75 -115 91 -30 15 -60 36 -67 47 -8 10 -43 34
-80 52 l-67 34 -110 -56 c-60 -30 -140 -65 -176 -77 l-66 -23 -26 26 -26 26
-53 -25 c-29 -13 -67 -36 -84 -51 l-31 -28 -77 26 -78 26 -32 -31 c-22 -22
-40 -56 -59 -114 -22 -66 -35 -91 -71 -126 l-44 -43 -63 22 c-48 17 -78 36
-121 78 l-57 55 -159 -26 -159 -27 -130 26 -129 26 -124 -25 -125 -26 -55 54
c-30 29 -70 60 -87 69 -38 19 -39 24 -14 75 l20 38 -28 109 c-26 101 -66 198
-96 234 -38 45 -11 187 47 247 l32 33 -29 30 -29 30 23 73 c29 90 77 186 97
194 8 3 26 -5 40 -18 l24 -23 56 55 c31 29 67 75 80 102 13 26 26 47 29 47 2
0 25 -10 49 -22 l45 -21 43 39 c24 22 57 45 74 53 29 11 37 10 83 -13 l51 -26
50 25 50 25 70 -72 c55 -57 83 -98 126 -183 31 -60 58 -112 61 -115 3 -3 31
23 62 56 51 54 67 64 138 88 l80 27 31 67 c16 37 40 97 51 133 12 37 31 75 42
85 12 11 30 37 41 59 26 52 25 51 46 32 17 -16 27 -15 151 10 l133 26 55 -27
56 -27 74 73 73 72 50 -49 50 -49 42 42 43 42 -54 54 -53 53 25 49 c13 27 37
87 52 133 l27 83 -25 26 -26 25 21 41 c19 39 85 116 99 116 3 0 14 -17 23 -39z"/>
</g>
</svg>
