<?xml version="1.0" standalone="no"?>
<!DOCTYPE svg PUBLIC "-//W3C//DTD SVG 20010904//EN"
 "http://www.w3.org/TR/2001/REC-SVG-20010904/DTD/svg10.dtd">
<svg version="1.0" xmlns="http://www.w3.org/2000/svg"
 width="3000.000000pt" height="4000.000000pt" viewBox="0 0 3000.000000 4000.000000"
 preserveAspectRatio="xMidYMid meet">
<metadata>
Created by potrace 1.16, written by Peter Selinger 2001-2019
</metadata>
<g transform="translate(0.000000,4000.000000) scale(0.100000,-0.100000)"
fill="#000000" stroke="none">
<path d="M10604 7448 c-50 -51 -100 -110 -113 -130 -12 -21 -26 -38 -31 -38
-4 0 -13 -12 -19 -27 -9 -23 -6 -46 13 -122 23 -87 29 -98 78 -148 29 -30 71
-64 93 -75 22 -11 41 -22 43 -23 2 -2 -6 -21 -17 -44 -12 -22 -21 -46 -21 -53
0 -8 22 -35 49 -62 l48 -47 -20 -67 c-24 -81 -44 -105 -119 -143 -56 -28 -59
-32 -102 -124 -25 -53 -60 -113 -78 -134 -20 -24 -43 -69 -57 -113 -13 -40
-36 -99 -52 -130 -16 -32 -29 -63 -29 -70 0 -15 110 -128 124 -128 5 0 20 9
32 21 12 12 27 18 34 14 6 -3 26 -37 44 -73 19 -37 45 -77 59 -90 13 -13 33
-41 42 -63 l18 -39 -26 -28 -27 -28 27 -27 27 -27 -43 -88 c-37 -75 -42 -92
-32 -110 19 -35 58 -39 88 -9 l26 25 71 -25 c39 -14 94 -37 121 -51 28 -14 81
-36 120 -49 45 -15 82 -36 105 -58 l36 -35 28 29 29 30 46 -24 c74 -37 78 -47
51 -106 l-24 -50 28 -85 c24 -73 36 -94 86 -147 l58 -62 24 23 c13 12 29 22
35 22 6 0 60 -52 120 -116 87 -94 121 -122 176 -150 37 -19 72 -32 78 -28 21
13 30 56 15 73 -7 9 -25 39 -38 66 -26 54 -27 49 9 175 8 30 28 69 43 85 17
18 39 64 56 118 l28 87 -47 48 -47 47 52 52 51 52 -39 43 c-22 24 -46 58 -53
76 -13 32 -13 33 32 81 25 26 57 73 72 102 15 30 52 80 83 111 l56 58 -28 29
-28 30 26 77 26 78 -30 31 c-28 29 -70 128 -70 167 0 24 37 98 50 98 5 0 23
20 40 45 17 25 28 45 25 45 -3 0 4 19 16 41 l21 41 -26 27 -25 26 49 104 c28
57 50 107 50 110 0 4 -35 18 -77 32 -52 16 -91 35 -116 58 l-38 34 -32 -30
c-18 -17 -51 -40 -73 -51 l-41 -21 -18 39 c-17 38 -17 41 9 146 l27 107 -53
55 c-29 29 -78 66 -108 82 -30 16 -85 59 -123 97 l-68 69 26 24 c14 13 25 27
25 31 0 3 -30 22 -67 42 l-68 35 -49 -25 -48 -25 -29 28 -29 28 -29 -28 -29
-27 -19 28 c-11 15 -26 44 -33 63 -17 44 -127 160 -151 160 -10 0 -22 -7 -27
-16 -17 -30 -80 -32 -172 -7 -47 12 -92 23 -101 23 -8 0 -56 -42 -105 -92z
m224 17 c114 -31 129 -31 159 -3 l23 22 41 -40 c22 -21 53 -64 69 -94 15 -30
44 -70 64 -89 l36 -35 25 24 25 23 24 -22 24 -23 46 27 c46 27 71 28 106 6 12
-9 11 -13 -8 -33 l-22 -24 88 -86 c48 -47 110 -97 137 -111 28 -14 72 -48 98
-75 l48 -49 -26 -101 -25 -102 31 -62 c17 -35 33 -64 34 -66 6 -7 111 51 137
76 l28 26 23 -22 c13 -12 51 -31 85 -43 34 -11 62 -23 62 -25 0 -2 -21 -46
-47 -99 l-47 -94 22 -24 c12 -13 22 -29 22 -36 0 -21 -31 -75 -64 -111 -18
-19 -43 -59 -56 -88 l-24 -53 28 -87 c16 -48 38 -97 49 -110 l21 -22 -24 -75
-24 -75 24 -25 24 -25 -51 -53 c-28 -28 -61 -72 -73 -97 -12 -25 -46 -70 -76
-101 l-55 -55 27 -60 c15 -32 36 -69 47 -82 l21 -23 -52 -52 -52 -52 56 -56
56 -57 -22 -68 c-12 -38 -35 -82 -50 -99 -63 -69 -90 -240 -49 -310 12 -20 19
-38 16 -41 -13 -13 -72 35 -197 160 l-134 136 -26 -25 -26 -25 -42 43 c-30 30
-49 63 -66 112 l-23 70 28 57 28 56 -42 39 c-23 21 -66 49 -95 62 l-53 25 -21
-22 c-21 -21 -23 -21 -43 -3 -11 10 -56 30 -100 46 -44 15 -102 39 -130 53
-27 14 -88 38 -134 53 l-85 29 -29 -27 c-28 -27 -27 -25 16 69 44 94 45 97 26
114 -24 22 -24 36 1 59 19 17 19 18 -14 84 -19 36 -44 75 -56 86 -12 11 -33
43 -47 70 -14 28 -41 67 -61 87 l-36 38 -26 -25 -26 -25 -38 39 -38 38 25 49
c13 27 34 81 47 119 12 39 35 84 50 100 15 17 51 76 79 132 47 94 55 105 99
127 72 37 106 80 137 175 l27 83 -50 52 -50 51 25 54 c13 29 22 55 21 56 -2 1
-30 16 -63 33 -33 17 -79 50 -103 75 -35 36 -47 57 -62 118 -19 72 -19 109 1
109 5 0 9 9 9 20 0 11 4 20 9 20 5 0 13 10 16 21 10 30 164 189 184 189 9 0
58 -11 109 -25z"/>
</g>
</svg>
