<?xml version="1.0" standalone="no"?>
<!DOCTYPE svg PUBLIC "-//W3C//DTD SVG 20010904//EN"
 "http://www.w3.org/TR/2001/REC-SVG-20010904/DTD/svg10.dtd">
<svg version="1.0" xmlns="http://www.w3.org/2000/svg"
 width="3000.000000pt" height="4000.000000pt" viewBox="0 0 3000.000000 4000.000000"
 preserveAspectRatio="xMidYMid meet">
<metadata>
Created by potrace 1.16, written by Peter Selinger 2001-2019
</metadata>
<g transform="translate(0.000000,4000.000000) scale(0.100000,-0.100000)"
fill="#000000" stroke="none">
<path d="M23536 8150 l-75 -81 -51 26 -50 25 -52 -26 c-37 -18 -100 -73 -205
-177 l-153 -152 -21 22 -22 22 -61 -31 c-34 -16 -86 -54 -116 -83 -33 -32 -73
-58 -100 -68 -25 -8 -53 -18 -62 -22 -13 -5 -22 5 -42 43 l-25 50 -114 28
-114 27 -87 -47 c-48 -25 -90 -44 -95 -42 -4 3 -16 32 -26 65 -14 48 -29 70
-79 119 l-61 61 -236 79 -236 80 -25 -25 -25 -25 -54 27 -53 27 -58 -63 c-32
-35 -70 -86 -85 -114 -14 -27 -37 -64 -52 -80 -21 -24 -31 -55 -50 -155 -21
-114 -27 -128 -58 -161 l-34 -36 40 -36 c22 -20 62 -47 89 -61 69 -35 81 -52
54 -78 l-21 -21 25 -48 c29 -58 29 -69 5 -117 -24 -46 -64 -84 -118 -111 l-43
-21 -105 26 c-103 26 -106 26 -120 8 -8 -11 -15 -32 -15 -48 0 -53 -31 -151
-56 -177 -17 -18 -21 -28 -13 -36 8 -8 8 -13 -1 -18 -8 -5 -6 -12 6 -26 16
-18 16 -20 -4 -42 l-21 -22 53 -212 c69 -275 57 -260 276 -335 l165 -57 22 21
23 21 24 -22 24 -22 52 26 c61 31 68 27 107 -48 l25 -49 -28 -29 -28 -29 114
-116 c79 -79 133 -125 172 -145 61 -31 76 -45 61 -60 -6 -6 -18 1 -33 16 l-24
26 -63 -63 c-56 -56 -67 -72 -88 -141 -30 -95 -30 -95 -3 -152 l22 -45 -27
-57 c-15 -32 -36 -87 -47 -123 -18 -60 -28 -73 -130 -174 l-111 -109 46 -47
c25 -25 45 -51 45 -57 0 -14 35 -27 155 -57 l100 -25 30 29 c16 15 48 36 70
45 28 11 117 93 302 277 l262 262 26 -24 26 -24 26 27 27 27 49 -48 48 -47
147 -25 147 -25 25 -73 c18 -49 38 -84 63 -109 l37 -37 50 49 50 49 25 -24 25
-24 53 52 53 52 22 -22 22 -22 80 26 81 26 75 -25 76 -25 136 27 c117 23 141
31 167 55 17 17 62 40 104 54 65 22 84 35 149 98 77 76 125 152 129 202 2 38
-36 113 -79 152 -19 18 -66 43 -110 59 -99 35 -110 47 -75 83 l27 28 -90 89
c-59 59 -96 105 -110 137 -20 46 -25 51 -128 102 -59 29 -145 67 -192 84 -119
42 -139 52 -146 76 -3 12 -12 28 -19 36 -6 8 -22 34 -35 57 -30 54 -22 123 15
143 14 7 28 23 31 34 4 12 39 55 78 96 l72 75 23 100 c18 75 30 107 51 130 21
22 34 55 51 130 17 70 32 109 50 130 15 16 36 50 49 75 12 25 38 62 58 82 l36
38 -29 30 -29 31 43 132 c24 72 45 133 46 135 6 7 81 -37 103 -60 12 -13 49
-37 82 -53 l61 -29 79 26 80 26 92 -24 c109 -29 116 -29 140 -7 17 15 20 15
43 -7 l26 -24 94 94 95 94 -27 28 -27 28 22 22 c12 14 30 60 43 113 12 50 30
104 40 121 18 30 18 69 1 86 -5 5 -51 18 -102 29 l-94 19 -31 -30 c-18 -17
-61 -40 -105 -55 -40 -14 -84 -35 -97 -47 l-23 -21 -62 19 c-39 11 -78 32
-101 53 l-38 34 -24 -23 -25 -23 -25 23 -25 24 -29 -28 -29 -28 -48 25 c-49
26 -108 80 -159 150 -15 20 -33 37 -40 37 -7 0 -47 -36 -89 -80z m282 -157
l59 -32 23 24 24 25 28 -27 28 -27 25 24 c23 22 26 22 43 7 10 -10 59 -31 107
-47 l89 -30 31 30 c18 18 61 40 105 55 41 14 86 36 100 49 25 25 25 25 94 10
39 -8 72 -16 74 -18 2 -3 -3 -15 -11 -28 -8 -12 -25 -66 -37 -118 -18 -74 -29
-102 -53 -127 l-31 -33 24 -25 23 -25 -54 -59 c-30 -32 -58 -59 -63 -60 -6 0
-20 9 -33 21 l-23 22 -30 -29 -31 -29 -87 22 c-107 27 -110 27 -193 0 -60 -19
-70 -20 -100 -7 -19 7 -50 28 -69 45 -43 38 -167 108 -173 97 -8 -15 -107
-331 -107 -344 0 -7 7 -21 17 -31 14 -16 15 -20 1 -35 -9 -10 -28 -43 -43 -73
-15 -30 -40 -68 -55 -85 -20 -22 -34 -56 -50 -125 -16 -64 -32 -106 -51 -130
-18 -23 -36 -68 -52 -133 l-25 -98 -83 -87 c-46 -48 -87 -88 -91 -90 -4 -2 -8
-9 -8 -17 0 -7 -7 -18 -15 -25 -26 -22 -20 -160 9 -223 13 -29 27 -60 30 -69
3 -11 15 -18 31 -18 14 0 42 -8 63 -19 20 -10 69 -29 107 -41 39 -13 114 -45
167 -71 92 -46 99 -52 124 -102 14 -28 58 -85 97 -124 l71 -72 -24 -26 -24
-25 37 -38 c27 -28 57 -44 110 -61 85 -27 112 -49 143 -115 l23 -49 -24 -46
c-13 -25 -59 -80 -102 -122 -68 -67 -87 -80 -148 -99 -39 -13 -83 -35 -100
-51 -25 -23 -50 -32 -148 -50 l-117 -23 -81 26 -80 27 -75 -27 -76 -27 -22 28
c-12 15 -27 27 -33 27 -6 0 -29 -20 -51 -45 -22 -25 -43 -45 -48 -45 -4 0 -18
10 -31 22 l-23 22 -53 -52 c-50 -50 -54 -52 -69 -35 -9 10 -27 54 -41 98 l-25
80 -158 27 -158 27 -58 58 -58 57 -25 -24 -25 -23 -26 24 -26 24 -262 -266
c-175 -179 -277 -276 -311 -295 -27 -15 -61 -38 -75 -50 l-25 -23 -94 24 c-82
21 -100 29 -135 64 l-40 40 96 100 c86 89 98 106 118 168 12 37 36 99 53 136
l30 68 -23 56 -23 56 22 67 c14 44 35 83 60 112 l39 43 29 -27 29 -28 42 43
42 43 -42 41 c-24 22 -65 52 -93 66 -29 15 -87 63 -140 116 l-89 90 24 26 23
25 -24 52 c-13 29 -41 72 -63 95 l-38 43 -49 -27 -49 -26 -30 28 -30 29 -30
-29 -31 -30 -144 49 c-91 30 -151 56 -165 71 -16 17 -35 78 -70 222 l-48 198
29 31 29 30 -25 24 c-25 23 -25 24 -6 44 10 12 26 55 36 96 10 41 21 85 26 97
l8 21 96 -24 97 -25 61 35 c74 41 96 64 131 133 31 63 32 72 5 125 l-21 40 28
29 28 29 -35 36 c-19 20 -59 49 -90 64 -76 39 -88 54 -61 83 14 15 28 61 46
152 22 109 31 134 55 160 16 16 40 53 54 80 14 28 44 68 66 90 l42 40 48 -27
48 -27 23 24 c13 14 29 25 36 25 6 0 108 -32 225 -71 206 -69 216 -74 265
-121 45 -44 54 -59 78 -139 l26 -89 113 56 112 57 93 -23 93 -22 27 -54 c14
-30 31 -54 37 -54 5 0 46 12 90 26 68 22 89 35 140 84 33 32 75 65 94 75 33
16 33 16 62 -11 l30 -29 163 164 c96 96 181 173 207 186 l43 23 53 -26 53 -26
77 76 76 76 68 -71 c40 -43 91 -85 127 -104z"/>
</g>
</svg>
