<?xml version="1.0" standalone="no"?>
<!DOCTYPE svg PUBLIC "-//W3C//DTD SVG 20010904//EN"
 "http://www.w3.org/TR/2001/REC-SVG-20010904/DTD/svg10.dtd">
<svg version="1.0" xmlns="http://www.w3.org/2000/svg"
 width="3000.000000pt" height="4000.000000pt" viewBox="0 0 3000.000000 4000.000000"
 preserveAspectRatio="xMidYMid meet">
<metadata>
Created by potrace 1.16, written by Peter Selinger 2001-2019
</metadata>
<g transform="translate(0.000000,4000.000000) scale(0.100000,-0.100000)"
fill="#000000" stroke="none">
<path d="M20544 11639 c-16 -17 -51 -42 -79 -56 -27 -14 -52 -27 -53 -28 -2
-2 -17 -54 -32 -117 l-29 -113 26 -27 25 -26 -22 -69 c-13 -37 -36 -94 -52
-127 l-29 -58 26 -28 27 -28 -23 -70 c-22 -69 -27 -75 -175 -223 l-152 -151
-153 -28 c-105 -18 -170 -35 -206 -53 -28 -15 -99 -38 -157 -53 l-107 -27 -97
-103 -98 -103 -104 -26 c-121 -31 -138 -43 -185 -135 -18 -36 -54 -85 -80
-110 -26 -25 -55 -62 -66 -82 -11 -21 -22 -38 -26 -38 -4 0 -17 9 -29 21 l-23
21 -31 -61 c-17 -34 -28 -66 -25 -71 4 -6 2 -10 -3 -10 -5 0 -16 -26 -25 -57
-34 -123 -47 -97 137 -282 92 -92 166 -171 167 -176 0 -6 24 -29 53 -51 l53
-42 28 58 c16 32 51 81 79 109 l51 51 114 -24 114 -25 133 -132 132 -132 114
28 c124 31 196 61 234 96 l24 22 25 -23 c30 -28 33 -45 6 -28 -16 10 -23 9
-39 -6 -15 -13 -25 -51 -43 -163 -20 -130 -26 -150 -51 -179 l-29 -32 27 -109
c34 -137 60 -168 167 -202 59 -19 82 -33 130 -79 l57 -56 68 16 c117 29 147
31 183 12 19 -9 77 -31 130 -49 l97 -33 56 57 c31 31 56 62 56 69 0 8 -10 36
-22 64 l-21 50 44 91 c24 50 58 107 75 127 17 19 41 66 54 105 20 61 33 81
100 150 70 72 80 88 104 162 27 80 29 84 138 188 l110 107 -35 36 c-19 21 -49
64 -65 97 -38 75 -108 144 -188 184 l-61 30 -24 -25 -23 -24 -21 20 c-12 11
-61 31 -109 44 -47 13 -89 25 -92 28 -2 3 5 49 17 102 l23 97 -56 57 c-99 101
-115 172 -53 232 l35 34 25 -24 25 -24 61 60 c33 32 73 84 89 114 16 30 53 80
84 110 l56 54 -27 28 -27 28 24 25 24 25 -29 60 c-16 33 -39 70 -51 81 l-23
21 48 97 c27 53 58 104 69 114 19 18 21 18 59 -1 21 -11 51 -34 67 -51 17 -17
35 -31 40 -30 6 0 26 19 45 40 l34 40 -127 128 c-70 70 -127 134 -126 142 1 8
2 20 1 27 -2 25 -116 134 -166 159 -27 14 -78 52 -112 86 l-63 61 -25 -24
c-23 -21 -26 -22 -42 -8 -15 14 -136 78 -146 78 -2 0 -16 -14 -33 -31z m94
-48 c20 -11 50 -33 66 -50 l30 -31 26 25 26 25 40 -41 c21 -22 64 -53 94 -69
70 -36 163 -129 158 -158 -2 -16 28 -53 121 -146 77 -77 121 -128 116 -136 -5
-8 -13 -6 -29 8 -11 11 -48 34 -82 50 l-61 31 -31 -32 c-16 -18 -56 -83 -87
-146 l-56 -114 29 -31 c17 -17 40 -51 52 -75 l22 -43 -28 -29 -28 -29 24 -25
24 -25 -42 -43 c-24 -24 -56 -70 -71 -103 -16 -32 -47 -77 -70 -99 l-41 -39
-28 27 -27 27 -57 -62 c-52 -56 -58 -66 -58 -105 0 -56 30 -114 91 -180 27
-28 49 -60 49 -70 0 -10 -11 -60 -24 -111 -13 -50 -21 -94 -17 -96 3 -2 53
-16 111 -31 83 -21 112 -33 138 -58 l33 -32 25 29 c23 26 27 27 57 15 48 -20
146 -117 174 -174 14 -27 35 -60 46 -73 l21 -23 -96 -97 c-90 -91 -97 -102
-122 -177 -24 -73 -33 -87 -105 -160 -72 -73 -81 -87 -105 -161 -15 -45 -36
-90 -48 -100 -23 -21 -128 -225 -128 -249 0 -9 9 -34 21 -57 l21 -40 -38 -39
c-21 -22 -45 -39 -53 -39 -8 0 -33 11 -55 24 -23 13 -72 35 -111 49 l-70 25
-102 -27 -103 -26 -52 52 c-42 40 -69 57 -130 78 -42 15 -84 35 -93 45 -9 10
-28 62 -41 116 l-25 97 24 26 c21 22 29 49 48 166 12 77 23 142 25 144 2 2 30
-6 62 -17 59 -20 82 -16 82 13 0 6 -37 48 -83 93 l-83 82 -29 -31 c-41 -42
-122 -81 -229 -109 l-88 -22 -132 129 -131 130 -135 27 -134 26 -54 -52 c-29
-29 -63 -71 -74 -93 -11 -22 -23 -42 -25 -45 -3 -3 -90 83 -193 190 l-187 194
22 66 c20 58 50 126 61 139 2 3 15 -6 28 -18 l25 -23 34 68 c20 38 56 89 82
114 26 25 59 70 75 100 41 80 62 95 174 124 l99 25 106 104 106 105 96 26 c53
14 125 39 160 55 46 21 107 36 213 52 l148 23 157 162 156 162 29 87 28 87
-21 22 c-26 28 -26 36 2 94 13 26 34 82 47 125 l24 78 -26 25 -25 26 22 90
c13 49 25 91 27 93 1 1 26 14 54 28 27 14 56 33 63 41 17 20 24 20 69 -3z"/>
</g>
</svg>
