<?xml version="1.0" standalone="no"?>
<!DOCTYPE svg PUBLIC "-//W3C//DTD SVG 20010904//EN"
 "http://www.w3.org/TR/2001/REC-SVG-20010904/DTD/svg10.dtd">
<svg version="1.0" xmlns="http://www.w3.org/2000/svg"
 width="3000.000000pt" height="4000.000000pt" viewBox="0 0 3000.000000 4000.000000"
 preserveAspectRatio="xMidYMid meet">
<metadata>
Created by potrace 1.16, written by Peter Selinger 2001-2019
</metadata>
<g transform="translate(0.000000,4000.000000) scale(0.100000,-0.100000)"
fill="#000000" stroke="none">
<path d="M25749 11904 c-13 -14 -45 -37 -70 -50 l-46 -23 -23 24 c-13 14 -29
25 -36 25 -7 0 -43 -34 -82 -75 -61 -65 -71 -73 -83 -59 -11 13 -140 84 -153
84 -2 0 -17 -37 -31 -82 -18 -53 -39 -95 -58 -116 l-31 -32 26 -79 26 -79 -29
-28 -29 -28 26 -27 27 -28 -24 -28 c-13 -16 -35 -52 -48 -81 l-25 -52 31 -33
c17 -17 43 -56 57 -84 17 -33 37 -58 57 -68 l31 -16 -44 -28 c-24 -15 -80 -67
-125 -116 l-82 -89 -26 24 -26 24 -101 -50 c-56 -27 -117 -62 -135 -77 l-32
-28 -108 55 c-100 51 -247 105 -257 95 -2 -2 -29 -55 -61 -118 l-56 -114 30
-31 c26 -27 33 -46 52 -153 22 -119 22 -123 4 -163 -10 -22 -19 -40 -20 -40
-1 0 -35 12 -76 26 l-74 25 -76 -81 -76 -81 -159 -55 c-87 -30 -167 -63 -177
-72 -17 -15 -24 -10 -115 80 -101 100 -161 138 -274 174 -50 15 -62 16 -98 4
-22 -7 -46 -20 -54 -29 -7 -9 -25 -85 -39 -170 -24 -142 -29 -157 -57 -186
l-30 -31 25 -24 25 -24 -24 -25 c-17 -18 -22 -31 -17 -40 5 -7 6 -31 4 -52 -5
-35 -3 -39 12 -33 15 6 16 4 5 -17 -7 -13 -28 -41 -48 -61 l-36 -38 22 -23
c27 -29 27 -39 2 -62 -21 -19 -20 -19 14 -54 19 -20 45 -58 59 -86 31 -61 77
-106 178 -173 42 -28 79 -58 82 -66 8 -20 122 -77 212 -106 85 -28 162 -65
193 -94 25 -22 62 -87 62 -108 0 -7 -35 -47 -77 -90 l-77 -77 24 -26 23 -25
-23 -25 -24 -25 27 -28 27 -28 -24 -23 c-22 -20 -23 -27 -14 -54 6 -18 17 -41
25 -52 7 -11 13 -32 13 -48 0 -39 99 -141 178 -184 l59 -32 23 24 24 25 28
-27 28 -27 25 24 c23 22 26 22 43 7 10 -10 59 -31 107 -47 l89 -30 31 30 c18
18 61 40 105 55 41 14 86 36 100 49 25 25 26 25 93 10 38 -7 78 -19 90 -26 32
-17 81 -12 171 18 70 23 89 35 143 87 l63 61 -20 21 c-11 12 -20 26 -20 31 0
5 20 32 44 59 l44 50 -76 77 -76 78 38 39 39 40 48 -25 49 -24 69 34 c38 20
78 47 89 60 11 14 32 64 47 112 l27 86 -54 56 c-51 53 -57 63 -77 146 -12 49
-21 90 -19 91 2 2 41 22 88 45 102 51 247 184 287 265 15 31 68 94 136 162
l111 112 -85 88 -85 88 -23 96 -22 97 24 48 c14 27 48 72 77 99 44 43 54 61
76 132 27 89 47 113 121 147 l41 18 78 -26 79 -26 108 107 c131 130 153 170
198 362 17 75 40 170 51 211 35 136 36 128 -25 188 l-55 54 27 80 26 80 -25
18 c-14 11 -32 25 -41 33 -9 8 -51 26 -93 40 l-76 26 -70 -24 -70 -24 -21 42
c-18 37 -234 267 -250 267 -3 0 -16 -12 -30 -26z m132 -131 c62 -64 103 -116
119 -150 13 -29 29 -53 35 -53 6 0 45 11 85 25 l74 25 66 -21 c36 -12 76 -32
89 -44 l23 -23 -26 -78 -26 -78 52 -53 52 -53 -17 -92 c-32 -171 -79 -353
-104 -403 -22 -43 -190 -232 -217 -244 -5 -2 -41 6 -80 19 l-72 22 -55 -27
c-84 -42 -115 -77 -144 -165 -20 -61 -37 -90 -79 -136 -29 -33 -65 -83 -80
-111 l-26 -53 26 -107 27 -108 68 -70 c38 -39 69 -75 69 -80 0 -6 -41 -51 -91
-100 -64 -64 -98 -106 -115 -145 -16 -35 -51 -81 -97 -128 -59 -61 -91 -83
-182 -129 -60 -30 -112 -57 -114 -59 -1 -1 9 -54 24 -116 25 -108 29 -115 77
-164 l50 -52 -22 -68 c-26 -81 -48 -107 -112 -140 l-47 -24 -55 27 c-31 15
-57 25 -58 22 -2 -2 -30 -33 -63 -67 l-59 -62 72 -73 c40 -40 72 -77 72 -82 0
-5 -21 -31 -47 -57 l-47 -48 24 -25 24 -25 -44 -45 c-34 -35 -61 -50 -113 -67
l-68 -22 -131 27 -132 27 -31 -30 c-18 -17 -61 -40 -105 -55 -40 -14 -84 -35
-97 -47 l-23 -21 -62 19 c-39 11 -78 32 -101 53 l-38 34 -24 -23 -25 -23 -25
23 -25 24 -29 -28 -29 -28 -48 25 c-80 41 -130 101 -155 185 l-22 73 26 27 27
28 -25 24 -25 24 27 28 27 28 -22 23 c-12 13 -22 27 -22 32 0 5 32 42 71 81
l71 71 -30 59 c-51 100 -123 150 -300 208 -45 15 -102 42 -127 59 -40 29 -112
83 -219 162 -23 17 -54 55 -70 85 -17 30 -38 64 -48 74 -23 25 -23 35 4 63
l21 23 -23 25 c-21 23 -22 26 -8 42 9 10 30 47 48 82 l31 63 -22 24 -22 24 23
25 23 25 -21 23 c-27 28 -27 35 -3 61 13 15 25 62 41 166 12 80 29 156 37 169
19 29 49 26 159 -20 72 -29 91 -43 202 -153 l122 -120 38 36 c30 29 64 44 182
83 l145 47 77 76 78 76 80 -26 81 -27 31 63 31 63 -26 138 c-20 103 -32 144
-48 161 -24 26 -23 34 33 146 l28 57 67 -23 c38 -13 118 -48 179 -79 l111 -56
29 30 c16 16 71 52 123 80 l95 49 28 -27 28 -27 113 111 c85 84 128 119 180
145 l68 34 -70 33 c-59 29 -72 40 -88 75 -10 22 -31 55 -46 73 l-28 32 22 43
c11 24 35 58 52 75 l31 33 -24 25 -23 25 22 24 23 25 -26 77 c-26 78 -26 78
-6 99 11 11 29 48 40 80 11 33 22 66 25 73 7 18 59 -9 108 -56 l37 -36 78 77
77 77 22 -22 22 -22 61 29 c33 16 68 37 77 47 9 10 19 18 23 18 3 0 49 -44
101 -97z"/>
</g>
</svg>
