<?xml version="1.0" standalone="no"?>
<!DOCTYPE svg PUBLIC "-//W3C//DTD SVG 20010904//EN"
 "http://www.w3.org/TR/2001/REC-SVG-20010904/DTD/svg10.dtd">
<svg version="1.0" xmlns="http://www.w3.org/2000/svg"
 width="3000.000000pt" height="4000.000000pt" viewBox="0 0 3000.000000 4000.000000"
 preserveAspectRatio="xMidYMid meet">
<metadata>
Created by potrace 1.16, written by Peter Selinger 2001-2019
</metadata>
<g transform="translate(0.000000,4000.000000) scale(0.100000,-0.100000)"
fill="#000000" stroke="none">
<path d="M26457 11277 c-35 -30 -38 -38 -61 -152 -38 -188 -67 -296 -94 -350
-21 -43 -189 -232 -216 -244 -5 -2 -41 6 -80 19 l-72 22 -55 -27 c-84 -42
-115 -77 -144 -165 -20 -61 -37 -90 -79 -136 -29 -33 -65 -83 -80 -111 l-26
-53 26 -107 27 -108 68 -70 c38 -39 69 -75 69 -80 0 -6 -41 -51 -91 -100 -64
-64 -98 -106 -115 -145 -16 -35 -51 -81 -97 -128 -59 -61 -91 -83 -182 -129
-60 -30 -112 -57 -114 -59 -1 -1 9 -54 24 -116 25 -106 30 -116 72 -159 25
-26 50 -57 57 -70 9 -19 19 -23 42 -21 23 2 70 44 220 194 l192 190 26 131
c33 167 40 175 174 206 l97 23 128 -27 128 -27 23 21 22 21 22 -22 22 -22 54
26 53 26 54 -54 53 -54 25 25 25 25 53 -52 53 -52 25 24 c23 22 26 22 44 6 10
-9 26 -35 36 -57 l18 -39 -26 -28 -27 -28 25 -25 25 -24 -31 -38 c-17 -20 -38
-37 -46 -37 -9 0 -41 14 -71 31 -30 17 -56 29 -58 26 -4 -3 65 -217 72 -226 2
-3 14 5 27 17 34 32 50 27 95 -25 l40 -48 30 28 29 28 44 -48 c24 -26 55 -71
67 -99 24 -51 24 -51 111 -79 l87 -27 109 55 c61 30 118 64 129 75 l18 21 47
-23 c25 -12 141 -47 256 -76 225 -57 260 -59 271 -16 9 39 54 72 129 96 94 30
129 65 195 200 l54 110 -49 50 -49 50 98 99 c92 92 102 99 171 121 51 16 84
33 106 56 l31 32 -18 49 c-14 37 -51 82 -159 193 -133 138 -141 149 -162 215
l-23 69 27 28 27 28 -24 25 -24 26 27 27 27 27 -81 81 -82 82 27 78 26 78 -32
33 c-22 23 -57 41 -118 61 l-86 29 -50 -24 c-61 -31 -110 -76 -135 -125 -11
-21 -23 -38 -27 -38 -4 0 -47 42 -97 93 l-90 94 -125 23 c-109 20 -129 27
-157 54 l-33 30 -60 -29 c-33 -16 -70 -39 -81 -51 l-22 -23 -46 24 c-61 31
-135 109 -160 168 l-21 49 24 95 c19 74 31 103 56 128 l31 32 -43 39 c-31 28
-64 46 -119 63 l-76 24 -78 -26 -78 -27 -52 30 -51 29 -27 -27 -27 -26 -53 26
-53 26 -37 -31z m102 -51 l48 -25 25 26 25 25 48 -25 48 -24 79 26 78 25 76
-25 c91 -29 108 -47 77 -81 -13 -14 -30 -63 -46 -132 l-26 -108 28 -57 c36
-70 138 -168 209 -200 l52 -25 33 31 c17 16 50 40 71 52 l39 22 26 -25 c20
-19 53 -30 150 -49 l123 -25 113 -112 113 -113 32 64 c40 80 63 105 122 135
l46 23 64 -21 c34 -11 75 -32 90 -45 l26 -25 -25 -74 -25 -74 71 -78 70 -77
-24 -25 -25 -24 27 -28 27 -28 -22 -23 -21 -22 25 -85 26 -85 133 -135 c73
-74 142 -154 154 -176 l20 -41 -22 -21 c-12 -11 -56 -32 -98 -47 -71 -25 -83
-33 -187 -138 l-112 -112 54 -54 54 -53 -45 -97 c-25 -53 -54 -106 -65 -118
-12 -12 -55 -34 -98 -48 -56 -19 -86 -36 -113 -63 -20 -21 -37 -43 -37 -49 0
-7 -4 -14 -8 -17 -16 -9 -423 102 -477 130 l-53 28 -39 -34 c-21 -19 -80 -55
-131 -80 l-92 -44 -68 22 c-65 21 -70 24 -92 71 -12 27 -51 78 -87 113 l-64
63 -19 -22 c-10 -13 -23 -23 -28 -23 -5 0 -26 18 -46 41 -33 36 -41 40 -68 34
-21 -5 -33 -3 -39 6 -17 27 -9 34 34 31 39 -3 45 0 96 52 l55 56 -23 24 -23
25 20 26 21 27 -33 66 c-19 37 -48 80 -65 96 l-31 30 -25 -24 -25 -24 -48 47
c-26 26 -52 47 -57 47 -5 0 -19 -10 -32 -22 l-23 -22 -49 48 -48 48 -50 -26
-50 -25 -29 30 -28 29 -31 -30 -31 -30 -123 25 -123 25 -106 -26 c-153 -38
-164 -50 -198 -219 l-26 -129 -175 -181 c-96 -99 -180 -181 -187 -183 -6 -1
-34 21 -62 50 -47 48 -53 61 -73 142 -12 49 -21 90 -19 91 2 2 41 22 88 45
102 51 247 184 287 265 15 31 68 94 136 162 l111 112 -85 88 -85 88 -23 96
-22 97 24 48 c14 27 48 72 77 99 44 43 54 61 76 132 27 89 47 113 121 147 l41
18 78 -26 79 -26 108 107 c61 61 119 128 133 155 28 56 54 146 94 333 22 100
36 145 52 162 12 13 23 23 25 23 2 0 25 -11 52 -24z"/>
</g>
</svg>
