<?xml version="1.0" standalone="no"?>
<!DOCTYPE svg PUBLIC "-//W3C//DTD SVG 20010904//EN"
 "http://www.w3.org/TR/2001/REC-SVG-20010904/DTD/svg10.dtd">
<svg version="1.0" xmlns="http://www.w3.org/2000/svg"
 width="3000.000000pt" height="4000.000000pt" viewBox="0 0 3000.000000 4000.000000"
 preserveAspectRatio="xMidYMid meet">
<metadata>
Created by potrace 1.16, written by Peter Selinger 2001-2019
</metadata>
<g transform="translate(0.000000,4000.000000) scale(0.100000,-0.100000)"
fill="#000000" stroke="none">
<path d="M1220 18320 c-55 -28 -56 -29 -80 -105 -24 -76 -25 -78 -76 -103 -51
-25 -53 -27 -112 -151 -33 -69 -70 -156 -82 -192 -11 -36 -31 -76 -44 -88 -12
-11 -35 -48 -51 -81 -28 -58 -28 -60 -10 -80 21 -23 22 -21 -30 -48 -22 -11
-65 -45 -95 -76 l-54 -56 27 -28 27 -28 -49 -104 -49 -104 26 -53 26 -53 -26
-132 -26 -132 31 -63 c17 -35 35 -63 40 -63 4 0 26 9 48 21 23 11 42 19 44 17
1 -2 12 -56 25 -121 l23 -118 56 -28 c31 -16 64 -37 73 -48 17 -19 17 -23 -8
-97 l-26 -78 50 -51 50 -52 -23 -45 c-13 -25 -48 -70 -79 -100 l-56 -54 27
-28 27 -28 -21 -22 c-11 -13 -33 -60 -48 -106 l-27 -82 52 -60 c37 -42 62 -62
88 -69 21 -6 68 -18 105 -27 68 -17 68 -17 97 -73 43 -85 63 -99 190 -131
l111 -28 77 25 c42 14 91 38 107 53 43 39 112 74 204 105 45 14 91 35 103 45
22 18 24 18 44 -1 21 -20 21 -20 57 3 20 13 40 34 45 48 5 14 18 35 28 46 11
12 30 41 44 65 14 23 37 54 53 68 15 14 27 31 27 39 0 18 46 103 52 96 3 -2
15 17 26 43 11 26 34 61 50 76 16 16 42 58 57 93 l28 65 -22 23 c-20 21 -20
24 -6 36 9 8 30 39 46 69 16 31 52 82 80 113 47 52 53 64 79 167 l28 110 -25
23 c-14 13 -38 49 -54 80 -28 56 -77 97 -99 83 -6 -3 -42 4 -81 17 -62 20 -77
30 -121 81 l-51 58 -30 -28 -29 -28 -144 150 c-138 144 -145 153 -169 225 -22
67 -34 84 -104 155 l-79 80 -43 135 c-46 147 -52 210 -20 245 10 11 30 68 45
128 l26 107 -24 49 -25 48 24 23 25 23 -34 32 c-19 17 -48 38 -65 45 -29 12
-34 11 -56 -10 l-24 -23 -32 27 c-36 31 -102 66 -121 66 -7 -1 -38 -14 -68
-30z m113 -41 c23 -12 57 -35 74 -52 l33 -31 27 26 c27 25 30 26 56 11 28 -14
28 -15 11 -34 -17 -19 -16 -22 10 -77 l28 -57 -25 -99 c-18 -69 -33 -106 -51
-125 -37 -39 -34 -73 25 -251 l52 -155 81 -85 c76 -78 84 -91 104 -160 l22
-76 165 -164 164 -164 26 24 25 24 48 -47 c36 -36 65 -53 122 -72 41 -14 85
-24 98 -22 19 4 27 -4 49 -47 14 -28 36 -62 49 -76 l23 -25 -24 -94 c-22 -86
-28 -99 -73 -145 -28 -28 -61 -73 -75 -101 -14 -27 -39 -63 -56 -79 -37 -36
-38 -46 -6 -76 l24 -23 -23 -46 c-13 -25 -34 -55 -46 -66 -12 -11 -37 -50 -56
-86 -18 -37 -46 -78 -63 -92 -17 -14 -33 -38 -37 -53 -9 -34 -34 -72 -87 -128
-21 -23 -47 -58 -56 -78 l-18 -38 -23 25 -24 25 -35 -34 c-23 -22 -61 -42
-106 -56 -91 -30 -174 -72 -204 -104 -14 -15 -55 -36 -100 -50 l-76 -26 -94
25 c-105 27 -120 38 -165 121 l-31 58 -105 28 c-94 25 -109 32 -148 72 l-44
44 22 68 c13 41 35 82 53 101 l31 33 -24 25 -24 25 46 48 c43 44 98 136 98
164 0 7 -23 35 -50 63 l-50 51 26 78 26 78 -31 32 c-18 18 -54 43 -80 56 l-49
22 -27 139 c-15 77 -29 139 -32 139 -2 0 -26 -12 -54 -26 -28 -14 -52 -24 -54
-22 -1 2 -10 18 -19 36 -16 31 -16 39 10 166 l26 133 -25 49 -25 49 37 75 c66
131 67 137 42 164 l-21 23 52 49 c29 27 77 60 106 73 l52 25 -31 32 -31 32 22
43 c12 24 35 58 50 74 16 18 39 65 55 115 15 47 49 128 75 180 45 90 51 97 99
119 49 24 51 26 77 103 23 69 30 81 62 98 46 24 45 24 95 -1z"/>
</g>
</svg>
