<?xml version="1.0" standalone="no"?>
<!DOCTYPE svg PUBLIC "-//W3C//DTD SVG 20010904//EN"
 "http://www.w3.org/TR/2001/REC-SVG-20010904/DTD/svg10.dtd">
<svg version="1.0" xmlns="http://www.w3.org/2000/svg"
 width="3000.000000pt" height="4000.000000pt" viewBox="0 0 3000.000000 4000.000000"
 preserveAspectRatio="xMidYMid meet">
<metadata>
Created by potrace 1.16, written by Peter Selinger 2001-2019
</metadata>
<g transform="translate(0.000000,4000.000000) scale(0.100000,-0.100000)"
fill="#000000" stroke="none">
<path d="M4798 6262 c-42 -15 -90 -39 -105 -54 -25 -24 -45 -29 -202 -52
l-174 -25 -81 -79 c-72 -71 -89 -82 -151 -102 -65 -21 -78 -30 -180 -131 -103
-101 -115 -110 -184 -134 -88 -30 -117 -54 -132 -109 -6 -22 -22 -62 -35 -88
l-24 -47 21 -12 c18 -9 25 -7 48 14 17 16 56 32 118 47 l93 22 74 -27 c99 -36
155 -93 186 -189 l22 -68 -77 -78 -78 -78 22 -72 c12 -39 26 -82 31 -95 l9
-23 118 29 c114 29 120 31 166 79 l47 49 43 -15 c23 -8 48 -16 55 -19 8 -3 -2
-27 -33 -75 -25 -39 -45 -73 -45 -77 0 -4 9 -16 20 -28 l20 -21 -25 -24 -25
-24 27 -28 27 -28 -27 -28 -27 -28 36 -35 c33 -32 42 -35 191 -61 113 -19 161
-31 174 -45 19 -18 19 -20 -2 -83 -12 -36 -34 -78 -49 -95 -17 -18 -39 -65
-55 -116 l-28 -85 53 -160 c49 -149 56 -162 103 -211 l50 -51 -23 -94 c-13
-51 -30 -101 -38 -111 -15 -17 -17 -16 -48 14 -39 38 -33 49 -68 -130 -16 -84
-32 -142 -43 -154 -10 -10 -45 -33 -78 -49 -33 -17 -61 -31 -62 -32 -2 -2 9
-37 23 -79 l26 -76 -25 -33 c-14 -18 -37 -57 -52 -87 l-27 -53 27 -28 c26 -27
26 -28 10 -61 -10 -19 -33 -53 -51 -75 l-34 -42 27 -130 26 -131 -22 -87 c-12
-48 -18 -90 -14 -94 4 -4 33 -19 64 -32 l56 -26 29 59 c15 33 36 67 46 76 18
16 21 14 68 -32 l49 -49 53 24 c31 15 85 55 130 99 74 71 79 73 96 58 10 -10
59 -31 108 -47 l88 -30 28 28 c15 15 41 52 56 82 22 43 39 61 76 81 26 14 80
58 120 98 l72 71 44 -46 c25 -25 71 -59 103 -75 l57 -29 53 26 c29 14 89 62
137 109 l85 83 95 22 95 22 117 116 117 115 -20 26 -20 25 43 22 c24 12 51 31
61 42 18 20 18 20 109 -3 59 -16 99 -32 117 -48 14 -14 46 -35 71 -47 25 -12
61 -38 81 -57 l36 -34 109 27 109 27 111 109 c105 104 112 113 133 181 13 40
40 104 60 143 25 48 35 78 31 95 -3 13 5 79 18 145 l24 121 59 29 59 28 -34
35 c-23 25 -42 62 -60 117 -19 56 -36 90 -59 112 l-33 32 -72 -24 c-39 -14
-99 -37 -132 -52 l-61 -27 -50 23 -50 24 -104 -26 -104 -25 -99 53 -98 53
-103 -26 c-101 -25 -102 -26 -144 -7 -23 10 -82 57 -132 105 -49 48 -109 96
-132 108 -38 19 -44 27 -64 91 l-23 70 26 53 26 53 -25 48 -25 49 44 44 c23
25 68 57 98 73 49 25 59 35 84 89 l30 61 -24 52 c-15 32 -55 85 -104 135 l-79
82 25 183 26 183 -29 31 c-37 39 -125 290 -108 310 18 22 -1 57 -74 131 l-71
73 -28 -27 c-25 -24 -29 -25 -60 -12 -18 7 -63 42 -100 77 l-66 64 -119 -63
c-65 -34 -120 -64 -122 -66 -3 -2 44 -53 103 -112 l109 -109 -22 -93 c-13 -56
-30 -102 -42 -115 l-20 -21 -106 26 -105 26 -138 -145 -138 -145 24 -26 c18
-19 21 -28 13 -36 -16 -16 -81 17 -130 63 l-35 34 -24 -25 -24 -25 -37 36 -37
37 20 42 c16 33 32 48 69 65 26 13 69 44 95 71 45 46 49 48 66 32 17 -15 20
-15 34 -1 14 14 13 21 -16 78 l-32 63 -58 -58 -57 -57 -40 20 c-46 24 -103 84
-122 128 -11 29 -10 37 12 80 30 59 56 84 122 117 28 14 61 37 75 52 14 15 50
40 80 55 30 16 72 46 93 68 l38 39 -125 32 c-69 17 -129 31 -133 30 -5 0 -43
-13 -85 -27z m170 -39 c40 -9 71 -22 69 -27 -2 -6 -29 -25 -60 -41 -31 -17
-69 -43 -84 -57 -16 -14 -50 -37 -78 -51 -65 -33 -98 -69 -130 -143 l-27 -62
30 -58 c36 -70 69 -103 140 -138 29 -15 51 -30 48 -34 -3 -5 -27 -19 -55 -32
-45 -21 -54 -30 -81 -89 l-31 -65 65 -65 65 -65 25 23 25 24 28 -24 c16 -13
52 -35 81 -48 l52 -25 35 34 c41 40 42 46 13 77 l-22 24 116 116 116 116 104
-26 103 -26 31 32 c26 26 36 52 58 139 14 59 26 113 26 119 0 6 -41 54 -92
105 -50 52 -90 96 -87 98 2 2 37 20 77 40 l74 37 51 -48 c29 -27 78 -62 109
-78 l57 -30 26 25 27 25 44 -49 c24 -27 41 -53 38 -58 -3 -4 0 -8 7 -8 8 0 9
-4 0 -13 -15 -19 82 -312 115 -348 l24 -25 -26 -183 -26 -182 84 -87 c46 -48
92 -106 102 -128 17 -40 17 -42 -3 -83 -17 -31 -35 -48 -79 -70 -38 -19 -75
-49 -107 -86 l-48 -57 25 -51 25 -52 -25 -52 -26 -53 29 -89 28 -89 51 -23
c31 -15 88 -59 146 -114 52 -50 114 -99 137 -109 41 -18 43 -18 132 4 106 26
124 23 238 -33 l83 -41 104 25 103 26 54 -27 53 -27 80 38 c45 21 103 44 129
51 46 12 49 12 66 -11 10 -13 29 -57 42 -98 12 -40 29 -79 36 -85 20 -17 16
-24 -27 -43 -33 -15 -41 -24 -46 -54 -3 -20 -15 -78 -25 -130 -11 -51 -19
-106 -19 -122 0 -17 -11 -51 -24 -77 -13 -26 -35 -84 -50 -129 -25 -76 -33
-88 -124 -183 l-97 -101 -95 -24 -95 -24 -25 23 c-14 13 -45 34 -70 46 -25 12
-59 36 -76 52 -25 23 -56 36 -145 58 l-113 29 -41 -37 c-22 -20 -64 -48 -93
-61 l-52 -25 30 -31 30 -31 -93 -92 -94 -93 -99 -25 -99 -25 -85 -84 c-47 -45
-103 -92 -125 -103 -40 -20 -40 -20 -80 0 -22 11 -68 48 -103 81 l-62 62 -88
-87 c-51 -50 -109 -97 -139 -112 -45 -22 -57 -35 -82 -84 -43 -85 -49 -89
-124 -66 -38 11 -77 32 -100 53 l-38 34 -87 -85 c-48 -47 -106 -95 -128 -107
l-42 -20 -53 56 -53 56 -37 -44 c-21 -24 -45 -61 -55 -81 -16 -36 -17 -37 -44
-23 l-27 14 18 77 18 76 -25 124 -25 125 28 32 c15 18 39 56 52 85 l24 52 -21
23 c-12 13 -22 29 -22 36 0 21 31 75 63 109 l31 32 -22 68 c-12 38 -22 73 -22
79 0 5 18 18 40 28 23 10 55 35 73 54 28 31 35 51 52 139 10 56 20 102 22 102
2 0 12 -5 23 -12 17 -11 23 -7 54 27 29 33 39 59 61 149 l26 110 -54 55 c-51
53 -57 64 -101 196 -25 77 -46 149 -46 161 0 37 40 138 65 164 14 14 38 66 55
115 l30 89 -35 36 c-34 35 -40 37 -181 60 -94 15 -154 30 -168 41 l-21 17 24
26 24 26 -23 25 -24 25 27 28 27 28 -24 23 c-29 27 -25 41 37 134 21 32 37 60
35 61 -1 1 -45 17 -97 35 l-93 33 -57 -55 c-51 -51 -63 -57 -140 -77 -46 -12
-87 -18 -91 -13 -4 4 -15 32 -25 62 l-17 53 77 78 77 78 -28 86 c-25 76 -34
92 -88 145 -52 50 -73 63 -140 85 l-79 26 -78 -20 c-42 -11 -84 -22 -92 -25
-10 -4 -14 3 -15 28 -2 46 27 71 119 102 69 24 81 33 179 130 98 98 110 106
180 130 67 23 84 34 155 105 l80 79 180 25 c164 24 182 29 208 54 23 23 127
68 162 71 6 1 43 -6 83 -16z"/>
</g>
</svg>
