<?xml version="1.0" standalone="no"?>
<!DOCTYPE svg PUBLIC "-//W3C//DTD SVG 20010904//EN"
 "http://www.w3.org/TR/2001/REC-SVG-20010904/DTD/svg10.dtd">
<svg version="1.0" xmlns="http://www.w3.org/2000/svg"
 width="3000.000000pt" height="4000.000000pt" viewBox="0 0 3000.000000 4000.000000"
 preserveAspectRatio="xMidYMid meet">
<metadata>
Created by potrace 1.16, written by Peter Selinger 2001-2019
</metadata>
<g transform="translate(0.000000,4000.000000) scale(0.100000,-0.100000)"
fill="#000000" stroke="none">
<path d="M10622 5277 c-12 -13 -39 -29 -59 -36 -21 -7 -45 -20 -55 -28 -14
-13 -22 -11 -66 11 l-50 25 -39 -42 c-21 -23 -49 -66 -62 -95 l-25 -52 31 -33
c33 -34 63 -87 63 -110 0 -8 -7 -21 -16 -28 -9 -7 -53 -88 -99 -179 -46 -91
-91 -172 -100 -180 -14 -12 -32 -11 -125 9 -60 12 -187 35 -282 51 l-172 29
-66 -62 c-44 -42 -91 -75 -148 -102 l-82 -39 -55 54 -55 54 -35 -34 c-25 -24
-42 -56 -61 -114 -32 -97 -40 -107 -120 -152 -34 -19 -68 -41 -74 -49 -19 -23
-37 -19 -116 25 -84 46 -110 50 -119 18 -4 -13 -20 -36 -35 -53 -36 -39 -66
-100 -100 -200 l-26 -80 -97 -50 c-117 -61 -201 -139 -242 -225 l-28 -58 26
-84 c15 -47 36 -93 47 -103 20 -18 20 -19 1 -39 -17 -19 -51 -78 -51 -89 0 -2
34 -32 76 -67 l77 -63 55 27 54 27 130 -26 131 -27 98 98 98 98 26 -24 25 -24
28 27 28 27 39 -40 38 -39 -26 -183 -26 -183 32 -33 c18 -19 57 -47 88 -62 84
-43 88 -51 57 -114 l-26 -53 25 -25 25 -25 -26 -50 -25 -50 25 -24 24 -23 -27
-28 -27 -28 27 -27 27 -27 -52 -53 -52 -53 28 -29 28 -30 -22 -101 -23 -101
21 -45 22 -45 -25 -33 -25 -32 135 -141 c74 -78 135 -146 135 -151 0 -6 15
-19 34 -30 l35 -21 38 42 c26 29 45 62 58 107 15 51 31 78 75 127 52 58 57 67
79 160 12 54 36 126 51 160 16 34 40 121 55 193 l26 130 -26 132 c-21 105 -32
138 -51 159 l-25 26 23 69 23 68 63 20 63 20 82 -82 c78 -78 83 -81 100 -65 9
10 17 13 17 8 1 -6 11 -90 24 -188 20 -160 25 -180 48 -205 14 -15 36 -47 48
-72 37 -74 119 -158 185 -192 33 -17 110 -44 170 -59 l110 -28 24 24 24 24 58
-30 58 -29 10 38 c5 20 19 73 30 116 11 44 28 88 38 98 18 18 21 17 97 -8 l78
-26 31 29 c18 16 66 42 106 56 41 15 85 37 97 48 l22 20 39 -19 c35 -18 41
-27 62 -94 13 -40 33 -83 44 -96 l21 -22 -27 -28 -27 -28 105 -104 105 -104
-25 -26 -25 -26 38 -36 c20 -19 60 -48 89 -64 l51 -28 54 24 c72 33 163 122
199 192 16 32 29 64 29 73 0 33 -45 103 -116 180 l-74 80 50 50 50 51 -27 26
-27 27 22 24 c21 23 72 154 72 187 0 24 -47 64 -119 100 l-65 32 -17 -21 c-22
-27 -30 -27 -62 7 -33 34 -33 39 -5 69 l21 23 -23 25 -23 25 23 25 24 25 -29
30 -29 30 23 73 c46 144 90 202 187 251 29 14 68 44 88 67 l36 43 28 -27 28
-27 24 25 c17 19 26 22 36 14 11 -9 9 -20 -11 -60 -14 -26 -25 -52 -25 -57 0
-5 22 -19 50 -32 27 -13 62 -36 77 -52 15 -17 51 -41 78 -55 28 -14 67 -41 87
-61 l38 -36 23 22 c29 27 39 27 62 2 l18 -20 22 20 c12 11 25 20 30 20 5 0 31
-21 58 -47 l48 -48 37 40 c37 39 38 43 61 190 21 144 24 151 57 185 l34 36
-95 94 c-92 92 -95 93 -114 76 -19 -18 -20 -17 -31 26 -6 23 -15 58 -20 77 -8
28 -4 43 20 91 l29 57 -25 24 c-24 22 -24 23 -5 43 19 20 129 427 136 500 1
17 11 81 20 141 16 96 22 114 48 142 l30 33 -133 137 c-104 107 -149 146 -198
171 l-64 34 -34 -33 c-18 -17 -42 -55 -54 -83 -22 -52 -142 -186 -167 -186 -7
0 -20 11 -29 25 -9 14 -19 25 -23 25 -4 0 -20 -40 -36 -90 -21 -66 -37 -98
-62 -122 l-33 -32 26 -27 c37 -38 21 -59 -17 -23 l-29 28 -38 -36 c-37 -35
-101 -64 -125 -55 -6 2 -21 1 -33 -4 -39 -14 -96 26 -234 165 l-134 136 -26
-25 -26 -25 -42 43 c-30 30 -49 63 -66 112 l-23 70 28 57 28 56 -42 39 c-23
21 -66 49 -95 62 l-52 24 -23 -21 c-22 -21 -23 -21 -42 -3 -11 10 -56 31 -100
46 -44 15 -102 39 -130 53 -37 18 -208 82 -220 82 -1 0 -11 -10 -23 -23z m233
-105 c28 -14 81 -36 120 -49 45 -15 82 -36 105 -58 l36 -35 28 29 29 30 46
-24 c74 -37 78 -47 51 -106 l-24 -50 28 -85 c24 -73 36 -94 86 -147 l58 -62
24 23 c13 12 29 22 35 22 6 0 60 -52 120 -116 86 -92 121 -123 174 -149 l65
-33 85 29 c46 17 92 37 101 46 17 15 20 15 43 -7 l26 -24 41 42 42 41 -23 25
-23 24 20 29 c11 15 28 52 37 81 18 55 25 61 45 36 12 -13 25 -4 102 73 56 55
100 109 118 144 16 30 36 61 44 69 29 23 86 -15 217 -146 l123 -123 -21 -23
c-17 -18 -27 -57 -47 -181 -14 -87 -49 -249 -77 -360 -41 -167 -55 -209 -81
-240 l-30 -39 26 -26 25 -27 -23 -50 -22 -50 29 -120 c17 -66 32 -122 34 -124
2 -3 17 8 33 24 l30 29 60 -59 c59 -58 59 -59 41 -80 -14 -14 -26 -65 -45
-180 -34 -202 -40 -209 -105 -135 l-49 55 -29 -28 -29 -27 -24 25 -24 25 -26
-25 c-26 -25 -27 -25 -44 -6 -9 10 -43 32 -74 49 -32 17 -68 42 -80 55 -13 13
-41 32 -63 42 -21 10 -39 22 -39 26 0 5 10 29 22 54 l22 45 -39 40 -39 40 -28
-27 -28 -27 -25 24 -25 24 -63 -61 c-34 -34 -84 -72 -112 -86 -87 -44 -127
-103 -181 -270 l-28 -87 22 -22 22 -22 -27 -28 -27 -28 27 -28 27 -28 -25 -24
-26 -24 68 -68 67 -68 28 27 28 26 39 -18 c22 -9 50 -28 61 -40 l22 -23 -21
-67 c-13 -45 -31 -79 -52 -101 l-33 -34 24 -25 24 -25 -47 -48 c-26 -26 -47
-52 -47 -58 0 -5 35 -45 79 -88 46 -46 88 -98 101 -126 21 -44 22 -52 10 -81
-24 -58 -113 -152 -167 -178 l-50 -23 -52 26 c-63 32 -71 49 -40 82 l23 25
-102 102 -103 103 26 24 25 24 -34 35 c-24 25 -42 60 -59 115 l-25 79 -63 33
-64 32 -35 -33 c-22 -20 -61 -41 -105 -55 -38 -12 -82 -33 -96 -46 l-25 -24
-74 25 -74 25 -35 -35 c-30 -28 -39 -48 -55 -117 -10 -46 -20 -86 -22 -90 -3
-4 -25 2 -49 14 l-45 22 -29 -28 -28 -27 -99 27 c-55 14 -117 35 -139 46 -57
28 -143 115 -166 168 -11 25 -34 59 -50 76 -29 30 -31 36 -57 252 -15 121 -30
223 -33 226 -3 3 -18 -8 -34 -24 l-29 -30 -76 74 -75 74 -89 -31 -90 -32 -29
-88 -29 -89 30 -31 c25 -28 33 -49 53 -154 l23 -123 -23 -122 c-14 -70 -35
-145 -49 -173 -14 -27 -38 -99 -53 -159 -26 -103 -30 -112 -78 -160 -42 -42
-56 -66 -77 -131 -43 -129 -34 -130 -194 30 l-140 140 24 24 25 24 -29 57 -28
56 26 107 26 107 -22 22 -22 22 52 53 52 53 -24 25 -23 25 23 25 24 25 -28 29
-27 28 24 55 25 56 -25 24 -25 25 26 50 25 50 -42 40 c-23 23 -65 52 -93 66
-80 40 -78 31 -49 238 l25 184 -65 64 -64 65 -26 -24 -25 -23 -25 23 -26 24
-108 -108 -109 -108 -121 26 -122 26 -49 -25 -48 -24 -47 55 -48 55 34 35 33
34 -31 33 c-19 20 -40 59 -54 104 -23 72 -23 72 -3 115 33 75 97 133 220 198
l113 61 30 92 c32 93 52 132 106 204 l30 40 89 -44 89 -44 31 29 c17 17 54 41
81 55 72 36 109 80 135 162 12 39 31 79 41 90 19 19 19 19 68 -29 l48 -48 104
52 c72 36 121 68 160 106 l56 55 124 -21 c68 -11 195 -35 282 -52 l158 -31 34
34 c20 20 66 100 110 189 42 85 90 169 107 186 l30 32 -27 53 c-15 30 -38 66
-52 80 l-25 27 25 49 c40 77 49 81 112 50 l53 -26 26 34 c22 28 31 33 54 29
20 -4 33 1 51 20 l23 25 72 -26 c39 -14 94 -37 121 -51z"/>
</g>
</svg>
