<?xml version="1.0" standalone="no"?>
<!DOCTYPE svg PUBLIC "-//W3C//DTD SVG 20010904//EN"
 "http://www.w3.org/TR/2001/REC-SVG-20010904/DTD/svg10.dtd">
<svg version="1.0" xmlns="http://www.w3.org/2000/svg"
 width="3000.000000pt" height="4000.000000pt" viewBox="0 0 3000.000000 4000.000000"
 preserveAspectRatio="xMidYMid meet">
<metadata>
Created by potrace 1.16, written by Peter Selinger 2001-2019
</metadata>
<g transform="translate(0.000000,4000.000000) scale(0.100000,-0.100000)"
fill="#000000" stroke="none">
<path d="M7987 7904 c-19 -38 -38 -83 -41 -101 -4 -17 -13 -37 -21 -43 -9 -7
-13 -30 -13 -61 1 -38 -3 -55 -19 -71 l-21 -21 -30 22 c-17 11 -37 21 -46 21
-8 0 -19 6 -23 13 -4 8 -20 21 -34 30 -25 17 -26 17 -83 -45 -31 -35 -69 -85
-84 -113 l-27 -49 -115 -23 -114 -23 -52 51 c-48 48 -57 52 -160 78 -60 15
-133 40 -163 55 l-54 28 -36 -35 c-20 -19 -58 -46 -86 -60 -27 -14 -71 -47
-96 -75 -39 -42 -58 -53 -126 -76 -44 -15 -88 -35 -98 -46 -17 -19 -18 -19
-67 6 l-50 25 -24 -22 -24 -23 -48 46 c-44 42 -55 47 -161 73 l-115 28 -50
-55 c-47 -51 -57 -57 -121 -72 -38 -9 -79 -19 -89 -23 -14 -4 -18 -1 -13 10 3
9 -5 25 -19 38 l-24 23 31 32 31 32 -101 33 -101 33 -50 -49 -50 -49 -44 21
c-42 21 -44 21 -72 3 -16 -10 -59 -49 -95 -86 -66 -68 -67 -70 -90 -167 -23
-97 -24 -99 -62 -119 l-39 -20 -32 31 -32 31 -36 -74 -36 -73 21 -22 c32 -32
14 -51 -77 -80 l-77 -25 -75 27 -75 27 -48 -25 -48 -24 -23 24 c-29 31 -37 31
-60 3 l-18 -23 -17 36 c-17 35 -17 37 10 89 l27 53 -41 40 -40 41 -26 -24
c-23 -22 -26 -22 -43 -7 -9 9 -55 29 -102 46 l-84 29 -49 -25 -49 -25 -28 27
-28 26 -61 -30 c-54 -28 -64 -38 -92 -92 l-30 -61 20 -22 c12 -12 21 -27 21
-32 0 -6 -18 -28 -41 -49 -22 -22 -54 -65 -69 -95 -17 -33 -63 -89 -114 -139
l-85 -85 121 -63 121 -64 75 26 c58 19 79 22 89 13 11 -9 -6 -31 -89 -117 -70
-72 -111 -123 -128 -159 l-24 -53 26 -26 27 -26 -21 -41 c-11 -23 -46 -68 -77
-101 -33 -36 -70 -89 -91 -133 -31 -66 -33 -75 -20 -95 8 -12 36 -62 61 -112
l47 -89 -24 -48 -24 -47 21 -11 c15 -8 24 -8 34 0 15 12 39 95 36 125 -3 32
38 62 120 90 69 24 81 33 179 130 98 98 110 106 180 130 67 23 84 34 155 105
l80 79 180 25 c167 24 182 28 210 55 16 16 60 38 98 51 66 21 68 21 142 4 42
-10 74 -22 72 -28 -2 -6 -29 -25 -60 -41 -31 -17 -69 -43 -84 -57 -16 -14 -50
-37 -78 -51 -65 -33 -98 -69 -130 -143 l-27 -62 30 -58 c36 -70 69 -103 140
-138 29 -15 51 -30 48 -34 -3 -5 -27 -19 -55 -32 -45 -21 -54 -30 -81 -89
l-31 -65 65 -65 65 -65 25 23 25 24 28 -24 c16 -13 52 -35 81 -48 l52 -25 35
34 c41 40 42 46 13 77 l-22 24 116 116 116 116 104 -26 103 -26 31 32 c26 26
36 52 58 139 14 59 26 113 26 119 0 6 -41 54 -92 105 -50 52 -90 96 -87 98 2
2 37 20 77 40 l74 37 51 -48 c29 -27 78 -62 109 -78 l57 -30 26 25 27 25 44
-49 c24 -27 41 -53 38 -58 -3 -4 0 -8 7 -8 9 0 9 -3 0 -14 -23 -27 20 -26 179
5 l158 32 12 40 c6 23 16 52 21 65 l9 24 48 -43 c26 -24 71 -55 100 -68 l53
-25 49 49 50 49 22 -21 c13 -12 73 -46 134 -76 l111 -56 24 52 c31 66 72 113
120 138 l39 19 19 -38 c11 -22 32 -86 46 -143 70 -282 93 -318 231 -363 47
-15 87 -26 89 -24 2 2 17 55 33 119 l29 116 -23 45 -22 44 34 19 35 19 54 -54
53 -53 59 33 c32 18 66 39 76 48 17 15 24 9 115 -80 91 -90 102 -97 183 -126
l86 -31 38 39 c37 37 38 40 22 58 -25 27 -21 37 22 57 22 10 50 29 63 42 13
14 40 34 62 45 l38 20 29 -28 28 -27 43 38 c51 46 79 85 72 99 -3 6 1 3 10 -8
15 -18 17 -18 98 5 76 21 89 29 153 90 l70 68 -24 25 c-24 25 -24 26 -6 46 12
13 27 68 45 158 l26 138 -26 57 c-15 31 -40 71 -56 89 -16 19 -38 62 -48 96
l-19 62 28 30 29 30 -81 83 -80 82 25 77 26 78 -30 31 c-16 17 -46 40 -66 50
-43 22 -44 25 -21 51 15 17 13 21 -43 81 -33 34 -68 81 -79 105 l-19 44 27 81
27 81 -31 32 c-16 17 -57 44 -89 59 l-60 29 -71 -23 c-39 -12 -72 -21 -74 -19
-1 1 -12 22 -24 45 -16 33 -34 49 -74 69 -28 14 -69 42 -89 61 l-36 36 -35
-69z m86 -36 c19 -13 49 -31 66 -40 21 -12 39 -35 55 -72 14 -31 26 -56 28
-56 2 0 36 11 76 25 41 14 80 25 88 25 22 0 87 -35 108 -59 18 -20 18 -22 -4
-99 l-22 -78 27 -54 c15 -30 48 -76 73 -102 l46 -48 -28 -29 -28 -30 68 -34
c94 -48 98 -57 69 -148 l-23 -73 69 -75 c38 -41 69 -78 69 -81 0 -4 -9 -15
-19 -24 -19 -17 -19 -19 11 -108 17 -49 43 -104 58 -122 15 -17 37 -50 48 -73
l21 -41 -23 -122 c-20 -106 -27 -125 -54 -153 l-31 -32 24 -31 24 -31 -42 -40
c-28 -27 -63 -47 -107 -62 l-64 -21 -33 32 c-18 17 -34 30 -37 27 -2 -2 -17
-31 -34 -65 -41 -81 -57 -94 -84 -66 l-21 21 -66 -34 c-36 -18 -75 -43 -86
-55 -11 -12 -47 -36 -80 -52 -33 -17 -62 -32 -64 -34 -3 -2 8 -17 23 -33 23
-24 25 -29 12 -40 -13 -11 -27 -9 -78 8 -56 19 -75 34 -175 133 l-112 112 -43
-40 c-24 -22 -58 -46 -76 -53 -34 -14 -34 -14 -84 37 l-51 51 -69 -35 -68 -34
29 -59 30 -59 -20 -83 c-11 -46 -21 -85 -24 -87 -9 -9 -134 40 -153 61 -22 24
-56 127 -92 277 -13 52 -38 125 -57 163 l-33 67 -63 -31 c-78 -39 -103 -62
-133 -121 -13 -27 -29 -48 -34 -48 -24 0 -178 85 -210 116 l-36 34 -53 -54
-54 -55 -31 16 c-17 8 -63 47 -102 85 -39 39 -74 66 -76 62 -3 -5 -17 -46 -32
-90 l-27 -82 -115 -22 -116 -23 -82 82 -81 81 -27 -27 c-25 -25 -28 -25 -60
-13 -18 8 -63 43 -100 78 l-66 64 -119 -63 c-65 -34 -120 -64 -122 -66 -3 -2
44 -53 103 -112 l109 -109 -22 -93 c-13 -56 -30 -102 -42 -115 l-20 -21 -106
26 -105 26 -138 -145 -138 -145 24 -26 c18 -19 21 -28 13 -36 -16 -16 -81 17
-130 63 l-35 34 -24 -25 -24 -25 -37 36 -37 37 20 42 c16 33 32 48 69 65 26
13 69 44 95 71 45 46 49 48 66 32 17 -15 20 -15 34 -1 14 14 13 21 -16 78
l-32 63 -58 -58 -57 -57 -40 20 c-46 24 -103 84 -122 128 -11 29 -10 37 12 80
30 59 56 84 122 117 28 14 61 37 75 52 14 15 50 40 80 55 30 16 72 46 93 68
l38 39 -127 32 -127 32 -81 -27 c-47 -15 -93 -38 -111 -54 -28 -26 -44 -31
-204 -54 l-174 -25 -81 -79 c-72 -71 -89 -82 -151 -102 -65 -21 -78 -30 -180
-131 -103 -101 -115 -110 -184 -134 -41 -14 -85 -35 -97 -46 -12 -12 -27 -18
-34 -14 -6 3 -26 38 -45 76 l-35 69 29 58 c16 31 50 77 76 102 26 25 62 76 82
114 l34 68 -24 27 c-24 26 -24 27 -7 63 9 21 67 91 128 156 l111 119 -39 38
-38 37 -77 -25 -76 -26 -84 41 -84 42 65 68 c35 37 77 94 93 126 16 31 54 82
85 112 l56 54 -27 28 -27 28 21 43 c15 32 32 48 62 62 l41 18 25 -23 25 -24
55 27 54 26 63 -21 c39 -13 77 -34 100 -56 l38 -36 30 29 c26 25 30 26 36 11
4 -10 -3 -38 -16 -65 l-22 -48 32 -64 c18 -35 34 -66 36 -68 2 -3 17 8 32 22
l28 27 23 -24 24 -25 55 28 56 28 74 -25 75 -25 76 24 c55 17 88 35 119 63
l43 39 -27 28 c-25 26 -26 30 -14 59 l13 31 20 -20 20 -20 67 34 66 33 24 104
24 103 69 72 69 72 55 -27 54 -27 48 54 47 55 47 -14 c56 -15 65 -25 43 -49
-15 -16 -15 -19 4 -36 28 -25 26 -36 -20 -80 -37 -36 -39 -40 -24 -56 16 -17
19 -17 64 6 26 13 94 36 151 50 97 25 107 30 155 76 l51 50 89 -22 c84 -20 92
-25 149 -80 l60 -59 28 27 27 27 54 -26 53 -27 32 33 c21 22 54 39 104 55 60
19 82 33 132 81 33 32 80 68 105 80 25 12 55 31 67 43 l22 20 58 -25 c32 -14
100 -36 151 -48 89 -22 94 -24 140 -76 l48 -54 140 28 139 28 31 57 c17 32 50
77 74 102 l43 44 41 -21 c23 -11 57 -35 76 -54 l36 -34 36 37 c31 33 39 52 58
138 20 88 52 175 65 175 2 0 20 -10 38 -22z"/>
</g>
</svg>
