<?xml version="1.0" standalone="no"?>
<!DOCTYPE svg PUBLIC "-//W3C//DTD SVG 20010904//EN"
 "http://www.w3.org/TR/2001/REC-SVG-20010904/DTD/svg10.dtd">
<svg version="1.0" xmlns="http://www.w3.org/2000/svg"
 width="3000.000000pt" height="4000.000000pt" viewBox="0 0 3000.000000 4000.000000"
 preserveAspectRatio="xMidYMid meet">
<metadata>
Created by potrace 1.16, written by Peter Selinger 2001-2019
</metadata>
<g transform="translate(0.000000,4000.000000) scale(0.100000,-0.100000)"
fill="#000000" stroke="none">
<path d="M7820 8384 c-30 -31 -75 -67 -100 -80 -101 -54 -106 -60 -176 -199
-39 -77 -72 -127 -110 -166 l-54 -55 25 -24 c22 -20 23 -25 11 -39 -23 -26 -9
-67 27 -82 18 -8 48 -27 67 -45 19 -17 63 -47 96 -67 l62 -35 27 28 28 29 41
-21 c22 -11 57 -35 76 -54 l36 -34 36 37 c31 33 39 52 58 138 20 88 52 175 65
175 2 0 20 -10 38 -22 19 -13 49 -31 66 -40 21 -12 39 -35 55 -72 14 -31 26
-56 28 -56 2 0 36 11 76 25 41 14 80 25 88 25 22 0 87 -35 108 -59 18 -20 18
-22 -4 -99 l-22 -78 27 -54 c15 -30 48 -76 73 -102 l46 -48 -28 -29 -28 -30
68 -34 c94 -48 98 -57 69 -148 l-23 -73 69 -75 c38 -41 69 -78 69 -81 0 -4 -9
-15 -19 -24 -19 -17 -19 -19 11 -108 17 -49 43 -104 58 -122 15 -17 37 -50 48
-73 l21 -41 -23 -122 c-20 -106 -27 -125 -54 -153 l-31 -32 24 -31 24 -31 -42
-40 c-25 -25 -62 -47 -93 -57 -58 -19 -73 -44 -43 -72 13 -12 30 -15 61 -12
33 4 56 -2 100 -23 31 -16 60 -34 63 -40 4 -6 -5 -23 -19 -38 -14 -15 -26 -29
-26 -32 0 -3 23 -16 50 -29 28 -13 50 -27 50 -32 0 -4 -21 -50 -47 -103 l-47
-94 22 -24 22 -23 -25 -24 -25 -24 27 -28 27 -28 -21 -22 c-11 -13 -31 -43
-43 -68 -12 -25 -50 -73 -83 -107 l-61 -63 57 -58 c48 -49 61 -70 83 -137 15
-44 35 -89 46 -101 17 -19 17 -22 2 -34 -8 -8 -31 -44 -49 -80 l-34 -67 27
-26 27 -27 -47 -94 c-43 -87 -51 -96 -99 -123 -49 -26 -54 -32 -74 -93 l-21
-64 27 -16 c15 -8 64 -34 109 -58 l83 -43 31 29 c17 17 54 41 81 55 72 36 109
80 135 162 12 39 31 79 41 90 19 19 19 19 68 -29 l48 -48 104 52 c72 36 121
68 160 106 l56 55 124 -21 c68 -11 195 -35 282 -52 l158 -31 34 34 c20 20 66
100 110 189 42 85 90 169 107 186 l30 32 -27 53 c-15 30 -38 66 -52 80 l-25
27 25 49 c39 77 49 81 111 51 l52 -26 37 41 c20 22 37 44 37 48 0 5 22 52 49
106 49 97 49 98 30 119 -24 26 -24 36 1 59 19 17 19 18 -14 84 -19 36 -44 75
-56 86 -12 11 -33 43 -47 70 -14 28 -41 67 -61 87 l-36 38 -26 -25 -26 -25
-38 39 -38 38 25 49 c13 27 34 81 47 119 12 39 35 84 50 100 15 17 51 76 79
132 47 94 55 105 99 127 72 37 106 80 137 175 l27 83 -50 52 -50 51 25 54 c13
29 22 55 21 56 -2 1 -30 16 -63 33 -33 17 -79 50 -103 75 -36 37 -47 57 -63
121 -11 42 -17 81 -14 86 16 26 -53 96 -135 139 -30 16 -64 39 -75 51 -11 12
-67 46 -125 75 -75 38 -119 68 -155 105 -27 28 -72 63 -100 77 -27 14 -64 38
-80 54 -28 26 -44 31 -205 55 -162 24 -177 28 -205 55 -17 16 -34 29 -38 29
-5 0 -18 -12 -31 -26 l-22 -26 -45 22 c-24 13 -107 36 -184 52 l-139 28 -36
-34 c-19 -19 -55 -44 -80 -56 -25 -12 -54 -31 -66 -42 -21 -19 -21 -19 -53 18
l-32 36 25 27 26 27 -120 119 -120 120 -59 -59 c-59 -59 -60 -59 -66 -33 -4
14 -15 33 -26 43 -19 17 -19 18 8 46 14 15 25 30 22 32 -2 2 -29 16 -59 31
-34 16 -89 60 -142 113 l-88 87 -27 -27 -26 -27 -41 21 c-23 11 -57 35 -76 54
l-36 34 -54 -56z m73 -32 c9 -10 44 -31 77 -47 l60 -29 26 25 25 24 72 -76
c40 -42 87 -81 105 -89 37 -15 39 -21 12 -45 -21 -19 -20 -19 14 -54 40 -42
54 -84 36 -107 -11 -12 -8 -20 20 -49 27 -28 36 -32 50 -23 14 9 16 17 9 41
-7 26 -3 35 38 83 25 30 49 54 53 54 5 0 45 -39 89 -87 l81 -87 -25 -26 -25
-26 70 -69 70 -69 37 36 c21 20 58 46 83 58 25 12 57 33 71 46 l26 25 120 -26
c75 -16 140 -36 175 -55 l55 -30 23 25 24 25 22 -21 c18 -17 55 -25 201 -46
163 -23 180 -28 208 -53 17 -15 53 -39 80 -53 28 -14 73 -49 100 -77 36 -37
80 -67 155 -105 58 -29 114 -63 125 -75 11 -12 41 -33 66 -46 90 -45 103 -62
129 -176 23 -99 27 -105 80 -162 30 -32 73 -67 95 -78 22 -11 41 -22 43 -23 2
-2 -6 -21 -17 -44 -12 -22 -21 -46 -21 -53 0 -8 22 -35 49 -62 l48 -47 -20
-67 c-24 -81 -44 -105 -119 -143 -56 -28 -59 -32 -102 -124 -25 -53 -60 -113
-78 -134 -20 -24 -43 -69 -57 -113 -13 -40 -36 -99 -52 -130 -16 -32 -29 -63
-29 -70 0 -15 110 -128 124 -128 5 0 20 9 32 21 12 12 27 18 34 14 6 -3 26
-37 44 -73 19 -37 45 -77 59 -90 13 -13 33 -41 42 -63 l19 -40 -27 -27 -27
-26 27 -28 27 -28 -49 -101 c-67 -134 -70 -137 -133 -105 l-50 25 -39 -42
c-21 -23 -49 -66 -62 -95 l-25 -52 31 -33 c33 -34 63 -87 63 -110 0 -8 -7 -21
-16 -28 -9 -7 -53 -88 -99 -179 -46 -91 -91 -172 -100 -180 -14 -12 -32 -11
-125 9 -60 12 -187 35 -282 51 l-172 29 -66 -62 c-44 -42 -91 -75 -148 -102
l-82 -39 -55 54 -55 54 -35 -34 c-25 -24 -42 -56 -61 -114 -32 -97 -40 -107
-120 -152 -34 -19 -68 -41 -74 -49 -7 -8 -19 -15 -28 -15 -12 0 -136 62 -150
75 -2 2 2 21 9 43 10 34 19 43 61 63 52 24 59 33 139 201 l28 58 -25 29 -25
30 20 38 c10 21 33 51 50 67 17 17 31 35 31 41 0 6 -13 24 -30 40 -19 18 -39
55 -55 105 -20 60 -35 86 -70 120 l-45 44 44 46 c24 25 56 70 71 100 15 30 41
70 58 87 l31 33 -24 25 -23 25 23 25 24 25 -28 29 -27 29 50 101 c28 55 51
104 51 109 0 5 -18 18 -40 31 -45 25 -46 27 -23 53 16 17 15 20 -18 54 -19 20
-56 47 -84 61 -27 14 -52 27 -54 29 -3 3 24 34 59 69 l64 65 -23 24 -23 24 20
29 c13 18 28 73 42 153 13 69 24 133 26 143 1 9 -1 17 -5 17 -5 0 -18 21 -29
48 -11 26 -32 58 -46 71 -15 14 -35 54 -48 93 l-22 68 29 30 29 30 -81 83 -80
82 25 77 26 78 -30 31 c-16 17 -46 40 -66 50 -43 22 -44 25 -21 51 15 17 13
21 -43 81 -33 34 -68 81 -79 105 l-19 44 27 81 27 81 -31 32 c-16 17 -57 44
-89 59 l-60 29 -71 -23 c-39 -12 -72 -21 -74 -19 -1 1 -12 22 -24 45 -16 33
-34 49 -74 69 -28 14 -69 42 -89 61 l-36 36 -35 -69 c-19 -38 -38 -83 -41
-101 -4 -17 -13 -37 -21 -43 -9 -7 -13 -30 -13 -61 1 -38 -3 -55 -19 -71 l-21
-21 -30 22 c-17 11 -37 21 -46 21 -8 0 -19 6 -23 13 -4 7 -19 21 -33 30 -23
16 -25 16 -52 -10 -25 -24 -29 -25 -59 -13 -18 8 -51 30 -74 50 -23 20 -56 42
-74 50 l-32 13 22 23 22 24 -21 23 c-12 13 -22 28 -22 33 0 5 20 29 44 53 28
28 59 75 87 134 58 125 72 143 137 176 32 16 77 50 102 75 24 25 47 46 51 46
3 0 13 -8 22 -18z"/>
</g>
</svg>
