<?xml version="1.0" standalone="no"?>
<!DOCTYPE svg PUBLIC "-//W3C//DTD SVG 20010904//EN"
 "http://www.w3.org/TR/2001/REC-SVG-20010904/DTD/svg10.dtd">
<svg version="1.0" xmlns="http://www.w3.org/2000/svg"
 width="3000.000000pt" height="4000.000000pt" viewBox="0 0 3000.000000 4000.000000"
 preserveAspectRatio="xMidYMid meet">
<metadata>
Created by potrace 1.16, written by Peter Selinger 2001-2019
</metadata>
<g transform="translate(0.000000,4000.000000) scale(0.100000,-0.100000)"
fill="#000000" stroke="none">
<path d="M3425 5734 c-16 -9 -130 -116 -252 -237 l-223 -221 27 -28 27 -28
-21 -22 c-11 -13 -32 -45 -46 -73 -14 -27 -44 -68 -66 -89 l-41 -40 -24 23
-24 22 -68 -34 c-38 -19 -98 -44 -134 -56 -60 -19 -75 -31 -179 -135 l-113
-113 30 -59 c18 -37 38 -104 52 -181 24 -121 24 -122 4 -165 -10 -24 -34 -60
-52 -80 l-33 -37 26 -52 27 -52 -94 -94 c-58 -59 -114 -105 -148 -123 -65 -34
-109 -78 -142 -142 -15 -32 -104 -131 -260 -292 l-237 -243 30 -29 c17 -16 42
-50 55 -76 l24 -48 -24 -47 c-13 -27 -60 -83 -104 -127 l-80 -78 26 -79 26
-79 -29 -30 -29 -31 133 -133 133 -133 -25 -49 c-13 -27 -34 -80 -47 -119 -13
-38 -36 -97 -52 -129 -25 -49 -28 -63 -19 -83 18 -39 13 -42 -39 -25 -49 16
-50 16 -110 -13 -74 -35 -165 -128 -199 -201 l-23 -52 25 -76 26 -77 -20 -45
c-26 -63 -18 -85 45 -118 l52 -27 74 26 c41 15 99 39 128 53 l52 26 82 -27 81
-26 243 247 242 247 -22 30 c-13 17 -48 44 -80 61 -31 17 -66 40 -77 50 -19
20 -19 20 6 44 l25 24 -56 57 -56 56 18 34 c9 19 50 71 91 116 l74 82 157 52
c152 50 159 53 217 109 49 47 73 62 130 80 39 12 81 33 94 45 l23 23 74 -25
74 -25 78 26 77 26 145 -48 c80 -27 168 -61 197 -75 l51 -26 51 -154 c48 -144
54 -156 101 -202 41 -40 54 -63 76 -129 34 -102 68 -173 104 -211 16 -17 39
-65 54 -111 34 -102 58 -126 168 -163 l85 -29 111 112 c62 63 120 131 132 156
12 25 36 59 52 76 23 25 36 56 57 141 16 61 31 114 34 119 3 5 8 25 11 44 3
20 12 64 20 99 14 60 14 70 -10 188 l-25 124 28 32 c15 18 39 56 52 85 l24 52
-21 23 c-12 13 -22 29 -22 36 0 21 31 75 63 109 l31 32 -22 68 c-12 38 -22 73
-22 79 0 5 18 18 40 28 23 10 55 35 73 54 28 31 35 51 52 139 10 56 20 102 22
102 2 0 12 -5 23 -12 17 -11 23 -7 54 27 29 33 39 59 61 149 l26 110 -54 55
c-51 53 -57 64 -101 196 -25 77 -46 149 -46 161 0 37 40 138 65 164 14 14 38
66 55 115 l30 89 -35 36 c-34 35 -40 37 -181 60 -94 15 -154 30 -168 41 l-21
17 24 26 24 26 -23 25 -24 25 27 28 27 28 -24 23 c-29 27 -25 41 37 134 21 32
37 60 35 61 -1 1 -45 17 -97 35 l-93 33 -57 -55 c-51 -51 -63 -57 -140 -77
-46 -12 -87 -18 -91 -13 -4 4 -15 32 -25 62 l-17 53 77 78 77 78 -28 86 c-25
76 -34 92 -88 145 -52 50 -73 63 -140 85 l-79 26 -78 -20 c-42 -11 -84 -22
-92 -25 -10 -4 -14 4 -15 31 -1 21 -11 49 -25 68 -13 17 -36 55 -51 84 -24 47
-30 52 -59 52 -17 -1 -45 -8 -62 -16z m109 -112 l44 -87 -24 -47 -24 -47 21
-12 c18 -9 25 -7 48 14 17 16 56 32 118 47 l93 22 74 -27 c99 -36 155 -93 186
-189 l22 -68 -77 -78 -78 -78 22 -72 c12 -39 26 -82 31 -95 l9 -23 118 29
c114 29 120 31 166 79 l47 49 43 -15 c23 -8 48 -16 55 -19 8 -3 -2 -27 -33
-75 -25 -39 -45 -73 -45 -77 0 -4 9 -16 20 -28 l20 -21 -25 -24 -25 -24 27
-28 27 -28 -27 -28 -27 -28 36 -35 c33 -32 42 -35 191 -61 113 -19 161 -31
174 -45 19 -18 19 -20 -2 -83 -12 -36 -34 -78 -49 -95 -17 -18 -39 -65 -55
-116 l-28 -85 53 -160 c49 -149 56 -162 103 -211 l50 -51 -23 -94 c-13 -51
-30 -101 -38 -111 -15 -17 -17 -16 -48 14 -39 38 -33 49 -68 -130 -16 -84 -32
-142 -43 -154 -10 -10 -45 -33 -78 -49 -33 -17 -61 -31 -62 -32 -2 -2 9 -37
23 -79 l26 -76 -25 -33 c-14 -18 -37 -57 -52 -87 l-27 -53 27 -28 c26 -27 26
-28 10 -61 -10 -19 -33 -53 -51 -76 l-34 -41 26 -129 27 -128 -49 -200 c-39
-158 -54 -206 -75 -230 -15 -16 -39 -55 -54 -85 -17 -35 -62 -90 -122 -151
l-95 -97 -62 20 c-84 28 -117 62 -145 151 -13 40 -35 85 -51 102 -36 39 -66
99 -102 205 -23 70 -37 94 -78 135 -47 48 -53 61 -103 210 l-54 160 -43 24
c-24 13 -120 51 -213 83 l-170 59 -79 -27 -78 -26 -81 27 -81 27 -32 -31 c-19
-19 -61 -41 -106 -56 -60 -20 -86 -36 -130 -79 -52 -51 -63 -56 -200 -101
l-145 -47 -86 -85 c-59 -58 -95 -103 -114 -143 l-28 -59 47 -52 47 -52 -26
-27 -25 -26 35 -34 c19 -19 61 -48 92 -64 98 -53 105 -39 -139 -283 l-217
-217 -76 24 -76 24 -57 -28 c-31 -16 -88 -39 -125 -52 -65 -22 -70 -22 -103
-7 -40 19 -40 22 -14 72 l19 39 -26 77 -25 77 23 49 c26 56 128 158 178 179
30 12 41 11 120 -15 47 -15 92 -30 99 -33 8 -3 -2 27 -23 68 l-37 73 30 66
c17 36 35 84 42 106 6 22 28 75 48 118 l35 77 -121 124 c-67 68 -122 128 -122
134 0 5 9 17 19 26 18 17 18 19 -7 97 l-26 79 71 73 c44 44 83 96 102 135 l31
62 -29 58 c-16 32 -36 64 -45 71 -9 8 -16 18 -16 25 0 6 100 111 222 233 182
182 228 234 257 289 32 61 43 73 101 106 41 24 105 77 174 147 l110 110 -23
50 -24 49 26 34 c14 18 35 56 47 85 l22 51 -27 134 c-15 73 -36 150 -46 170
-10 21 -19 43 -19 50 0 8 42 55 93 105 87 88 97 94 177 122 47 15 99 37 117
47 l32 19 31 -30 30 -29 56 54 c31 31 70 83 89 120 18 36 47 78 64 94 l31 30
-24 25 -25 26 197 202 c172 176 234 231 264 233 4 0 28 -39 52 -88z"/>
</g>
</svg>
