<?xml version="1.0" standalone="no"?>
<!DOCTYPE svg PUBLIC "-//W3C//DTD SVG 20010904//EN"
 "http://www.w3.org/TR/2001/REC-SVG-20010904/DTD/svg10.dtd">
<svg version="1.0" xmlns="http://www.w3.org/2000/svg"
 width="3000.000000pt" height="4000.000000pt" viewBox="0 0 3000.000000 4000.000000"
 preserveAspectRatio="xMidYMid meet">
<metadata>
Created by potrace 1.16, written by Peter Selinger 2001-2019
</metadata>
<g transform="translate(0.000000,4000.000000) scale(0.100000,-0.100000)"
fill="#000000" stroke="none">
<path d="M8739 3264 l-107 -106 -121 26 -122 26 -47 -24 -47 -25 -51 55 c-60
65 -94 72 -114 24 -7 -17 -21 -42 -32 -55 l-19 -25 -42 22 c-38 19 -243 78
-272 78 -8 0 -23 -43 -40 -110 l-27 -109 -77 -78 c-42 -43 -117 -119 -165
-170 l-89 -92 24 -20 c38 -32 77 -45 92 -32 11 9 18 -30 36 -219 l22 -230 -21
-48 c-12 -27 -37 -64 -56 -83 l-34 -33 52 -53 52 -53 -23 -24 -24 -25 32 -40
c41 -52 76 -80 135 -111 44 -23 52 -34 98 -125 27 -55 62 -112 76 -128 14 -15
40 -53 57 -84 29 -55 32 -57 106 -82 42 -15 91 -39 110 -56 20 -18 65 -40 112
-54 l78 -25 22 22 21 22 53 -52 53 -52 25 24 25 24 35 -34 c34 -33 35 -34 16
-54 -10 -12 -42 -68 -71 -126 -29 -58 -67 -121 -86 -141 l-34 -35 52 -24 c69
-32 211 -168 245 -235 14 -27 39 -88 54 -134 16 -47 38 -95 50 -107 l21 -23
-26 -77 -26 -78 32 -33 c38 -39 44 -40 103 -11 l45 22 38 -37 c45 -44 87 -49
119 -14 12 12 42 65 68 117 29 58 71 121 108 163 l61 68 -86 87 c-47 48 -96
107 -108 132 -12 25 -32 55 -43 68 l-21 22 48 49 48 49 -25 80 -24 80 50 49
c27 26 58 68 69 93 11 25 36 61 55 81 l35 36 -27 54 -27 53 91 89 c50 48 91
91 91 94 0 3 -63 69 -140 147 l-140 142 24 24 25 23 -29 56 -28 57 26 107 26
107 -22 22 -22 22 52 53 52 53 -24 25 -23 25 23 25 24 25 -28 29 -27 28 24 55
25 56 -25 24 -25 25 26 50 25 50 -42 40 c-23 23 -65 52 -93 66 -80 40 -78 31
-49 238 l25 184 -65 64 -64 65 -26 -24 -25 -23 -23 21 c-13 12 -25 22 -28 22
-2 0 -52 -48 -110 -106z m268 -216 l-26 -183 32 -33 c18 -19 57 -47 88 -62 84
-43 88 -51 57 -114 l-26 -53 25 -25 25 -25 -26 -50 -25 -50 25 -24 24 -23 -27
-28 -27 -28 27 -27 27 -27 -52 -53 -52 -53 28 -29 28 -30 -22 -101 -23 -101
21 -45 22 -45 -25 -33 -25 -32 135 -141 c74 -78 135 -145 135 -149 0 -5 -37
-46 -82 -91 l-82 -82 24 -51 23 -50 -20 -23 c-12 -12 -33 -47 -48 -77 -15 -30
-51 -80 -81 -110 l-54 -56 26 -78 26 -78 -53 -54 -53 -54 31 -32 c17 -18 45
-60 61 -93 18 -36 57 -86 96 -125 l66 -64 -44 -46 c-27 -28 -65 -88 -100 -158
-31 -62 -64 -116 -72 -119 -10 -4 -33 11 -63 41 l-48 48 -50 -26 c-38 -19 -53
-22 -62 -13 -16 16 -14 31 11 109 l22 68 -31 32 c-19 20 -39 58 -51 98 -40
130 -77 192 -165 276 -45 43 -97 87 -116 97 -31 16 -32 19 -18 35 8 9 38 63
66 119 28 56 65 118 82 138 l32 36 -66 67 -66 66 -26 -24 -25 -24 -50 49 -50
49 -29 -28 -29 -28 -69 22 c-37 12 -81 34 -96 49 -15 14 -60 37 -100 51 -67
23 -74 29 -98 72 -14 27 -37 60 -51 75 -14 16 -51 78 -81 138 -53 106 -57 112
-105 134 -28 13 -70 43 -93 67 l-43 44 24 25 23 25 -46 49 c-52 55 -54 62 -31
82 9 7 28 38 44 68 l28 56 -29 285 c-15 157 -28 287 -29 290 0 2 -17 -13 -39
-34 -26 -25 -41 -34 -46 -26 -4 7 34 53 99 119 58 60 106 113 106 120 0 6 6
11 13 11 7 0 27 15 44 33 25 25 37 52 54 122 12 50 25 93 28 97 10 11 186 -39
241 -70 l50 -27 46 48 46 48 55 -47 55 -47 55 27 55 27 130 -26 131 -27 98 98
98 98 26 -24 26 -24 27 27 27 27 39 -39 40 -40 -27 -183z"/>
</g>
</svg>
