<?xml version="1.0" standalone="no"?>
<!DOCTYPE svg PUBLIC "-//W3C//DTD SVG 20010904//EN"
 "http://www.w3.org/TR/2001/REC-SVG-20010904/DTD/svg10.dtd">
<svg version="1.0" xmlns="http://www.w3.org/2000/svg"
 width="3000.000000pt" height="4000.000000pt" viewBox="0 0 3000.000000 4000.000000"
 preserveAspectRatio="xMidYMid meet">
<metadata>
Created by potrace 1.16, written by Peter Selinger 2001-2019
</metadata>
<g transform="translate(0.000000,4000.000000) scale(0.100000,-0.100000)"
fill="#000000" stroke="none">
<path d="M7370 3418 c-11 -18 -34 -74 -50 -125 -30 -88 -35 -95 -128 -193
l-97 -101 -95 -24 -95 -24 -25 23 c-14 13 -45 34 -70 46 -25 12 -59 36 -76 52
-25 23 -56 36 -145 58 l-113 29 -41 -37 c-22 -20 -64 -48 -93 -61 l-52 -25 30
-31 30 -31 -93 -92 -94 -93 -99 -25 -99 -25 -85 -84 c-47 -46 -103 -92 -125
-103 -40 -20 -40 -20 -80 0 -22 11 -68 48 -103 81 l-62 62 -88 -87 c-51 -50
-109 -97 -139 -112 -45 -22 -57 -35 -82 -84 -43 -85 -49 -89 -124 -66 -38 11
-77 32 -100 53 l-38 34 -87 -85 c-48 -47 -106 -95 -128 -107 l-42 -20 -53 56
-53 56 -37 -44 c-21 -24 -45 -60 -55 -81 l-16 -36 -41 18 c-22 10 -45 16 -52
14 -6 -3 -25 -60 -41 -127 -21 -90 -36 -130 -55 -152 -15 -16 -39 -55 -54 -85
-17 -35 -62 -90 -122 -151 l-95 -97 -62 20 c-84 28 -117 62 -145 151 -13 40
-35 85 -51 102 -36 39 -66 99 -102 205 -23 70 -37 94 -78 135 -47 47 -53 61
-103 210 -29 87 -60 163 -69 168 -8 6 -30 7 -50 3 -34 -6 -35 -8 -53 -84 -16
-68 -24 -84 -71 -135 -30 -32 -54 -63 -54 -70 0 -7 12 -47 26 -89 23 -71 33
-86 121 -178 l96 -101 -21 -22 c-22 -25 -71 -170 -97 -292 -11 -51 -26 -89
-40 -105 -32 -35 -26 -61 30 -121 40 -43 60 -55 124 -76 42 -14 85 -34 96 -44
19 -18 19 -19 -4 -91 -14 -46 -35 -85 -54 -105 l-31 -33 30 -31 c16 -17 59
-46 95 -64 l66 -34 21 21 20 21 23 -44 c12 -24 53 -76 91 -115 l69 -72 -25
-50 -25 -49 26 -24 c14 -13 51 -76 83 -139 65 -129 123 -194 223 -250 l58 -32
29 27 28 27 49 -26 50 -25 28 29 c18 19 56 39 105 55 47 16 87 36 104 54 17
17 54 36 100 51 l73 23 79 -27 79 -26 125 125 126 126 24 -26 c13 -14 26 -25
30 -25 3 0 19 27 35 60 16 33 39 69 51 81 l22 20 38 -19 c22 -11 52 -34 68
-51 35 -37 43 -38 73 -9 l24 22 77 -76 c42 -42 100 -87 128 -101 l51 -26 24
25 25 24 48 -49 49 -50 50 25 50 26 36 -36 37 -36 29 150 c23 117 34 155 51
171 12 11 65 31 126 47 127 33 142 47 219 204 l53 107 -23 25 c-13 13 -20 29
-16 35 3 7 32 24 63 40 36 18 89 62 141 114 l84 85 27 164 28 163 -59 115
c-33 63 -65 123 -71 132 -17 24 -6 32 92 68 l85 31 156 162 c115 119 164 177
185 219 l28 58 -24 25 -24 25 200 200 c109 110 203 209 208 220 5 11 13 20 18
20 4 0 8 9 8 19 0 25 -30 48 -118 90 -71 34 -72 35 -92 95 -25 75 -25 85 2
140 19 40 20 48 8 90 -20 72 -67 88 -100 34z m42 -125 l-26 -53 28 -88 29 -89
83 -41 c48 -24 84 -48 84 -56 0 -8 -99 -116 -220 -239 l-219 -224 29 -28 29
-28 -24 -46 c-14 -28 -83 -105 -177 -198 -149 -148 -155 -152 -225 -174 -54
-17 -82 -33 -110 -61 l-37 -38 36 -37 c20 -21 57 -80 83 -132 l46 -93 -25
-151 -25 -151 -68 -69 c-37 -37 -95 -84 -128 -102 -33 -19 -75 -49 -93 -68
l-32 -33 29 -28 30 -29 -49 -96 c-26 -53 -59 -106 -71 -117 -14 -13 -64 -32
-123 -47 -126 -33 -158 -60 -176 -150 -31 -159 -31 -160 -47 -144 -14 14 -21
13 -69 -11 l-54 -26 -54 53 -55 54 -23 -28 -24 -27 -50 25 c-27 14 -85 62
-129 106 l-79 81 -27 -26 c-24 -22 -27 -23 -39 -9 -8 9 -44 32 -81 50 l-66 34
-30 -32 c-17 -18 -39 -48 -48 -67 -24 -47 -22 -46 -48 -22 l-23 22 -132 -134
-132 -133 -76 25 -76 24 -76 -27 c-42 -15 -90 -39 -107 -55 -16 -15 -61 -38
-100 -50 -38 -12 -82 -34 -98 -48 l-27 -26 -54 26 -53 26 -25 -25 -25 -25 -50
26 c-67 34 -130 109 -188 226 -26 52 -57 105 -68 118 l-21 22 26 54 26 53 -80
79 c-55 55 -90 100 -115 148 l-34 68 -34 -32 c-36 -35 -44 -34 -113 17 l-33
25 20 22 c21 22 71 154 71 186 0 30 -63 77 -135 100 -50 17 -82 35 -115 66
-44 41 -44 43 -26 62 10 11 29 65 42 119 44 174 82 277 114 308 l30 29 -113
115 c-104 106 -115 121 -132 178 l-18 63 49 52 c44 47 52 63 68 131 11 48 22
77 29 74 7 -2 36 -73 65 -158 49 -142 56 -158 102 -204 41 -41 55 -66 78 -135
36 -106 66 -166 102 -205 16 -17 39 -65 54 -111 34 -102 58 -126 168 -163 l85
-29 111 112 c62 63 120 131 132 156 12 25 36 59 52 76 23 25 36 56 58 144 15
61 30 114 33 116 3 3 23 -4 44 -15 l40 -20 28 60 c16 33 37 67 47 76 18 16 21
14 68 -32 l49 -49 53 24 c31 15 85 55 130 99 74 71 79 73 96 58 10 -10 59 -31
108 -47 l88 -30 28 28 c15 15 41 52 56 82 22 43 39 61 76 81 26 14 80 58 120
98 l72 71 44 -46 c25 -25 71 -59 103 -75 l57 -29 53 26 c29 14 89 62 137 109
l85 83 95 22 95 22 117 116 117 115 -20 26 -20 25 43 22 c24 12 51 31 61 42
18 20 18 20 109 -3 59 -16 99 -32 117 -48 14 -14 46 -35 71 -47 25 -12 61 -38
81 -57 l36 -34 109 27 109 27 111 109 c98 97 113 116 128 166 10 31 30 84 44
116 l26 59 12 -28 c10 -25 8 -36 -14 -82z"/>
</g>
</svg>
