<?xml version="1.0" standalone="no"?>
<!DOCTYPE svg PUBLIC "-//W3C//DTD SVG 20010904//EN"
 "http://www.w3.org/TR/2001/REC-SVG-20010904/DTD/svg10.dtd">
<svg version="1.0" xmlns="http://www.w3.org/2000/svg"
 width="3000.000000pt" height="4000.000000pt" viewBox="0 0 3000.000000 4000.000000"
 preserveAspectRatio="xMidYMid meet">
<metadata>
Created by potrace 1.16, written by Peter Selinger 2001-2019
</metadata>
<g transform="translate(0.000000,4000.000000) scale(0.100000,-0.100000)"
fill="#000000" stroke="none">
<path d="M6318 6144 c-3 -5 -17 -46 -32 -90 l-27 -81 -97 -21 c-158 -34 -190
-43 -201 -56 -15 -18 83 -312 115 -347 l24 -25 -26 -183 -26 -182 84 -87 c46
-48 92 -106 102 -128 17 -40 17 -42 -3 -83 -17 -31 -35 -48 -79 -70 -38 -19
-75 -49 -107 -86 l-48 -57 25 -51 25 -52 -25 -52 -26 -53 29 -89 28 -89 51
-23 c31 -15 88 -59 146 -114 52 -50 114 -99 137 -109 41 -18 43 -18 132 4 106
26 124 23 238 -33 l83 -41 104 25 103 26 54 -27 53 -27 80 38 c45 21 103 44
129 51 46 12 49 12 66 -11 10 -13 29 -57 42 -98 12 -40 29 -79 36 -85 20 -17
16 -24 -27 -43 -33 -15 -41 -24 -46 -54 -3 -20 -15 -78 -25 -130 -21 -103 -24
-162 -9 -177 5 -5 16 -27 23 -49 13 -37 13 -43 -11 -92 l-26 -53 29 -89 28
-89 70 -33 c39 -19 82 -44 95 -56 60 -55 120 -4 153 132 12 50 25 93 28 97 10
12 187 -40 240 -70 l50 -27 35 34 c19 18 40 48 47 65 7 17 19 35 26 39 7 4 13
13 13 20 0 6 14 26 32 44 l32 33 -31 33 c-19 20 -40 59 -54 104 -23 72 -23 72
-3 115 33 75 97 133 220 198 l113 61 27 82 c33 102 58 152 96 196 33 38 51 75
68 142 11 42 17 49 62 70 52 25 58 33 139 201 l28 58 -25 29 -25 30 20 38 c10
21 33 51 50 67 17 17 31 35 31 41 0 6 -13 24 -30 40 -19 18 -39 55 -55 105
-20 60 -35 86 -70 120 l-45 44 44 46 c24 25 56 70 71 100 15 30 41 70 58 87
l31 33 -24 25 -23 25 23 25 24 25 -28 29 -27 29 50 101 c28 55 51 104 51 109
0 5 -18 18 -40 31 -45 25 -46 27 -23 53 16 17 15 20 -18 54 -19 20 -56 47 -84
61 -43 22 -58 25 -118 20 l-69 -6 -44 41 c-24 22 -46 39 -48 37 -2 -2 -17 -31
-34 -65 -41 -81 -57 -94 -84 -66 l-21 21 -66 -34 c-36 -18 -75 -43 -86 -55
-11 -12 -47 -36 -80 -52 -33 -17 -62 -32 -64 -34 -3 -2 8 -17 23 -33 23 -24
25 -29 12 -40 -13 -11 -27 -9 -78 8 -56 19 -75 34 -175 133 l-112 112 -43 -40
c-24 -22 -58 -46 -76 -53 -34 -14 -34 -14 -84 37 l-51 51 -69 -35 -68 -34 29
-59 30 -59 -20 -83 c-11 -46 -21 -85 -24 -87 -9 -9 -134 40 -153 61 -22 24
-56 127 -92 277 -13 52 -38 125 -57 163 l-33 67 -63 -31 c-78 -39 -103 -62
-133 -121 -13 -27 -29 -48 -34 -48 -24 0 -178 85 -210 116 l-36 34 -53 -54
-54 -55 -31 16 c-17 8 -63 47 -102 85 -39 39 -74 66 -76 62z m791 -103 c11
-21 32 -85 46 -142 71 -284 93 -318 233 -364 46 -15 85 -25 87 -23 2 2 17 55
33 119 l29 116 -23 45 -22 44 34 19 35 19 54 -54 53 -53 59 33 c32 18 66 39
76 48 17 15 24 9 115 -80 91 -90 102 -97 183 -126 l86 -31 38 39 c37 37 38 40
22 58 -25 27 -21 37 22 57 22 10 50 29 63 42 13 14 40 34 62 45 l38 20 29 -28
29 -28 33 32 c18 18 37 32 43 32 10 0 40 60 36 75 -1 6 5 1 13 -9 8 -11 15
-26 15 -33 0 -16 18 -16 99 2 64 13 65 13 122 -16 32 -16 61 -34 64 -40 4 -6
-5 -23 -19 -38 -14 -15 -26 -29 -26 -32 0 -3 23 -16 50 -29 28 -13 50 -27 50
-32 0 -4 -21 -50 -47 -103 l-47 -94 22 -24 22 -23 -25 -24 -25 -24 27 -28 27
-28 -21 -22 c-11 -13 -31 -43 -43 -68 -12 -25 -50 -73 -83 -107 l-61 -63 57
-58 c48 -49 61 -70 83 -137 15 -44 35 -89 46 -101 17 -19 17 -22 2 -34 -8 -8
-31 -44 -49 -80 l-34 -67 27 -26 27 -27 -47 -94 c-43 -87 -51 -96 -99 -123
-51 -27 -54 -31 -78 -105 -14 -42 -38 -90 -52 -105 -35 -36 -66 -99 -99 -198
l-26 -80 -97 -50 c-117 -61 -201 -139 -242 -225 l-28 -58 26 -84 c15 -47 36
-93 47 -103 20 -18 20 -19 1 -39 -10 -12 -31 -46 -46 -76 -15 -30 -34 -63 -42
-72 -14 -16 -18 -16 -57 4 -37 19 -242 78 -271 78 -8 0 -23 -43 -40 -109 -17
-69 -34 -116 -46 -127 -19 -17 -23 -16 -109 26 l-89 44 -21 60 c-25 75 -25 85
2 141 l22 45 -26 79 -25 79 24 125 25 124 59 29 59 28 -34 35 c-23 25 -42 62
-60 117 -19 56 -36 90 -59 112 l-33 32 -72 -24 c-39 -14 -99 -37 -132 -52
l-61 -27 -50 23 -50 24 -104 -26 -104 -25 -99 53 -98 53 -103 -26 c-101 -25
-102 -26 -144 -7 -23 10 -82 57 -132 105 -49 48 -109 96 -132 108 -38 19 -44
27 -64 91 l-23 70 26 53 26 53 -25 48 -25 49 44 44 c23 25 68 57 98 73 49 25
59 35 84 89 l30 61 -24 52 c-15 32 -55 85 -104 135 l-79 82 25 183 26 183 -29
31 c-20 21 -43 71 -74 164 -25 73 -44 134 -42 135 1 0 68 14 148 29 l147 29
12 40 c6 23 16 52 21 65 l9 24 48 -43 c26 -24 71 -55 100 -68 l53 -25 49 49
50 49 22 -21 c13 -12 73 -46 134 -76 l111 -56 28 59 c30 63 70 107 120 133 17
9 31 16 32 17 2 0 11 -17 22 -39z"/>
</g>
</svg>
