<?xml version="1.0" standalone="no"?>
<!DOCTYPE svg PUBLIC "-//W3C//DTD SVG 20010904//EN"
 "http://www.w3.org/TR/2001/REC-SVG-20010904/DTD/svg10.dtd">
<svg version="1.0" xmlns="http://www.w3.org/2000/svg"
 width="3000.000000pt" height="4000.000000pt" viewBox="0 0 3000.000000 4000.000000"
 preserveAspectRatio="xMidYMid meet">
<metadata>
Created by potrace 1.16, written by Peter Selinger 2001-2019
</metadata>
<g transform="translate(0.000000,4000.000000) scale(0.100000,-0.100000)"
fill="#000000" stroke="none">
<path d="M12173 9977 c-34 -72 -69 -158 -79 -190 -15 -47 -29 -67 -80 -115
-34 -31 -71 -64 -84 -72 -20 -14 -24 -33 -46 -215 -15 -131 -32 -230 -50 -285
-14 -47 -28 -92 -31 -100 -2 -8 9 -28 26 -44 l30 -28 -27 -54 -26 -54 24 -25
23 -25 -23 -25 -23 -25 23 -25 24 -25 -27 -28 -27 -28 39 -38 c21 -21 47 -55
56 -77 23 -51 11 -80 -73 -177 l-65 -74 56 -56 c45 -47 59 -70 78 -129 l23
-73 -23 -97 c-23 -97 -24 -99 -89 -165 -37 -38 -70 -68 -74 -68 -15 0 -8 24
14 47 l22 23 -29 30 c-16 17 -58 46 -94 66 l-64 35 -37 -36 c-21 -20 -46 -55
-55 -76 -10 -21 -23 -39 -30 -39 -21 0 -119 37 -181 68 l-61 31 -133 -134
-134 -134 73 -67 c46 -43 83 -87 101 -123 15 -31 44 -71 64 -90 l36 -35 25 24
25 23 24 -22 24 -23 46 27 c46 27 71 28 106 6 12 -9 11 -13 -8 -33 l-22 -24
88 -86 c48 -47 110 -97 137 -111 28 -14 72 -48 98 -75 l48 -49 -26 -101 -25
-102 31 -62 c17 -35 33 -64 34 -66 6 -7 111 51 137 76 l28 26 23 -22 c13 -12
51 -31 85 -43 34 -11 62 -23 62 -25 0 -2 -21 -46 -47 -99 l-47 -94 22 -24 c28
-30 28 -39 -5 -99 -23 -41 -25 -51 -12 -59 23 -14 45 -11 142 22 89 31 95 35
195 133 73 72 112 118 134 161 19 37 60 91 111 142 l81 83 -27 141 c-16 77
-38 161 -49 185 l-22 44 23 24 24 25 -26 103 -26 103 41 42 c41 42 41 42 72
26 17 -8 32 -17 34 -18 2 -2 -6 -21 -17 -44 -27 -53 -27 -59 10 -97 l30 -31
117 29 c113 28 118 30 159 76 l42 47 23 -22 c14 -13 61 -31 122 -46 65 -17
107 -34 125 -50 14 -13 52 -38 83 -54 l58 -31 107 28 c172 45 160 39 143 71
-15 27 5 53 128 173 113 110 128 132 105 157 -8 10 -21 41 -28 69 -8 29 -18
56 -22 61 -4 4 -53 19 -108 34 -75 20 -108 34 -131 57 -28 26 -35 28 -54 18
-44 -24 -31 1 40 74 50 52 68 77 59 81 -8 3 -53 18 -101 34 l-86 29 -24 -25
c-20 -22 -68 -53 -82 -53 -12 0 25 83 52 118 16 20 41 72 55 114 l26 78 -24
77 -24 78 26 27 27 28 -24 25 -24 25 52 53 52 53 -29 28 -30 28 27 54 26 54
-26 27 -27 26 23 46 c26 52 84 368 70 381 -5 4 -34 15 -64 25 -30 10 -59 21
-63 25 -11 10 24 79 53 105 27 24 93 152 82 159 -13 8 -96 36 -108 36 -6 0
-16 -19 -23 -42 -7 -24 -20 -51 -29 -61 -15 -16 -17 -16 -39 5 l-23 22 -54
-26 -54 -27 -44 47 c-40 43 -46 57 -72 165 l-28 119 -32 -31 c-31 -30 -32 -30
-51 -12 -11 10 -57 31 -102 45 -103 34 -115 47 -80 84 l27 28 -39 38 -39 38
-84 -27 c-55 -18 -95 -38 -118 -60 -19 -18 -55 -43 -80 -55 -25 -12 -55 -32
-68 -43 l-22 -21 -73 23 c-79 26 -143 55 -170 79 -16 14 -16 17 2 47 l19 33
-42 41 c-23 23 -44 41 -46 41 -3 0 -33 -60 -67 -133z m97 43 c0 -6 -7 -25 -16
-41 -14 -29 -14 -32 3 -51 25 -28 121 -75 223 -109 l84 -29 36 34 c19 19 55
44 80 56 25 12 59 35 75 50 17 15 58 37 92 48 54 18 64 18 74 6 10 -12 7 -19
-11 -39 l-24 -25 34 -35 c23 -24 56 -42 110 -60 54 -18 87 -36 110 -60 30 -31
35 -33 50 -20 9 8 19 15 22 15 2 0 13 -36 23 -79 17 -75 21 -83 80 -141 l62
-62 50 26 50 25 29 -30 28 -29 33 32 c19 18 39 49 45 70 12 39 25 48 34 24 7
-18 -27 -85 -56 -111 -12 -11 -37 -50 -55 -86 l-34 -66 75 -23 c42 -13 78 -28
80 -32 3 -5 -4 -68 -16 -141 -15 -95 -30 -151 -52 -200 l-32 -67 26 -27 27
-26 -25 -50 -25 -49 22 -24 23 -24 -52 -53 -52 -53 27 -26 27 -27 -23 -25 -23
-25 27 -80 27 -81 -22 -67 c-13 -38 -35 -81 -50 -98 -26 -29 -98 -220 -87
-231 8 -8 129 56 159 83 28 26 41 27 104 3 l27 -11 -35 -37 c-29 -30 -118
-186 -118 -207 0 -3 31 12 69 32 l69 38 24 -22 c12 -12 52 -29 88 -38 148 -37
138 -32 165 -85 14 -27 25 -55 25 -62 0 -7 -60 -74 -134 -147 -112 -112 -133
-138 -125 -152 10 -20 17 -17 -125 -53 -56 -14 -61 -14 -100 6 -23 11 -57 35
-76 52 -27 24 -57 36 -135 55 -80 18 -107 30 -133 54 l-32 31 -58 -56 c-54
-54 -62 -58 -150 -80 -84 -20 -94 -21 -108 -6 -14 14 -13 20 11 68 30 60 30
60 -58 101 l-48 23 -63 -63 -63 -62 26 -105 25 -104 -26 -26 -26 -27 28 -62
c26 -58 70 -240 70 -289 0 -13 -27 -48 -71 -91 -39 -39 -83 -95 -99 -125 -18
-36 -65 -91 -132 -156 -91 -90 -110 -104 -167 -123 -36 -11 -69 -21 -73 -21
-5 0 1 19 13 41 l21 41 -26 27 -25 26 49 104 c28 57 50 107 50 110 0 4 -35 18
-77 32 -52 16 -91 35 -116 58 l-38 34 -32 -30 c-18 -17 -51 -40 -73 -51 l-41
-21 -18 39 c-17 38 -17 41 9 146 l27 107 -53 55 c-29 29 -78 66 -108 82 -30
16 -85 59 -123 97 l-68 69 26 24 c14 13 25 27 25 31 0 3 -30 22 -67 42 l-68
35 -49 -25 -48 -25 -29 28 -29 28 -29 -28 -29 -27 -19 28 c-11 15 -26 44 -33
63 -8 19 -42 64 -76 100 l-63 65 102 104 102 103 45 -22 c45 -23 212 -82 216
-77 1 1 15 29 32 63 40 80 53 90 93 73 18 -7 45 -24 61 -37 l29 -25 -25 -26
-26 -27 43 -42 43 -43 87 94 86 94 27 106 26 106 -27 83 c-22 66 -37 93 -73
130 l-46 47 50 53 c27 29 60 77 73 106 l24 52 -24 52 c-13 29 -34 64 -46 79
l-22 26 24 23 25 24 -27 28 -27 28 27 27 27 27 -27 28 -27 28 24 50 24 50 -37
38 c-22 23 -34 42 -28 47 27 30 62 182 80 355 18 166 22 187 42 200 12 8 48
39 80 69 49 45 61 64 80 120 29 88 70 181 80 181 5 0 9 8 9 19 0 10 7 24 15
31 8 7 15 19 15 26 0 8 5 14 10 14 6 0 10 -5 10 -10z"/>
</g>
</svg>
