<?xml version="1.0" standalone="no"?>
<!DOCTYPE svg PUBLIC "-//W3C//DTD SVG 20010904//EN"
 "http://www.w3.org/TR/2001/REC-SVG-20010904/DTD/svg10.dtd">
<svg version="1.0" xmlns="http://www.w3.org/2000/svg"
 width="3000.000000pt" height="4000.000000pt" viewBox="0 0 3000.000000 4000.000000"
 preserveAspectRatio="xMidYMid meet">
<metadata>
Created by potrace 1.16, written by Peter Selinger 2001-2019
</metadata>
<g transform="translate(0.000000,4000.000000) scale(0.100000,-0.100000)"
fill="#000000" stroke="none">
<path d="M13554 14148 c-76 -27 -86 -35 -192 -141 l-112 -113 28 -84 c16 -47
39 -105 51 -129 l23 -43 -28 -29 -28 -29 22 -23 c12 -13 22 -28 22 -33 0 -5
-27 -36 -59 -68 -53 -52 -58 -61 -51 -86 13 -46 30 -73 77 -122 l45 -46 -25
-77 -26 -76 36 -40 36 -40 36 34 c20 19 56 45 81 57 25 12 57 33 71 47 l27 25
48 -25 c60 -30 73 -45 112 -122 44 -87 118 -154 237 -213 136 -68 147 -82 120
-155 -5 -10 11 -18 62 -31 50 -12 76 -25 103 -51 l36 -35 28 29 28 29 146 -49
c112 -37 154 -56 179 -81 l33 -32 25 24 26 24 97 -95 c53 -53 120 -108 147
-124 28 -15 76 -53 108 -83 l57 -57 103 103 103 103 24 -26 24 -26 89 88 c55
55 99 109 117 144 39 76 51 85 92 68 18 -7 52 -31 76 -53 l43 -39 28 27 27 26
32 -39 31 -39 -25 -23 -24 -23 25 -26 25 -26 -22 -21 c-13 -11 -49 -34 -81
-50 l-58 -29 26 -24 c30 -28 31 -41 5 -65 -21 -19 -20 -19 34 -74 30 -31 65
-78 79 -106 l25 -49 -26 -52 -25 -52 58 -66 c32 -36 64 -66 71 -66 7 0 22 12
33 27 l21 26 63 -19 c35 -11 77 -32 97 -50 42 -38 127 -62 159 -44 27 14 27
16 -8 81 -16 30 -34 82 -40 116 -12 61 -11 63 24 134 l36 71 -22 24 -23 24
115 118 c72 75 134 130 169 149 53 29 180 75 246 88 31 6 32 7 43 93 6 48 16
134 23 192 l11 105 -30 60 c-17 33 -41 69 -53 80 -12 11 -35 45 -50 75 -16 30
-42 68 -58 83 l-30 29 -128 -26 c-155 -32 -142 -38 -224 124 -44 87 -72 129
-114 170 l-56 54 -56 -54 c-30 -30 -65 -73 -76 -95 -11 -22 -22 -42 -25 -44
-2 -3 -34 25 -71 60 -67 66 -121 94 -189 101 -26 2 -38 -4 -71 -42 -22 -25
-60 -87 -86 -139 -45 -89 -48 -92 -66 -76 -10 9 -27 37 -38 63 -11 26 -33 58
-47 72 -15 14 -37 48 -49 75 l-22 50 25 77 25 78 -39 40 -39 40 -36 -34 c-23
-22 -59 -41 -105 -56 -65 -21 -78 -30 -175 -126 l-105 -104 -90 25 c-87 24
-91 27 -170 104 -44 43 -100 89 -125 101 -25 12 -70 46 -100 74 -30 29 -77 65
-105 81 -27 15 -88 65 -135 110 -47 45 -109 94 -137 109 l-53 26 -57 -29 c-32
-16 -67 -38 -77 -50 l-19 -21 -56 53 c-31 29 -74 61 -97 70 -29 14 -44 28 -53
52 -12 34 -88 136 -99 134 -4 -1 -43 -15 -88 -31z m98 -45 c9 -10 28 -42 42
-70 22 -45 35 -57 84 -82 31 -16 81 -54 111 -85 l54 -55 36 32 c20 18 55 41
79 51 41 19 43 19 84 0 23 -10 75 -53 117 -97 44 -46 97 -90 126 -104 28 -14
77 -51 110 -83 33 -31 81 -67 105 -80 25 -12 81 -58 126 -102 l81 -79 114 -30
114 -29 106 109 c99 101 110 110 175 131 38 12 82 31 97 42 46 32 52 12 24
-78 l-25 -79 28 -55 c15 -30 38 -64 50 -75 12 -11 37 -49 55 -85 18 -36 49
-80 68 -99 l36 -34 60 119 c33 66 76 136 95 158 l35 38 48 -16 c36 -12 70 -38
135 -103 48 -48 89 -85 92 -82 2 2 17 31 34 64 17 33 49 78 71 100 l41 39 41
-39 c25 -25 62 -81 94 -145 29 -58 68 -120 87 -137 l33 -33 123 26 123 26 26
-23 c14 -13 38 -49 53 -79 15 -30 38 -64 50 -75 12 -11 33 -40 45 -65 l23 -46
-19 -154 c-10 -85 -20 -159 -23 -166 -3 -7 -49 -26 -103 -44 -163 -54 -194
-75 -346 -227 l-138 -139 31 -29 30 -29 -36 -64 c-33 -59 -36 -70 -31 -121 3
-31 17 -78 31 -106 14 -27 26 -53 26 -57 0 -15 -65 13 -85 36 -13 16 -51 34
-107 52 l-87 28 -24 -22 -23 -22 -38 39 -38 39 25 48 24 48 -28 60 c-16 33
-49 80 -74 106 l-45 46 27 27 27 26 -22 24 -22 24 39 18 c22 9 54 32 71 50
l32 33 -23 31 -23 31 24 25 24 26 -67 66 -66 67 -24 -22 -24 -23 -35 23 c-18
13 -55 34 -80 48 l-47 25 -32 -30 c-17 -17 -46 -59 -64 -95 -20 -38 -58 -89
-94 -124 l-61 -60 -23 22 c-13 12 -26 22 -30 22 -4 0 -52 -46 -106 -102 l-100
-103 -53 51 c-29 29 -73 62 -98 74 -29 13 -84 62 -152 133 l-106 112 -29 -27
-28 -27 -26 23 c-14 12 -96 46 -183 75 l-157 53 -23 -21 c-22 -21 -23 -21 -39
-3 -9 10 -42 26 -72 36 -30 9 -55 19 -55 21 0 2 4 15 9 28 8 21 5 29 -22 55
-18 17 -77 54 -132 83 -117 61 -194 130 -235 209 -33 65 -65 96 -141 138 l-56
31 -29 -31 c-16 -16 -51 -41 -79 -55 -27 -14 -60 -34 -72 -45 -23 -21 -43 -17
-43 9 0 9 10 47 22 85 l22 68 -56 58 c-92 94 -92 92 -9 176 l72 72 -26 24 -26
24 25 24 24 24 -38 82 c-22 44 -45 104 -53 132 l-15 51 96 96 c79 78 107 100
152 116 69 25 83 25 102 4z"/>
</g>
</svg>
