<?xml version="1.0" standalone="no"?>
<!DOCTYPE svg PUBLIC "-//W3C//DTD SVG 20010904//EN"
 "http://www.w3.org/TR/2001/REC-SVG-20010904/DTD/svg10.dtd">
<svg version="1.0" xmlns="http://www.w3.org/2000/svg"
 width="3000.000000pt" height="4000.000000pt" viewBox="0 0 3000.000000 4000.000000"
 preserveAspectRatio="xMidYMid meet">
<metadata>
Created by potrace 1.16, written by Peter Selinger 2001-2019
</metadata>
<g transform="translate(0.000000,4000.000000) scale(0.100000,-0.100000)"
fill="#000000" stroke="none">
<path d="M13680 11745 c-90 -46 -113 -75 -145 -178 l-28 -88 23 -24 23 -24
-44 -96 c-29 -64 -58 -110 -87 -137 l-42 -42 -53 52 -53 52 -25 -25 -25 -26
-24 26 -24 25 -57 -56 -57 -56 -153 26 -154 25 -24 -24 -24 -24 -49 25 -48 25
-75 -27 -76 -27 -42 19 c-23 10 -69 44 -102 75 -109 102 -144 104 -170 10 -15
-50 -27 -69 -91 -132 l-73 -73 -65 22 c-79 27 -85 27 -141 0 l-45 -22 -79 26
-79 26 -29 -30 c-15 -16 -53 -43 -83 -58 -56 -28 -56 -29 -80 -107 -19 -61
-35 -89 -71 -128 -46 -50 -69 -105 -44 -105 14 0 125 -116 125 -131 0 -25 49
-5 90 36 l44 45 69 -67 c76 -76 97 -111 138 -230 l27 -81 -29 -28 -29 -28 30
-31 c25 -26 37 -56 65 -161 38 -147 63 -222 94 -282 11 -22 21 -57 21 -76 0
-27 6 -40 24 -51 31 -21 52 -11 123 58 42 41 57 65 74 117 29 88 70 180 80
180 5 0 9 8 9 19 0 10 7 24 15 31 8 7 15 19 15 26 0 8 5 14 10 14 14 0 12 -16
-6 -51 -14 -29 -14 -32 3 -51 25 -28 121 -75 223 -109 l84 -29 36 34 c19 19
55 44 80 56 25 12 59 35 75 50 17 15 58 37 92 48 54 18 64 18 74 6 10 -12 7
-19 -11 -39 l-24 -25 34 -35 c23 -24 56 -42 110 -60 54 -18 87 -36 110 -60 30
-31 35 -33 50 -20 9 8 19 15 22 15 2 0 13 -36 23 -79 17 -75 21 -83 80 -141
l62 -62 50 26 50 25 29 -30 28 -29 32 31 c26 25 81 141 73 151 -9 11 30 52 69
72 26 13 60 37 75 54 31 32 74 117 101 199 17 50 18 52 39 39 12 -8 49 -19 82
-26 33 -6 74 -15 90 -20 17 -5 45 -11 64 -14 21 -3 48 -18 71 -41 l37 -36 31
103 32 102 -22 23 c-27 29 -16 44 63 83 l56 29 27 108 c26 103 30 111 79 160
48 50 54 62 102 205 l50 153 96 50 c113 58 169 104 169 138 0 18 -14 30 -76
60 -96 48 -223 167 -264 247 -30 58 -101 133 -140 145 -21 7 -20 10 30 60 l53
53 -69 35 c-38 18 -112 44 -164 57 -52 13 -99 27 -104 32 -22 18 -63 7 -95
-26 -17 -18 -54 -43 -80 -56 l-49 -22 -65 21 c-53 18 -77 34 -124 81 l-58 59
-65 -34z m105 -74 c40 -39 66 -54 132 -75 l81 -27 59 30 c32 16 71 43 87 59
23 25 32 29 50 22 11 -5 65 -21 120 -35 54 -14 112 -33 128 -41 l31 -16 -53
-53 -53 -53 64 -32 c81 -40 105 -63 136 -125 14 -27 59 -87 101 -133 62 -68
89 -91 155 -123 l80 -41 -21 -21 c-12 -12 -70 -46 -129 -77 l-107 -55 -53
-159 c-49 -149 -55 -162 -105 -215 -50 -53 -55 -62 -77 -154 l-23 -98 -47 -23
c-25 -14 -61 -40 -80 -60 l-35 -36 27 -28 27 -28 -16 -50 c-21 -61 -20 -60
-41 -42 -10 9 -72 26 -138 39 -109 22 -124 27 -161 61 l-40 37 -28 -87 c-33
-99 -86 -211 -112 -233 -9 -8 -42 -27 -72 -44 -54 -29 -56 -32 -81 -106 -14
-42 -32 -84 -40 -93 -13 -15 -16 -15 -38 6 l-23 22 -54 -26 -54 -27 -44 47
c-40 43 -46 57 -72 165 l-28 119 -32 -31 c-31 -30 -32 -30 -51 -12 -11 10 -57
31 -102 45 -103 34 -115 47 -80 84 l27 28 -39 38 -39 38 -84 -27 c-55 -18 -95
-38 -118 -60 -19 -18 -55 -43 -80 -55 -25 -12 -55 -32 -68 -43 l-22 -21 -73
23 c-79 26 -143 55 -170 79 -16 14 -16 17 2 47 l19 33 -45 43 c-30 30 -47 40
-50 31 -3 -7 -29 -62 -58 -121 -29 -59 -63 -140 -76 -179 -19 -60 -32 -81 -81
-129 -56 -55 -58 -56 -58 -30 0 15 -13 53 -29 85 -33 65 -68 174 -101 312 -13
55 -31 104 -43 118 l-20 22 21 23 21 23 -30 93 c-43 136 -69 180 -163 278
l-85 88 -53 -52 -54 -53 -62 63 -62 63 45 44 c35 34 50 60 71 122 25 77 27 79
77 104 29 15 62 35 74 46 l22 20 73 -24 73 -25 53 26 52 25 79 -26 79 -26 81
82 c64 64 84 92 99 135 10 30 24 57 30 59 7 2 40 -23 74 -56 35 -33 87 -72
116 -86 l54 -27 78 26 79 26 44 -25 c54 -32 63 -32 90 0 l22 25 158 -26 157
-27 44 49 45 48 27 -27 28 -28 28 27 28 27 47 -53 46 -53 67 67 c55 55 77 87
120 176 l53 110 -26 27 -27 28 21 65 c24 70 55 111 109 139 19 11 37 19 40 20
2 0 27 -22 55 -49z"/>
</g>
</svg>
