<?xml version="1.0" standalone="no"?>
<!DOCTYPE svg PUBLIC "-//W3C//DTD SVG 20010904//EN"
 "http://www.w3.org/TR/2001/REC-SVG-20010904/DTD/svg10.dtd">
<svg version="1.0" xmlns="http://www.w3.org/2000/svg"
 width="3000.000000pt" height="4000.000000pt" viewBox="0 0 3000.000000 4000.000000"
 preserveAspectRatio="xMidYMid meet">
<metadata>
Created by potrace 1.16, written by Peter Selinger 2001-2019
</metadata>
<g transform="translate(0.000000,4000.000000) scale(0.100000,-0.100000)"
fill="#000000" stroke="none">
<path d="M18322 15364 c-12 -8 -22 -23 -22 -33 0 -32 -53 -68 -142 -97 l-88
-28 30 -31 c17 -17 30 -37 30 -43 0 -27 -34 -79 -86 -133 -30 -30 -67 -82 -83
-116 l-29 -61 33 -32 c18 -17 41 -50 51 -71 l17 -40 -53 -54 -54 -55 22 -23
c12 -13 22 -28 22 -33 0 -18 -74 -82 -125 -107 -27 -14 -67 -43 -88 -64 l-37
-39 25 -24 25 -24 -42 -44 c-24 -24 -68 -56 -98 -72 -30 -15 -67 -41 -82 -57
l-27 -28 29 -115 c26 -105 85 -250 100 -250 4 0 17 23 30 50 13 28 26 50 30
50 3 0 30 -25 60 -55 l54 -55 -23 -24 -24 -25 54 -59 c53 -58 55 -59 81 -45
15 7 36 30 47 51 31 59 119 136 214 187 l88 48 30 -29 29 -28 25 24 25 23 25
-23 25 -24 33 31 c17 17 52 41 76 53 l43 22 27 -25 c14 -14 46 -35 71 -47 76
-38 86 -52 141 -219 49 -148 54 -159 108 -216 40 -43 72 -92 111 -173 l54
-112 56 55 56 56 20 -22 c10 -12 45 -34 77 -50 32 -17 61 -37 64 -45 3 -8 -5
-26 -18 -40 l-23 -25 60 -60 c59 -58 63 -61 160 -85 162 -41 253 -74 269 -97
28 -44 28 -71 0 -97 l-26 -24 60 -60 c71 -74 107 -164 96 -240 -7 -43 -6 -46
20 -56 19 -7 38 -7 66 2 37 11 41 10 70 -18 l31 -29 53 57 53 57 64 -21 c50
-16 76 -33 125 -81 l63 -61 23 22 c27 25 43 28 54 8 4 -7 35 -27 68 -44 39
-20 77 -50 109 -87 l48 -56 29 27 29 28 28 -27 28 -27 24 25 24 25 26 -25 26
-25 24 25 24 25 32 -31 32 -31 27 84 c15 45 29 84 30 86 1 1 26 -6 56 -16 30
-11 59 -17 66 -15 7 2 21 -1 32 -7 18 -9 23 -6 39 27 11 21 27 63 37 93 9 30
31 83 48 117 l31 63 -49 100 c-27 56 -60 111 -73 123 -13 12 -35 45 -49 72
-41 82 -86 121 -173 150 -43 14 -86 36 -97 48 -11 12 -32 59 -47 103 -25 77
-29 82 -69 100 -23 11 -59 34 -79 53 -31 27 -59 38 -150 62 l-113 28 -48 -47
-47 -46 -60 59 -60 59 21 22 21 23 -28 115 -28 115 -110 109 c-95 94 -126 118
-217 166 l-106 56 -23 -25 c-21 -23 -25 -24 -41 -9 -9 8 -29 63 -44 123 -25
103 -29 111 -77 157 -27 27 -62 74 -78 104 -16 31 -60 85 -100 125 -46 45 -83
93 -105 135 -23 45 -58 89 -117 145 -95 92 -148 120 -300 156 l-98 23 -24 -23
c-23 -22 -28 -23 -57 -11 -50 21 -88 58 -116 114 -36 71 -126 166 -188 198
-52 27 -54 29 -79 106 -18 54 -37 89 -59 110 -37 36 -53 39 -85 16z m66 -61
c11 -16 30 -61 43 -102 23 -71 25 -74 79 -101 66 -34 139 -107 174 -175 35
-70 75 -109 144 -144 l59 -30 26 27 27 26 97 -23 c54 -13 118 -34 143 -47 59
-30 201 -176 233 -239 14 -27 58 -81 97 -120 45 -44 83 -93 102 -130 16 -33
52 -83 79 -111 47 -47 51 -56 75 -156 22 -90 30 -110 60 -139 l34 -33 29 28
29 27 98 -49 c86 -44 111 -63 195 -149 l96 -98 23 -93 23 -93 -27 -28 c-14
-15 -26 -31 -26 -37 0 -5 40 -50 90 -99 l90 -89 57 55 58 56 89 -22 c57 -15
97 -32 115 -48 14 -14 49 -36 76 -50 49 -25 52 -28 75 -101 30 -97 68 -135
165 -166 82 -26 108 -47 142 -115 14 -27 40 -68 58 -90 18 -22 51 -79 73 -127
39 -84 39 -87 21 -103 -10 -10 -32 -58 -49 -109 -43 -129 -35 -123 -121 -93
-41 14 -81 28 -89 32 -12 4 -21 -10 -39 -66 l-23 -71 -21 21 -21 21 -26 -25
-26 -25 -24 25 -24 25 -28 -27 -28 -27 -25 24 -25 23 -25 -23 -25 -24 -48 46
c-26 25 -67 56 -92 68 -25 12 -62 38 -82 58 l-38 36 -25 -24 -25 -24 -48 46
c-37 36 -64 51 -130 73 l-84 27 -49 -48 -49 -48 -23 22 c-23 21 -25 22 -67 7
-55 -19 -53 -20 -47 13 10 48 -40 180 -91 240 l-45 53 23 23 22 24 -34 63
c-32 61 -34 63 -103 86 -38 14 -119 37 -179 53 -98 26 -114 34 -153 72 l-43
42 25 26 25 26 -38 35 c-20 20 -59 48 -87 64 -27 15 -65 41 -82 58 l-32 30
-42 -46 c-22 -26 -44 -47 -48 -47 -4 0 -25 37 -46 83 -26 52 -60 104 -96 142
-55 58 -59 66 -104 210 -53 170 -69 193 -170 250 -33 18 -69 43 -79 54 -11 12
-25 21 -33 21 -18 0 -118 -57 -134 -76 -10 -13 -16 -11 -41 13 l-30 28 -23
-30 -24 -29 -26 24 -26 24 -110 -54 c-88 -44 -122 -67 -168 -115 -31 -33 -63
-75 -70 -92 -7 -18 -17 -33 -20 -33 -4 0 -20 13 -36 30 l-29 30 23 24 c29 31
25 39 -82 144 l-83 83 -19 -40 c-10 -23 -21 -41 -26 -41 -10 0 -34 68 -58 162
l-19 77 27 24 c14 14 46 35 71 47 45 22 160 126 160 144 0 5 -10 20 -21 33
-27 28 -19 39 53 78 29 15 81 55 115 88 l62 60 -21 30 -21 29 48 48 47 47 -32
64 c-18 35 -41 74 -52 85 -19 22 -19 22 2 65 13 24 48 71 79 104 31 33 67 84
80 112 23 50 23 54 7 72 -17 18 -15 20 45 40 66 22 119 63 119 91 0 38 22 39
48 3z"/>
</g>
</svg>
