<?xml version="1.0" standalone="no"?>
<!DOCTYPE svg PUBLIC "-//W3C//DTD SVG 20010904//EN"
 "http://www.w3.org/TR/2001/REC-SVG-20010904/DTD/svg10.dtd">
<svg version="1.0" xmlns="http://www.w3.org/2000/svg"
 width="3000.000000pt" height="4000.000000pt" viewBox="0 0 3000.000000 4000.000000"
 preserveAspectRatio="xMidYMid meet">
<metadata>
Created by potrace 1.16, written by Peter Selinger 2001-2019
</metadata>
<g transform="translate(0.000000,4000.000000) scale(0.100000,-0.100000)"
fill="#000000" stroke="none">
<path d="M4420 23081 c-30 -16 -66 -40 -78 -54 -23 -25 -24 -25 -70 -10 -26 9
-54 25 -63 36 l-16 20 -29 -21 c-16 -11 -60 -53 -99 -92 -40 -41 -94 -84 -125
-100 -30 -15 -79 -53 -109 -85 l-54 -56 31 -32 c16 -18 39 -51 51 -74 l21 -43
-48 -24 c-30 -15 -77 -56 -126 -110 l-78 -86 61 -69 c33 -37 67 -74 75 -81 13
-10 12 -18 -10 -62 l-26 -51 66 -66 65 -65 26 24 26 24 61 -62 62 -61 -21 -23
c-11 -13 -33 -60 -48 -105 l-27 -83 46 -53 46 -54 -25 -23 -26 -24 78 -78 77
-77 -23 -25 -22 -24 34 -68 c21 -41 58 -91 91 -124 l56 -54 89 88 c49 49 97
106 107 127 9 22 21 39 26 39 19 0 74 -33 106 -63 l33 -32 57 29 c35 18 83 57
127 103 l71 73 64 -65 64 -65 -22 -45 c-28 -58 -28 -66 4 -96 14 -13 39 -49
54 -79 35 -68 68 -99 146 -138 l61 -31 25 26 25 25 44 -22 c24 -12 56 -36 71
-53 l27 -32 29 28 29 28 54 -25 54 -25 28 27 c16 15 38 45 49 67 27 53 25 52
51 27 l23 -22 63 64 63 63 -27 132 c-14 72 -23 135 -20 141 11 18 30 11 64
-24 l33 -34 -26 -50 c-14 -28 -26 -55 -26 -60 0 -4 37 -20 83 -35 77 -25 87
-32 167 -112 l84 -85 27 26 c34 33 51 13 18 -22 l-23 -24 28 -29 28 -29 -25
-80 -24 -80 79 -79 c45 -44 92 -102 109 -133 16 -30 54 -82 84 -114 l56 -60
52 26 53 26 27 -24 c16 -13 35 -24 43 -24 23 0 67 37 54 45 -7 4 -8 11 -2 18
6 7 19 43 30 81 14 46 32 80 53 102 l33 34 -25 52 c-13 29 -35 65 -47 80 l-24
28 90 98 c50 53 124 130 165 171 l75 74 104 -26 103 -26 108 108 108 107 28
110 c39 147 52 176 124 256 34 38 74 92 88 121 l27 52 -24 48 -25 48 26 33
c25 33 25 33 5 51 -29 26 -25 37 29 87 l49 45 -96 96 c-58 56 -118 105 -148
120 l-51 26 -24 -25 -25 -25 -23 25 -24 25 -61 -31 c-37 -18 -79 -51 -107 -82
-45 -50 -50 -52 -144 -75 l-97 -23 -95 93 c-64 64 -104 113 -125 154 -17 34
-59 89 -96 127 l-66 68 28 29 28 30 -68 34 c-38 19 -116 47 -174 62 l-105 27
-86 -27 c-87 -28 -87 -28 -110 -79 -32 -69 -112 -152 -179 -186 -71 -37 -161
-130 -192 -200 -23 -51 -24 -58 -11 -105 21 -83 24 -80 -89 -108 l-102 -26
-50 26 c-42 21 -56 24 -86 16 -32 -9 -45 -5 -158 55 -119 61 -124 63 -143 46
-10 -9 -21 -15 -23 -13 -2 2 -11 29 -21 59 -15 47 -33 71 -118 157 l-101 103
26 53 26 54 -61 61 -62 60 -110 22 c-148 29 -140 25 -161 72 -10 24 -29 54
-41 69 l-22 26 24 23 24 23 -62 68 c-34 38 -64 69 -67 68 -3 0 -30 -13 -60
-28z m87 -63 c39 -37 40 -44 12 -74 l-21 -22 35 -39 c19 -21 45 -58 57 -83 12
-25 24 -47 25 -48 2 -2 63 -16 135 -32 126 -26 134 -29 173 -69 l41 -41 -26
-53 -26 -54 107 -107 c107 -107 108 -108 136 -197 16 -49 31 -89 34 -89 3 0
18 12 33 27 l28 27 80 -39 c44 -21 80 -42 80 -45 0 -3 -5 -11 -12 -18 -10 -10
-9 -16 4 -28 14 -15 22 -14 85 6 l69 23 50 -26 50 -26 103 26 102 26 45 -44
c24 -24 44 -37 44 -30 0 6 -14 66 -30 132 l-30 119 24 48 c36 71 102 140 165
171 66 34 168 137 195 197 16 38 23 43 91 64 l73 23 93 -23 c52 -13 111 -32
133 -42 l38 -19 -23 -25 -23 -25 86 -87 c47 -48 97 -108 110 -134 12 -25 72
-97 132 -159 l109 -112 112 27 c108 26 114 29 161 77 27 28 70 61 95 74 l46
24 26 -27 27 -26 29 28 29 28 48 -25 c27 -14 78 -55 113 -91 l64 -65 -51 -53
-51 -53 25 -26 24 -25 -24 -23 -25 -24 24 -48 c14 -27 25 -55 25 -64 0 -30
-32 -80 -86 -136 -66 -66 -103 -142 -134 -269 l-22 -95 -100 -101 -100 -101
-100 25 -100 25 -194 -194 -194 -193 34 -36 c19 -19 43 -53 54 -76 l21 -41
-23 -24 c-13 -13 -36 -61 -50 -106 -33 -101 -47 -115 -81 -83 l-25 23 -50 -23
-50 -24 -41 40 c-22 21 -52 62 -66 89 -14 28 -59 87 -101 133 l-75 83 23 74
c22 70 22 76 7 93 -22 24 -21 34 3 64 l19 25 -39 38 -40 39 -25 -24 -26 -24
-72 72 c-60 60 -83 75 -137 93 -36 12 -66 23 -68 24 -2 2 7 23 20 49 l22 46
-64 65 -65 65 -37 -38 -38 -38 26 -128 26 -129 -41 -41 -41 -40 -28 27 -28 27
-29 -60 c-16 -33 -39 -69 -51 -81 l-22 -20 -50 25 -49 25 -24 -25 c-22 -24
-23 -24 -43 -5 -12 10 -47 33 -79 51 l-58 33 -28 -27 -29 -28 -38 20 c-51 27
-99 77 -119 127 -9 22 -28 52 -42 66 l-25 27 27 52 27 53 -91 91 -91 91 -87
-87 c-49 -47 -107 -95 -129 -107 l-42 -20 -18 20 c-19 21 -124 79 -143 79 -5
0 -21 -24 -34 -53 -14 -30 -55 -86 -92 -126 l-68 -72 -48 47 c-26 25 -55 64
-65 86 l-18 39 27 26 26 26 -75 80 -75 80 25 26 26 25 -56 57 -56 57 22 68
c13 41 35 82 53 101 l31 33 -92 93 -91 93 -25 -25 -26 -25 -35 34 c-19 19 -35
40 -35 47 0 7 10 33 22 58 l22 45 -74 75 -74 75 64 66 c36 36 88 77 115 91 80
40 78 37 40 112 -18 37 -41 73 -50 81 -14 12 -12 18 27 57 24 25 66 56 93 70
28 14 85 59 127 101 l77 75 72 -26 73 -27 30 29 c26 24 99 69 116 71 2 0 19
-14 37 -32z"/>
</g>
</svg>
