<?xml version="1.0" standalone="no"?>
<!DOCTYPE svg PUBLIC "-//W3C//DTD SVG 20010904//EN"
 "http://www.w3.org/TR/2001/REC-SVG-20010904/DTD/svg10.dtd">
<svg version="1.0" xmlns="http://www.w3.org/2000/svg"
 width="3000.000000pt" height="4000.000000pt" viewBox="0 0 3000.000000 4000.000000"
 preserveAspectRatio="xMidYMid meet">
<metadata>
Created by potrace 1.16, written by Peter Selinger 2001-2019
</metadata>
<g transform="translate(0.000000,4000.000000) scale(0.100000,-0.100000)"
fill="#000000" stroke="none">
<path d="M17505 29295 c-71 -13 -132 -23 -135 -23 -22 2 -38 -8 -87 -54 -35
-33 -68 -79 -90 -122 l-34 -68 26 -28 27 -29 -24 -73 -25 -74 29 -60 c17 -32
39 -69 50 -80 19 -22 19 -22 -1 -62 -15 -29 -36 -49 -73 -69 -51 -28 -52 -29
-81 -117 l-29 -88 25 -26 26 -25 -50 -98 c-69 -139 -68 -144 39 -256 l88 -92
52 52 52 52 87 -88 88 -87 -80 -80 c-43 -43 -77 -81 -74 -83 2 -3 23 -14 47
-26 45 -23 50 -32 27 -51 -20 -17 -19 -30 7 -57 l21 -23 -22 -48 -23 -49 26
-51 26 -52 -49 -97 c-26 -54 -61 -137 -77 -185 l-28 -87 24 -51 24 -51 -22
-44 c-22 -45 -72 -228 -72 -263 0 -10 9 -27 21 -38 12 -10 35 -47 53 -81 23
-46 67 -99 168 -201 l137 -139 25 26 26 25 49 -48 48 -48 53 27 c52 27 53 27
94 9 25 -10 74 -52 126 -105 l85 -88 84 29 c47 17 95 40 108 52 22 20 27 21
71 10 26 -7 80 -28 121 -47 40 -19 83 -35 95 -35 11 0 64 12 116 26 86 23 100
30 150 78 65 63 121 95 229 131 l80 26 29 89 30 88 -25 54 c-13 29 -36 65 -49
79 l-26 27 21 41 c15 29 35 48 69 65 26 13 58 36 72 51 14 15 50 40 80 55 30
16 80 55 111 87 47 48 60 70 77 128 17 56 30 79 67 115 66 64 72 77 44 106
l-22 24 20 23 c12 12 32 45 46 73 37 73 51 83 83 53 l25 -23 110 109 c83 82
119 127 145 177 18 36 38 70 45 73 6 4 23 -4 37 -18 15 -14 47 -35 72 -47 25
-12 59 -35 75 -50 23 -22 35 -26 51 -20 18 7 24 23 35 80 7 40 21 83 31 96
l19 24 42 -21 c23 -12 56 -34 72 -50 17 -15 54 -41 84 -58 l55 -29 49 24 c49
25 49 25 71 6 11 -11 44 -31 71 -45 28 -14 61 -36 73 -50 l24 -25 59 68 c32
38 63 72 69 75 13 8 72 124 68 134 -2 5 -40 47 -85 95 l-81 87 -52 -26 -53
-27 -38 38 c-38 37 -39 38 -20 58 10 12 33 48 49 82 l31 61 -49 48 c-27 27
-48 51 -46 54 1 3 -5 14 -16 24 -10 9 -18 14 -18 10 0 -4 -35 27 -77 69 -43
42 -94 84 -113 93 -19 10 -36 18 -37 19 -1 1 8 36 21 78 l24 76 -38 37 -37 37
-64 -33 c-35 -17 -94 -42 -130 -54 l-66 -23 -131 28 -131 28 -28 -30 c-15 -17
-53 -43 -84 -58 -43 -22 -59 -37 -74 -69 -10 -23 -22 -41 -27 -41 -4 0 -48 20
-96 44 -100 50 -173 120 -210 202 -24 50 -24 51 -108 78 -83 27 -84 28 -186
136 l-103 110 -35 -34 c-19 -19 -77 -55 -127 -80 l-93 -46 -45 35 c-25 19 -51
32 -59 29 -18 -7 -29 9 -90 132 -46 93 -66 120 -132 186 l-79 77 -164 57 -163
57 -66 -66 c-65 -65 -66 -66 -47 -87 10 -11 14 -20 9 -20 -16 0 -138 -21 -156
-26 -11 -3 -18 0 -18 8 0 16 -171 188 -185 187 -6 0 -68 -11 -140 -24z m205
-90 l64 -65 -44 -46 c-31 -32 -39 -44 -25 -41 26 8 379 67 396 67 7 0 -2 16
-21 35 l-34 35 38 39 38 39 136 -45 137 -45 82 -81 c70 -68 90 -96 125 -172
50 -105 122 -192 145 -173 11 9 21 4 49 -22 l34 -34 102 49 c56 28 115 61 131
74 l29 24 101 -101 c95 -93 107 -102 174 -123 66 -21 73 -25 89 -63 10 -23 46
-70 79 -105 48 -51 81 -74 167 -117 59 -30 111 -54 116 -54 4 0 20 25 35 55
21 44 36 59 74 79 27 13 58 35 71 48 l23 25 125 -25 126 -25 72 22 c39 13 97
34 128 48 46 20 61 23 72 14 12 -10 10 -24 -14 -95 l-28 -83 60 -29 c46 -22
85 -56 179 -153 l120 -125 -18 -40 c-10 -23 -32 -57 -50 -77 l-32 -35 64 -64
64 -64 51 24 51 24 65 -66 66 -65 -25 -49 c-14 -27 -48 -71 -75 -97 l-49 -49
-54 27 c-30 15 -70 43 -90 62 l-36 35 -52 -28 -52 -27 -49 23 c-27 13 -60 34
-72 48 -13 13 -49 37 -82 54 l-59 30 -38 -38 c-22 -21 -39 -44 -39 -51 0 -6
-5 -35 -11 -63 l-11 -52 -27 25 c-14 14 -46 35 -71 47 -25 12 -60 36 -77 53
l-33 31 -36 -35 c-20 -18 -46 -56 -59 -84 -15 -33 -55 -82 -119 -145 l-95 -94
-26 24 -25 24 -31 -30 c-17 -16 -44 -56 -61 -89 -17 -33 -44 -75 -61 -92 l-31
-33 24 -25 24 -25 -46 -48 c-36 -37 -51 -64 -72 -128 -22 -66 -35 -88 -74
-126 -26 -25 -67 -56 -92 -68 -25 -13 -62 -38 -82 -56 -21 -18 -59 -44 -85
-58 -41 -20 -53 -33 -78 -85 l-29 -61 26 -28 c14 -15 37 -50 52 -79 l25 -51
-23 -68 -22 -68 -80 -26 c-115 -39 -162 -65 -224 -126 -50 -48 -63 -55 -145
-77 l-91 -24 -38 19 c-21 11 -81 35 -133 54 l-96 34 -36 -33 c-21 -19 -61 -40
-99 -51 l-63 -19 -77 75 c-43 43 -101 88 -131 103 l-54 27 -49 -23 -49 -23
-54 54 -55 54 -28 -27 -27 -26 -121 127 c-69 72 -133 150 -147 177 -14 28 -34
58 -45 68 -20 18 -20 18 4 110 12 51 35 118 51 150 24 51 26 61 15 87 -7 17
-17 43 -24 60 -10 25 -9 40 11 102 13 40 48 121 77 181 l54 107 -26 52 -26 52
26 54 27 55 -22 23 -23 24 28 29 28 29 -52 27 -53 27 73 73 73 74 -80 88 c-45
48 -97 104 -117 123 l-36 34 -53 -52 -53 -52 -63 64 c-61 61 -63 66 -57 101 4
21 28 80 54 131 l46 93 -27 29 -28 29 23 64 c21 58 28 66 73 91 41 22 54 37
81 91 l33 64 -30 29 c-17 16 -41 50 -54 75 l-24 46 27 81 26 81 -24 26 c-23
24 -23 25 -6 64 10 21 42 62 71 91 l54 53 128 22 c70 13 135 23 143 24 9 1 45
-28 80 -64z"/>
</g>
</svg>
