<?xml version="1.0" standalone="no"?>
<!DOCTYPE svg PUBLIC "-//W3C//DTD SVG 20010904//EN"
 "http://www.w3.org/TR/2001/REC-SVG-20010904/DTD/svg10.dtd">
<svg version="1.0" xmlns="http://www.w3.org/2000/svg"
 width="3000.000000pt" height="4000.000000pt" viewBox="0 0 3000.000000 4000.000000"
 preserveAspectRatio="xMidYMid meet">
<metadata>
Created by potrace 1.16, written by Peter Selinger 2001-2019
</metadata>
<g transform="translate(0.000000,4000.000000) scale(0.100000,-0.100000)"
fill="#000000" stroke="none">
<path d="M6907 30801 c-72 -73 -94 -103 -140 -196 -48 -95 -67 -122 -141 -195
-47 -46 -86 -88 -86 -93 0 -4 29 -39 64 -76 93 -99 111 -141 141 -328 l26
-158 107 -108 c59 -60 125 -118 147 -129 22 -11 41 -22 43 -23 2 -2 -6 -22
-18 -44 -11 -23 -32 -99 -46 -169 l-26 -127 -50 -52 c-47 -47 -57 -53 -137
-72 -47 -12 -121 -38 -164 -58 l-77 -37 31 -32 31 -32 -21 -41 c-16 -30 -35
-48 -70 -66 -52 -26 -88 -63 -97 -100 -7 -26 33 -110 66 -140 12 -11 33 -41
46 -66 l23 -46 -23 -22 c-14 -13 -33 -53 -46 -99 -19 -68 -29 -84 -82 -138
l-59 -60 50 -47 c28 -26 54 -47 58 -47 4 0 15 -4 23 -10 12 -7 11 -12 -5 -30
-18 -20 -18 -21 3 -66 27 -55 27 -62 0 -91 l-22 -24 67 -67 67 -67 27 27 26
27 41 -21 c23 -11 57 -36 77 -55 l36 -34 73 81 c48 53 91 90 124 107 28 14 61
35 74 47 24 21 24 21 38 1 8 -11 17 -29 20 -41 4 -16 24 -27 82 -45 51 -16 90
-36 115 -58 l38 -34 24 23 25 23 25 -23 25 -24 61 60 c33 32 73 84 89 114 16
30 49 75 73 99 l46 44 99 -25 99 -25 66 33 c36 19 70 42 76 51 10 19 20 15
128 -45 36 -20 53 -9 53 36 0 32 7 45 53 89 48 48 63 55 202 103 123 42 157
58 188 88 l37 36 -54 56 -55 55 21 40 c34 67 57 84 232 172 l169 84 -31 32
-31 32 18 40 c10 22 46 70 79 106 l61 66 -24 23 -25 24 25 26 25 26 -24 23
-25 24 24 32 25 31 -34 33 c-19 18 -42 50 -51 72 l-18 39 30 38 c17 20 59 53
94 73 53 30 69 45 94 91 17 30 35 62 41 69 16 20 3 47 -43 90 -32 31 -54 40
-147 63 l-109 27 -43 -42 c-24 -24 -45 -41 -48 -38 -2 2 -24 45 -49 95 -25 49
-53 96 -61 104 -15 12 -15 15 4 35 11 11 31 54 45 95 14 41 36 86 49 100 13
14 38 54 56 89 l31 63 -22 24 -23 24 52 53 52 53 -50 49 c-27 27 -49 54 -48
60 5 25 -16 63 -53 94 l-40 34 -52 -51 -53 -52 -25 25 -25 26 -24 -26 -24 -26
-78 78 -77 77 -26 -24 -25 -23 -22 21 c-36 33 -145 78 -251 103 l-98 23 -36
-36 -36 -37 34 -38 c19 -21 43 -57 53 -80 19 -42 19 -44 0 -84 -10 -23 -27
-52 -37 -65 l-18 -23 -104 51 -104 52 -51 -24 -51 -24 -52 52 -53 52 -33 -34
c-18 -18 -50 -42 -72 -51 -38 -17 -40 -17 -60 1 -12 10 -34 44 -49 74 -16 30
-43 70 -62 88 l-34 32 -28 -29 -29 -30 -38 20 c-28 14 -46 34 -65 71 -31 60
-54 82 -110 102 l-41 14 -86 -87z m140 19 c23 -8 37 -25 59 -72 26 -55 34 -63
91 -91 l62 -31 24 22 23 22 21 -22 c11 -13 32 -45 46 -73 14 -27 39 -63 55
-78 l30 -28 59 29 c33 17 65 37 72 46 20 24 31 20 82 -30 l46 -46 54 28 54 27
102 -54 102 -54 34 33 c18 18 46 59 62 92 l29 60 -25 52 c-13 29 -34 64 -46
79 -20 23 -21 28 -8 39 12 10 33 8 107 -10 112 -27 171 -56 217 -104 l35 -36
28 27 28 27 78 -77 c78 -77 78 -78 97 -57 23 25 33 25 62 -2 l23 -22 53 52 53
53 19 -21 c15 -17 17 -25 8 -39 -10 -16 -4 -26 37 -66 l49 -48 -50 -56 -49
-55 26 -27 c25 -26 26 -30 13 -61 -7 -18 -28 -49 -45 -68 -18 -21 -42 -67 -57
-115 -18 -51 -38 -91 -59 -112 l-31 -32 39 -43 c23 -25 60 -88 88 -151 l50
-108 60 60 61 60 94 -24 c66 -17 102 -31 120 -49 l25 -25 -28 -60 c-25 -50
-36 -62 -76 -81 -27 -12 -76 -51 -110 -85 l-62 -62 32 -64 c18 -35 39 -72 48
-82 14 -16 13 -19 -8 -42 l-23 -25 22 -24 23 -24 -23 -31 -23 -31 24 -25 23
-25 -49 -52 c-27 -29 -60 -77 -73 -105 -24 -51 -24 -53 -6 -73 10 -11 16 -22
14 -24 -2 -2 -67 -36 -143 -76 -151 -79 -180 -105 -222 -193 l-28 -57 49 -50
c40 -41 46 -52 36 -64 -7 -8 -83 -38 -169 -67 -151 -49 -159 -53 -214 -107
-43 -42 -58 -63 -58 -84 l0 -28 -69 34 -68 35 -29 -30 c-16 -17 -49 -41 -75
-54 l-45 -23 -107 26 -107 26 -51 -49 c-28 -28 -64 -77 -81 -110 -16 -33 -48
-79 -71 -102 l-41 -43 -28 27 -28 27 -28 -27 c-28 -27 -28 -27 -48 -7 -10 11
-51 30 -89 43 -69 23 -71 24 -104 86 l-33 63 -37 -35 c-20 -19 -56 -45 -81
-57 -25 -12 -80 -56 -122 -98 l-78 -76 -27 26 c-16 14 -51 37 -79 51 l-51 26
-24 -25 -25 -24 -34 35 -34 35 22 23 22 24 -24 55 -24 55 30 31 31 30 -72 36
c-40 20 -75 44 -78 52 -4 10 11 32 39 62 34 35 51 64 68 117 14 42 35 83 53
102 l31 33 -25 52 c-13 28 -39 70 -57 92 -18 22 -42 57 -53 79 -20 38 -20 40
-2 59 10 11 43 33 73 48 49 25 59 35 84 89 29 59 29 61 11 81 -10 11 -16 22
-14 24 17 15 80 38 169 61 100 26 108 30 161 82 l57 55 27 136 c17 88 37 157
57 195 16 33 28 60 26 62 -2 1 -30 16 -63 33 -42 21 -89 59 -156 129 l-96 98
-23 145 c-28 180 -58 254 -136 331 -30 29 -54 58 -54 64 0 6 37 46 81 90 69
67 89 95 127 175 33 70 64 116 116 172 39 43 76 78 82 78 6 0 24 -5 41 -10z"/>
</g>
</svg>
