<?xml version="1.0" standalone="no"?>
<!DOCTYPE svg PUBLIC "-//W3C//DTD SVG 20010904//EN"
 "http://www.w3.org/TR/2001/REC-SVG-20010904/DTD/svg10.dtd">
<svg version="1.0" xmlns="http://www.w3.org/2000/svg"
 width="3000.000000pt" height="4000.000000pt" viewBox="0 0 3000.000000 4000.000000"
 preserveAspectRatio="xMidYMid meet">
<metadata>
Created by potrace 1.16, written by Peter Selinger 2001-2019
</metadata>
<g transform="translate(0.000000,4000.000000) scale(0.100000,-0.100000)"
fill="#000000" stroke="none">
<path d="M13443 20048 c-17 -18 -45 -60 -61 -94 -44 -87 -46 -88 -128 -60 -38
13 -97 37 -131 55 l-63 31 -36 -71 -35 -71 27 -29 28 -29 -25 -104 -26 -104
25 -26 26 -25 -19 -81 c-10 -45 -21 -83 -25 -85 -3 -2 -49 7 -101 20 -51 13
-97 21 -100 17 -4 -4 -18 -43 -33 -87 -20 -60 -36 -90 -68 -122 l-41 -42 -47
24 c-71 36 -79 50 -46 84 l27 28 -61 32 c-59 32 -62 35 -115 140 -29 60 -67
119 -83 133 -16 14 -72 46 -123 73 -64 32 -114 67 -156 108 l-63 61 -25 -24
-25 -23 -24 22 -24 22 -53 -26 c-30 -15 -78 -50 -106 -78 -29 -28 -56 -48 -60
-44 -8 8 -53 -32 -53 -47 0 -6 -13 -38 -29 -71 -19 -40 -54 -85 -105 -135 -42
-41 -76 -82 -76 -91 0 -9 -8 -27 -19 -40 -10 -13 -33 -53 -51 -89 -29 -58 -33
-73 -31 -140 l2 -75 72 -73 c82 -83 139 -118 252 -156 80 -26 81 -27 107 -80
30 -61 3 -53 281 -87 l179 -22 74 74 c50 50 77 70 84 63 7 -7 2 -18 -14 -33
l-25 -24 31 -61 c38 -77 70 -111 133 -143 66 -33 92 -58 121 -115 l24 -47 -75
-80 -76 -79 27 -54 26 -54 -26 -52 c-14 -28 -26 -53 -26 -56 0 -2 17 -15 38
-27 20 -12 39 -24 41 -26 11 -8 -69 -77 -120 -104 -31 -17 -72 -46 -90 -65
l-33 -34 164 -166 c119 -119 180 -173 221 -194 70 -36 85 -53 63 -71 -16 -13
-88 -149 -82 -154 11 -10 130 -65 140 -65 8 0 24 -8 38 -17 13 -9 34 -18 47
-19 41 -5 137 -54 174 -90 l36 -36 54 27 c30 15 82 55 117 88 55 54 65 71 83
132 13 42 32 82 49 100 42 45 76 121 105 236 15 56 35 114 45 129 10 14 45 38
78 54 53 26 62 34 87 86 21 45 64 94 186 216 l159 158 -27 28 c-36 38 -23 50
94 89 l95 31 -26 27 c-14 15 -26 32 -26 37 0 6 15 25 34 43 l34 33 39 -21 c22
-11 92 -33 155 -49 l115 -29 35 33 c20 18 39 42 42 52 6 17 -1 23 -44 37 -27
9 -50 21 -50 26 0 5 21 50 46 101 l46 91 -101 101 -101 101 52 53 53 52 -70
70 -69 70 -36 -34 c-19 -18 -51 -42 -71 -54 l-35 -21 -54 54 -54 55 -28 -27
-29 -27 -61 62 -62 61 27 29 27 28 -29 28 -30 29 20 41 c12 22 61 82 110 131
l89 91 -55 27 c-30 15 -55 30 -55 35 0 4 10 39 23 76 l23 69 -44 42 c-24 23
-44 50 -46 59 -3 21 -43 66 -58 66 -7 0 -40 27 -73 60 l-61 60 -53 -54 -54
-55 -46 24 c-25 13 -82 60 -126 104 -44 45 -82 81 -85 81 -3 0 -20 -15 -37
-32z m234 -199 l63 -33 50 49 50 49 48 -47 c26 -26 57 -47 69 -47 26 0 49 -25
33 -35 -8 -5 5 -25 36 -56 l48 -49 -26 -80 -26 -80 41 -21 c23 -12 44 -23 46
-26 3 -2 -27 -36 -66 -76 -79 -81 -121 -150 -103 -172 8 -10 8 -15 0 -20 -8
-5 -6 -12 5 -24 14 -16 14 -20 -6 -45 l-22 -28 91 -91 91 -91 26 24 25 24 50
-49 49 -49 53 25 c29 13 65 35 81 48 l28 24 35 -34 34 -33 -52 -53 -52 -53
102 -103 c56 -56 102 -108 102 -115 0 -7 -23 -57 -50 -112 l-50 -100 25 -10
c14 -5 37 -13 50 -16 28 -7 31 -16 12 -32 -17 -14 -180 29 -258 69 l-56 28
-67 -68 c-59 -59 -65 -69 -52 -81 26 -20 19 -28 -39 -46 -35 -11 -67 -31 -92
-56 l-37 -38 24 -25 23 -24 -154 -163 c-91 -96 -162 -180 -173 -204 -14 -33
-28 -46 -66 -64 -81 -38 -104 -70 -134 -193 -29 -119 -60 -189 -100 -226 -15
-14 -36 -56 -52 -105 -21 -66 -36 -91 -76 -133 -28 -28 -68 -59 -89 -69 -38
-17 -40 -17 -62 3 -29 27 -127 75 -197 98 -30 9 -80 28 -112 42 l-56 25 15 36
c8 21 31 54 51 74 l36 38 -35 36 c-18 20 -59 48 -89 64 -41 21 -91 66 -194
174 -155 164 -153 157 -62 203 47 23 176 137 176 155 0 4 -22 19 -50 33 -27
14 -50 27 -50 30 0 2 9 24 21 48 l21 43 -25 51 -26 50 75 74 c41 40 74 79 74
85 0 15 -30 75 -48 97 -8 9 -11 17 -7 17 19 0 -43 54 -88 76 -65 34 -120 85
-142 134 l-18 40 26 28 27 28 -40 39 -40 39 -78 -77 c-54 -54 -85 -77 -102
-77 -14 0 -103 9 -198 22 l-174 22 -25 51 c-25 50 -28 53 -97 75 -126 40 -196
82 -259 153 l-57 65 0 66 c0 98 54 202 164 316 63 65 89 101 111 153 16 37 34
67 40 67 6 0 33 23 60 51 28 28 72 62 99 76 l48 25 29 -28 29 -28 25 24 25 24
48 -46 c28 -28 86 -66 147 -96 55 -28 112 -63 126 -79 15 -15 50 -74 78 -131
43 -85 57 -105 86 -119 41 -19 42 -24 15 -48 -20 -19 -20 -19 15 -55 20 -20
63 -50 96 -65 l59 -29 60 59 c50 50 64 71 82 127 15 46 27 68 37 68 9 0 57
-11 107 -24 l91 -23 27 112 c31 136 31 133 4 162 l-22 23 24 105 23 106 -23
24 c-20 22 -21 27 -10 55 15 35 19 36 68 11 20 -10 74 -31 120 -46 l84 -27 30
28 c16 16 41 52 55 79 14 28 35 61 47 74 l21 23 65 -69 c40 -43 89 -83 127
-104z"/>
</g>
</svg>
