<?xml version="1.0" standalone="no"?>
<!DOCTYPE svg PUBLIC "-//W3C//DTD SVG 20010904//EN"
 "http://www.w3.org/TR/2001/REC-SVG-20010904/DTD/svg10.dtd">
<svg version="1.0" xmlns="http://www.w3.org/2000/svg"
 width="3000.000000pt" height="4000.000000pt" viewBox="0 0 3000.000000 4000.000000"
 preserveAspectRatio="xMidYMid meet">
<metadata>
Created by potrace 1.16, written by Peter Selinger 2001-2019
</metadata>
<g transform="translate(0.000000,4000.000000) scale(0.100000,-0.100000)"
fill="#000000" stroke="none">
<path d="M20078 27613 c-20 -21 -45 -58 -56 -83 -12 -28 -55 -80 -116 -140
l-95 -94 -26 24 -25 24 -31 -30 c-17 -16 -44 -56 -61 -89 -17 -33 -44 -75 -61
-92 l-31 -33 24 -25 24 -25 -46 -48 c-36 -37 -51 -64 -72 -128 -22 -66 -35
-88 -74 -126 -26 -25 -67 -56 -92 -68 -25 -13 -62 -38 -82 -56 -21 -18 -59
-44 -85 -58 -41 -20 -53 -33 -78 -85 l-29 -61 26 -28 c14 -15 37 -50 52 -79
l25 -51 -23 -68 -22 -68 -80 -26 c-115 -39 -162 -65 -224 -126 -50 -48 -63
-55 -145 -77 l-91 -24 -38 19 c-21 11 -81 35 -133 54 l-96 34 -36 -33 c-21
-19 -61 -40 -99 -51 l-63 -19 -77 75 c-43 43 -101 88 -131 103 l-54 27 -49
-23 -49 -23 -54 54 -54 54 -88 -88 c-54 -54 -108 -98 -142 -116 -78 -39 -92
-57 -90 -116 1 -27 9 -57 17 -67 14 -16 14 -22 -6 -63 -28 -57 -28 -65 4 -95
14 -13 37 -46 51 -74 14 -27 34 -60 45 -72 l21 -22 -24 -28 c-13 -16 -35 -52
-47 -79 l-24 -51 30 -59 c16 -32 39 -67 50 -78 l21 -18 -27 -54 -26 -54 31
-32 c24 -26 36 -53 53 -128 l23 -95 -27 -54 -28 -54 36 -36 c20 -20 61 -49 91
-65 l56 -29 24 23 25 23 25 -23 25 -23 50 23 50 23 52 -49 c29 -27 72 -58 96
-69 35 -15 49 -29 72 -74 33 -65 86 -120 121 -126 14 -3 50 -13 82 -24 l57
-20 99 106 99 106 103 -26 104 -26 45 44 c50 49 61 53 81 29 7 -8 36 -27 63
-41 28 -14 66 -39 83 -56 l33 -31 25 24 25 24 29 -28 29 -27 43 50 c47 55 59
60 80 35 7 -8 34 -27 61 -40 39 -20 53 -35 77 -82 16 -31 43 -70 60 -86 l31
-30 23 22 c31 29 40 28 76 -13 l31 -36 -26 -50 -25 -51 58 -61 c32 -34 67 -81
78 -105 l19 -44 -26 -78 c-25 -77 -25 -79 -7 -96 27 -24 24 -33 -28 -86 l-47
-48 85 -87 c90 -94 101 -101 197 -128 l63 -18 53 52 c50 50 59 54 162 82 62
16 117 37 128 48 19 20 20 20 65 -4 60 -31 122 -96 156 -165 15 -30 43 -72 63
-93 l36 -37 52 51 52 51 28 -20 c16 -11 76 -32 133 -47 l104 -26 33 32 c39 38
70 131 110 332 l27 138 -74 75 c-50 51 -70 77 -63 84 7 7 16 4 29 -10 10 -11
24 -20 30 -20 17 0 105 49 133 73 l22 21 28 -27 28 -27 35 36 c18 20 59 48 89
64 83 42 95 60 129 195 17 66 42 154 56 195 l25 74 -59 61 c-50 50 -73 86
-135 214 -42 85 -87 166 -101 181 -19 20 -52 33 -140 55 l-115 30 -52 -52 -53
-51 -70 24 c-50 17 -78 34 -97 57 l-27 32 -28 -27 -29 -28 -34 35 -34 35 74
75 74 75 -28 87 c-16 49 -37 97 -47 109 -18 19 -18 22 -3 34 8 8 31 44 49 80
l34 67 -37 36 c-42 40 -104 73 -210 111 -85 30 -99 31 -122 11 -16 -14 -18
-13 -30 15 -9 23 -10 33 -1 44 10 12 24 10 91 -12 l80 -26 32 30 c18 17 101
66 183 109 141 73 215 124 215 150 0 6 -11 22 -25 35 l-24 23 25 50 26 49 -34
35 c-18 19 -80 59 -138 88 -153 77 -146 62 -116 241 14 82 37 183 51 223 14
41 25 82 25 90 0 19 -160 181 -178 181 -9 0 -7 11 7 38 l20 39 -29 112 c-15
62 -30 114 -32 116 -1 1 -25 14 -53 28 -31 16 -91 67 -155 132 -69 71 -124
116 -160 135 -30 15 -66 40 -79 54 -14 14 -27 26 -31 26 -3 0 -22 -17 -42 -37z
m68 -44 c10 -12 44 -34 74 -49 40 -20 82 -56 145 -125 63 -69 104 -104 144
-125 l57 -28 22 -95 23 -94 -22 -45 c-16 -34 -33 -51 -69 -69 -42 -21 -47 -27
-39 -46 l8 -22 69 23 70 24 67 -68 67 -68 -21 -65 c-12 -36 -35 -141 -51 -234
l-28 -168 31 -33 c18 -19 77 -56 132 -84 55 -28 110 -59 122 -70 l22 -20 -27
-54 -26 -54 22 -23 22 -23 -22 -21 c-13 -12 -88 -53 -168 -93 -80 -40 -157
-83 -171 -96 l-25 -24 -74 25 -74 25 -37 -37 -37 -38 34 -74 34 -75 34 33 34
33 69 -22 c86 -29 156 -64 182 -91 18 -19 18 -23 4 -57 -8 -21 -31 -53 -50
-73 -38 -40 -37 -54 6 -93 11 -10 30 -47 42 -83 l21 -65 -28 -31 c-16 -18 -51
-56 -79 -85 l-50 -52 67 -67 67 -67 26 24 25 23 23 -20 c12 -11 60 -33 106
-48 l83 -27 53 52 53 53 89 -22 c52 -13 98 -31 112 -44 13 -12 59 -94 103
-182 57 -114 93 -174 126 -207 l46 -48 -23 -77 c-13 -43 -35 -121 -48 -173
-28 -108 -43 -130 -124 -170 -30 -16 -61 -36 -69 -45 -12 -14 -16 -13 -40 10
l-26 25 -30 -31 c-16 -17 -50 -41 -75 -54 l-46 -24 -30 31 -30 30 -38 -47 -38
-46 78 -79 79 -80 -22 -117 c-29 -148 -68 -271 -96 -300 l-21 -22 -95 24 c-78
20 -100 30 -123 56 l-29 31 -52 -51 c-60 -59 -62 -59 -109 34 -32 63 -125 153
-198 192 l-56 30 -35 -32 c-27 -25 -55 -37 -129 -55 -87 -21 -98 -26 -146 -73
l-53 -51 -67 22 c-58 18 -78 31 -135 89 l-67 68 48 55 49 55 -25 27 -26 27 22
79 23 79 -30 59 c-17 32 -49 77 -71 99 -23 21 -41 45 -41 52 0 7 10 33 22 58
l22 45 -64 65 -64 65 -27 -26 -26 -25 -24 28 c-13 16 -33 48 -43 72 -16 34
-31 48 -75 71 -31 15 -69 42 -86 59 l-29 31 -54 -52 -53 -53 -23 27 -23 26
-26 -26 -26 -26 -23 21 c-13 11 -45 32 -73 46 -27 14 -63 39 -80 56 l-29 31
-56 -54 -55 -55 -103 26 -104 26 -103 -103 -103 -102 -68 22 c-84 27 -102 43
-139 119 -23 49 -35 62 -69 77 -23 10 -72 48 -109 83 l-68 65 -53 -26 -53 -26
-26 26 -27 26 -27 -26 -28 -27 -49 27 c-69 38 -75 51 -48 107 l22 45 -26 109
c-18 79 -31 114 -49 131 l-23 22 25 55 25 55 -30 31 c-16 18 -40 52 -52 76
-22 43 -22 44 -3 85 10 22 33 58 52 79 l34 38 -30 32 c-17 18 -43 57 -58 87
-15 30 -36 65 -47 76 -19 22 -19 22 6 72 25 49 25 50 6 67 -26 23 -27 86 -2
107 9 9 37 26 62 38 25 12 78 54 117 93 l73 71 49 -48 48 -48 53 27 c52 27 53
27 94 9 25 -10 74 -52 126 -105 l85 -88 84 29 c47 17 95 40 108 52 22 20 27
21 71 10 26 -7 80 -28 121 -47 40 -19 83 -35 95 -35 11 0 64 12 116 26 86 23
100 30 150 78 65 63 121 95 229 131 l80 26 29 89 30 88 -25 54 c-13 29 -36 65
-49 79 l-26 27 21 41 c15 29 35 48 69 65 26 13 58 36 72 51 14 15 50 40 80 55
30 16 80 55 111 87 47 48 60 70 77 128 17 56 30 79 67 115 66 64 72 77 44 106
l-22 24 20 23 c12 12 32 45 46 73 37 73 51 83 83 53 l25 -23 110 109 c78 78
119 128 141 170 48 94 53 98 84 64z"/>
</g>
</svg>
