<?xml version="1.0" standalone="no"?>
<!DOCTYPE svg PUBLIC "-//W3C//DTD SVG 20010904//EN"
 "http://www.w3.org/TR/2001/REC-SVG-20010904/DTD/svg10.dtd">
<svg version="1.0" xmlns="http://www.w3.org/2000/svg"
 width="3000.000000pt" height="4000.000000pt" viewBox="0 0 3000.000000 4000.000000"
 preserveAspectRatio="xMidYMid meet">
<metadata>
Created by potrace 1.16, written by Peter Selinger 2001-2019
</metadata>
<g transform="translate(0.000000,4000.000000) scale(0.100000,-0.100000)"
fill="#000000" stroke="none">
<path d="M14093 12583 c-17 -53 -17 -55 9 -132 l25 -78 -25 -131 -26 -132 26
-27 c14 -16 39 -55 56 -88 16 -33 39 -68 50 -78 l20 -19 -22 -66 c-13 -37 -26
-84 -29 -105 -7 -45 -8 -45 137 -82 54 -14 112 -33 128 -41 l31 -16 -53 -53
-53 -53 64 -32 c81 -40 105 -63 136 -125 14 -27 59 -87 101 -133 63 -70 90
-91 165 -130 49 -26 99 -52 110 -59 11 -6 69 -60 128 -119 l109 -109 74 74 74
74 17 -34 c10 -19 29 -46 42 -61 l25 -27 -26 -77 -26 -78 58 -61 c42 -43 71
-88 107 -162 44 -92 52 -103 89 -120 23 -10 62 -37 87 -60 l46 -43 28 30 28
29 49 -25 50 -25 24 22 25 23 36 -37 37 -36 -24 -26 -24 -26 39 -38 c34 -33
62 -46 185 -86 167 -55 232 -85 276 -127 24 -22 55 -36 130 -54 83 -22 105
-32 141 -65 30 -27 52 -39 72 -39 36 0 151 60 203 106 48 42 93 65 199 99 l86
28 30 93 c30 91 30 93 12 110 -24 22 -24 36 1 59 l20 18 -20 22 c-24 26 -25
33 -4 56 16 17 35 79 58 182 12 56 12 61 -14 115 -15 31 -37 66 -50 77 -12 11
-37 49 -55 85 -18 36 -56 87 -84 114 -46 46 -58 51 -157 77 -84 22 -114 35
-138 59 l-32 30 -21 -22 -21 -21 -40 80 -41 80 35 35 35 34 -43 14 c-24 8 -58
20 -77 28 -32 13 -33 14 -15 33 17 19 16 20 -10 48 l-28 29 25 48 24 49 -28
60 c-15 33 -43 75 -63 94 l-36 35 -30 -29 -29 -28 -93 24 c-68 17 -100 31
-118 50 -16 17 -56 37 -112 55 l-87 28 -24 -22 -23 -22 -38 39 -38 39 25 48
24 48 -28 60 c-16 33 -49 80 -74 106 l-45 46 27 27 27 26 -22 24 -22 24 39 18
c22 9 54 32 71 50 l32 33 -23 31 -23 31 24 25 24 26 -67 66 -66 67 -24 -22
-24 -23 -35 23 c-18 13 -55 34 -80 48 l-47 25 -32 -30 c-17 -17 -46 -59 -64
-95 -20 -38 -58 -89 -94 -124 l-61 -60 -23 22 c-13 12 -26 22 -30 22 -4 0 -52
-46 -106 -102 l-100 -103 -53 51 c-29 29 -73 62 -98 74 -29 13 -84 62 -152
133 l-106 112 -29 -27 -28 -27 -26 23 c-14 12 -96 46 -183 75 l-157 53 -23
-21 c-21 -20 -24 -20 -37 -5 -18 22 -54 35 -122 43 l-57 7 -17 -53z m108 -4
c19 -7 50 -27 70 -45 l35 -34 28 29 28 29 146 -49 c112 -37 154 -56 179 -81
l33 -32 25 24 26 24 97 -95 c53 -53 120 -108 147 -124 28 -15 76 -53 108 -83
l57 -57 103 103 103 103 24 -26 24 -26 89 88 c55 55 99 109 117 144 39 76 51
85 92 68 18 -7 52 -31 76 -53 l43 -39 28 27 27 26 32 -39 31 -39 -25 -23 -24
-23 25 -26 25 -26 -22 -21 c-13 -11 -49 -34 -81 -50 l-58 -29 26 -24 c30 -28
31 -41 5 -65 -21 -19 -20 -19 34 -74 30 -31 65 -78 79 -106 l25 -49 -26 -52
-25 -52 58 -66 c32 -36 64 -66 71 -66 7 0 22 12 33 27 l21 26 63 -19 c35 -10
77 -32 97 -50 27 -23 60 -37 143 -58 l109 -28 23 22 c13 12 28 19 34 15 6 -3
24 -32 40 -63 l29 -56 -26 -53 -26 -53 22 -23 22 -23 -30 -29 c-17 -16 -27
-32 -23 -36 5 -3 39 -17 76 -29 67 -22 68 -23 51 -42 -17 -18 -16 -23 45 -145
l62 -126 30 29 29 28 22 -21 c14 -12 62 -30 118 -43 88 -21 99 -26 148 -74 30
-28 64 -73 76 -101 13 -27 33 -59 46 -70 12 -11 35 -45 50 -76 l29 -56 -23
-91 c-17 -64 -33 -102 -55 -129 l-31 -37 25 -26 25 -26 -24 -23 -25 -24 26
-34 26 -34 -19 -62 -20 -62 -85 -31 c-107 -39 -158 -65 -189 -99 -14 -15 -47
-38 -75 -52 -27 -14 -60 -35 -73 -46 l-22 -21 -48 46 c-43 42 -56 49 -146 72
-67 16 -107 32 -125 49 -40 38 -130 79 -296 136 -82 29 -156 58 -164 66 -13
13 -12 18 7 38 12 13 22 28 22 33 0 5 -28 38 -63 72 l-63 63 -24 -26 c-29 -31
-37 -31 -95 -3 l-45 22 -23 -22 c-23 -22 -24 -22 -40 -4 -9 10 -40 29 -68 42
-48 23 -53 28 -98 125 -30 62 -67 121 -98 155 l-50 55 24 72 25 73 -30 35
c-17 18 -43 61 -58 94 -14 34 -29 61 -33 61 -3 0 -41 -35 -83 -77 l-78 -78
-98 97 c-82 81 -112 104 -192 143 -115 58 -235 167 -280 255 -30 58 -101 133
-140 145 -21 7 -20 10 30 60 l53 53 -69 34 c-38 19 -109 45 -159 57 -49 12
-95 24 -101 26 -8 2 0 37 23 101 l34 98 -35 35 c-19 20 -43 56 -54 81 -11 25
-29 54 -41 64 -26 24 -26 33 1 173 l22 113 -25 78 c-19 58 -23 84 -16 105 10
30 19 32 68 16z"/>
</g>
</svg>
