<?xml version="1.0" standalone="no"?>
<!DOCTYPE svg PUBLIC "-//W3C//DTD SVG 20010904//EN"
 "http://www.w3.org/TR/2001/REC-SVG-20010904/DTD/svg10.dtd">
<svg version="1.0" xmlns="http://www.w3.org/2000/svg"
 width="3000.000000pt" height="4000.000000pt" viewBox="0 0 3000.000000 4000.000000"
 preserveAspectRatio="xMidYMid meet">
<metadata>
Created by potrace 1.16, written by Peter Selinger 2001-2019
</metadata>
<g transform="translate(0.000000,4000.000000) scale(0.100000,-0.100000)"
fill="#000000" stroke="none">
<path d="M19169 22614 c-13 -14 -49 -39 -79 -54 -30 -16 -84 -58 -120 -94
l-64 -66 54 -55 54 -55 -23 -94 c-12 -53 -30 -101 -40 -110 -16 -15 -19 -14
-41 9 l-24 25 -28 -27 -28 -27 -50 24 -50 23 -52 -24 c-57 -26 -128 -84 -128
-103 0 -7 11 -23 25 -36 l24 -23 -25 -49 -26 -50 27 -28 27 -28 -25 -48 c-33
-66 -51 -80 -138 -109 -50 -17 -86 -37 -111 -62 l-38 -37 33 -36 c74 -79 71
-72 44 -127 -14 -26 -33 -55 -43 -64 -12 -10 -74 -24 -159 -38 -103 -16 -158
-31 -208 -54 -61 -28 -70 -36 -89 -78 -11 -26 -31 -58 -45 -71 l-25 -23 -19
24 -20 24 -59 -28 c-32 -15 -82 -52 -110 -80 -49 -50 -53 -52 -88 -44 -24 5
-45 4 -62 -4 -21 -11 -25 -18 -22 -52 2 -23 12 -50 25 -63 l21 -23 -77 -77
-77 -77 51 -51 50 -50 -21 -27 -21 -27 21 -30 c12 -17 44 -42 71 -55 27 -14
49 -30 49 -36 0 -47 -149 -209 -228 -248 -35 -18 -107 -46 -221 -87 -11 -3 -7
-12 15 -35 l28 -29 -37 -37 -36 -37 -26 24 -25 24 -54 -53 -54 -53 -65 21 -65
22 -27 112 c-16 62 -30 114 -32 116 -10 12 -128 -121 -155 -174 -16 -33 -57
-88 -91 -122 -33 -34 -59 -64 -56 -66 2 -3 42 -17 89 -32 47 -15 94 -36 106
-47 l21 -19 -19 -97 c-11 -53 -22 -99 -24 -101 -2 -2 -12 3 -21 11 -17 15 -21
12 -60 -32 l-42 -47 50 -23 50 -24 -42 -42 -41 -42 28 -43 c15 -24 46 -63 68
-86 l40 -43 -28 -29 -28 -30 63 -31 c35 -18 78 -45 94 -60 22 -22 56 -35 134
-55 57 -14 125 -37 150 -50 50 -25 108 -34 129 -21 17 10 15 14 46 -80 16 -50
37 -90 53 -105 14 -13 36 -46 48 -74 13 -27 35 -61 49 -74 16 -15 36 -56 53
-107 l27 -84 84 -30 c45 -16 89 -30 95 -30 8 0 21 43 35 118 34 175 70 290
107 337 18 22 44 63 58 90 30 60 116 143 175 170 35 15 49 29 72 74 42 84 61
97 201 136 68 18 144 41 169 50 44 16 46 16 103 -11 l58 -28 62 61 c34 33 77
68 96 78 33 16 34 16 62 -11 l29 -28 53 53 c48 47 55 50 67 36 8 -9 37 -28 64
-42 28 -14 80 -54 116 -89 l65 -63 87 93 c87 93 87 94 109 182 12 49 27 94 33
100 6 6 52 21 103 34 63 15 98 29 113 45 l22 23 71 -24 c39 -13 76 -24 82 -24
6 0 22 24 36 53 13 28 50 80 83 115 l59 62 -23 25 -24 25 39 40 38 39 48 -25
c27 -13 51 -24 54 -24 2 0 18 26 34 58 17 33 59 86 98 125 l69 67 39 -41 c22
-22 70 -56 106 -74 l66 -34 100 102 c136 140 132 132 100 165 l-27 28 22 66
22 67 95 23 c101 24 140 48 167 99 14 29 14 30 -18 47 -18 9 -88 73 -155 142
l-122 125 25 25 24 25 -84 85 c-78 79 -86 91 -110 166 -16 49 -37 91 -52 105
-14 13 -39 49 -54 80 -16 30 -35 61 -44 68 -21 18 -20 32 5 84 l21 43 -26 52
-26 51 26 82 26 82 -63 63 -62 63 -66 -33 c-36 -18 -91 -41 -121 -51 -62 -19
-186 -79 -213 -103 -26 -23 -32 -7 -9 25 11 15 32 52 46 82 l27 53 -22 24 -22
24 21 23 c27 29 27 35 0 64 l-22 23 27 28 28 29 -41 18 c-50 23 -56 31 -36 53
14 16 12 28 -13 130 -22 85 -36 120 -58 145 -17 19 -38 55 -49 80 -16 38 -25
47 -59 58 -22 7 -52 23 -66 36 l-25 23 -29 -30 c-17 -18 -55 -38 -100 -54
l-73 -24 -104 54 -105 53 -24 -25z m130 -84 l99 -49 79 26 c43 14 87 34 99 44
26 24 37 24 59 -1 13 -14 22 -17 35 -10 14 8 21 2 36 -33 11 -23 33 -58 51
-77 24 -27 37 -59 56 -132 l24 -97 -33 -32 -34 -33 47 -24 c62 -31 60 -28 35
-55 l-22 -23 25 -24 25 -24 -25 -26 -25 -26 25 -24 c14 -13 25 -30 25 -37 0
-24 -37 -87 -69 -117 l-31 -30 42 -43 42 -43 36 34 c41 40 108 74 205 106 39
13 92 34 119 47 l49 25 40 -40 40 -40 -26 -77 -26 -77 25 -51 26 -51 -26 -54
-27 -55 29 -31 c17 -17 42 -56 57 -86 15 -30 38 -66 51 -80 13 -14 35 -59 49
-100 22 -65 35 -84 97 -147 l72 -73 -27 -28 -27 -28 148 -147 c82 -81 155
-147 163 -147 9 0 4 -9 -12 -25 -18 -19 -55 -34 -129 -53 l-104 -27 -28 -90
-27 -90 21 -23 22 -23 -90 -90 -91 -91 -39 20 c-21 11 -66 48 -99 81 l-59 61
-84 -82 c-46 -46 -95 -104 -108 -130 -13 -27 -26 -48 -29 -48 -2 0 -25 10 -50
22 l-45 22 -65 -64 -65 -64 27 -28 27 -28 -46 -48 c-25 -26 -56 -66 -68 -90
-16 -34 -25 -42 -38 -37 -9 4 -43 16 -75 27 l-59 20 -31 -30 c-25 -24 -54 -36
-131 -56 -54 -13 -102 -30 -106 -36 -3 -6 -17 -55 -30 -110 l-23 -99 -68 -67
-69 -68 -36 42 c-20 24 -62 56 -93 71 -31 16 -69 43 -85 60 -17 17 -35 31 -42
31 -7 0 -30 -20 -52 -45 -45 -51 -52 -53 -77 -25 -17 19 -18 19 -79 -11 -33
-17 -82 -52 -108 -77 l-47 -46 -50 24 -50 23 -58 -22 c-32 -13 -116 -38 -187
-56 -145 -38 -163 -50 -207 -137 -24 -47 -38 -62 -77 -82 -60 -31 -153 -127
-185 -191 -14 -27 -37 -61 -51 -74 -31 -30 -68 -137 -100 -294 -13 -65 -26
-120 -29 -123 -3 -3 -30 2 -61 12 l-56 18 -25 77 c-14 42 -35 85 -47 95 -11
11 -34 46 -50 79 -17 33 -43 74 -58 90 -15 17 -38 62 -50 100 -15 47 -34 82
-58 107 l-36 38 -28 -27 -28 -27 -57 27 c-32 15 -96 36 -143 48 -60 14 -94 29
-118 50 -19 17 -50 38 -68 47 l-34 16 22 23 22 23 -61 63 c-91 93 -91 95 -33
152 l49 48 -21 19 c-12 10 -27 19 -35 19 -7 1 -18 2 -25 3 -6 0 -13 7 -16 14
-2 7 2 13 9 11 8 -1 28 -1 45 0 l30 1 24 125 24 125 -34 35 c-19 20 -55 41
-84 51 -28 9 -55 19 -59 21 -5 3 9 24 31 47 22 22 51 64 65 91 30 60 94 126
101 104 3 -8 14 -47 24 -88 l18 -74 87 -31 87 -30 50 49 50 49 28 -27 28 -27
67 68 c68 68 68 68 47 87 -25 23 -20 28 50 50 89 29 140 62 228 148 58 57 94
102 117 148 l34 66 -60 28 c-33 16 -67 37 -76 47 -15 17 -15 20 7 43 l24 25
-35 38 c-70 75 -71 64 14 150 l77 78 -35 34 c-55 53 -46 70 24 50 34 -9 37 -8
100 53 36 35 81 69 99 76 31 13 35 12 61 -13 l28 -27 39 43 c22 24 48 62 58
86 28 62 77 84 266 117 143 24 158 29 189 58 18 18 46 59 62 92 l29 60 -50 50
c-48 48 -50 52 -33 67 10 8 50 26 88 38 85 27 131 68 170 150 l29 60 -24 25
-23 24 23 56 23 56 -22 23 -22 24 24 19 c13 10 42 27 64 37 40 18 40 18 90 -8
50 -25 51 -25 68 -6 23 25 33 25 62 -2 l23 -22 34 33 c30 29 38 48 61 147 l27
114 -31 39 c-17 21 -37 44 -46 51 -14 12 -12 18 22 52 21 22 63 52 93 68 30
15 64 37 74 49 11 12 21 21 23 21 2 0 48 -22 102 -50z"/>
</g>
</svg>
