<?xml version="1.0" standalone="no"?>
<!DOCTYPE svg PUBLIC "-//W3C//DTD SVG 20010904//EN"
 "http://www.w3.org/TR/2001/REC-SVG-20010904/DTD/svg10.dtd">
<svg version="1.0" xmlns="http://www.w3.org/2000/svg"
 width="3000.000000pt" height="4000.000000pt" viewBox="0 0 3000.000000 4000.000000"
 preserveAspectRatio="xMidYMid meet">
<metadata>
Created by potrace 1.16, written by Peter Selinger 2001-2019
</metadata>
<g transform="translate(0.000000,4000.000000) scale(0.100000,-0.100000)"
fill="#000000" stroke="none">
<path d="M17085 18430 c-8 -26 -23 -33 -131 -59 -90 -22 -92 -23 -164 -96
l-73 -74 -46 24 c-25 13 -58 36 -74 52 l-27 29 -176 -177 -176 -176 37 -79
c23 -52 54 -98 89 -134 43 -44 58 -69 76 -125 12 -38 31 -83 42 -98 l19 -28
-23 -27 c-13 -15 -31 -46 -41 -68 -13 -28 -30 -47 -53 -58 -43 -20 -53 -20
-74 -1 -15 14 -18 14 -30 0 -11 -13 -9 -19 8 -38 12 -13 33 -56 47 -96 l24
-72 -26 -54 -27 -55 22 -23 c27 -28 27 -38 3 -85 -31 -60 -58 -78 -161 -102
-90 -22 -98 -26 -155 -79 -50 -47 -73 -61 -136 -80 -83 -26 -99 -43 -114 -125
-6 -29 -4 -36 8 -36 35 0 76 -51 99 -120 l22 -70 -24 -25 c-16 -17 -31 -59
-50 -137 l-28 -113 39 -40 38 -39 26 24 25 23 25 -23 25 -24 38 36 c20 20 78
56 128 81 l91 46 51 -52 52 -51 52 25 53 26 52 -25 53 -26 25 24 c14 13 26 22
28 19 2 -2 29 -32 62 -67 l58 -62 -23 -50 -24 -50 39 -40 39 -40 26 25 c24 23
28 24 40 10 7 -9 42 -32 77 -52 64 -35 64 -35 86 -16 12 11 38 26 57 33 61 23
134 61 156 81 19 18 22 18 34 4 8 -9 37 -28 64 -42 28 -14 61 -35 74 -46 l22
-21 -27 -28 c-14 -15 -25 -30 -22 -32 2 -2 29 -16 59 -31 30 -15 83 -54 117
-88 l63 -61 37 36 c44 42 110 76 208 108 39 12 80 32 92 43 l22 20 28 -24 c16
-13 52 -35 81 -48 l52 -25 28 26 27 26 50 -17 c45 -16 52 -16 77 -2 16 9 31
24 34 34 3 9 -18 88 -46 175 -47 142 -57 162 -97 203 l-45 47 23 31 23 31 -30
31 c-16 17 -54 44 -84 59 -65 33 -99 68 -133 135 -14 28 -41 66 -61 84 -20 19
-36 38 -36 43 0 4 17 16 38 27 69 36 89 67 117 184 27 114 104 285 145 322 21
19 90 144 90 163 0 5 -27 21 -59 37 -33 15 -79 48 -103 72 l-42 43 26 54 27
55 -42 24 c-23 14 -96 52 -162 85 l-120 60 -202 204 c-198 199 -203 205 -226
273 l-24 70 23 50 c13 28 23 55 23 60 1 6 -33 47 -75 93 -66 71 -80 82 -109
82 -25 0 -35 -5 -40 -20z m156 -198 c-27 -52 -26 -63 4 -151 24 -71 29 -78
229 -285 l205 -212 150 -78 151 -77 -25 -48 -24 -49 67 -64 c37 -36 82 -73
100 -82 17 -9 32 -19 32 -22 0 -14 -41 -82 -60 -99 -40 -36 -127 -226 -155
-336 -27 -107 -60 -160 -108 -175 -11 -3 -35 -15 -54 -27 l-35 -20 60 -61 c33
-34 72 -86 87 -116 36 -72 59 -96 125 -130 30 -15 63 -37 72 -47 17 -19 17
-21 -7 -43 l-25 -23 58 -61 c56 -59 60 -66 105 -207 50 -158 54 -174 35 -167
-7 3 -37 13 -67 23 l-53 17 -26 -25 -25 -26 -46 24 c-25 13 -59 37 -75 54
l-30 31 -35 -34 c-23 -22 -61 -42 -106 -56 -83 -27 -176 -72 -194 -94 -20 -24
-38 -19 -68 20 -15 19 -50 47 -77 60 l-48 25 23 25 23 24 -30 31 c-16 17 -51
42 -79 56 -27 14 -69 43 -91 65 l-42 40 -23 -32 c-30 -41 -151 -104 -168 -87
-8 8 -18 4 -40 -17 l-29 -28 -43 22 c-24 13 -56 37 -71 54 l-26 31 -24 -22
c-51 -48 -68 -22 -32 48 l26 52 -91 91 -90 90 -30 -28 -29 -28 -48 25 -49 25
-49 -25 -49 -25 -52 52 -52 52 -114 -57 c-63 -32 -122 -64 -132 -73 -16 -14
-19 -13 -42 8 l-25 23 -25 -23 c-19 -18 -27 -20 -39 -11 -21 17 23 183 58 220
32 33 32 37 0 136 -20 63 -34 88 -65 117 -35 32 -38 39 -28 60 8 19 28 30 82
47 59 19 82 33 128 78 53 51 62 56 155 79 115 29 148 54 196 148 l29 58 -26
28 -27 28 26 50 25 50 -24 73 c-14 40 -24 73 -22 74 1 2 21 12 44 24 34 17 49
34 72 79 16 31 43 70 60 86 l31 30 -34 35 c-23 25 -42 62 -60 117 -22 67 -35
88 -77 130 -28 27 -64 76 -81 108 l-30 59 150 150 150 150 29 -24 c16 -13 53
-35 81 -48 l53 -25 82 81 c80 80 84 82 164 103 113 28 130 36 138 61 7 20 13
16 77 -48 l70 -70 -21 -41z"/>
</g>
</svg>
