<?xml version="1.0" standalone="no"?>
<!DOCTYPE svg PUBLIC "-//W3C//DTD SVG 20010904//EN"
 "http://www.w3.org/TR/2001/REC-SVG-20010904/DTD/svg10.dtd">
<svg version="1.0" xmlns="http://www.w3.org/2000/svg"
 width="3000.000000pt" height="4000.000000pt" viewBox="0 0 3000.000000 4000.000000"
 preserveAspectRatio="xMidYMid meet">
<metadata>
Created by potrace 1.16, written by Peter Selinger 2001-2019
</metadata>
<g transform="translate(0.000000,4000.000000) scale(0.100000,-0.100000)"
fill="#000000" stroke="none">
<path d="M15547 16492 l-88 -89 27 -56 28 -56 -24 -51 -24 -51 24 -72 c13 -40
27 -94 31 -122 6 -48 5 -52 -27 -86 -34 -35 -35 -35 -14 -54 11 -10 20 -23 20
-29 0 -6 -31 -43 -70 -81 -38 -38 -70 -74 -70 -80 0 -6 14 -24 31 -41 17 -16
40 -46 51 -68 l20 -38 -28 -29 -28 -29 56 -58 c54 -55 98 -125 98 -156 0 -37
-34 -84 -75 -104 l-42 -20 -54 54 -53 54 -34 -33 c-19 -17 -47 -59 -64 -92
-21 -41 -65 -95 -136 -167 -100 -102 -105 -109 -89 -126 23 -26 22 -29 -20
-51 -21 -10 -46 -28 -57 -40 l-18 -20 -39 20 c-29 14 -46 34 -68 77 -45 88
-121 155 -206 182 -47 15 -82 34 -107 58 l-38 36 -31 -30 c-17 -16 -46 -60
-65 -97 -19 -37 -42 -71 -50 -74 -8 -3 -25 4 -37 15 -31 28 -108 65 -204 96
l-81 27 -59 -29 c-32 -16 -88 -39 -125 -51 l-66 -22 -99 50 c-124 61 -134 73
-102 107 l23 25 -39 38 c-35 34 -53 42 -149 65 l-109 27 -22 -21 c-20 -19 -23
-19 -35 -5 -15 19 -123 75 -142 75 -7 0 -21 -11 -33 -25 l-20 -25 -103 27
-103 26 -32 -31 c-18 -16 -51 -39 -73 -50 l-41 -21 -29 30 -28 29 -53 -52 -53
-52 -50 49 -50 49 -25 -24 -25 -24 -35 34 -35 34 25 26 c14 14 25 29 25 33 0
4 -24 19 -52 33 -29 15 -70 42 -90 60 -21 18 -61 45 -89 60 l-52 26 -60 -28
c-56 -27 -117 -82 -117 -105 0 -25 34 -129 63 -192 l30 -68 -23 -75 c-27 -85
-42 -103 -66 -83 -14 11 -19 10 -36 -11 -40 -49 -68 -118 -68 -167 0 -42 5
-52 42 -90 l42 -43 -24 -25 -23 -25 23 -25 24 -25 -48 -49 -49 -49 28 -114 27
-113 151 -152 151 -152 -21 -23 c-25 -27 -75 -126 -71 -138 2 -5 34 -41 72
-80 l69 -71 -31 -32 -32 -33 88 -28 c133 -44 179 -71 277 -165 57 -55 109 -95
143 -111 l53 -24 78 78 78 78 52 -27 53 -26 41 38 c23 21 57 45 76 53 30 12
40 11 112 -12 l78 -26 90 91 90 92 -24 25 -25 26 24 23 25 24 -31 61 c-17 33
-42 93 -54 131 l-23 70 97 98 c88 89 103 99 164 119 80 26 85 23 129 -64 25
-50 37 -62 87 -87 31 -16 81 -54 111 -85 l54 -55 36 32 c20 18 55 41 79 51 41
19 43 19 82 1 23 -10 76 -54 118 -98 44 -45 99 -90 127 -104 28 -14 77 -51
110 -83 33 -31 81 -67 105 -80 25 -12 81 -58 126 -102 l81 -79 114 -30 114
-29 106 109 c99 101 110 110 175 131 38 12 82 31 97 42 46 32 52 12 24 -78
l-25 -79 28 -55 c15 -30 38 -64 50 -75 12 -11 37 -49 55 -85 18 -36 49 -80 68
-99 l36 -34 56 114 c31 63 70 128 85 144 16 17 52 77 80 135 43 87 66 119 131
185 66 68 86 96 128 185 27 58 58 113 68 122 18 17 23 16 96 -10 l76 -27 81
80 c53 52 92 101 112 140 16 33 43 74 59 91 29 30 29 30 9 49 -11 10 -20 23
-20 29 0 6 21 32 47 58 l47 48 -29 30 -28 30 18 62 c16 55 30 74 100 148 l82
85 27 107 c14 59 26 114 26 121 0 8 -19 19 -42 26 -88 27 -92 30 -76 49 8 9
23 58 32 107 26 134 24 130 48 108 20 -18 21 -17 54 21 21 24 44 71 62 126
l30 88 -21 21 c-19 19 -19 22 -5 38 9 10 30 47 48 82 l32 64 -44 38 -43 37
-26 -25 -27 -25 -43 22 c-24 13 -56 37 -71 54 l-26 31 -24 -22 c-51 -48 -68
-22 -32 48 l26 52 -91 91 -90 90 -30 -28 -29 -28 -48 25 -49 25 -49 -25 -49
-25 -52 52 -52 52 -114 -57 c-63 -32 -122 -64 -132 -73 -16 -14 -19 -13 -42 8
l-25 23 -25 -23 c-19 -18 -27 -20 -39 -11 -21 17 23 183 58 220 14 15 26 34
26 42 0 37 -55 176 -79 200 -14 15 -65 40 -114 58 -48 17 -89 31 -90 31 -1 0
-42 -40 -90 -88z m260 -34 c13 -12 33 -52 45 -90 l22 -68 -24 -25 c-16 -17
-31 -59 -50 -137 l-28 -113 39 -40 38 -39 26 24 25 23 25 -23 25 -24 38 36
c20 20 78 56 128 81 l91 46 51 -52 52 -51 52 25 53 26 52 -25 53 -26 25 24
c14 13 26 22 28 19 2 -2 29 -32 62 -67 l58 -62 -23 -50 -24 -50 39 -40 39 -40
26 25 c24 23 28 24 40 10 7 -9 42 -32 77 -52 l64 -35 25 23 c18 17 27 20 36
11 16 -16 -8 -68 -56 -120 l-39 -43 28 -29 29 -30 -22 -69 c-30 -94 -44 -103
-86 -62 l-33 32 -29 -148 c-26 -135 -32 -151 -63 -186 -19 -21 -32 -39 -30
-41 2 -2 36 -13 74 -26 39 -12 73 -25 77 -29 4 -3 -2 -44 -14 -91 -20 -83 -22
-87 -98 -165 -73 -75 -80 -86 -106 -168 l-28 -87 22 -22 22 -22 -52 -53 -52
-53 27 -28 27 -29 -21 -19 c-12 -10 -32 -41 -44 -69 -14 -31 -51 -78 -97 -123
l-74 -72 -74 25 -74 25 -34 -32 c-19 -18 -57 -78 -84 -133 -39 -76 -71 -122
-134 -191 -67 -73 -93 -111 -128 -185 -24 -52 -54 -103 -66 -114 -12 -11 -45
-64 -72 -119 -47 -93 -50 -97 -67 -82 -10 9 -26 36 -36 59 -10 23 -32 56 -48
73 -16 18 -39 54 -51 80 l-23 49 26 77 25 78 -39 40 -39 40 -36 -34 c-23 -22
-59 -41 -105 -56 -65 -21 -78 -30 -175 -126 l-105 -104 -90 25 c-87 24 -91 27
-170 104 -44 43 -100 89 -125 101 -25 12 -70 46 -100 74 -30 29 -77 65 -105
81 -27 15 -88 65 -135 110 -47 45 -109 94 -137 109 l-53 26 -57 -29 c-32 -16
-67 -38 -77 -50 l-19 -21 -56 53 c-31 29 -74 60 -96 70 -31 14 -44 28 -58 60
-10 23 -34 61 -55 84 l-37 42 -86 -30 c-83 -29 -89 -34 -197 -142 l-112 -113
28 -84 c16 -47 39 -105 51 -129 l23 -43 -28 -29 -28 -29 22 -23 c12 -13 22
-28 22 -33 0 -5 -27 -36 -60 -69 l-59 -59 -76 24 -75 23 -52 -24 c-29 -13 -65
-35 -81 -48 l-28 -24 -50 23 -50 24 -78 -78 -78 -78 -39 20 c-22 11 -73 55
-114 97 -77 79 -124 109 -243 155 -68 26 -68 26 -47 45 l21 19 -82 82 -81 81
22 44 c12 24 36 58 52 76 l31 32 -160 166 -159 165 -22 92 -23 92 56 56 55 56
-27 27 -27 27 27 28 27 28 -50 49 c-42 42 -50 55 -50 87 0 37 27 108 41 108 4
0 11 -5 15 -11 4 -7 21 4 46 28 30 30 44 56 65 121 l26 83 -31 67 c-46 103
-68 180 -56 200 6 9 34 30 62 45 l51 28 48 -25 c26 -13 57 -34 68 -46 11 -12
37 -31 58 -41 42 -22 43 -25 20 -51 -16 -18 -14 -22 50 -86 l66 -66 26 24 26
24 52 -52 52 -52 52 52 52 51 19 -24 20 -23 53 24 c30 14 68 38 86 54 l33 28
103 -25 102 -26 24 24 24 24 46 -24 c25 -13 59 -37 75 -54 l30 -31 30 29 31
30 94 -24 c118 -30 131 -41 97 -82 l-25 -30 32 -31 c18 -17 81 -56 141 -88
l109 -57 86 28 c47 15 107 38 133 52 l46 25 69 -22 c94 -31 173 -72 207 -109
l30 -31 34 32 c19 18 47 58 62 89 39 76 54 88 83 62 12 -11 54 -31 92 -43 86
-27 165 -97 201 -178 21 -47 30 -55 89 -84 l65 -32 37 36 c21 20 62 48 92 63
l53 27 -28 29 -28 29 96 98 c53 53 106 117 118 142 12 25 32 55 43 68 l21 22
50 -49 51 -50 60 33 c51 27 65 42 92 91 l31 59 -30 61 c-16 33 -50 81 -74 106
l-44 45 24 23 25 24 -34 66 c-18 37 -41 73 -50 81 -14 12 -8 21 62 92 l78 78
-28 27 -27 27 52 53 52 53 -32 33 c-19 20 -41 60 -56 102 l-23 70 25 52 25 51
-22 53 -22 53 67 67 67 67 66 -25 c36 -13 76 -34 88 -45z"/>
</g>
</svg>
