<?xml version="1.0" standalone="no"?>
<!DOCTYPE svg PUBLIC "-//W3C//DTD SVG 20010904//EN"
 "http://www.w3.org/TR/2001/REC-SVG-20010904/DTD/svg10.dtd">
<svg version="1.0" xmlns="http://www.w3.org/2000/svg"
 width="3000.000000pt" height="4000.000000pt" viewBox="0 0 3000.000000 4000.000000"
 preserveAspectRatio="xMidYMid meet">
<metadata>
Created by potrace 1.16, written by Peter Selinger 2001-2019
</metadata>
<g transform="translate(0.000000,4000.000000) scale(0.100000,-0.100000)"
fill="#000000" stroke="none">
<path d="M14375 19720 c-14 -28 -28 -50 -31 -50 -2 0 -22 9 -43 20 -64 32
-127 44 -169 32 -44 -14 -58 -34 -87 -129 l-23 -72 45 -27 45 -26 -70 -72
c-99 -100 -133 -179 -94 -218 9 -9 6 -18 -13 -38 l-25 -26 95 -94 94 -94 26
24 25 24 50 -49 49 -49 53 25 c29 13 65 35 81 48 l28 24 35 -34 34 -33 -52
-53 -52 -53 102 -103 c56 -56 102 -108 102 -115 0 -7 -22 -57 -50 -112 -27
-54 -46 -101 -42 -103 4 -2 25 -10 47 -17 22 -7 49 -19 60 -26 11 -8 29 -14
40 -14 13 0 58 -40 126 -112 l107 -113 25 23 c25 24 25 24 36 4 16 -29 14 -43
-9 -67 -14 -15 -26 -60 -45 -175 l-25 -155 -81 -81 -81 -81 36 -70 c37 -74 72
-111 140 -145 22 -11 55 -33 71 -48 26 -24 167 -80 201 -80 6 0 19 18 29 40
21 46 25 48 50 20 18 -20 19 -20 68 35 54 61 133 106 252 145 82 26 108 47
142 114 l24 48 26 -23 25 -24 65 69 65 68 -26 27 -26 27 75 74 c57 57 73 79
69 95 -3 13 2 28 16 40 21 19 22 19 116 -28 52 -26 99 -47 105 -47 6 0 89 80
183 177 l173 177 29 -24 c17 -14 54 -36 82 -49 l53 -25 82 81 82 82 99 25 c54
13 102 28 107 33 4 4 22 35 38 68 l30 60 -62 32 c-98 49 -100 54 -38 117 l51
52 -25 24 c-14 13 -23 31 -21 39 13 42 -95 105 -244 142 -63 15 -93 29 -120
53 -19 17 -50 38 -68 45 l-33 14 22 23 22 24 -64 68 c-35 38 -73 80 -84 95
-26 34 -35 33 -71 -4 -16 -17 -50 -42 -76 -55 l-48 -24 -47 24 c-27 13 -61 38
-77 55 l-30 31 -35 -34 c-30 -28 -53 -38 -131 -56 l-95 -23 -130 27 -129 26
-52 -51 -51 -51 -39 20 c-22 11 -77 59 -124 106 l-84 86 -23 -22 c-25 -24 -25
-24 -45 15 -12 25 -11 45 12 190 18 111 23 164 16 168 -6 3 -48 19 -94 35
l-83 29 -101 -103 c-102 -103 -102 -103 -132 -90 -17 7 -50 30 -74 52 l-43 39
-22 -21 c-29 -27 -35 -27 -64 0 l-23 21 -25 -23 -25 -24 -30 29 c-36 35 -37
42 -5 75 l25 26 -75 37 -75 37 -25 -50z m77 -31 c20 -11 20 -11 0 -32 l-20
-22 64 -70 63 -70 29 28 28 27 24 -25 24 -25 26 25 c23 22 29 24 39 11 7 -8
42 -31 78 -51 l66 -36 106 105 106 106 54 -17 c29 -10 56 -24 59 -31 2 -7 -6
-76 -18 -153 l-23 -141 33 -69 34 -69 28 27 28 27 73 -71 c42 -42 97 -84 132
-101 l60 -30 55 53 55 54 124 -26 125 -25 105 27 c61 16 115 36 128 47 l22 21
28 -24 c16 -13 50 -35 75 -49 l46 -24 53 24 c30 14 68 38 86 53 l32 28 12 -23
c6 -13 30 -42 52 -65 l41 -43 -28 -29 -28 -30 63 -31 c35 -18 78 -45 94 -60
22 -22 56 -35 134 -55 100 -25 201 -67 201 -83 0 -4 -5 -13 -10 -18 -7 -7 -2
-18 15 -34 l25 -24 -52 -53 -52 -53 29 -31 c17 -17 46 -39 65 -50 64 -34 63
-32 44 -72 -16 -33 -22 -36 -119 -62 l-103 -28 -73 -73 -72 -73 -46 24 c-25
13 -59 37 -74 53 l-29 30 -181 -185 -182 -184 -102 53 -101 53 -26 -24 c-24
-22 -27 -23 -43 -8 -15 13 -21 13 -36 2 -18 -13 -17 -15 3 -55 l22 -43 -76
-76 c-42 -42 -76 -81 -76 -86 0 -5 10 -19 22 -32 l22 -23 -34 -35 -34 -35 -28
27 c-15 14 -30 25 -32 22 -2 -2 -17 -31 -34 -64 -40 -79 -62 -98 -153 -128
-111 -37 -157 -63 -217 -121 l-53 -51 -20 28 c-12 15 -25 27 -30 27 -5 0 -21
-24 -36 -54 l-26 -54 -61 20 c-34 12 -74 33 -91 48 -16 15 -53 39 -81 53 -56
28 -103 76 -123 126 l-14 32 72 73 72 72 25 155 c23 134 30 159 55 191 l30 37
-36 72 -36 71 -30 -28 -29 -28 -98 97 c-84 84 -105 99 -159 118 -35 11 -63 25
-63 30 0 5 21 50 46 101 l46 91 -96 96 c-53 53 -96 101 -96 106 0 5 21 31 47
57 l47 48 -69 70 -69 69 -40 -37 c-23 -21 -56 -44 -74 -51 -33 -14 -34 -14
-88 40 l-54 54 -25 -30 -25 -30 -60 64 -61 64 26 27 25 26 -25 24 c-14 13 -25
30 -25 37 0 32 37 83 121 169 l90 90 -51 24 c-28 13 -54 28 -56 32 -3 4 5 40
18 79 l23 71 40 -6 c22 -4 77 -24 121 -45 l82 -39 22 49 c25 52 30 55 62 38z"/>
</g>
</svg>
