<?xml version="1.0" standalone="no"?>
<!DOCTYPE svg PUBLIC "-//W3C//DTD SVG 20010904//EN"
 "http://www.w3.org/TR/2001/REC-SVG-20010904/DTD/svg10.dtd">
<svg version="1.0" xmlns="http://www.w3.org/2000/svg"
 width="3000.000000pt" height="4000.000000pt" viewBox="0 0 3000.000000 4000.000000"
 preserveAspectRatio="xMidYMid meet">
<metadata>
Created by potrace 1.16, written by Peter Selinger 2001-2019
</metadata>
<g transform="translate(0.000000,4000.000000) scale(0.100000,-0.100000)"
fill="#000000" stroke="none">
<path d="M13856 10033 c-32 -100 -86 -212 -112 -234 -9 -8 -42 -27 -73 -44
-74 -40 -87 -76 -46 -129 l28 -37 -18 -39 c-10 -21 -29 -49 -42 -62 -14 -13
-40 -53 -58 -89 l-34 -66 75 -23 c42 -13 78 -28 80 -32 3 -5 -4 -68 -16 -141
-15 -95 -30 -151 -52 -200 l-32 -67 26 -27 27 -26 -25 -50 -25 -49 22 -24 23
-24 -52 -53 -52 -53 27 -26 27 -27 -23 -25 -23 -25 27 -80 27 -81 -22 -67
c-13 -38 -35 -81 -50 -98 -26 -29 -98 -220 -87 -231 8 -8 129 56 159 83 28 26
41 27 104 3 l27 -11 -35 -37 c-29 -30 -118 -186 -118 -207 0 -3 31 12 69 32
l69 38 24 -22 c12 -12 52 -29 88 -38 150 -38 138 -31 167 -90 21 -42 32 -55
49 -55 18 0 26 11 42 60 23 67 23 67 -8 163 -18 54 -19 71 -10 82 7 8 10 15 6
15 -4 0 1 11 10 24 10 16 42 35 87 52 40 15 78 34 85 41 24 23 52 34 73 28 11
-4 50 -8 87 -10 37 -2 67 -4 67 -5 0 -1 22 -3 49 -6 27 -2 55 -9 63 -15 11 -9
18 -7 36 9 22 21 23 21 42 3 11 -11 66 -31 124 -46 58 -14 130 -38 160 -53 35
-17 68 -26 89 -24 28 3 36 10 58 55 14 29 52 79 85 112 l59 60 -127 133 -126
133 22 23 21 22 -26 78 -26 77 28 30 28 29 -24 25 -23 25 22 24 23 24 -23 31
-23 32 35 35 36 35 56 -27 c31 -15 58 -26 59 -23 9 12 69 206 68 220 0 8 -11
26 -25 39 l-25 24 27 28 27 28 -29 30 -29 30 24 50 23 50 -23 50 -23 49 26 58
26 57 -67 37 -67 37 -26 -24 c-24 -23 -27 -23 -39 -9 -8 9 -37 28 -64 42 -28
14 -68 41 -89 61 l-37 36 -88 -86 -87 -86 -92 -22 -92 -22 -68 22 c-82 27
-150 87 -193 170 -15 30 -40 66 -54 79 -15 14 -26 35 -26 51 0 14 -6 35 -14
45 -13 18 -11 22 25 43 21 13 39 27 39 31 0 22 -48 45 -126 61 -73 15 -91 23
-123 54 l-37 36 -28 -87z m157 -44 c37 -7 67 -15 67 -19 0 -3 -16 -14 -36 -24
l-37 -17 37 -37 c22 -24 36 -48 36 -63 0 -15 11 -36 26 -50 15 -13 36 -44 47
-69 11 -25 44 -73 73 -106 49 -56 61 -64 142 -93 l88 -32 110 27 109 27 73 72
c60 59 74 69 84 58 7 -8 37 -27 67 -43 31 -15 69 -42 85 -59 36 -37 46 -38 75
-7 22 24 24 24 56 9 l34 -16 -23 -46 -24 -45 26 -53 26 -53 -27 -56 -28 -57
22 -23 22 -24 -23 -25 -24 -25 37 -38 36 -37 -27 -76 -27 -77 -45 23 -45 24
-67 -67 -68 -66 25 -26 25 -26 -25 -24 -25 -24 27 -28 27 -28 -23 -24 -23 -25
26 -77 26 -78 -30 -31 -30 -31 125 -124 c69 -69 125 -129 125 -135 0 -6 -18
-29 -41 -50 -22 -22 -52 -62 -66 -90 -14 -27 -27 -51 -28 -53 -2 -2 -30 10
-64 27 -33 17 -108 44 -166 60 -82 22 -109 34 -126 55 -26 33 -36 33 -71 -1
l-27 -26 -153 26 -153 26 -30 -29 c-19 -18 -61 -40 -106 -55 l-75 -25 -30 -62
-31 -62 25 -77 c21 -62 24 -83 16 -110 l-10 -34 -22 41 c-20 40 -23 41 -124
68 -78 21 -111 35 -134 58 -28 26 -35 28 -54 18 -44 -24 -31 1 40 74 50 52 68
77 59 81 -8 3 -53 18 -101 34 l-86 29 -24 -25 c-20 -22 -68 -53 -82 -53 -12 0
25 83 52 118 16 20 41 72 55 114 l26 78 -24 77 -24 78 26 27 27 28 -24 25 -24
25 52 53 52 53 -29 28 -30 28 27 54 26 54 -26 27 -27 26 23 46 c26 52 84 368
70 381 -5 4 -34 15 -64 25 -30 10 -59 21 -63 25 -11 10 24 79 53 105 12 11 37
50 56 87 l34 68 -40 20 c-35 18 -39 23 -30 40 6 11 32 31 58 44 26 13 60 37
75 54 31 32 74 117 101 199 17 50 18 52 39 38 12 -7 52 -19 90 -26z"/>
</g>
</svg>
