<?xml version="1.0" standalone="no"?>
<!DOCTYPE svg PUBLIC "-//W3C//DTD SVG 20010904//EN"
 "http://www.w3.org/TR/2001/REC-SVG-20010904/DTD/svg10.dtd">
<svg version="1.0" xmlns="http://www.w3.org/2000/svg"
 width="3000.000000pt" height="4000.000000pt" viewBox="0 0 3000.000000 4000.000000"
 preserveAspectRatio="xMidYMid meet">
<metadata>
Created by potrace 1.16, written by Peter Selinger 2001-2019
</metadata>
<g transform="translate(0.000000,4000.000000) scale(0.100000,-0.100000)"
fill="#000000" stroke="none">
<path d="M13909 26104 c-23 -23 -44 -28 -194 -50 l-169 -24 -28 27 -28 27 -84
-27 c-79 -26 -89 -33 -157 -102 l-73 -75 -29 27 -29 28 -99 -105 -98 -105 -71
70 c-62 61 -73 78 -95 145 -19 56 -36 86 -64 114 l-38 37 -76 -82 -76 -83 -76
27 -76 27 -57 -29 c-31 -16 -66 -38 -76 -50 -11 -12 -29 -21 -40 -21 -12 0
-32 -7 -44 -16 -20 -13 -22 -21 -16 -62 5 -46 4 -48 -40 -91 l-45 -44 -100 25
-100 25 -36 -37 -37 -37 32 -64 c18 -35 39 -72 48 -82 14 -16 13 -19 -8 -42
l-24 -25 31 -33 c23 -24 43 -70 80 -182 l50 -150 -27 -107 c-27 -105 -27 -108
-9 -124 24 -22 24 -36 0 -58 -19 -17 -18 -21 36 -184 52 -158 58 -170 107
-221 52 -54 158 -113 255 -142 33 -10 47 -21 59 -46 11 -23 23 -33 38 -33 33
0 125 21 161 36 43 19 67 17 89 -7 10 -12 44 -34 75 -49 77 -39 85 -51 54 -80
l-25 -24 53 -55 c29 -31 63 -68 77 -83 l23 -28 -20 -22 c-15 -18 -26 -62 -46
-183 l-26 -160 22 -86 c12 -47 32 -97 44 -112 l21 -28 47 48 46 48 16 -22 c20
-29 28 -29 104 6 50 22 101 34 229 51 146 19 168 25 192 47 l26 25 54 -17 c29
-9 88 -33 131 -53 l77 -35 23 21 23 22 24 -25 24 -26 78 78 77 77 24 -22 23
-22 51 27 52 28 28 -27 c15 -14 75 -49 132 -78 l103 -51 28 26 27 26 103 -26
103 -26 23 22 24 22 25 -23 25 -23 25 23 25 24 48 -47 c37 -37 65 -53 125 -73
42 -14 77 -30 77 -35 0 -18 37 -8 105 27 89 47 120 76 155 144 37 73 67 99
175 153 l90 45 90 -45 c50 -25 107 -61 128 -81 l37 -36 70 69 70 70 -81 81
-81 81 26 50 25 50 -28 27 c-15 15 -38 49 -51 76 -23 50 -23 50 -4 92 10 24
45 71 78 106 l60 63 -89 89 c-82 82 -95 92 -164 115 -61 20 -86 36 -131 79
-44 43 -69 58 -125 76 -39 13 -83 35 -100 51 -22 20 -56 34 -129 53 -124 31
-142 48 -180 170 l-28 88 -57 -56 -57 -56 -24 25 -24 25 -27 -26 c-15 -14 -32
-23 -38 -19 -6 3 -25 34 -42 68 -17 34 -51 83 -75 108 l-44 45 77 75 c43 41
97 83 121 93 34 16 44 26 51 55 14 52 14 62 6 98 -9 38 -24 45 -62 31 -25 -9
-39 -5 -118 35 -50 25 -106 61 -124 81 l-35 36 -28 -27 c-57 -54 -57 5 -1 152
2 6 -17 21 -43 33 l-47 23 22 23 22 23 -27 32 c-15 18 -52 45 -83 61 -31 15
-78 52 -106 80 -27 28 -75 65 -106 80 -50 26 -235 80 -271 80 -7 0 -25 -12
-39 -26z m143 -45 c106 -27 183 -67 238 -124 25 -26 70 -59 100 -75 30 -15 63
-37 72 -47 17 -19 17 -21 -7 -43 -14 -13 -25 -26 -25 -30 0 -4 23 -17 50 -30
28 -13 50 -28 50 -33 0 -6 -10 -41 -22 -79 l-22 -68 39 -40 39 -40 26 25 c25
24 28 24 40 9 8 -8 66 -42 130 -74 90 -45 120 -56 134 -48 24 14 29 6 19 -33
-7 -26 -20 -40 -57 -60 -26 -14 -88 -66 -137 -115 l-89 -89 64 -65 c35 -36 75
-87 89 -115 14 -27 39 -63 56 -79 l31 -30 25 24 26 24 26 -27 27 -27 47 46 47
46 22 -66 c30 -92 60 -115 185 -145 74 -17 108 -30 130 -51 17 -15 64 -39 105
-54 58 -21 87 -39 130 -81 45 -43 69 -57 127 -76 63 -20 81 -31 140 -91 l67
-68 -50 -52 c-28 -29 -61 -77 -74 -105 l-23 -53 24 -52 c13 -29 35 -65 48 -81
l24 -29 -26 -52 -25 -53 73 -73 74 -73 -26 -34 c-28 -36 -39 -40 -62 -19 -9 7
-65 40 -125 72 l-109 58 -104 -53 c-127 -65 -157 -89 -190 -155 -33 -67 -77
-112 -138 -143 -27 -14 -53 -31 -57 -37 -6 -8 -8 -8 -8 1 0 6 -35 23 -78 37
-67 23 -86 35 -137 86 l-59 60 -28 -27 -28 -27 -25 24 -25 24 -29 -28 -28 -27
-103 26 -103 26 -25 -25 -25 -25 -96 49 c-53 26 -109 62 -125 79 l-29 30 -50
-25 -49 -26 -29 28 -29 28 -78 -77 -77 -77 -26 25 -25 25 -28 -29 -29 -30 -56
28 c-31 16 -89 39 -128 52 l-73 23 -29 -28 c-27 -26 -44 -30 -212 -55 -125
-19 -197 -34 -225 -48 l-41 -22 -26 27 -27 26 -44 -43 c-24 -23 -46 -39 -48
-34 -3 4 -13 41 -23 81 -17 72 -17 76 6 220 22 136 26 150 56 182 l32 35 -77
77 -76 77 22 24 c12 13 22 28 22 34 0 16 -64 70 -113 94 -23 12 -57 35 -75 52
l-32 31 -113 -27 c-61 -15 -115 -27 -118 -27 -4 0 -10 11 -13 24 -5 20 -21 29
-88 52 -118 38 -166 65 -225 126 -49 49 -56 64 -98 188 -25 74 -45 141 -45
149 0 8 11 27 25 41 l25 26 -29 28 -28 27 25 102 25 102 -52 160 c-29 88 -62
170 -74 183 l-21 22 27 28 27 28 -31 30 c-17 16 -41 50 -54 75 -21 41 -22 48
-9 61 14 13 27 12 120 -11 l104 -25 59 58 60 59 -6 50 c-6 47 -5 50 15 45 14
-4 28 2 44 19 13 14 47 37 77 53 l54 27 79 -26 78 -25 75 74 c88 88 91 87 131
-33 24 -77 32 -88 112 -170 l87 -87 102 102 102 102 26 -24 26 -24 87 86 c75
74 96 88 151 107 l65 21 25 -24 26 -25 187 27 c160 23 191 30 210 50 27 27 30
27 130 1z"/>
</g>
</svg>
