<?xml version="1.0" standalone="no"?>
<!DOCTYPE svg PUBLIC "-//W3C//DTD SVG 20010904//EN"
 "http://www.w3.org/TR/2001/REC-SVG-20010904/DTD/svg10.dtd">
<svg version="1.0" xmlns="http://www.w3.org/2000/svg"
 width="3000.000000pt" height="4000.000000pt" viewBox="0 0 3000.000000 4000.000000"
 preserveAspectRatio="xMidYMid meet">
<metadata>
Created by potrace 1.16, written by Peter Selinger 2001-2019
</metadata>
<g transform="translate(0.000000,4000.000000) scale(0.100000,-0.100000)"
fill="#000000" stroke="none">
<path d="M6188 8612 c-92 -32 -119 -56 -163 -142 -21 -41 -58 -90 -102 -132
-67 -66 -69 -67 -171 -93 -59 -15 -143 -45 -197 -73 l-95 -46 -53 52 c-53 52
-53 53 -72 32 -10 -11 -28 -20 -41 -20 -21 0 -23 -5 -26 -52 -3 -47 -6 -53
-25 -53 -34 0 -108 -67 -110 -99 0 -16 -14 -42 -33 -61 l-32 -33 27 -84 c16
-48 39 -96 55 -113 16 -16 51 -76 79 -131 52 -107 71 -127 140 -159 l43 -19
47 54 47 54 47 -14 c56 -15 65 -25 43 -49 -15 -16 -15 -19 4 -36 28 -25 26
-36 -20 -80 -37 -36 -39 -40 -24 -56 16 -17 19 -17 64 6 26 13 94 36 151 50
97 25 107 30 155 76 l51 50 89 -22 c84 -20 92 -25 149 -80 l60 -59 28 27 27
27 54 -26 53 -27 32 33 c21 22 54 39 104 55 60 19 82 33 132 81 33 32 80 68
105 80 25 12 55 31 67 43 l22 20 58 -25 c32 -14 100 -36 151 -48 89 -22 94
-24 140 -76 l48 -54 140 28 139 28 30 57 c17 31 44 70 60 87 l30 31 -25 20
c-14 11 -41 28 -60 38 -19 11 -45 30 -58 44 -13 13 -41 33 -63 42 l-39 18 22
24 21 23 -21 23 c-12 13 -22 28 -22 33 0 6 19 28 41 49 27 27 60 78 96 153 31
62 66 121 80 131 l24 19 -20 33 -20 33 24 26 25 26 -95 94 -95 94 -30 -29 -30
-29 -156 25 -155 26 -84 -91 -84 -90 19 -21 c25 -27 25 -33 -2 -62 l-21 -23
23 -25 23 -24 -29 -35 c-34 -41 -43 -42 -92 -17 -60 31 -294 277 -322 339 -13
28 -26 52 -30 52 -4 0 -17 -11 -30 -25 -27 -29 -39 -31 -66 -11 -19 14 -19 15
5 40 14 14 23 27 20 29 -7 6 -188 67 -196 66 -4 0 -43 -13 -85 -27z m145 -38
c26 -9 47 -19 47 -23 0 -5 -9 -16 -21 -27 -20 -18 -20 -18 53 -55 l73 -37 22
20 21 20 19 -35 c10 -20 77 -98 149 -174 107 -113 142 -143 193 -168 l62 -29
67 67 67 67 -28 27 -27 27 25 26 25 26 -25 24 -26 24 66 66 66 66 154 -25 154
-25 24 22 23 22 57 -58 c31 -32 57 -62 57 -67 0 -5 -10 -19 -22 -32 l-21 -23
23 -25 23 -25 -20 -22 c-12 -13 -44 -70 -73 -128 -36 -74 -68 -122 -106 -161
l-54 -55 25 -24 c22 -20 23 -25 11 -39 -23 -26 -9 -67 27 -82 18 -8 48 -27 67
-44 19 -17 52 -42 73 -54 20 -12 37 -24 37 -26 0 -2 -10 -20 -22 -38 -13 -19
-30 -48 -39 -63 -14 -27 -24 -31 -129 -51 l-115 -23 -51 51 c-48 48 -57 52
-160 78 -60 15 -133 40 -163 55 l-54 28 -36 -35 c-20 -19 -58 -46 -86 -60 -27
-14 -71 -47 -96 -75 -39 -42 -58 -53 -126 -76 -44 -15 -88 -35 -98 -46 -17
-19 -18 -19 -67 6 l-50 25 -24 -22 -24 -23 -48 46 c-44 42 -55 47 -161 73
l-115 28 -50 -55 c-47 -51 -57 -57 -121 -72 -38 -9 -79 -19 -89 -23 -14 -4
-18 -1 -13 10 3 9 -5 25 -19 38 l-24 23 31 32 31 32 -101 33 -101 33 -50 -49
-49 -48 -41 18 c-37 17 -47 29 -92 119 -27 56 -62 115 -78 131 -15 17 -37 59
-49 94 l-21 65 23 25 c12 15 33 49 47 76 14 28 26 52 27 54 2 2 9 -1 16 -7 10
-9 21 -4 48 24 19 19 33 38 32 42 -4 14 10 52 23 63 12 10 24 3 65 -37 l49
-48 118 57 c70 35 155 68 211 82 94 24 94 24 173 102 47 46 91 101 108 133 37
73 69 101 143 127 77 27 73 26 130 7z"/>
</g>
</svg>
