<?xml version="1.0" standalone="no"?>
<!DOCTYPE svg PUBLIC "-//W3C//DTD SVG 20010904//EN"
 "http://www.w3.org/TR/2001/REC-SVG-20010904/DTD/svg10.dtd">
<svg version="1.0" xmlns="http://www.w3.org/2000/svg"
 width="3000.000000pt" height="4000.000000pt" viewBox="0 0 3000.000000 4000.000000"
 preserveAspectRatio="xMidYMid meet">
<metadata>
Created by potrace 1.16, written by Peter Selinger 2001-2019
</metadata>
<g transform="translate(0.000000,4000.000000) scale(0.100000,-0.100000)"
fill="#000000" stroke="none">
<path d="M12300 34725 c-25 -13 -81 -36 -125 -51 -44 -15 -105 -40 -136 -55
-41 -20 -100 -35 -210 -54 l-154 -26 -70 -69 c-39 -39 -76 -70 -82 -70 -7 0
-17 9 -23 20 -6 11 -15 20 -20 20 -5 0 -30 -23 -56 -50 l-48 -51 -24 25 -25
24 -54 -26 -54 -27 -48 50 c-27 28 -46 54 -43 59 3 5 -5 6 -19 3 -13 -4 -94 3
-179 15 -144 20 -157 24 -188 52 l-32 30 -45 -22 c-25 -12 -51 -22 -58 -22 -6
0 -45 33 -87 74 l-75 73 -103 26 -104 25 -76 -25 c-63 -21 -87 -35 -131 -78
l-53 -52 -78 25 -78 26 -50 -42 c-37 -31 -59 -62 -86 -118 l-36 -75 25 -49 25
-49 -20 -47 c-13 -29 -52 -79 -102 -130 l-81 -83 -29 -118 c-36 -139 -38 -163
-18 -173 8 -4 60 -29 116 -55 90 -43 109 -56 176 -129 42 -45 87 -104 101
-131 14 -28 35 -59 47 -70 13 -11 47 -69 76 -129 48 -99 63 -119 154 -211
l100 -101 25 -104 c25 -100 28 -108 78 -158 37 -38 82 -69 157 -107 58 -29
116 -64 129 -79 14 -15 55 -36 101 -51 104 -35 123 -56 154 -179 16 -66 32
-107 49 -125 27 -29 57 -83 57 -103 0 -7 44 -57 97 -110 l97 -98 52 51 c32 31
57 49 64 44 8 -5 2 -17 -20 -40 l-31 -32 98 -35 98 -36 28 27 28 26 52 -28 52
-28 72 77 72 78 23 -21 c13 -11 43 -31 68 -43 25 -12 84 -61 132 -108 l87 -86
26 24 25 24 28 -27 28 -27 59 61 c33 33 85 74 116 89 36 18 77 52 113 92 l56
63 -58 29 c-31 16 -73 43 -92 60 -19 17 -50 38 -68 45 -18 8 -31 19 -29 25 2
6 30 25 63 43 32 17 74 48 93 67 l35 36 -24 25 c-23 24 -23 25 -5 45 10 11 63
43 119 71 55 28 115 64 131 78 17 15 62 38 102 51 61 19 81 32 133 85 l61 62
-45 41 c-24 22 -62 50 -85 61 -35 18 -48 35 -86 112 l-46 90 50 58 c50 58 50
58 31 76 -27 25 -25 36 13 73 l33 32 24 -25 24 -25 34 32 c18 18 45 56 59 83
14 28 52 78 86 112 l61 63 -23 24 -23 25 41 20 c32 17 48 35 71 81 l30 60 -57
114 c-51 104 -60 116 -99 135 l-43 20 21 51 21 51 -48 49 -49 50 28 29 28 30
-58 29 c-61 31 -102 67 -91 79 4 4 20 -5 35 -20 l28 -27 36 38 c30 31 39 53
62 144 14 59 26 113 26 121 0 8 -41 23 -116 41 l-116 28 -21 -21 -21 -21 -51
50 -51 51 -39 -17 -39 -16 -31 36 c-23 27 -50 43 -114 66 -46 16 -87 30 -90
30 -3 -1 -26 -12 -51 -25z m121 -46 c51 -17 77 -34 126 -82 l63 -61 25 24 25
24 50 -49 50 -49 29 28 29 28 76 -18 c42 -10 80 -21 86 -24 14 -9 -25 -168
-48 -193 -15 -17 -17 -16 -42 8 l-26 25 -42 -43 -42 -43 37 -36 c21 -20 53
-43 71 -52 37 -19 38 -23 15 -48 -16 -18 -14 -21 36 -72 l53 -53 -27 -52 c-14
-28 -24 -55 -21 -59 3 -5 28 -19 56 -32 49 -23 55 -29 101 -122 l49 -98 -21
-43 c-18 -37 -32 -49 -87 -76 l-65 -32 29 -30 28 -29 -41 -43 c-23 -23 -55
-70 -72 -105 -18 -35 -39 -66 -47 -69 -8 -3 -26 5 -41 18 l-25 24 -64 -70 -63
-70 24 -25 25 -26 -49 -48 -48 -48 55 -118 56 -118 59 -28 c86 -41 88 -47 37
-99 -34 -35 -61 -50 -120 -70 -46 -15 -87 -36 -101 -51 -13 -15 -71 -50 -129
-79 -58 -29 -120 -69 -139 -89 l-35 -36 22 -23 c13 -13 20 -30 17 -38 -3 -8
-35 -30 -70 -49 -36 -19 -79 -51 -94 -71 l-30 -36 60 -28 c32 -16 71 -42 86
-58 16 -16 45 -38 67 -49 l38 -20 -38 -40 c-22 -22 -61 -51 -89 -65 -27 -14
-71 -45 -96 -69 l-45 -44 -24 25 -24 25 -29 -27 -29 -28 -66 72 c-40 43 -87
82 -117 96 -27 14 -66 41 -85 61 l-34 36 -82 -81 -81 -81 -50 25 -50 26 -26
-26 c-24 -25 -27 -26 -71 -13 -55 15 -63 25 -42 49 15 16 13 20 -24 56 l-40
39 -50 -49 -50 -49 -71 69 c-39 39 -82 93 -96 120 -14 28 -36 62 -49 76 -17
18 -32 58 -50 130 -31 129 -52 154 -156 188 -40 14 -86 36 -103 51 -16 15 -75
51 -130 79 -61 32 -120 72 -152 103 -49 49 -52 55 -78 158 l-27 107 -100 99
c-88 88 -106 111 -154 206 -29 59 -67 122 -82 140 -16 18 -41 56 -55 83 -41
81 -175 202 -285 259 -51 26 -97 44 -102 41 -15 -9 -12 36 4 49 7 6 23 52 35
101 22 90 23 90 104 175 50 51 92 105 106 136 l23 51 -26 51 -26 52 24 48 c13
26 45 67 69 91 l45 43 75 -25 75 -25 53 54 c44 44 66 58 129 79 l75 25 94 -25
94 -24 82 -81 82 -82 50 25 50 26 24 -24 c21 -20 49 -26 203 -48 l179 -25 56
-55 56 -55 49 25 48 25 29 -28 29 -28 53 52 53 52 24 -25 24 -26 86 84 85 84
140 23 c85 13 161 32 195 47 30 14 96 40 145 57 50 18 108 42 130 54 49 26 39
26 116 1z"/>
</g>
</svg>
