<?xml version="1.0" standalone="no"?>
<!DOCTYPE svg PUBLIC "-//W3C//DTD SVG 20010904//EN"
 "http://www.w3.org/TR/2001/REC-SVG-20010904/DTD/svg10.dtd">
<svg version="1.0" xmlns="http://www.w3.org/2000/svg"
 width="3000.000000pt" height="4000.000000pt" viewBox="0 0 3000.000000 4000.000000"
 preserveAspectRatio="xMidYMid meet">
<metadata>
Created by potrace 1.16, written by Peter Selinger 2001-2019
</metadata>
<g transform="translate(0.000000,4000.000000) scale(0.100000,-0.100000)"
fill="#000000" stroke="none">
<path d="M14216 8091 c-19 -20 -56 -39 -106 -56 l-76 -25 -30 -63 -31 -62 24
-70 c26 -75 25 -124 -1 -151 -9 -8 -16 -30 -16 -47 0 -28 -18 -50 -134 -166
l-133 -133 14 -41 c8 -23 30 -61 49 -83 30 -37 32 -43 18 -55 -9 -7 -29 -38
-44 -70 l-29 -56 28 -27 c15 -14 35 -26 44 -26 26 0 89 -34 113 -62 12 -12 32
-43 44 -68 12 -25 31 -55 42 -67 20 -21 20 -21 -3 -52 l-23 -31 32 -33 c31
-32 72 -130 72 -172 0 -11 -11 -52 -24 -91 l-24 -69 82 -85 82 -85 23 -100
c14 -61 31 -109 44 -122 l20 -23 -20 -22 c-15 -16 -29 -62 -48 -157 l-27 -134
27 -106 c28 -115 110 -299 151 -342 l26 -27 -22 -43 c-12 -24 -36 -59 -53 -76
l-31 -33 35 -36 c61 -64 145 -96 312 -119 23 -3 67 -10 97 -15 l54 -10 48 47
48 47 24 -23 24 -22 52 26 52 27 27 -25 c14 -14 50 -37 80 -52 l54 -27 101
101 c100 100 102 101 121 82 11 -11 69 -32 131 -49 l112 -30 48 49 48 49 21
-20 c12 -11 55 -32 96 -45 63 -22 84 -35 134 -85 l59 -60 36 34 c29 28 53 39
134 60 l99 25 98 97 98 98 25 -23 24 -22 108 54 c60 30 118 64 128 76 l19 21
29 -27 28 -27 38 36 c20 20 57 46 82 58 56 28 52 23 59 67 6 34 3 41 -26 66
-23 20 -39 50 -58 106 -14 43 -35 87 -46 97 -19 17 -19 18 8 46 l27 28 -31 31
-30 31 25 100 25 100 -24 76 c-17 55 -35 89 -63 120 l-39 43 -27 -26 -26 -25
-34 35 -34 35 23 24 22 23 -33 67 -32 66 -76 25 -75 25 -225 225 -225 225 105
105 104 104 -22 24 c-27 29 -27 39 -2 62 21 19 20 19 -75 115 l-96 97 17 36
c14 28 15 40 6 49 -6 6 -80 22 -164 35 -140 22 -156 26 -183 53 l-31 30 -36
-38 c-43 -44 -72 -100 -108 -207 l-27 -79 -114 -23 -113 -23 -30 30 -30 30
-53 -52 -53 -53 -160 160 c-88 88 -160 164 -160 170 0 5 21 30 46 56 l46 46
-25 49 -25 49 47 27 c25 15 61 34 79 43 17 8 32 21 32 28 1 6 11 25 24 41 l24
29 -20 34 c-38 64 -156 129 -312 171 -83 23 -110 35 -127 56 -26 33 -36 33
-71 -1 l-27 -26 -133 22 c-73 13 -142 25 -153 27 -14 3 -30 -5 -49 -25z m168
-36 c34 -2 61 -4 61 -5 0 -1 22 -3 49 -6 27 -2 55 -9 63 -15 11 -9 19 -7 37
10 22 21 23 21 40 3 9 -11 55 -28 109 -42 158 -39 254 -87 281 -140 14 -29 14
-34 0 -56 -9 -13 -19 -24 -23 -24 -4 0 -16 -9 -28 -19 -11 -11 -43 -31 -72
-45 -28 -15 -51 -31 -51 -37 0 -5 9 -28 21 -50 18 -35 19 -45 8 -70 -6 -16
-24 -37 -39 -45 -63 -38 -62 -40 103 -202 84 -82 171 -171 194 -198 l42 -49
51 54 50 54 24 -22 24 -23 134 28 c73 15 138 32 144 38 6 6 21 45 34 86 26 89
75 189 96 197 8 3 25 -3 37 -14 17 -16 53 -25 160 -39 75 -10 137 -22 137 -26
0 -5 -7 -23 -16 -40 -15 -29 -15 -32 0 -43 15 -11 15 -14 1 -25 -14 -12 -14
-15 -2 -28 12 -11 18 -12 36 -1 19 13 26 9 81 -46 l60 -59 -27 -28 -27 -28 24
-25 24 -25 -40 -43 c-21 -23 -65 -70 -98 -104 l-59 -62 237 -245 237 -245 78
-26 c72 -24 80 -29 96 -66 l18 -39 -26 -28 -27 -28 71 -69 70 -70 20 24 c30
37 49 18 80 -75 l25 -79 -26 -107 -27 -106 20 -21 21 -21 -24 -25 -24 -25 32
-33 c21 -22 41 -61 58 -112 17 -50 38 -92 57 -112 17 -18 29 -34 26 -37 -2 -2
-24 -14 -49 -26 -25 -12 -55 -32 -67 -43 l-23 -20 -25 23 -24 23 -38 -34 c-38
-35 -190 -119 -214 -119 -7 0 -25 12 -40 26 l-26 25 -104 -110 -104 -110 -105
-27 c-58 -15 -114 -35 -126 -45 -20 -18 -21 -18 -64 26 -34 34 -61 50 -119 70
-47 16 -87 37 -108 57 l-33 32 -53 -52 c-29 -29 -61 -52 -72 -52 -11 0 -53 9
-94 20 -54 14 -83 27 -108 51 l-33 33 -108 -106 -107 -107 -40 21 c-22 11 -55
34 -72 51 l-33 31 -50 -24 -51 -24 -27 27 -26 27 -57 -56 -57 -57 -154 27
c-120 21 -164 34 -205 57 -29 17 -55 35 -59 40 -3 5 5 22 18 37 13 15 34 51
47 80 l25 52 -31 33 c-45 47 -127 230 -154 341 l-23 96 23 123 c20 106 27 126
54 154 l31 33 -29 30 c-21 22 -35 56 -56 137 l-28 107 -73 73 -72 73 17 64 c9
35 17 80 17 99 0 42 -32 138 -59 176 -20 28 -20 28 -1 46 27 25 26 30 -20 82
-22 25 -40 52 -40 59 0 8 -4 14 -9 14 -5 0 -12 12 -16 28 -14 56 -116 128
-164 115 -39 -10 -23 43 30 105 32 36 36 57 14 65 -8 4 -28 33 -45 67 -29 58
-30 61 -13 86 9 15 65 73 123 130 100 98 107 107 130 176 31 95 31 100 3 182
-13 38 -21 77 -17 85 4 9 8 18 8 21 8 31 35 52 98 76 40 15 75 30 78 34 19 24
58 40 84 34 16 -4 57 -8 90 -9z"/>
</g>
</svg>
