<?xml version="1.0" standalone="no"?>
<!DOCTYPE svg PUBLIC "-//W3C//DTD SVG 20010904//EN"
 "http://www.w3.org/TR/2001/REC-SVG-20010904/DTD/svg10.dtd">
<svg version="1.0" xmlns="http://www.w3.org/2000/svg"
 width="3000.000000pt" height="4000.000000pt" viewBox="0 0 3000.000000 4000.000000"
 preserveAspectRatio="xMidYMid meet">
<metadata>
Created by potrace 1.16, written by Peter Selinger 2001-2019
</metadata>
<g transform="translate(0.000000,4000.000000) scale(0.100000,-0.100000)"
fill="#000000" stroke="none">
<path d="M3437 23284 c-27 -14 -104 -36 -175 -51 -130 -26 -220 -62 -257 -103
-11 -12 -42 -33 -70 -47 -27 -14 -78 -52 -112 -86 -54 -53 -66 -72 -88 -137
l-25 -76 -104 -51 c-79 -39 -105 -57 -109 -75 -3 -13 -15 -78 -28 -145 -22
-119 -22 -123 -4 -143 16 -18 17 -22 3 -37 -19 -21 -95 -173 -113 -223 -6 -19
-10 -40 -8 -47 2 -6 28 -19 56 -29 29 -9 61 -25 73 -36 l21 -19 -26 -104 -25
-105 52 -53 c51 -52 54 -57 87 -183 45 -174 71 -243 100 -274 14 -14 36 -59
50 -100 21 -63 35 -85 87 -137 l62 -63 31 30 30 29 80 -21 c44 -11 81 -21 83
-23 2 -1 -7 -42 -19 -91 -16 -67 -29 -97 -52 -121 l-31 -33 28 -29 c26 -27 27
-31 15 -70 -15 -50 -7 -62 65 -98 28 -14 68 -41 89 -61 l37 -36 105 104 105
104 35 -34 35 -34 -21 -22 c-15 -16 -26 -60 -48 -187 l-28 -166 27 -26 c15
-14 38 -48 50 -76 l24 -50 -26 -53 -26 -53 92 -92 91 -91 26 25 25 26 24 -26
24 -26 107 107 107 107 73 -25 74 -25 84 28 c46 16 91 35 100 43 9 7 27 17 41
21 14 3 39 12 55 19 17 7 77 21 135 31 l105 17 61 59 c45 45 72 83 109 158
l48 99 130 26 c78 15 146 35 171 49 22 14 77 36 122 51 49 16 91 37 105 52 13
14 49 39 79 54 80 41 115 83 135 160 9 36 22 71 28 79 9 11 8 16 -7 25 -11 6
-27 19 -37 28 -10 9 -31 24 -47 32 -28 14 -31 14 -52 -9 -23 -25 -24 -25 -44
-6 -12 10 -47 33 -79 51 l-58 33 -28 -27 -29 -28 -38 20 c-51 27 -99 77 -119
127 -9 22 -28 52 -42 66 l-25 27 27 52 27 53 -91 91 -91 91 -87 -87 c-49 -47
-107 -95 -129 -107 l-42 -20 -18 20 c-19 21 -124 79 -143 79 -5 0 -21 -24 -34
-53 -14 -30 -55 -86 -92 -126 l-68 -72 -48 47 c-26 25 -55 64 -65 86 l-18 39
27 26 26 26 -75 80 -75 80 25 26 26 25 -56 57 -56 57 22 68 c13 41 35 82 53
101 l31 33 -92 93 -91 93 -25 -25 -26 -25 -35 34 c-19 19 -35 40 -35 47 0 7
10 33 22 58 l22 45 -74 75 -74 75 64 66 c36 36 88 77 115 91 80 40 78 37 40
112 -18 37 -41 73 -50 81 -14 12 -12 18 27 57 24 25 66 56 93 70 54 27 187
151 211 195 8 15 14 35 14 45 0 10 10 41 22 70 l22 53 -39 40 -39 40 -36 -34
c-31 -30 -47 -36 -155 -56 l-120 -23 -120 25 c-106 21 -120 26 -125 46 -5 25
-83 82 -109 82 -9 -1 -38 -12 -64 -26z m94 -34 c15 -9 17 -15 9 -29 -8 -15 -3
-23 28 -44 20 -14 51 -25 67 -25 17 0 73 -10 125 -22 l94 -21 136 27 c96 19
142 32 158 47 37 35 48 8 20 -49 -14 -27 -23 -57 -20 -68 6 -27 -138 -170
-208 -206 -30 -15 -79 -53 -109 -85 l-54 -56 31 -32 c16 -18 39 -51 51 -74
l21 -43 -48 -24 c-30 -15 -77 -56 -126 -110 l-78 -86 61 -69 c33 -37 67 -74
75 -81 13 -10 12 -18 -10 -62 l-26 -51 66 -66 65 -65 26 24 26 24 61 -62 62
-61 -21 -23 c-11 -13 -33 -60 -48 -105 l-27 -83 46 -53 46 -54 -25 -23 -26
-24 78 -78 77 -77 -23 -25 -22 -24 34 -68 c21 -41 58 -91 91 -124 l56 -54 89
88 c49 49 97 106 107 127 9 22 21 39 26 39 19 0 74 -33 106 -63 l33 -32 57 29
c35 18 83 57 127 103 l71 73 64 -65 64 -65 -22 -45 c-28 -58 -28 -66 4 -96 14
-13 39 -49 54 -79 35 -68 68 -99 146 -138 l61 -31 25 26 25 25 44 -22 c24 -12
56 -36 71 -53 l27 -32 29 28 c29 28 30 28 61 12 22 -11 30 -21 27 -33 -3 -9
-10 -39 -16 -67 -13 -60 -38 -88 -105 -122 -27 -14 -63 -38 -80 -53 -16 -15
-61 -38 -100 -50 -38 -13 -95 -35 -125 -50 -31 -16 -112 -40 -186 -55 l-131
-28 -54 -108 c-38 -79 -67 -122 -104 -158 l-50 -49 -150 -23 c-130 -21 -154
-27 -180 -51 -17 -15 -61 -38 -98 -52 l-67 -25 -72 25 c-39 13 -77 24 -84 24
-7 0 -55 -44 -108 -97 l-94 -98 -24 23 c-30 27 -36 27 -65 0 l-24 -22 -61 61
-62 62 24 50 c23 50 23 51 5 97 -10 26 -33 64 -51 84 l-33 37 25 149 c23 135
28 152 54 179 l30 30 -67 67 -68 68 -102 -102 -102 -102 -23 21 c-13 11 -47
33 -75 47 -58 29 -58 29 -42 75 10 28 9 35 -12 57 l-22 24 21 23 c13 14 31 65
50 138 l29 116 -120 32 -120 32 -24 -22 -23 -23 -40 39 c-30 30 -46 58 -66
119 -15 47 -38 94 -54 111 -30 32 -74 157 -106 300 -16 72 -22 85 -67 132
l-50 52 23 105 24 106 -34 35 c-19 20 -51 41 -72 47 -21 6 -38 15 -38 19 0 5
18 48 40 96 29 63 57 104 96 144 50 50 53 57 39 69 -14 11 -20 11 -37 1 -38
-24 -43 0 -24 106 10 54 20 107 23 118 3 13 38 38 107 74 l103 54 26 81 c22
68 35 89 74 127 27 26 73 60 104 77 30 17 64 41 75 53 35 39 118 72 249 99 72
15 148 36 170 48 46 24 59 26 86 12z"/>
</g>
</svg>
