<?xml version="1.0" standalone="no"?>
<!DOCTYPE svg PUBLIC "-//W3C//DTD SVG 20010904//EN"
 "http://www.w3.org/TR/2001/REC-SVG-20010904/DTD/svg10.dtd">
<svg version="1.0" xmlns="http://www.w3.org/2000/svg"
 width="3000.000000pt" height="4000.000000pt" viewBox="0 0 3000.000000 4000.000000"
 preserveAspectRatio="xMidYMid meet">
<metadata>
Created by potrace 1.16, written by Peter Selinger 2001-2019
</metadata>
<g transform="translate(0.000000,4000.000000) scale(0.100000,-0.100000)"
fill="#000000" stroke="none">
<path d="M11415 27149 c-33 -17 -81 -51 -106 -76 l-46 -44 -46 22 -47 23 -59
-28 c-41 -20 -87 -56 -151 -121 -51 -51 -88 -95 -84 -97 5 -3 39 -15 76 -27
l67 -22 -22 -33 c-12 -19 -27 -42 -33 -52 -11 -18 -13 -18 -30 -3 -11 9 -57
29 -102 44 l-84 27 -39 -38 -39 -38 52 -53 c48 -49 51 -54 36 -69 -9 -9 -51
-28 -94 -44 l-79 -27 -31 -64 -32 -64 33 -35 c18 -19 42 -53 53 -75 l20 -40
-26 -83 -25 -82 23 -25 c21 -22 22 -27 10 -55 l-13 -32 -101 101 -101 100 -55
-30 c-30 -16 -91 -65 -135 -108 -96 -93 -126 -113 -242 -152 -63 -21 -98 -39
-125 -66 -34 -33 -36 -38 -22 -57 20 -29 18 -33 -18 -52 -87 -43 -106 -96 -63
-171 25 -44 65 -145 65 -164 0 -5 -13 -23 -30 -42 l-29 -34 70 -33 69 -34 53
26 c48 23 55 24 80 12 32 -17 33 -21 10 -46 -15 -17 -15 -20 7 -43 l24 -25
-27 -28 -27 -28 27 -27 27 -27 -46 -47 c-46 -48 -47 -49 -74 -186 l-27 -138
25 -25 25 -25 -25 -106 -25 -105 34 -34 34 -34 104 25 103 25 32 -27 c17 -16
55 -39 84 -52 l53 -25 25 26 26 26 65 -22 c59 -19 68 -25 86 -63 20 -42 20
-42 1 -85 -10 -24 -34 -60 -53 -81 l-34 -38 23 -24 c21 -23 22 -26 8 -42 -9
-10 -30 -47 -48 -82 l-32 -64 77 -77 77 -78 -25 -55 -25 -55 21 -21 21 -21
-20 -20 c-11 -12 -43 -33 -71 -48 -31 -16 -84 -62 -132 -113 l-80 -86 62 -60
c34 -34 85 -72 112 -86 28 -14 61 -37 74 -51 14 -15 51 -35 87 -46 87 -27 183
-76 224 -116 l36 -34 66 68 c41 42 75 88 91 123 l25 57 -39 38 -39 38 -24 -23
c-14 -13 -30 -20 -36 -16 -8 5 18 38 76 96 l88 89 26 -24 c14 -13 49 -36 79
-51 l53 -26 24 22 c13 12 24 21 24 18 0 -27 34 -185 54 -251 23 -76 32 -89 89
-146 l63 -63 24 26 c29 31 40 23 80 -54 38 -75 76 -109 195 -171 55 -29 115
-67 132 -83 l33 -31 25 24 25 24 44 -43 44 -43 38 18 c51 26 63 47 40 72 -20
23 -19 23 49 46 42 13 70 36 162 129 103 102 116 120 157 210 25 53 47 97 49
97 2 0 60 11 128 25 152 31 175 49 208 158 26 90 26 118 0 220 l-21 82 23 150
c22 140 26 152 56 185 l32 35 -77 77 -76 77 22 24 c12 13 22 28 22 34 0 16
-64 70 -113 94 -23 12 -57 35 -75 52 l-32 31 -113 -27 c-61 -15 -115 -27 -118
-27 -4 0 -10 11 -13 24 -5 20 -21 29 -88 52 -118 38 -166 65 -225 126 -49 49
-56 64 -98 188 -25 74 -45 141 -45 149 0 8 11 27 25 41 l25 26 -29 28 -28 27
25 102 25 102 -52 160 c-29 88 -62 170 -74 183 l-21 22 27 28 27 28 -31 30
c-17 16 -41 50 -54 75 -21 41 -22 48 -9 61 14 13 27 12 120 -11 l104 -25 59
59 59 60 -27 272 c-25 252 -28 274 -50 297 l-23 25 26 77 26 78 -22 23 c-29
31 -14 42 17 13 l25 -24 38 37 c29 28 44 57 65 120 15 46 27 86 27 90 0 4 -26
20 -57 36 -32 16 -69 41 -83 56 -14 15 -51 40 -84 57 l-58 29 -29 -27 -28 -27
-103 26 -103 26 -27 -26 c-26 -25 -28 -25 -53 -9 -24 16 -25 19 -12 34 8 9 29
44 45 78 l31 61 -34 33 c-22 22 -62 43 -117 61 -46 16 -83 29 -83 28 0 0 -27
-14 -60 -30z m137 -45 c32 -9 67 -28 79 -40 l20 -22 -21 -43 c-12 -24 -37 -60
-56 -79 l-34 -36 74 -36 74 -37 26 28 27 28 104 -25 104 -26 19 24 20 24 51
-23 c28 -13 61 -35 73 -49 13 -13 41 -33 63 -44 22 -11 41 -21 42 -22 6 -5
-41 -133 -55 -149 -15 -17 -17 -16 -42 8 l-26 25 -42 -43 -42 -43 29 -28 29
-28 -26 -79 -26 -79 27 -28 c27 -28 29 -35 53 -278 l25 -248 -45 -45 -44 -44
-100 25 -101 25 -36 -37 -37 -37 32 -64 c18 -35 39 -72 48 -82 14 -16 13 -19
-8 -42 l-24 -25 31 -33 c23 -24 43 -70 80 -182 l50 -150 -27 -107 c-27 -105
-27 -108 -9 -124 24 -22 24 -36 0 -58 -19 -17 -18 -21 36 -184 52 -158 58
-170 107 -221 52 -54 158 -113 255 -142 33 -10 47 -21 59 -46 11 -23 23 -33
38 -33 33 0 125 21 161 36 43 19 67 17 89 -7 10 -12 44 -34 75 -49 77 -39 85
-51 54 -80 l-25 -24 53 -55 c29 -31 63 -68 77 -83 l23 -28 -20 -22 c-15 -18
-26 -62 -46 -183 l-26 -160 25 -100 26 -100 -23 -72 c-33 -105 -49 -117 -198
-148 -68 -14 -125 -25 -127 -25 -2 0 -29 -51 -60 -112 -49 -100 -67 -124 -152
-210 -95 -96 -98 -98 -190 -129 l-94 -31 32 -33 c18 -19 27 -35 22 -39 -6 -3
-33 17 -61 46 l-50 53 -29 -28 -29 -27 -19 21 c-10 12 -64 44 -119 71 -55 28
-108 58 -119 67 -10 9 -33 45 -51 81 -18 36 -47 78 -64 94 l-31 30 -23 -22
c-31 -29 -37 -28 -79 16 -49 51 -81 155 -115 369 l-27 174 -50 -50 -50 -50 24
-26 c17 -18 21 -28 13 -36 -13 -13 -98 28 -132 65 -14 14 -27 26 -31 26 -3 0
-57 -54 -120 -121 l-113 -121 41 -41 42 -41 29 28 c25 24 31 26 36 14 9 -22
-37 -107 -79 -147 l-36 -35 -22 21 c-31 28 -109 66 -193 93 -38 12 -83 35
-100 50 -16 15 -52 39 -80 53 -27 14 -70 46 -95 71 l-44 46 64 66 c36 36 90
78 120 94 30 15 70 44 89 64 l35 36 -28 29 -28 29 26 49 25 50 -55 54 c-88 86
-99 104 -83 142 7 18 31 51 53 75 l39 43 -27 27 -26 28 24 23 c14 13 35 48 47
78 l22 55 -28 58 c-30 62 -30 62 -159 105 -49 16 -50 16 -74 -9 l-25 -25 -41
21 c-23 11 -55 33 -72 50 l-31 29 -103 -26 c-98 -25 -103 -25 -116 -8 -18 23
-18 22 11 133 l24 95 -26 27 -26 27 23 118 23 118 59 61 59 60 -26 24 -26 24
26 25 25 25 -27 28 -27 28 28 29 28 30 -71 35 -71 36 -50 -25 c-48 -24 -52
-25 -81 -9 -30 15 -30 16 -13 35 17 19 17 23 -10 107 -16 48 -37 97 -48 108
-14 16 -17 29 -12 50 10 41 26 56 94 89 l60 29 -30 31 c-29 30 -30 32 -13 47
10 8 50 26 88 38 117 38 175 73 255 155 41 42 97 88 125 102 l49 25 106 -112
105 -112 37 75 c36 73 36 75 18 92 -31 28 -32 46 -6 120 l23 70 -29 60 c-17
33 -39 70 -50 81 -19 22 -19 22 1 62 19 37 28 43 91 63 50 17 80 33 107 61
l37 38 -49 50 c-44 45 -48 52 -34 65 14 14 22 13 85 -10 48 -18 78 -37 99 -62
l30 -35 30 64 c17 34 47 82 68 105 21 23 34 43 30 46 -4 2 -33 12 -63 22 -30
10 -59 21 -63 25 -14 13 98 124 151 149 l49 23 53 -27 53 -27 61 60 c59 58
131 105 151 98 6 -2 36 -12 67 -22z"/>
</g>
</svg>
