<?xml version="1.0" standalone="no"?>
<!DOCTYPE svg PUBLIC "-//W3C//DTD SVG 20010904//EN"
 "http://www.w3.org/TR/2001/REC-SVG-20010904/DTD/svg10.dtd">
<svg version="1.0" xmlns="http://www.w3.org/2000/svg"
 width="3000.000000pt" height="4000.000000pt" viewBox="0 0 3000.000000 4000.000000"
 preserveAspectRatio="xMidYMid meet">
<metadata>
Created by potrace 1.16, written by Peter Selinger 2001-2019
</metadata>
<g transform="translate(0.000000,4000.000000) scale(0.100000,-0.100000)"
fill="#000000" stroke="none">
<path d="M14243 36467 c-76 -77 -104 -133 -141 -280 l-29 -115 118 -62 c65
-33 121 -66 125 -71 9 -15 -31 -54 -77 -74 -38 -18 -43 -18 -197 8 l-157 26
-115 -113 c-63 -63 -133 -123 -155 -134 -22 -10 -83 -29 -135 -42 -95 -23
-177 -56 -166 -67 3 -4 1 -12 -6 -20 -9 -11 -5 -20 16 -42 l28 -29 -25 -48
-25 -48 26 -53 26 -52 -19 -60 c-10 -34 -22 -61 -27 -61 -17 0 -53 22 -88 55
-24 23 -63 42 -124 61 l-88 29 -109 -115 c-106 -112 -110 -118 -135 -199 l-26
-84 23 -49 c32 -69 17 -81 -57 -45 -31 16 -58 26 -60 25 -2 -2 -12 -40 -22
-84 l-19 -81 79 -78 78 -79 30 29 30 28 75 -18 c42 -11 80 -22 86 -26 13 -8
-27 -167 -49 -192 -15 -17 -17 -16 -42 8 l-26 25 -42 -43 -42 -43 37 -36 c21
-20 53 -43 71 -52 37 -19 38 -23 15 -48 -16 -18 -14 -21 36 -72 l53 -53 -27
-52 c-14 -28 -24 -55 -21 -59 3 -5 28 -19 56 -32 49 -23 55 -29 101 -122 l49
-98 -21 -43 c-18 -37 -32 -49 -87 -76 l-65 -32 29 -30 28 -29 -41 -43 c-23
-23 -55 -70 -72 -105 -18 -35 -39 -66 -47 -69 -8 -3 -26 5 -40 18 l-25 24 -64
-70 -64 -70 25 -25 24 -26 -49 -48 -48 -48 55 -118 56 -118 59 -28 c86 -41 88
-47 37 -99 -34 -35 -61 -50 -120 -70 -46 -15 -87 -36 -101 -51 -13 -15 -71
-50 -129 -79 -58 -29 -120 -69 -139 -89 l-35 -36 22 -23 c12 -13 22 -28 22
-35 0 -6 -30 -28 -66 -48 -37 -21 -82 -53 -100 -73 l-33 -36 57 -29 c31 -16
74 -43 94 -62 20 -18 51 -40 68 -49 25 -13 29 -19 20 -30 -20 -24 -2 -54 38
-64 20 -5 64 -17 96 -25 49 -12 70 -25 115 -69 70 -69 113 -90 254 -128 100
-26 116 -28 154 -17 38 11 45 18 66 68 14 30 35 109 47 175 26 135 36 152 115
192 28 14 64 38 80 53 17 15 62 38 100 50 58 19 80 33 132 83 59 58 63 65 79
136 21 94 22 96 45 75 18 -16 21 -15 61 22 24 22 62 48 85 58 40 18 44 23 69
100 22 67 57 151 69 164 10 12 83 -43 160 -119 l91 -89 28 29 29 30 96 -49
c53 -26 109 -62 126 -79 l29 -31 78 77 77 77 25 -23 24 -22 72 36 72 36 -32
34 -32 33 22 43 c12 24 52 74 88 112 75 76 72 75 214 53 l87 -13 78 79 77 78
-27 55 -27 56 21 42 c12 23 30 52 41 64 l21 22 49 -25 50 -25 24 22 24 22 25
-23 25 -23 52 24 c29 13 77 46 106 73 l52 49 25 -23 25 -24 29 28 29 28 50
-26 c28 -14 56 -35 62 -46 15 -29 44 -25 85 12 l36 31 -56 58 -57 57 25 149
c17 103 33 166 51 201 32 62 32 69 4 99 l-21 23 23 50 24 50 -39 40 -39 40
-81 -80 -80 -80 -67 22 c-61 20 -68 25 -85 62 -26 58 -79 113 -135 142 -37 19
-54 35 -70 69 l-22 45 26 54 27 53 -40 39 -39 38 -49 -48 c-44 -43 -50 -47
-69 -35 -18 12 -40 7 -164 -35 -79 -27 -145 -50 -146 -52 -4 -3 -61 -238 -59
-240 1 -1 34 -12 72 -24 39 -13 92 -34 119 -47 43 -22 47 -26 33 -40 -13 -13
-24 -12 -101 13 -75 25 -92 35 -143 86 l-57 58 -47 -46 -47 -46 -22 66 -21 65
-108 35 c-60 19 -191 56 -293 81 l-185 47 -114 -57 c-63 -32 -143 -78 -177
-102 l-64 -45 -51 50 c-41 39 -67 55 -122 72 -81 26 -108 47 -140 111 l-24 46
47 46 c43 41 56 48 146 71 l99 25 111 109 c67 67 131 120 161 135 31 16 88 64
151 129 97 98 102 107 128 186 l28 83 -26 231 -26 232 75 76 75 76 144 47 145
48 50 -26 c28 -14 54 -25 59 -25 4 0 22 29 40 65 l32 65 -56 113 c-46 92 -69
126 -132 190 -91 93 -151 126 -292 162 -56 14 -128 39 -160 55 l-57 29 -60
-62z m125 -21 c26 -13 90 -33 142 -46 130 -31 172 -55 267 -152 64 -65 91
-103 127 -175 l46 -92 -17 -36 c-9 -19 -20 -35 -25 -35 -4 0 -27 9 -50 21
l-43 20 -160 -55 -160 -56 -81 -83 -82 -82 24 -205 c29 -254 29 -271 3 -351
-19 -57 -33 -76 -123 -167 -67 -69 -120 -113 -157 -132 -40 -21 -85 -59 -150
-129 l-93 -100 -107 -26 c-104 -26 -107 -28 -165 -86 l-58 -59 29 -59 c39 -83
85 -124 170 -151 56 -19 81 -34 129 -80 l59 -57 102 66 c55 36 137 84 182 105
l81 39 168 -42 c93 -23 215 -55 271 -73 l102 -31 27 -81 c15 -45 29 -84 33
-88 4 -5 29 15 56 42 27 28 54 50 61 50 6 0 29 -20 51 -44 30 -33 55 -49 97
-62 40 -13 55 -22 51 -32 -3 -7 0 -22 5 -33 10 -18 12 -18 63 7 57 28 129 92
121 106 -9 14 -115 64 -186 87 -43 14 -68 28 -68 37 0 29 33 149 44 160 6 7
62 28 124 49 l113 37 23 -21 22 -21 56 50 c31 28 59 46 62 41 7 -11 -3 -41
-14 -41 -4 0 -13 -13 -20 -29 -10 -26 -8 -36 23 -98 30 -59 42 -72 79 -89 63
-28 100 -65 132 -131 l28 -60 90 -29 90 -29 69 73 c38 39 73 72 78 72 22 0 20
-22 -4 -71 l-27 -51 26 -27 25 -26 -21 -45 c-11 -25 -33 -119 -49 -210 l-28
-165 45 -46 c28 -28 43 -52 39 -59 -5 -8 -13 -6 -29 8 -11 11 -48 34 -82 50
l-61 31 -21 -22 -22 -21 -25 24 -25 24 -63 -61 c-34 -34 -81 -70 -104 -82
l-42 -21 -22 31 -22 31 -30 -30 -30 -30 -53 26 -54 26 -26 -25 c-14 -13 -41
-54 -60 -92 l-34 -67 24 -48 24 -48 -58 -63 c-42 -45 -64 -61 -77 -58 -10 3
-60 11 -111 18 l-93 13 -80 -80 c-55 -53 -91 -100 -114 -145 l-34 -66 21 -21
21 -20 -30 -16 c-29 -15 -31 -14 -59 15 l-28 29 -77 -76 -78 -77 -28 24 c-16
13 -75 46 -131 73 l-101 50 -24 -22 -23 -22 -64 66 c-55 55 -172 134 -199 134
-11 0 -75 -141 -97 -213 -17 -55 -22 -61 -69 -84 -27 -14 -58 -32 -68 -41 -16
-14 -20 -13 -47 13 -16 16 -31 27 -33 24 -2 -2 -17 -56 -32 -119 -26 -109 -30
-117 -77 -166 -40 -41 -62 -54 -121 -73 -41 -13 -85 -35 -102 -51 -16 -15 -52
-39 -80 -53 -89 -45 -110 -76 -135 -202 -30 -153 -39 -185 -52 -185 -7 0 -24
-12 -39 -26 l-27 -26 -89 23 c-118 30 -187 66 -253 131 -51 50 -61 56 -137 73
-46 10 -83 21 -83 23 0 3 9 15 20 27 l20 21 -52 25 c-29 13 -71 40 -94 60 -22
19 -55 41 -73 49 -17 7 -30 18 -28 24 2 6 30 25 63 43 32 17 74 48 93 67 l35
36 -24 25 c-23 24 -23 25 -4 46 10 12 64 44 119 71 55 28 114 63 130 78 17 15
62 38 100 50 58 19 80 33 132 83 l63 61 -33 34 c-17 18 -56 47 -85 64 -48 27
-57 39 -98 120 l-45 89 50 58 c50 58 50 58 31 76 -27 25 -25 36 13 73 l33 32
24 -25 24 -25 34 32 c18 18 45 56 59 83 14 28 52 78 86 112 l61 63 -23 24 -23
25 41 20 c32 17 48 35 71 81 l30 60 -57 114 c-51 102 -61 117 -95 132 -22 10
-41 21 -44 25 -2 4 6 28 18 53 l22 46 -49 50 -49 50 28 29 28 30 -58 29 c-61
31 -102 67 -91 79 4 3 17 -3 30 -15 31 -29 38 -28 74 11 24 25 36 54 57 139
14 59 26 113 26 121 0 8 -41 23 -116 41 l-115 28 -22 -20 -22 -21 -57 55 c-56
54 -56 55 -46 92 5 20 11 38 13 40 2 2 22 -6 45 -18 l43 -22 38 39 39 38 -26
55 -26 55 23 72 c21 67 28 78 119 168 l97 97 64 -23 c35 -12 78 -35 94 -50 17
-15 58 -41 93 -58 l62 -31 9 22 c5 13 19 56 32 96 l23 72 -26 53 -25 52 25 52
26 53 -22 23 c-22 23 -22 24 -4 41 11 9 66 29 123 45 57 15 124 38 149 50 25
13 92 70 150 127 l105 104 151 -26 152 -25 58 29 c33 17 74 46 92 64 l32 34
-25 24 c-14 13 -25 29 -25 35 0 7 -47 34 -105 60 -58 27 -105 52 -105 56 0 32
45 189 66 232 25 50 99 137 116 137 5 0 30 -11 56 -24z"/>
</g>
</svg>
