<?xml version="1.0" standalone="no"?>
<!DOCTYPE svg PUBLIC "-//W3C//DTD SVG 20010904//EN"
 "http://www.w3.org/TR/2001/REC-SVG-20010904/DTD/svg10.dtd">
<svg version="1.0" xmlns="http://www.w3.org/2000/svg"
 width="3000.000000pt" height="4000.000000pt" viewBox="0 0 3000.000000 4000.000000"
 preserveAspectRatio="xMidYMid meet">
<metadata>
Created by potrace 1.16, written by Peter Selinger 2001-2019
</metadata>
<g transform="translate(0.000000,4000.000000) scale(0.100000,-0.100000)"
fill="#000000" stroke="none">
<path d="M9694 19452 c-9 -31 -18 -66 -20 -78 -3 -29 -22 -98 -46 -174 -13
-42 -33 -78 -56 -102 l-36 -38 27 -28 27 -28 -45 -44 c-34 -34 -50 -61 -70
-119 -19 -56 -38 -89 -71 -126 l-46 -49 -156 -28 c-123 -22 -161 -33 -180 -51
l-24 -22 -141 74 c-78 40 -158 89 -177 107 l-36 34 -36 -37 c-20 -21 -47 -60
-61 -88 -14 -27 -50 -78 -81 -111 -55 -61 -55 -62 -36 -79 11 -10 20 -23 20
-29 0 -20 -117 -129 -125 -116 -4 6 2 21 14 34 12 12 21 26 21 30 0 4 -28 37
-62 72 l-62 64 -28 -27 -28 -27 -25 24 -26 24 -144 -144 -145 -144 27 -28 c35
-37 23 -50 -80 -84 -87 -28 -111 -46 -200 -147 l-50 -59 101 -100 c56 -56 102
-105 102 -110 0 -5 -11 -30 -24 -57 l-25 -48 39 -38 40 -39 25 24 25 24 41
-40 c22 -21 53 -64 69 -94 15 -30 42 -68 60 -85 30 -29 38 -31 237 -57 195
-25 206 -27 235 -55 l29 -28 107 55 c82 42 125 71 184 128 79 77 89 80 132 47
16 -12 24 -48 46 -198 24 -170 28 -187 60 -236 27 -40 48 -60 91 -81 l56 -29
31 32 c16 18 51 74 77 126 l47 94 20 -21 20 -20 86 29 c47 16 95 38 107 49 26
24 30 21 68 -55 l25 -50 -20 -40 c-11 -22 -36 -57 -56 -78 l-36 -37 41 -42 42
-42 25 23 c14 13 31 21 39 18 7 -3 30 -37 51 -77 l38 -72 30 29 30 28 24 -30
24 -30 35 40 c20 22 48 65 64 96 33 63 55 86 66 69 4 -6 -3 -22 -15 -35 l-22
-24 56 -169 c47 -141 62 -174 91 -202 l34 -33 21 26 c12 15 28 27 35 27 26 0
90 -43 147 -99 l58 -55 40 39 40 39 -22 23 c-20 22 -20 23 -2 29 10 4 39 15
63 25 24 11 49 19 57 19 14 0 18 9 34 95 9 43 20 69 43 92 l31 33 -24 25 c-35
37 -19 53 81 87 79 26 88 32 151 100 l67 73 30 -29 30 -28 30 60 30 59 111 28
c60 15 112 31 115 35 2 4 -7 18 -20 30 -32 30 -31 37 6 76 l32 33 53 -27 54
-26 37 36 c21 20 64 49 96 65 l57 28 -55 55 -55 54 51 52 51 52 -40 44 -41 43
-28 -28 -29 -27 -24 25 -24 25 -27 -26 c-26 -25 -30 -26 -61 -13 -18 7 -52 31
-76 53 l-43 39 -29 -28 -28 -27 -73 24 c-88 29 -103 47 -69 83 l24 25 -37 38
c-19 20 -45 57 -55 82 -11 25 -43 68 -72 95 -31 30 -62 72 -77 105 -31 70
-112 153 -183 190 -54 27 -90 74 -90 116 0 30 89 190 125 224 20 19 69 70 107
113 l71 78 -23 49 -23 49 27 31 c14 17 26 36 26 41 0 6 -21 19 -47 30 -112 47
-185 85 -206 107 -12 13 -49 37 -81 54 l-59 30 -49 -23 -49 -23 -45 45 c-53
52 -98 132 -96 172 2 15 -4 39 -11 54 l-14 26 -118 -114 c-64 -63 -120 -115
-125 -117 -4 -1 -13 12 -21 30 -22 55 -117 147 -191 184 l-67 34 -17 -58z m94
-31 c54 -27 122 -106 156 -179 l30 -63 107 107 c63 63 111 104 118 100 6 -4
27 -38 45 -74 20 -39 58 -90 90 -122 l56 -54 55 27 56 27 47 -24 c26 -13 58
-36 72 -51 28 -31 95 -67 158 -85 23 -7 42 -16 42 -18 0 -3 -9 -16 -21 -28
l-20 -22 26 -52 27 -53 -100 -101 c-89 -90 -106 -113 -155 -211 l-54 -110 30
-62 c25 -51 38 -65 71 -80 59 -25 154 -119 186 -183 16 -30 49 -75 75 -100 26
-25 62 -75 80 -111 18 -36 41 -71 50 -79 14 -12 13 -15 -10 -40 l-25 -26 38
-37 c25 -25 61 -45 111 -62 90 -30 107 -31 122 -4 11 21 11 21 32 1 12 -11 50
-34 83 -50 61 -31 62 -31 79 -12 23 25 33 25 62 -2 l23 -21 25 23 c45 43 39
11 -10 -45 l-48 -56 47 -48 47 -48 -32 -13 c-17 -8 -45 -25 -61 -38 l-29 -25
-50 24 -50 23 -66 -67 c-65 -64 -66 -67 -49 -86 20 -22 26 -19 -107 -52 -41
-10 -51 -18 -68 -50 -22 -45 -29 -47 -48 -18 -12 21 -16 19 -99 -64 -79 -78
-94 -89 -162 -112 -51 -17 -86 -37 -112 -62 l-38 -37 25 -26 c25 -26 25 -27 6
-44 -11 -10 -24 -43 -31 -81 -7 -35 -17 -70 -24 -78 -6 -8 -49 -27 -96 -42
-47 -15 -87 -29 -89 -31 -3 -3 8 -17 23 -33 16 -17 25 -34 21 -41 -5 -8 -24 5
-59 38 -28 28 -75 62 -105 77 l-53 26 -24 -22 c-24 -23 -25 -23 -43 -3 -11 10
-40 84 -65 164 l-46 144 27 28 27 28 -39 40 -39 40 -34 -33 c-19 -17 -47 -57
-62 -88 -40 -78 -54 -88 -85 -59 -23 22 -26 22 -43 7 -25 -23 -29 -22 -48 16
-9 17 -32 49 -52 69 l-36 38 -27 -26 c-31 -29 -52 -15 -24 16 9 10 29 45 45
78 l28 60 -28 59 c-15 32 -44 73 -63 92 l-36 34 -38 -34 c-23 -21 -62 -42
-101 -53 l-62 -19 -30 28 c-16 16 -32 27 -34 24 -2 -2 -28 -53 -59 -114 -30
-60 -64 -118 -75 -128 -19 -17 -21 -17 -57 0 -62 29 -83 87 -114 303 l-26 185
-64 34 -63 33 -87 -85 c-69 -68 -104 -94 -177 -130 l-91 -46 -24 23 c-21 21
-49 27 -228 49 -230 30 -226 28 -273 122 -16 33 -55 86 -86 117 l-56 58 -28
-27 c-22 -21 -31 -24 -40 -15 -9 9 -6 24 14 65 l26 52 -101 102 -102 103 70
70 c61 62 78 73 145 95 54 18 87 36 110 60 l34 35 -24 24 -23 25 61 68 c33 37
83 90 111 118 l51 49 27 -27 27 -27 26 25 26 25 34 -35 34 -35 -24 -25 -24
-26 43 -42 42 -42 90 94 90 94 -26 26 -25 27 46 44 c25 25 54 65 65 90 11 25
30 55 41 67 21 23 22 23 42 4 12 -10 93 -55 182 -99 l161 -81 29 29 c26 26 45
31 184 55 l155 26 56 55 c48 48 59 66 80 132 20 66 32 86 83 140 l59 62 -23
25 c-22 23 -22 26 -7 43 18 20 58 129 83 227 31 121 35 135 40 135 3 0 22 -9
42 -19z"/>
</g>
</svg>
