<?xml version="1.0" standalone="no"?>
<!DOCTYPE svg PUBLIC "-//W3C//DTD SVG 20010904//EN"
 "http://www.w3.org/TR/2001/REC-SVG-20010904/DTD/svg10.dtd">
<svg version="1.0" xmlns="http://www.w3.org/2000/svg"
 width="3000.000000pt" height="4000.000000pt" viewBox="0 0 3000.000000 4000.000000"
 preserveAspectRatio="xMidYMid meet">
<metadata>
Created by potrace 1.16, written by Peter Selinger 2001-2019
</metadata>
<g transform="translate(0.000000,4000.000000) scale(0.100000,-0.100000)"
fill="#000000" stroke="none">
<path d="M15790 33394 c-51 -51 -114 -94 -140 -94 -6 0 -21 12 -33 26 l-22 25
-29 -30 -28 -30 -54 27 -54 26 -26 -25 c-14 -13 -41 -54 -60 -92 l-34 -67 24
-49 25 -48 -44 -43 c-45 -45 -80 -103 -71 -119 3 -5 35 -12 70 -16 79 -8 99
-25 67 -58 -28 -30 -27 -38 9 -72 19 -18 38 -54 52 -96 l21 -67 -29 -34 c-16
-19 -51 -80 -79 -136 l-49 -102 31 -32 c19 -21 39 -60 53 -103 l23 -71 -28
-53 -27 -54 42 -41 41 -41 76 78 75 79 47 -46 c36 -35 64 -52 123 -71 42 -15
83 -34 92 -44 16 -17 15 -22 -8 -74 l-24 -55 49 -48 49 -48 -25 -26 -25 -26
30 -29 c19 -19 38 -55 56 -109 31 -94 58 -127 135 -166 71 -36 84 -52 68 -78
-10 -17 -10 -24 1 -37 12 -14 18 -12 57 27 l43 42 50 -49 50 -49 23 22 c29 27
39 27 62 2 17 -19 18 -19 84 14 36 19 75 44 86 56 11 12 47 36 80 52 33 17 62
32 64 34 3 2 -8 18 -24 34 l-29 30 46 48 c25 26 54 63 63 82 10 19 19 36 20
38 7 8 73 -33 107 -66 l38 -36 31 29 30 30 49 -26 49 -26 22 23 23 24 28 -27
28 -27 25 24 26 24 72 -71 c62 -61 82 -74 142 -93 123 -40 184 -77 265 -160
l75 -78 160 -27 161 -26 76 26 76 26 44 -21 c23 -12 70 -48 103 -80 48 -46 74
-62 128 -80 67 -22 68 -22 100 -86 l33 -65 33 35 33 34 73 -27 74 -26 28 27
28 26 149 -30 148 -30 37 35 c20 19 59 46 86 60 28 14 83 59 123 100 l74 74
90 -23 c75 -19 97 -29 129 -60 21 -21 41 -36 43 -33 2 2 16 43 31 90 22 71 34
94 71 130 l44 43 22 -21 c14 -12 67 -31 132 -47 l109 -27 73 72 73 73 26 -24
25 -24 31 30 c44 42 93 144 119 254 25 101 61 193 88 224 10 10 40 29 67 43
69 35 301 264 282 278 -7 5 -30 29 -51 53 l-39 43 20 22 c12 12 31 42 43 67
12 25 37 61 56 81 l34 35 -29 28 -29 28 24 71 c14 40 37 85 53 102 l29 30 -74
80 -73 80 49 50 50 51 -39 39 -40 38 -153 -25 -153 -26 -30 28 c-16 15 -49 37
-72 49 -34 17 -49 34 -72 79 -36 70 -68 101 -112 108 -51 9 -91 -36 -125 -140
-15 -45 -36 -92 -48 -105 -11 -12 -68 -47 -126 -76 -83 -42 -117 -66 -165
-116 -33 -35 -68 -82 -78 -104 -16 -37 -29 -46 -170 -119 -128 -66 -164 -90
-224 -150 l-73 -70 -47 45 c-35 34 -69 54 -123 73 -41 15 -87 38 -101 52 -14
13 -63 37 -110 53 l-84 28 -53 -26 -53 -26 -67 24 c-37 13 -80 35 -95 50 -15
14 -60 37 -100 51 l-72 25 -29 85 c-16 47 -31 87 -33 89 -2 3 -30 -21 -62 -53
l-59 -58 -78 25 c-105 34 -274 67 -343 67 -42 0 -68 -7 -105 -28 -48 -26 -51
-30 -79 -115 l-29 -88 21 -23 c12 -12 21 -28 21 -35 0 -16 -28 -71 -48 -94
-15 -17 -19 -15 -69 35 l-53 52 -53 -52 c-48 -48 -55 -51 -67 -37 -8 9 -39 29
-69 45 -31 15 -69 41 -84 58 -15 16 -49 39 -76 51 -39 19 -52 32 -74 76 l-26
53 -73 16 c-40 8 -98 21 -128 27 -49 10 -64 19 -128 82 -42 41 -86 96 -102
127 -16 30 -56 82 -89 114 l-60 60 -51 -24 -50 -23 -23 20 c-12 12 -44 32 -72
46 -27 14 -61 37 -75 52 -14 15 -50 40 -80 55 -30 16 -75 49 -100 75 -25 26
-75 62 -111 80 l-66 34 -21 -22 -22 -21 -23 22 c-13 12 -25 22 -28 22 -3 0
-29 -25 -59 -56z m213 -25 c23 -12 62 -43 86 -71 24 -27 68 -61 100 -77 31
-16 65 -39 76 -51 11 -12 43 -33 70 -47 28 -14 67 -41 88 -61 l37 -36 54 26
53 26 46 -46 c25 -26 59 -74 75 -107 19 -37 58 -87 104 -132 l73 -73 124 -25
c69 -14 127 -28 130 -31 3 -3 17 -26 31 -52 18 -34 38 -54 72 -73 27 -14 60
-37 75 -51 16 -14 51 -37 78 -51 28 -14 66 -41 85 -61 l34 -36 53 52 53 52 50
-49 50 -49 36 34 c20 19 49 61 65 93 l30 58 -25 32 -25 33 21 66 c19 60 26 68
60 84 24 11 61 17 96 16 67 -1 246 -40 348 -75 l72 -25 38 39 c21 21 42 39 46
39 4 0 16 -27 25 -60 l18 -60 80 -26 c48 -16 94 -39 115 -58 22 -19 65 -40
114 -56 l79 -24 48 26 48 27 71 -24 c44 -15 79 -34 91 -49 13 -17 48 -34 105
-53 76 -25 91 -34 141 -86 l56 -59 88 88 c82 84 96 93 237 163 149 74 150 75
174 125 39 87 109 151 228 211 127 64 160 97 190 190 22 68 61 125 86 125 18
0 66 -59 88 -108 16 -35 30 -49 75 -72 31 -15 69 -41 84 -58 l28 -29 132 23
c211 38 229 32 148 -50 l-51 -52 75 -74 c41 -41 75 -79 75 -84 0 -5 -8 -19
-19 -30 -10 -12 -30 -57 -45 -100 l-26 -80 21 -22 21 -23 -20 -28 c-10 -15
-31 -50 -45 -78 -14 -27 -39 -63 -56 -80 l-31 -29 52 -53 52 -53 -89 -91 c-55
-56 -111 -101 -145 -119 -104 -53 -150 -125 -194 -303 -27 -111 -61 -192 -91
-217 -13 -11 -19 -9 -41 11 l-25 23 -82 -82 -82 -81 -94 24 c-72 18 -101 31
-125 54 l-32 31 -61 -63 c-46 -47 -65 -75 -78 -117 -21 -67 -21 -66 -40 -50
-8 6 -64 24 -124 40 l-109 27 -79 -79 c-43 -44 -100 -91 -128 -105 -27 -14
-64 -39 -81 -55 l-32 -30 -148 30 -149 30 -27 -25 -27 -25 -77 26 c-74 25 -78
25 -97 8 -11 -9 -22 -12 -24 -7 -18 53 -44 74 -120 99 -65 22 -88 35 -129 77
-27 28 -74 64 -106 79 l-56 29 -78 -26 -79 -26 -145 23 -145 23 -85 83 c-89
86 -139 117 -255 154 -63 20 -79 31 -157 108 l-87 86 -26 -24 -25 -23 -25 23
-25 24 -29 -28 -29 -28 -52 27 -52 26 -24 -22 -24 -22 -22 20 c-23 21 -120 73
-136 73 -5 0 -19 -24 -33 -52 -13 -29 -52 -83 -86 -119 -63 -65 -63 -66 -43
-84 27 -24 25 -30 -12 -46 -17 -7 -50 -29 -73 -49 -23 -20 -56 -42 -74 -50
-30 -12 -34 -11 -60 14 l-27 26 -24 -25 -24 -25 -53 52 -53 52 -25 -24 c-23
-21 -26 -22 -42 -8 -10 9 -41 27 -69 41 -69 35 -106 80 -128 157 -11 36 -28
74 -38 86 -23 26 -23 33 4 61 l22 23 -53 54 -53 53 26 50 25 50 -37 36 c-26
25 -62 45 -112 62 -62 21 -85 36 -132 82 l-58 57 -80 -79 c-66 -66 -80 -76
-86 -61 -4 11 2 36 15 63 l21 44 -25 84 c-14 46 -35 95 -47 110 l-21 26 39 87
c21 48 54 104 73 125 l35 38 -28 87 c-16 48 -37 96 -47 108 -19 20 -19 21 6
44 l25 24 -37 38 c-29 30 -47 39 -86 44 l-49 7 58 58 58 59 -27 55 -27 56 21
42 c12 23 30 52 41 64 l21 22 49 -25 50 -25 24 22 24 22 25 -23 25 -23 52 24
c29 13 77 46 106 73 l52 49 25 -23 26 -24 27 27 c14 15 28 27 30 27 1 0 22
-10 45 -21z"/>
</g>
</svg>
