<?xml version="1.0" standalone="no"?>
<!DOCTYPE svg PUBLIC "-//W3C//DTD SVG 20010904//EN"
 "http://www.w3.org/TR/2001/REC-SVG-20010904/DTD/svg10.dtd">
<svg version="1.0" xmlns="http://www.w3.org/2000/svg"
 width="3000.000000pt" height="4000.000000pt" viewBox="0 0 3000.000000 4000.000000"
 preserveAspectRatio="xMidYMid meet">
<metadata>
Created by potrace 1.16, written by Peter Selinger 2001-2019
</metadata>
<g transform="translate(0.000000,4000.000000) scale(0.100000,-0.100000)"
fill="#000000" stroke="none">
<path d="M9304 29681 c-33 -32 -69 -79 -83 -108 -19 -42 -32 -55 -71 -73 -27
-12 -76 -51 -110 -85 l-62 -62 32 -64 c18 -35 39 -72 48 -82 14 -16 13 -19 -8
-42 l-23 -25 22 -24 23 -24 -23 -31 -23 -31 24 -25 23 -25 -49 -52 c-27 -29
-60 -77 -73 -105 -24 -51 -24 -53 -6 -73 10 -11 16 -22 14 -24 -2 -2 -67 -36
-143 -76 -151 -79 -180 -105 -222 -193 l-28 -57 49 -50 c40 -41 46 -52 36 -64
-7 -8 -83 -38 -169 -67 -150 -49 -159 -54 -213 -106 -49 -48 -58 -62 -65 -107
-4 -28 -7 -57 -7 -64 0 -7 -7 -74 -17 -150 -18 -139 -15 -272 5 -291 6 -5 55
-20 110 -35 l99 -26 28 27 27 26 124 -25 124 -25 65 33 c50 25 88 57 163 136
55 58 109 127 125 158 16 30 47 73 69 95 l41 39 39 -38 38 -37 -24 -105 -25
-106 23 -24 c22 -24 22 -24 3 -65 -28 -63 -51 -87 -113 -118 -31 -16 -70 -44
-88 -63 -27 -29 -199 -356 -191 -363 2 -1 30 -16 63 -33 79 -40 99 -64 119
-144 9 -37 16 -70 16 -73 0 -3 -17 3 -39 14 l-38 20 -36 -77 c-47 -101 -47
-102 -11 -116 17 -6 42 -18 55 -28 l24 -16 -27 -28 -28 -29 67 -67 66 -67 50
25 49 26 29 -28 29 -28 29 28 c38 36 54 15 17 -23 l-26 -27 56 -54 c31 -30 66
-76 79 -101 l24 -46 -25 -24 -24 -24 25 -104 26 -104 -31 -32 -30 -31 38 -36
c27 -26 61 -43 124 -64 l87 -28 25 24 c23 21 26 21 32 6 4 -10 -3 -39 -17 -67
l-23 -50 65 -65 c74 -74 80 -73 100 25 14 69 23 80 99 116 l60 29 -30 31 c-29
30 -30 32 -13 47 10 8 50 26 88 38 117 38 175 73 255 155 41 42 97 88 125 102
l49 25 106 -112 105 -112 37 75 c36 73 36 75 18 92 -31 28 -32 46 -6 120 l23
70 -29 60 c-17 33 -39 70 -50 81 -19 22 -19 22 1 62 19 37 28 43 91 63 50 17
80 33 107 61 l37 38 -49 50 c-44 45 -48 52 -34 65 14 14 22 13 85 -10 48 -18
78 -37 99 -62 l30 -35 30 64 c17 34 47 82 68 105 21 23 34 43 30 46 -4 2 -33
12 -63 22 -30 10 -59 21 -63 25 -14 13 98 124 151 149 l49 23 53 -27 53 -27
61 60 c33 33 80 69 103 81 l41 21 58 -20 c55 -19 58 -19 78 -3 12 10 23 21 26
24 3 4 29 18 57 33 44 22 57 35 79 79 14 28 53 79 85 113 l60 60 -26 24 c-30
28 -31 45 -6 86 14 23 32 34 82 49 51 15 76 31 124 76 72 68 137 103 175 95
38 -7 65 21 86 89 18 55 18 56 -4 77 l-22 22 32 33 c23 24 28 34 17 38 -8 3
-52 18 -99 34 l-85 28 -52 -26 -53 -25 -54 26 -53 26 -25 -25 -25 -25 -44 22
c-24 12 -53 33 -64 47 -15 18 -48 31 -128 53 -137 37 -144 42 -112 84 l25 32
-33 32 c-22 21 -66 44 -132 67 -55 20 -111 43 -124 52 -13 8 -78 30 -146 48
-67 18 -132 39 -146 48 -26 17 -228 91 -233 86 -2 -2 -17 -31 -34 -65 -34 -67
-56 -92 -67 -74 -4 6 3 23 16 36 l23 25 -89 89 c-82 82 -95 92 -165 115 -67
23 -83 34 -155 105 l-80 79 -105 28 c-131 34 -184 63 -210 114 -11 21 -20 45
-20 53 0 9 -17 26 -38 40 -64 40 -69 52 -38 85 l27 28 -43 39 c-24 21 -67 50
-96 63 l-52 24 -23 -21 c-28 -26 -40 -27 -72 -6 l-24 16 24 48 c24 47 24 48 5
65 -25 23 -25 33 0 61 l21 21 -52 57 c-34 38 -75 69 -119 91 l-66 33 -60 -57z
m114 -20 c20 -11 56 -39 80 -63 l42 -44 -25 -24 -25 -24 27 -28 27 -28 -27
-55 c-15 -31 -27 -57 -27 -58 0 -2 32 -18 70 -37 l71 -34 22 28 23 28 40 -20
c21 -11 48 -29 58 -41 19 -21 19 -22 -4 -46 l-23 -25 59 -62 c33 -35 70 -86
83 -114 19 -43 31 -55 77 -77 29 -15 100 -38 156 -52 l103 -26 80 -79 c71 -71
88 -82 155 -105 64 -22 85 -35 142 -92 l67 -66 -25 -30 -25 -30 40 -41 41 -40
39 38 c21 21 47 56 56 77 10 21 23 39 30 39 20 0 117 -36 170 -63 28 -13 97
-37 155 -52 58 -15 130 -40 160 -55 30 -15 87 -37 125 -50 39 -12 79 -31 89
-41 20 -18 20 -19 -4 -44 l-24 -25 37 -38 c33 -33 50 -41 135 -61 72 -17 105
-30 127 -51 17 -15 57 -42 91 -58 l61 -31 25 25 25 25 46 -22 47 -23 53 26
c49 23 55 24 92 11 73 -25 69 -21 50 -43 -18 -20 -18 -21 10 -50 27 -28 27
-31 15 -74 -12 -43 -13 -44 -46 -39 -42 7 -109 -30 -182 -101 -42 -41 -68 -56
-130 -77 -77 -25 -77 -25 -110 -87 l-33 -62 19 -28 20 -27 -43 -51 c-24 -28
-54 -71 -66 -96 -17 -35 -32 -51 -63 -65 -22 -10 -52 -28 -66 -40 -26 -21 -26
-21 -79 -2 l-53 18 -62 -30 c-33 -17 -82 -51 -107 -76 l-46 -44 -46 22 -47 23
-59 -28 c-41 -20 -87 -56 -151 -121 -51 -51 -88 -95 -84 -97 5 -3 39 -15 76
-27 l67 -22 -22 -33 c-12 -19 -27 -42 -33 -52 -11 -18 -13 -18 -30 -3 -11 9
-57 29 -102 44 l-84 27 -39 -38 -39 -38 52 -53 c48 -49 51 -54 36 -69 -9 -9
-51 -28 -94 -44 l-79 -27 -31 -64 -32 -64 33 -35 c18 -19 42 -53 53 -75 l20
-40 -26 -83 -25 -82 23 -25 c21 -22 22 -27 10 -55 l-13 -32 -101 101 -101 100
-55 -30 c-30 -16 -91 -65 -135 -108 -96 -93 -126 -113 -242 -152 -63 -21 -98
-39 -125 -66 -34 -33 -36 -38 -22 -57 20 -29 18 -33 -23 -55 -51 -25 -71 -49
-81 -96 l-8 -39 -26 29 -27 28 26 50 25 50 -41 41 -41 40 -29 -28 -29 -28 -63
23 c-35 12 -72 29 -82 37 -16 15 -16 17 4 38 l22 23 -26 102 -25 102 24 33 25
32 -26 58 c-14 33 -47 80 -72 106 l-47 48 24 25 24 26 -42 41 -41 42 -26 -24
-25 -23 -24 22 -24 22 -49 -25 -50 -25 -37 38 -36 37 25 24 25 24 -56 57 -56
56 16 32 c9 17 19 31 22 31 2 0 32 -14 66 -31 36 -18 59 -25 56 -17 -3 7 -18
66 -33 131 -31 134 -49 164 -126 203 l-49 24 71 143 c39 78 81 153 93 166 11
12 46 36 76 51 69 35 110 79 143 151 l25 57 -26 26 -26 26 25 104 26 105 -66
65 -66 65 -61 -67 c-34 -37 -73 -90 -87 -117 -31 -60 -215 -244 -272 -273
l-40 -20 -133 26 -132 26 -26 -25 -25 -26 -85 21 -84 20 0 66 c0 36 10 147 22
247 l22 183 51 49 c46 45 63 54 200 101 123 42 157 58 188 88 l37 36 -54 56
-55 55 21 40 c34 67 57 84 232 172 l169 84 -31 32 -31 32 18 40 c10 22 46 70
79 106 l61 66 -24 23 -25 24 25 26 25 26 -24 23 -25 24 24 32 25 31 -34 33
c-19 18 -42 50 -51 72 l-18 39 30 38 c17 20 59 53 94 73 54 30 69 45 95 93 29
54 99 136 116 136 5 0 25 -9 46 -19z"/>
</g>
</svg>
