<?xml version="1.0" standalone="no"?>
<!DOCTYPE svg PUBLIC "-//W3C//DTD SVG 20010904//EN"
 "http://www.w3.org/TR/2001/REC-SVG-20010904/DTD/svg10.dtd">
<svg version="1.0" xmlns="http://www.w3.org/2000/svg"
 width="3000.000000pt" height="4000.000000pt" viewBox="0 0 3000.000000 4000.000000"
 preserveAspectRatio="xMidYMid meet">
<metadata>
Created by potrace 1.16, written by Peter Selinger 2001-2019
</metadata>
<g transform="translate(0.000000,4000.000000) scale(0.100000,-0.100000)"
fill="#000000" stroke="none">
<path d="M14020 23505 l-74 -75 -26 25 -26 25 -28 -29 -29 -30 -56 28 c-31 16
-89 39 -128 52 l-73 23 -29 -28 c-27 -26 -44 -30 -212 -55 -125 -19 -197 -34
-225 -48 l-41 -22 -27 27 -27 27 -64 -68 c-53 -56 -68 -80 -87 -138 -32 -101
-50 -114 -197 -144 -68 -14 -125 -25 -127 -25 -2 0 -29 -51 -60 -112 -49 -100
-67 -124 -152 -210 -95 -96 -98 -98 -190 -129 l-94 -31 30 -32 c16 -17 27 -38
25 -46 -6 -20 -50 -116 -74 -162 l-19 -37 22 -15 c13 -8 44 -25 71 -37 l47
-23 27 26 26 27 50 -25 c45 -23 50 -24 66 -10 10 9 21 16 24 16 4 0 25 -39 47
-87 52 -112 159 -226 261 -278 l66 -34 29 30 c16 17 50 42 76 55 l46 23 64
-21 c47 -15 77 -34 118 -73 30 -29 82 -67 114 -85 l59 -33 61 33 c81 44 103
64 137 132 35 68 35 77 8 130 -24 46 -13 74 18 46 10 -9 47 -30 82 -48 l64
-32 25 26 25 25 41 -21 c23 -11 50 -29 62 -39 l20 -19 -25 -160 c-24 -153 -24
-160 -7 -179 17 -19 17 -21 -2 -49 l-21 -29 62 -61 c40 -40 78 -67 107 -77 25
-8 51 -18 59 -21 10 -3 1 -18 -32 -52 l-47 -48 37 -36 c27 -25 62 -44 121 -63
l82 -27 83 27 c45 15 91 36 102 46 21 18 22 18 88 -49 56 -57 70 -78 91 -139
32 -94 96 -170 184 -219 l64 -35 76 25 76 26 25 -24 c15 -13 50 -36 80 -51
l54 -27 84 29 c75 25 91 35 142 88 54 58 57 64 80 160 18 75 30 107 51 130 15
17 49 73 75 125 26 52 65 114 87 137 l41 41 -52 27 c-28 14 -49 30 -46 35 3 5
52 33 108 62 176 89 308 238 347 388 6 25 17 61 25 81 13 36 13 37 -20 69 -30
29 -48 35 -167 60 -79 16 -154 38 -185 53 l-53 27 -58 -29 c-32 -16 -64 -36
-71 -45 -14 -17 -41 -22 -41 -8 0 5 11 19 25 32 l25 24 -30 31 -30 31 26 78
27 78 -97 97 c-53 53 -96 101 -96 107 0 7 7 17 16 25 9 7 28 38 44 68 16 31
54 81 84 111 l56 54 -77 78 -77 77 24 26 24 25 -31 33 c-17 17 -40 52 -50 77
-26 58 -44 73 -123 99 -54 17 -77 32 -125 81 l-59 60 -28 -27 -28 -27 -25 24
-25 24 -29 -28 -28 -27 -103 26 -103 26 -25 -25 -25 -25 -96 49 c-53 26 -109
62 -125 79 l-29 30 -50 -25 -49 -26 -27 26 c-15 14 -29 26 -32 26 -2 0 -38
-34 -79 -75z m256 -6 c10 -12 68 -46 128 -76 l108 -54 28 26 27 26 103 -26
103 -26 23 22 24 22 25 -23 25 -23 25 23 25 24 48 -47 c37 -36 65 -53 123 -72
73 -25 77 -27 99 -75 13 -28 32 -58 42 -67 18 -16 18 -17 -8 -44 l-27 -28 76
-79 76 -78 -43 -49 c-24 -28 -53 -70 -66 -95 -12 -25 -37 -61 -56 -80 l-34
-36 105 -111 104 -111 -25 -76 -26 -77 21 -23 21 -22 -25 -24 -25 -24 42 -43
42 -43 36 34 c19 19 54 43 77 55 l43 21 47 -24 c27 -13 104 -35 172 -49 86
-18 131 -33 145 -47 l20 -20 -23 -72 c-34 -107 -56 -144 -135 -232 -63 -69
-83 -84 -179 -133 -73 -36 -122 -68 -148 -96 l-38 -42 51 -26 c32 -16 47 -29
39 -33 -6 -4 -37 -58 -67 -119 -31 -62 -69 -125 -84 -142 -21 -23 -33 -55 -51
-130 -22 -92 -27 -104 -71 -151 -40 -42 -59 -54 -121 -73 -70 -22 -75 -23
-106 -7 -18 10 -50 33 -72 53 l-41 37 -80 -27 -81 -26 -41 20 c-22 12 -65 44
-93 72 -45 43 -57 63 -79 132 -24 74 -32 86 -112 167 l-86 87 -40 -37 c-27
-25 -63 -44 -104 -57 -63 -19 -63 -19 -131 3 -38 12 -75 30 -84 40 -16 17 -14
22 34 75 l51 57 -29 11 c-15 6 -55 20 -88 31 -39 13 -75 35 -102 61 l-43 41
27 28 27 28 -30 31 -30 30 25 154 25 155 -29 30 c-16 17 -56 46 -90 65 l-60
34 -27 -26 c-25 -24 -29 -25 -60 -12 -18 7 -52 31 -76 53 l-43 39 -38 -37 -39
-38 24 -52 c29 -62 29 -67 5 -114 -24 -46 -63 -83 -116 -110 l-40 -20 -40 20
c-22 11 -65 44 -95 74 -46 44 -70 58 -143 84 l-88 31 -57 -32 c-31 -18 -67
-41 -78 -51 -22 -19 -22 -19 -60 1 -22 11 -73 55 -116 98 -63 64 -86 98 -132
191 -31 61 -61 112 -66 112 -5 0 -17 -11 -26 -25 -20 -31 -31 -31 -89 -3 l-45
22 -24 -23 c-23 -22 -28 -23 -56 -11 -27 11 -30 17 -25 38 3 14 22 44 41 68
20 24 34 51 33 61 -1 10 1 26 6 36 5 12 2 24 -9 36 -20 22 -19 23 49 45 42 13
70 36 162 129 103 102 116 120 157 210 25 53 47 97 49 97 2 0 60 11 128 25
154 32 172 46 212 168 21 65 36 91 68 122 l41 40 15 -22 c20 -29 28 -29 104 6
50 22 101 34 229 51 146 19 168 25 192 47 l26 25 54 -17 c29 -9 88 -33 131
-53 l77 -35 23 21 23 22 24 -25 24 -26 78 78 77 77 24 -22 24 -23 44 26 c54
30 61 31 85 4z"/>
</g>
</svg>
