<?xml version="1.0" standalone="no"?>
<!DOCTYPE svg PUBLIC "-//W3C//DTD SVG 20010904//EN"
 "http://www.w3.org/TR/2001/REC-SVG-20010904/DTD/svg10.dtd">
<svg version="1.0" xmlns="http://www.w3.org/2000/svg"
 width="3000.000000pt" height="4000.000000pt" viewBox="0 0 3000.000000 4000.000000"
 preserveAspectRatio="xMidYMid meet">
<metadata>
Created by potrace 1.16, written by Peter Selinger 2001-2019
</metadata>
<g transform="translate(0.000000,4000.000000) scale(0.100000,-0.100000)"
fill="#000000" stroke="none">
<path d="M18329 13910 l224 -5 -50 -27 c-28 -16 -56 -35 -63 -43 -12 -14 -16
-13 -42 12 l-29 27 -23 -29 -24 -30 -26 24 -27 25 -102 -50 c-167 -81 -277
-203 -261 -292 4 -21 20 -51 37 -69 l31 -33 -23 -24 -22 -24 26 -52 27 -53
-78 -78 -77 -78 26 -31 27 -31 -24 -47 c-13 -26 -34 -80 -47 -119 -18 -58 -33
-82 -70 -119 l-48 -47 -88 22 c-48 12 -95 24 -104 27 -11 3 -23 -13 -44 -55
-23 -49 -35 -62 -69 -77 -23 -10 -81 -57 -131 -105 -49 -48 -112 -98 -140
-112 -27 -14 -58 -34 -69 -46 -18 -20 -19 -20 -55 -1 -35 17 -36 21 -33 59 5
52 3 52 -142 2 -174 -60 -197 -75 -349 -228 l-138 -139 31 -29 30 -29 -36 -64
c-33 -59 -36 -70 -31 -122 3 -32 12 -68 20 -81 9 -13 23 -48 32 -77 19 -57 25
-62 98 -82 45 -12 49 -11 72 10 13 12 28 19 34 15 6 -3 24 -32 40 -63 l29 -56
-26 -53 -26 -53 22 -23 22 -23 -30 -29 c-17 -16 -27 -32 -23 -36 5 -3 39 -17
76 -29 67 -22 68 -23 51 -42 -17 -18 -16 -23 45 -145 l62 -126 30 29 29 28 22
-21 c14 -12 62 -30 118 -43 88 -21 99 -26 148 -74 30 -28 64 -73 76 -101 13
-27 33 -59 46 -70 32 -29 80 -128 73 -153 -14 -54 36 -102 73 -71 12 10 25 7
65 -11 l50 -24 130 130 c96 95 139 145 161 189 16 33 43 74 58 90 24 25 32 51
54 159 14 71 31 135 37 142 16 19 37 17 88 -10 l44 -23 34 69 c19 37 38 68 43
68 5 0 18 -30 31 -67 12 -38 23 -70 25 -72 3 -3 18 8 34 24 l30 29 27 -26 26
-26 105 110 c77 80 122 118 165 139 53 27 61 36 86 92 l29 62 -21 23 -21 23
37 36 36 37 48 -23 49 -22 79 27 c44 15 90 36 103 47 l22 21 29 -28 28 -27 24
32 25 32 53 -27 52 -27 39 35 c21 19 53 42 70 51 32 16 33 16 61 -11 l30 -28
65 65 66 66 -25 50 -25 49 39 46 c37 44 43 47 148 73 141 35 163 55 181 165 7
41 16 80 20 85 4 6 10 34 12 64 8 79 -31 189 -90 259 l-45 53 23 23 22 24 -34
63 c-32 61 -34 63 -103 86 -38 14 -119 37 -179 53 -98 26 -114 34 -153 72
l-43 42 25 26 25 26 -38 35 c-20 20 -59 48 -87 64 -27 15 -65 41 -82 58 l-32
30 -42 -46 c-22 -26 -44 -47 -48 -47 -4 0 -25 37 -46 83 -26 52 -60 104 -97
142 -54 58 -58 66 -103 210 -53 168 -70 194 -165 246 -30 17 -66 41 -78 53
l-24 21 44 6 c23 3 -85 6 -242 5 l-285 0 224 -6z m267 -71 c10 -12 42 -32 69
-46 82 -41 90 -54 146 -222 49 -148 54 -159 108 -216 40 -43 72 -92 111 -173
l54 -112 56 55 56 56 20 -22 c10 -12 45 -34 77 -50 32 -17 61 -37 64 -45 3 -8
-5 -26 -18 -40 l-23 -25 60 -60 c59 -58 63 -61 160 -85 162 -41 253 -74 269
-97 28 -44 28 -71 0 -97 l-26 -24 60 -60 c48 -50 63 -74 81 -129 l22 -68 -22
-122 c-29 -158 -37 -167 -169 -199 -93 -22 -98 -24 -161 -85 l-65 -62 27 -54
27 -54 -38 -37 -37 -36 -23 24 -24 25 -61 -31 c-33 -16 -71 -39 -83 -51 l-23
-20 -50 23 -50 23 -23 -21 -23 -22 -24 25 -24 25 -35 -34 c-24 -22 -60 -42
-106 -56 l-71 -23 -53 28 -54 27 -66 -66 -65 -65 28 -30 28 -29 -21 -41 c-15
-28 -34 -47 -64 -62 -23 -11 -88 -66 -144 -122 l-102 -101 -26 24 c-23 22 -26
22 -43 7 -10 -10 -21 -17 -24 -17 -2 0 -15 34 -28 75 l-24 76 -42 -42 c-23
-23 -50 -59 -59 -80 -10 -21 -22 -39 -27 -39 -5 0 -27 10 -50 21 l-42 21 -36
-38 c-32 -36 -37 -49 -59 -164 -20 -104 -28 -130 -51 -155 -15 -16 -38 -51
-51 -76 -13 -26 -78 -103 -145 -171 l-120 -125 -52 26 c-50 24 -52 24 -71 7
-20 -18 -20 -18 -12 12 8 25 4 42 -18 89 -16 32 -38 67 -51 78 -12 11 -37 49
-55 85 -18 36 -56 87 -84 114 -46 46 -58 51 -157 77 -84 22 -114 35 -138 59
l-32 30 -21 -22 -21 -21 -40 80 -41 80 35 35 35 34 -43 14 c-24 8 -58 20 -77
28 -32 13 -33 14 -15 33 17 19 16 20 -10 48 l-28 29 25 48 24 49 -28 60 c-15
33 -43 75 -63 94 l-36 35 -28 -27 c-15 -15 -35 -27 -43 -27 -46 0 -98 82 -118
187 -12 61 -12 62 24 134 l36 71 -22 24 -23 24 115 118 c63 65 135 131 162
146 41 24 207 86 229 86 4 0 8 -11 8 -25 0 -21 11 -31 65 -57 l65 -32 37 36
c21 20 61 48 90 62 33 16 74 51 115 97 42 48 82 80 121 100 46 24 62 38 79 74
12 25 29 45 37 45 9 0 55 -11 103 -23 l87 -24 60 61 c49 50 62 72 76 121 9 33
33 95 53 138 l36 78 -22 21 -21 21 70 77 c38 42 69 82 69 89 0 6 -9 30 -21 53
l-21 40 28 29 28 29 -54 55 -53 54 18 40 c27 61 128 150 223 200 l84 43 29
-28 29 -28 25 24 25 23 25 -23 25 -24 33 31 c28 27 100 71 118 73 3 0 14 -9
25 -21z"/>
</g>
</svg>
