<?xml version="1.0" standalone="no"?>
<!DOCTYPE svg PUBLIC "-//W3C//DTD SVG 20010904//EN"
 "http://www.w3.org/TR/2001/REC-SVG-20010904/DTD/svg10.dtd">
<svg version="1.0" xmlns="http://www.w3.org/2000/svg"
 width="3000.000000pt" height="4000.000000pt" viewBox="0 0 3000.000000 4000.000000"
 preserveAspectRatio="xMidYMid meet">
<metadata>
Created by potrace 1.16, written by Peter Selinger 2001-2019
</metadata>
<g transform="translate(0.000000,4000.000000) scale(0.100000,-0.100000)"
fill="#000000" stroke="none">
<path d="M5827 21402 l-37 -38 26 -128 26 -129 -41 -41 -41 -40 -28 27 -28 27
-27 -55 c-15 -30 -46 -79 -70 -108 -34 -41 -47 -68 -56 -114 -13 -67 -38 -97
-111 -133 -25 -12 -58 -35 -75 -50 -16 -15 -61 -38 -100 -50 -38 -13 -95 -35
-125 -50 -31 -16 -112 -40 -186 -55 l-131 -28 -54 -108 c-38 -79 -67 -122
-104 -158 l-50 -48 -141 -23 -142 -22 -10 -52 c-12 -62 -4 -75 80 -117 l56
-28 52 -158 52 -158 77 -78 c63 -65 93 -87 176 -129 55 -27 114 -63 130 -79
19 -18 65 -40 120 -59 l89 -30 23 22 23 22 28 -27 28 -27 49 100 c27 55 52
100 55 100 14 0 79 -78 99 -117 l21 -42 -25 -58 -26 -57 48 -48 c44 -45 46
-48 30 -66 -9 -10 -51 -29 -93 -42 l-76 -24 -33 -66 -34 -67 70 -69 c38 -38
69 -71 69 -75 0 -3 -17 -14 -38 -23 -31 -14 -45 -30 -69 -80 l-31 -63 58 -58
c36 -35 68 -79 82 -111 19 -44 30 -56 69 -75 26 -12 81 -56 125 -100 l78 -78
-24 -50 -23 -50 61 -68 c33 -37 83 -90 111 -117 l50 -49 65 32 65 33 22 94
c13 52 28 94 34 94 34 0 115 -37 145 -66 20 -19 38 -34 41 -34 3 0 20 32 39
70 l34 70 -22 22 -22 22 27 28 27 28 -36 38 c-20 20 -45 56 -57 80 -20 40 -21
44 -5 73 l16 31 24 -23 24 -23 56 55 55 54 49 -27 48 -27 39 42 c21 23 49 66
62 95 l24 52 -23 25 c-18 20 -21 28 -12 37 9 9 25 6 68 -15 31 -16 58 -27 59
-25 1 2 10 30 20 63 9 33 25 72 36 86 l19 27 -26 32 -27 31 20 21 21 20 -25
56 c-19 42 -62 95 -179 218 l-155 163 20 38 c10 21 33 51 50 67 17 17 31 34
31 40 0 6 -21 32 -47 58 l-47 48 24 25 23 25 -21 23 c-12 13 -22 28 -22 33 0
12 103 114 115 114 5 0 31 -21 57 -47 l48 -47 60 59 c52 51 63 70 86 140 15
44 40 106 55 137 l29 57 -36 103 c-20 56 -43 116 -51 131 -13 26 -13 31 2 48
22 23 13 46 -22 60 -16 6 -38 20 -50 31 l-23 21 -50 -23 -50 -24 -41 40 c-22
21 -52 62 -66 89 -14 28 -59 87 -101 133 l-75 83 23 74 c22 70 22 76 7 93 -22
24 -21 34 3 64 l19 25 -39 38 -40 39 -25 -24 -26 -24 -72 72 c-60 60 -83 75
-137 93 -36 12 -66 23 -68 24 -2 2 7 24 20 49 l22 47 -65 64 -65 65 -37 -38z
m82 -66 l33 -34 -26 -50 c-14 -28 -26 -55 -26 -60 0 -4 37 -20 83 -35 77 -25
87 -32 167 -112 l84 -85 27 26 c34 33 51 13 18 -22 l-23 -24 28 -29 28 -29
-25 -80 -24 -80 79 -79 c45 -44 92 -102 109 -133 16 -30 54 -82 84 -114 l56
-60 53 26 54 27 23 -25 c17 -18 20 -27 11 -36 -8 -8 -3 -27 20 -72 17 -34 41
-92 54 -130 l24 -69 -26 -56 c-14 -31 -37 -87 -50 -126 -17 -49 -37 -82 -66
-112 l-42 -43 -51 50 -51 50 -92 -93 -93 -93 26 -24 25 -24 -27 -28 -27 -28
53 -53 c47 -48 50 -55 36 -67 -9 -8 -32 -44 -50 -80 l-34 -67 155 -154 c100
-99 164 -172 180 -203 l26 -48 -28 -29 -28 -29 29 -30 29 -30 -18 -55 c-9 -30
-21 -55 -27 -55 -5 0 -27 9 -48 19 l-38 20 -39 -40 -38 -39 26 -26 c25 -26 25
-28 11 -63 -8 -20 -26 -48 -40 -63 l-26 -27 -50 25 -50 26 -46 -46 c-26 -25
-51 -46 -56 -46 -5 0 -19 12 -31 27 l-22 27 -36 -71 -36 -72 26 -58 c14 -32
35 -68 47 -80 l20 -23 -23 -25 -24 -25 28 -29 c24 -25 26 -31 15 -55 -13 -28
-20 -31 -35 -17 -9 10 -175 71 -192 71 -6 0 -20 -42 -32 -92 -11 -51 -23 -100
-25 -108 -5 -16 -58 -50 -79 -50 -6 0 -51 40 -100 89 l-88 88 27 53 27 53 -87
87 c-53 53 -106 97 -135 110 -38 18 -52 32 -66 64 -10 22 -42 66 -71 97 l-53
56 17 42 c14 36 26 47 80 74 l62 32 -80 87 -80 87 20 39 c17 34 27 40 95 62
55 17 85 33 111 60 l35 36 -54 53 -55 54 26 50 25 50 -27 58 c-17 35 -54 83
-94 123 l-67 66 -49 -100 c-27 -55 -51 -100 -54 -100 -3 0 -14 9 -26 20 l-21
20 -28 -29 -29 -30 -66 25 c-36 14 -77 35 -91 48 -14 13 -70 47 -125 76 -75
40 -119 72 -178 129 l-77 76 -53 158 -52 159 -56 28 c-120 61 -102 90 76 121
l120 21 61 59 c46 45 72 83 109 158 l48 99 130 26 c78 15 146 35 171 49 22 14
77 36 122 51 49 16 91 37 105 52 13 14 49 39 79 54 80 41 115 83 135 160 12
46 26 75 50 100 18 19 41 51 50 70 23 47 22 46 48 22 l23 -22 63 64 63 63 -27
132 c-14 72 -23 135 -20 141 11 18 30 11 64 -24z"/>
</g>
</svg>
