<?xml version="1.0" standalone="no"?>
<!DOCTYPE svg PUBLIC "-//W3C//DTD SVG 20010904//EN"
 "http://www.w3.org/TR/2001/REC-SVG-20010904/DTD/svg10.dtd">
<svg version="1.0" xmlns="http://www.w3.org/2000/svg"
 width="3000.000000pt" height="4000.000000pt" viewBox="0 0 3000.000000 4000.000000"
 preserveAspectRatio="xMidYMid meet">
<metadata>
Created by potrace 1.16, written by Peter Selinger 2001-2019
</metadata>
<g transform="translate(0.000000,4000.000000) scale(0.100000,-0.100000)"
fill="#000000" stroke="none">
<path d="M15917 22052 c-3 -4 -12 -32 -22 -62 -29 -89 -54 -130 -129 -214 -63
-69 -83 -84 -179 -133 -73 -36 -122 -68 -148 -96 l-38 -42 51 -26 c32 -16 47
-29 39 -33 -6 -4 -37 -58 -67 -119 -31 -62 -69 -125 -84 -142 -21 -23 -33 -55
-51 -130 -22 -92 -27 -104 -71 -151 -40 -42 -59 -54 -121 -73 -70 -22 -75 -23
-106 -7 -18 10 -50 33 -72 53 l-40 37 -72 -23 c-104 -34 -130 -50 -177 -110
l-42 -53 25 -26 26 -25 -24 -46 c-13 -25 -42 -64 -64 -85 l-41 -40 -25 24 -26
24 -94 -94 -95 -94 27 -28 27 -28 -23 -24 -22 -24 26 -53 c15 -30 38 -66 52
-80 l25 -27 -25 -48 c-14 -27 -34 -81 -46 -120 -12 -42 -31 -80 -46 -94 l-25
-23 -120 20 -120 20 -1 -24 c-2 -31 -3 -36 -11 -49 -4 -6 12 -30 36 -53 37
-37 49 -42 87 -42 62 -1 114 -15 190 -54 l66 -34 23 49 c25 53 30 56 62 39
l20 -11 -21 -22 -21 -22 68 -67 68 -68 24 26 24 25 26 -25 26 -25 24 25 c23
25 24 25 44 6 12 -10 48 -32 81 -49 l60 -31 105 105 105 104 54 -17 c29 -10
56 -24 59 -31 2 -7 -6 -76 -18 -153 l-23 -141 33 -69 34 -69 28 27 28 27 73
-71 c42 -42 97 -84 132 -101 l60 -30 55 53 55 54 124 -26 124 -25 106 27 c60
16 116 36 128 48 l22 20 28 -24 c16 -13 52 -35 79 -47 l51 -24 59 30 c40 20
89 60 146 118 86 88 87 88 66 106 -12 10 -27 19 -35 19 -7 1 -18 2 -25 3 -6 0
-13 7 -16 14 -2 7 2 13 9 11 8 -1 28 -1 45 0 l30 1 24 125 24 125 -34 35 c-19
20 -55 41 -84 51 -28 9 -55 19 -59 21 -5 3 9 24 31 47 22 22 51 64 65 91 30
60 94 126 101 104 3 -8 14 -47 24 -88 l18 -74 87 -31 87 -30 50 49 50 49 28
-27 28 -27 67 68 c68 68 68 68 47 87 -25 23 -20 28 50 50 89 29 140 62 228
148 58 57 94 102 117 148 l34 66 -60 28 c-33 16 -67 37 -76 47 -15 17 -15 20
7 43 l23 24 -47 52 c-25 28 -46 54 -46 58 0 3 34 40 75 81 l75 74 -34 36 c-30
32 -36 47 -57 160 -23 124 -24 125 -73 178 l-49 52 19 63 c11 38 32 77 53 100
l34 38 -89 89 c-84 85 -94 91 -171 117 l-83 27 -28 -27 -28 -27 -97 27 -97 26
-74 78 c-49 52 -94 88 -134 108 -33 16 -62 37 -65 45 -4 9 -60 42 -125 75
l-119 60 -98 -25 -98 -25 -26 24 c-46 43 -163 90 -174 69z m150 -114 l32 -31
105 27 106 26 98 -49 c53 -27 108 -61 122 -76 14 -15 48 -38 75 -52 28 -14 86
-61 130 -104 l81 -80 109 -28 110 -29 26 25 27 25 71 -23 c61 -20 79 -32 138
-91 l67 -67 -22 -24 c-21 -22 -72 -154 -72 -185 0 -9 24 -40 53 -71 l53 -56
23 -125 c17 -89 30 -132 44 -148 l21 -23 -77 -77 -77 -77 51 -51 50 -50 -21
-27 -21 -27 21 -30 c12 -17 44 -42 71 -55 27 -14 49 -30 49 -36 0 -47 -149
-209 -228 -248 -35 -18 -107 -46 -221 -87 -11 -3 -7 -12 15 -35 l28 -29 -37
-37 -36 -37 -26 24 -25 24 -54 -53 -54 -53 -65 21 -65 22 -27 112 c-16 62 -30
114 -32 116 -10 12 -128 -121 -155 -174 -16 -33 -57 -88 -91 -122 -33 -34 -59
-64 -56 -66 2 -3 42 -17 89 -32 47 -15 94 -36 106 -47 l21 -19 -19 -97 c-11
-53 -22 -99 -24 -101 -2 -2 -12 3 -21 11 -17 15 -21 12 -60 -32 l-42 -47 50
-23 50 -24 -63 -64 c-35 -35 -82 -75 -106 -89 l-43 -26 -42 19 c-23 10 -60 36
-83 56 l-41 37 -32 -33 c-26 -27 -49 -37 -126 -57 l-94 -23 -133 27 -132 27
-52 -51 -51 -51 -34 17 c-19 9 -75 57 -125 106 -90 89 -90 90 -109 69 -24 -27
-29 -26 -46 13 -14 29 -13 45 11 194 l26 163 -95 31 -95 32 -98 -103 -98 -103
-32 14 c-18 7 -52 31 -76 53 l-43 39 -22 -21 c-29 -27 -35 -27 -64 0 l-23 21
-25 -23 -25 -24 -30 29 c-36 35 -37 42 -5 75 l25 26 -75 37 -75 37 -25 -50
c-14 -28 -28 -50 -31 -50 -2 0 -22 9 -43 20 -22 10 -87 31 -145 46 -76 19
-110 32 -117 45 -12 24 -8 24 122 2 l100 -16 32 31 c23 22 40 55 56 105 13 39
37 103 54 140 l30 68 -30 32 c-33 34 -63 87 -63 110 0 7 11 24 25 37 l25 24
-25 26 -25 26 60 59 60 59 25 -24 25 -24 60 59 c39 39 71 83 90 124 l30 64
-21 23 -22 23 26 30 c14 17 27 34 29 39 1 5 39 21 82 35 l80 27 25 -24 c15
-13 50 -36 80 -51 l54 -27 84 29 c75 25 91 35 142 88 54 58 57 64 80 160 18
75 30 107 51 130 15 17 49 73 75 125 26 52 65 114 87 137 l41 41 -52 27 c-28
14 -49 30 -46 35 3 5 52 33 108 62 171 87 296 224 346 380 l12 38 42 -21 c23
-12 56 -35 74 -51z"/>
</g>
</svg>
