<?xml version="1.0" standalone="no"?>
<!DOCTYPE svg PUBLIC "-//W3C//DTD SVG 20010904//EN"
 "http://www.w3.org/TR/2001/REC-SVG-20010904/DTD/svg10.dtd">
<svg version="1.0" xmlns="http://www.w3.org/2000/svg"
 width="3000.000000pt" height="4000.000000pt" viewBox="0 0 3000.000000 4000.000000"
 preserveAspectRatio="xMidYMid meet">
<metadata>
Created by potrace 1.16, written by Peter Selinger 2001-2019
</metadata>
<g transform="translate(0.000000,4000.000000) scale(0.100000,-0.100000)"
fill="#000000" stroke="none">
<path d="M8045 21669 c-44 -44 -101 -91 -127 -105 l-47 -24 -118 29 -118 29
-21 -42 c-12 -22 -31 -84 -44 -136 l-22 -95 -100 -101 -100 -101 -100 25 -100
25 -194 -194 -194 -193 34 -36 c19 -19 43 -53 54 -76 l21 -41 -23 -24 c-13
-13 -34 -55 -46 -94 -19 -60 -36 -99 -80 -185 -5 -9 4 -38 23 -75 16 -33 40
-91 53 -129 l24 -69 -26 -56 c-14 -31 -37 -87 -50 -126 -17 -49 -37 -82 -66
-112 l-42 -43 -51 50 -51 50 -92 -93 -93 -93 26 -24 25 -24 -27 -28 -27 -28
53 -53 c47 -48 50 -55 36 -67 -9 -8 -32 -44 -50 -80 l-34 -67 155 -154 c100
-99 164 -172 180 -203 l26 -48 -28 -29 -28 -29 45 -47 c24 -25 55 -57 69 -70
l25 -23 30 34 c17 18 50 43 74 55 l44 23 52 -52 52 -51 79 27 c57 19 90 37
119 65 l39 39 -27 28 -27 28 29 85 c41 122 61 156 139 233 l70 69 104 -26 103
-26 60 58 c33 33 83 70 111 84 33 17 82 59 141 121 50 53 97 96 105 96 8 0 43
-10 77 -21 l64 -22 74 24 74 23 64 -64 c61 -61 64 -65 48 -82 -16 -17 -16 -20
0 -35 15 -16 19 -15 56 5 l40 23 52 -27 52 -26 81 27 c97 33 146 74 163 138
25 93 28 96 70 87 21 -5 64 -14 96 -20 57 -11 58 -12 41 -31 -17 -19 -15 -22
76 -114 l94 -95 36 34 c21 20 62 43 103 56 l67 24 68 -24 c37 -13 72 -26 77
-30 6 -4 22 -10 38 -14 22 -5 27 -3 27 11 0 40 15 46 56 25 55 -28 124 -106
158 -180 l30 -63 105 104 c59 57 123 111 144 120 20 9 37 21 37 27 0 18 -51
113 -73 137 -20 22 -20 24 -3 85 11 39 28 75 47 93 19 21 38 61 58 122 l28 91
-24 25 -25 24 26 51 c14 28 31 54 37 58 6 4 44 -26 89 -71 l77 -76 64 66 c35
37 77 91 92 122 l28 55 -22 24 -23 24 47 48 c26 26 47 52 47 58 0 6 -13 23
-29 38 -23 22 -34 48 -51 120 -26 104 -44 136 -133 224 l-64 64 -64 -32 c-35
-18 -72 -40 -82 -48 -18 -16 -24 -11 -114 81 -52 53 -98 97 -101 97 -4 0 -41
-11 -83 -25 l-77 -26 -38 22 c-22 12 -111 46 -199 76 -146 49 -164 58 -208
101 -27 26 -60 70 -74 97 -14 28 -35 60 -46 73 l-21 22 27 28 27 28 -38 36
c-20 20 -64 50 -98 66 l-61 31 -21 -22 -22 -21 -25 24 -25 24 -28 -27 -28 -27
-99 100 c-96 96 -103 102 -180 126 l-80 26 -127 -25 -127 -26 -73 25 c-40 13
-86 37 -103 53 -24 23 -123 81 -137 81 -2 0 -39 -36 -83 -81z m142 -1 c21 -12
52 -33 68 -48 17 -15 64 -39 106 -53 l76 -25 128 26 127 25 72 -22 c67 -22 78
-29 183 -134 l112 -111 26 24 25 23 25 -23 25 -24 29 28 29 28 38 -20 c22 -11
47 -29 56 -39 17 -19 17 -21 -7 -43 l-25 -24 34 -35 c19 -20 46 -58 60 -86 14
-27 49 -75 78 -106 52 -55 56 -58 208 -109 85 -29 180 -65 212 -81 l56 -28 76
25 77 26 103 -109 103 -108 44 40 c24 22 59 47 77 54 l33 14 69 -68 68 -68 27
-108 c17 -67 34 -114 46 -125 19 -17 19 -19 -33 -71 l-52 -53 27 -28 27 -29
-19 -44 c-11 -24 -38 -62 -61 -84 l-40 -39 -78 77 -78 77 -36 -37 c-20 -21
-50 -65 -66 -99 l-31 -61 26 -26 26 -26 -19 -63 c-10 -34 -31 -77 -47 -94 -15
-18 -41 -72 -57 -120 l-30 -88 34 -36 c67 -69 67 -66 -45 -176 -55 -55 -104
-100 -108 -102 -5 -1 -14 12 -22 30 -22 56 -117 147 -192 184 l-67 34 -6 -30
c-4 -16 -12 -30 -18 -30 -6 0 -46 12 -88 26 l-78 26 -82 -27 c-46 -15 -92 -36
-103 -46 -21 -18 -22 -18 -80 41 l-59 60 32 33 32 32 -157 33 c-86 18 -160 29
-164 25 -3 -5 -18 -44 -33 -89 -15 -45 -37 -90 -49 -101 -12 -11 -52 -30 -89
-42 l-66 -22 -52 26 c-29 15 -59 24 -68 20 -11 -4 -42 21 -101 79 l-86 86 -83
-27 -82 -27 -79 26 -79 25 -108 -109 c-71 -71 -128 -119 -164 -138 -30 -16
-74 -48 -98 -73 l-43 -44 -102 25 -102 25 -85 -87 c-95 -98 -116 -131 -161
-264 l-31 -93 23 -25 c23 -24 23 -25 3 -43 -10 -10 -48 -28 -84 -40 l-64 -21
-53 52 -52 52 -53 -25 c-29 -13 -65 -35 -81 -48 l-28 -24 -29 34 c-35 41 -35
41 -11 63 19 17 19 19 -6 74 -19 43 -61 94 -179 218 l-155 163 20 38 c10 21
33 51 50 67 17 17 31 34 31 40 0 6 -21 32 -47 58 l-47 48 24 25 23 25 -21 23
c-12 13 -22 27 -22 32 0 13 102 115 114 115 6 0 32 -21 58 -47 l48 -47 60 59
c52 51 63 70 86 140 15 44 40 106 55 137 l29 57 -36 103 c-20 56 -43 116 -51
131 -14 28 -13 31 13 58 22 23 25 31 15 43 -7 8 -8 17 -3 20 6 3 18 36 28 73
12 46 29 80 53 106 l34 38 -24 51 c-13 29 -35 65 -47 80 l-24 28 90 98 c50 53
124 130 165 171 l75 74 104 -26 103 -26 108 108 108 107 25 100 c31 124 43
154 61 154 8 0 59 -11 115 -25 l100 -26 61 35 c34 19 91 64 127 100 35 36 68
66 72 66 4 0 24 -10 45 -22z"/>
</g>
</svg>
