<?xml version="1.0" standalone="no"?>
<!DOCTYPE svg PUBLIC "-//W3C//DTD SVG 20010904//EN"
 "http://www.w3.org/TR/2001/REC-SVG-20010904/DTD/svg10.dtd">
<svg version="1.0" xmlns="http://www.w3.org/2000/svg"
 width="3000.000000pt" height="4000.000000pt" viewBox="0 0 3000.000000 4000.000000"
 preserveAspectRatio="xMidYMid meet">
<metadata>
Created by potrace 1.16, written by Peter Selinger 2001-2019
</metadata>
<g transform="translate(0.000000,4000.000000) scale(0.100000,-0.100000)"
fill="#000000" stroke="none">
<path d="M14186 18341 c-59 -59 -65 -69 -52 -81 26 -20 19 -28 -39 -46 -35
-11 -67 -31 -92 -56 l-37 -38 24 -25 23 -24 -154 -163 c-91 -96 -162 -180
-173 -204 -14 -33 -28 -46 -66 -64 -81 -38 -104 -70 -134 -193 -29 -119 -60
-189 -100 -226 -15 -14 -36 -56 -52 -105 -21 -66 -36 -91 -76 -133 -28 -28
-68 -59 -89 -69 -38 -17 -40 -17 -62 4 -12 11 -57 37 -101 58 -73 35 -81 36
-115 25 -65 -22 -151 -64 -151 -75 0 -6 12 -47 26 -91 31 -94 64 -134 145
-175 82 -42 85 -47 61 -124 l-19 -65 36 -24 c20 -13 54 -35 76 -47 22 -13 66
-48 97 -78 l58 -56 59 29 c37 17 84 53 125 94 l67 67 -37 18 c-40 18 -37 27
12 44 30 10 34 8 80 -40 27 -27 75 -63 107 -79 l58 -30 62 35 c34 19 80 53
101 75 l40 41 26 -25 26 -25 24 25 24 25 23 -22 24 -22 87 28 c169 55 225 94
273 188 18 36 40 63 59 73 39 20 50 19 80 -10 l26 -25 24 25 24 25 23 -22 23
-22 45 22 c25 12 50 22 55 22 5 0 28 -20 51 -44 31 -34 56 -50 106 -67 l65
-21 -21 -21 -21 -21 57 -58 56 -57 -23 -143 c-21 -135 -25 -145 -56 -178 l-34
-36 122 -120 c88 -85 138 -127 177 -144 l53 -24 74 79 73 80 70 -37 69 -36 23
24 23 24 -32 33 c-19 20 -41 61 -56 102 l-23 70 25 52 25 51 -22 53 -22 53 67
67 66 67 45 -15 c44 -15 45 -15 74 13 16 15 31 35 34 44 3 10 34 25 78 39 59
19 82 33 128 78 53 51 62 56 155 79 115 29 148 54 196 148 l29 58 -26 28 -27
28 26 50 25 50 -24 73 c-14 40 -24 73 -22 74 1 2 21 12 44 24 34 17 49 34 72
79 16 31 43 70 60 86 l31 30 -34 35 c-23 25 -42 62 -60 117 -22 67 -35 88 -77
130 -28 27 -63 74 -79 104 -32 62 -63 88 -85 70 -11 -9 -36 0 -114 42 l-99 53
-26 -24 c-24 -23 -28 -24 -43 -9 -12 13 -20 14 -33 6 -16 -11 -16 -14 2 -56
l20 -44 -49 -52 c-26 -28 -61 -66 -77 -83 l-30 -33 24 -25 24 -25 -34 -35 -34
-35 -28 27 c-15 14 -30 25 -32 22 -2 -2 -17 -31 -34 -64 -40 -79 -61 -96 -165
-134 -122 -43 -144 -56 -204 -114 l-53 -51 -29 28 -29 28 -27 -53 c-15 -30
-28 -55 -29 -56 -7 -9 -127 45 -151 67 -16 15 -53 39 -81 53 -56 28 -103 76
-123 126 l-14 32 72 73 71 72 28 162 c25 144 31 165 56 191 l27 29 -36 72 -36
72 -30 -28 -29 -28 -103 101 c-103 101 -152 130 -168 100 -5 -7 -16 -23 -26
-35 l-18 -22 -95 26 c-52 15 -120 39 -151 55 l-56 28 -67 -68z m113 -10 c21
-11 90 -33 154 -49 l116 -29 27 28 c15 16 35 29 45 29 9 0 64 -51 122 -112
l106 -113 24 23 c25 24 25 24 36 4 15 -29 14 -43 -8 -66 -14 -16 -26 -62 -45
-175 l-25 -154 -81 -82 -82 -82 32 -64 c41 -81 63 -105 125 -136 28 -14 66
-40 85 -58 31 -29 167 -85 206 -85 6 0 19 18 29 40 21 46 22 46 47 23 18 -16
21 -14 76 39 61 60 136 102 247 138 82 26 108 47 142 114 l24 48 26 -23 25
-24 63 70 64 70 -24 25 -25 26 75 74 c57 57 73 79 69 95 -3 13 2 28 16 40 21
19 22 19 124 -32 72 -36 107 -48 114 -41 7 7 18 -6 37 -43 15 -30 51 -79 80
-109 42 -44 57 -69 75 -125 12 -38 31 -83 42 -98 l19 -28 -23 -27 c-13 -15
-31 -46 -41 -68 -13 -28 -30 -47 -53 -58 -43 -20 -53 -20 -74 -1 -15 14 -18
14 -30 0 -11 -13 -9 -19 8 -38 12 -13 33 -56 47 -96 l24 -72 -26 -54 -27 -55
22 -23 c27 -28 27 -38 3 -85 -31 -60 -58 -78 -161 -102 -90 -22 -98 -26 -155
-79 -50 -47 -73 -61 -137 -80 -70 -22 -78 -27 -94 -62 -19 -44 -24 -45 -85
-24 l-43 16 -89 -89 -88 -89 27 -56 28 -56 -24 -51 -24 -51 27 -81 c14 -45 25
-84 23 -86 -2 -2 -22 6 -43 17 l-40 20 -78 -79 -79 -79 -46 27 c-25 15 -85 68
-132 118 -85 88 -87 91 -69 110 13 14 26 66 46 188 l27 168 -46 47 -46 47 27
27 c17 16 24 30 18 36 -6 4 -46 20 -90 35 -67 22 -88 35 -136 82 l-56 56 -50
-26 -50 -25 -29 30 -28 29 -28 -27 -28 -27 -24 23 -24 22 -61 -30 c-53 -27
-64 -38 -90 -89 -16 -31 -40 -67 -52 -78 -29 -27 -104 -64 -187 -94 l-63 -23
-29 28 -30 29 -23 -22 c-29 -27 -35 -27 -64 0 l-23 22 -63 -61 c-34 -34 -80
-70 -102 -81 -40 -20 -40 -20 -80 0 -22 11 -67 47 -100 79 l-61 59 -107 -38
-107 -38 59 -29 60 -28 -32 -39 c-18 -21 -53 -50 -79 -64 l-48 -24 -42 46
c-24 26 -71 60 -110 80 -37 19 -68 39 -68 46 0 6 8 35 17 65 l17 53 -35 36
c-19 20 -59 48 -89 64 -69 35 -83 51 -105 120 -10 30 -20 60 -22 66 -2 7 21
26 52 42 53 29 58 30 94 17 64 -22 104 -45 142 -82 l36 -35 54 27 c30 15 82
55 117 88 55 54 65 71 83 132 13 42 32 82 49 100 42 45 76 121 105 236 15 56
35 114 45 129 10 14 45 38 78 54 53 26 62 34 87 86 21 45 64 94 186 216 l159
158 -27 28 c-36 38 -23 50 94 89 l95 31 -26 27 c-14 15 -26 31 -26 36 0 8 60
75 67 75 2 0 21 -9 42 -19z"/>
</g>
</svg>
