<?xml version="1.0" standalone="no"?>
<!DOCTYPE svg PUBLIC "-//W3C//DTD SVG 20010904//EN"
 "http://www.w3.org/TR/2001/REC-SVG-20010904/DTD/svg10.dtd">
<svg version="1.0" xmlns="http://www.w3.org/2000/svg"
 width="3000.000000pt" height="4000.000000pt" viewBox="0 0 3000.000000 4000.000000"
 preserveAspectRatio="xMidYMid meet">
<metadata>
Created by potrace 1.16, written by Peter Selinger 2001-2019
</metadata>
<g transform="translate(0.000000,4000.000000) scale(0.100000,-0.100000)"
fill="#000000" stroke="none">
<path d="M6055 35108 c-3 -7 -18 -52 -34 -100 l-29 -87 66 -22 c37 -12 85 -31
107 -43 56 -31 1222 -871 1265 -911 19 -18 78 -54 130 -80 79 -39 110 -62 188
-138 50 -50 92 -97 92 -105 0 -7 -9 -30 -19 -51 -11 -21 -32 -85 -46 -142 -34
-138 -72 -253 -103 -314 -18 -35 -34 -99 -53 -215 l-27 -164 23 -46 24 -47
-25 -25 -25 -25 26 -59 c14 -32 35 -69 47 -81 17 -18 19 -25 9 -37 -11 -12
-21 -11 -78 8 -54 20 -78 36 -146 104 -73 71 -90 82 -152 102 -45 15 -82 34
-105 56 l-36 34 -41 -43 c-22 -23 -51 -64 -63 -92 -21 -48 -130 -362 -130
-376 0 -4 49 -19 108 -34 l109 -26 22 -69 22 -69 -25 -48 c-24 -47 -111 -140
-151 -161 -16 -9 -24 -5 -50 25 l-31 36 -50 -52 c-27 -29 -50 -56 -52 -60 -1
-4 9 -40 23 -80 l25 -74 -28 -31 c-15 -17 -38 -55 -51 -84 l-25 -53 58 -58
c32 -32 80 -69 107 -82 l50 -23 46 -145 c25 -80 57 -168 70 -195 l25 -49 -21
-38 -22 -38 30 -58 c26 -52 35 -61 90 -87 l61 -30 23 22 23 22 21 -22 c11 -13
32 -45 46 -73 14 -27 39 -63 55 -78 l30 -28 59 29 c33 17 65 37 72 46 20 24
31 20 82 -30 l46 -46 54 28 54 27 102 -54 102 -54 34 33 c18 18 46 59 62 92
l29 60 -25 52 c-13 29 -34 64 -46 79 -20 23 -21 28 -8 39 12 10 33 8 107 -10
112 -27 171 -56 217 -104 l35 -36 28 27 28 27 78 -77 c78 -77 78 -78 97 -57
23 25 33 25 62 -2 l23 -22 54 53 53 53 21 -26 c11 -14 26 -26 33 -26 8 0 58
-11 112 -24 l98 -23 60 120 60 120 -30 31 c-27 28 -34 49 -57 161 -20 100 -36
150 -70 217 -24 48 -44 94 -44 101 0 7 11 24 25 37 l26 24 -62 62 c-34 34 -79
70 -100 80 l-39 17 22 24 22 23 -52 53 -53 53 22 20 c12 10 33 46 49 79 l27
60 -24 49 -25 48 25 27 c14 14 37 50 52 80 l26 53 -20 22 c-26 28 -26 34 1 63
20 21 20 24 5 41 -10 10 -17 22 -17 25 0 4 58 36 128 71 l129 65 31 -31 30
-31 22 44 22 43 15 -30 c26 -49 65 -84 134 -119 l66 -34 20 21 c32 32 50 12
19 -21 -24 -25 -66 -110 -66 -134 0 -28 57 -68 134 -93 45 -14 91 -36 102 -48
12 -11 32 -52 44 -91 13 -38 35 -98 50 -132 25 -55 34 -65 82 -88 31 -16 88
-62 139 -112 l86 -85 54 27 c30 15 75 47 101 72 l46 46 21 -40 c26 -52 69
-103 86 -103 8 0 70 60 140 133 l126 133 84 28 c77 25 88 32 135 86 52 60 80
127 80 193 0 34 -23 82 -56 118 -17 18 -32 58 -50 130 -31 129 -52 154 -156
188 -40 14 -86 36 -103 51 -16 15 -75 51 -130 79 -61 32 -120 72 -152 103 -49
49 -52 55 -78 158 l-27 107 -100 99 c-88 88 -106 111 -154 206 -29 59 -67 122
-82 140 -16 18 -41 56 -55 83 -41 81 -175 202 -285 259 -51 26 -96 44 -101 41
-6 -3 -11 9 -13 27 -4 40 -12 41 -203 17 -82 -11 -178 -22 -211 -25 -59 -6
-63 -9 -83 -44 -12 -21 -19 -44 -16 -51 3 -8 1 -20 -4 -27 -7 -11 -12 -11 -28
-1 -16 10 -68 7 -274 -15 l-254 -26 -108 109 c-101 102 -111 109 -171 125 -63
17 -64 17 -107 -4 -24 -12 -53 -30 -63 -39 -13 -11 -20 -12 -23 -4 -2 6 -22
48 -43 92 -37 76 -42 82 -97 109 -32 17 -67 40 -78 52 -11 12 -42 33 -70 47
-27 14 -67 41 -87 61 l-38 36 -27 -26 -28 -27 -587 398 c-323 218 -591 400
-594 404 -4 4 2 17 14 30 l22 23 -38 36 c-25 25 -64 47 -121 67 -98 36 -90 34
-96 19z m102 -69 c76 -25 93 -42 69 -68 -11 -12 -13 -21 -7 -25 6 -4 8 -13 5
-20 -4 -9 197 -151 617 -435 l623 -421 26 25 27 25 19 -21 c10 -12 44 -34 74
-49 30 -15 64 -38 75 -50 11 -12 41 -33 68 -46 44 -23 51 -32 103 -137 31 -61
58 -114 60 -116 3 -3 21 11 42 31 20 19 55 45 78 58 l41 22 44 -22 c24 -12 94
-70 154 -130 l110 -107 252 26 252 25 36 -34 c19 -18 36 -32 38 -29 3 2 17 41
31 87 22 65 32 83 49 87 28 6 349 45 370 45 8 0 17 -10 19 -21 2 -12 10 -25
18 -29 8 -4 60 -29 116 -55 90 -43 109 -56 176 -129 42 -45 87 -104 101 -131
14 -28 35 -59 47 -70 13 -11 47 -69 76 -129 48 -99 63 -119 154 -211 l100
-101 25 -104 c25 -100 28 -108 78 -158 37 -38 82 -69 157 -107 58 -29 116 -64
129 -79 14 -15 55 -36 101 -51 104 -35 123 -56 154 -179 16 -66 32 -107 49
-125 14 -14 32 -40 41 -58 14 -29 15 -38 2 -94 -21 -90 -81 -149 -186 -184
-73 -24 -80 -30 -200 -150 -100 -100 -127 -122 -138 -113 -7 7 -29 43 -48 81
l-35 69 -72 -69 c-40 -38 -87 -75 -105 -83 l-33 -13 -77 75 c-42 42 -96 86
-119 97 -48 24 -83 82 -123 206 -30 95 -64 128 -161 160 -42 14 -84 34 -94 44
-15 18 -15 22 5 63 12 23 36 58 53 76 l31 32 -42 42 -42 42 -29 -28 -29 -28
-39 21 c-52 26 -91 72 -128 149 l-29 63 -28 -55 c-16 -31 -31 -56 -35 -56 -3
0 -14 7 -24 16 -15 14 -31 8 -188 -70 -94 -48 -171 -89 -171 -93 0 -4 11 -19
25 -33 l25 -26 -25 -24 -25 -24 26 -27 27 -28 -17 -43 c-10 -24 -32 -58 -49
-76 l-31 -32 22 -45 c12 -25 22 -52 22 -61 0 -24 -46 -107 -74 -133 l-26 -25
50 -51 c46 -46 49 -53 35 -65 -42 -35 -38 -47 27 -84 35 -19 81 -53 102 -75
l40 -41 -23 -24 -22 -24 52 -103 c44 -87 57 -127 81 -243 20 -99 34 -146 49
-162 l20 -21 -40 -87 c-22 -47 -45 -86 -51 -86 -7 0 -48 9 -93 21 -61 15 -90
28 -115 52 l-32 31 -53 -52 -53 -52 -24 25 -24 26 -25 -26 -26 -25 -77 77 -77
77 -26 -24 -25 -23 -22 21 c-36 33 -145 78 -251 103 l-98 23 -36 -36 -36 -37
34 -38 c19 -21 43 -57 53 -80 19 -42 19 -44 0 -84 -10 -23 -27 -52 -37 -65
l-18 -23 -104 51 -104 52 -51 -24 -51 -24 -52 52 -53 52 -33 -34 c-18 -18 -50
-42 -72 -51 -38 -17 -40 -17 -60 1 -12 10 -34 44 -49 74 -16 30 -43 70 -62 88
l-34 32 -28 -29 -29 -30 -38 20 c-25 12 -46 34 -60 60 l-21 41 27 28 26 28
-29 58 c-16 33 -53 132 -83 221 l-53 161 -51 24 c-27 12 -71 45 -97 73 l-46
49 20 41 c11 22 34 54 50 72 l30 31 -26 78 c-21 65 -24 81 -13 91 11 11 17 9
36 -11 l24 -25 66 33 c75 38 151 118 194 203 l26 51 -30 90 -30 90 -92 22
c-51 13 -93 24 -95 25 -2 2 16 63 39 136 40 128 97 261 119 274 5 3 22 -3 37
-14 16 -10 60 -29 98 -42 63 -20 77 -29 145 -101 72 -75 79 -80 165 -108 l89
-30 38 37 37 36 -30 35 c-17 19 -40 54 -52 78 l-21 44 24 25 24 25 -28 58 -27
57 26 154 c16 97 34 170 49 200 27 54 86 233 111 341 10 41 31 102 47 134 l30
59 -114 114 c-101 102 -124 120 -213 165 -55 27 -116 65 -135 83 -19 18 -309
229 -644 470 -496 356 -619 441 -670 457 -33 11 -64 24 -68 27 -8 7 22 111 32
111 3 0 34 -9 67 -21z"/>
</g>
</svg>
