<?xml version="1.0" standalone="no"?>
<!DOCTYPE svg PUBLIC "-//W3C//DTD SVG 20010904//EN"
 "http://www.w3.org/TR/2001/REC-SVG-20010904/DTD/svg10.dtd">
<svg version="1.0" xmlns="http://www.w3.org/2000/svg"
 width="3000.000000pt" height="4000.000000pt" viewBox="0 0 3000.000000 4000.000000"
 preserveAspectRatio="xMidYMid meet">
<metadata>
Created by potrace 1.16, written by Peter Selinger 2001-2019
</metadata>
<g transform="translate(0.000000,4000.000000) scale(0.100000,-0.100000)"
fill="#000000" stroke="none">
<path d="M14899 11023 c-23 -21 -89 -63 -147 -93 l-106 -55 -53 -159 c-49
-149 -55 -162 -105 -215 -50 -53 -55 -62 -77 -154 l-23 -98 -47 -23 c-25 -14
-61 -40 -80 -60 l-35 -36 27 -28 27 -28 -16 -50 c-21 -61 -20 -60 -41 -42 -10
9 -29 17 -43 19 -28 3 -100 -18 -100 -30 0 -4 -16 -15 -36 -25 l-37 -17 37
-37 c22 -24 36 -48 36 -63 0 -15 11 -36 26 -50 15 -13 36 -44 47 -69 11 -25
44 -73 73 -106 49 -56 61 -64 142 -93 l88 -32 110 27 109 27 73 72 c60 59 74
69 84 58 7 -8 37 -27 67 -43 31 -15 69 -42 85 -59 36 -37 46 -38 75 -7 22 24
24 24 56 9 l34 -16 -23 -46 -24 -45 26 -53 26 -53 -27 -56 -28 -57 22 -23 22
-24 -23 -25 -23 -25 50 -52 c27 -29 81 -83 120 -120 l70 -68 23 25 c28 30 43
30 139 5 71 -18 78 -23 158 -102 l83 -83 79 28 78 28 57 -28 56 -27 53 52 53
52 74 -25 74 -25 46 45 c25 25 49 45 54 45 4 0 28 -23 53 -51 l46 -50 38 37
c31 30 41 50 55 110 10 41 21 79 25 86 6 9 28 -6 76 -54 l68 -66 55 28 c30 16
81 55 113 87 56 58 58 61 84 169 l26 109 -22 160 c-12 88 -21 177 -21 197 0
37 -1 38 -46 49 -35 9 -64 28 -113 75 -64 60 -71 64 -165 88 -67 16 -107 32
-125 49 -40 38 -130 79 -296 136 -82 29 -156 58 -164 66 -13 13 -12 18 7 38
12 13 22 28 22 33 0 5 -28 38 -63 72 l-63 63 -24 -26 c-29 -31 -37 -31 -95 -3
l-45 22 -23 -22 c-23 -22 -24 -22 -40 -4 -9 10 -40 29 -68 42 -48 23 -53 28
-98 125 -30 62 -67 121 -98 155 l-50 55 24 72 25 73 -30 35 c-17 18 -43 61
-58 94 -14 34 -29 61 -33 61 -3 0 -41 -35 -83 -77 l-78 -78 -98 97 c-129 127
-131 128 -183 81z m168 -135 l113 -113 74 74 74 74 17 -34 c10 -19 29 -46 42
-61 l25 -27 -26 -77 -26 -78 58 -61 c42 -43 71 -88 107 -162 44 -92 52 -103
89 -120 23 -10 62 -37 87 -60 l46 -43 28 30 28 29 49 -25 50 -25 24 22 25 23
36 -37 37 -36 -24 -26 -24 -26 39 -38 c34 -33 62 -46 185 -86 167 -55 232 -85
276 -127 24 -22 55 -35 130 -54 83 -21 105 -31 137 -62 24 -23 36 -43 33 -54
-4 -18 3 -21 97 -44 16 -3 30 -12 33 -18 2 -6 15 -87 28 -181 l25 -170 -25
-100 c-22 -88 -30 -105 -67 -143 -23 -24 -64 -55 -91 -69 l-49 -25 -83 83
c-46 46 -85 81 -87 78 -2 -2 -16 -54 -32 -116 -15 -63 -34 -118 -44 -127 -16
-14 -21 -11 -66 34 l-49 50 -56 -55 -56 -55 -77 27 -77 28 -52 -52 -53 -51
-47 23 -46 24 -73 -24 -73 -25 -76 74 -75 75 -112 29 c-109 30 -112 30 -129
11 -9 -10 -22 -19 -28 -19 -6 0 -48 37 -93 82 l-83 82 27 28 27 28 -29 30 -29
30 24 50 23 50 -23 50 -23 49 26 58 26 57 -67 37 -67 37 -26 -24 c-24 -23 -27
-23 -39 -9 -8 9 -37 28 -64 42 -28 14 -68 41 -89 61 l-37 36 -88 -86 -87 -86
-92 -22 -92 -22 -68 22 c-82 27 -150 87 -193 170 -15 30 -40 66 -54 79 -15 14
-26 35 -26 51 0 14 -6 35 -14 45 -13 18 -11 21 13 35 53 32 60 32 105 -10 l43
-40 31 102 32 102 -22 23 c-27 29 -16 44 63 83 l56 29 27 108 c26 103 30 111
79 160 48 50 54 62 102 205 l50 153 98 50 c54 28 110 63 125 78 14 15 31 27
37 27 5 0 60 -51 122 -112z"/>
</g>
</svg>
