<?xml version="1.0" standalone="no"?>
<!DOCTYPE svg PUBLIC "-//W3C//DTD SVG 20010904//EN"
 "http://www.w3.org/TR/2001/REC-SVG-20010904/DTD/svg10.dtd">
<svg version="1.0" xmlns="http://www.w3.org/2000/svg"
 width="3000.000000pt" height="4000.000000pt" viewBox="0 0 3000.000000 4000.000000"
 preserveAspectRatio="xMidYMid meet">
<metadata>
Created by potrace 1.16, written by Peter Selinger 2001-2019
</metadata>
<g transform="translate(0.000000,4000.000000) scale(0.100000,-0.100000)"
fill="#000000" stroke="none">
<path d="M5358 27873 c-14 -16 -36 -48 -48 -73 -13 -25 -38 -62 -56 -83 -19
-20 -34 -41 -34 -45 0 -5 23 -19 50 -32 28 -13 50 -25 50 -26 0 -2 -7 -19 -16
-38 -15 -30 -27 -38 -93 -62 -42 -15 -89 -39 -106 -54 -16 -15 -52 -39 -80
-53 -27 -14 -72 -49 -100 -77 -27 -28 -75 -64 -105 -80 -30 -15 -66 -40 -80
-55 -14 -15 -47 -38 -75 -52 -27 -14 -61 -36 -75 -48 -20 -19 -54 -29 -165
-49 l-140 -25 -29 29 -29 29 -111 -56 c-70 -35 -128 -72 -158 -100 l-46 -46
-29 21 -29 21 -161 -162 c-109 -110 -169 -178 -186 -212 l-25 -51 -119 -23
c-66 -12 -124 -26 -130 -29 -6 -4 -22 -29 -36 -57 -14 -27 -61 -88 -105 -135
-45 -48 -93 -112 -110 -146 l-31 -61 91 -29 c87 -27 93 -31 160 -103 38 -41
80 -95 93 -121 l23 -46 -19 -45 c-27 -58 -53 -86 -114 -116 -27 -14 -60 -35
-73 -46 l-22 -21 -50 49 -49 49 -78 -36 c-43 -20 -103 -44 -133 -53 -30 -10
-104 -43 -165 -73 -60 -30 -141 -65 -178 -78 l-68 -23 -53 26 c-53 26 -54 26
-79 7 -34 -25 -47 -55 -47 -109 0 -63 6 -73 69 -104 31 -16 66 -40 79 -54 l23
-24 100 25 100 25 50 -49 50 -49 155 -26 c144 -25 159 -29 188 -58 l32 -31 24
25 c23 25 24 25 44 6 12 -10 44 -30 71 -44 28 -14 61 -37 75 -52 14 -15 51
-40 82 -56 l58 -29 105 32 c81 25 106 37 111 52 4 12 40 55 81 98 l75 76 74
-25 c41 -14 98 -38 127 -54 l52 -28 107 106 106 106 89 -22 c102 -26 91 -19
167 -99 l60 -62 -24 -25 -24 -25 35 -36 c19 -19 56 -47 83 -62 47 -26 51 -31
75 -104 22 -66 35 -87 83 -135 l57 -57 71 34 c38 19 70 36 70 39 0 3 -12 17
-27 33 l-26 28 18 39 c9 22 28 50 41 62 l24 23 83 -40 c45 -21 100 -56 123
-77 l41 -37 46 25 c25 14 83 38 129 54 45 15 102 38 125 50 54 27 63 27 89 -6
l22 -28 31 29 31 30 50 -24 51 -24 52 51 52 51 45 -23 c25 -13 58 -37 74 -54
l30 -31 22 21 23 21 20 -41 c17 -32 35 -48 81 -71 33 -16 62 -30 65 -30 2 0
16 23 30 50 l25 50 49 -24 48 -25 24 25 23 24 23 -22 23 -22 75 24 75 24 22
-21 c29 -26 126 -75 196 -97 28 -10 52 -20 52 -24 0 -3 -8 -14 -17 -24 -16
-18 -15 -21 22 -58 l38 -39 68 34 c80 41 108 75 139 168 12 37 27 67 33 67 7
0 20 18 30 40 l18 39 -29 58 c-17 32 -40 67 -52 78 -12 11 -60 94 -105 185
-45 91 -93 174 -105 185 -12 11 -35 45 -50 75 -15 30 -37 63 -48 74 l-21 18
25 56 25 56 -55 55 c-45 47 -58 69 -80 137 -16 49 -37 91 -52 105 -14 13 -37
45 -50 71 l-23 46 29 34 c16 18 30 41 30 51 0 19 -115 147 -132 147 -6 0 -18
-10 -28 -22 l-18 -23 -24 23 c-13 12 -28 22 -33 22 -5 0 -44 -34 -86 -76 l-76
-76 -51 26 c-28 14 -54 30 -57 36 -12 19 17 41 127 96 106 53 108 55 138 114
l30 60 -26 51 -26 51 33 34 c18 19 31 35 28 37 -2 2 -54 16 -115 31 l-111 27
-21 68 -22 67 25 74 c15 44 38 87 55 105 30 31 30 31 10 50 -27 25 -26 29 18
49 31 14 45 30 71 83 l33 66 -166 166 -165 165 -128 -26 -128 -27 -68 67 c-44
42 -81 91 -102 132 -18 36 -44 75 -56 86 -32 29 -220 124 -245 124 -11 0 -32
-12 -46 -27z m145 -64 c98 -49 131 -78 164 -144 14 -27 63 -89 110 -136 l85
-86 116 24 c64 13 124 22 132 21 8 -2 78 -67 154 -145 l139 -142 -18 -42 c-16
-34 -30 -47 -82 -72 l-63 -31 26 -27 26 -28 -19 -28 c-11 -15 -32 -63 -46
-105 l-26 -78 30 -89 30 -90 74 -17 c94 -22 100 -26 85 -51 -10 -16 -8 -27 13
-68 l25 -50 -23 -45 c-21 -40 -35 -51 -127 -99 -58 -31 -116 -70 -132 -88
l-29 -34 34 -35 c19 -20 61 -49 93 -66 l59 -30 76 76 77 77 24 -26 24 -25 26
25 26 25 38 -39 38 -39 -25 -48 -25 -49 33 -65 c18 -36 42 -73 53 -84 12 -10
33 -53 47 -95 20 -61 35 -87 70 -121 25 -24 45 -50 45 -57 0 -7 -10 -33 -22
-58 l-22 -45 31 -32 c17 -18 42 -55 56 -83 14 -27 35 -59 47 -70 12 -11 58
-92 102 -180 44 -88 94 -175 110 -194 35 -40 71 -119 64 -138 -3 -8 -13 -13
-23 -11 -13 2 -22 -15 -42 -79 -29 -92 -47 -115 -112 -149 -35 -17 -49 -20
-58 -11 -8 8 -4 19 19 42 l30 31 -88 28 c-110 36 -189 76 -225 114 l-29 30
-79 -26 -79 -26 -30 29 -30 29 -29 -28 -29 -28 -51 26 -51 26 -25 -50 -25 -50
-40 20 c-31 16 -47 34 -71 81 l-30 61 -29 -27 -29 -28 -28 24 c-16 13 -53 35
-82 49 l-53 24 -50 -52 -49 -52 -51 26 -50 25 -24 -22 -24 -22 -24 22 -24 22
-58 -29 c-33 -16 -84 -37 -114 -47 -30 -9 -85 -31 -123 -48 l-68 -30 -27 25
c-15 14 -74 49 -131 78 l-103 51 -30 -28 c-17 -15 -45 -58 -63 -94 l-34 -66
21 -21 21 -20 -30 -16 c-30 -15 -30 -15 -74 30 -34 34 -50 63 -70 122 -25 75
-27 78 -81 107 -91 49 -94 53 -61 87 l27 28 -89 90 -88 89 -114 28 -114 27
-101 -101 -100 -102 -47 23 c-25 13 -83 36 -129 51 -97 31 -80 39 -196 -90
-75 -84 -86 -92 -156 -118 l-75 -28 -47 22 c-26 12 -58 33 -70 47 -13 13 -45
35 -73 49 -27 14 -67 41 -87 61 l-38 36 -23 -22 c-28 -26 -36 -27 -52 -6 -8
12 -59 25 -169 44 l-157 27 -55 54 -54 53 -105 -25 -104 -26 -23 24 c-13 14
-39 33 -59 44 -20 10 -39 25 -43 34 -10 27 -7 70 7 89 13 17 16 17 64 -7 l51
-26 96 35 c54 19 130 52 169 74 40 21 115 54 167 73 52 19 113 43 136 55 l41
21 54 -55 53 -54 36 34 c19 19 58 45 85 59 62 31 105 76 139 145 l27 53 -26
58 c-37 82 -180 222 -250 245 -77 25 -80 28 -60 67 10 19 54 72 99 119 45 47
90 104 100 127 21 48 13 44 164 74 l113 22 27 52 c17 34 80 108 173 203 l146
151 26 -27 27 -27 67 67 c48 46 93 79 152 108 l83 41 27 -24 26 -25 164 29
c148 26 167 31 195 58 17 16 54 40 81 54 28 14 61 37 75 52 14 15 50 40 80 55
30 16 75 49 100 75 25 26 70 59 100 75 30 15 66 40 79 54 14 15 55 36 100 51
l77 25 32 66 c18 37 32 68 30 69 -2 1 -23 12 -46 24 -40 20 -42 24 -29 39 8 9
25 37 37 62 23 47 58 90 72 90 5 0 45 -18 91 -41z"/>
</g>
</svg>
