<?xml version="1.0" standalone="no"?>
<!DOCTYPE svg PUBLIC "-//W3C//DTD SVG 20010904//EN"
 "http://www.w3.org/TR/2001/REC-SVG-20010904/DTD/svg10.dtd">
<svg version="1.0" xmlns="http://www.w3.org/2000/svg"
 width="3000.000000pt" height="4000.000000pt" viewBox="0 0 3000.000000 4000.000000"
 preserveAspectRatio="xMidYMid meet">
<metadata>
Created by potrace 1.16, written by Peter Selinger 2001-2019
</metadata>
<g transform="translate(0.000000,4000.000000) scale(0.100000,-0.100000)"
fill="#000000" stroke="none">
<path d="M1585 25528 c-33 -16 -74 -44 -92 -61 l-32 -30 45 -53 45 -53 -30
-16 c-29 -15 -33 -14 -81 10 l-50 25 -117 -59 c-100 -50 -126 -68 -170 -118
l-52 -60 50 -49 49 -48 -25 -26 -25 -26 27 -27 27 -27 -42 -42 c-57 -59 -51
-79 36 -111 l67 -24 27 -103 c30 -116 50 -143 129 -181 40 -18 56 -33 74 -69
l23 -45 -28 -56 -29 -56 80 -79 c45 -44 92 -101 106 -129 14 -27 38 -63 53
-80 21 -23 34 -53 50 -124 12 -51 33 -118 47 -148 l25 -55 -28 -29 -28 -29 29
-30 29 -30 -24 -75 -23 -75 23 -50 24 -51 -51 -52 c-33 -33 -68 -86 -98 -147
-39 -78 -66 -115 -156 -211 l-108 -116 24 -23 c31 -29 31 -33 3 -148 l-22 -94
44 -42 c25 -23 67 -51 93 -61 l48 -18 74 73 74 74 25 -23 24 -22 52 26 52 26
66 -22 c60 -19 77 -31 170 -123 67 -65 113 -120 132 -156 33 -63 83 -116 121
-125 29 -7 30 -7 103 145 23 47 57 96 92 131 50 50 53 57 39 69 -14 11 -20 11
-37 1 -38 -24 -43 0 -24 106 10 54 20 107 23 118 3 13 38 38 107 74 l103 54
26 81 c22 68 35 89 74 127 27 26 73 60 104 77 30 17 64 41 75 53 35 39 117 72
249 99 72 15 150 37 175 50 38 19 49 21 76 11 41 -15 75 -2 116 45 26 29 38
59 60 152 16 63 27 116 26 117 -2 2 -30 16 -64 33 -86 44 -90 50 -61 109 30
58 56 83 122 116 28 14 65 40 82 59 l33 34 -43 41 c-23 22 -65 52 -93 66 -76
38 -80 46 -50 104 13 26 51 74 84 107 83 81 78 92 -75 140 -117 38 -137 53
-110 84 8 9 27 42 42 72 15 30 41 70 58 88 l31 32 -31 33 c-47 49 -73 108 -66
150 8 51 -19 56 -112 22 l-73 -26 -49 24 c-26 14 -57 35 -68 47 -11 12 -42 33
-70 47 -27 14 -67 41 -87 61 l-38 36 -23 -22 c-28 -26 -36 -27 -52 -6 -8 12
-59 25 -169 44 l-157 27 -55 54 -54 53 -104 -25 -105 -26 -26 27 c-15 16 -70
49 -123 75 -54 26 -110 60 -127 75 -24 22 -54 33 -155 54 l-125 27 -80 79
c-44 44 -83 80 -85 80 -3 -1 -32 -15 -65 -32z m134 -101 l76 -73 125 -23 c104
-20 130 -28 155 -51 17 -15 77 -53 135 -83 58 -31 116 -67 128 -80 l23 -24
100 25 100 25 50 -49 50 -49 155 -26 c144 -25 159 -29 188 -58 l32 -31 24 25
c23 25 24 25 44 6 12 -10 44 -30 71 -44 28 -14 61 -37 75 -52 14 -15 51 -40
83 -57 l59 -29 61 20 c73 25 77 25 77 6 0 -21 48 -115 71 -141 18 -19 18 -22
4 -34 -9 -8 -28 -37 -42 -64 -14 -28 -35 -61 -46 -74 -31 -34 -30 -75 2 -105
14 -14 64 -37 111 -52 47 -14 91 -29 99 -31 9 -3 -6 -25 -45 -67 -33 -34 -70
-86 -83 -115 l-25 -52 35 -36 c19 -20 60 -49 91 -65 31 -16 60 -33 63 -39 10
-17 -24 -49 -85 -80 -67 -34 -89 -57 -128 -136 l-31 -61 37 -35 c20 -20 56
-46 80 -57 31 -16 42 -27 38 -39 -3 -9 -13 -48 -22 -87 -13 -51 -27 -81 -53
-111 l-36 -41 -33 15 c-31 15 -35 15 -89 -12 -32 -15 -111 -38 -182 -53 -129
-26 -219 -62 -256 -103 -11 -12 -42 -33 -70 -47 -27 -14 -78 -52 -112 -86 -54
-53 -66 -72 -88 -137 l-25 -76 -104 -51 c-79 -39 -105 -57 -109 -75 -3 -13
-15 -78 -28 -145 -22 -119 -22 -123 -4 -143 16 -18 17 -22 3 -37 -9 -10 -40
-67 -70 -126 l-54 -108 -27 21 c-15 12 -43 52 -62 89 -25 49 -60 92 -137 167
-98 97 -107 103 -185 128 l-81 27 -50 -25 -49 -25 -29 30 -29 29 -79 -80 -79
-79 -46 24 c-77 39 -78 41 -51 161 l23 105 -21 22 -22 23 96 94 c87 86 102
106 150 205 40 83 67 123 108 164 l55 54 -25 48 c-30 60 -30 69 0 156 l24 71
-21 21 -21 21 23 24 22 24 -30 60 c-16 33 -42 106 -56 163 -20 78 -33 112 -55
134 -15 17 -40 55 -55 85 -15 31 -58 86 -97 126 l-70 71 25 49 25 48 -31 62
c-26 53 -37 65 -78 85 -79 36 -103 71 -129 179 -12 52 -28 100 -34 106 -6 7
-35 19 -63 29 -29 9 -53 19 -53 23 0 3 19 25 42 49 l42 43 -24 25 -23 25 23
25 23 24 -47 52 c-25 28 -46 54 -46 58 0 21 97 95 177 135 l93 46 53 -26 53
-26 68 37 68 38 -53 53 c-46 46 -51 55 -39 69 14 17 78 54 94 55 5 0 44 -33
85 -73z"/>
</g>
</svg>
