<?xml version="1.0" standalone="no"?>
<!DOCTYPE svg PUBLIC "-//W3C//DTD SVG 20010904//EN"
 "http://www.w3.org/TR/2001/REC-SVG-20010904/DTD/svg10.dtd">
<svg version="1.0" xmlns="http://www.w3.org/2000/svg"
 width="3000.000000pt" height="4000.000000pt" viewBox="0 0 3000.000000 4000.000000"
 preserveAspectRatio="xMidYMid meet">
<metadata>
Created by potrace 1.16, written by Peter Selinger 2001-2019
</metadata>
<g transform="translate(0.000000,4000.000000) scale(0.100000,-0.100000)"
fill="#000000" stroke="none">
<path d="M15683 30282 c-54 -28 -108 -83 -137 -140 l-17 -32 -50 26 c-28 14
-53 24 -54 22 -2 -2 -15 -38 -28 -80 -14 -43 -38 -93 -57 -117 -32 -39 -32
-42 -16 -60 20 -22 19 -23 -50 -45 -35 -11 -65 -32 -100 -67 -27 -28 -71 -62
-99 -76 -27 -14 -75 -49 -105 -79 l-55 -53 -91 23 c-51 14 -139 49 -203 80
l-112 57 -46 -26 c-56 -31 -69 -31 -208 0 l-110 24 -127 -126 -127 -127 -26
24 -25 23 -25 -23 -25 -23 -23 21 -22 21 -113 -29 c-63 -15 -115 -30 -117 -32
-9 -10 -48 -286 -50 -363 -3 -76 1 -102 22 -165 23 -66 35 -85 108 -160 45
-47 88 -101 95 -120 19 -48 184 -216 243 -246 26 -13 47 -27 47 -30 0 -3 -14
-60 -31 -126 l-30 -121 83 -83 c49 -49 103 -92 131 -106 41 -18 54 -32 77 -78
32 -64 65 -96 135 -135 28 -16 75 -52 105 -82 l56 -53 129 26 129 26 54 -26
55 -27 27 26 27 26 89 -22 c82 -20 93 -26 144 -75 47 -45 69 -58 144 -84 l89
-30 36 33 c21 18 67 43 108 57 l73 24 26 78 c25 75 27 78 65 88 21 5 57 15 80
21 23 6 47 8 53 6 7 -3 32 -48 57 -100 l44 -96 102 -25 c119 -30 140 -32 163
-11 15 14 18 14 30 0 10 -12 9 -16 -6 -21 -11 -3 -34 -12 -53 -20 l-34 -15 46
-47 47 -48 -70 -69 c-63 -62 -72 -77 -96 -150 -23 -71 -34 -88 -98 -153 -43
-45 -94 -85 -129 -103 -49 -25 -61 -37 -84 -84 -21 -42 -35 -57 -67 -72 -97
-43 -148 -122 -191 -294 -14 -57 -40 -146 -56 -197 -17 -51 -29 -95 -28 -96 2
-2 53 -15 112 -30 l108 -27 85 -89 c80 -83 87 -88 112 -79 15 5 33 12 40 14
10 4 10 10 2 26 -10 17 -8 25 10 44 l22 24 54 -27 54 -26 33 32 c25 24 127 72
153 72 2 0 15 -21 28 -47 13 -27 49 -72 79 -101 52 -51 59 -55 165 -81 l111
-28 28 29 c15 17 51 41 78 55 28 14 91 64 140 112 50 48 105 93 123 101 30 12
38 11 78 -8 25 -12 52 -22 62 -22 24 0 112 53 141 84 14 14 28 26 33 26 5 0
45 14 89 32 l80 31 -39 41 c-22 23 -51 64 -65 91 -14 28 -34 58 -45 68 -20 18
-20 18 4 110 12 51 35 118 51 150 24 51 26 61 15 87 -7 17 -17 43 -24 60 -10
25 -9 40 11 102 13 40 48 121 77 180 l54 108 -26 53 -26 53 27 53 26 53 -22
24 -23 24 28 29 28 29 -52 27 -53 27 73 73 73 74 -80 88 c-45 48 -97 104 -117
123 l-36 34 -53 -52 -53 -52 -63 64 c-61 61 -63 66 -57 101 4 21 28 80 54 131
l46 93 -27 29 -28 29 23 64 c21 58 28 66 73 91 41 22 54 37 81 91 l33 64 -30
29 c-17 16 -41 50 -54 75 l-24 46 27 81 26 81 -24 26 c-23 25 -23 25 -5 65 22
49 126 150 154 150 14 0 21 7 22 20 1 11 2 26 3 33 1 6 -11 52 -27 100 l-29
88 -114 57 -113 56 -25 -23 c-32 -30 -46 -8 -15 25 l23 25 -42 42 -43 42 -52
-58 -52 -58 -128 27 -127 27 -25 -23 c-24 -23 -24 -23 -42 -3 -10 11 -77 41
-152 67 -74 25 -137 48 -139 51 -3 3 14 26 38 50 l44 45 -34 35 c-23 24 -56
42 -109 60 -43 14 -88 37 -106 54 -17 16 -60 38 -100 51 -38 12 -83 35 -100
50 -16 15 -60 37 -97 50 -38 12 -68 23 -68 26 0 2 10 24 22 49 l22 45 -34 35
c-19 19 -39 35 -44 35 -6 -1 -34 -13 -63 -28z m76 -36 c10 -11 7 -25 -13 -65
-14 -28 -26 -54 -26 -59 0 -5 35 -19 78 -33 47 -15 90 -36 112 -55 20 -18 65
-41 105 -54 40 -13 83 -35 100 -51 17 -16 63 -40 105 -54 40 -14 82 -33 92
-42 18 -16 17 -19 -38 -74 l-56 -57 169 -56 c134 -45 175 -63 201 -88 l32 -32
29 28 30 29 128 -26 128 -25 45 44 c43 41 70 55 70 36 0 -5 -11 -19 -25 -32
l-25 -24 42 -43 42 -43 31 29 30 29 90 -49 91 -49 23 -72 c23 -69 23 -73 5
-83 -51 -28 -129 -115 -161 -179 l-34 -68 26 -28 27 -29 -24 -73 -25 -74 29
-60 c17 -32 39 -69 50 -80 19 -22 19 -22 -1 -62 -15 -29 -36 -49 -73 -69 -51
-28 -52 -29 -81 -117 l-29 -88 25 -26 26 -25 -50 -98 c-69 -139 -68 -144 39
-256 l88 -92 52 52 52 52 87 -88 88 -87 -80 -80 c-43 -43 -77 -81 -74 -83 2
-3 23 -14 47 -26 45 -23 50 -32 27 -51 -20 -17 -19 -30 7 -57 l21 -23 -22 -48
-23 -49 26 -51 26 -52 -49 -97 c-26 -54 -61 -137 -77 -185 l-28 -87 24 -51 24
-51 -22 -44 c-22 -45 -72 -228 -72 -263 0 -10 9 -27 21 -38 12 -10 35 -46 51
-79 17 -33 36 -67 44 -76 12 -14 7 -17 -44 -33 -31 -10 -73 -33 -92 -50 -19
-17 -54 -39 -76 -49 -41 -19 -41 -19 -90 6 l-49 25 -65 -33 c-43 -22 -90 -59
-140 -110 -41 -42 -97 -88 -125 -102 -27 -14 -60 -35 -73 -46 l-22 -21 -94 23
c-85 20 -97 26 -138 69 -26 26 -60 75 -77 109 l-31 62 -87 -30 c-48 -16 -97
-39 -110 -51 l-23 -21 -50 23 -51 24 -49 -49 -50 -49 -77 75 c-76 74 -80 76
-161 94 -46 10 -85 22 -87 26 -3 3 3 31 14 60 10 30 30 106 46 169 43 179 77
231 180 283 42 21 55 34 75 77 19 41 33 57 70 75 25 13 84 62 130 110 76 77
88 94 110 160 23 67 33 83 110 160 l84 85 -27 28 c-27 28 -35 52 -17 52 5 0
18 18 28 39 l19 39 -43 43 -44 43 -30 -29 c-29 -28 -31 -28 -83 -16 -133 29
-122 21 -182 140 l-54 109 -119 -30 -119 -30 -22 -78 -23 -79 -76 -25 c-41
-14 -86 -36 -99 -48 l-23 -21 -62 18 c-50 15 -76 31 -123 76 -58 54 -64 57
-169 83 l-110 27 -24 -25 -25 -25 -48 24 -48 25 -127 -26 -127 -26 -56 55
c-31 30 -79 67 -108 81 -58 29 -78 51 -112 123 -19 42 -32 55 -71 73 -28 13
-80 55 -123 99 l-76 76 23 95 c13 52 35 118 49 147 l27 52 -21 11 c-16 9 -25
8 -40 -6 -16 -15 -23 -15 -51 -3 -54 21 -186 156 -220 224 -19 37 -60 90 -109
140 -70 71 -81 88 -100 150 -27 87 -26 173 4 344 l22 125 90 23 90 23 28 -32
27 -32 27 27 27 27 26 -25 26 -25 133 134 132 133 126 -25 125 -25 44 21 c25
12 50 22 56 22 7 0 50 -20 97 -44 50 -25 135 -57 201 -75 l115 -31 55 54 c30
30 75 64 100 76 24 13 72 49 105 80 48 46 74 62 130 80 112 36 112 37 79 71
l-28 29 21 22 c12 13 29 49 39 82 10 32 24 60 30 63 7 2 30 -5 53 -16 l41 -21
29 57 c31 61 76 110 126 136 37 20 40 20 54 3z"/>
</g>
</svg>
