<?xml version="1.0" standalone="no"?>
<!DOCTYPE svg PUBLIC "-//W3C//DTD SVG 20010904//EN"
 "http://www.w3.org/TR/2001/REC-SVG-20010904/DTD/svg10.dtd">
<svg version="1.0" xmlns="http://www.w3.org/2000/svg"
 width="3000.000000pt" height="4000.000000pt" viewBox="0 0 3000.000000 4000.000000"
 preserveAspectRatio="xMidYMid meet">
<metadata>
Created by potrace 1.16, written by Peter Selinger 2001-2019
</metadata>
<g transform="translate(0.000000,4000.000000) scale(0.100000,-0.100000)"
fill="#000000" stroke="none">
<path d="M6016 28770 c-79 -21 -115 -35 -136 -55 -20 -19 -55 -34 -126 -51
-73 -19 -107 -33 -129 -54 -16 -15 -52 -39 -80 -53 -27 -14 -64 -40 -81 -59
l-32 -33 -22 -280 c-13 -154 -26 -284 -31 -289 -11 -13 23 -37 121 -86 101
-50 133 -78 167 -145 14 -27 63 -89 110 -136 l85 -86 116 24 c64 13 124 22
132 21 8 -2 78 -67 154 -145 l139 -142 -18 -42 c-16 -34 -30 -47 -82 -72 l-63
-31 26 -27 26 -28 -19 -28 c-11 -15 -32 -63 -46 -105 l-26 -78 30 -89 30 -90
74 -17 c94 -22 100 -26 85 -51 -10 -16 -8 -27 13 -69 l25 -49 -23 -45 c-21
-40 -35 -51 -127 -99 -58 -31 -116 -70 -132 -88 l-29 -34 34 -35 c19 -20 61
-49 93 -66 l59 -30 76 76 77 77 24 -26 24 -25 26 25 26 25 49 -51 c65 -66 82
-75 104 -55 10 9 51 27 92 41 59 20 85 36 129 79 30 30 78 65 106 79 27 14 56
33 63 41 18 21 34 20 56 -4 18 -20 18 -20 47 7 l28 27 42 -24 c24 -12 58 -37
75 -53 l33 -31 25 24 26 24 36 -36 37 -37 -49 -106 -48 -106 48 -49 c26 -26
45 -53 41 -58 -3 -6 -34 -26 -69 -45 -34 -20 -77 -51 -96 -71 l-34 -35 91 -93
91 -93 24 23 c13 12 28 22 34 22 6 0 42 -34 79 -75 l67 -76 29 27 28 28 28
-27 28 -27 24 25 24 25 26 -25 26 -25 61 63 c96 98 108 130 139 374 29 235 29
235 124 283 30 15 65 39 78 52 16 18 50 32 117 49 l95 23 57 -28 56 -27 32 33
c27 27 37 53 59 142 26 106 58 186 75 186 4 0 22 -5 40 -11 37 -13 47 -4 80
69 11 23 23 42 26 42 3 0 33 -14 67 -31 36 -18 59 -25 56 -17 -3 7 -18 66 -33
131 -31 134 -49 164 -126 203 l-49 24 71 143 c39 78 81 153 93 166 11 12 46
36 76 51 69 35 110 79 143 151 l25 57 -26 26 -26 26 25 104 26 105 -66 65 -66
65 -61 -67 c-34 -37 -73 -90 -87 -117 -31 -60 -215 -244 -272 -273 l-40 -20
-133 26 -132 26 -26 -25 -25 -26 -85 21 -84 20 0 71 c0 61 19 241 35 341 5 29
3 32 -83 77 l-89 47 -29 -31 c-16 -17 -49 -41 -75 -54 l-45 -23 -107 26 -107
26 -51 -49 c-28 -28 -64 -77 -81 -110 -16 -33 -48 -79 -71 -102 l-41 -43 -28
27 -28 27 -28 -27 c-28 -27 -28 -27 -48 -7 -10 11 -51 30 -89 43 -69 23 -71
24 -104 86 l-33 63 -37 -35 c-20 -19 -56 -45 -81 -57 -25 -12 -80 -56 -122
-98 l-78 -76 -27 26 c-16 14 -51 37 -79 51 l-51 26 -24 -25 -25 -24 -34 35
-34 35 22 23 22 24 -24 55 -24 55 30 31 31 30 -72 36 c-40 20 -75 44 -78 52
-4 10 11 32 39 62 34 35 51 64 68 117 14 42 35 83 53 102 l31 33 -25 52 c-13
28 -39 70 -57 92 -19 22 -44 61 -58 88 -13 26 -38 63 -54 82 l-30 34 -80 -26
-80 -26 -53 51 -52 50 -109 -27z m281 -103 c72 25 75 25 95 7 11 -11 33 -44
48 -74 15 -30 38 -64 50 -75 12 -11 33 -41 46 -66 l23 -46 -23 -22 c-14 -13
-33 -53 -46 -99 -19 -68 -29 -84 -82 -138 l-59 -60 50 -47 c28 -26 54 -47 58
-47 4 0 15 -4 23 -10 12 -7 11 -12 -5 -30 -18 -20 -18 -21 3 -66 27 -55 27
-62 0 -91 l-22 -24 67 -67 67 -67 27 27 26 27 41 -21 c23 -11 57 -36 77 -55
l36 -34 73 81 c48 53 91 90 124 107 28 14 61 35 74 47 24 21 24 21 38 1 8 -11
17 -29 20 -41 4 -16 24 -27 82 -45 51 -16 90 -36 115 -58 l38 -34 24 23 25 23
25 -23 25 -24 61 60 c33 32 73 84 89 114 16 30 49 75 73 99 l46 44 99 -25 99
-25 66 33 c36 19 70 41 75 51 9 16 12 16 50 -1 23 -10 50 -28 61 -40 19 -21
19 -22 2 -162 -18 -141 -16 -274 4 -293 6 -5 55 -20 110 -35 l99 -26 28 27 27
26 124 -25 124 -25 65 33 c50 25 88 57 163 136 55 58 109 127 125 158 16 30
47 73 69 95 l41 39 39 -38 38 -37 -24 -105 -25 -106 23 -24 c22 -24 22 -24 3
-65 -28 -63 -51 -87 -113 -118 -31 -16 -70 -44 -88 -63 -27 -29 -199 -356
-191 -363 2 -1 30 -16 63 -33 79 -40 99 -64 119 -144 9 -37 16 -70 16 -73 0
-3 -17 3 -38 14 l-39 20 -33 -70 c-19 -38 -35 -69 -36 -69 -1 0 -20 7 -43 15
l-41 14 -34 -67 c-18 -37 -43 -110 -56 -162 -12 -52 -31 -104 -41 -114 -18
-20 -19 -19 -68 4 l-51 23 -107 -28 c-86 -22 -115 -34 -143 -60 -19 -18 -57
-44 -85 -58 -92 -46 -93 -48 -121 -283 -29 -238 -42 -278 -113 -348 l-47 -46
-24 25 -24 25 -28 -27 -28 -27 -25 24 -25 23 -25 -23 -26 -24 -77 77 -78 78
-24 -26 -24 -26 -63 63 c-72 71 -71 73 16 118 31 15 72 44 91 64 l34 36 -53
54 -52 53 53 106 53 107 -65 65 -64 65 -28 -27 -28 -27 -27 26 c-16 14 -51 37
-79 51 l-51 26 -24 -25 -23 -24 -28 27 -28 27 -38 -36 c-20 -20 -57 -46 -82
-58 -25 -12 -66 -44 -91 -72 -40 -45 -57 -55 -137 -83 l-91 -31 -58 58 c-31
32 -61 58 -66 58 -5 0 -17 -10 -27 -22 l-18 -23 -24 23 c-13 12 -28 22 -33 22
-5 0 -44 -34 -86 -76 l-76 -76 -51 26 c-28 14 -54 30 -57 36 -12 19 17 41 127
96 106 53 108 55 138 114 l30 60 -26 51 -26 51 33 34 c18 19 31 35 28 37 -2 2
-54 16 -115 31 l-111 27 -21 68 -22 67 25 74 c15 44 38 87 55 105 30 31 30 31
10 50 -27 25 -26 29 18 49 31 14 45 30 71 83 l33 66 -166 166 -165 165 -128
-26 -128 -27 -68 67 c-44 42 -81 91 -102 132 -42 82 -59 97 -172 154 -50 25
-94 49 -97 54 -3 5 5 131 18 280 26 306 22 295 111 339 28 14 64 38 80 53 23
21 55 34 130 51 78 18 106 30 126 51 19 20 50 33 120 51 l94 24 54 -52 54 -53
74 25z"/>
</g>
</svg>
