<?xml version="1.0" standalone="no"?>
<!DOCTYPE svg PUBLIC "-//W3C//DTD SVG 20010904//EN"
 "http://www.w3.org/TR/2001/REC-SVG-20010904/DTD/svg10.dtd">
<svg version="1.0" xmlns="http://www.w3.org/2000/svg"
 width="3000.000000pt" height="4000.000000pt" viewBox="0 0 3000.000000 4000.000000"
 preserveAspectRatio="xMidYMid meet">
<metadata>
Created by potrace 1.16, written by Peter Selinger 2001-2019
</metadata>
<g transform="translate(0.000000,4000.000000) scale(0.100000,-0.100000)"
fill="#000000" stroke="none">
<path d="M9290 32430 c-29 -62 -36 -67 -60 -45 -17 15 -28 11 -189 -69 -94
-48 -171 -89 -171 -93 0 -4 11 -19 25 -33 l25 -26 -25 -24 -25 -24 26 -27 27
-28 -17 -43 c-10 -24 -32 -58 -49 -76 l-31 -32 22 -45 c12 -25 22 -52 22 -61
0 -24 -46 -107 -74 -133 l-26 -25 50 -51 c46 -46 49 -53 35 -65 -42 -35 -38
-47 27 -84 35 -19 81 -53 102 -75 l40 -41 -23 -24 -22 -24 52 -103 c44 -87 57
-127 81 -243 20 -99 34 -146 49 -162 l20 -21 -40 -87 c-22 -47 -46 -86 -53
-86 -7 0 -44 9 -83 19 l-70 18 -32 -36 -33 -36 49 -50 49 -50 -49 -54 -49 -55
26 -27 c25 -26 26 -30 13 -61 -7 -18 -28 -49 -45 -68 -18 -21 -42 -67 -57
-115 -18 -51 -38 -91 -59 -112 l-31 -32 39 -43 c23 -25 60 -88 88 -151 l50
-108 60 60 61 60 95 -24 c86 -22 99 -28 136 -68 l41 -45 41 41 41 41 39 -18
c22 -10 61 -39 86 -65 l46 -47 -25 -24 -25 -24 27 -28 27 -28 -27 -55 c-15
-31 -27 -57 -27 -58 0 -2 32 -18 70 -37 l71 -34 22 28 23 28 40 -20 c21 -11
48 -29 58 -41 19 -21 19 -22 -4 -46 l-23 -25 59 -64 c57 -61 91 -80 98 -53 2
6 13 57 25 112 21 98 23 101 78 157 l57 58 -24 25 -23 25 128 132 c71 73 143
148 161 167 l32 34 29 -24 c16 -13 53 -35 81 -48 l53 -25 111 110 c87 86 117
123 140 173 l29 63 -22 24 -22 24 23 25 24 26 -79 79 -78 79 14 33 c7 18 31
52 52 75 l38 42 -20 40 c-12 22 -21 44 -21 50 0 5 42 32 93 59 61 34 112 71
152 111 l59 61 -34 36 c-33 35 -34 36 -10 31 176 -43 167 -43 216 -19 l46 22
27 -23 c20 -17 60 -29 154 -47 l126 -24 101 -108 c56 -59 105 -108 110 -108 5
0 67 59 138 131 l128 131 51 -25 50 -26 35 37 c25 26 44 62 63 120 l27 83 -23
25 -23 24 52 53 52 53 -25 24 -25 24 27 28 c30 32 31 29 -22 56 l-39 20 39 19
c22 11 69 30 106 42 51 17 76 32 115 72 27 28 71 62 98 76 l48 25 29 -28 29
-28 76 74 c41 41 81 87 89 103 14 27 13 28 -38 53 -29 14 -77 51 -108 81 -52
50 -63 56 -145 77 -49 12 -98 28 -110 34 -18 10 -26 6 -55 -24 -19 -20 -56
-47 -84 -61 -27 -14 -71 -45 -96 -69 l-45 -44 -24 25 -24 25 -29 -27 -29 -28
-66 72 c-40 43 -87 82 -117 96 -27 14 -66 41 -85 61 l-34 36 -82 -81 -81 -81
-50 25 -50 26 -26 -26 c-24 -25 -27 -26 -71 -13 -55 15 -63 25 -42 49 15 16
13 20 -24 56 l-40 39 -50 -49 -50 -49 -75 74 c-41 41 -77 82 -80 91 -4 11 -13
15 -24 12 -15 -4 -22 -21 -32 -71 -12 -58 -20 -74 -62 -119 -41 -44 -61 -56
-126 -78 -74 -24 -81 -29 -201 -150 -100 -100 -127 -122 -138 -113 -7 7 -29
43 -48 81 l-35 69 -72 -69 c-40 -38 -87 -75 -105 -83 l-33 -13 -77 75 c-42 42
-96 86 -119 97 -48 24 -83 82 -123 206 -30 95 -64 128 -161 160 -42 14 -84 34
-94 44 -15 18 -15 22 5 63 12 23 36 58 53 76 l31 32 -42 42 -42 42 -29 -28
-29 -28 -38 20 c-53 28 -86 65 -126 145 l-34 68 -24 -51z m79 -143 c14 -16 56
-44 92 -62 l66 -34 20 21 c32 32 50 12 19 -21 -24 -25 -66 -110 -66 -134 0
-28 57 -68 134 -93 45 -14 91 -36 102 -48 12 -11 32 -52 44 -91 13 -38 35 -98
50 -132 25 -55 34 -65 82 -88 31 -16 88 -62 139 -112 l86 -85 54 27 c30 15 75
47 101 72 l46 46 21 -40 c26 -52 69 -103 86 -103 8 0 70 60 140 133 l126 133
84 28 c77 25 88 32 135 86 28 32 56 77 63 100 l12 41 80 -81 79 -80 52 51 c32
31 57 49 64 44 8 -5 2 -17 -20 -40 l-31 -32 98 -35 98 -36 28 27 28 26 52 -28
52 -28 72 77 72 78 23 -21 c13 -11 43 -31 68 -43 25 -12 84 -61 132 -108 l87
-86 26 24 25 24 28 -27 28 -27 59 61 c33 33 85 73 115 89 30 15 63 37 73 48
18 20 18 20 109 -4 84 -21 95 -27 147 -77 31 -30 71 -63 90 -72 l34 -17 -54
-54 c-29 -30 -57 -54 -62 -54 -5 0 -17 10 -26 21 l-17 21 -60 -32 c-32 -18
-84 -57 -114 -85 -39 -38 -71 -58 -110 -70 -65 -20 -230 -95 -230 -105 0 -4
23 -17 50 -30 28 -13 50 -26 50 -30 0 -4 -9 -15 -20 -25 -20 -18 -20 -18 7
-47 l27 -28 -47 -48 c-26 -26 -47 -52 -47 -58 0 -6 11 -21 24 -33 l24 -22 -20
-67 c-11 -37 -28 -76 -39 -87 -19 -19 -19 -19 -73 8 l-55 26 -123 -129 -123
-130 -100 99 -100 100 -125 26 c-107 22 -130 30 -156 56 l-31 30 -57 -27 -56
-28 -92 22 c-62 15 -101 31 -118 47 -22 20 -27 22 -43 10 -17 -12 -17 -16 12
-72 17 -32 37 -66 43 -75 21 -29 -42 -82 -174 -149 l-118 -59 27 -55 27 -55
-21 -22 c-11 -13 -34 -50 -51 -83 l-30 -60 76 -78 77 -77 -28 -27 -27 -27 27
-28 c26 -27 26 -28 9 -66 -10 -21 -61 -85 -114 -141 l-97 -103 -45 26 c-25 14
-59 39 -75 56 l-29 31 -198 -198 -198 -197 27 -28 27 -28 -46 -48 c-40 -40
-49 -58 -67 -125 -10 -43 -22 -81 -26 -85 -3 -3 -18 6 -32 21 l-27 27 27 28
28 29 -43 39 c-24 21 -67 50 -96 63 l-52 24 -23 -21 c-28 -26 -40 -27 -72 -6
l-24 16 24 48 c24 47 24 48 5 65 -25 23 -25 33 0 61 l21 21 -52 57 c-34 38
-75 69 -119 91 l-67 34 -36 -37 -37 -36 -37 35 c-32 31 -54 40 -147 63 l-109
27 -43 -42 c-24 -24 -45 -41 -48 -38 -2 2 -24 45 -49 95 -25 49 -53 96 -61
104 -15 12 -15 15 4 35 11 11 31 54 45 95 14 41 36 86 49 100 13 14 38 54 56
89 l31 63 -22 24 -23 25 52 52 52 52 -52 52 c-29 29 -49 56 -45 60 4 4 46 -2
93 -14 l85 -21 60 120 60 121 -30 31 c-27 28 -34 49 -57 161 -20 100 -36 150
-70 217 -24 48 -44 94 -44 101 0 7 11 24 25 37 l26 24 -62 62 c-34 34 -79 70
-100 80 l-39 17 22 24 22 23 -52 53 -53 53 22 20 c12 10 33 46 49 79 l27 60
-24 49 -25 48 25 27 c14 14 37 50 52 80 l26 53 -20 22 c-26 28 -26 34 1 63 20
21 20 24 5 41 -10 10 -17 22 -17 25 0 4 58 36 128 71 l129 65 31 -31 30 -31
22 44 22 43 15 -30 c9 -16 27 -42 42 -57z"/>
</g>
</svg>
