<?xml version="1.0" standalone="no"?>
<!DOCTYPE svg PUBLIC "-//W3C//DTD SVG 20010904//EN"
 "http://www.w3.org/TR/2001/REC-SVG-20010904/DTD/svg10.dtd">
<svg version="1.0" xmlns="http://www.w3.org/2000/svg"
 width="3000.000000pt" height="4000.000000pt" viewBox="0 0 3000.000000 4000.000000"
 preserveAspectRatio="xMidYMid meet">
<metadata>
Created by potrace 1.16, written by Peter Selinger 2001-2019
</metadata>
<g transform="translate(0.000000,4000.000000) scale(0.100000,-0.100000)"
fill="#000000" stroke="none">
<path d="M5769 16518 c-17 -35 -42 -75 -56 -89 -14 -16 -30 -52 -39 -90 -8
-35 -19 -81 -25 -103 l-10 -39 -32 31 c-18 16 -59 43 -91 60 l-60 29 -74 -25
-74 -24 -58 57 -59 58 -22 -46 c-13 -26 -27 -47 -32 -47 -12 0 -62 -40 -51
-41 5 0 -19 -10 -54 -23 -35 -12 -64 -25 -64 -29 -1 -5 9 -42 22 -83 l24 -75
-47 -47 c-38 -39 -62 -53 -120 -71 -65 -21 -80 -31 -155 -104 -46 -45 -90 -94
-98 -109 -7 -15 -22 -29 -31 -33 -10 -3 -29 -20 -42 -36 l-24 -30 28 -29 28
-29 -22 -119 c-22 -119 -22 -119 -71 -167 -36 -36 -47 -52 -39 -61 7 -8 6 -14
-2 -19 -7 -5 13 -32 57 -76 l68 -69 -28 -29 -28 -30 159 -80 c88 -43 173 -91
190 -105 30 -25 32 -25 73 -11 37 13 45 13 73 -1 18 -9 50 -34 73 -55 l40 -39
28 29 29 30 50 -25 50 -26 48 48 c45 44 50 46 66 32 10 -9 38 -26 63 -38 25
-12 62 -39 83 -59 l38 -36 77 27 76 28 26 -24 c14 -13 45 -34 70 -46 25 -12
62 -38 83 -58 l37 -36 55 54 54 53 63 -19 c39 -11 78 -32 101 -53 l38 -34 37
35 c20 20 57 46 82 58 25 12 59 35 75 50 17 15 62 39 102 54 97 34 183 79 211
109 13 13 41 33 63 42 39 18 40 18 58 -1 10 -10 30 -55 45 -99 l26 -80 113
-38 c61 -21 116 -37 121 -37 5 0 14 8 21 17 14 19 5 55 -35 133 l-22 42 28 29
27 28 -89 98 c-49 54 -96 113 -103 131 l-14 34 82 82 82 83 -54 29 -55 28 15
30 c22 43 73 196 73 220 0 12 -11 55 -25 97 -24 72 -28 77 -68 95 -23 10 -71
46 -107 80 -36 34 -80 69 -97 78 -38 19 -39 23 -17 47 16 18 10 25 -96 136
-62 65 -116 119 -120 121 -3 1 -17 -9 -30 -23 l-24 -25 -22 21 c-13 12 -62 31
-121 45 -97 25 -99 26 -170 96 l-72 71 15 30 c9 16 12 33 7 37 -4 4 -78 17
-163 29 -85 12 -167 24 -182 27 -25 5 -30 0 -59 -58z m214 -13 c59 -8 112 -15
118 -15 6 0 8 -11 5 -27 -6 -25 3 -37 76 -110 l83 -82 105 -26 c86 -22 109
-32 129 -56 29 -35 38 -36 68 -7 l24 22 84 -84 85 -84 -30 -31 -30 -31 52 -25
c28 -13 84 -53 122 -89 39 -36 90 -73 113 -84 39 -17 44 -24 66 -90 l24 -71
-27 -80 c-15 -44 -39 -104 -54 -133 -15 -29 -25 -56 -22 -61 3 -4 23 -16 46
-26 l41 -18 -72 -73 -73 -73 24 -53 c15 -32 55 -85 102 -134 l78 -80 -24 -23
-25 -24 28 -56 c53 -105 54 -103 -45 -67 l-87 31 -26 77 c-17 51 -37 89 -58
110 l-32 32 -60 -29 c-34 -16 -73 -42 -88 -58 -35 -36 -95 -66 -199 -101 -49
-16 -91 -37 -105 -52 -13 -14 -49 -39 -80 -54 -30 -16 -61 -35 -68 -44 -17
-20 -38 -20 -48 -1 -5 8 -49 28 -98 45 l-89 30 -48 -47 c-44 -43 -49 -45 -65
-31 -10 9 -38 26 -63 38 -25 12 -62 38 -82 58 l-38 36 -77 -27 -76 -27 -26 24
c-14 13 -46 34 -71 46 -25 12 -62 38 -83 58 l-37 36 -56 -54 -55 -55 -48 27
-49 27 -23 -25 c-22 -24 -23 -24 -43 -5 -12 10 -48 33 -82 49 l-61 31 -21 -22
c-19 -19 -23 -19 -39 -5 -10 9 -82 48 -161 88 l-144 72 23 24 23 25 -77 77
-77 78 44 43 c44 43 44 44 72 187 l28 143 -22 24 -22 23 123 121 c116 116 125
122 194 144 62 19 81 31 133 84 l60 61 -24 72 c-18 53 -22 74 -13 77 7 3 37
13 67 23 46 16 59 25 79 61 l24 43 45 -45 45 -45 82 28 83 28 49 -28 c74 -42
78 -51 52 -101 -21 -41 -21 -43 -3 -56 17 -13 24 -8 74 44 53 55 57 62 79 158
18 75 30 107 51 130 15 17 37 49 49 73 18 34 26 41 44 37 12 -2 71 -11 130
-20z"/>
</g>
</svg>
