<?xml version="1.0" standalone="no"?>
<!DOCTYPE svg PUBLIC "-//W3C//DTD SVG 20010904//EN"
 "http://www.w3.org/TR/2001/REC-SVG-20010904/DTD/svg10.dtd">
<svg version="1.0" xmlns="http://www.w3.org/2000/svg"
 width="3000.000000pt" height="4000.000000pt" viewBox="0 0 3000.000000 4000.000000"
 preserveAspectRatio="xMidYMid meet">
<metadata>
Created by potrace 1.16, written by Peter Selinger 2001-2019
</metadata>
<g transform="translate(0.000000,4000.000000) scale(0.100000,-0.100000)"
fill="#000000" stroke="none">
<path d="M18780 24465 l-55 -54 -103 26 -104 26 -103 -103 -103 -103 -45 16
c-57 19 -104 6 -132 -37 -15 -24 -38 -37 -95 -57 l-75 -27 -27 26 -28 26 -52
-25 c-29 -13 -65 -35 -81 -48 l-28 -24 -24 23 -25 23 -25 -23 -25 -23 -25 23
-25 24 -58 -57 c-47 -46 -71 -61 -132 -82 -63 -21 -85 -35 -137 -87 l-62 -61
21 -30 21 -29 -41 -41 c-22 -23 -54 -71 -72 -106 l-32 -64 52 -52 52 -52 -25
-49 -25 -48 26 -53 26 -52 -23 -123 c-19 -106 -27 -127 -52 -153 -16 -17 -29
-36 -29 -41 0 -6 13 -23 30 -39 37 -35 63 -112 99 -286 l28 -136 -28 -54 -27
-54 33 -66 c18 -36 41 -71 50 -79 14 -12 14 -15 -9 -39 l-24 -26 31 -36 c18
-20 51 -46 75 -58 23 -12 42 -23 42 -26 0 -2 -9 -24 -21 -48 l-21 -43 30 -60
c16 -32 39 -67 51 -78 l20 -18 -21 -42 c-11 -22 -44 -66 -73 -97 -36 -37 -57
-70 -65 -100 -7 -24 -16 -55 -20 -69 -6 -21 -1 -32 33 -67 l41 -43 -22 -23
c-21 -22 -72 -154 -72 -186 0 -8 23 -39 51 -67 49 -49 52 -56 70 -145 11 -51
20 -94 22 -95 1 -2 34 -9 72 -17 l70 -15 65 62 c36 34 80 68 98 75 31 13 35
12 61 -13 l28 -27 39 43 c22 24 48 62 58 86 28 62 77 84 266 117 143 24 158
29 189 58 18 18 46 59 62 92 l29 60 -50 50 c-48 48 -50 52 -33 67 10 8 50 26
88 38 85 27 131 68 170 150 l29 60 -24 25 -23 24 23 56 23 56 -22 23 -22 24
24 19 c13 10 42 27 64 37 40 18 40 18 90 -8 50 -25 51 -25 68 -6 23 25 33 25
62 -2 l23 -22 34 33 c30 29 38 48 61 147 l27 114 -31 39 c-17 21 -37 44 -46
51 -14 12 -12 18 22 52 21 22 61 51 88 65 28 14 62 36 76 50 l27 24 100 -50
100 -50 79 26 c43 14 87 34 99 44 26 24 37 24 59 -1 13 -15 22 -17 36 -9 12 6
19 6 19 0 0 -21 60 22 128 93 40 41 72 77 72 82 0 4 -12 20 -26 35 l-26 28 24
128 25 128 -20 23 -20 22 23 25 23 25 -21 23 c-27 28 -27 35 -3 61 19 21 19
22 -10 81 -18 36 -58 88 -99 130 l-69 70 48 55 49 55 -25 27 -26 27 22 79 23
79 -30 59 c-17 32 -49 77 -71 99 -23 21 -41 45 -41 52 0 7 10 33 22 58 l22 45
-64 65 -64 65 -27 -26 -26 -25 -24 28 c-13 16 -33 48 -43 72 -16 34 -31 48
-75 71 -31 15 -69 42 -86 59 l-29 31 -54 -52 -53 -53 -23 27 -23 26 -26 -26
-26 -26 -23 21 c-13 11 -43 31 -68 43 -25 12 -61 37 -80 56 l-36 34 -54 -55z
m81 -31 c7 -8 36 -27 63 -41 28 -14 66 -39 83 -56 l33 -31 25 24 25 24 29 -28
29 -27 43 50 c47 55 59 60 80 35 7 -8 34 -27 61 -40 39 -20 53 -35 77 -82 16
-31 43 -70 60 -86 l31 -30 23 22 c31 29 40 28 76 -13 l31 -36 -26 -50 -25 -51
58 -61 c32 -34 67 -81 78 -105 l19 -44 -26 -78 c-25 -77 -25 -79 -7 -96 27
-24 24 -33 -28 -86 l-47 -47 85 -88 c46 -48 93 -107 103 -131 l19 -42 -26 -28
-27 -28 25 -24 25 -24 -27 -28 -27 -28 31 -33 31 -32 -25 -128 -26 -128 22
-23 21 -23 -52 -49 c-29 -28 -68 -56 -86 -63 -31 -13 -35 -12 -61 13 l-27 26
-29 -30 c-17 -18 -55 -38 -100 -54 l-73 -24 -104 54 -105 53 -24 -25 c-13 -14
-49 -39 -79 -54 -30 -16 -84 -58 -120 -94 l-64 -66 54 -55 54 -55 -23 -94
c-12 -53 -30 -101 -40 -110 -16 -15 -19 -14 -41 9 l-24 25 -28 -27 -28 -27
-50 24 -50 23 -52 -24 c-57 -26 -128 -84 -128 -103 0 -7 11 -23 25 -36 l24
-23 -25 -49 -26 -50 27 -28 27 -28 -25 -48 c-33 -66 -51 -80 -138 -109 -50
-17 -86 -37 -111 -62 l-38 -37 33 -36 c74 -79 71 -72 44 -127 -14 -26 -33 -55
-43 -64 -12 -10 -74 -24 -159 -38 -103 -16 -158 -31 -208 -54 -61 -28 -70 -36
-89 -78 -11 -26 -31 -58 -45 -71 l-25 -23 -19 24 -20 24 -59 -28 c-32 -15 -82
-52 -110 -80 -51 -52 -52 -52 -93 -43 -23 5 -44 14 -48 20 -4 5 -12 45 -20 87
-12 70 -17 80 -62 129 l-50 52 19 63 c11 38 32 77 53 100 l34 38 -48 49 -47
48 16 49 c11 33 33 66 70 102 29 29 65 78 81 111 l28 59 -34 38 c-19 21 -42
56 -52 79 l-19 41 27 53 c14 28 24 55 20 58 -3 4 -32 20 -62 37 -73 39 -84 57
-55 88 l22 23 -28 28 c-16 15 -39 49 -52 76 l-23 49 23 56 23 55 -23 118 c-28
146 -76 301 -101 327 -18 19 -18 20 0 40 13 13 28 66 46 161 l27 141 -25 49
-25 49 24 45 c13 25 23 50 24 55 0 6 -21 34 -46 63 -45 51 -46 54 -33 85 7 18
42 62 78 100 l65 67 -27 28 -27 28 43 42 c31 30 62 48 117 67 57 19 86 36 122
72 l48 47 25 -24 25 -23 25 23 25 24 28 -27 28 -27 30 31 c16 17 48 42 72 56
l43 26 28 -27 27 -26 80 26 c78 26 154 81 154 110 0 9 20 6 70 -11 l70 -24 99
106 99 106 103 -26 104 -26 45 44 c49 49 61 53 81 29z"/>
</g>
</svg>
