<?xml version="1.0" standalone="no"?>
<!DOCTYPE svg PUBLIC "-//W3C//DTD SVG 20010904//EN"
 "http://www.w3.org/TR/2001/REC-SVG-20010904/DTD/svg10.dtd">
<svg version="1.0" xmlns="http://www.w3.org/2000/svg"
 width="3000.000000pt" height="4000.000000pt" viewBox="0 0 3000.000000 4000.000000"
 preserveAspectRatio="xMidYMid meet">
<metadata>
Created by potrace 1.16, written by Peter Selinger 2001-2019
</metadata>
<g transform="translate(0.000000,4000.000000) scale(0.100000,-0.100000)"
fill="#000000" stroke="none">
<path d="M10136 24398 c-25 -7 -57 -29 -90 -62 -28 -28 -75 -62 -104 -76 l-52
-24 30 -31 30 -31 -41 -39 c-46 -45 -95 -136 -129 -238 -20 -63 -25 -69 -68
-92 -26 -13 -81 -58 -122 -100 -41 -42 -97 -88 -125 -102 -27 -14 -62 -37 -77
-51 l-28 -25 -62 18 c-90 28 -112 51 -145 151 -19 59 -37 93 -59 115 l-32 31
-42 -22 c-23 -12 -39 -17 -35 -11 12 21 -21 10 -110 -35 -49 -25 -105 -61
-124 -81 l-33 -35 33 -36 c19 -21 54 -58 78 -84 l45 -48 -44 -90 -44 -89 -71
-24 -71 -24 -49 24 -49 25 -100 -31 c-56 -17 -140 -41 -189 -53 l-87 -23 -165
-165 -165 -165 71 -70 70 -70 49 53 c27 28 56 52 65 52 9 0 53 -9 100 -21 100
-25 115 -39 145 -134 12 -38 31 -83 42 -98 17 -25 18 -30 5 -45 -8 -9 -27 -42
-42 -72 -15 -30 -52 -81 -83 -112 l-56 -57 24 -50 23 -50 -57 -66 c-32 -36
-62 -65 -67 -65 -5 0 -27 9 -47 19 -21 11 -67 25 -102 31 -36 7 -72 19 -80 26
-20 17 -41 5 -107 -59 l-53 -51 25 -26 25 -26 -24 -23 -25 -24 24 -48 c14 -27
25 -55 25 -64 0 -30 -39 -90 -90 -140 -40 -39 -80 -99 -80 -120 0 -6 63 -26
158 -50 l104 -26 56 32 c32 17 90 63 129 102 l72 71 43 -23 c24 -13 57 -36 73
-51 17 -15 64 -39 106 -53 l76 -25 128 26 127 25 72 -22 c67 -22 78 -29 183
-134 l112 -111 26 24 25 23 25 -23 25 -24 29 28 29 28 38 -20 c22 -11 47 -29
56 -39 17 -19 17 -21 -7 -43 l-25 -24 34 -35 c19 -20 46 -58 60 -86 14 -27 49
-75 78 -106 52 -55 56 -58 208 -109 85 -29 180 -65 212 -81 l56 -28 73 24 c40
14 89 25 109 25 30 0 44 9 93 58 31 32 57 66 57 77 0 11 -11 62 -24 113 l-24
93 27 82 c34 101 62 155 93 184 13 12 50 76 83 142 l59 120 -22 24 -22 23 22
21 c13 11 43 30 68 42 28 14 81 60 140 123 l96 100 53 -26 52 -27 64 36 64 35
-31 90 -30 91 -57 29 c-31 15 -78 52 -106 80 -27 28 -75 64 -106 80 -88 45
-88 47 -13 121 42 41 78 89 101 133 l34 68 -28 30 c-15 16 -49 41 -75 56 l-46
26 30 59 c16 32 28 60 26 62 -2 1 -28 10 -58 20 -30 10 -68 30 -85 45 -16 15
-52 39 -80 53 -27 14 -70 46 -95 71 l-44 46 64 66 c36 36 90 78 120 94 30 15
70 44 89 64 l35 36 -28 29 -28 29 26 49 25 50 -55 54 c-88 86 -99 104 -83 142
7 18 31 51 53 75 l39 43 -27 27 -26 28 24 23 c14 13 35 48 47 78 l22 55 -28
58 c-30 62 -30 62 -159 105 -49 16 -50 16 -74 -9 l-25 -25 -46 24 c-25 13 -57
35 -70 49 -27 28 -28 29 -85 14z m72 -61 c12 -13 49 -36 82 -52 l61 -29 25 26
26 26 65 -22 c59 -19 68 -25 86 -63 20 -42 20 -42 1 -85 -10 -24 -34 -60 -53
-81 l-34 -38 23 -24 c21 -23 22 -26 8 -42 -9 -10 -30 -47 -48 -82 l-32 -64 77
-77 77 -78 -25 -55 -25 -55 21 -21 21 -21 -20 -20 c-11 -12 -43 -33 -71 -48
-31 -16 -84 -62 -132 -113 l-80 -86 62 -60 c34 -34 82 -71 107 -83 25 -13 61
-37 81 -55 20 -18 51 -36 69 -40 43 -9 46 -24 16 -84 l-26 -51 70 -35 c39 -20
73 -42 77 -51 11 -29 -22 -81 -111 -172 l-90 -92 35 -36 c19 -20 57 -47 84
-61 28 -14 76 -50 107 -81 31 -30 78 -67 104 -81 41 -22 50 -33 61 -70 7 -24
15 -52 18 -62 5 -13 -3 -23 -32 -37 l-37 -20 -53 26 -53 26 -113 -111 c-68
-68 -132 -121 -162 -136 -27 -14 -65 -40 -83 -59 l-32 -34 29 -28 30 -29 -48
-96 c-27 -53 -59 -105 -71 -116 -30 -27 -72 -113 -106 -217 l-28 -87 24 -101
24 -101 -49 -49 c-30 -30 -55 -48 -64 -45 -8 3 -49 -6 -91 -20 l-78 -26 -38
22 c-22 12 -111 46 -199 76 -146 49 -164 58 -208 101 -27 26 -60 70 -74 97
-14 28 -35 60 -46 73 l-21 22 27 28 27 28 -38 36 c-20 20 -64 50 -98 66 l-61
31 -21 -22 -22 -21 -25 24 -25 24 -28 -27 -28 -27 -99 100 c-96 96 -103 102
-180 126 l-80 26 -127 -25 -127 -26 -73 25 c-40 13 -86 37 -103 53 -16 16 -54
41 -84 56 l-54 27 -86 -85 c-47 -47 -105 -95 -129 -106 l-42 -21 -83 20 c-45
12 -88 23 -95 25 -9 3 7 28 46 72 33 38 71 90 85 118 l25 50 -24 48 -25 48 26
33 c25 33 25 33 5 51 -27 24 -25 36 8 67 l27 27 75 -16 c41 -8 102 -29 134
-45 l59 -30 89 90 90 89 -27 53 -27 53 50 51 c28 28 60 71 72 96 12 25 38 62
58 83 l36 37 -36 38 c-25 25 -43 60 -59 109 -33 106 -60 128 -197 162 l-110
28 -48 -48 -48 -49 -35 34 -34 35 138 143 c76 79 143 146 149 150 6 3 50 16
96 28 47 11 122 33 168 48 l82 26 52 -25 53 -26 85 29 86 28 57 117 58 116
-76 77 c-71 71 -75 77 -58 91 39 33 113 69 143 69 17 0 48 10 70 22 37 22 39
22 59 4 11 -10 32 -54 47 -98 34 -104 58 -128 165 -166 l87 -31 23 26 c13 14
47 36 74 50 28 14 91 64 140 112 50 47 113 98 141 113 50 26 52 29 74 99 33
110 76 188 138 251 53 55 55 58 39 76 -23 26 -22 29 21 51 20 11 53 36 72 56
56 59 86 67 118 32z"/>
</g>
</svg>
