<?xml version="1.0" standalone="no"?>
<!DOCTYPE svg PUBLIC "-//W3C//DTD SVG 20010904//EN"
 "http://www.w3.org/TR/2001/REC-SVG-20010904/DTD/svg10.dtd">
<svg version="1.0" xmlns="http://www.w3.org/2000/svg"
 width="3000.000000pt" height="4000.000000pt" viewBox="0 0 3000.000000 4000.000000"
 preserveAspectRatio="xMidYMid meet">
<metadata>
Created by potrace 1.16, written by Peter Selinger 2001-2019
</metadata>
<g transform="translate(0.000000,4000.000000) scale(0.100000,-0.100000)"
fill="#000000" stroke="none">
<path d="M14588 16823 l-27 -27 -25 23 -24 22 -61 -30 c-53 -27 -64 -38 -90
-89 -16 -31 -40 -67 -52 -78 -29 -27 -104 -64 -187 -94 l-63 -23 -29 28 -30
29 -23 -22 c-29 -27 -35 -27 -64 0 l-23 22 -63 -61 c-34 -34 -80 -70 -102 -81
-40 -20 -40 -20 -80 0 -22 11 -67 47 -100 79 l-61 59 -107 -38 -107 -38 59
-29 60 -28 -32 -39 c-18 -21 -53 -50 -79 -64 l-48 -24 -42 46 c-48 52 -161
114 -208 114 -16 0 -30 -4 -30 -8 0 -4 -20 -18 -44 -29 l-44 -22 -81 27 -80
26 -27 -24 c-14 -14 -53 -56 -86 -93 l-61 -68 23 -24 23 -25 -21 -23 -22 -23
26 -78 26 -78 -46 -47 c-36 -36 -62 -52 -113 -69 l-67 -22 -31 30 -31 30 -24
-25 -24 -25 -23 22 -23 21 -52 -24 c-29 -13 -77 -46 -106 -73 l-53 -50 -48 48
-48 47 -65 -32 -64 -32 -21 -106 c-19 -98 -20 -107 -4 -115 9 -6 39 -32 68
-59 l51 -48 -25 -55 -25 -56 28 -29 c33 -34 73 -38 92 -9 6 11 34 31 62 45
l50 25 48 -24 c26 -13 56 -34 67 -46 11 -12 37 -31 58 -41 42 -22 43 -25 20
-51 -16 -18 -14 -22 50 -86 l66 -66 26 24 25 24 53 -52 52 -52 52 52 52 52 19
-24 20 -24 53 24 c30 14 68 38 86 54 l33 28 103 -25 102 -26 24 24 24 24 46
-24 c25 -13 59 -37 75 -54 l30 -31 30 29 31 30 94 -24 c118 -30 131 -41 97
-82 l-25 -30 32 -31 c18 -17 81 -56 141 -88 l109 -57 86 28 c47 15 107 38 133
52 l46 25 69 -22 c94 -31 173 -72 207 -109 l30 -31 34 32 c19 18 47 58 62 89
39 76 54 88 83 62 12 -11 54 -31 92 -43 86 -27 165 -97 201 -178 21 -47 30
-55 89 -84 l65 -32 37 36 c21 20 62 48 92 63 l53 27 -28 29 -28 29 96 98 c53
53 106 117 118 142 12 25 32 55 43 68 l21 22 50 -49 51 -50 60 33 c51 27 65
42 92 91 l31 59 -30 61 c-16 33 -50 81 -74 106 l-44 45 24 23 25 24 -34 66
c-18 37 -41 73 -50 81 -14 12 -8 21 62 92 l78 78 -28 27 -27 27 52 53 52 53
-25 26 c-19 20 -31 25 -59 21 -22 -2 -49 3 -71 14 l-36 18 -78 -79 -79 -79
-46 27 c-25 15 -85 68 -132 118 -85 88 -87 91 -69 110 13 14 26 66 46 188 l27
168 -46 47 -46 47 27 27 c17 16 24 30 18 36 -6 4 -46 20 -90 35 -67 22 -88 35
-136 82 l-56 56 -50 -25 -50 -26 -29 30 -29 29 -27 -27z m-48 -68 l26 -25 24
25 24 25 23 -22 23 -22 45 22 c25 12 50 22 55 22 5 0 28 -20 51 -44 31 -34 56
-50 106 -67 l65 -21 -21 -21 -21 -21 57 -58 56 -57 -23 -143 c-21 -135 -25
-145 -56 -178 l-34 -36 122 -120 c88 -85 138 -127 177 -144 l53 -24 73 79 72
79 42 -19 c23 -10 45 -23 48 -28 3 -5 -11 -26 -31 -46 -36 -37 -36 -37 -16
-56 11 -10 20 -23 20 -29 0 -6 -31 -43 -70 -81 -38 -38 -70 -74 -70 -80 0 -6
14 -24 31 -41 17 -16 40 -46 51 -68 l20 -38 -28 -29 -28 -29 56 -58 c54 -55
98 -125 98 -156 0 -37 -34 -84 -75 -104 l-42 -20 -54 54 -53 54 -34 -33 c-19
-17 -47 -59 -64 -92 -21 -41 -65 -95 -136 -167 -100 -102 -105 -109 -89 -126
23 -26 22 -29 -20 -51 -21 -10 -46 -28 -57 -40 l-18 -20 -39 20 c-29 14 -46
34 -68 77 -45 88 -121 155 -206 182 -47 15 -82 34 -107 58 l-38 36 -31 -30
c-17 -16 -46 -60 -65 -97 -19 -37 -42 -71 -50 -74 -8 -3 -25 4 -37 15 -31 28
-108 65 -204 96 l-81 27 -59 -29 c-32 -16 -88 -39 -125 -51 l-66 -22 -99 50
c-124 61 -134 73 -102 107 l23 25 -39 38 c-35 34 -53 42 -149 65 l-109 27 -22
-21 c-20 -19 -23 -19 -35 -5 -15 19 -123 75 -142 75 -7 0 -21 -11 -33 -25
l-20 -25 -103 27 -103 26 -32 -31 c-18 -16 -51 -39 -73 -50 l-41 -21 -29 30
-28 29 -53 -52 -53 -52 -50 49 -50 49 -25 -24 -25 -24 -35 34 -35 34 25 26
c14 14 25 29 25 33 0 4 -24 19 -52 33 -29 15 -70 42 -90 60 -21 18 -61 45 -89
60 l-52 26 -51 -24 c-27 -12 -63 -34 -79 -47 -21 -18 -31 -21 -39 -13 -9 9 -5
25 12 61 l23 50 -66 71 c-37 39 -67 78 -67 87 0 8 5 44 12 79 11 59 13 63 50
80 l39 17 54 -53 55 -54 68 66 c37 36 81 73 98 81 30 16 32 15 59 -14 l29 -29
28 27 28 27 23 -22 23 -22 82 27 c72 24 89 34 143 89 l61 62 -25 76 -26 76 26
31 26 30 -21 28 -20 28 63 63 63 62 74 -24 74 -25 65 33 64 32 55 -30 c30 -16
81 -55 112 -86 l58 -56 59 29 c37 17 84 53 125 94 l67 67 -37 18 c-40 18 -37
27 12 44 30 10 34 8 80 -40 27 -27 75 -63 107 -79 l58 -30 62 35 c34 19 80 53
101 75 l40 41 26 -25 26 -25 24 25 24 25 23 -22 24 -22 87 28 c170 55 227 95
276 193 25 49 62 82 95 83 8 0 27 -11 41 -25z"/>
</g>
</svg>
