<?xml version="1.0" standalone="no"?>
<!DOCTYPE svg PUBLIC "-//W3C//DTD SVG 20010904//EN"
 "http://www.w3.org/TR/2001/REC-SVG-20010904/DTD/svg10.dtd">
<svg version="1.0" xmlns="http://www.w3.org/2000/svg"
 width="3000.000000pt" height="4000.000000pt" viewBox="0 0 3000.000000 4000.000000"
 preserveAspectRatio="xMidYMid meet">
<metadata>
Created by potrace 1.16, written by Peter Selinger 2001-2019
</metadata>
<g transform="translate(0.000000,4000.000000) scale(0.100000,-0.100000)"
fill="#000000" stroke="none">
<path d="M10456 12341 c-20 -40 -44 -75 -52 -78 -10 -4 -33 11 -64 42 -26 26
-53 44 -59 41 -17 -11 -14 -68 15 -242 l27 -161 53 -26 c45 -22 58 -35 80 -79
14 -29 35 -63 46 -75 20 -21 20 -22 -2 -119 -24 -103 -63 -229 -79 -248 -36
-45 -12 -217 37 -269 16 -18 42 -54 56 -82 14 -27 32 -58 38 -67 11 -15 6 -24
-30 -61 -38 -39 -46 -55 -71 -151 l-28 -108 -82 -82 -82 -82 26 -24 c25 -23
25 -24 6 -44 -10 -12 -33 -49 -49 -82 l-31 -61 25 -24 24 -23 -42 -44 c-24
-24 -65 -55 -93 -69 -27 -14 -59 -34 -71 -44 -20 -19 -21 -18 -60 22 -21 22
-67 56 -102 76 l-64 36 -37 -37 c-21 -20 -51 -64 -66 -96 l-29 -60 24 -25 23
-25 -49 -52 c-27 -29 -58 -72 -68 -95 l-19 -43 29 -22 c16 -12 76 -68 134
-124 104 -100 106 -102 180 -119 41 -10 118 -31 170 -47 91 -29 98 -33 173
-106 65 -63 87 -95 129 -177 68 -136 101 -168 205 -202 l83 -27 22 22 22 22
26 -25 26 -25 24 25 c23 25 24 25 44 6 14 -13 67 -29 158 -48 l137 -28 28 26
c15 14 49 38 75 53 l48 27 42 -22 c24 -12 59 -36 79 -55 l35 -34 24 25 24 25
53 -52 53 -52 63 61 c34 34 84 72 111 85 48 22 50 25 77 105 26 77 32 122 76
518 5 43 1 60 -25 110 -34 68 -69 176 -102 315 -13 55 -31 104 -43 118 l-20
22 21 23 21 23 -30 93 c-43 136 -69 180 -163 278 l-85 88 -53 -52 -54 -53 -62
63 -62 63 45 44 c35 34 50 60 71 122 25 77 27 79 77 104 29 15 62 35 74 46
l22 20 73 -24 73 -25 53 26 52 25 79 -26 79 -26 81 82 c68 69 84 91 102 144
26 77 18 106 -33 117 -20 5 -56 30 -94 66 -49 48 -75 64 -135 84 -59 20 -85
36 -129 79 -30 30 -79 66 -107 80 l-53 26 -52 -26 -52 -26 -43 21 c-33 16 -48
32 -69 73 -14 29 -35 63 -46 75 l-20 22 22 68 c13 37 37 84 54 103 17 19 42
59 55 88 l25 53 -64 64 -64 65 -53 -52 -53 -52 -24 23 -25 23 -73 -25 -73 -25
-132 131 -133 131 -45 -22 c-53 -26 -73 -28 -81 -8 -10 26 -34 26 -83 2 l-48
-25 -31 31 -30 31 -36 -72z m294 -21 l51 24 129 -129 129 -128 76 28 76 28 30
-29 29 -28 50 49 50 49 36 -36 c35 -35 36 -37 24 -73 -7 -21 -28 -55 -46 -75
-32 -35 -84 -159 -84 -200 0 -9 12 -27 26 -41 14 -13 39 -49 54 -79 24 -48 35
-59 87 -84 l60 -28 51 26 52 26 43 -21 c23 -11 69 -47 102 -79 49 -47 73 -62
130 -80 57 -18 82 -34 132 -81 34 -33 67 -59 75 -59 34 -1 42 -16 29 -63 -10
-34 -31 -62 -87 -118 l-73 -73 -65 22 c-79 27 -85 27 -141 0 l-45 -22 -79 26
-79 26 -29 -30 c-15 -16 -53 -43 -83 -58 -56 -28 -56 -29 -80 -107 -19 -61
-35 -89 -71 -128 -46 -50 -69 -105 -44 -105 14 0 125 -116 125 -131 0 -25 49
-5 90 36 l44 45 69 -67 c76 -76 97 -111 138 -230 l27 -81 -29 -28 -29 -28 30
-31 c25 -26 37 -56 65 -161 38 -147 63 -222 94 -282 26 -51 26 -62 0 -302 -14
-127 -30 -224 -46 -278 l-26 -83 -56 -29 c-31 -15 -73 -46 -95 -68 l-39 -41
-47 52 -48 52 -24 -22 c-29 -27 -41 -29 -59 -7 -7 9 -39 29 -71 45 l-58 29
-53 -26 c-28 -14 -64 -38 -80 -52 l-27 -26 -118 23 c-102 19 -121 27 -149 54
l-33 31 -25 -24 -25 -23 -23 21 c-29 28 -35 28 -67 -3 l-26 -25 -65 21 c-35
12 -76 32 -90 46 -14 13 -49 73 -78 132 -46 96 -63 119 -134 189 -90 87 -103
93 -332 153 l-110 28 -92 98 c-50 54 -96 97 -102 96 -18 -4 -22 35 -7 64 8 15
40 53 70 83 l56 54 -27 28 -26 28 18 42 c10 24 27 52 36 62 17 19 19 19 57 2
22 -10 66 -44 98 -77 32 -32 63 -59 69 -59 6 0 24 14 41 31 16 17 54 44 84 59
34 17 75 51 107 88 l51 59 -25 26 c-25 24 -25 27 -12 59 7 18 31 52 53 76 l39
43 -21 22 c-12 13 -22 28 -22 33 0 5 31 40 68 77 l69 68 23 102 c23 99 26 104
82 163 l58 61 -26 24 c-14 13 -40 51 -56 84 -17 33 -42 74 -58 90 -36 40 -61
166 -37 193 18 20 66 169 98 304 l23 98 -31 32 c-17 18 -42 56 -56 83 -21 41
-34 55 -75 74 l-49 23 -22 137 c-11 75 -21 140 -21 146 0 5 17 -8 38 -28 l38
-37 36 37 c20 21 43 53 52 71 19 37 23 38 47 16 16 -14 21 -13 66 9 l48 25 27
-26 28 -26 50 24z"/>
</g>
</svg>
