<?xml version="1.0" standalone="no"?>
<!DOCTYPE svg PUBLIC "-//W3C//DTD SVG 20010904//EN"
 "http://www.w3.org/TR/2001/REC-SVG-20010904/DTD/svg10.dtd">
<svg version="1.0" xmlns="http://www.w3.org/2000/svg"
 width="3000.000000pt" height="4000.000000pt" viewBox="0 0 3000.000000 4000.000000"
 preserveAspectRatio="xMidYMid meet">
<metadata>
Created by potrace 1.16, written by Peter Selinger 2001-2019
</metadata>
<g transform="translate(0.000000,4000.000000) scale(0.100000,-0.100000)"
fill="#000000" stroke="none">
<path d="M21287 32454 c-3 -11 -18 -81 -33 -157 l-27 -138 22 -23 c18 -19 19
-25 8 -34 -11 -9 -31 -6 -87 13 l-73 25 -31 -28 c-17 -15 -76 -74 -131 -131
-67 -69 -118 -112 -155 -131 -104 -53 -150 -125 -194 -303 -27 -111 -61 -192
-91 -217 -13 -11 -19 -9 -41 11 l-25 23 -82 -82 -82 -81 -94 24 c-72 18 -101
31 -125 54 l-32 31 -61 -63 c-46 -47 -65 -75 -78 -117 -21 -67 -21 -66 -40
-50 -8 6 -64 24 -124 40 l-109 27 -79 -79 c-46 -47 -101 -91 -133 -108 -30
-15 -64 -37 -74 -49 -11 -12 -40 -31 -65 -42 -60 -26 -83 -48 -75 -71 3 -10 1
-25 -5 -32 -8 -9 -4 -19 14 -36 l25 -24 -44 -45 c-35 -37 -49 -63 -72 -133
l-28 -88 34 -36 c19 -20 56 -46 81 -59 l47 -24 22 -92 23 -91 -29 -59 -28 -60
78 -78 78 -78 -46 -145 -45 -144 -91 -29 -90 -29 32 -33 32 -33 -52 -53 -52
-53 27 -27 27 -27 -49 -99 c-45 -93 -58 -110 -187 -238 -88 -87 -138 -145
-138 -158 1 -11 21 -37 46 -59 l46 -39 101 49 c55 27 114 60 130 73 l29 24
101 -101 c95 -93 107 -102 174 -123 66 -21 73 -25 89 -63 10 -23 46 -70 79
-105 48 -51 81 -74 167 -117 59 -30 111 -54 116 -54 4 0 20 25 35 55 21 44 36
59 74 79 27 13 58 35 71 48 l23 25 125 -25 126 -25 72 22 c39 13 97 34 128 48
46 20 61 23 72 14 12 -10 10 -24 -14 -95 l-28 -83 59 -29 c41 -19 84 -53 140
-111 64 -65 84 -81 98 -73 9 5 84 77 166 160 160 161 196 187 330 230 47 15
82 34 108 58 l37 36 -42 43 -42 43 -26 -25 -27 -26 -49 53 c-28 29 -56 68 -63
86 -13 31 -12 35 15 63 l28 29 -47 48 -48 48 43 21 c24 11 86 31 138 43 l95
22 85 83 c47 46 105 93 130 105 28 13 81 59 142 123 l96 102 29 -27 29 -28 39
40 39 40 -22 23 c-12 13 -22 28 -22 33 0 5 27 36 60 69 l60 59 69 -33 c38 -19
74 -30 80 -27 6 4 27 38 46 75 l34 68 -22 22 c-32 32 -17 48 106 112 98 50
119 66 237 184 l130 130 30 90 c16 49 40 134 54 189 18 72 32 106 52 127 l27
28 -26 103 -26 103 24 25 c12 14 45 70 73 125 28 55 64 113 81 129 17 17 31
35 31 41 0 6 -13 24 -30 40 -19 18 -39 56 -55 106 -22 65 -35 87 -82 134 -30
30 -59 55 -64 55 -5 0 -55 -23 -112 -51 -83 -41 -118 -67 -187 -133 -84 -82
-86 -83 -174 -105 l-89 -22 -26 25 -25 26 56 57 c31 32 68 83 83 113 15 30 40
69 55 85 25 27 31 48 54 187 14 86 26 161 26 167 0 6 -28 25 -62 42 l-62 31
-52 -25 -51 -25 -54 54 -53 54 -78 -77 -77 -77 -23 21 c-16 14 -60 28 -142 44
-100 20 -126 29 -157 55 -20 17 -51 37 -68 44 l-32 13 21 22 21 22 -32 66
c-27 54 -40 69 -73 84 -60 27 -104 69 -136 132 -15 31 -46 73 -68 95 -35 33
-41 36 -45 20z m72 -142 c33 -66 86 -118 147 -146 31 -13 47 -29 60 -57 l17
-40 -32 -33 -31 -32 52 -25 c29 -13 71 -40 94 -60 38 -33 54 -39 166 -60 108
-21 127 -28 158 -56 l35 -32 77 77 78 76 50 -49 51 -50 49 28 49 28 42 -21
c36 -19 41 -25 36 -48 -3 -15 -13 -78 -23 -141 -14 -95 -22 -119 -44 -145 -15
-17 -37 -51 -50 -76 -12 -25 -69 -92 -125 -150 -97 -98 -103 -106 -89 -124 14
-20 15 -20 58 1 l43 21 25 -24 25 -25 113 30 113 30 86 84 c65 64 106 95 170
126 l84 43 43 -43 c35 -34 49 -60 70 -123 15 -45 35 -90 46 -102 17 -19 17
-22 2 -34 -9 -8 -42 -66 -74 -129 -32 -64 -69 -126 -83 -139 l-24 -23 25 -104
26 -104 -22 -24 c-15 -16 -34 -67 -57 -153 -58 -220 -55 -216 -196 -362 -120
-124 -130 -133 -236 -186 -73 -36 -120 -66 -137 -88 l-25 -33 26 -27 27 -28
-22 -45 -22 -45 -68 34 -69 35 -92 -93 -92 -92 26 -24 c17 -16 22 -27 15 -34
-6 -6 -18 -2 -35 14 l-26 24 -112 -111 c-64 -63 -131 -120 -157 -133 -25 -12
-83 -59 -130 -105 l-85 -83 -95 -22 c-52 -13 -126 -38 -164 -57 l-69 -35 57
-57 56 -57 -24 -23 -25 -24 30 -61 c30 -58 132 -176 154 -176 6 0 16 9 23 20
12 20 42 28 42 12 0 -19 -40 -43 -106 -66 -137 -46 -171 -70 -329 -227 l-150
-149 -70 71 c-39 39 -88 80 -110 91 -22 11 -41 21 -42 22 -1 1 8 36 21 78 l24
76 -38 37 -37 37 -64 -33 c-35 -17 -94 -42 -130 -54 l-66 -23 -131 28 -131 28
-28 -30 c-15 -17 -53 -43 -84 -58 -43 -22 -59 -37 -74 -69 -10 -23 -22 -41
-27 -41 -4 0 -48 20 -96 44 -100 50 -173 120 -210 202 -24 50 -24 51 -108 78
-83 27 -84 28 -186 136 l-103 110 -35 -34 c-19 -19 -77 -55 -128 -81 -103 -51
-122 -50 -114 7 3 26 30 59 122 153 109 110 123 129 174 232 l55 111 -21 27
-21 27 48 48 c48 49 48 50 30 70 -10 11 -16 22 -14 24 2 2 31 12 63 23 l60 19
53 159 c29 88 53 166 53 175 0 8 -32 47 -72 87 l-72 72 22 53 21 53 -27 110
-28 110 -57 31 c-94 50 -95 52 -69 131 18 57 32 78 82 128 l60 59 -27 28 -27
28 64 66 c36 36 90 78 120 94 31 16 87 61 128 103 l74 74 90 -23 c75 -19 97
-29 129 -60 21 -21 41 -36 43 -33 2 2 16 43 31 90 22 71 34 94 71 130 l44 43
22 -21 c14 -12 67 -31 132 -47 l109 -27 73 72 73 73 26 -24 25 -24 31 30 c44
42 93 144 119 254 25 101 61 193 88 223 9 10 41 31 72 48 37 19 100 74 184
158 l128 128 79 -25 79 -26 35 34 c19 19 35 38 35 44 0 5 -12 22 -26 37 l-26
28 18 95 c10 53 21 96 26 96 4 0 21 -26 37 -58z"/>
</g>
</svg>
