<?xml version="1.0" standalone="no"?>
<!DOCTYPE svg PUBLIC "-//W3C//DTD SVG 20010904//EN"
 "http://www.w3.org/TR/2001/REC-SVG-20010904/DTD/svg10.dtd">
<svg version="1.0" xmlns="http://www.w3.org/2000/svg"
 width="3000.000000pt" height="4000.000000pt" viewBox="0 0 3000.000000 4000.000000"
 preserveAspectRatio="xMidYMid meet">
<metadata>
Created by potrace 1.16, written by Peter Selinger 2001-2019
</metadata>
<g transform="translate(0.000000,4000.000000) scale(0.100000,-0.100000)"
fill="#000000" stroke="none">
<path d="M9535 17230 c-18 -19 -54 -38 -97 -52 l-68 -22 -30 29 c-16 16 -32
27 -34 24 -2 -2 -28 -53 -59 -114 -30 -60 -64 -118 -75 -128 -20 -18 -22 -18
-79 12 -68 36 -74 37 -96 13 -16 -17 -15 -24 13 -107 19 -55 41 -101 59 -120
16 -16 40 -53 54 -81 20 -39 35 -54 66 -69 23 -10 41 -20 41 -22 0 -2 -9 -21
-20 -43 -11 -22 -20 -45 -20 -53 0 -7 20 -33 45 -57 l44 -44 -47 -50 c-40 -43
-52 -64 -72 -134 l-23 -84 22 -45 22 -46 -21 -22 c-12 -13 -34 -63 -50 -111
l-29 -89 34 -35 c35 -37 65 -89 65 -113 0 -8 -18 -44 -40 -78 -54 -87 -55 -87
-36 -108 9 -10 16 -22 16 -27 0 -4 -32 -41 -72 -81 l-72 -72 24 -26 24 -25
-122 -124 -122 -123 0 -69 c0 -93 34 -161 99 -195 64 -34 99 -65 122 -111 11
-21 26 -47 34 -56 73 -84 61 -78 205 -106 73 -14 137 -23 141 -18 3 4 19 44
33 89 30 91 46 112 67 87 13 -16 149 -88 154 -82 1 2 15 28 30 58 15 30 51 80
80 110 38 39 58 71 70 110 23 71 26 76 39 58 6 -8 47 -27 91 -41 50 -17 91
-38 111 -58 l33 -32 78 82 78 81 103 -26 104 -27 64 64 64 63 -22 23 c-23 25
-23 25 11 43 22 11 27 8 77 -41 l54 -53 23 22 c13 12 28 22 35 22 6 0 30 -22
54 -50 l43 -49 27 26 28 27 25 -24 25 -23 25 23 26 24 77 -77 78 -78 24 26
c13 14 31 25 40 25 39 0 118 -35 153 -68 l37 -36 55 54 55 54 54 -26 53 -27
32 33 c44 45 98 61 154 45 23 -7 47 -16 53 -21 7 -5 26 8 50 34 30 32 46 63
63 121 l23 79 -30 66 c-17 37 -38 94 -48 127 -11 33 -22 62 -27 63 -4 2 -15
18 -23 34 -15 29 -15 34 7 79 l22 49 -59 64 c-87 94 -133 108 -134 41 0 -46
-68 -160 -133 -224 l-65 -63 -68 22 c-101 33 -108 42 -133 173 -12 62 -23 119
-25 128 -1 10 -8 24 -15 33 -10 12 -16 13 -32 3 -10 -6 -19 -17 -19 -23 0 -5
-14 -23 -30 -39 l-30 -29 -55 54 c-30 30 -55 57 -55 60 0 4 16 14 35 23 25 12
42 32 66 78 l31 62 -24 51 c-12 28 -37 67 -54 86 -27 30 -34 52 -55 160 -22
118 -26 128 -63 168 l-40 44 -32 -64 c-17 -35 -40 -71 -51 -80 -18 -17 -21
-16 -68 32 -27 28 -52 50 -55 50 -4 0 -17 -22 -30 -50 -13 -27 -25 -50 -27
-50 -2 0 -21 9 -42 20 -47 23 -55 42 -36 79 13 27 13 30 -10 51 -25 24 -25 24
-5 45 10 11 24 44 31 73 12 59 3 82 -35 82 -19 0 -175 -48 -185 -56 -3 -3 8
-17 23 -33 16 -17 25 -34 21 -41 -5 -8 -24 5 -59 38 -28 28 -75 62 -105 77
l-53 26 -24 -22 c-24 -23 -25 -23 -43 -3 -11 10 -40 84 -65 164 l-46 144 27
28 27 28 -39 40 -39 40 -34 -33 c-19 -17 -47 -57 -62 -88 -40 -78 -54 -88 -85
-59 -23 22 -26 22 -43 7 -25 -23 -29 -22 -48 16 -9 17 -32 49 -52 69 l-36 38
-27 -26 c-31 -29 -52 -15 -24 16 9 10 29 45 45 78 l28 60 -24 53 c-22 48 -88
129 -104 129 -4 0 -19 -14 -35 -30z m84 -98 l29 -57 -20 -40 c-11 -22 -36 -57
-56 -78 l-36 -37 41 -42 42 -42 25 23 c14 13 31 21 39 18 7 -3 30 -37 51 -77
l38 -72 30 29 30 28 24 -30 24 -30 35 40 c20 22 48 65 64 96 33 63 55 86 66
69 4 -6 -3 -22 -15 -35 l-22 -24 56 -169 c47 -141 62 -174 91 -202 l34 -33 21
26 c12 15 28 27 35 27 26 0 90 -43 147 -99 l58 -55 40 39 40 39 -22 23 -21 22
27 11 c15 5 39 13 53 16 24 7 25 5 19 -22 -4 -16 -21 -44 -39 -61 l-31 -33 29
-30 29 -30 -22 -45 c-21 -43 -21 -44 -2 -50 11 -4 20 -13 20 -20 0 -8 12 -17
28 -20 15 -4 47 -15 71 -26 24 -11 45 -19 46 -17 1 2 12 23 25 47 l22 44 49
-49 49 -48 34 33 c18 18 42 50 51 72 31 69 37 60 71 -108 23 -110 31 -133 58
-163 17 -19 39 -54 49 -76 19 -41 18 -42 -2 -83 -17 -32 -35 -48 -81 -71 -33
-17 -60 -34 -60 -38 0 -4 42 -49 93 -100 l93 -92 39 40 c21 22 42 40 46 40 3
0 16 -48 28 -107 27 -137 47 -161 168 -200 l83 -27 86 84 c64 63 94 101 115
147 16 35 29 70 29 80 0 12 14 3 49 -31 l49 -48 -25 -54 -25 -55 34 -38 c21
-22 40 -57 47 -87 7 -27 26 -80 43 -117 l31 -68 -23 -75 c-29 -93 -42 -105
-75 -74 l-24 23 -83 -29 c-45 -16 -95 -39 -110 -52 l-27 -23 -49 25 -49 25
-48 -49 -49 -50 -21 20 c-12 11 -60 33 -107 49 -85 29 -87 29 -104 10 -9 -10
-21 -19 -26 -19 -6 0 -42 34 -80 75 l-71 76 -28 -27 -29 -28 -28 27 -28 27
-24 -25 -24 -25 -51 50 -51 50 -25 -25 -25 -25 -48 49 -49 49 -73 -36 -74 -36
27 -28 26 -27 -28 -36 c-15 -20 -33 -39 -40 -41 -7 -3 -57 6 -111 20 l-99 25
-76 -75 c-74 -74 -75 -75 -93 -55 -10 11 -53 32 -95 46 -55 18 -88 36 -111 60
-19 19 -37 35 -41 35 -3 0 -17 -37 -30 -82 -20 -73 -29 -90 -80 -143 -31 -33
-66 -79 -78 -103 l-22 -42 -32 16 c-17 9 -49 32 -69 52 l-38 36 -38 -37 c-28
-27 -44 -57 -61 -107 -20 -63 -25 -70 -44 -65 -12 3 -64 14 -116 24 -52 11
-102 28 -113 38 -11 10 -34 45 -50 78 -39 78 -61 101 -129 135 -67 34 -79 58
-79 153 l0 72 125 125 125 124 -27 28 -27 28 77 78 78 78 -26 24 c-25 23 -25
24 -6 44 10 12 32 48 49 81 l30 60 -30 60 c-17 33 -40 70 -51 83 l-21 22 22
68 c14 42 33 79 51 96 l29 28 -25 60 -26 59 19 62 c12 41 32 77 59 107 22 25
49 55 59 68 l20 23 -53 53 -53 53 26 51 c14 28 26 54 26 57 0 2 -26 18 -58 34
-48 24 -62 37 -78 73 -10 24 -33 59 -50 78 -29 33 -72 135 -61 146 3 3 32 -8
65 -25 l59 -30 31 32 c16 18 51 74 77 126 l47 94 20 -20 20 -21 88 30 c48 16
96 38 105 48 23 25 30 20 64 -48z"/>
</g>
</svg>
