<?xml version="1.0" standalone="no"?>
<!DOCTYPE svg PUBLIC "-//W3C//DTD SVG 20010904//EN"
 "http://www.w3.org/TR/2001/REC-SVG-20010904/DTD/svg10.dtd">
<svg version="1.0" xmlns="http://www.w3.org/2000/svg"
 width="3000.000000pt" height="4000.000000pt" viewBox="0 0 3000.000000 4000.000000"
 preserveAspectRatio="xMidYMid meet">
<metadata>
Created by potrace 1.16, written by Peter Selinger 2001-2019
</metadata>
<g transform="translate(0.000000,4000.000000) scale(0.100000,-0.100000)"
fill="#000000" stroke="none">
<path d="M12736 31603 c-38 -40 -73 -73 -78 -73 -5 0 -18 10 -27 21 l-17 21
-60 -32 c-32 -18 -84 -57 -114 -85 -39 -38 -71 -58 -110 -70 -65 -20 -230 -95
-230 -105 0 -4 23 -17 50 -30 28 -13 50 -26 50 -30 0 -4 -9 -15 -20 -25 -20
-18 -20 -18 7 -47 l27 -28 -47 -48 c-26 -26 -47 -52 -47 -58 0 -6 11 -21 24
-33 l24 -22 -20 -67 c-11 -37 -28 -76 -39 -87 -19 -19 -19 -19 -73 8 l-55 26
-115 -121 c-100 -106 -113 -123 -103 -139 7 -11 17 -19 23 -19 5 0 23 -14 39
-30 l29 -30 -41 -43 c-39 -40 -120 -184 -109 -194 3 -3 58 8 123 23 111 27
121 32 169 76 l50 48 38 -39 39 -39 26 -239 27 -238 79 -157 c80 -156 80 -157
213 -292 l133 -136 107 26 c74 19 115 34 133 51 l27 25 70 -23 c66 -21 78 -30
178 -130 l107 -108 101 51 101 51 43 -15 c23 -9 42 -15 43 -14 0 0 10 57 22
125 l22 125 90 23 90 23 27 -32 28 -32 28 27 28 27 25 -25 24 -25 133 133 133
134 126 -25 125 -25 44 21 c25 12 50 22 56 22 7 0 50 -20 97 -44 50 -25 135
-57 201 -75 l115 -31 55 54 c30 30 75 64 100 76 24 13 72 49 105 80 48 46 74
62 130 80 112 36 112 37 79 71 l-28 29 21 22 c12 13 29 49 39 82 10 32 24 60
30 63 7 2 30 -5 53 -16 l41 -21 26 52 c14 29 38 65 52 81 23 24 24 29 12 41
-8 8 -77 30 -154 49 -109 28 -144 41 -167 63 l-29 28 -88 -28 c-48 -16 -97
-37 -109 -49 -22 -20 -24 -20 -62 -2 -60 27 -254 229 -276 287 -17 47 -18 47
-103 76 -101 33 -117 50 -82 87 l24 25 -55 56 c-29 30 -79 69 -109 86 -76 43
-195 161 -230 228 -15 30 -40 66 -54 79 -16 15 -36 56 -53 108 -19 59 -37 92
-60 115 l-33 32 -60 -29 c-33 -16 -72 -42 -87 -58 -16 -16 -45 -38 -67 -49
l-38 -19 -22 20 c-12 12 -56 32 -97 46 -66 23 -83 34 -155 106 l-81 80 -114
29 -114 29 -26 -24 -25 -25 -50 23 c-27 13 -87 34 -134 46 -47 12 -94 25 -105
30 -16 6 -32 -6 -89 -66z m189 -9 c39 -9 100 -32 136 -50 l66 -33 27 28 27 29
91 -24 c91 -23 92 -23 172 -102 73 -72 88 -82 153 -103 50 -16 83 -33 104 -55
l32 -33 66 34 c36 18 76 44 89 58 13 13 41 32 63 42 37 17 40 17 59 0 10 -9
31 -52 45 -95 15 -46 36 -87 52 -101 14 -13 36 -46 48 -74 31 -69 164 -209
229 -242 28 -14 72 -46 98 -71 l48 -46 -25 -26 -25 -26 38 -37 c25 -25 61 -45
107 -60 64 -21 72 -28 95 -69 14 -24 70 -93 125 -152 79 -85 114 -114 169
-142 l68 -36 32 30 c17 16 59 40 94 52 l62 21 28 -23 c19 -15 68 -33 150 -52
67 -17 122 -34 122 -38 0 -5 -9 -27 -20 -48 l-20 -40 -51 26 c-28 14 -53 24
-54 22 -2 -2 -15 -38 -28 -80 -14 -43 -38 -93 -57 -117 -32 -39 -32 -42 -16
-60 20 -22 19 -23 -50 -45 -35 -11 -65 -32 -100 -67 -27 -28 -71 -62 -99 -76
-27 -14 -75 -49 -105 -79 l-55 -53 -91 23 c-51 14 -139 49 -203 80 l-112 57
-46 -26 c-56 -31 -69 -31 -208 0 l-110 24 -127 -126 -127 -127 -26 24 -25 23
-25 -23 -25 -23 -23 21 -22 21 -80 -20 c-44 -11 -96 -24 -116 -30 l-36 -9 -18
-110 c-10 -61 -20 -110 -22 -110 -2 0 -13 5 -24 11 -16 8 -38 0 -119 -43 l-99
-53 -108 106 c-104 101 -111 106 -186 129 l-77 24 -29 -28 c-21 -20 -55 -34
-122 -51 l-94 -24 -118 117 c-118 117 -119 117 -199 276 l-80 160 -25 235 -26
236 -63 65 -64 65 -58 -58 c-52 -51 -67 -60 -130 -77 -40 -10 -72 -16 -72 -14
0 18 37 67 84 114 l56 54 -52 53 -53 53 91 91 91 91 50 -25 50 -26 35 37 c25
26 44 62 63 120 l27 83 -23 25 -23 24 52 53 52 53 -25 24 -25 24 27 28 c30 32
31 29 -22 56 l-39 20 39 19 c22 11 69 30 106 42 51 17 76 32 115 72 27 28 71
62 98 76 l48 25 29 -28 30 -28 82 82 c50 50 88 80 97 77 8 -2 47 -12 85 -21z"/>
</g>
</svg>
