<?xml version="1.0" standalone="no"?>
<!DOCTYPE svg PUBLIC "-//W3C//DTD SVG 20010904//EN"
 "http://www.w3.org/TR/2001/REC-SVG-20010904/DTD/svg10.dtd">
<svg version="1.0" xmlns="http://www.w3.org/2000/svg"
 width="3000.000000pt" height="4000.000000pt" viewBox="0 0 3000.000000 4000.000000"
 preserveAspectRatio="xMidYMid meet">
<metadata>
Created by potrace 1.16, written by Peter Selinger 2001-2019
</metadata>
<g transform="translate(0.000000,4000.000000) scale(0.100000,-0.100000)"
fill="#000000" stroke="none">
<path d="M4636 19510 c-16 -10 -61 -52 -100 -93 -71 -75 -71 -75 -161 -97 -49
-13 -116 -34 -148 -48 l-58 -25 -25 24 -25 23 -109 -27 c-98 -24 -113 -31
-144 -64 -18 -21 -58 -86 -87 -145 l-53 -108 26 -27 27 -26 -25 -50 -26 -49
34 -35 c18 -19 54 -46 80 -59 34 -17 54 -36 69 -65 l21 -41 -39 -40 -38 -39
-22 28 -23 28 -91 -92 -92 -91 42 -209 c23 -114 48 -237 54 -273 12 -62 14
-66 57 -90 25 -13 83 -38 130 -55 l85 -30 56 -108 c51 -100 65 -118 196 -250
l142 -142 -49 -55 -50 -55 35 -35 c25 -26 56 -43 108 -59 39 -13 102 -38 138
-57 l66 -33 49 50 48 49 38 -38 38 -37 -26 -77 -25 -76 30 -59 c16 -32 48 -76
70 -98 23 -21 41 -44 41 -49 0 -6 -21 -32 -47 -58 l-47 -48 38 -39 c20 -21 59
-48 86 -61 41 -19 52 -31 70 -71 19 -45 27 -52 87 -79 36 -17 67 -30 69 -30 2
0 13 19 25 41 l21 42 45 -45 46 -46 74 25 c67 23 79 24 114 13 21 -7 53 -25
70 -39 l32 -27 -23 -44 c-22 -42 -22 -44 -4 -57 17 -13 24 -8 74 44 53 55 57
62 79 158 18 75 30 107 51 130 15 17 37 48 48 71 l21 41 118 -17 c65 -9 141
-20 169 -24 l51 -6 16 37 c9 21 28 82 41 137 19 77 31 105 55 130 l31 32 -25
24 -25 24 27 28 27 28 -86 88 c-47 48 -97 109 -111 137 -14 28 -41 65 -60 83
l-35 34 -49 -26 -50 -25 -21 22 c-11 12 -31 45 -45 72 -14 28 -35 59 -47 70
-12 11 -35 45 -51 76 -36 73 -117 160 -168 184 -23 10 -41 21 -41 24 0 4 39
45 86 91 47 47 95 98 105 115 l19 30 -36 36 -36 36 27 53 27 53 -87 87 c-53
53 -106 97 -135 110 -38 18 -52 32 -66 64 -10 22 -43 66 -72 98 l-53 56 20 41
c19 36 79 82 136 105 6 2 -28 42 -73 88 l-84 85 20 40 c19 35 27 41 96 63 55
17 85 33 111 60 l35 36 -22 25 c-11 13 -35 39 -51 56 l-31 33 23 48 23 49 -32
64 c-29 58 -132 179 -153 179 -4 0 -29 -45 -54 -100 l-46 -100 -24 22 -23 22
-30 -29 -30 -29 -68 22 c-40 13 -79 33 -93 48 -13 14 -69 49 -124 76 -56 28
-120 69 -145 93 l-45 43 -29 -18z m184 -155 c52 -26 109 -60 125 -75 17 -17
67 -42 119 -60 l88 -31 24 22 24 23 28 -27 28 -27 49 100 c27 55 52 100 55
100 14 0 79 -78 99 -117 l21 -42 -27 -56 -27 -55 49 -50 c46 -47 48 -50 32
-68 -9 -10 -51 -29 -93 -42 l-76 -24 -33 -66 -34 -67 70 -69 c38 -38 69 -71
69 -75 0 -3 -17 -14 -38 -23 -31 -14 -45 -30 -69 -80 l-31 -63 50 -49 c27 -27
65 -78 83 -114 29 -57 39 -69 83 -89 29 -14 80 -54 122 -96 l72 -72 -27 -53
-27 -53 36 -36 35 -36 -104 -110 c-57 -60 -104 -118 -105 -127 0 -12 20 -28
58 -47 71 -37 131 -98 170 -176 16 -33 40 -69 52 -80 12 -11 33 -42 47 -70 14
-27 41 -67 61 -87 l35 -37 49 25 c48 25 51 25 70 7 11 -10 31 -40 45 -68 14
-27 57 -83 96 -122 l71 -73 -27 -28 -27 -28 25 -24 c23 -22 24 -25 9 -41 -9
-10 -27 -62 -40 -116 -37 -148 -41 -154 -78 -148 -49 8 -294 45 -300 45 -3 0
-20 -28 -37 -62 -17 -35 -42 -75 -56 -89 -22 -24 -37 -68 -67 -203 l-7 -29
-32 31 c-18 16 -59 43 -91 60 l-60 29 -74 -25 -74 -24 -58 57 -59 58 -22 -46
c-25 -51 -33 -54 -82 -34 -23 10 -39 28 -56 65 -19 39 -32 54 -64 69 -23 10
-54 29 -70 42 l-28 24 52 54 53 53 -61 63 c-33 34 -70 81 -82 103 l-20 41 27
82 26 81 -64 65 -64 65 -56 -54 -55 -55 -35 19 c-19 11 -71 31 -115 46 -44 14
-89 35 -100 45 -19 19 -19 19 33 72 l52 52 -161 160 c-158 157 -162 162 -215
271 l-54 110 -58 18 c-88 27 -191 77 -196 95 -3 9 -26 121 -51 250 l-47 234
66 66 65 65 26 -24 26 -24 66 66 65 66 -33 62 c-29 54 -42 68 -94 96 -33 18
-64 39 -69 46 -5 9 1 32 17 64 l26 51 -27 26 -26 27 49 100 c27 56 59 109 70
119 11 10 62 29 113 41 l93 23 28 -27 29 -27 59 30 c33 16 88 37 124 46 35 9
80 20 100 26 26 6 60 34 120 94 l83 85 35 -34 c20 -19 79 -55 131 -81z"/>
</g>
</svg>
