<?xml version="1.0" standalone="no"?>
<!DOCTYPE svg PUBLIC "-//W3C//DTD SVG 20010904//EN"
 "http://www.w3.org/TR/2001/REC-SVG-20010904/DTD/svg10.dtd">
<svg version="1.0" xmlns="http://www.w3.org/2000/svg"
 width="3000.000000pt" height="4000.000000pt" viewBox="0 0 3000.000000 4000.000000"
 preserveAspectRatio="xMidYMid meet">
<metadata>
Created by potrace 1.16, written by Peter Selinger 2001-2019
</metadata>
<g transform="translate(0.000000,4000.000000) scale(0.100000,-0.100000)"
fill="#000000" stroke="none">
<path d="M17968 9753 c-24 -27 -50 -63 -57 -80 -7 -18 -17 -33 -20 -33 -4 0
-40 11 -79 24 -71 24 -72 24 -82 5 -14 -25 -28 -24 -57 3 l-24 22 -46 -46
c-41 -41 -51 -62 -89 -173 l-43 -127 25 -50 26 -50 -28 -29 -28 -29 24 -25 23
-25 -21 -23 c-12 -13 -22 -28 -22 -33 0 -5 48 -57 106 -114 89 -88 155 -174
142 -185 -2 -1 -34 -12 -73 -25 -38 -12 -74 -25 -78 -27 -5 -3 6 -21 24 -39
l33 -34 -26 -79 -26 -79 49 -48 49 -48 -25 -26 -25 -26 27 -26 27 -27 -18 -40
c-10 -22 -31 -52 -47 -67 -18 -17 -38 -56 -55 -108 -17 -51 -39 -95 -60 -118
-19 -21 -31 -44 -28 -51 2 -7 34 -23 71 -35 l66 -21 51 26 51 26 65 -23 c78
-27 113 -57 150 -130 15 -30 41 -67 57 -82 l29 -28 80 26 c66 22 89 36 139 84
33 32 79 68 103 80 l43 21 80 -26 80 -27 23 21 c21 20 24 20 36 6 8 -9 35 -28
62 -41 l48 -24 -26 -51 c-14 -28 -24 -52 -22 -54 2 -1 28 -15 58 -30 30 -15
63 -34 72 -42 16 -14 15 -18 -11 -53 -15 -21 -36 -59 -45 -84 l-18 -46 213
-220 c117 -121 215 -220 219 -220 4 0 15 9 25 20 24 27 30 26 79 -15 24 -19
51 -35 60 -35 10 0 26 21 42 54 l27 53 -26 76 -25 75 23 22 c17 16 31 53 50
134 31 128 53 176 103 228 l36 38 -31 32 c-17 18 -38 58 -48 88 -9 30 -35 94
-57 142 l-41 87 -56 -28 -56 -29 -90 45 c-49 25 -100 55 -113 66 l-22 21 50
51 c50 51 51 51 30 70 -28 25 -25 36 16 76 21 20 61 83 95 151 l59 118 -79
162 c-76 156 -84 168 -179 268 l-100 104 14 39 c8 22 14 49 14 61 -1 13 -59
82 -163 190 -144 149 -165 168 -182 158 -11 -6 -54 -45 -97 -88 l-77 -78 -22
28 -22 27 -28 -27 -29 -28 -93 92 c-90 90 -94 96 -121 180 -26 78 -81 202 -90
202 -2 0 -23 -21 -48 -47z m65 -90 c14 -32 33 -84 43 -115 15 -50 30 -70 130
-169 l113 -113 26 24 25 23 25 -23 26 -24 89 89 90 90 145 -145 c80 -80 145
-152 145 -161 0 -8 -7 -37 -16 -63 l-17 -48 110 -112 c109 -109 112 -113 181
-259 l71 -149 -45 -91 c-32 -65 -64 -110 -107 -155 l-61 -62 27 -27 27 -27
-52 -53 -52 -53 29 -30 c16 -17 81 -58 145 -91 l115 -61 43 21 c23 12 45 21
47 21 9 0 38 -66 66 -149 16 -47 38 -94 49 -106 19 -20 19 -23 5 -35 -30 -25
-74 -126 -100 -231 -20 -80 -33 -111 -56 -134 l-29 -31 27 -81 c22 -68 25 -86
15 -107 -6 -14 -16 -26 -22 -26 -6 0 -30 18 -53 40 l-43 39 -25 -24 -24 -25
-194 194 -193 193 22 44 c12 24 36 59 53 77 l31 32 -35 36 c-18 20 -52 45 -74
56 -22 11 -41 22 -43 23 -2 2 8 26 22 54 l26 51 -57 29 c-32 16 -74 45 -92 65
l-35 36 -31 -30 -31 -30 -73 25 -73 24 -51 -25 c-29 -15 -79 -52 -112 -83 -47
-45 -73 -61 -122 -75 -34 -10 -68 -16 -77 -13 -8 3 -31 37 -50 74 -45 90 -75
115 -173 147 l-81 27 -52 -26 c-46 -23 -55 -25 -86 -15 l-36 12 20 22 c11 11
31 58 46 102 15 45 36 90 48 100 11 11 35 49 54 85 33 66 33 67 14 84 -25 23
-25 33 2 62 l22 23 -54 55 -54 54 24 76 c20 63 22 80 12 96 -11 18 -9 21 21
34 18 7 45 17 60 20 15 4 30 11 32 16 3 4 -8 37 -26 71 -21 44 -60 92 -125
158 l-95 96 26 24 25 24 -27 28 -27 28 24 25 24 25 -26 54 -27 54 23 73 c26
84 67 169 91 189 13 11 19 10 40 -10 l25 -24 30 29 30 29 68 -23 c37 -12 72
-25 79 -27 7 -3 26 23 48 65 19 39 39 71 44 71 4 0 20 -26 34 -57z"/>
</g>
</svg>
