<?xml version="1.0" standalone="no"?>
<!DOCTYPE svg PUBLIC "-//W3C//DTD SVG 20010904//EN"
 "http://www.w3.org/TR/2001/REC-SVG-20010904/DTD/svg10.dtd">
<svg version="1.0" xmlns="http://www.w3.org/2000/svg"
 width="3000.000000pt" height="4000.000000pt" viewBox="0 0 3000.000000 4000.000000"
 preserveAspectRatio="xMidYMid meet">
<metadata>
Created by potrace 1.16, written by Peter Selinger 2001-2019
</metadata>
<g transform="translate(0.000000,4000.000000) scale(0.100000,-0.100000)"
fill="#000000" stroke="none">
<path d="M13479 27914 l-106 -106 -50 25 -50 26 -35 -37 c-25 -26 -44 -62 -63
-120 -25 -77 -26 -85 -11 -101 22 -24 21 -26 -22 -45 -30 -13 -45 -30 -65 -71
-24 -50 -29 -54 -88 -74 l-63 -21 -31 30 -31 30 -36 -38 c-20 -20 -44 -54 -55
-75 l-19 -37 -32 33 -32 33 24 23 25 23 -37 74 -36 74 -27 -26 -27 -26 -25 48
c-36 70 -159 186 -226 213 -92 36 -123 37 -178 6 -26 -15 -72 -51 -101 -79
-42 -41 -68 -56 -130 -77 -77 -25 -77 -25 -110 -87 l-33 -62 19 -28 20 -27
-43 -51 c-24 -28 -54 -71 -66 -96 -17 -35 -32 -51 -62 -64 -93 -42 -108 -77
-56 -130 l31 -32 -22 -43 c-12 -24 -37 -60 -56 -79 l-34 -36 74 -36 74 -37 26
28 27 28 104 -25 104 -26 19 24 20 24 51 -23 c28 -13 61 -35 73 -49 13 -13 41
-33 63 -44 22 -11 41 -21 42 -22 6 -5 -41 -133 -55 -149 -15 -17 -17 -16 -42
8 l-26 25 -42 -43 -42 -43 29 -28 29 -28 -26 -79 -26 -79 27 -28 c27 -28 29
-37 47 -223 11 -107 20 -199 20 -204 0 -6 20 -15 45 -21 42 -10 47 -8 67 14
13 13 47 36 77 52 l54 27 79 -26 78 -25 75 74 c88 88 91 87 131 -33 24 -77 32
-88 112 -170 l87 -87 102 102 102 102 26 -24 26 -24 87 86 c75 74 96 88 151
107 l65 21 25 -24 26 -25 185 26 c165 23 188 29 212 51 l28 26 77 -18 c115
-26 202 -70 259 -128 27 -27 74 -62 104 -78 30 -15 63 -37 72 -47 17 -19 17
-21 -7 -43 -14 -13 -25 -26 -25 -30 0 -4 23 -17 50 -30 28 -13 50 -28 50 -33
0 -6 -10 -41 -22 -79 l-22 -68 39 -40 39 -40 26 25 c25 24 28 24 40 9 8 -8 66
-42 129 -73 l116 -58 48 20 c59 24 161 127 199 200 33 63 34 75 8 102 l-20 21
60 59 60 59 22 -21 c44 -40 124 -71 252 -97 71 -14 135 -26 143 -26 7 0 24 24
37 53 13 28 37 65 55 81 35 33 38 48 16 66 -21 17 -13 25 40 40 37 10 44 16
40 31 -6 17 -164 178 -188 190 -7 4 -46 14 -87 24 -41 10 -78 21 -83 24 -4 4
1 32 11 62 10 30 31 106 47 169 43 179 77 231 180 283 42 21 55 34 75 77 19
41 33 57 70 75 25 13 84 62 130 110 76 77 88 94 110 160 23 67 33 83 110 160
l84 85 -27 28 c-27 28 -35 52 -17 52 5 0 18 18 28 39 l19 39 -43 43 -44 43
-30 -29 c-29 -28 -31 -28 -83 -16 -133 29 -122 21 -182 140 l-54 109 -119 -30
-119 -30 -22 -78 -23 -79 -76 -25 c-41 -14 -86 -36 -99 -48 l-23 -21 -62 18
c-50 15 -76 31 -123 76 -58 54 -64 57 -169 83 l-110 27 -24 -25 -25 -25 -48
24 -48 25 -127 -26 -127 -26 -56 55 c-31 30 -79 67 -108 81 -58 29 -78 51
-111 122 -20 42 -32 54 -86 82 -45 23 -75 32 -110 32 -47 0 -51 -2 -130 -79
l-81 -79 -90 45 c-49 25 -106 60 -125 79 l-35 34 -106 -106z m649 37 c48 -24
62 -37 78 -73 27 -61 67 -103 132 -139 31 -18 82 -56 112 -86 l56 -53 129 26
129 26 54 -26 55 -27 27 26 27 26 89 -22 c82 -20 93 -26 144 -75 47 -45 69
-58 144 -84 l89 -30 36 33 c21 18 67 43 108 57 l73 24 26 78 c25 75 27 78 65
88 21 5 57 15 80 21 23 6 47 8 53 6 7 -3 32 -48 57 -100 l44 -96 102 -25 c119
-30 140 -32 163 -11 15 14 18 14 30 0 10 -12 9 -16 -6 -21 -11 -3 -34 -12 -53
-20 l-34 -15 46 -47 47 -48 -70 -69 c-63 -62 -72 -77 -96 -150 -23 -71 -34
-88 -98 -153 -43 -45 -94 -85 -129 -103 -49 -25 -61 -37 -84 -84 -21 -42 -35
-57 -67 -72 -97 -43 -148 -122 -191 -294 -14 -57 -40 -146 -56 -197 -17 -51
-29 -95 -28 -96 2 -2 54 -15 114 -30 l110 -28 63 -69 c54 -59 61 -70 45 -75
-10 -4 -33 -13 -52 -21 l-34 -13 28 -30 29 -30 -21 -22 c-11 -13 -31 -43 -43
-66 -17 -36 -25 -43 -43 -39 -12 3 -62 13 -112 23 -103 20 -175 51 -225 100
l-36 34 -94 -95 -94 -95 28 -29 c27 -29 28 -29 10 -62 -32 -63 -110 -144 -164
-169 l-51 -24 -89 44 c-50 24 -107 61 -127 82 l-37 38 -28 -27 c-57 -54 -57 5
-1 152 2 6 -17 21 -43 33 l-47 23 22 23 22 23 -27 32 c-15 18 -52 45 -83 61
-31 15 -80 53 -110 83 -64 66 -145 105 -283 138 l-98 23 -29 -28 c-26 -25 -43
-30 -197 -52 l-168 -24 -28 27 -28 27 -84 -27 c-79 -26 -89 -33 -157 -102
l-73 -75 -29 27 -29 28 -99 -105 -98 -105 -71 70 c-62 61 -73 78 -95 145 -19
56 -36 86 -64 114 l-38 37 -76 -82 -76 -83 -76 27 -76 27 -57 -29 c-31 -16
-66 -38 -76 -50 -19 -21 -51 -28 -60 -13 -3 5 -13 93 -22 197 -16 170 -20 191
-42 217 l-24 28 26 77 26 77 -22 23 c-29 31 -14 42 17 13 l25 -24 38 37 c29
28 44 57 65 120 15 46 27 86 27 90 0 4 -26 20 -57 36 -32 16 -69 41 -83 56
-14 15 -51 40 -84 57 l-58 29 -29 -27 -28 -27 -103 26 -103 26 -27 -26 c-26
-25 -28 -25 -53 -9 -24 16 -25 19 -12 34 8 9 29 44 45 78 l31 61 -35 34 c-19
18 -34 36 -34 39 0 3 25 18 55 33 46 22 59 35 81 79 14 29 53 80 85 114 l60
60 -26 24 c-30 28 -31 45 -6 86 14 23 32 34 82 49 51 16 77 31 129 80 36 33
84 69 108 79 41 19 44 19 105 1 53 -16 74 -30 141 -94 55 -54 88 -96 113 -145
l34 -68 23 21 c29 27 34 27 47 -6 8 -22 6 -30 -18 -55 l-27 -29 71 -71 72 -72
27 59 c15 33 36 70 47 83 l21 22 22 -21 23 -21 88 29 88 29 30 56 c25 49 37
60 87 84 l58 28 -31 32 -31 32 22 69 c12 37 31 77 41 88 19 19 19 19 73 -7
l54 -27 92 100 c50 54 97 99 104 99 7 0 20 -8 29 -18 8 -9 66 -42 127 -72
l112 -55 78 81 c104 109 109 110 198 65z"/>
</g>
</svg>
