<?xml version="1.0" standalone="no"?>
<!DOCTYPE svg PUBLIC "-//W3C//DTD SVG 20010904//EN"
 "http://www.w3.org/TR/2001/REC-SVG-20010904/DTD/svg10.dtd">
<svg version="1.0" xmlns="http://www.w3.org/2000/svg"
 width="3000.000000pt" height="4000.000000pt" viewBox="0 0 3000.000000 4000.000000"
 preserveAspectRatio="xMidYMid meet">
<metadata>
Created by potrace 1.16, written by Peter Selinger 2001-2019
</metadata>
<g transform="translate(0.000000,4000.000000) scale(0.100000,-0.100000)"
fill="#000000" stroke="none">
<path d="M21981 29646 l-92 -92 26 -24 c17 -16 22 -27 15 -34 -6 -6 -18 -2
-35 14 l-26 24 -112 -111 c-64 -63 -131 -120 -157 -133 -25 -12 -83 -59 -130
-105 l-85 -83 -95 -22 c-52 -13 -126 -38 -164 -57 l-69 -35 57 -57 56 -57 -24
-23 -25 -24 30 -61 c30 -58 132 -176 154 -176 6 0 16 9 23 20 12 20 42 28 42
12 0 -19 -40 -43 -106 -66 -144 -49 -179 -73 -347 -245 -176 -180 -172 -170
-96 -235 l42 -36 -19 -42 c-10 -24 -33 -59 -51 -79 l-32 -35 64 -64 64 -64 51
24 51 24 65 -66 66 -65 -25 -49 c-14 -27 -46 -69 -72 -94 -26 -25 -53 -58 -62
-74 -14 -26 -13 -30 8 -52 17 -19 25 -21 36 -12 11 9 24 2 61 -35 l46 -46 -24
-26 -24 -25 37 -38 c27 -28 57 -44 110 -61 43 -14 86 -36 107 -55 19 -17 50
-38 68 -45 17 -7 32 -20 32 -27 0 -8 -20 -54 -44 -102 l-44 -88 27 -111 c15
-62 35 -121 46 -133 18 -20 18 -21 -5 -45 l-23 -25 21 -23 c27 -29 27 -35 0
-64 l-22 -23 30 -31 c16 -17 58 -46 94 -64 l65 -32 59 32 c32 18 65 40 74 49
15 15 23 10 94 -61 l77 -77 26 24 26 24 98 -98 99 -98 133 -27 c147 -30 197
-51 249 -105 l34 -36 61 59 c45 44 74 63 115 76 30 10 60 20 66 22 5 2 21 -18
33 -45 l23 -49 101 -24 c99 -23 104 -25 166 -84 l63 -60 15 23 c19 28 31 28
60 0 l23 -22 33 32 c17 17 62 42 98 56 l67 25 22 -24 c28 -29 167 -78 211 -73
18 2 35 10 39 18 16 34 55 130 87 219 l34 94 -28 31 c-16 17 -53 58 -83 91
-44 47 -60 74 -75 123 l-18 63 50 52 51 52 -24 69 c-30 86 -30 96 0 183 l24
71 -36 35 c-26 25 -64 45 -128 67 -156 54 -143 36 -203 276 -29 115 -59 217
-68 227 -15 16 -14 19 7 42 l24 25 -27 28 -27 28 71 69 c61 60 80 87 126 184
l55 113 -52 53 -51 52 53 106 53 107 -80 81 c-48 48 -102 92 -135 109 -42 21
-114 88 -312 289 -165 167 -273 268 -300 282 -24 12 -95 72 -158 134 l-115
112 -95 23 c-134 32 -148 42 -116 79 7 9 27 58 44 108 l30 93 -36 20 c-20 11
-74 38 -118 59 l-81 39 -92 -92z m189 -6 c44 -22 80 -44 80 -49 0 -30 -46
-131 -72 -158 l-32 -33 37 -38 c33 -33 49 -41 135 -61 l97 -23 110 -108 c67
-66 130 -118 161 -133 38 -20 113 -90 305 -285 175 -179 268 -266 299 -282 25
-12 80 -56 122 -97 l76 -76 -51 -104 -52 -103 52 -52 52 -51 -51 -101 c-40
-82 -65 -116 -129 -182 -79 -80 -80 -80 -59 -99 25 -23 25 -33 -1 -62 l-22
-22 34 -38 c31 -35 38 -57 83 -245 l49 -206 76 -35 c42 -19 101 -43 131 -52
60 -19 90 -40 90 -63 0 -9 -10 -46 -21 -82 l-22 -67 22 -63 c11 -35 21 -71 21
-79 0 -8 -21 -37 -46 -62 l-47 -48 24 -83 c22 -79 27 -87 101 -164 l78 -80
-24 -70 c-30 -88 -68 -164 -95 -188 -21 -19 -22 -19 -89 4 -41 14 -76 34 -92
52 l-25 29 -89 -31 c-49 -16 -98 -37 -108 -47 -17 -15 -20 -15 -43 7 l-26 24
-26 -27 -27 -27 -49 48 c-43 42 -57 49 -145 72 l-97 25 -30 56 -30 56 -85 -29
c-68 -22 -94 -37 -132 -75 l-48 -47 -22 21 c-43 39 -123 70 -253 98 l-130 27
-106 112 -106 111 -27 -30 -26 -30 -73 78 c-39 42 -77 77 -84 77 -6 0 -21 -13
-32 -28 -10 -15 -42 -38 -70 -51 -45 -21 -53 -23 -82 -11 -17 8 -45 25 -61 38
l-29 25 26 27 25 26 -25 24 -25 24 27 28 27 28 -36 38 c-29 30 -39 53 -58 128
l-22 91 56 111 56 112 -62 31 c-35 17 -72 41 -83 54 -12 14 -56 37 -104 55
-113 41 -119 46 -84 82 l27 28 -79 80 -79 79 50 53 c27 29 60 77 73 105 l24
53 -73 77 c-41 43 -79 84 -86 91 -9 11 -21 9 -64 -13 l-53 -27 -38 38 c-38 37
-39 38 -20 58 10 12 33 48 49 82 l31 61 -50 49 -49 49 147 148 c157 158 195
184 328 227 47 15 82 34 108 58 l37 36 -42 43 -42 43 -26 -25 -27 -26 -49 53
c-28 29 -56 68 -63 86 -13 31 -12 35 15 63 l28 29 -47 48 -48 48 43 21 c24 11
86 31 138 43 l95 22 85 83 c47 46 105 93 130 105 28 13 81 59 142 123 l96 102
29 -27 29 -28 39 40 39 40 -22 23 c-12 13 -22 27 -22 32 0 12 111 125 122 125
5 0 44 -18 88 -40z"/>
</g>
</svg>
