<?xml version="1.0" standalone="no"?>
<!DOCTYPE svg PUBLIC "-//W3C//DTD SVG 20010904//EN"
 "http://www.w3.org/TR/2001/REC-SVG-20010904/DTD/svg10.dtd">
<svg version="1.0" xmlns="http://www.w3.org/2000/svg"
 width="3000.000000pt" height="4000.000000pt" viewBox="0 0 3000.000000 4000.000000"
 preserveAspectRatio="xMidYMid meet">
<metadata>
Created by potrace 1.16, written by Peter Selinger 2001-2019
</metadata>
<g transform="translate(0.000000,4000.000000) scale(0.100000,-0.100000)"
fill="#000000" stroke="none">
<path d="M5855 33574 c-149 -15 -274 -34 -355 -54 -69 -17 -458 -88 -865 -159
-713 -125 -750 -132 -1025 -209 l-285 -80 -204 -105 -204 -105 -108 -137 -108
-137 58 -116 59 -117 340 -79 341 -79 153 21 c84 12 162 22 173 22 17 0 25
-13 42 -65 l21 -64 -53 -210 -52 -209 24 -25 25 -24 -22 -43 c-15 -30 -18 -45
-11 -50 7 -3 9 -14 6 -22 -4 -9 5 -24 23 -39 26 -22 49 -27 253 -49 l224 -24
45 -42 45 -43 -24 -25 -24 -26 23 -25 c22 -24 23 -28 11 -58 -8 -18 -29 -76
-49 -131 l-35 -98 26 -54 27 -55 -24 -48 c-14 -27 -38 -101 -54 -164 l-30
-116 27 -5 c14 -3 98 -15 186 -27 175 -24 233 -45 296 -105 l35 -34 28 29 28
29 69 -23 c62 -21 78 -33 143 -102 71 -76 77 -80 163 -107 l89 -29 60 63 c58
61 59 63 90 183 67 265 72 273 208 306 l89 22 29 -27 28 -28 45 22 c25 12 48
22 50 22 3 0 14 -19 26 -42 29 -60 105 -135 164 -165 31 -15 95 -70 167 -141
l118 -116 29 28 29 28 52 -27 52 -26 112 116 c95 100 118 130 156 209 33 68
65 114 118 172 l72 78 54 -18 c57 -20 75 -16 109 22 18 19 17 22 -11 79 -16
32 -53 131 -83 220 l-53 161 -51 24 c-27 12 -71 45 -97 73 l-46 49 20 41 c11
22 34 54 50 72 l30 31 -26 79 -27 78 22 17 c11 10 33 26 47 37 l27 20 -53 54
c-44 44 -65 57 -125 76 -49 16 -84 34 -109 59 -21 20 -38 39 -38 42 0 3 24 14
53 24 75 27 112 67 173 188 l54 108 -26 105 -27 105 80 193 c48 116 89 232
103 293 l23 100 -57 85 -57 86 -217 81 c-205 77 -580 184 -635 181 -12 -1
-125 -12 -252 -25z m484 -75 c118 -30 275 -81 394 -126 l199 -76 44 -66 c24
-36 44 -75 44 -86 -1 -51 -54 -216 -123 -378 l-76 -178 25 -104 25 -105 -49
-102 c-27 -57 -60 -113 -73 -124 -13 -12 -63 -34 -111 -50 -49 -15 -88 -31
-88 -34 0 -3 28 -33 63 -68 52 -52 74 -66 137 -87 46 -16 87 -37 107 -57 l33
-32 -36 -37 -36 -37 26 -78 26 -77 -28 -31 c-15 -17 -38 -55 -51 -84 l-25 -53
58 -58 c32 -32 80 -69 107 -82 l50 -23 40 -130 c23 -72 55 -162 72 -199 38
-84 31 -94 -45 -68 l-55 19 -86 -86 c-72 -74 -94 -104 -140 -197 -49 -96 -67
-121 -146 -199 l-90 -90 -51 24 -50 23 -23 -21 -23 -22 -94 96 c-60 60 -115
106 -150 124 -68 34 -157 128 -189 197 l-24 51 -53 -26 -54 -26 -24 23 -25 24
-109 -28 c-96 -23 -114 -31 -145 -63 -37 -40 -66 -116 -111 -296 -22 -89 -29
-104 -68 -143 l-43 -43 -65 21 c-55 18 -77 33 -145 100 -72 70 -89 82 -164
109 l-84 31 -23 -22 c-22 -20 -25 -21 -41 -7 -10 9 -45 29 -79 46 -48 24 -92
35 -218 53 -86 13 -161 26 -166 29 -13 8 32 175 64 238 l26 52 -26 52 -26 52
17 56 c9 30 33 90 52 133 l35 79 -23 24 -22 24 23 24 23 25 -31 38 c-73 92
-62 88 -317 117 -275 31 -278 32 -243 114 l22 52 -26 27 -25 28 50 204 49 204
-27 93 -27 92 -32 -4 c-17 -3 -101 -16 -186 -29 l-155 -23 -329 77 -328 76
-44 87 c-24 48 -44 92 -44 98 0 6 43 64 95 130 l95 120 203 102 c199 100 206
102 482 179 154 43 345 89 425 103 80 14 417 73 750 131 333 58 649 117 703
131 90 24 457 70 581 73 30 1 125 -19 245 -50z"/>
</g>
</svg>
