<?xml version="1.0" standalone="no"?>
<!DOCTYPE svg PUBLIC "-//W3C//DTD SVG 20010904//EN"
 "http://www.w3.org/TR/2001/REC-SVG-20010904/DTD/svg10.dtd">
<svg version="1.0" xmlns="http://www.w3.org/2000/svg"
 width="3000.000000pt" height="4000.000000pt" viewBox="0 0 3000.000000 4000.000000"
 preserveAspectRatio="xMidYMid meet">
<metadata>
Created by potrace 1.16, written by Peter Selinger 2001-2019
</metadata>
<g transform="translate(0.000000,4000.000000) scale(0.100000,-0.100000)"
fill="#000000" stroke="none">
<path d="M11236 23391 l-50 -51 24 -25 c17 -18 21 -28 13 -36 -13 -13 -98 28
-132 65 -14 14 -27 26 -31 26 -3 0 -57 -54 -120 -121 l-113 -121 41 -41 42
-41 29 28 c25 24 31 26 36 14 9 -22 -37 -107 -79 -147 l-36 -35 -22 21 c-26
23 -92 58 -150 79 l-38 13 -40 -79 -40 -80 70 -35 c39 -20 73 -42 77 -51 11
-29 -22 -81 -111 -172 l-90 -92 35 -36 c19 -20 57 -47 84 -61 28 -14 76 -50
107 -81 31 -30 78 -67 104 -81 41 -22 50 -33 61 -70 7 -24 15 -52 18 -62 5
-13 -3 -23 -32 -37 l-37 -20 -53 26 -53 26 -113 -111 c-68 -68 -132 -121 -162
-136 -27 -14 -65 -40 -83 -59 l-32 -34 29 -28 30 -29 -48 -96 c-27 -53 -59
-105 -71 -116 -30 -27 -72 -113 -106 -217 l-28 -87 24 -100 23 -100 -61 -66
c-74 -79 -77 -70 48 -199 l88 -90 43 40 c24 22 59 46 77 53 l33 14 69 -68 68
-68 27 -108 c17 -67 34 -114 46 -125 19 -17 19 -19 -33 -71 l-52 -53 27 -28
27 -29 -19 -44 c-11 -24 -38 -62 -61 -84 l-40 -39 -78 77 -78 77 -36 -37 c-20
-21 -50 -65 -66 -99 l-31 -61 26 -26 26 -26 -19 -63 c-10 -34 -31 -77 -47 -94
-15 -18 -41 -72 -57 -120 l-30 -88 34 -36 c39 -39 66 -95 66 -135 0 -44 65
-157 124 -215 l56 -54 55 27 56 27 47 -24 c26 -13 58 -36 72 -51 31 -34 98
-68 175 -90 33 -10 65 -20 72 -22 7 -3 24 18 40 51 l27 55 -24 51 -24 51 42
42 42 42 68 -24 c37 -13 82 -37 99 -54 l33 -31 25 24 25 23 25 -23 25 -24 48
47 c32 32 56 47 73 47 20 0 49 23 115 90 99 101 96 97 140 199 27 61 31 78 22
102 -8 23 -5 44 15 103 l25 74 -24 23 c-29 27 -29 39 -3 170 18 88 26 109 52
137 l31 32 -65 66 -66 66 -59 -30 c-32 -17 -74 -46 -93 -66 l-35 -36 24 -25
c18 -19 21 -27 11 -39 -10 -12 -22 -11 -87 11 l-75 25 -25 -23 c-25 -24 -26
-24 -40 -5 -19 26 -18 34 11 154 29 119 53 173 103 224 l36 38 -29 30 -28 30
31 102 c17 57 39 135 48 173 20 82 39 107 114 145 49 25 59 35 85 89 l29 61
-34 70 c-19 39 -36 70 -39 70 -3 0 -15 -12 -27 -27 l-23 -28 -64 64 c-62 60
-65 65 -55 93 6 16 17 32 24 35 7 3 43 -5 80 -17 l66 -22 39 38 39 38 -29 31
-28 30 22 85 c25 99 3 92 199 59 l120 -20 65 65 65 65 -29 32 c-17 17 -51 42
-77 55 -27 13 -48 30 -48 36 0 6 10 41 21 78 l22 66 -28 54 c-15 30 -36 65
-48 77 -20 22 -20 23 -2 64 13 28 31 47 58 60 l39 20 22 -20 c23 -22 86 -29
86 -10 0 6 16 30 35 53 19 24 35 50 35 58 0 14 -39 38 -61 38 -6 0 -32 24 -59
53 l-48 52 -29 -28 -30 -27 -19 21 c-10 12 -64 44 -119 71 -55 28 -108 58
-119 67 -10 9 -33 45 -51 81 -18 36 -47 78 -64 94 l-31 30 -23 -22 c-31 -29
-37 -28 -79 16 -49 51 -74 131 -112 355 l-31 188 -49 -50z m-67 -156 l53 -26
24 22 c13 12 24 21 24 18 0 -27 34 -185 54 -251 23 -76 32 -89 89 -146 l63
-63 24 26 c29 31 40 23 80 -54 38 -75 76 -109 195 -171 55 -29 115 -67 132
-83 l33 -31 25 24 26 24 45 -46 46 -45 -17 -27 -18 -27 -28 27 -27 26 -64 -36
c-57 -32 -67 -42 -93 -96 l-29 -60 36 -38 c20 -20 44 -56 53 -79 17 -43 13
-66 -32 -190 -3 -7 21 -25 54 -41 32 -17 66 -38 75 -49 17 -18 16 -21 -21 -57
l-39 -38 -157 26 c-87 15 -159 25 -161 24 -1 -2 -16 -56 -32 -120 -29 -114
-29 -117 -11 -134 22 -20 25 -42 6 -50 -8 -3 -38 4 -68 15 -103 37 -95 39
-129 -28 -16 -33 -30 -66 -30 -73 0 -8 40 -53 88 -101 88 -87 88 -88 107 -67
24 27 30 25 45 -10 11 -26 10 -37 -6 -71 -14 -32 -30 -47 -73 -69 -84 -42
-105 -71 -130 -175 -12 -49 -36 -136 -53 -193 l-31 -102 22 -24 c20 -21 20
-24 6 -36 -28 -23 -73 -123 -95 -211 -11 -46 -25 -96 -31 -110 -14 -37 6 -100
42 -135 l29 -28 28 27 28 27 78 -26 78 -26 39 38 39 38 -27 28 c-31 33 -27 39
45 79 l42 23 40 -39 40 -39 -20 -21 c-15 -15 -28 -62 -47 -158 l-27 -136 24
-26 24 -25 -24 -76 c-19 -61 -22 -79 -12 -94 10 -16 8 -30 -8 -72 -30 -79 -38
-89 -129 -182 -68 -70 -86 -84 -98 -74 -11 9 -24 1 -67 -41 l-52 -51 -24 25
-24 25 -26 -25 c-26 -25 -27 -25 -44 -6 -10 11 -58 33 -106 49 l-88 30 -62
-63 -61 -62 28 -57 c26 -53 27 -59 12 -84 -10 -18 -22 -26 -35 -24 -37 6 -173
75 -196 99 -13 14 -50 38 -82 55 l-59 30 -49 -23 -49 -23 -45 45 c-53 51 -98
132 -96 172 3 30 -39 119 -71 154 -20 22 -20 24 -3 85 11 39 28 75 47 93 19
21 38 61 58 122 l28 91 -24 25 -25 24 26 51 c14 28 31 54 37 58 6 4 44 -26 89
-71 l77 -76 64 66 c35 37 77 91 92 122 l28 55 -22 24 -23 24 47 48 c26 26 47
52 47 58 0 6 -13 23 -29 38 -23 22 -34 48 -51 120 -26 104 -44 136 -133 224
l-64 64 -64 -32 c-35 -18 -72 -39 -82 -48 -17 -15 -23 -11 -90 56 l-72 72 58
58 c31 32 57 66 57 77 0 11 -11 62 -24 113 l-24 93 27 82 c34 101 62 155 93
184 13 12 50 76 83 142 l59 120 -22 24 -22 23 22 21 c13 11 43 30 68 42 28 14
81 60 140 123 l96 100 53 -26 52 -27 64 36 64 35 -31 90 -30 91 -57 29 c-31
15 -78 52 -106 80 -27 28 -75 64 -106 80 -88 45 -88 47 -13 121 42 41 78 89
101 133 l34 68 -28 30 c-15 16 -49 41 -75 56 l-46 26 19 38 c11 21 22 38 25
38 18 0 115 -58 144 -86 l36 -34 66 68 c41 42 75 88 91 123 l25 57 -39 38 -39
38 -24 -23 c-14 -13 -30 -20 -36 -16 -8 5 18 38 76 96 l88 89 26 -24 c14 -13
49 -36 79 -51z"/>
</g>
</svg>
