<?xml version="1.0" standalone="no"?>
<!DOCTYPE svg PUBLIC "-//W3C//DTD SVG 20010904//EN"
 "http://www.w3.org/TR/2001/REC-SVG-20010904/DTD/svg10.dtd">
<svg version="1.0" xmlns="http://www.w3.org/2000/svg"
 width="3000.000000pt" height="4000.000000pt" viewBox="0 0 3000.000000 4000.000000"
 preserveAspectRatio="xMidYMid meet">
<metadata>
Created by potrace 1.16, written by Peter Selinger 2001-2019
</metadata>
<g transform="translate(0.000000,4000.000000) scale(0.100000,-0.100000)"
fill="#000000" stroke="none">
<path d="M11700 13623 l-185 -24 -62 -62 -63 -61 52 -53 c60 -61 58 -67 -31
-113 -36 -18 -90 -63 -151 -124 l-94 -96 -46 45 c-36 36 -63 51 -133 74 -48
16 -109 42 -136 56 l-49 27 -35 -38 c-30 -33 -39 -56 -61 -148 l-26 -110 54
-56 c43 -44 58 -68 76 -125 12 -38 31 -82 41 -98 27 -37 14 -55 -17 -26 l-25
23 -85 -28 -85 -27 -54 -109 c-34 -68 -51 -111 -44 -116 6 -3 8 -12 5 -19 -3
-8 8 -18 27 -26 18 -7 40 -22 49 -34 10 -11 17 -16 18 -11 0 6 13 -3 30 -19
l30 -29 50 24 51 24 129 -129 129 -128 76 28 76 28 30 -29 29 -28 50 49 50 49
36 -36 c35 -35 36 -37 24 -73 -7 -21 -28 -55 -46 -75 -32 -35 -84 -159 -84
-200 0 -9 12 -27 26 -41 14 -13 39 -49 54 -79 24 -48 35 -59 87 -84 l60 -28
51 26 52 26 43 -21 c23 -11 69 -47 102 -79 49 -47 73 -62 130 -80 56 -18 81
-33 125 -76 44 -43 70 -59 130 -79 60 -20 86 -36 130 -79 30 -30 79 -66 108
-81 l54 -26 78 26 79 26 44 -25 c54 -32 63 -32 90 0 l22 25 158 -26 157 -27
44 49 45 48 27 -27 28 -28 28 27 28 27 47 -53 46 -53 67 67 c55 55 77 87 120
176 l53 110 -26 27 -27 28 21 65 c24 72 56 111 113 141 l39 20 51 -50 c42 -40
66 -55 133 -76 l81 -27 59 29 c34 18 80 53 112 87 44 48 59 74 82 144 l29 85
-34 36 c-19 19 -43 55 -54 80 -11 25 -29 54 -41 64 -26 24 -26 33 1 173 l22
113 -25 78 -26 79 27 80 28 81 -32 30 c-17 17 -76 54 -131 83 -117 61 -194
130 -235 209 -33 65 -65 96 -141 138 l-56 31 -29 -31 c-16 -16 -51 -41 -79
-55 -27 -14 -60 -34 -72 -45 -23 -21 -43 -17 -43 9 0 9 10 47 22 84 l22 68
-63 68 c-35 37 -69 75 -78 85 -13 14 -164 68 -192 68 -18 0 -114 -50 -138 -73
l-23 -20 -50 23 -51 24 -78 -78 -78 -78 -39 20 c-22 11 -73 55 -114 97 -76 78
-145 121 -257 160 l-53 19 20 21 20 21 -33 31 c-43 41 -62 46 -83 22 -22 -24
-41 -24 -106 1 -64 24 -76 24 -308 -7z m416 -52 c17 19 44 26 44 12 0 -4 -13
-21 -30 -38 l-30 -31 88 -28 c133 -44 179 -71 277 -165 57 -55 109 -95 143
-111 l53 -24 78 78 78 78 52 -27 53 -26 41 38 c23 21 57 45 76 52 30 13 40 12
117 -13 59 -19 87 -34 95 -49 6 -12 32 -43 56 -69 l45 -46 -25 -77 -26 -76 36
-40 36 -40 36 34 c20 19 56 45 81 57 25 12 57 33 71 47 l27 25 48 -25 c60 -30
73 -45 112 -122 44 -87 118 -154 237 -213 55 -27 109 -59 119 -71 19 -21 19
-22 -4 -97 l-24 -75 26 -78 25 -78 -25 -131 -26 -132 26 -27 c14 -16 39 -55
56 -88 16 -33 39 -68 50 -78 l20 -19 -24 -71 c-29 -84 -87 -151 -164 -187
l-48 -22 -66 22 c-54 18 -76 32 -122 80 l-56 59 -67 -34 c-91 -46 -114 -74
-146 -178 l-28 -88 23 -24 23 -24 -44 -96 c-29 -64 -58 -110 -87 -137 l-42
-42 -53 52 -53 52 -24 -25 -24 -26 -25 26 -25 25 -57 -56 -57 -56 -153 26
-154 25 -24 -24 -24 -24 -49 25 -48 25 -75 -27 -76 -27 -42 19 c-23 10 -71 46
-107 80 -54 50 -78 64 -135 82 -59 18 -79 30 -125 76 -45 47 -67 60 -130 81
-62 21 -85 35 -126 76 -27 28 -75 64 -107 80 l-57 29 -52 -26 -52 -26 -43 21
c-33 16 -48 32 -69 73 -14 29 -35 63 -46 75 l-20 22 22 68 c13 37 37 84 54
103 17 19 42 59 55 88 l25 53 -64 64 -64 65 -53 -52 -53 -52 -24 23 -25 23
-73 -25 -73 -25 -132 131 -133 131 -45 -22 c-53 -25 -73 -28 -81 -8 -3 7 -27
26 -54 40 l-50 27 45 89 44 88 66 22 67 22 29 -28 29 -28 42 42 42 42 -36 37
c-24 26 -43 61 -58 108 -17 55 -33 81 -72 122 l-51 51 23 94 c12 51 31 102 41
112 18 19 19 19 76 -6 32 -14 87 -36 123 -49 52 -19 76 -35 119 -82 l54 -58
116 114 c64 63 135 125 159 136 24 12 61 38 83 58 l40 36 -53 54 -53 53 43 43
42 42 198 26 197 25 82 -27 c80 -27 82 -27 99 -8z"/>
</g>
</svg>
