<?xml version="1.0" standalone="no"?>
<!DOCTYPE svg PUBLIC "-//W3C//DTD SVG 20010904//EN"
 "http://www.w3.org/TR/2001/REC-SVG-20010904/DTD/svg10.dtd">
<svg version="1.0" xmlns="http://www.w3.org/2000/svg"
 width="3000.000000pt" height="4000.000000pt" viewBox="0 0 3000.000000 4000.000000"
 preserveAspectRatio="xMidYMid meet">
<metadata>
Created by potrace 1.16, written by Peter Selinger 2001-2019
</metadata>
<g transform="translate(0.000000,4000.000000) scale(0.100000,-0.100000)"
fill="#000000" stroke="none">
<path d="M7980 12565 c-24 -25 -49 -45 -55 -45 -6 0 -22 11 -35 25 l-24 26
-28 -56 -28 -55 -33 16 c-17 9 -52 36 -77 60 -63 60 -89 68 -128 41 -17 -12
-38 -37 -46 -55 -15 -31 -15 -35 5 -75 12 -23 41 -63 65 -88 l45 -45 -26 -104
-25 -104 22 -23 22 -23 -48 -49 -49 -49 21 -28 20 -28 -138 -146 -138 -145
-133 -27 c-116 -24 -137 -32 -165 -59 l-31 -30 29 -117 c27 -108 33 -120 74
-163 l44 -45 -25 -24 -25 -24 27 -28 27 -28 -22 -23 c-21 -23 -72 -154 -72
-187 0 -9 12 -27 26 -41 14 -13 37 -46 51 -74 14 -27 49 -75 78 -105 41 -43
58 -70 75 -124 l22 -68 -51 -52 -51 -52 26 -129 26 -130 -26 -83 c-20 -61 -35
-88 -56 -103 -28 -21 -28 -22 -12 -48 10 -15 39 -46 65 -70 l48 -44 51 24 c29
13 65 35 81 48 l28 24 53 -52 53 -52 44 52 c33 38 50 51 62 46 9 -3 42 -58 74
-121 48 -97 63 -118 96 -136 l38 -22 -20 -22 -21 -22 63 -62 c34 -34 66 -62
70 -62 9 0 37 56 31 63 -14 14 51 105 142 200 75 78 116 113 164 137 l63 32
-31 30 -30 31 26 54 26 53 -57 58 c-46 47 -61 70 -82 132 -19 57 -36 86 -72
122 l-47 47 23 50 c15 31 60 85 127 152 57 57 104 109 104 115 0 6 -9 19 -20
29 -20 18 -19 18 25 70 24 29 50 64 56 79 7 14 15 26 19 26 19 0 17 40 -2 52
-20 13 -20 15 -3 48 9 19 45 63 78 98 l61 62 -83 84 -83 84 -25 122 -25 122
31 32 31 32 -25 24 -25 24 20 21 c11 12 47 34 80 50 l60 29 -30 31 -30 31 20
19 c11 10 30 39 41 64 11 25 47 73 80 106 l59 61 -30 88 c-16 49 -37 98 -47
108 -15 17 -15 20 11 47 l28 29 -53 28 c-30 15 -81 41 -114 56 -33 16 -87 55
-120 87 -57 55 -65 60 -150 80 -49 12 -97 24 -105 26 -9 3 -34 -13 -60 -40z
m149 -30 c88 -22 98 -27 150 -78 35 -35 87 -70 140 -97 l83 -41 -23 -25 -23
-24 36 -38 c22 -23 43 -61 56 -98 l20 -62 -45 -43 c-25 -24 -58 -71 -75 -104
-16 -33 -44 -75 -61 -92 l-31 -33 23 -23 22 -24 -33 -14 c-18 -7 -52 -31 -76
-53 l-43 -39 27 -29 28 -28 -22 -23 -22 -23 26 -135 27 -134 68 -70 c38 -39
69 -75 69 -81 0 -5 -16 -26 -36 -45 -20 -18 -52 -65 -71 -103 -33 -65 -34 -71
-18 -82 26 -19 6 -58 -65 -129 l-60 -59 26 -27 26 -28 -100 -103 c-60 -62
-110 -124 -127 -157 l-27 -54 56 -56 c47 -48 60 -69 82 -136 20 -61 37 -91 70
-125 24 -25 44 -51 44 -58 0 -7 -9 -31 -21 -53 -19 -37 -19 -42 -5 -58 22 -25
21 -28 -21 -50 -59 -30 -237 -217 -268 -281 -34 -69 -31 -67 -55 -45 -26 24
-25 33 5 65 l25 26 -61 29 c-61 30 -62 30 -114 135 -29 58 -68 120 -87 137
l-34 33 -49 -50 -49 -50 -53 52 -52 51 -43 -39 c-24 -22 -58 -46 -75 -53 -30
-12 -35 -11 -62 12 -17 14 -36 27 -43 30 -9 3 -5 13 13 33 15 16 38 65 53 109
l26 81 -26 128 -26 129 52 52 52 53 -27 83 c-23 70 -36 93 -80 139 -29 30 -65
80 -80 110 -15 30 -36 65 -48 77 -20 23 -20 23 -1 85 11 39 32 78 53 101 l34
38 -23 24 -23 25 21 23 c12 13 22 27 22 32 0 5 -25 35 -56 66 -52 52 -57 62
-78 147 l-24 91 22 20 c15 14 60 29 147 46 l124 25 167 167 168 167 -27 28
-27 28 52 53 52 53 -30 29 -29 30 26 103 26 104 -56 56 c-61 63 -97 122 -74
122 8 0 22 9 32 20 19 21 19 20 64 -24 36 -34 153 -106 174 -106 2 0 12 19 22
43 11 23 20 44 22 46 2 3 13 -5 26 -17 l23 -22 54 55 c30 30 54 55 55 55 0 0
42 -11 94 -25z"/>
</g>
</svg>
