<?xml version="1.0" standalone="no"?>
<!DOCTYPE svg PUBLIC "-//W3C//DTD SVG 20010904//EN"
 "http://www.w3.org/TR/2001/REC-SVG-20010904/DTD/svg10.dtd">
<svg version="1.0" xmlns="http://www.w3.org/2000/svg"
 width="3000.000000pt" height="4000.000000pt" viewBox="0 0 3000.000000 4000.000000"
 preserveAspectRatio="xMidYMid meet">
<metadata>
Created by potrace 1.16, written by Peter Selinger 2001-2019
</metadata>
<g transform="translate(0.000000,4000.000000) scale(0.100000,-0.100000)"
fill="#000000" stroke="none">
<path d="M20168 12353 l-47 -47 -25 23 -24 22 -73 -29 -74 -29 -15 -82 c-20
-108 -35 -122 -164 -155 -97 -24 -101 -27 -160 -85 l-60 -61 26 -53 27 -54
-38 -37 -37 -36 -23 24 -24 25 -61 -31 c-33 -16 -71 -39 -83 -51 l-23 -20 -50
23 -50 23 -23 -21 -23 -22 -24 25 -24 25 -35 -34 c-24 -22 -60 -42 -106 -56
l-71 -23 -53 28 -54 27 -66 -66 -65 -65 28 -30 28 -29 -21 -41 c-15 -28 -34
-47 -64 -62 -23 -11 -88 -66 -144 -122 l-102 -101 -26 24 c-23 22 -26 22 -43
7 -10 -10 -21 -17 -24 -17 -2 0 -15 34 -28 75 l-24 76 -42 -42 c-23 -23 -50
-59 -59 -80 -10 -21 -22 -39 -27 -39 -5 0 -27 10 -50 21 l-42 21 -36 -38 c-32
-36 -37 -49 -59 -164 -20 -104 -28 -130 -51 -155 -15 -16 -38 -51 -51 -76 -13
-26 -78 -103 -145 -172 l-120 -124 -49 25 c-38 19 -52 22 -64 13 -9 -6 -25
-15 -36 -20 -32 -14 -53 -43 -60 -83 -4 -21 -22 -57 -41 -80 l-33 -43 24 -26
25 -25 -24 -23 -25 -24 26 -34 26 -34 -19 -62 -20 -62 -85 -31 c-107 -39 -158
-65 -189 -99 -14 -15 -47 -38 -75 -52 -45 -23 -83 -50 -139 -99 -24 -21 -19
-24 95 -53 l86 -23 22 -71 c16 -50 34 -84 59 -110 l36 -37 91 89 c49 49 105
97 124 106 32 16 34 16 55 -4 22 -21 184 -81 217 -81 9 0 22 13 29 29 6 16 20
37 31 47 18 16 20 16 44 -6 l25 -24 30 29 30 29 68 -23 c37 -12 72 -25 79 -27
7 -3 26 23 48 65 19 39 39 71 44 71 10 0 53 -96 77 -172 15 -50 30 -70 130
-169 l113 -113 26 24 25 23 26 -24 25 -24 106 108 c98 98 105 109 91 123 -15
15 -14 22 7 83 20 59 50 127 61 140 2 3 15 -6 28 -18 l25 -23 34 68 c20 38 56
89 82 114 26 25 59 70 75 100 41 80 62 95 174 124 l99 25 106 104 106 105 96
26 c53 14 125 39 160 55 46 21 107 36 213 52 l148 23 157 162 156 162 29 87
28 87 -21 22 c-26 28 -26 36 2 94 13 26 34 82 47 125 l24 78 -26 25 -25 26 22
90 c13 49 25 91 27 93 1 1 23 13 48 25 25 12 55 31 67 43 22 20 24 20 62 2 22
-9 54 -32 72 -51 l33 -34 26 25 26 25 40 -41 c21 -22 64 -53 94 -69 31 -16 83
-57 119 -94 34 -36 69 -66 77 -66 17 0 44 53 78 156 21 65 35 89 72 125 25 24
61 74 79 110 l34 66 -25 128 -25 128 25 26 c32 33 32 42 2 70 -22 20 -23 26
-13 49 10 21 9 26 -3 31 -8 3 -58 19 -110 37 l-95 31 -24 -69 -23 -70 -21 21
-21 21 -26 -25 -26 -25 -24 25 -24 25 -28 -27 -28 -27 -25 24 -25 23 -25 -23
-25 -24 -48 46 c-26 25 -67 56 -92 68 -25 12 -62 38 -82 58 l-38 36 -25 -24
-25 -24 -48 46 c-37 36 -64 51 -127 72 -44 14 -82 26 -85 26 -3 0 -26 -21 -52
-47z m132 -28 c41 -13 70 -32 117 -78 l63 -61 23 22 c28 26 40 27 58 6 7 -9
38 -28 68 -44 35 -17 74 -49 105 -85 l48 -56 29 27 29 28 28 -27 28 -27 24 25
24 25 26 -25 26 -25 24 25 24 25 32 -31 32 -31 27 84 c15 45 29 84 30 85 1 2
29 -7 64 -18 53 -18 61 -24 55 -41 -4 -13 2 -28 17 -44 l22 -24 -21 -23 -22
-23 26 -129 c25 -126 26 -128 8 -169 -10 -22 -44 -68 -75 -101 -45 -48 -61
-74 -79 -130 -13 -38 -29 -83 -37 -99 l-15 -29 -51 51 c-29 27 -72 60 -97 72
-25 12 -73 49 -107 83 l-63 61 -25 -24 c-23 -21 -26 -22 -42 -8 -10 9 -47 30
-82 48 l-64 32 -36 -35 c-20 -19 -56 -45 -81 -57 -25 -12 -47 -24 -48 -25 -2
-2 -17 -54 -32 -117 l-29 -113 26 -27 25 -26 -22 -69 c-13 -37 -36 -94 -52
-127 l-29 -58 26 -28 27 -28 -23 -70 c-22 -69 -27 -75 -175 -223 l-152 -151
-153 -28 c-105 -18 -170 -35 -206 -53 -28 -15 -99 -38 -157 -53 l-107 -27 -97
-103 -98 -103 -104 -26 c-121 -31 -138 -43 -185 -135 -18 -36 -54 -85 -80
-110 -26 -25 -55 -62 -66 -82 -11 -21 -22 -38 -26 -38 -4 0 -17 9 -29 21 l-23
21 -31 -61 c-17 -34 -28 -66 -25 -71 4 -6 2 -10 -3 -10 -4 0 -16 -25 -26 -55
-15 -47 -23 -58 -58 -76 l-40 -21 28 -29 28 -30 -61 -61 -62 -62 -22 28 -22
27 -28 -27 -29 -28 -93 92 c-90 90 -94 96 -121 180 -16 48 -42 113 -58 146
l-30 59 -43 -43 c-23 -23 -51 -60 -60 -81 -10 -21 -21 -39 -25 -39 -3 0 -39
11 -78 24 -71 24 -72 24 -82 5 -14 -25 -28 -24 -57 3 l-23 22 -58 -56 -57 -55
-65 24 c-36 13 -78 37 -94 53 l-29 29 -61 -31 c-37 -18 -90 -58 -133 -101 -86
-84 -87 -84 -128 40 -29 90 -20 83 -128 109 -39 9 -30 24 35 59 30 17 72 45
92 62 47 42 91 64 197 98 l86 28 30 93 c30 91 30 93 12 110 -24 22 -24 33 1
59 l20 22 -20 18 c-25 22 -25 31 -1 61 11 14 22 43 26 65 4 22 10 38 13 35 3
-4 18 6 34 21 l28 27 50 -24 51 -24 130 130 c96 95 139 145 161 189 16 33 43
74 58 90 24 25 32 51 54 159 14 71 31 135 37 142 16 19 37 17 88 -10 l44 -23
34 69 c19 37 38 68 43 68 5 0 18 -30 31 -67 12 -38 23 -70 25 -72 3 -3 18 8
34 24 l30 29 27 -26 26 -26 105 110 c77 80 122 118 165 139 53 27 61 36 86 92
l29 62 -21 23 -21 23 37 36 36 37 48 -23 49 -22 79 27 c44 15 90 36 103 47
l22 21 29 -28 28 -27 24 32 25 32 53 -27 52 -27 39 35 c21 19 53 42 70 51 32
16 33 16 61 -11 l30 -28 65 65 66 66 -25 50 -25 49 39 46 c37 44 43 47 148 73
141 35 160 52 181 167 l15 82 48 15 c47 15 47 15 78 -15 l31 -29 51 57 c29 31
57 55 62 54 6 -2 35 -11 65 -21z"/>
</g>
</svg>
