<?xml version="1.0" standalone="no"?>
<!DOCTYPE svg PUBLIC "-//W3C//DTD SVG 20010904//EN"
 "http://www.w3.org/TR/2001/REC-SVG-20010904/DTD/svg10.dtd">
<svg version="1.0" xmlns="http://www.w3.org/2000/svg"
 width="3000.000000pt" height="4000.000000pt" viewBox="0 0 3000.000000 4000.000000"
 preserveAspectRatio="xMidYMid meet">
<metadata>
Created by potrace 1.16, written by Peter Selinger 2001-2019
</metadata>
<g transform="translate(0.000000,4000.000000) scale(0.100000,-0.100000)"
fill="#000000" stroke="none">
<path d="M17158 15879 c-14 -17 -52 -46 -84 -63 -54 -29 -59 -34 -69 -81 -14
-64 -29 -91 -73 -137 l-36 -38 29 -30 29 -30 -22 -69 c-30 -94 -44 -103 -86
-62 l-33 32 -29 -148 c-26 -135 -32 -151 -63 -186 -19 -21 -32 -39 -30 -41 2
-2 36 -13 74 -26 39 -12 73 -25 77 -29 4 -3 -2 -44 -14 -91 -20 -83 -22 -87
-98 -165 -73 -75 -80 -86 -106 -168 l-28 -87 22 -22 22 -22 -52 -53 -52 -53
27 -28 27 -29 -21 -19 c-12 -10 -32 -41 -44 -69 -14 -31 -51 -78 -97 -123
l-74 -72 -74 25 -74 25 -34 -32 c-19 -18 -57 -78 -84 -133 -38 -76 -71 -122
-134 -191 -63 -69 -94 -112 -123 -175 -45 -95 -45 -95 44 -119 42 -11 66 -29
142 -103 51 -50 95 -89 97 -86 2 2 17 31 34 64 17 33 49 78 71 100 l41 39 41
-39 c25 -25 62 -81 94 -145 29 -58 68 -120 87 -137 l33 -33 123 26 123 26 26
-23 c14 -13 38 -49 53 -79 15 -30 38 -64 50 -75 12 -11 33 -40 45 -65 l23 -46
-19 -149 c-11 -83 -22 -180 -26 -217 l-6 -67 67 -33 66 -32 37 36 c21 20 61
48 90 62 33 16 74 51 115 97 42 48 82 80 121 100 46 24 62 38 79 74 12 25 29
45 37 45 9 0 55 -11 103 -23 l87 -24 60 61 c49 50 62 72 76 121 9 33 33 95 53
138 l36 78 -22 21 -21 21 74 81 73 81 -25 49 -25 48 28 29 27 29 -59 62 c-32
35 -79 82 -104 105 l-45 41 23 25 c30 32 26 39 -81 145 l-83 83 -19 -40 c-10
-23 -21 -41 -26 -41 -10 0 -34 68 -58 162 l-19 77 27 24 c14 14 46 35 71 47
45 22 160 126 160 144 0 5 -10 20 -21 33 -27 28 -19 39 53 78 29 15 81 55 115
88 l62 60 -21 30 -21 29 48 48 47 47 -32 64 c-18 35 -41 74 -52 85 -19 22 -19
22 2 65 13 24 48 71 79 104 31 33 67 84 80 112 23 50 23 54 7 72 -17 18 -15
20 47 40 96 32 110 52 141 206 14 72 26 138 26 147 0 20 -105 73 -214 108
l-68 22 -26 -25 -25 -26 -46 24 c-25 13 -59 37 -75 54 l-30 31 -35 -34 c-23
-22 -61 -42 -106 -56 -83 -27 -176 -72 -194 -94 -20 -24 -38 -19 -68 20 -15
19 -50 47 -77 60 l-48 25 23 25 23 24 -30 31 c-16 17 -51 42 -79 56 -27 14
-69 43 -91 65 l-41 40 -25 -33z m112 -99 c25 -12 55 -32 68 -43 l22 -21 -27
-28 c-14 -15 -25 -30 -22 -32 2 -2 29 -16 59 -31 30 -15 83 -54 117 -88 l63
-61 37 36 c44 42 110 76 208 108 39 12 80 32 92 43 l22 20 28 -24 c16 -13 52
-35 81 -48 l53 -25 26 26 26 26 66 -23 c89 -30 151 -62 151 -79 0 -7 -9 -60
-21 -117 -26 -131 -39 -146 -159 -184 l-90 -29 30 -31 c16 -17 30 -37 30 -43
0 -27 -34 -79 -86 -133 -30 -30 -67 -82 -83 -116 l-29 -61 33 -32 c18 -17 41
-50 51 -71 l17 -40 -53 -54 -54 -55 22 -23 c12 -13 22 -28 22 -33 0 -18 -74
-82 -125 -107 -27 -14 -67 -43 -88 -64 l-37 -39 25 -24 25 -24 -42 -44 c-24
-24 -68 -56 -98 -72 -30 -15 -67 -41 -82 -57 l-27 -28 29 -115 c26 -105 85
-250 100 -250 4 0 17 23 30 50 13 28 26 50 30 50 3 0 30 -25 60 -55 l54 -55
-24 -25 -23 -24 98 -106 98 -106 -22 -23 -22 -24 26 -52 27 -53 -78 -78 -77
-78 26 -31 27 -31 -24 -47 c-13 -26 -34 -80 -47 -119 -18 -58 -33 -82 -70
-119 l-48 -47 -88 22 c-48 12 -95 24 -104 27 -11 3 -23 -13 -44 -55 -23 -49
-35 -62 -69 -77 -23 -10 -81 -57 -131 -105 -49 -48 -112 -98 -140 -112 -27
-14 -58 -34 -69 -46 -18 -20 -19 -20 -55 -1 l-37 18 25 206 25 205 -29 61
c-16 33 -40 70 -53 82 -13 13 -37 48 -52 78 -15 30 -42 68 -58 83 l-30 29
-128 -26 c-155 -32 -142 -38 -224 124 -44 87 -72 129 -114 170 l-56 54 -56
-54 c-30 -30 -65 -73 -76 -95 -11 -22 -22 -42 -25 -44 -2 -3 -34 25 -71 61
-48 47 -82 70 -119 84 -29 10 -53 22 -53 26 0 5 14 37 31 71 20 40 59 91 110
142 66 68 86 96 128 185 27 58 58 113 68 122 18 17 23 16 96 -10 l76 -27 81
80 c53 52 92 101 112 140 16 33 43 74 59 91 29 30 29 30 9 49 -11 10 -20 23
-20 29 0 6 21 32 47 58 l47 48 -29 30 -28 30 18 62 c16 55 30 74 100 148 l82
85 27 107 c14 59 26 114 26 121 0 8 -19 19 -42 26 -88 27 -92 30 -76 49 8 9
23 58 32 107 26 134 24 130 48 108 20 -18 21 -17 54 21 21 24 44 71 62 126
l30 88 -21 21 c-19 19 -19 22 -5 38 9 10 30 46 47 81 25 49 29 67 21 77 -9 11
0 20 47 44 33 16 65 37 73 46 12 14 15 14 34 -4 12 -10 41 -29 66 -41z"/>
</g>
</svg>
