<?xml version="1.0" standalone="no"?>
<!DOCTYPE svg PUBLIC "-//W3C//DTD SVG 20010904//EN"
 "http://www.w3.org/TR/2001/REC-SVG-20010904/DTD/svg10.dtd">
<svg version="1.0" xmlns="http://www.w3.org/2000/svg"
 width="3000.000000pt" height="4000.000000pt" viewBox="0 0 3000.000000 4000.000000"
 preserveAspectRatio="xMidYMid meet">
<metadata>
Created by potrace 1.16, written by Peter Selinger 2001-2019
</metadata>
<g transform="translate(0.000000,4000.000000) scale(0.100000,-0.100000)"
fill="#000000" stroke="none">
<path d="M1616 22462 c-43 -42 -84 -84 -91 -92 -7 -8 -92 -96 -188 -195 -96
-99 -181 -193 -190 -209 l-15 -30 -15 30 c-8 16 -33 46 -54 67 l-39 37 -23
-30 c-12 -17 -51 -45 -87 -63 l-64 -31 0 -46 c0 -25 6 -57 14 -71 7 -15 22
-51 31 -80 37 -114 60 -146 126 -180 l61 -30 28 26 28 27 56 -18 c31 -10 56
-22 56 -26 0 -5 -9 -27 -21 -50 l-21 -41 80 -81 c44 -44 90 -101 102 -125 l22
-44 -45 -46 c-25 -25 -57 -71 -72 -101 -15 -30 -40 -68 -55 -85 -16 -17 -39
-65 -55 -114 l-27 -83 73 -74 73 -73 -22 -24 c-12 -13 -22 -28 -22 -33 0 -5
29 -38 65 -74 l65 -64 27 26 28 26 41 -46 c23 -26 51 -67 64 -92 12 -25 47
-71 78 -102 48 -49 68 -62 132 -83 71 -24 78 -28 97 -69 l22 -44 -23 -71 c-12
-39 -34 -84 -49 -99 -19 -20 -33 -56 -54 -140 l-27 -112 62 -62 61 -62 136 27
136 27 57 61 c31 34 70 86 85 116 l28 55 -22 24 -22 24 64 67 c35 38 86 80
113 94 l49 26 108 -27 108 -28 27 82 c15 44 39 106 54 136 15 30 39 91 54 136
21 63 36 89 69 122 l43 42 24 -25 24 -25 34 32 c38 37 53 68 77 152 16 58 16
59 -6 82 l-22 24 21 23 c13 14 31 65 50 138 l29 116 -120 32 -120 32 -24 -22
-23 -23 -40 39 c-30 30 -46 58 -66 119 -15 47 -38 94 -54 111 -30 32 -74 157
-106 300 -16 72 -22 85 -67 132 l-50 52 23 105 24 106 -34 35 c-23 24 -56 42
-110 60 -87 29 -105 45 -148 130 -21 42 -61 90 -134 161 -98 97 -107 103 -185
128 l-81 27 -50 -25 -49 -25 -29 30 -29 29 -79 -78z m305 -3 c57 -19 76 -33
167 -123 67 -66 113 -120 132 -156 40 -77 82 -114 165 -140 39 -12 79 -31 91
-42 l21 -19 -26 -104 -25 -105 52 -53 c51 -52 54 -57 87 -183 45 -174 71 -243
100 -274 14 -14 36 -59 50 -100 21 -63 35 -85 87 -137 l62 -63 31 30 30 29 80
-21 c44 -11 81 -21 83 -23 2 -1 -7 -42 -19 -91 -16 -67 -29 -97 -52 -121 l-31
-33 28 -29 28 -29 -24 -73 c-29 -88 -47 -103 -83 -69 l-25 24 -58 -57 c-51
-51 -61 -67 -86 -145 -16 -48 -41 -112 -56 -142 -15 -30 -35 -80 -45 -110 -10
-30 -21 -59 -25 -63 -4 -4 -50 3 -103 16 l-95 24 -59 -33 c-32 -18 -95 -70
-141 -116 l-83 -84 26 -24 c14 -13 25 -30 25 -37 0 -27 -33 -79 -82 -130 l-51
-51 -119 -23 -119 -23 -41 41 -41 42 18 83 c19 92 27 112 60 148 12 14 34 60
48 103 l26 78 -31 63 -31 63 -81 26 c-71 24 -86 33 -127 80 -26 29 -58 75 -72
102 -14 28 -53 77 -86 109 l-61 60 -25 -24 -25 -24 -35 34 -35 34 25 25 25 26
-81 81 -81 82 22 68 c12 38 35 83 50 99 15 17 39 53 53 80 14 28 50 74 80 104
l55 53 -29 61 c-18 40 -53 86 -99 132 -38 39 -70 76 -70 83 0 7 11 34 25 61
l24 49 -42 15 c-23 9 -65 24 -94 33 l-52 18 -25 -23 -26 -24 -41 18 c-45 21
-76 70 -113 185 -28 87 -24 124 16 141 17 7 43 23 59 36 16 14 33 22 39 18 6
-4 29 -43 52 -88 l41 -82 32 70 c29 63 57 96 282 325 l251 255 25 -23 25 -23
48 25 c27 14 52 25 55 26 3 0 34 -10 70 -21z"/>
</g>
</svg>
