<?xml version="1.0" standalone="no"?>
<!DOCTYPE svg PUBLIC "-//W3C//DTD SVG 20010904//EN"
 "http://www.w3.org/TR/2001/REC-SVG-20010904/DTD/svg10.dtd">
<svg version="1.0" xmlns="http://www.w3.org/2000/svg"
 width="3000.000000pt" height="4000.000000pt" viewBox="0 0 3000.000000 4000.000000"
 preserveAspectRatio="xMidYMid meet">
<metadata>
Created by potrace 1.16, written by Peter Selinger 2001-2019
</metadata>
<g transform="translate(0.000000,4000.000000) scale(0.100000,-0.100000)"
fill="#000000" stroke="none">
<path d="M5873 30762 l-53 -26 -24 23 -25 24 -109 -28 c-96 -23 -114 -31 -145
-63 -37 -40 -66 -116 -111 -296 -22 -89 -29 -104 -68 -143 l-43 -43 -65 21
c-55 18 -77 33 -145 100 -72 70 -89 82 -164 109 l-84 31 -23 -22 c-22 -20 -25
-21 -41 -7 -49 43 -141 77 -253 93 -63 9 -125 19 -136 21 -16 4 -23 0 -28 -18
-4 -13 -18 -144 -31 -293 -26 -282 -37 -334 -96 -459 -15 -33 -41 -73 -58 -90
-16 -17 -37 -49 -46 -71 -9 -22 -31 -56 -49 -75 -52 -54 -81 -198 -106 -535
-31 -414 -25 -382 -72 -406 l-39 -20 -81 27 -80 26 -28 -27 -28 -27 -228 26
-228 27 -89 -89 -89 -89 32 -64 c18 -35 39 -72 48 -82 15 -16 11 -22 -50 -85
-36 -37 -64 -73 -61 -79 3 -7 0 -13 -5 -13 -5 0 3 -61 18 -136 38 -187 35
-184 245 -220 111 -19 209 -43 319 -80 150 -50 161 -53 178 -37 21 19 20 19
43 -27 9 -19 39 -58 66 -85 48 -50 49 -52 74 -173 l25 -123 -27 -52 c-14 -29
-38 -88 -53 -133 l-28 -81 66 -67 65 -67 41 40 c23 21 79 58 125 81 l83 41 27
-24 26 -25 164 29 c148 26 167 31 195 58 17 16 54 40 81 54 28 14 61 37 75 52
14 15 50 40 80 55 30 16 75 49 100 75 25 26 70 59 100 75 30 15 66 40 79 54
14 15 55 36 100 51 l77 25 32 66 c18 37 32 68 30 69 -2 1 -23 12 -46 24 -40
20 -43 24 -29 39 8 9 27 40 41 67 15 28 40 69 57 92 29 41 30 44 53 317 26
310 22 299 111 343 28 14 64 38 80 53 23 21 55 34 130 51 78 18 106 30 126 51
19 20 50 33 122 51 l95 24 52 -52 52 -53 75 25 74 25 23 -21 c29 -28 39 -27
78 8 18 15 56 40 83 54 43 21 55 34 79 86 29 59 29 61 11 81 -10 11 -16 22
-14 24 17 15 80 38 169 61 100 26 108 30 161 82 l57 55 27 136 c17 88 37 157
57 195 16 33 28 60 26 62 -2 1 -30 16 -63 33 -42 21 -89 59 -156 129 l-96 98
-23 145 c-16 103 -31 164 -52 210 -43 95 -166 215 -199 194 -6 -3 -33 4 -60
16 l-49 23 -23 -21 -23 -22 -94 96 c-59 60 -116 106 -150 124 -69 36 -149 118
-187 191 l-28 57 -52 -26z m-91 -59 l28 -27 45 22 c25 12 48 22 50 22 3 0 16
-21 29 -47 30 -59 106 -134 166 -163 26 -13 95 -71 162 -138 l118 -116 29 28
29 28 52 -27 c37 -19 55 -23 64 -16 10 8 26 -2 64 -42 78 -83 98 -133 127
-314 l26 -158 107 -108 c59 -60 125 -118 147 -129 22 -11 41 -22 43 -23 2 -2
-6 -22 -18 -44 -11 -23 -32 -99 -46 -169 l-26 -127 -50 -52 c-47 -47 -57 -53
-137 -72 -47 -12 -121 -38 -164 -58 l-77 -37 31 -32 31 -32 -21 -41 c-15 -28
-35 -47 -64 -62 -23 -12 -54 -32 -68 -45 l-25 -24 -23 24 -22 24 -80 -26 -79
-26 -51 50 -51 51 -110 -28 c-81 -20 -117 -34 -138 -54 -20 -19 -55 -34 -126
-51 -73 -19 -107 -33 -129 -54 -16 -15 -52 -39 -80 -53 -27 -14 -64 -40 -81
-59 l-32 -33 -22 -280 c-22 -278 -23 -280 -50 -310 -15 -16 -38 -50 -50 -75
-13 -25 -38 -62 -56 -83 -19 -20 -34 -41 -34 -45 0 -5 23 -19 50 -32 28 -13
50 -25 50 -26 0 -2 -7 -19 -16 -38 -15 -30 -27 -38 -93 -62 -42 -15 -89 -39
-106 -54 -16 -15 -52 -39 -80 -53 -27 -14 -72 -49 -100 -77 -27 -28 -75 -64
-105 -80 -30 -15 -66 -40 -80 -55 -14 -15 -47 -38 -75 -52 -27 -14 -61 -36
-75 -48 -20 -19 -54 -29 -165 -49 l-140 -25 -29 29 -29 29 -111 -56 c-61 -30
-121 -65 -134 -76 l-23 -21 -36 37 -37 36 23 73 c13 40 36 97 51 127 l27 54
-29 140 -28 140 -58 61 c-31 34 -68 85 -81 114 -14 28 -27 52 -31 52 -3 0 -19
-13 -34 -29 l-28 -29 -156 53 c-110 37 -199 59 -299 75 -179 29 -177 27 -209
186 l-24 118 32 35 c18 20 54 59 81 86 l47 51 -31 29 c-32 31 -69 94 -69 117
0 8 29 42 64 77 l64 63 233 -26 233 -26 26 25 26 25 71 -26 70 -26 61 31 c42
21 63 38 66 54 3 12 14 159 26 327 24 358 52 513 100 565 15 17 41 57 58 90
16 33 40 69 52 80 31 28 62 93 98 205 26 82 33 131 52 350 12 140 23 257 25
261 2 3 55 -2 117 -11 124 -18 181 -41 239 -96 l35 -34 28 29 28 29 69 -23
c62 -21 78 -33 143 -102 71 -76 77 -80 163 -107 l89 -29 60 63 c58 61 59 63
90 183 67 262 72 271 197 304 105 27 96 27 129 -4z"/>
</g>
</svg>
