<?xml version="1.0" standalone="no"?>
<!DOCTYPE svg PUBLIC "-//W3C//DTD SVG 20010904//EN"
 "http://www.w3.org/TR/2001/REC-SVG-20010904/DTD/svg10.dtd">
<svg version="1.0" xmlns="http://www.w3.org/2000/svg"
 width="3000.000000pt" height="4000.000000pt" viewBox="0 0 3000.000000 4000.000000"
 preserveAspectRatio="xMidYMid meet">
<metadata>
Created by potrace 1.16, written by Peter Selinger 2001-2019
</metadata>
<g transform="translate(0.000000,4000.000000) scale(0.100000,-0.100000)"
fill="#000000" stroke="none">
<path d="M11924 22395 c-52 -30 -64 -42 -89 -95 l-29 -60 36 -38 c20 -20 44
-56 53 -79 17 -43 13 -66 -32 -190 -3 -7 21 -25 54 -41 32 -17 66 -38 75 -49
17 -18 16 -21 -21 -57 l-39 -38 -157 26 c-87 15 -159 25 -161 24 -1 -2 -16
-56 -32 -120 -29 -114 -29 -117 -11 -134 22 -20 25 -42 6 -50 -8 -3 -38 4 -68
15 -103 37 -95 39 -129 -28 -16 -33 -30 -66 -30 -73 0 -8 40 -53 88 -101 88
-87 88 -88 107 -67 24 27 30 25 45 -10 11 -26 10 -37 -6 -71 -14 -32 -30 -47
-73 -69 -84 -42 -105 -71 -130 -175 -12 -49 -36 -136 -53 -193 l-31 -102 22
-24 c20 -21 20 -24 6 -36 -28 -23 -73 -123 -95 -211 -11 -46 -25 -96 -31 -110
-14 -37 6 -100 42 -135 l29 -28 28 27 28 27 78 -26 78 -26 39 38 39 38 -27 28
c-31 33 -27 39 45 79 l42 23 40 -39 40 -39 -20 -21 c-15 -15 -28 -62 -47 -158
l-27 -136 24 -26 24 -25 -22 -68 c-12 -38 -22 -74 -22 -80 0 -22 45 -82 60
-82 9 0 38 23 65 51 28 28 72 62 99 76 l48 25 29 -28 29 -28 25 24 25 24 48
-46 c28 -28 86 -66 147 -96 55 -28 112 -63 126 -79 15 -15 50 -74 78 -131 43
-85 57 -105 86 -119 41 -19 42 -24 15 -48 -20 -19 -20 -19 15 -55 20 -20 63
-50 96 -65 l59 -29 60 59 c50 50 64 71 82 127 15 46 27 68 37 68 9 0 57 -11
107 -24 l91 -23 27 112 c31 136 31 133 4 162 l-22 23 24 105 23 106 -23 24
c-20 22 -21 27 -10 55 15 35 19 36 68 11 20 -10 74 -31 120 -46 l84 -27 30 28
c16 16 42 54 58 84 15 30 37 63 48 73 19 17 21 16 83 -51 40 -43 88 -82 126
-103 l63 -33 50 49 50 49 48 -47 c27 -27 57 -47 69 -47 12 0 25 -4 28 -10 3
-5 22 -10 41 -10 19 0 80 -7 135 -17 l100 -16 32 31 c23 22 40 55 56 105 13
39 37 103 54 140 l30 68 -30 32 c-33 34 -63 87 -63 110 0 7 11 24 25 37 l25
24 -25 26 -25 26 60 59 60 59 25 -24 25 -24 60 59 c39 39 71 83 90 124 l30 64
-21 23 -22 23 26 30 c27 32 43 83 32 101 -3 6 -21 17 -38 26 -18 9 -56 39 -84
67 -45 43 -57 63 -79 132 -24 74 -32 86 -112 167 l-86 87 -40 -37 c-27 -25
-63 -44 -104 -57 -63 -19 -63 -19 -131 3 -38 12 -75 30 -84 40 -16 17 -14 22
34 75 l51 57 -29 11 c-15 6 -55 20 -88 31 -39 13 -75 35 -102 61 l-43 41 27
28 27 28 -30 31 -30 30 25 154 25 155 -29 30 c-16 17 -56 46 -90 65 l-60 34
-27 -26 c-25 -24 -29 -25 -60 -12 -18 7 -52 31 -76 53 l-43 39 -38 -37 -39
-38 24 -52 c29 -62 29 -67 5 -114 -24 -46 -64 -84 -116 -110 l-40 -20 -40 20
c-22 11 -65 44 -95 74 -46 44 -70 58 -143 84 l-88 31 -57 -32 c-31 -18 -67
-41 -78 -51 -22 -19 -22 -19 -60 1 -22 11 -73 55 -116 98 -63 64 -86 98 -132
191 -31 61 -61 112 -66 112 -5 0 -17 -11 -26 -25 -20 -31 -31 -31 -89 -3 l-45
22 -24 -23 c-23 -22 -28 -23 -56 -11 -24 10 -30 18 -27 32 4 13 -8 32 -40 61
-25 23 -48 43 -52 44 -3 1 -33 -13 -67 -32z m82 -46 c18 -17 21 -26 13 -40
-11 -21 2 -31 84 -70 l47 -23 27 26 26 27 50 -25 c45 -23 50 -24 66 -10 10 9
21 16 24 16 4 0 25 -39 47 -87 52 -112 159 -226 261 -278 l66 -34 29 30 c16
17 50 42 76 55 l46 23 64 -21 c47 -15 77 -34 118 -73 30 -29 82 -67 114 -85
l59 -33 61 33 c81 44 103 64 137 132 35 68 35 77 8 130 -24 46 -13 74 18 46
10 -9 47 -30 82 -48 l64 -32 25 26 25 25 41 -21 c23 -11 50 -29 62 -39 l20
-19 -25 -160 c-24 -153 -24 -160 -7 -179 17 -19 17 -21 -2 -49 l-21 -29 62
-61 c40 -40 78 -67 107 -77 25 -8 51 -18 59 -21 10 -3 1 -18 -32 -52 l-47 -48
37 -36 c27 -25 62 -44 121 -63 l82 -27 83 27 c45 15 91 36 102 46 21 18 22 18
88 -49 56 -57 70 -78 91 -139 28 -84 98 -173 159 -204 20 -11 37 -24 37 -31 0
-6 -16 -31 -36 -55 l-37 -45 26 -26 26 -25 -24 -46 c-13 -25 -42 -64 -64 -85
l-41 -40 -25 24 -26 24 -94 -94 -95 -94 27 -28 27 -28 -23 -24 -22 -24 26 -53
c15 -30 38 -66 52 -80 l25 -27 -25 -48 c-14 -27 -34 -81 -46 -120 -12 -42 -31
-80 -46 -94 l-25 -23 -137 22 -138 23 -60 59 -61 59 -53 -54 -54 -55 -41 21
c-23 11 -80 59 -128 106 l-88 86 -31 -29 c-17 -17 -46 -60 -64 -96 -47 -92
-49 -93 -131 -65 -38 13 -97 37 -131 55 l-63 31 -36 -71 -35 -71 27 -29 28
-29 -25 -104 -26 -104 25 -26 26 -25 -19 -81 c-10 -45 -21 -83 -25 -85 -3 -2
-49 7 -101 20 -51 13 -97 21 -100 17 -4 -4 -18 -43 -33 -87 -20 -60 -36 -90
-68 -122 l-41 -42 -47 24 c-71 36 -79 50 -46 84 l27 28 -61 32 c-59 32 -62 35
-115 140 -29 60 -67 119 -83 133 -16 14 -72 46 -123 73 -64 32 -114 67 -156
108 l-63 61 -25 -24 -25 -23 -24 22 -24 22 -53 -26 c-30 -15 -78 -50 -106 -78
-42 -40 -55 -49 -65 -39 -10 10 -7 29 14 91 l26 80 -24 22 c-29 27 -29 39 -3
170 18 88 26 109 52 137 l31 32 -65 66 -66 66 -59 -30 c-32 -17 -74 -46 -93
-66 l-35 -36 24 -25 c18 -19 21 -27 11 -39 -10 -12 -22 -11 -87 11 l-75 25
-25 -23 c-25 -24 -26 -24 -40 -5 -19 26 -18 34 11 154 29 119 53 173 103 224
l36 38 -29 30 -28 30 31 102 c17 57 39 135 48 173 20 82 39 107 114 145 49 25
59 35 85 89 l29 61 -34 70 c-19 39 -36 70 -39 70 -3 0 -15 -12 -27 -27 l-23
-28 -64 64 c-62 60 -65 65 -55 93 6 16 17 32 24 35 7 3 43 -5 80 -17 l66 -22
39 38 39 38 -29 31 -28 30 22 85 c25 99 3 92 199 59 l120 -20 65 65 65 65 -29
32 c-17 17 -51 42 -77 55 -27 13 -48 30 -48 36 0 6 10 41 21 78 l22 66 -28 54
c-15 30 -36 65 -48 77 -20 22 -20 23 -2 64 12 26 31 47 54 59 45 24 41 24 67
-1z"/>
</g>
</svg>
