<?xml version="1.0" standalone="no"?>
<!DOCTYPE svg PUBLIC "-//W3C//DTD SVG 20010904//EN"
 "http://www.w3.org/TR/2001/REC-SVG-20010904/DTD/svg10.dtd">
<svg version="1.0" xmlns="http://www.w3.org/2000/svg"
 width="3000.000000pt" height="4000.000000pt" viewBox="0 0 3000.000000 4000.000000"
 preserveAspectRatio="xMidYMid meet">
<metadata>
Created by potrace 1.16, written by Peter Selinger 2001-2019
</metadata>
<g transform="translate(0.000000,4000.000000) scale(0.100000,-0.100000)"
fill="#000000" stroke="none">
<path d="M5612 17787 c-67 -67 -122 -130 -122 -139 0 -11 21 -28 58 -47 72
-37 141 -108 180 -186 16 -33 40 -69 52 -80 13 -11 31 -40 42 -65 11 -25 35
-62 55 -82 l36 -37 53 27 c53 26 54 26 69 7 9 -11 27 -42 41 -70 14 -27 58
-83 97 -122 l71 -72 -24 -26 -23 -25 21 -23 c27 -28 27 -35 3 -61 -10 -12 -29
-64 -41 -116 -12 -52 -36 -124 -51 -158 l-29 -64 19 -26 c11 -15 48 -55 83
-89 62 -61 65 -62 168 -88 82 -21 112 -33 136 -56 30 -29 30 -29 49 -9 10 11
23 20 29 20 6 0 48 -37 93 -82 l83 -82 -30 -31 -30 -31 52 -25 c29 -13 85 -53
123 -89 39 -36 89 -74 112 -84 39 -17 44 -24 66 -90 l24 -71 -27 -80 c-14 -44
-39 -104 -54 -133 -14 -29 -25 -56 -22 -61 3 -4 23 -16 45 -26 l40 -18 -68
-75 -68 -76 28 -60 c18 -39 54 -85 99 -131 l71 -71 -25 -23 -25 -24 35 -68
c18 -38 34 -79 34 -93 0 -45 52 -125 147 -225 l94 -100 -25 -49 -25 -49 26
-26 26 -26 -25 -58 c-18 -41 -32 -107 -48 -227 -21 -152 -26 -172 -50 -200
-43 -49 -71 -113 -101 -228 -20 -82 -34 -116 -57 -142 -17 -19 -33 -48 -37
-64 -3 -17 -15 -38 -26 -48 -23 -21 -23 -27 -3 -69 9 -19 28 -38 46 -46 17 -7
44 -24 60 -37 l29 -25 -52 -53 -53 -54 27 -28 27 -28 -25 -24 -25 -24 57 -58
c32 -33 83 -73 113 -89 30 -17 70 -45 87 -62 l33 -31 23 23 24 22 13 -33 c7
-18 29 -50 49 -70 57 -61 119 -50 160 29 17 33 13 64 -11 90 l-22 24 71 72
c92 93 117 147 152 315 39 193 50 211 162 267 l90 46 31 -26 c17 -14 53 -38
81 -51 l50 -26 40 41 41 40 -24 26 -24 25 64 65 63 64 50 -25 50 -26 50 49
c71 68 79 77 104 104 l22 25 -28 89 c-27 83 -31 90 -70 109 l-41 21 22 23 22
22 -29 30 -29 30 18 75 c10 41 21 75 25 75 4 0 25 -18 46 -40 21 -22 42 -40
45 -40 4 0 17 23 31 52 34 73 63 105 128 138 34 17 88 61 139 112 l82 84 14
79 c14 77 13 81 -9 125 -28 55 -55 80 -121 113 -62 31 -74 56 -74 150 l0 72
125 125 125 124 -27 28 -27 28 77 78 76 77 -49 53 c-27 28 -53 52 -57 52 -4 0
-24 -17 -45 -37 l-38 -37 -50 24 -51 24 -44 -44 c-25 -24 -46 -42 -49 -39 -2
2 -14 26 -28 52 l-24 48 -29 -31 -29 -30 -26 25 -26 25 -24 -25 -24 -25 -53
52 -53 52 -29 -28 -29 -28 -38 20 c-51 27 -99 77 -119 127 -9 22 -28 52 -42
67 l-25 27 26 77 c14 42 23 80 21 84 -3 5 -57 21 -120 36 l-116 28 -86 -86
-87 -87 25 -53 c13 -28 34 -67 46 -84 l21 -32 -34 -33 -34 -33 -103 101 c-59
59 -123 112 -152 126 -27 14 -69 48 -92 75 -35 41 -46 65 -67 147 -15 58 -33
106 -46 120 l-21 22 28 24 c16 13 47 32 70 42 32 15 45 30 64 70 13 28 40 70
59 92 19 22 46 64 59 93 l25 52 -39 40 -39 40 -23 -22 c-13 -12 -25 -20 -27
-17 -20 20 -92 204 -112 285 -24 94 -29 105 -74 149 l-48 47 25 75 25 74 -26
82 c-25 81 -27 84 -158 220 l-133 137 -136 28 -136 29 -55 -28 c-31 -15 -102
-40 -159 -54 -78 -20 -112 -33 -134 -55 -16 -15 -50 -38 -75 -51 -49 -24 -221
-71 -230 -63 -3 3 -16 37 -30 75 -22 59 -37 81 -112 158 -69 69 -93 87 -110
84 -18 -3 -37 10 -83 56 -33 34 -62 61 -65 61 -3 -1 -60 -56 -128 -123z m265
-53 c14 4 38 -14 100 -77 73 -74 83 -89 104 -156 13 -40 29 -75 35 -78 19 -7
213 46 268 74 28 14 65 37 81 52 21 20 60 36 134 55 57 15 125 38 150 51 l47
23 119 -24 120 -24 126 -126 c123 -122 127 -128 149 -200 l24 -75 -26 -80 -26
-80 55 -59 c52 -57 57 -66 83 -168 17 -68 46 -145 80 -212 29 -58 54 -107 56
-109 2 -3 17 7 32 22 21 20 31 24 39 16 14 -14 -22 -93 -57 -124 -12 -11 -35
-45 -50 -75 -24 -47 -36 -59 -79 -79 -27 -13 -65 -39 -82 -57 l-33 -34 31 -32
c25 -26 37 -54 58 -138 25 -99 29 -108 78 -158 29 -30 75 -65 102 -79 31 -15
95 -69 165 -139 l115 -114 68 68 67 68 -31 29 c-17 17 -41 51 -54 76 l-24 46
69 68 68 68 74 -18 c40 -10 77 -21 81 -25 5 -4 -1 -40 -14 -79 l-23 -71 31
-32 c17 -18 42 -55 56 -83 32 -63 66 -95 143 -133 l61 -31 21 22 22 21 50 -49
50 -49 23 22 c29 27 35 27 64 0 22 -21 23 -21 43 -3 23 21 21 23 50 -34 l22
-44 58 58 57 57 53 -27 53 -27 36 36 c36 35 38 36 54 18 9 -10 17 -23 17 -28
0 -4 -32 -41 -72 -81 l-72 -72 24 -26 24 -25 -122 -124 -122 -123 0 -69 c0
-93 34 -161 99 -195 64 -34 99 -65 122 -111 19 -38 20 -41 3 -91 -21 -66 -142
-194 -226 -239 -58 -31 -90 -64 -122 -127 l-18 -34 -54 54 c-37 37 -55 48 -58
38 -14 -40 -56 -221 -56 -242 0 -17 7 -26 22 -30 22 -6 22 -7 -10 -40 l-32
-33 63 -31 c61 -30 62 -31 84 -98 l22 -67 -62 -64 c-34 -35 -67 -64 -74 -64
-7 0 -33 10 -58 22 l-45 22 -46 -44 c-25 -25 -64 -67 -86 -93 l-41 -48 24 -25
c17 -18 20 -27 11 -36 -16 -16 -81 14 -123 58 l-32 33 -116 -58 c-113 -57
-117 -60 -143 -113 -14 -31 -38 -113 -53 -189 -15 -74 -38 -156 -52 -184 -14
-27 -61 -87 -106 -132 -75 -77 -80 -83 -65 -100 22 -25 32 -81 18 -98 -10 -12
-18 -12 -51 6 -31 15 -46 33 -71 84 l-32 65 -31 -30 -31 -30 -20 21 c-10 12
-41 32 -69 46 -51 25 -125 89 -125 107 0 5 10 20 22 33 l21 23 -23 25 -24 25
47 48 c26 26 47 52 47 58 0 17 -62 70 -107 93 -24 12 -43 22 -43 24 1 31 46
138 68 161 23 24 34 53 52 131 25 110 57 184 100 230 27 28 31 43 55 213 21
150 30 193 54 241 l30 58 -27 26 -26 27 26 53 26 54 -107 107 c-101 101 -109
111 -130 179 -13 40 -35 94 -48 121 l-25 48 28 29 28 29 -85 87 c-47 49 -93
107 -104 131 l-19 43 83 83 82 82 -51 24 c-28 13 -53 27 -56 32 -3 4 5 27 17
50 25 48 69 174 69 196 0 8 -11 51 -25 97 -24 79 -27 83 -68 101 -23 10 -73
48 -112 84 -38 36 -85 72 -103 79 l-33 14 23 24 22 24 -119 119 -119 120 -26
-25 -26 -25 -20 21 c-13 12 -59 30 -120 45 -98 25 -99 26 -171 96 l-72 71 21
41 c12 23 34 90 49 150 22 86 34 115 58 140 l31 32 -25 24 -25 24 25 26 25 26
-90 97 c-50 52 -99 115 -110 139 -10 24 -35 58 -54 77 l-35 34 -46 -28 c-45
-26 -47 -26 -67 -8 -11 10 -33 43 -48 73 -15 30 -38 64 -50 75 -12 11 -35 45
-50 75 -25 50 -155 190 -177 190 -4 0 -15 5 -23 10 -12 8 3 28 80 105 l95 95
61 -61 c46 -45 67 -60 81 -55z"/>
</g>
</svg>
