<?xml version="1.0" standalone="no"?>
<!DOCTYPE svg PUBLIC "-//W3C//DTD SVG 20010904//EN"
 "http://www.w3.org/TR/2001/REC-SVG-20010904/DTD/svg10.dtd">
<svg version="1.0" xmlns="http://www.w3.org/2000/svg"
 width="3000.000000pt" height="4000.000000pt" viewBox="0 0 3000.000000 4000.000000"
 preserveAspectRatio="xMidYMid meet">
<metadata>
Created by potrace 1.16, written by Peter Selinger 2001-2019
</metadata>
<g transform="translate(0.000000,4000.000000) scale(0.100000,-0.100000)"
fill="#000000" stroke="none">
<path d="M17335 35403 c-32 -16 -99 -74 -185 -159 -129 -128 -138 -135 -209
-159 -41 -14 -85 -35 -98 -47 l-23 -21 -50 23 -51 24 -42 -21 c-23 -11 -60
-36 -83 -54 -39 -33 -47 -35 -208 -58 l-168 -24 -59 29 -59 28 -28 -27 -28
-27 -73 25 -73 24 -56 -28 c-55 -28 -256 -184 -334 -259 -28 -27 -44 -56 -64
-116 -17 -52 -38 -93 -57 -114 l-31 -32 40 -40 40 -40 56 50 c31 28 59 46 62
41 7 -11 -3 -41 -14 -41 -4 0 -13 -13 -20 -29 -10 -26 -8 -36 23 -98 30 -59
42 -72 79 -89 63 -28 100 -65 132 -131 l28 -60 89 -28 90 -29 74 74 c54 54 78
71 86 63 8 -8 3 -25 -16 -63 l-27 -52 26 -27 25 -26 -21 -45 c-11 -25 -33
-119 -49 -210 l-28 -165 45 -46 45 -46 -20 -35 -21 -34 33 -31 c17 -17 55 -42
82 -56 28 -14 59 -35 70 -47 11 -12 43 -33 70 -47 28 -14 67 -41 88 -61 l37
-36 54 26 53 26 46 -46 c25 -26 59 -74 75 -107 19 -37 58 -87 104 -132 l73
-73 124 -25 c69 -14 127 -28 130 -31 3 -3 17 -26 31 -52 18 -34 38 -54 72 -73
27 -14 60 -37 75 -51 16 -14 51 -37 78 -51 28 -14 66 -41 85 -61 l34 -36 53
52 53 52 50 -49 50 -49 36 34 c20 19 49 61 65 93 l30 58 -25 32 -25 33 21 66
c19 60 26 68 60 84 24 11 61 17 96 16 67 -1 246 -40 348 -75 l72 -25 38 39
c21 21 42 39 46 39 4 0 16 -27 25 -60 l18 -60 80 -26 c48 -16 94 -39 115 -58
22 -19 65 -40 114 -56 l79 -24 48 26 48 27 71 -24 c44 -15 79 -34 91 -49 13
-17 48 -34 105 -53 76 -25 91 -34 141 -86 l56 -59 88 88 c82 84 96 93 237 163
149 74 150 75 174 125 39 87 109 151 228 211 127 64 160 97 190 190 12 39 33
81 46 96 45 48 24 93 -64 138 -31 16 -66 38 -76 50 -19 21 -19 22 1 44 12 13
31 67 47 131 l27 110 -25 24 -25 25 24 46 c13 25 37 59 54 76 l32 29 -133 133
-132 133 25 78 26 78 -166 173 -166 173 -33 -34 c-22 -24 -54 -41 -105 -57
-39 -13 -84 -35 -100 -49 l-27 -26 -105 25 -104 26 -48 -49 -47 -48 -25 25
-25 25 -106 -56 c-59 -32 -126 -76 -152 -102 -44 -42 -49 -44 -65 -30 -10 9
-38 26 -63 38 -24 13 -72 49 -105 80 -33 32 -88 71 -121 88 -61 31 -62 31 -79
12 -22 -24 -38 -25 -56 -4 -7 9 -38 29 -70 44 -41 21 -84 58 -155 135 -54 58
-103 105 -108 105 -6 0 -22 -12 -37 -26 l-27 -26 -89 22 c-86 22 -90 25 -164
97 l-76 74 -23 127 -24 127 -63 67 c-35 37 -63 73 -63 81 0 30 -61 107 -112
140 -73 48 -94 50 -153 20z m163 -87 c13 -11 35 -43 49 -71 14 -27 49 -75 79
-105 l54 -56 26 -131 26 -131 82 -85 81 -85 112 -28 113 -28 23 22 23 22 94
-96 c60 -60 116 -106 150 -124 30 -15 68 -42 84 -59 l30 -31 27 26 c26 25 30
26 61 13 18 -7 62 -41 98 -75 36 -34 88 -73 115 -87 28 -14 63 -39 80 -56 l29
-31 61 59 c42 41 88 73 154 106 l93 46 30 -28 29 -28 50 53 c28 28 56 52 62
52 7 0 54 -10 104 -22 l93 -22 28 27 c15 15 61 38 102 52 41 14 84 35 97 47
l24 22 141 -141 142 -142 -24 -81 -23 -82 123 -123 c116 -116 123 -125 108
-142 -9 -10 -30 -47 -48 -82 l-31 -63 25 -27 26 -28 -21 -94 c-18 -78 -27
-100 -55 -129 l-34 -36 37 -36 c21 -20 61 -47 89 -61 72 -36 80 -49 56 -84
-11 -15 -30 -59 -42 -98 -13 -38 -32 -81 -44 -94 -11 -12 -68 -47 -126 -76
-83 -42 -117 -66 -165 -116 -33 -35 -68 -82 -78 -104 -16 -37 -29 -46 -170
-119 -128 -66 -164 -90 -224 -150 l-73 -70 -47 45 c-35 34 -69 54 -123 73 -41
15 -87 38 -101 52 -14 13 -63 37 -110 53 l-84 28 -53 -26 -53 -26 -67 24 c-37
13 -80 35 -95 50 -15 14 -60 37 -100 51 l-72 25 -29 85 c-16 47 -31 87 -33 89
-2 3 -30 -21 -62 -53 l-59 -58 -78 25 c-105 34 -274 67 -343 67 -42 0 -68 -7
-105 -28 -48 -26 -51 -30 -79 -115 l-29 -88 21 -23 c12 -12 21 -28 21 -35 0
-16 -28 -71 -48 -94 -15 -17 -19 -15 -69 35 l-53 52 -53 -52 c-48 -48 -55 -51
-67 -37 -8 9 -39 29 -69 45 -31 15 -69 41 -84 58 -15 16 -49 39 -76 51 -39 19
-52 32 -74 76 l-26 53 -73 16 c-40 8 -98 21 -128 27 -49 10 -64 19 -128 82
-42 41 -86 96 -102 127 -16 30 -56 82 -89 114 l-60 60 -51 -24 -50 -23 -23 20
c-12 12 -44 32 -72 46 -27 14 -61 37 -75 52 -14 15 -50 40 -81 55 -77 39 -85
51 -54 80 l25 24 -56 57 -56 57 25 149 c17 103 33 166 51 201 32 62 32 69 4
99 l-21 23 23 50 24 50 -39 40 -39 40 -81 -80 -80 -80 -67 22 c-61 20 -68 25
-85 62 -26 58 -79 113 -135 142 -37 19 -54 35 -70 69 l-22 45 26 54 27 53 -40
39 -39 38 -49 -48 c-29 -29 -54 -45 -61 -41 -8 5 -6 13 8 29 11 11 32 58 47
104 l27 83 151 123 c84 68 172 133 196 145 l43 22 79 -27 79 -27 25 23 25 23
48 -22 49 -23 184 27 c174 26 186 29 219 59 19 17 53 39 76 49 l41 19 53 -27
52 -27 32 31 c19 19 61 41 106 56 72 24 81 31 210 159 74 74 153 143 175 154
40 20 40 20 80 0 22 -11 51 -30 63 -42z"/>
</g>
</svg>
