<?xml version="1.0" standalone="no"?>
<!DOCTYPE svg PUBLIC "-//W3C//DTD SVG 20010904//EN"
 "http://www.w3.org/TR/2001/REC-SVG-20010904/DTD/svg10.dtd">
<svg version="1.0" xmlns="http://www.w3.org/2000/svg"
 width="3000.000000pt" height="4000.000000pt" viewBox="0 0 3000.000000 4000.000000"
 preserveAspectRatio="xMidYMid meet">
<metadata>
Created by potrace 1.16, written by Peter Selinger 2001-2019
</metadata>
<g transform="translate(0.000000,4000.000000) scale(0.100000,-0.100000)"
fill="#000000" stroke="none">
<path d="M3620 16030 c-6 -11 -39 -34 -73 -51 -36 -18 -80 -51 -104 -78 l-41
-46 -29 27 -29 28 -35 -36 c-50 -52 -208 -128 -330 -159 -98 -25 -107 -29
-156 -77 l-52 -51 -133 26 c-73 14 -189 35 -258 47 -69 11 -138 27 -155 35
-16 8 -47 13 -68 13 -31 -2 -39 -6 -44 -27 -7 -31 -34 -69 -86 -125 -49 -53
-64 -81 -72 -136 -6 -44 -5 -46 42 -92 39 -39 65 -53 138 -78 75 -25 90 -28
97 -16 7 13 14 13 50 0 41 -14 42 -14 64 13 l22 28 46 -25 c26 -14 68 -47 94
-75 39 -40 53 -65 72 -127 19 -64 31 -85 71 -124 l48 -47 -25 -49 -24 -48 31
-62 c19 -39 60 -93 108 -143 68 -70 80 -88 97 -145 15 -54 31 -79 92 -148 l74
-83 -23 -25 -23 -24 62 -63 c62 -62 64 -64 160 -87 53 -12 125 -37 159 -54
l63 -30 40 39 40 39 -27 28 c-26 27 -27 30 -14 75 15 59 16 60 41 38 20 -18
22 -18 73 33 l53 52 66 -68 c72 -73 113 -146 147 -257 l21 -70 66 -35 66 -35
26 31 c15 17 47 41 71 54 l44 22 53 -53 54 -53 25 24 25 23 24 -22 25 -23 76
27 77 28 56 -27 55 -27 120 119 119 119 -53 50 c-62 60 -60 67 30 113 31 16
83 56 115 89 l60 61 -24 25 -24 25 48 49 48 48 -55 109 c-30 60 -60 132 -67
159 -10 42 -21 57 -66 92 -29 23 -112 72 -185 108 l-131 66 23 25 23 25 -77
77 -77 78 44 43 c44 43 44 44 72 187 l28 143 -22 24 -22 23 22 22 22 22 -21
29 -22 28 30 29 30 28 -73 37 -73 37 -49 -25 -49 -25 -78 78 -78 78 -42 -22
c-22 -12 -46 -22 -52 -22 -6 0 -32 20 -57 45 l-46 45 -164 25 c-204 31 -226
31 -240 5z m223 -50 c77 -11 143 -20 147 -20 4 0 33 -26 63 -57 l56 -58 54 27
54 26 78 -78 78 -79 50 29 c48 27 51 28 83 12 l34 -16 -22 -23 -21 -23 21 -23
c27 -29 27 -35 0 -64 l-22 -23 29 -30 29 -30 -23 -119 c-23 -118 -23 -119 -72
-167 -35 -35 -46 -51 -38 -60 7 -8 6 -14 -2 -19 -7 -5 13 -32 57 -76 l68 -69
-28 -29 -28 -30 168 -85 c174 -88 239 -136 250 -183 3 -16 29 -76 57 -136 l51
-108 -54 -54 -54 -55 27 -28 27 -28 -43 -41 c-23 -23 -64 -52 -92 -66 -27 -14
-65 -41 -84 -60 l-34 -36 47 -53 c25 -29 46 -55 46 -58 0 -3 -38 -43 -85 -90
l-84 -84 -50 23 -49 23 -75 -25 -75 -25 -28 29 -28 29 -28 -26 -27 -27 -46 51
-46 52 -62 -31 c-34 -17 -72 -40 -84 -52 -22 -20 -24 -20 -62 -2 -36 16 -42
24 -62 84 -46 137 -73 184 -164 280 l-88 92 -53 -52 -54 -53 -30 29 c-22 21
-31 25 -35 14 -3 -8 -18 -53 -34 -101 -29 -85 -29 -87 -10 -104 20 -18 25 -39
10 -49 -5 -3 -26 4 -46 16 -19 12 -86 34 -147 50 -100 25 -116 32 -152 68
l-41 41 28 27 27 28 -84 85 c-77 79 -86 91 -110 165 -24 74 -32 87 -102 155
-41 41 -86 96 -100 122 l-24 47 27 56 27 55 -56 58 c-45 46 -60 71 -78 127
-31 94 -100 174 -191 220 l-66 34 -26 -27 -27 -26 -67 22 c-57 18 -69 19 -75
7 -12 -21 -84 7 -130 52 l-36 35 18 41 c10 22 24 47 32 56 7 9 27 38 43 65 39
64 76 100 86 85 4 -7 17 -9 32 -6 25 7 216 -23 440 -69 l129 -27 56 55 c54 53
62 57 152 78 97 23 312 121 340 154 12 15 15 15 39 -9 l27 -25 54 56 c30 31
80 68 110 84 30 15 66 40 79 54 16 17 31 24 45 21 12 -3 83 -14 159 -25z"/>
</g>
</svg>
