<?xml version="1.0" standalone="no"?>
<!DOCTYPE svg PUBLIC "-//W3C//DTD SVG 20010904//EN"
 "http://www.w3.org/TR/2001/REC-SVG-20010904/DTD/svg10.dtd">
<svg version="1.0" xmlns="http://www.w3.org/2000/svg"
 width="3000.000000pt" height="4000.000000pt" viewBox="0 0 3000.000000 4000.000000"
 preserveAspectRatio="xMidYMid meet">
<metadata>
Created by potrace 1.16, written by Peter Selinger 2001-2019
</metadata>
<g transform="translate(0.000000,4000.000000) scale(0.100000,-0.100000)"
fill="#000000" stroke="none">
<path d="M23251 24046 c-60 -61 -112 -84 -306 -134 -111 -29 -213 -73 -228
-98 -13 -23 -29 -16 -77 30 -34 33 -64 50 -124 70 l-79 26 -106 -27 c-63 -15
-115 -34 -129 -46 l-22 -21 -29 28 -30 28 -36 -72 -36 -72 22 -24 23 -24 -46
-48 c-31 -32 -62 -83 -98 -160 l-53 -112 21 -23 22 -23 -40 -39 -40 -39 -75
24 -75 24 -28 -27 c-23 -22 -52 -33 -147 -53 l-118 -25 -31 31 -32 30 -30 -30
-29 -30 -118 25 c-120 25 -138 25 -172 -6 -20 -17 -24 -17 -115 6 -78 20 -100
30 -123 56 l-29 31 -52 -51 c-60 -59 -62 -59 -109 34 -32 63 -125 153 -198
192 l-56 30 -35 -32 c-27 -25 -55 -37 -129 -55 -87 -21 -98 -26 -146 -73 l-52
-51 -57 18 c-30 10 -57 16 -58 14 -34 -52 -36 -58 -24 -83 10 -22 8 -29 -15
-53 l-27 -28 25 -24 25 -24 -27 -28 -27 -28 31 -33 31 -32 -25 -128 -26 -128
21 -22 22 -23 -48 -45 c-26 -25 -59 -53 -74 -62 -16 -10 -28 -24 -28 -33 0
-24 50 -116 80 -149 21 -22 35 -56 53 -127 l24 -97 -33 -32 -34 -33 47 -24
c62 -31 60 -28 35 -55 l-22 -23 25 -24 25 -24 -25 -26 -25 -26 25 -24 c14 -13
25 -30 25 -37 0 -24 -37 -87 -69 -117 l-31 -30 42 -43 42 -43 36 34 c41 40
108 74 205 106 39 13 92 34 119 47 l49 25 40 -40 40 -40 -26 -77 -26 -77 25
-51 26 -51 -26 -54 -27 -55 29 -31 c17 -17 42 -56 57 -86 15 -30 38 -66 51
-80 13 -14 35 -59 49 -100 22 -65 35 -84 97 -147 l72 -73 -27 -28 -27 -28 143
-141 c152 -151 193 -178 334 -224 l72 -23 53 25 c29 13 67 36 84 51 l31 27 97
-26 98 -25 34 33 c23 22 41 56 59 109 25 75 27 78 75 100 27 13 60 34 72 48
13 13 44 35 71 48 l47 24 50 -25 50 -25 217 109 c183 92 226 117 268 161 28
28 67 61 89 72 l39 20 25 -25 24 -25 86 29 c125 42 144 64 178 206 l28 113
-37 37 -36 37 -26 -24 -26 -24 -37 37 -37 37 27 27 28 27 -72 38 -72 38 -22
-21 c-13 -12 -28 -18 -34 -14 -8 5 5 25 39 59 51 52 52 52 31 71 -22 20 -26
40 -10 50 5 3 42 -4 81 -17 63 -20 78 -30 122 -81 l51 -58 55 55 56 56 95 -50
c72 -37 112 -66 165 -119 l70 -71 -53 -106 c-29 -59 -52 -108 -50 -109 2 -1
32 -17 66 -34 59 -30 65 -31 81 -17 24 22 28 20 46 -15 15 -29 15 -35 -9 -107
-14 -42 -26 -80 -26 -84 0 -3 38 -20 84 -37 46 -16 156 -66 245 -110 88 -45
163 -81 166 -81 13 0 59 114 85 211 27 102 33 115 83 172 63 72 93 129 132
247 15 47 50 129 76 182 50 99 92 220 128 363 30 121 127 619 156 795 l24 155
-54 55 c-51 52 -55 60 -75 150 -12 52 -30 107 -41 122 -24 34 -24 41 1 63 20
18 20 18 -7 47 l-27 28 26 79 26 79 -37 35 c-50 48 -121 82 -235 111 -92 23
-101 27 -159 83 -34 32 -81 67 -103 77 -32 14 -47 28 -60 59 -32 70 -61 97
-103 97 -30 0 -44 -8 -74 -38 l-37 -38 -118 24 c-97 20 -122 29 -147 53 -17
16 -33 29 -36 29 -2 0 -29 -24 -58 -54z m243 -76 l135 -27 47 48 c56 57 61 55
105 -33 23 -45 38 -62 72 -79 23 -11 69 -47 102 -80 58 -56 64 -59 170 -87
112 -29 201 -68 224 -96 11 -13 10 -29 -10 -96 l-23 -81 22 -21 22 -22 -27
-28 -27 -28 33 -34 c26 -27 37 -53 57 -132 21 -83 31 -106 63 -139 67 -72 64
-57 36 -226 -33 -200 -120 -636 -151 -764 -38 -155 -72 -251 -129 -365 -29
-58 -65 -143 -80 -190 -39 -120 -60 -157 -124 -225 -54 -57 -58 -65 -75 -145
-15 -71 -61 -200 -72 -200 -1 0 -67 33 -146 74 -79 41 -173 84 -210 95 l-66
22 23 70 24 69 -31 67 c-16 38 -32 70 -34 72 -2 3 -18 -8 -34 -24 -30 -29 -30
-29 -65 -12 l-35 17 51 101 51 102 -86 86 c-75 76 -101 94 -196 141 l-110 54
-50 -49 -50 -49 -48 47 c-36 36 -65 52 -121 72 -41 14 -82 25 -92 25 -9 0 -31
-16 -49 -36 l-32 -37 26 -26 26 -25 -52 -53 -53 -53 42 -42 43 -42 28 27 c26
25 32 27 56 16 31 -15 32 -20 6 -44 -21 -19 -20 -19 47 -87 l67 -68 27 26 c23
22 27 23 39 9 17 -20 -24 -190 -53 -222 -11 -13 -51 -33 -89 -45 l-68 -22 -27
26 -26 27 -61 -31 c-34 -17 -88 -56 -121 -87 -49 -47 -96 -76 -250 -153 l-190
-96 -52 26 -52 26 -53 -25 c-29 -13 -73 -42 -98 -64 -25 -22 -63 -48 -86 -58
-38 -17 -42 -23 -67 -101 -15 -46 -36 -91 -47 -101 -18 -17 -24 -16 -121 9
l-102 26 -41 -38 c-23 -21 -56 -44 -75 -51 -30 -13 -40 -12 -105 9 -131 42
-172 70 -293 198 l-112 119 25 24 25 23 -85 86 c-78 79 -86 91 -110 166 -16
49 -37 91 -52 105 -14 13 -39 49 -54 80 -16 30 -35 61 -44 68 -21 18 -20 32 5
84 l21 43 -26 52 -26 51 26 82 26 82 -63 63 -62 63 -66 -33 c-36 -18 -91 -41
-121 -51 -62 -19 -186 -79 -213 -103 -26 -23 -32 -7 -9 25 11 15 32 52 46 82
l27 53 -22 24 -22 24 21 23 c27 29 27 35 0 64 l-22 23 27 28 28 29 -41 18
c-50 23 -56 31 -36 53 14 16 12 28 -14 131 -20 80 -36 121 -53 140 -14 14 -35
46 -47 70 l-21 43 75 78 c42 43 76 81 76 86 0 4 -12 20 -26 35 l-26 28 24 128
25 128 -20 23 -20 22 23 25 23 25 -21 23 c-27 29 -27 39 -2 62 18 16 18 19 4
47 -9 16 -14 32 -12 34 2 2 28 -4 56 -13 l52 -17 54 53 c50 50 59 54 162 82
62 16 117 37 128 48 19 20 20 20 65 -4 60 -31 122 -96 156 -165 15 -30 43 -72
63 -93 l36 -37 52 51 52 51 28 -20 c16 -11 76 -32 133 -47 l104 -26 27 26 28
27 128 -26 c128 -26 128 -26 148 -6 20 20 20 20 41 0 21 -20 22 -20 156 6 109
22 139 32 162 53 l28 26 77 -27 77 -27 65 64 64 64 -28 30 -27 29 46 93 c33
66 65 112 106 155 l60 60 -26 24 c-28 26 -31 47 -12 74 12 16 14 16 32 -4 l19
-20 31 30 c24 24 55 37 130 57 l98 26 71 -23 c57 -18 82 -33 131 -81 l61 -59
30 31 c39 42 123 82 214 104 41 10 122 33 180 51 91 29 111 39 150 79 l44 45
22 -21 c17 -16 61 -29 158 -49z"/>
</g>
</svg>
