<?xml version="1.0" standalone="no"?>
<!DOCTYPE svg PUBLIC "-//W3C//DTD SVG 20010904//EN"
 "http://www.w3.org/TR/2001/REC-SVG-20010904/DTD/svg10.dtd">
<svg version="1.0" xmlns="http://www.w3.org/2000/svg"
 width="3000.000000pt" height="4000.000000pt" viewBox="0 0 3000.000000 4000.000000"
 preserveAspectRatio="xMidYMid meet">
<metadata>
Created by potrace 1.16, written by Peter Selinger 2001-2019
</metadata>
<g transform="translate(0.000000,4000.000000) scale(0.100000,-0.100000)"
fill="#000000" stroke="none">
<path d="M7236 38711 c-59 -33 -119 -69 -132 -82 -18 -19 -44 -108 -127 -424
l-105 -400 28 -300 c39 -411 59 -503 158 -735 44 -102 129 -275 189 -385 61
-110 141 -260 177 -334 l67 -133 100 -817 c55 -449 102 -826 104 -837 5 -23
271 -352 310 -382 13 -10 54 -28 92 -39 37 -11 151 -46 253 -76 146 -44 226
-61 377 -83 l192 -27 53 28 c44 23 82 32 233 51 99 13 196 23 215 24 51 1 73
31 99 135 22 89 23 91 104 175 50 51 92 105 106 136 l23 51 -26 52 -27 52 31
56 c16 31 30 70 30 85 0 16 10 52 21 79 l22 50 -23 24 c-23 25 -23 26 -6 61
29 62 155 192 216 224 30 15 70 44 89 64 l35 36 -24 25 -24 25 27 28 27 28
-25 24 -25 24 25 26 25 26 -95 94 -95 94 -29 -28 -29 -28 -89 22 c-104 27
-136 52 -178 140 l-29 60 -32 -31 -32 -31 -38 20 c-22 11 -47 29 -58 41 -17
18 -17 24 -5 52 7 18 29 51 49 74 20 23 42 56 49 73 16 37 22 39 46 12 18 -20
19 -20 48 7 16 16 44 57 62 93 19 37 58 89 89 120 l56 54 -25 26 -25 26 25 24
25 24 -54 55 -55 56 24 80 25 79 -22 23 -22 23 28 28 27 29 -43 39 c-24 22
-58 46 -76 53 l-33 14 23 24 22 24 -82 82 c-69 70 -89 98 -135 192 l-54 110
-99 25 c-54 14 -105 24 -113 23 -10 -1 -10 2 2 14 14 14 13 21 -10 68 l-26 53
24 29 c13 16 35 52 48 81 l25 53 -22 68 c-27 83 -27 92 -3 140 31 60 71 229
57 240 -6 5 -40 17 -76 26 -36 9 -112 31 -170 49 -58 18 -139 42 -180 52 -53
12 -84 26 -108 48 l-32 30 -54 -27 -55 -26 -76 25 -76 26 -100 -26 -101 -27
-67 22 c-36 12 -92 35 -124 51 -55 27 -62 36 -157 181 -74 112 -107 173 -127
233 l-26 82 -188 81 c-103 45 -191 81 -195 81 -5 -1 -58 -27 -118 -59z m306
-69 l157 -67 27 -80 c20 -60 54 -120 134 -240 119 -178 120 -179 287 -236 l83
-28 101 26 102 26 80 -26 80 -26 49 25 50 26 27 -25 c17 -16 57 -32 116 -47
50 -12 137 -37 195 -56 58 -18 124 -38 148 -44 29 -7 42 -16 42 -28 0 -33 -29
-127 -57 -185 l-27 -58 26 -78 25 -78 -27 -54 c-16 -30 -39 -65 -54 -78 l-25
-24 25 -49 c23 -46 24 -51 10 -67 -37 -40 -4 -80 64 -80 25 0 73 -8 107 -18
l62 -18 46 -95 c37 -76 61 -110 123 -172 l76 -78 -28 -28 -27 -29 58 -33 c32
-18 66 -39 75 -47 17 -15 16 -17 -3 -45 l-21 -29 26 -28 26 -27 -26 -78 -26
-78 48 -49 48 -49 -27 -28 -27 -28 27 -27 27 -27 -46 -47 c-25 -27 -57 -71
-71 -99 -38 -76 -51 -83 -87 -49 l-30 28 -30 -65 c-17 -36 -42 -76 -56 -89
-14 -13 -39 -53 -55 -88 l-29 -65 27 -29 c16 -16 58 -44 94 -63 67 -33 67 -33
85 -13 18 20 18 20 40 -23 38 -74 67 -92 191 -123 l113 -27 19 23 20 24 63
-62 63 -63 -28 -27 -27 -27 27 -28 27 -28 -24 -25 -23 -25 23 -25 c29 -31 19
-45 -59 -85 -77 -39 -200 -167 -241 -249 l-32 -64 25 -25 26 -25 -29 -58 c-21
-40 -26 -59 -17 -62 8 -3 2 -24 -21 -71 l-32 -67 25 -49 25 -49 -20 -46 c-12
-28 -54 -82 -103 -133 l-83 -87 -23 -98 c-18 -75 -27 -97 -37 -93 -8 3 -49 1
-91 -5 -55 -8 -100 -7 -161 1 -85 11 -85 11 -109 -14 -13 -14 -35 -26 -48 -26
-14 0 -34 -9 -44 -19 -33 -33 -84 -35 -255 -11 -132 18 -208 36 -420 101 -300
90 -265 68 -444 287 -74 90 -119 155 -123 175 -4 18 -51 392 -105 832 -54 445
-102 803 -108 807 -6 4 -8 8 -4 8 14 0 -62 152 -207 416 -183 334 -287 577
-321 749 -13 66 -35 251 -49 410 l-27 290 101 384 c77 292 107 391 124 409 29
31 207 122 227 116 8 -2 86 -35 172 -72z"/>
</g>
</svg>
