<?xml version="1.0" standalone="no"?>
<!DOCTYPE svg PUBLIC "-//W3C//DTD SVG 20010904//EN"
 "http://www.w3.org/TR/2001/REC-SVG-20010904/DTD/svg10.dtd">
<svg version="1.0" xmlns="http://www.w3.org/2000/svg"
 width="3000.000000pt" height="4000.000000pt" viewBox="0 0 3000.000000 4000.000000"
 preserveAspectRatio="xMidYMid meet">
<metadata>
Created by potrace 1.16, written by Peter Selinger 2001-2019
</metadata>
<g transform="translate(0.000000,4000.000000) scale(0.100000,-0.100000)"
fill="#000000" stroke="none">
<path d="M9246 37929 c-2 -8 -8 -30 -14 -49 -5 -19 -15 -60 -22 -90 -7 -30
-26 -86 -43 -123 l-31 -69 26 -77 25 -78 -27 -54 c-16 -30 -39 -65 -54 -78
l-25 -24 25 -49 c23 -46 24 -51 10 -67 -37 -40 -4 -80 64 -80 25 0 73 -8 107
-18 l62 -18 46 -95 c37 -76 61 -110 123 -172 l76 -78 -28 -28 -27 -29 58 -33
c32 -18 66 -39 75 -47 17 -15 16 -17 -3 -45 l-21 -29 26 -28 26 -27 -26 -78
-26 -78 48 -49 48 -49 -27 -27 -27 -27 27 -28 27 -28 -46 -48 c-25 -26 -57
-70 -71 -98 -38 -76 -51 -83 -87 -49 l-30 28 -30 -65 c-17 -36 -42 -76 -56
-89 -14 -13 -39 -53 -55 -88 l-29 -65 27 -29 c16 -16 58 -44 94 -63 67 -33 67
-33 85 -13 18 20 18 20 40 -23 38 -74 67 -92 191 -123 l113 -27 19 23 20 24
63 -62 62 -62 -27 -29 -27 -28 27 -27 27 -26 -24 -26 -23 -25 23 -25 c29 -31
19 -45 -59 -85 -77 -39 -200 -167 -241 -249 l-32 -64 25 -25 26 -25 -29 -56
c-30 -61 -26 -76 23 -83 19 -2 36 6 61 31 l34 33 75 -25 75 -25 53 54 c44 44
66 58 129 79 l75 25 94 -25 94 -24 82 -81 82 -82 50 25 50 26 24 -24 c21 -20
49 -26 203 -48 l179 -25 56 -55 56 -55 49 25 48 25 29 -28 29 -28 53 52 53 52
24 -25 24 -26 86 84 85 84 140 23 c99 16 162 32 215 55 41 18 104 43 140 55
36 13 87 34 113 47 l49 24 66 -22 c54 -17 79 -33 129 -82 70 -69 87 -68 98 6
9 61 26 137 31 137 3 0 23 -9 46 -21 l41 -21 39 40 40 39 -27 53 -27 54 22 72
c21 68 29 79 119 168 l97 96 64 -21 c36 -12 79 -34 95 -49 17 -15 58 -42 93
-59 l62 -31 9 22 c5 13 19 56 32 96 l23 72 -26 53 -25 52 25 52 26 53 -23 24
c-14 15 -19 26 -12 31 6 3 11 10 11 15 0 5 -41 53 -92 106 -85 88 -102 101
-208 154 -63 31 -146 67 -184 80 -39 13 -138 58 -220 101 -114 58 -179 85
-264 108 l-112 30 -78 -26 c-42 -14 -87 -35 -99 -45 l-21 -20 -17 32 c-16 32
-16 33 11 61 l28 29 -30 31 c-42 45 -124 83 -249 116 l-110 29 -100 -17 c-143
-25 -144 -25 -113 9 14 15 36 47 48 72 12 25 35 59 51 76 l30 31 26 326 27
327 -31 32 c-39 41 -63 90 -98 198 -32 98 -49 120 -126 161 -31 17 -71 46 -90
65 l-33 34 -78 -77 -78 -77 -47 46 c-43 41 -62 50 -193 93 -177 58 -252 94
-307 148 l-43 41 31 32 c35 36 43 29 -87 74 l-82 28 -53 -55 c-30 -30 -76 -66
-104 -80 -27 -14 -71 -45 -96 -69 l-46 -45 -17 40 c-10 21 -33 54 -52 72 l-34
33 -52 -25 c-29 -13 -69 -38 -88 -56 -26 -23 -58 -37 -117 -52 -45 -12 -86
-21 -91 -21 -5 0 -17 17 -26 38 -38 84 -69 106 -231 160 -82 28 -158 53 -167
57 -11 4 -19 2 -22 -6z m176 -95 c77 -27 144 -56 159 -70 14 -14 38 -51 53
-83 l28 -58 116 29 c90 23 119 34 134 54 11 14 41 36 68 49 l47 24 21 -22 c11
-12 34 -50 51 -84 l31 -62 57 61 c32 33 81 71 108 85 28 14 73 48 102 75 54
53 59 54 129 28 26 -10 26 -11 8 -31 -17 -19 -16 -21 47 -85 78 -80 97 -90
302 -161 157 -54 164 -57 222 -114 l60 -59 77 77 77 77 23 -21 c13 -11 46 -32
73 -46 68 -34 88 -60 115 -142 28 -86 75 -182 105 -215 l23 -25 -25 -300 c-23
-282 -26 -302 -48 -325 -12 -14 -33 -45 -45 -70 -58 -116 -149 -186 -311 -239
-57 -19 -66 -25 -62 -41 3 -11 11 -20 18 -20 19 0 173 58 215 80 20 11 99 30
185 45 l151 25 104 -28 c112 -31 174 -58 203 -89 16 -19 16 -21 -3 -38 -27
-24 -26 -33 12 -110 l32 -65 36 35 c23 23 61 43 109 60 l73 25 87 -21 c59 -15
137 -47 251 -104 91 -45 197 -93 235 -105 39 -13 115 -45 170 -72 83 -41 115
-64 187 -136 68 -67 85 -89 76 -99 -8 -11 -5 -20 16 -42 l28 -29 -25 -48 -25
-48 26 -53 26 -52 -19 -60 c-10 -34 -22 -61 -27 -61 -17 0 -53 22 -88 55 -24
23 -63 42 -124 61 l-89 29 -108 -115 c-105 -111 -110 -118 -135 -198 l-27 -83
23 -50 c33 -70 19 -82 -55 -46 -31 15 -57 27 -60 27 -2 0 -13 -43 -26 -95 -12
-52 -25 -95 -29 -95 -5 0 -21 16 -37 35 -22 27 -48 42 -114 66 l-87 30 -58
-29 c-33 -16 -90 -39 -129 -52 -38 -13 -95 -36 -126 -51 -41 -20 -100 -35
-210 -54 l-154 -26 -70 -69 c-39 -39 -76 -70 -82 -70 -7 0 -17 9 -23 20 -6 11
-15 20 -20 20 -5 0 -30 -23 -56 -50 l-48 -51 -24 25 -25 24 -54 -26 -54 -27
-48 50 c-27 28 -46 54 -43 59 3 5 -5 6 -19 3 -13 -4 -94 3 -179 15 -144 20
-157 24 -188 52 l-32 30 -45 -22 c-25 -12 -51 -22 -58 -22 -6 0 -45 33 -87 74
l-75 73 -103 26 -104 25 -76 -25 c-63 -21 -87 -35 -131 -78 l-53 -52 -79 25
-78 26 -26 -24 c-29 -28 -31 -23 -8 25 16 34 16 35 -7 60 -23 25 -23 26 -6 61
29 62 155 192 216 224 30 15 70 44 89 64 l35 36 -24 25 -24 25 27 28 27 28
-25 24 -25 24 25 26 25 26 -95 94 -95 94 -29 -28 -29 -28 -89 22 c-104 27
-136 52 -178 140 l-29 60 -32 -31 -32 -31 -38 20 c-22 11 -47 29 -58 41 -17
18 -17 24 -5 52 7 18 29 51 49 74 20 23 42 56 49 73 16 37 22 39 46 12 18 -20
19 -20 48 7 16 16 44 57 62 93 19 37 58 89 89 120 l56 54 -25 26 -25 26 25 24
25 24 -54 55 -55 56 24 80 25 79 -22 23 -22 23 28 28 27 29 -43 39 c-24 22
-58 46 -76 53 l-33 14 23 24 22 24 -82 82 c-69 70 -89 98 -135 192 l-54 110
-99 25 c-54 14 -105 24 -113 23 -10 -1 -10 2 2 14 14 14 13 21 -10 68 l-26 53
24 29 c13 16 35 52 48 81 l25 53 -22 68 c-27 82 -27 92 -3 140 11 21 29 76 41
122 24 97 28 109 34 109 2 0 64 -21 138 -46z"/>
</g>
</svg>
