<?xml version="1.0" standalone="no"?>
<!DOCTYPE svg PUBLIC "-//W3C//DTD SVG 20010904//EN"
 "http://www.w3.org/TR/2001/REC-SVG-20010904/DTD/svg10.dtd">
<svg version="1.0" xmlns="http://www.w3.org/2000/svg"
 width="3000.000000pt" height="4000.000000pt" viewBox="0 0 3000.000000 4000.000000"
 preserveAspectRatio="xMidYMid meet">
<metadata>
Created by potrace 1.16, written by Peter Selinger 2001-2019
</metadata>
<g transform="translate(0.000000,4000.000000) scale(0.100000,-0.100000)"
fill="#000000" stroke="none">
<path d="M14933 32888 c-52 -53 -92 -105 -111 -144 l-31 -61 20 -20 20 -20
-31 -13 c-29 -12 -33 -11 -58 13 l-27 27 -77 -77 -77 -76 -28 24 c-16 13 -75
46 -131 73 l-101 50 -24 -22 -23 -22 -69 71 c-60 61 -162 129 -193 129 -12 0
-76 -139 -98 -213 -17 -55 -22 -61 -69 -84 -27 -14 -58 -32 -68 -41 -16 -14
-20 -13 -45 11 -16 15 -31 27 -34 27 -3 0 -18 -52 -33 -117 -25 -108 -30 -120
-72 -164 -37 -39 -59 -53 -122 -74 -46 -15 -88 -36 -102 -51 -13 -14 -49 -39
-79 -54 -30 -16 -70 -44 -88 -62 -28 -30 -35 -48 -53 -144 -26 -143 -35 -169
-64 -188 -20 -13 -55 -72 -55 -92 0 -2 26 -17 59 -33 l58 -30 27 28 27 29 92
-25 c91 -24 93 -25 172 -103 72 -72 88 -82 156 -105 48 -16 86 -37 104 -55
l28 -29 66 34 c36 18 76 44 89 58 13 13 41 32 63 42 37 17 40 17 59 0 10 -9
31 -52 45 -95 14 -43 35 -86 47 -96 11 -11 34 -46 50 -79 38 -75 165 -207 233
-242 28 -14 71 -46 97 -71 l48 -46 -25 -26 -25 -26 38 -37 c25 -25 61 -45 107
-60 65 -22 72 -27 97 -73 15 -28 72 -97 126 -155 75 -78 116 -113 165 -139
l66 -34 33 30 c19 18 61 41 97 52 l64 22 27 -23 c17 -15 68 -33 141 -51 63
-15 128 -36 146 -46 31 -18 31 -18 53 5 33 36 96 61 114 45 14 -10 12 -18 -9
-61 -14 -26 -25 -52 -25 -57 0 -5 35 -19 78 -33 47 -15 90 -36 112 -55 20 -18
65 -41 105 -54 40 -13 83 -35 100 -51 17 -16 63 -40 105 -54 40 -14 82 -33 92
-42 18 -16 17 -19 -37 -73 l-57 -57 169 -57 c130 -44 175 -64 200 -88 l33 -32
30 29 30 28 127 -26 128 -26 47 46 c33 32 51 44 58 37 7 -7 2 -18 -15 -34
l-25 -24 42 -43 42 -43 28 27 29 27 93 -46 93 -46 18 -64 c10 -34 20 -79 22
-98 3 -19 7 -37 10 -40 2 -2 64 6 136 18 l132 23 63 -68 62 -67 -42 -44 c-39
-39 -40 -43 -18 -38 31 7 385 66 396 66 4 0 -7 16 -26 35 l-34 35 38 39 38 39
141 -48 c139 -48 140 -48 214 -122 60 -58 85 -93 125 -172 46 -92 112 -186
130 -186 4 0 33 28 65 62 32 35 105 111 161 169 94 97 109 118 158 220 l54
112 -22 24 -22 23 49 50 c48 49 48 50 30 70 -10 11 -16 22 -14 24 2 2 31 12
63 23 l60 19 57 170 57 169 -76 77 -76 77 23 48 22 49 -28 114 -28 115 -58 31
c-93 49 -93 50 -67 131 18 55 33 79 81 128 l59 60 -25 26 -26 25 21 26 c22 29
27 82 8 95 -7 4 -71 20 -143 35 l-130 26 -27 -25 -27 -25 -77 26 c-69 23 -79
24 -94 11 -23 -21 -25 -20 -44 23 -16 35 -24 40 -99 65 -70 23 -90 35 -132 78
-28 28 -76 64 -108 80 l-57 30 -75 -27 -75 -27 -147 24 -148 23 -85 82 c-90
86 -141 117 -255 154 -63 20 -79 31 -157 108 l-87 86 -26 -24 -25 -23 -25 23
-25 24 -29 -28 -29 -28 -52 27 -52 26 -24 -22 -24 -22 -22 20 c-23 21 -120 73
-136 73 -5 0 -21 -27 -37 -59 -16 -35 -52 -83 -86 -117 l-59 -58 21 -22 21
-23 -38 -19 c-22 -11 -52 -34 -67 -50 -16 -16 -46 -38 -68 -47 l-39 -18 -28
26 -28 27 -24 -25 -24 -25 -53 52 -53 52 -25 -24 c-23 -21 -26 -22 -42 -8 -10
9 -43 30 -74 47 -74 42 -92 64 -119 146 -12 39 -31 79 -41 91 -24 26 -24 33 3
61 l22 23 -53 54 -53 53 27 53 27 52 -31 32 c-20 21 -58 41 -117 61 -79 27
-92 35 -137 88 l-51 58 -76 -76 c-99 -98 -126 -99 -79 -2 l22 44 -28 84 c-15
46 -37 94 -48 107 l-21 22 45 92 c24 51 57 107 73 126 l29 33 -28 90 c-16 49
-37 97 -47 106 -18 16 -17 17 7 43 l25 26 -39 38 c-39 38 -40 39 -206 62 -22
3 -67 10 -100 15 -105 16 -103 16 -192 -73z m335 3 c128 -20 145 -32 107 -71
l-25 -24 34 -36 c21 -22 42 -60 56 -103 l22 -67 -29 -33 c-15 -18 -50 -79 -78
-135 l-49 -102 31 -32 c19 -21 39 -60 53 -103 l23 -71 -28 -53 -27 -54 41 -41
41 -41 78 78 78 77 43 -44 c33 -33 62 -51 120 -71 42 -15 84 -35 94 -45 18
-17 18 -19 -8 -70 l-27 -53 51 -51 51 -52 -25 -24 -25 -24 30 -31 c19 -19 40
-61 56 -110 31 -93 58 -126 135 -165 72 -37 88 -55 66 -77 -15 -16 -15 -18 0
-35 16 -18 18 -17 60 24 l43 42 48 -47 c53 -52 66 -56 84 -27 17 26 32 25 51
-2 l15 -23 58 30 c32 17 74 44 94 61 19 17 60 44 90 59 30 15 57 29 59 31 3 2
-8 18 -24 34 l-29 30 46 48 c25 26 54 63 63 82 10 19 19 36 20 38 7 8 73 -33
107 -66 l38 -36 29 28 29 28 50 -26 49 -25 24 25 23 24 28 -27 28 -27 25 24
26 24 72 -71 c62 -61 82 -74 142 -93 116 -38 166 -68 255 -155 l85 -83 163
-27 164 -27 74 26 73 26 55 -30 c30 -17 71 -51 90 -75 30 -37 48 -47 117 -70
l80 -27 32 -64 31 -64 33 32 33 32 75 -24 75 -24 28 27 27 26 94 -20 c52 -10
97 -21 99 -24 3 -3 -2 -13 -11 -23 -13 -14 -14 -21 -5 -30 8 -8 8 -15 0 -25
-9 -11 -6 -19 13 -37 l25 -24 -44 -45 c-35 -37 -49 -63 -72 -133 l-28 -88 34
-36 c19 -20 55 -46 80 -59 l46 -23 22 -95 23 -94 -28 -57 -27 -56 78 -79 78
-79 -48 -145 -48 -144 -88 -29 -89 -28 30 -30 30 -30 -51 -54 -50 -53 28 -30
28 -29 -45 -92 c-40 -84 -57 -106 -190 -242 -93 -96 -150 -147 -158 -142 -6 4
-38 60 -70 124 -52 103 -69 127 -142 198 l-84 80 -159 54 -158 53 -66 -66
c-63 -63 -65 -67 -49 -85 17 -18 15 -19 -73 -34 -63 -10 -90 -11 -90 -4 0 6
-39 51 -88 99 l-87 87 -115 -20 c-137 -24 -127 -23 -127 -7 0 6 -12 49 -27 95
l-28 83 -114 57 -113 56 -25 -23 c-31 -29 -42 -12 -14 24 l21 27 -42 41 -41
42 -56 -56 -56 -56 -124 25 -125 25 -23 -22 c-22 -21 -23 -21 -40 -2 -9 10
-80 40 -157 66 l-141 48 41 41 c23 23 41 46 41 52 0 26 -70 75 -140 99 -41 14
-88 38 -105 54 -17 16 -60 38 -100 51 -40 13 -83 35 -100 51 -17 16 -60 39
-95 50 -36 12 -66 23 -68 24 -2 2 7 23 20 49 l22 46 -37 38 -37 37 -71 -36
-70 -37 -131 34 c-107 27 -137 38 -161 62 l-29 29 -88 -31 c-49 -17 -98 -40
-109 -50 -18 -17 -24 -17 -53 -6 -18 8 -81 60 -139 117 -78 77 -113 119 -134
163 l-28 59 -85 29 c-101 33 -117 50 -82 87 l24 25 -60 61 c-32 33 -81 72
-109 86 -66 33 -190 155 -222 218 -14 28 -39 67 -55 87 -16 21 -40 71 -54 111
-17 51 -36 84 -59 107 l-35 34 -60 -29 c-33 -16 -72 -42 -87 -58 -16 -16 -45
-38 -67 -49 l-38 -19 -22 20 c-12 12 -56 32 -97 46 -66 23 -83 34 -155 106
l-81 80 -114 29 -114 29 -25 -23 c-43 -40 -53 -21 -21 42 17 36 36 102 50 177
12 66 29 130 37 142 8 13 38 35 67 49 28 15 68 41 88 59 21 19 66 42 110 57
63 21 83 34 131 84 42 43 60 71 68 104 32 129 29 124 51 104 19 -17 21 -16 57
18 20 20 60 47 87 61 49 24 51 28 74 99 25 80 61 168 68 168 22 0 83 -47 158
-121 l91 -89 28 29 29 30 86 -46 c47 -25 103 -62 124 -82 l37 -35 78 77 77 77
23 -22 22 -22 76 37 77 38 -32 33 -33 34 18 33 c9 19 49 69 88 112 l71 78 65
-6 c36 -3 116 -14 178 -24z"/>
</g>
</svg>
