<?xml version="1.0" standalone="no"?>
<!DOCTYPE svg PUBLIC "-//W3C//DTD SVG 20010904//EN"
 "http://www.w3.org/TR/2001/REC-SVG-20010904/DTD/svg10.dtd">
<svg version="1.0" xmlns="http://www.w3.org/2000/svg"
 width="3000.000000pt" height="4000.000000pt" viewBox="0 0 3000.000000 4000.000000"
 preserveAspectRatio="xMidYMid meet">
<metadata>
Created by potrace 1.16, written by Peter Selinger 2001-2019
</metadata>
<g transform="translate(0.000000,4000.000000) scale(0.100000,-0.100000)"
fill="#000000" stroke="none">
<path d="M10532 15082 l-72 -37 27 -27 26 -27 -27 -36 c-16 -20 -34 -39 -41
-41 -7 -3 -57 6 -111 20 l-99 25 -76 -75 c-74 -74 -75 -75 -93 -55 -10 11 -53
32 -95 46 -55 18 -88 36 -111 60 -19 19 -37 35 -41 35 -3 0 -17 -37 -30 -82
-20 -73 -29 -90 -80 -143 -31 -33 -66 -79 -78 -103 l-22 -42 -32 16 c-17 9
-49 32 -69 52 l-38 36 -38 -37 c-28 -27 -44 -57 -61 -107 -20 -63 -25 -70 -44
-65 -12 3 -65 14 -117 25 -81 16 -99 24 -123 50 -38 43 -61 33 -82 -33 -22
-66 -143 -193 -227 -239 -58 -31 -90 -64 -122 -127 l-18 -34 -54 54 c-37 37
-55 48 -58 38 -14 -40 -56 -221 -56 -242 0 -17 7 -26 22 -30 22 -6 22 -7 -10
-40 l-32 -33 63 -31 c62 -30 62 -31 85 -99 l22 -69 -26 -21 c-28 -23 -27 -51
2 -75 13 -11 11 -16 -17 -45 l-32 -33 24 -5 c13 -3 91 -17 173 -31 l150 -24
55 -55 56 -54 66 33 c37 19 69 40 72 48 3 8 36 32 74 52 37 21 73 46 80 54 10
14 18 10 60 -30 36 -35 65 -52 117 -69 43 -14 84 -36 108 -58 l39 -35 53 52
52 51 22 -23 c17 -18 19 -26 10 -35 -9 -9 -2 -23 35 -60 26 -26 47 -52 47 -58
0 -5 -31 -41 -70 -79 -38 -38 -70 -72 -70 -76 0 -4 21 -30 46 -58 l47 -52 -21
-22 c-11 -12 -30 -42 -42 -67 -12 -25 -46 -70 -75 -100 -45 -47 -57 -68 -81
-142 l-28 -87 22 -24 22 -23 -30 -29 c-36 -34 -35 -35 75 -71 45 -15 93 -39
110 -54 17 -16 66 -39 114 -55 77 -25 85 -26 96 -11 18 23 22 21 46 -26 12
-24 23 -45 25 -47 3 -3 29 19 59 49 l54 53 49 -54 c42 -45 52 -52 65 -41 26
22 75 10 109 -25 l32 -33 34 32 c19 18 42 50 53 71 22 42 25 43 50 21 16 -14
21 -13 66 10 26 14 57 33 68 41 22 18 21 19 -47 56 l-38 19 45 89 44 89 66 22
67 22 29 -28 29 -28 42 42 42 42 -36 37 c-24 26 -43 61 -58 108 -17 55 -33 81
-72 122 l-51 51 23 94 c12 51 31 102 41 112 18 19 19 19 76 -6 32 -14 86 -36
121 -48 50 -18 76 -36 120 -82 l56 -59 115 115 c64 63 135 124 159 135 24 12
61 38 83 58 l40 36 -53 54 -53 53 43 43 42 42 198 26 197 25 81 -27 80 -26 25
21 c57 51 57 52 0 110 l-53 53 22 44 c12 24 36 58 52 76 l31 32 -160 166 -159
165 -22 92 -23 92 56 56 55 56 -27 27 -27 27 27 28 27 28 -50 49 c-43 42 -50
55 -50 88 0 35 22 95 40 107 4 3 10 17 13 31 5 19 1 31 -13 44 -19 17 -23 16
-102 -11 -45 -16 -95 -39 -110 -52 l-27 -23 -49 25 -49 25 -48 -49 -49 -50
-21 20 c-12 11 -60 33 -107 49 -85 29 -87 29 -104 10 -9 -10 -21 -19 -26 -19
-6 0 -42 34 -80 75 l-71 76 -28 -27 -29 -28 -28 27 -28 27 -24 -25 -24 -25
-51 50 -51 50 -24 -25 -24 -25 -50 49 -51 49 -73 -36z m115 -74 l53 -52 23 22
c13 12 28 22 35 22 6 0 30 -22 54 -50 l43 -49 27 26 28 27 25 -24 25 -23 25
23 26 24 77 -77 78 -78 24 26 c13 14 31 25 40 25 39 0 118 -35 153 -68 l37
-36 55 54 55 54 54 -26 53 -27 33 34 c32 33 109 63 129 51 7 -5 4 -20 -9 -46
-12 -23 -20 -59 -20 -87 0 -42 5 -52 42 -90 l42 -43 -24 -25 -23 -25 23 -25
24 -25 -48 -49 -49 -49 28 -114 27 -113 151 -152 150 -151 -24 -29 c-13 -16
-35 -52 -48 -81 l-25 -53 48 -48 c71 -72 50 -89 -61 -50 l-61 22 -214 -27
-213 -27 -62 -62 -63 -61 52 -53 c60 -61 58 -67 -31 -113 -36 -18 -90 -63
-151 -124 l-94 -96 -46 45 c-36 36 -63 51 -133 74 -48 16 -109 42 -136 56
l-49 27 -35 -38 c-30 -33 -39 -56 -61 -148 l-26 -110 54 -56 c43 -44 58 -68
76 -125 12 -38 31 -82 41 -98 27 -37 14 -55 -17 -26 l-25 23 -85 -28 -85 -27
-54 -109 c-34 -68 -51 -111 -44 -116 6 -3 8 -12 5 -19 -3 -8 8 -18 26 -26 l30
-12 -24 -13 c-21 -11 -26 -10 -55 18 l-32 30 -36 -71 c-19 -40 -43 -75 -51
-78 -10 -4 -33 11 -65 43 l-49 48 -25 -24 -25 -24 -53 52 -53 52 -44 -45 c-24
-25 -47 -45 -50 -45 -3 0 -16 21 -29 46 l-22 47 -33 -32 -32 -31 -64 21 c-36
12 -79 34 -95 50 -17 15 -50 35 -75 44 -25 8 -51 18 -59 20 -11 4 -10 9 4 25
18 20 18 21 -10 50 l-28 30 18 62 c15 50 31 76 76 123 31 33 70 87 87 120 16
33 42 71 56 84 l26 25 -49 50 -50 51 74 81 74 81 -49 48 c-48 47 -49 50 -32
68 9 11 38 30 64 43 37 19 45 27 41 44 -7 25 -5 25 -82 -1 l-62 -21 -30 28
-29 28 -53 -52 c-53 -52 -54 -52 -71 -33 -10 11 -53 32 -95 46 -66 22 -86 34
-136 85 l-59 60 -36 -34 c-19 -19 -57 -45 -85 -59 -27 -14 -63 -39 -78 -55
-16 -16 -46 -38 -68 -48 l-40 -17 -52 50 -52 50 -110 17 c-150 23 -151 24
-131 44 14 15 14 18 -11 44 l-27 28 22 23 21 23 -28 89 c-27 83 -31 90 -70
109 l-41 21 22 23 22 22 -29 30 -29 30 18 75 c10 41 21 75 25 75 4 0 25 -18
46 -40 21 -22 42 -40 45 -40 4 0 17 23 31 52 34 73 63 105 128 138 78 40 215
180 232 238 l12 43 26 -24 c20 -19 56 -30 161 -51 73 -14 137 -23 141 -18 3 4
19 44 33 89 30 91 46 112 67 87 13 -16 149 -88 154 -82 1 2 15 28 30 58 15 30
51 80 80 110 38 39 58 71 70 110 23 71 26 76 39 58 6 -8 47 -27 91 -41 50 -17
91 -38 111 -58 l33 -32 78 82 78 81 103 -26 104 -27 64 64 64 63 -22 23 c-23
25 -23 24 7 41 28 16 24 18 82 -40z"/>
</g>
</svg>
