<?xml version="1.0" standalone="no"?>
<!DOCTYPE svg PUBLIC "-//W3C//DTD SVG 20010904//EN"
 "http://www.w3.org/TR/2001/REC-SVG-20010904/DTD/svg10.dtd">
<svg version="1.0" xmlns="http://www.w3.org/2000/svg"
 width="3000.000000pt" height="4000.000000pt" viewBox="0 0 3000.000000 4000.000000"
 preserveAspectRatio="xMidYMid meet">
<metadata>
Created by potrace 1.16, written by Peter Selinger 2001-2019
</metadata>
<g transform="translate(0.000000,4000.000000) scale(0.100000,-0.100000)"
fill="#000000" stroke="none">
<path d="M9389 11653 c-53 -59 -52 -57 -23 -115 14 -29 37 -65 51 -79 l25 -27
-22 -43 c-12 -24 -36 -59 -53 -76 l-31 -33 24 -25 23 -25 -20 -22 c-11 -13
-32 -63 -47 -112 l-28 -89 48 -48 47 -48 -24 -28 c-13 -16 -35 -52 -48 -81
l-24 -52 22 -24 c18 -20 20 -25 7 -35 -11 -9 -35 -7 -112 13 l-99 25 -22 -21
-22 -21 -28 24 c-16 13 -52 35 -81 48 l-52 24 -25 -23 -25 -24 -28 26 c-15 14
-74 49 -131 78 l-103 51 -28 -26 -28 -26 -80 40 c-88 44 -85 45 -120 -24 -11
-22 -45 -65 -76 -95 l-56 -54 26 -27 26 -28 -100 -103 c-60 -62 -110 -124
-127 -157 l-27 -54 56 -56 c47 -48 60 -69 82 -136 20 -61 37 -91 70 -125 24
-25 44 -51 44 -58 0 -7 -9 -31 -21 -53 -19 -37 -19 -42 -5 -58 22 -25 21 -28
-21 -50 -21 -11 -84 -66 -140 -123 -100 -102 -153 -181 -153 -231 0 -13 21
-63 46 -111 l46 -88 -28 -29 -28 -29 48 -49 c32 -32 47 -55 43 -65 -3 -8 -33
-29 -66 -46 -54 -27 -64 -37 -92 -92 -25 -49 -30 -69 -26 -107 7 -71 11 -79
52 -121 l39 -40 -27 -28 -27 -28 54 -53 c60 -59 78 -61 123 -13 23 24 24 25
43 7 20 -19 22 -18 62 23 l42 41 -24 26 -24 25 34 35 34 35 26 -25 26 -25 30
31 c16 17 52 42 79 56 28 14 60 34 72 46 29 26 44 14 85 -67 17 -34 32 -63 34
-65 2 -3 48 38 102 90 54 53 115 102 137 112 22 9 104 27 182 40 l142 24 25
-26 c13 -14 35 -49 49 -77 28 -56 76 -103 125 -123 18 -7 32 -17 32 -22 0 -5
-10 -29 -22 -54 l-22 -45 37 -37 36 -37 60 29 c33 15 79 48 103 72 23 23 47
43 53 43 6 0 28 -20 48 -45 21 -25 43 -45 49 -45 7 0 22 10 35 22 l24 22 77
-77 78 -77 39 40 39 40 -29 30 -28 30 31 102 c17 57 39 135 48 173 22 90 45
115 136 144 40 13 83 32 96 44 l22 20 26 -24 26 -24 59 63 c32 35 59 70 59 77
0 42 -56 127 -132 202 -92 88 -103 94 -333 154 l-110 28 -92 98 c-50 54 -96
97 -102 96 -18 -4 -22 35 -7 64 8 15 40 53 70 83 l56 54 -27 28 -26 28 18 42
c10 24 27 52 36 62 17 19 19 19 57 2 22 -10 66 -44 98 -77 32 -32 63 -59 69
-59 6 0 24 14 41 31 16 17 54 44 84 59 34 17 75 51 107 88 l51 59 -25 26 c-25
24 -25 27 -12 59 7 18 31 52 53 76 l39 43 -21 22 c-12 13 -22 28 -22 33 0 5
31 40 68 77 l69 68 23 102 c23 99 26 104 82 163 l58 61 -26 24 c-14 13 -40 51
-56 84 -17 33 -42 73 -56 88 -19 20 -31 49 -42 105 -13 68 -18 77 -38 80 -15
2 -33 -5 -48 -19 l-24 -23 -75 18 c-62 15 -75 21 -71 34 3 10 1 24 -4 32 -8
12 -19 11 -80 -9 l-72 -23 -29 28 -29 28 -25 -24 -25 -23 -22 20 c-13 11 -43
31 -68 43 -25 12 -58 34 -75 49 -16 16 -56 42 -89 60 l-58 32 -24 -22 -25 -23
-77 77 -78 77 -25 -27z m210 -169 l29 28 48 -25 c27 -14 58 -35 69 -47 11 -12
43 -33 70 -47 28 -14 66 -40 86 -59 l35 -34 24 25 24 25 22 -21 c17 -16 30
-20 50 -15 18 5 75 -4 160 -25 l133 -33 25 23 24 23 11 -52 c6 -28 11 -57 11
-65 0 -8 15 -32 34 -52 18 -21 45 -60 60 -88 14 -27 32 -58 38 -67 11 -15 6
-24 -30 -61 -38 -39 -46 -55 -71 -151 l-28 -108 -82 -82 -82 -82 26 -24 c25
-23 25 -24 6 -44 -10 -12 -33 -49 -49 -82 l-31 -61 25 -24 24 -23 -42 -44
c-24 -24 -65 -55 -93 -69 -27 -14 -59 -34 -71 -44 -20 -19 -21 -18 -60 22 -21
22 -67 56 -102 76 l-64 36 -37 -37 c-21 -20 -51 -64 -66 -96 l-29 -60 24 -25
23 -25 -49 -52 c-27 -29 -58 -72 -68 -95 l-19 -43 29 -22 c16 -12 76 -68 134
-124 104 -100 106 -102 180 -119 41 -10 118 -31 170 -47 91 -29 98 -33 173
-106 43 -43 87 -93 97 -112 16 -32 17 -38 3 -65 -9 -17 -22 -38 -31 -48 -15
-17 -17 -16 -42 8 l-26 25 -29 -30 c-18 -19 -60 -41 -117 -61 -112 -40 -129
-59 -158 -181 -12 -51 -36 -137 -53 -190 l-31 -97 23 -25 c16 -17 19 -26 11
-31 -8 -5 -42 22 -89 69 l-77 77 -24 -26 -24 -25 -53 52 -53 53 -52 -58 c-28
-32 -73 -69 -99 -82 -42 -22 -49 -23 -60 -9 -10 12 -8 25 11 70 12 30 21 56
19 58 -2 2 -31 17 -64 34 -70 35 -84 48 -120 122 -15 30 -40 69 -56 86 l-30
31 -163 -28 c-194 -32 -252 -57 -341 -148 -33 -34 -62 -61 -66 -61 -3 0 -11
12 -18 26 -6 15 -28 46 -48 71 l-36 44 -36 -34 c-20 -19 -59 -46 -87 -60 -27
-14 -56 -33 -63 -41 -18 -21 -30 -20 -58 6 l-24 22 -66 -67 -67 -66 28 -30
c37 -39 15 -53 -24 -16 l-29 28 -22 -47 c-13 -25 -26 -46 -29 -46 -3 0 -18 13
-33 28 -27 29 -27 29 -7 47 11 10 20 23 20 29 0 6 -21 31 -46 57 -64 65 -74
118 -37 194 21 42 35 57 67 72 23 10 60 36 84 57 l43 39 -52 53 -53 54 24 25
24 26 -52 105 -52 105 22 43 c13 24 68 91 124 149 75 78 116 113 164 137 l63
32 -31 30 -30 31 26 54 26 53 -57 58 c-46 47 -61 70 -82 132 -19 57 -36 86
-72 122 l-47 47 23 50 c15 31 60 85 127 152 57 57 104 109 104 115 0 6 -9 19
-20 29 -20 18 -19 18 24 69 23 28 49 62 56 76 7 14 14 26 15 28 2 2 39 -15 82
-37 l80 -40 25 26 25 25 94 -47 c52 -26 109 -61 127 -78 l32 -31 27 26 26 27
46 -24 c25 -13 59 -37 75 -54 l30 -31 30 29 31 30 103 -26 103 -26 40 39 39
38 -29 30 -30 29 24 46 c13 25 37 59 54 76 l31 29 -55 56 -55 56 21 64 c13 40
35 79 55 100 l34 36 -27 26 -26 26 24 29 c13 16 35 52 48 81 l24 51 -34 38
c-41 45 -64 96 -55 120 6 13 22 1 86 -62 l80 -79 29 28z"/>
</g>
</svg>
