<?xml version="1.0" standalone="no"?>
<!DOCTYPE svg PUBLIC "-//W3C//DTD SVG 20010904//EN"
 "http://www.w3.org/TR/2001/REC-SVG-20010904/DTD/svg10.dtd">
<svg version="1.0" xmlns="http://www.w3.org/2000/svg"
 width="3000.000000pt" height="4000.000000pt" viewBox="0 0 3000.000000 4000.000000"
 preserveAspectRatio="xMidYMid meet">
<metadata>
Created by potrace 1.16, written by Peter Selinger 2001-2019
</metadata>
<g transform="translate(0.000000,4000.000000) scale(0.100000,-0.100000)"
fill="#000000" stroke="none">
<path d="M20388 27663 c-30 -33 -38 -50 -52 -127 l-17 -88 23 -27 c75 -86 119
-126 168 -151 l56 -28 22 -95 23 -94 -22 -45 c-16 -34 -33 -51 -69 -69 -42
-21 -47 -27 -39 -46 l8 -22 69 23 70 24 67 -68 67 -68 -21 -65 c-12 -36 -35
-141 -51 -234 l-28 -168 31 -33 c18 -19 77 -56 132 -84 55 -28 110 -59 122
-70 l22 -20 -27 -54 -26 -54 22 -23 22 -23 -22 -21 c-13 -12 -88 -53 -168 -93
-80 -40 -157 -83 -171 -96 l-25 -24 -74 25 -74 25 -37 -37 -37 -38 34 -74 34
-75 34 33 34 33 69 -22 c86 -29 156 -64 182 -91 18 -19 18 -23 4 -57 -8 -21
-31 -53 -50 -73 -38 -40 -37 -54 6 -93 11 -10 30 -47 42 -83 l21 -65 -28 -31
c-16 -18 -51 -56 -79 -85 l-50 -52 67 -67 67 -67 26 24 25 23 23 -20 c12 -11
60 -33 106 -48 l83 -27 53 52 53 53 89 -22 c52 -13 98 -31 112 -44 13 -12 59
-94 103 -182 57 -114 93 -174 126 -207 l46 -48 -23 -77 c-13 -43 -35 -121 -48
-173 -28 -108 -43 -130 -124 -170 -30 -16 -61 -36 -69 -45 -12 -14 -16 -13
-40 10 l-26 25 -30 -31 c-16 -17 -50 -41 -75 -54 l-46 -24 -30 31 -30 30 -38
-47 -38 -46 78 -79 79 -80 -24 -122 c-13 -68 -36 -160 -51 -205 -25 -76 -26
-83 -11 -96 10 -8 75 -27 146 -41 129 -26 130 -26 151 -6 21 20 21 20 41 0 20
-20 20 -20 154 6 110 22 140 32 163 53 l28 26 77 -27 77 -27 65 64 64 64 -28
30 -27 29 46 93 c33 66 65 112 106 155 l60 60 -26 24 c-28 26 -31 47 -12 74
12 16 14 16 32 -4 l19 -20 31 30 c24 24 55 37 130 57 l98 26 71 -23 c57 -18
82 -33 131 -81 l61 -59 30 31 c39 42 123 82 214 104 41 10 122 33 180 51 91
29 111 39 150 79 l44 45 22 -21 c17 -16 61 -29 158 -49 l134 -27 82 82 c53 53
90 101 106 136 14 30 39 68 55 85 l30 30 -27 140 -27 139 -106 110 -107 110
-23 100 c-22 95 -26 103 -76 155 -29 30 -63 74 -74 98 l-21 42 21 43 c12 23
82 104 156 181 l134 138 -27 35 -27 36 18 116 c10 64 17 120 17 125 -1 5 -47
25 -104 44 -76 25 -110 42 -128 64 l-25 29 -89 -31 c-49 -16 -98 -37 -108 -47
-17 -15 -20 -15 -43 7 l-26 24 -26 -27 -27 -27 -49 48 c-43 42 -57 49 -145 72
l-97 25 -30 56 -30 56 -85 -29 c-68 -22 -94 -37 -132 -75 l-48 -47 -22 21
c-43 39 -123 70 -253 98 l-130 27 -106 112 -106 111 -27 -30 -26 -30 -73 78
c-39 42 -77 77 -84 77 -6 0 -21 -13 -32 -28 -10 -15 -42 -38 -70 -51 -45 -21
-53 -23 -82 -11 -17 8 -45 25 -61 38 l-29 25 26 27 25 26 -25 24 -25 24 27 28
27 28 -36 38 c-29 30 -39 53 -58 128 l-22 91 56 111 56 112 -62 31 c-35 17
-72 41 -83 54 -12 14 -56 37 -104 55 -113 41 -119 46 -84 82 l27 28 -74 76
c-72 72 -122 109 -133 98 -9 -10 -111 47 -148 83 l-36 35 -52 -28 -52 -27 -49
23 c-27 13 -60 34 -72 48 -18 19 -126 82 -141 82 -1 0 -19 -17 -39 -37z m157
-84 c17 -15 54 -41 84 -58 l55 -29 49 24 c49 25 49 25 71 6 11 -11 44 -31 71
-45 28 -14 65 -41 84 -61 27 -28 37 -33 48 -24 11 9 24 2 61 -35 l46 -46 -24
-26 -24 -25 37 -38 c27 -28 57 -44 110 -61 43 -14 86 -36 107 -55 19 -17 50
-38 68 -45 17 -7 32 -20 32 -27 0 -8 -20 -54 -44 -102 l-44 -88 27 -111 c15
-62 35 -121 46 -133 18 -20 18 -21 -5 -45 l-23 -25 21 -23 c27 -29 27 -35 0
-64 l-22 -23 30 -31 c16 -17 58 -46 94 -64 l65 -32 59 32 c32 18 65 40 74 49
15 15 23 10 94 -61 l77 -77 26 24 26 24 98 -98 99 -98 133 -27 c147 -30 197
-51 249 -105 l34 -36 61 59 c45 44 74 63 115 76 30 10 60 20 66 22 5 2 21 -18
33 -45 l23 -49 101 -24 c99 -23 104 -25 166 -84 l63 -60 15 23 c19 28 31 28
60 0 l23 -22 33 32 c17 17 62 42 98 56 l67 25 22 -24 c20 -22 164 -78 198 -78
7 0 10 -7 8 -16 -3 -9 -12 -64 -22 -124 -17 -107 -17 -108 4 -130 l22 -23
-121 -119 c-96 -96 -126 -133 -149 -183 l-29 -63 25 -57 c14 -33 48 -80 79
-112 51 -52 55 -60 80 -160 l26 -105 103 -105 104 -105 22 -118 23 -118 -26
-27 c-13 -15 -35 -47 -47 -72 -12 -25 -55 -79 -96 -121 l-75 -75 -117 24
c-100 21 -122 29 -150 55 l-32 31 -58 -56 c-64 -64 -115 -87 -297 -133 -111
-28 -223 -76 -238 -101 -13 -23 -29 -16 -77 30 -34 33 -64 50 -124 70 l-79 26
-106 -27 c-63 -15 -115 -34 -129 -46 l-22 -21 -29 28 -30 28 -36 -72 -36 -72
22 -24 23 -24 -46 -48 c-31 -32 -62 -83 -98 -160 l-53 -112 21 -23 22 -23 -40
-39 -40 -39 -75 24 -75 24 -28 -27 c-23 -22 -52 -33 -147 -53 l-119 -25 -30
30 -30 31 -31 -30 -31 -30 -104 22 c-58 11 -107 22 -109 24 -1 1 6 31 17 66
12 35 33 125 48 201 l27 138 -74 75 c-50 51 -70 77 -63 84 7 7 16 4 29 -10 10
-11 24 -20 30 -20 17 0 105 49 133 73 l22 21 28 -27 28 -27 35 36 c18 20 59
48 89 64 83 42 95 60 129 195 17 66 42 154 56 195 l25 74 -59 61 c-50 50 -73
86 -135 214 -42 85 -87 166 -101 181 -19 20 -52 33 -140 55 l-115 30 -52 -52
-53 -51 -70 24 c-50 17 -78 34 -97 57 l-27 32 -28 -27 -29 -28 -34 35 -34 35
74 75 74 75 -28 87 c-16 49 -37 97 -47 109 -18 19 -18 22 -3 34 8 8 31 44 49
80 l34 67 -37 36 c-42 40 -104 73 -210 111 -85 30 -99 31 -122 11 -16 -14 -18
-13 -30 15 -9 23 -10 33 -1 44 10 12 24 10 91 -12 l80 -26 32 30 c18 17 101
66 183 109 141 73 215 124 215 150 0 6 -11 22 -25 35 l-24 23 25 50 26 49 -34
35 c-18 19 -80 59 -138 88 -153 77 -146 62 -116 241 14 82 37 183 51 223 14
41 25 81 25 90 0 19 -159 181 -177 181 -10 0 -8 10 6 38 l20 39 -29 112 c-15
62 -30 114 -32 116 -1 1 -25 14 -53 28 -27 14 -79 55 -114 90 l-63 65 13 72
c7 39 21 83 31 96 l19 24 42 -21 c23 -12 56 -34 72 -50z"/>
</g>
</svg>
