<?xml version="1.0" standalone="no"?>
<!DOCTYPE svg PUBLIC "-//W3C//DTD SVG 20010904//EN"
 "http://www.w3.org/TR/2001/REC-SVG-20010904/DTD/svg10.dtd">
<svg version="1.0" xmlns="http://www.w3.org/2000/svg"
 width="3000.000000pt" height="4000.000000pt" viewBox="0 0 3000.000000 4000.000000"
 preserveAspectRatio="xMidYMid meet">
<metadata>
Created by potrace 1.16, written by Peter Selinger 2001-2019
</metadata>
<g transform="translate(0.000000,4000.000000) scale(0.100000,-0.100000)"
fill="#000000" stroke="none">
<path d="M7629 17745 c-89 -92 -149 -121 -318 -151 -169 -30 -191 -35 -191
-43 0 -3 38 -44 83 -89 77 -77 86 -89 107 -158 l24 -75 -26 -80 -26 -80 55
-59 c52 -57 57 -66 83 -168 17 -68 46 -145 80 -212 29 -58 54 -107 56 -109 2
-3 17 7 32 22 21 20 31 24 39 16 14 -14 -22 -93 -57 -124 -12 -11 -35 -45 -50
-75 -24 -47 -36 -59 -79 -79 -27 -13 -65 -39 -82 -57 l-33 -34 31 -32 c25 -26
37 -54 58 -138 25 -99 29 -108 78 -158 29 -30 75 -65 102 -79 31 -15 95 -69
165 -139 l115 -114 68 68 67 68 -31 29 c-17 17 -41 51 -54 76 l-24 46 69 68
68 68 74 -18 c40 -10 77 -21 81 -25 5 -4 -1 -40 -14 -79 l-23 -71 31 -32 c17
-18 42 -55 56 -83 32 -63 66 -95 143 -133 l61 -31 21 22 22 21 50 -49 50 -49
23 22 c29 27 35 27 64 0 22 -21 23 -21 43 -3 23 21 21 23 50 -34 l22 -44 58
58 57 57 53 -27 53 -27 38 38 c22 21 39 35 39 31 0 -4 18 2 40 13 32 16 47 34
74 88 l34 67 -30 60 c-17 33 -40 70 -51 83 l-21 22 22 68 c14 42 33 79 51 96
l29 28 -25 60 -26 59 19 62 c12 41 32 77 59 107 22 25 49 55 59 68 l20 23 -53
53 -53 53 26 51 c14 28 26 54 26 57 0 2 -26 18 -58 34 -48 24 -62 37 -78 73
-10 24 -33 59 -50 78 -17 19 -39 58 -48 87 -16 47 -16 54 -1 82 14 29 14 33
-6 73 -15 30 -30 99 -48 228 l-26 185 -64 34 -63 33 -87 -85 c-69 -68 -104
-94 -177 -130 l-91 -46 -24 23 c-21 21 -49 27 -228 49 -230 30 -226 28 -273
122 -16 33 -55 86 -86 117 l-56 58 -28 -27 c-22 -21 -31 -24 -40 -15 -9 9 -6
24 14 66 l26 53 -52 52 -52 52 -65 -66z m96 -25 c18 -20 18 -22 -7 -74 l-27
-53 40 -39 39 -38 25 24 25 24 41 -40 c22 -21 53 -64 69 -94 15 -30 42 -68 60
-85 30 -29 38 -31 237 -57 195 -25 206 -27 235 -55 l29 -28 107 55 c83 42 125
71 185 129 l78 75 35 -19 c40 -21 37 -13 64 -215 12 -85 28 -170 36 -189 13
-30 13 -35 -1 -50 -13 -16 -12 -26 15 -106 19 -55 41 -101 59 -120 16 -16 40
-53 54 -81 20 -39 35 -54 66 -69 23 -10 41 -20 41 -22 0 -2 -9 -21 -20 -43
-11 -22 -20 -45 -20 -53 0 -7 20 -33 45 -57 l44 -44 -47 -50 c-40 -43 -52 -64
-72 -134 l-23 -84 22 -45 22 -46 -21 -22 c-12 -13 -34 -63 -50 -111 l-29 -89
34 -35 c54 -57 85 -140 53 -140 -7 0 -47 -35 -90 -77 l-77 -77 -51 24 -51 24
-44 -44 c-25 -24 -46 -42 -49 -39 -2 2 -14 26 -28 52 l-24 48 -29 -31 -29 -30
-26 25 -26 25 -24 -25 -24 -25 -53 52 -53 52 -29 -28 -29 -28 -38 20 c-51 27
-99 77 -119 127 -9 22 -28 52 -42 67 l-25 27 26 77 c14 42 23 80 21 84 -3 5
-57 21 -120 36 l-116 28 -86 -86 -87 -87 25 -53 c13 -28 34 -67 46 -84 l21
-32 -34 -33 -34 -33 -103 101 c-59 59 -123 112 -152 126 -27 14 -69 48 -92 75
-35 41 -46 65 -67 147 -15 58 -33 106 -46 120 l-21 22 28 24 c16 13 47 32 70
42 32 15 45 30 64 70 13 28 40 70 59 92 19 22 46 64 59 93 l25 52 -39 40 -39
40 -23 -22 c-13 -12 -25 -20 -27 -17 -20 20 -92 204 -112 285 -24 94 -29 105
-74 149 l-48 47 25 74 25 74 -23 77 c-20 67 -32 87 -87 147 -34 37 -61 71 -58
73 3 3 63 16 134 28 153 28 206 52 282 129 30 31 59 56 66 56 6 0 19 -9 29
-20z"/>
</g>
</svg>
