<?xml version="1.0" standalone="no"?>
<!DOCTYPE svg PUBLIC "-//W3C//DTD SVG 20010904//EN"
 "http://www.w3.org/TR/2001/REC-SVG-20010904/DTD/svg10.dtd">
<svg version="1.0" xmlns="http://www.w3.org/2000/svg"
 width="3000.000000pt" height="4000.000000pt" viewBox="0 0 3000.000000 4000.000000"
 preserveAspectRatio="xMidYMid meet">
<metadata>
Created by potrace 1.16, written by Peter Selinger 2001-2019
</metadata>
<g transform="translate(0.000000,4000.000000) scale(0.100000,-0.100000)"
fill="#000000" stroke="none">
<path d="M6785 14933 c-27 -14 -66 -40 -85 -58 -42 -39 -110 -74 -205 -105
-38 -12 -83 -35 -100 -50 -16 -15 -53 -39 -81 -53 -27 -14 -56 -33 -63 -41
-17 -21 -30 -20 -55 3 -12 10 -57 30 -101 45 l-79 26 -46 -45 c-48 -47 -64
-54 -77 -31 -4 7 -36 27 -69 44 -34 17 -71 43 -81 58 l-20 27 -78 -27 -79 -26
-25 24 c-15 13 -46 34 -71 46 -25 12 -62 38 -83 58 l-37 36 -55 -54 -54 -54
-51 24 -50 23 -24 -22 c-21 -20 -24 -20 -36 -5 -8 8 -44 31 -81 50 l-68 34
-20 -27 c-12 -14 -21 -29 -21 -34 0 -40 30 -133 73 -222 l51 -108 -54 -54 -54
-55 27 -28 27 -28 -43 -41 c-23 -23 -64 -52 -92 -66 -27 -14 -65 -41 -84 -61
l-34 -35 39 -43 c22 -24 49 -56 62 -72 l23 -29 32 31 33 32 64 -21 c36 -12 73
-28 82 -37 16 -14 16 -16 -3 -44 l-21 -30 33 -36 c119 -131 179 -186 229 -212
30 -15 66 -39 79 -53 13 -14 57 -37 102 -53 53 -18 89 -38 111 -61 l32 -33 28
27 28 27 28 -27 28 -27 25 25 25 26 24 -26 24 -25 52 51 53 52 28 -24 c16 -13
52 -35 81 -48 l52 -24 25 23 25 23 50 -23 50 -23 24 22 c21 20 24 20 36 5 8
-9 64 -41 124 -71 61 -30 125 -67 141 -83 17 -15 55 -35 85 -45 83 -27 178
-71 211 -100 33 -27 68 -32 87 -13 9 9 17 7 35 -10 l24 -22 41 22 c38 21 44
30 62 87 11 37 31 77 48 95 23 24 34 53 52 131 25 110 57 184 100 230 27 28
31 43 55 213 21 150 30 193 54 241 l30 58 -27 26 -26 27 26 53 26 54 -108 108
c-67 66 -111 119 -117 138 -10 38 -46 60 -162 102 l-86 30 -28 80 c-26 75 -67
136 -91 135 -6 -1 -33 -12 -61 -27z m77 -50 c9 -10 26 -49 38 -88 12 -38 27
-75 34 -81 6 -7 36 -20 66 -29 112 -36 160 -62 174 -95 7 -18 57 -78 110 -136
l97 -103 -25 -49 -25 -49 26 -26 26 -26 -25 -58 c-18 -41 -32 -107 -48 -227
-21 -152 -26 -172 -50 -200 -43 -49 -71 -113 -101 -228 -20 -82 -34 -116 -57
-142 -17 -19 -33 -48 -37 -64 -3 -16 -19 -42 -35 -57 l-30 -29 -25 24 -25 23
-23 -21 c-28 -26 -40 -27 -58 -6 -18 22 -111 67 -194 94 -38 12 -83 35 -100
50 -16 15 -75 51 -130 79 -55 29 -115 67 -132 84 l-33 31 -29 -28 -29 -28 -52
27 -53 27 -25 -25 -25 -26 -46 24 c-25 13 -59 37 -76 54 l-29 31 -51 -50 -51
-50 -24 25 -24 25 -28 -27 -28 -27 -25 24 -25 23 -25 -23 -25 -23 -22 20 c-13
11 -54 31 -93 43 -38 12 -83 35 -100 50 -16 15 -52 39 -80 53 -30 15 -89 65
-145 121 l-94 95 24 26 24 25 -30 32 c-40 45 -40 45 -131 75 l-82 27 -24 -22
-23 -22 -34 35 c-40 41 -35 52 49 95 31 16 83 56 115 89 l60 61 -24 25 -24 25
48 49 48 48 -55 109 c-50 101 -88 216 -75 230 10 10 71 -27 114 -67 l40 -39
28 29 29 30 50 -25 50 -26 48 48 c45 44 50 46 66 32 10 -9 38 -26 63 -38 25
-12 62 -38 82 -58 l37 -35 78 26 77 27 26 -24 c14 -13 45 -34 70 -46 25 -12
62 -39 83 -59 l39 -36 48 53 c27 28 55 52 63 52 34 0 134 -43 162 -70 l31 -30
25 26 c13 14 47 37 74 51 28 14 66 40 85 58 22 20 61 41 105 55 91 30 182 75
220 110 31 29 82 59 101 60 6 0 18 -8 26 -17z"/>
</g>
</svg>
