<?xml version="1.0" standalone="no"?>
<!DOCTYPE svg PUBLIC "-//W3C//DTD SVG 20010904//EN"
 "http://www.w3.org/TR/2001/REC-SVG-20010904/DTD/svg10.dtd">
<svg version="1.0" xmlns="http://www.w3.org/2000/svg"
 width="3000.000000pt" height="4000.000000pt" viewBox="0 0 3000.000000 4000.000000"
 preserveAspectRatio="xMidYMid meet">
<metadata>
Created by potrace 1.16, written by Peter Selinger 2001-2019
</metadata>
<g transform="translate(0.000000,4000.000000) scale(0.100000,-0.100000)"
fill="#000000" stroke="none">
<path d="M5454 10027 c-45 -95 -100 -232 -124 -307 -23 -74 -58 -166 -77 -203
l-34 -69 26 -28 27 -28 -26 -49 -25 -50 28 -27 c32 -30 93 -156 113 -228 11
-44 10 -49 -9 -70 -21 -23 -68 -202 -108 -408 -20 -106 -59 -227 -97 -303
l-28 -57 26 -53 c15 -28 43 -71 62 -95 l35 -43 33 32 c18 18 32 35 32 38 -3
15 15 61 28 72 12 10 24 3 65 -37 l49 -48 118 57 c70 35 155 68 211 82 94 24
94 24 173 102 47 46 91 101 108 133 38 74 72 103 152 130 66 21 70 21 118 5
27 -9 50 -20 50 -24 0 -4 -9 -16 -21 -27 -20 -18 -20 -18 53 -55 l73 -37 22
20 21 20 19 -35 c10 -20 77 -98 149 -174 107 -113 142 -143 193 -168 l62 -29
67 67 66 66 -27 29 -27 28 25 25 26 25 -26 24 -26 24 66 66 66 66 154 -25 154
-25 24 22 23 22 57 -58 c31 -32 57 -62 57 -67 0 -5 -10 -19 -22 -32 l-22 -23
33 -30 c54 -50 107 -36 198 53 l53 51 22 -21 c34 -30 84 -54 102 -47 17 7 18
9 41 122 17 81 13 93 -47 158 -28 30 -28 30 -8 49 11 10 20 23 20 29 0 6 -21
31 -46 57 -64 65 -74 118 -37 194 21 42 35 57 67 72 23 10 60 36 84 57 l43 39
-52 53 -53 54 24 25 24 26 -48 97 c-42 85 -53 99 -89 117 -60 29 -67 48 -34
83 l27 28 -61 29 c-61 30 -62 30 -114 135 -29 58 -68 120 -87 137 l-34 33 -49
-50 -49 -50 -53 52 -52 51 -43 -39 c-24 -22 -58 -46 -76 -53 -30 -12 -35 -12
-55 6 -36 33 -63 43 -116 43 -42 0 -56 -5 -86 -32 l-36 -31 -68 67 c-43 43
-79 89 -96 127 -16 32 -32 59 -37 59 -5 0 -30 -11 -57 -24 l-48 -25 -54 55
-53 54 -26 -25 -26 -25 -24 25 -24 25 -56 -55 -56 -55 -69 23 c-39 13 -94 36
-122 51 -33 16 -116 39 -220 61 -93 19 -190 41 -218 50 -27 8 -86 15 -130 15
l-80 -1 -81 -172z m356 95 c19 -6 96 -23 170 -38 74 -15 158 -38 185 -52 28
-14 88 -38 135 -54 l84 -28 48 47 48 47 23 -22 c13 -12 27 -22 32 -22 5 0 19
10 32 22 l23 22 49 -48 48 -48 41 21 c23 12 45 21 50 21 5 0 17 -17 26 -39 10
-21 58 -78 107 -127 l89 -88 32 31 c77 73 108 74 180 5 l38 -36 52 25 c29 13
65 35 81 48 l28 24 53 -52 53 -52 44 52 c33 38 50 51 62 46 9 -3 42 -58 74
-121 48 -97 63 -118 96 -136 l38 -22 -21 -22 -21 -23 81 -76 c47 -46 90 -97
106 -128 l26 -51 -28 -29 -28 -29 48 -49 c32 -32 47 -55 43 -65 -3 -8 -33 -29
-66 -46 -54 -27 -64 -37 -92 -92 -25 -49 -30 -69 -26 -107 7 -71 11 -79 52
-121 l39 -40 -27 -27 -27 -27 56 -57 56 -57 -12 -71 c-7 -39 -17 -71 -22 -71
-5 0 -28 18 -51 40 l-43 39 -55 -55 c-63 -65 -140 -109 -158 -91 -8 8 -5 17
14 37 l25 26 -95 94 -95 94 -30 -29 -30 -29 -156 25 -155 26 -84 -91 -84 -90
19 -21 c25 -27 25 -33 -2 -62 l-21 -23 23 -25 23 -24 -29 -35 c-34 -41 -43
-42 -92 -17 -60 31 -294 277 -322 339 -13 28 -26 52 -30 52 -4 0 -17 -11 -30
-25 -27 -29 -39 -31 -66 -11 -19 14 -19 15 5 40 14 14 23 27 20 29 -2 2 -46
18 -97 36 l-94 32 -81 -27 c-97 -31 -128 -57 -172 -144 -21 -41 -59 -90 -102
-132 -67 -66 -69 -67 -171 -93 -59 -15 -143 -45 -197 -73 l-95 -46 -53 52
c-53 52 -53 53 -72 32 -10 -11 -29 -20 -42 -20 -21 0 -23 -4 -23 -49 0 -82
-31 -77 -76 11 l-24 48 25 50 c37 73 71 189 104 352 50 245 69 310 102 344
l29 30 -29 85 c-33 98 -74 184 -104 217 l-21 22 26 54 26 53 -25 25 -25 25 20
39 c10 22 43 110 72 197 29 88 85 227 125 311 l73 152 104 -11 c57 -7 119 -17
138 -23z"/>
</g>
</svg>
