<?xml version="1.0" standalone="no"?>
<!DOCTYPE svg PUBLIC "-//W3C//DTD SVG 20010904//EN"
 "http://www.w3.org/TR/2001/REC-SVG-20010904/DTD/svg10.dtd">
<svg version="1.0" xmlns="http://www.w3.org/2000/svg"
 width="3000.000000pt" height="4000.000000pt" viewBox="0 0 3000.000000 4000.000000"
 preserveAspectRatio="xMidYMid meet">
<metadata>
Created by potrace 1.16, written by Peter Selinger 2001-2019
</metadata>
<g transform="translate(0.000000,4000.000000) scale(0.100000,-0.100000)"
fill="#000000" stroke="none">
<path d="M10857 30915 c-17 -12 -17 -16 12 -72 17 -32 37 -66 43 -75 21 -29
-42 -82 -174 -149 l-118 -59 27 -55 27 -55 -21 -22 c-11 -13 -34 -50 -51 -83
l-30 -60 76 -77 76 -78 -27 -28 -27 -28 27 -26 27 -27 -18 -39 c-10 -21 -61
-85 -114 -141 l-97 -103 -45 26 c-25 14 -59 39 -75 56 l-29 31 -198 -198 -198
-197 27 -28 27 -28 -46 -48 c-48 -49 -67 -97 -89 -230 -7 -47 -5 -59 18 -106
22 -45 34 -57 79 -79 29 -15 100 -38 156 -52 l103 -26 80 -79 c71 -71 88 -82
155 -105 64 -22 85 -35 142 -92 l67 -66 -25 -30 -25 -30 40 -41 41 -40 39 38
c21 21 47 56 56 77 10 21 23 39 30 39 20 0 117 -36 170 -63 28 -13 97 -37 155
-52 58 -15 130 -40 160 -55 30 -15 87 -37 125 -50 39 -12 79 -31 89 -41 20
-18 20 -19 -4 -44 l-24 -25 37 -38 c33 -33 50 -41 135 -61 72 -17 105 -30 127
-51 17 -15 57 -42 91 -58 l61 -31 25 25 25 25 46 -22 47 -23 53 26 c49 23 55
24 92 11 73 -25 69 -21 50 -43 -18 -20 -18 -21 10 -50 l29 -30 -18 -55 c-20
-66 -12 -90 36 -101 52 -11 182 -144 225 -228 l34 -68 23 21 c29 27 34 27 47
-6 8 -22 6 -30 -18 -55 l-27 -29 71 -71 72 -72 27 59 c15 33 36 70 47 83 l21
22 22 -21 23 -21 88 29 88 29 30 56 c25 49 37 60 87 84 l58 28 -31 32 -31 32
22 69 c12 37 31 77 41 88 19 19 19 19 73 -7 l54 -27 92 100 c50 54 97 99 104
99 7 0 20 -8 29 -18 8 -9 66 -42 127 -72 l112 -55 78 82 c44 45 89 85 102 88
13 4 36 14 52 22 l29 15 -71 71 -71 72 23 95 c13 52 35 118 49 147 l27 52 -21
11 c-16 9 -25 8 -40 -6 -16 -15 -23 -15 -51 -3 -54 21 -186 156 -220 224 -18
37 -60 91 -108 140 -72 73 -81 87 -102 155 -19 62 -22 90 -18 160 5 92 4 94
-53 126 -27 14 -31 13 -127 -38 l-99 -53 -108 106 c-104 101 -111 106 -186
129 l-77 24 -29 -28 c-21 -20 -55 -34 -122 -51 l-94 -24 -118 117 c-118 117
-119 117 -199 276 l-80 160 -25 235 -26 236 -63 65 -64 65 -58 -58 c-52 -51
-67 -60 -130 -77 -40 -10 -72 -16 -72 -13 0 16 30 56 80 108 l58 60 -64 69
-65 69 -27 -26 -27 -27 -100 99 -100 100 -125 26 c-107 22 -130 30 -156 56
l-31 30 -57 -27 -56 -28 -92 22 c-62 15 -101 31 -118 47 -22 20 -27 22 -43 10z
m191 -112 c72 -17 73 -17 118 5 l46 22 27 -22 c20 -17 60 -29 151 -47 l125
-23 106 -112 107 -111 24 23 c32 29 39 28 73 -8 l29 -30 -41 -43 c-39 -40
-120 -184 -109 -194 3 -3 58 8 123 23 111 27 121 32 169 76 l50 48 38 -39 39
-39 26 -239 27 -238 79 -157 c80 -156 80 -157 213 -292 l133 -136 107 26 c74
19 115 34 133 51 l27 25 70 -23 c66 -21 78 -30 178 -130 l107 -108 100 50 c67
34 107 49 122 45 21 -5 22 -10 20 -98 -3 -78 1 -105 22 -168 23 -66 35 -85
108 -160 45 -47 88 -101 95 -120 19 -48 184 -216 243 -246 26 -13 47 -27 47
-30 0 -3 -14 -60 -31 -126 l-30 -121 56 -57 c54 -55 56 -58 33 -63 -12 -4 -56
-40 -97 -81 l-74 -75 -96 49 c-53 26 -109 62 -126 79 l-29 31 -107 -106 -106
-106 -50 26 -50 25 -35 -37 c-25 -26 -44 -62 -63 -120 -25 -77 -26 -85 -11
-101 22 -24 21 -26 -22 -45 -30 -13 -45 -30 -65 -71 -24 -50 -29 -54 -88 -74
l-63 -21 -31 30 -31 30 -36 -38 c-20 -20 -44 -54 -55 -75 l-19 -37 -32 33 -32
33 24 23 25 23 -37 74 -36 74 -27 -26 -27 -26 -25 48 c-31 60 -159 186 -207
204 -19 7 -36 15 -38 16 -2 1 4 28 14 58 18 56 18 57 -4 78 l-22 22 32 33 c23
24 28 34 17 38 -8 3 -52 18 -99 34 l-85 28 -52 -26 -53 -25 -54 26 -53 26 -25
-25 -25 -25 -44 22 c-24 12 -53 33 -64 47 -15 18 -48 31 -128 53 -137 37 -144
42 -112 84 l25 32 -33 32 c-22 21 -66 44 -132 67 -55 20 -111 43 -124 52 -13
8 -78 30 -146 48 -67 18 -132 39 -146 48 -26 17 -228 91 -233 86 -2 -2 -17
-31 -34 -65 -34 -67 -56 -92 -67 -74 -4 6 3 23 16 36 l23 25 -89 89 c-82 82
-95 92 -165 115 -67 23 -83 34 -155 105 l-80 79 -105 28 c-136 36 -185 63
-213 119 l-21 43 22 98 c22 95 24 100 79 155 l57 58 -24 25 -23 25 128 132
c71 73 143 148 161 167 l32 34 29 -24 c16 -13 53 -35 81 -48 l53 -25 111 110
c87 86 117 123 140 173 l29 63 -22 24 -22 24 23 25 24 26 -79 79 -78 79 14 33
c7 18 31 52 52 75 l38 42 -20 40 c-12 22 -21 44 -21 50 0 5 42 32 93 59 61 34
112 71 152 111 l59 61 -34 36 c-33 35 -34 36 -10 31 14 -4 58 -14 98 -24z"/>
</g>
</svg>
