<?xml version="1.0" standalone="no"?>
<!DOCTYPE svg PUBLIC "-//W3C//DTD SVG 20010904//EN"
 "http://www.w3.org/TR/2001/REC-SVG-20010904/DTD/svg10.dtd">
<svg version="1.0" xmlns="http://www.w3.org/2000/svg"
 width="3000.000000pt" height="4000.000000pt" viewBox="0 0 3000.000000 4000.000000"
 preserveAspectRatio="xMidYMid meet">
<metadata>
Created by potrace 1.16, written by Peter Selinger 2001-2019
</metadata>
<g transform="translate(0.000000,4000.000000) scale(0.100000,-0.100000)"
fill="#000000" stroke="none">
<path d="M8756 26592 c-18 -37 -43 -110 -56 -162 -12 -52 -31 -104 -41 -114
-18 -20 -19 -19 -68 4 l-51 23 -107 -28 c-86 -22 -115 -34 -143 -60 -19 -18
-57 -44 -85 -58 -92 -46 -93 -48 -121 -283 -29 -238 -42 -278 -113 -348 l-47
-46 -24 25 -24 25 -28 -27 -28 -27 -25 24 -25 23 -25 -23 -26 -24 -77 77 -78
78 -24 -26 -24 -26 -63 63 c-72 71 -71 73 16 118 31 15 72 44 91 64 l34 36
-53 54 -52 53 53 106 53 107 -65 65 -64 65 -28 -27 -28 -27 -27 26 c-16 14
-51 37 -79 51 l-51 26 -24 -25 -23 -24 -28 27 -28 27 -38 -36 c-20 -20 -60
-47 -87 -61 -28 -14 -68 -46 -91 -74 -33 -39 -53 -52 -99 -67 -97 -30 -177
-79 -202 -122 l-21 -38 33 -65 c18 -36 42 -74 53 -85 12 -10 33 -53 47 -95 20
-61 35 -87 70 -121 25 -24 45 -50 45 -57 0 -7 -10 -33 -22 -58 l-22 -45 31
-32 c17 -18 42 -55 56 -83 14 -27 35 -59 47 -70 12 -11 58 -92 102 -180 44
-88 94 -175 110 -194 43 -49 68 -113 61 -155 -5 -31 -3 -36 18 -40 22 -5 384
-46 401 -46 4 0 19 -21 32 -47 31 -60 86 -114 153 -147 62 -31 75 -49 102
-135 24 -76 22 -80 -58 -121 -31 -15 -67 -40 -81 -55 -14 -15 -52 -41 -85 -57
-33 -17 -61 -32 -63 -33 -7 -6 67 -141 86 -159 22 -19 70 -150 77 -208 3 -20
18 -46 39 -67 l35 -34 27 56 c16 32 32 57 37 57 31 0 180 -46 228 -71 l59 -29
51 26 51 26 29 -28 29 -28 65 64 64 63 -25 48 c-13 27 -24 55 -24 64 0 23 35
87 59 109 22 20 23 20 115 -3 87 -21 96 -25 142 -72 27 -28 65 -59 84 -69 20
-10 45 -34 55 -54 23 -42 33 -44 85 -14 37 22 39 22 59 4 11 -10 32 -54 47
-98 34 -104 58 -128 165 -166 l87 -31 23 26 c13 14 47 36 74 50 28 14 91 64
140 112 50 47 113 98 141 113 50 26 52 29 74 99 33 110 76 188 138 251 53 55
55 58 39 76 -23 25 -22 29 16 48 43 22 107 84 107 104 0 33 -19 38 -77 23 -51
-13 -56 -13 -69 4 -18 23 -18 22 11 133 l24 95 -26 27 -26 27 23 118 23 118
59 61 59 60 -26 24 -25 24 25 26 25 26 -27 27 -27 27 28 29 28 30 -71 35 -71
36 -50 -25 c-48 -24 -52 -25 -81 -9 -30 15 -30 16 -13 35 17 19 17 23 -10 107
-33 101 -45 118 -92 126 -19 4 -45 19 -58 33 l-25 26 26 50 25 50 -41 41 -41
40 -29 -28 -29 -28 -63 23 c-35 12 -72 29 -82 37 -16 15 -16 17 4 38 l22 23
-26 102 -25 102 24 33 25 32 -26 58 c-14 33 -47 80 -72 106 l-47 48 24 25 24
26 -42 41 -41 42 -26 -24 -25 -23 -24 22 -24 22 -49 -25 -50 -25 -37 38 -36
37 25 24 25 24 -47 48 c-33 33 -58 50 -83 54 -19 3 -54 12 -78 19 l-42 14 -34
-67z m119 -8 c29 -9 63 -25 76 -35 l24 -18 -27 -28 -28 -28 67 -67 66 -67 50
25 49 26 29 -28 29 -28 29 28 c38 36 54 15 17 -23 l-26 -27 56 -54 c31 -30 66
-76 79 -101 l24 -46 -25 -24 -24 -24 25 -104 26 -104 -31 -32 -30 -31 38 -36
c27 -26 61 -43 124 -64 l87 -28 25 24 c23 21 26 21 32 6 4 -10 -3 -39 -17 -67
l-23 -50 64 -64 c42 -43 68 -61 74 -55 6 6 13 10 17 10 7 0 49 -114 49 -132 0
-4 -13 -22 -30 -41 l-29 -34 70 -33 69 -34 53 26 c48 23 55 24 80 12 32 -17
33 -21 10 -46 -15 -17 -15 -20 7 -43 l24 -26 -27 -26 -27 -27 27 -28 27 -28
-46 -48 c-46 -47 -47 -48 -74 -185 l-27 -138 25 -25 25 -25 -25 -105 -24 -106
33 -34 c28 -29 38 -34 64 -28 46 10 18 -16 -55 -51 l-60 -29 30 -31 30 -31
-41 -39 c-46 -45 -95 -136 -129 -238 -20 -63 -25 -69 -68 -92 -26 -13 -81 -58
-122 -100 -41 -42 -97 -88 -125 -102 -27 -14 -62 -37 -77 -51 l-28 -25 -62 18
c-90 28 -112 51 -145 151 -19 59 -37 93 -59 115 l-32 31 -42 -22 c-23 -12 -39
-17 -36 -11 4 6 -20 24 -56 42 -35 17 -88 56 -119 86 -54 52 -60 55 -167 82
l-111 28 -29 -31 c-17 -17 -43 -58 -60 -91 l-30 -60 25 -49 25 -48 -38 -39
-38 -39 -23 22 -23 22 -53 -26 -53 -26 -45 24 c-26 13 -98 36 -162 52 l-115
29 -18 -39 c-16 -36 -19 -38 -31 -23 -7 10 -26 59 -43 110 -17 51 -40 101 -52
111 -19 18 -73 113 -66 119 2 1 21 12 43 23 22 11 49 30 60 42 11 12 45 35 75
50 30 16 70 44 89 63 l33 35 -27 84 c-32 97 -65 137 -146 178 -65 33 -100 71
-124 134 -20 51 -4 47 -240 71 -195 21 -198 21 -190 45 7 22 -43 126 -75 155
-12 11 -60 94 -105 185 -45 91 -93 174 -105 185 -12 11 -35 45 -50 75 -15 30
-37 63 -48 74 l-21 18 25 56 25 56 -55 55 c-45 47 -58 69 -80 137 -16 49 -37
91 -52 105 -31 29 -73 109 -67 127 3 6 10 12 17 12 7 0 25 13 41 30 18 19 55
39 105 55 62 21 85 35 126 76 27 28 74 63 105 79 30 16 61 35 68 44 18 21 34
20 56 -4 18 -20 18 -20 47 7 l28 27 42 -24 c24 -12 58 -37 75 -53 l33 -31 25
24 26 24 36 -36 37 -37 -49 -106 -48 -106 48 -49 c26 -26 45 -53 41 -58 -3 -6
-34 -26 -69 -45 -34 -20 -77 -51 -96 -71 l-34 -35 91 -93 91 -93 24 23 c13 12
28 22 34 22 6 0 42 -34 79 -75 l67 -76 29 27 28 28 28 -27 28 -27 24 25 24 25
26 -25 26 -25 61 63 c96 98 108 130 139 374 29 235 29 235 124 283 30 15 65
39 78 52 16 18 50 32 117 49 l95 23 57 -28 56 -27 32 33 c27 27 37 53 59 142
25 101 58 186 73 186 3 0 30 -7 58 -16z"/>
</g>
</svg>
