<?xml version="1.0" standalone="no"?>
<!DOCTYPE svg PUBLIC "-//W3C//DTD SVG 20010904//EN"
 "http://www.w3.org/TR/2001/REC-SVG-20010904/DTD/svg10.dtd">
<svg version="1.0" xmlns="http://www.w3.org/2000/svg"
 width="3000.000000pt" height="4000.000000pt" viewBox="0 0 3000.000000 4000.000000"
 preserveAspectRatio="xMidYMid meet">
<metadata>
Created by potrace 1.16, written by Peter Selinger 2001-2019
</metadata>
<g transform="translate(0.000000,4000.000000) scale(0.100000,-0.100000)"
fill="#000000" stroke="none">
<path d="M8531 13599 c-18 -21 -39 -39 -47 -39 -7 0 -34 10 -59 22 l-45 22
-46 -44 c-25 -25 -64 -67 -86 -93 l-41 -48 24 -25 c17 -18 20 -27 11 -36 -16
-16 -81 14 -123 58 l-32 33 -116 -58 c-113 -57 -117 -60 -143 -113 -14 -31
-38 -113 -53 -189 -15 -74 -38 -156 -52 -184 -14 -27 -61 -87 -106 -132 -76
-77 -80 -83 -65 -100 9 -10 19 -35 23 -55 10 -51 99 -139 189 -184 75 -39 75
-39 98 24 14 38 19 39 43 12 19 -21 19 -20 74 34 l56 55 94 -24 c88 -22 98
-27 150 -78 35 -35 87 -70 140 -97 l83 -41 -23 -25 -23 -24 36 -38 c22 -23 43
-61 56 -98 l20 -62 -45 -43 c-25 -24 -58 -71 -75 -104 -16 -33 -44 -75 -61
-92 l-31 -33 23 -23 22 -24 -33 -14 c-18 -7 -52 -31 -76 -53 l-43 -39 27 -29
28 -28 -22 -23 -22 -23 26 -135 27 -134 68 -70 c38 -39 69 -75 69 -81 0 -5
-16 -26 -36 -45 -20 -18 -52 -65 -71 -104 l-35 -69 22 -15 c13 -9 67 -37 120
-62 l98 -47 24 25 25 25 94 -47 c52 -26 109 -61 127 -78 l32 -31 27 26 26 27
46 -24 c25 -13 59 -37 75 -54 l30 -31 30 29 31 30 103 -26 103 -26 40 39 39
38 -29 30 -30 29 24 46 c13 25 37 59 54 76 l31 29 -55 56 -55 56 21 64 c13 40
35 79 55 100 l34 36 -27 26 -26 26 24 29 c13 16 35 52 48 81 l24 51 -34 38
c-41 45 -64 96 -55 120 6 13 22 1 86 -62 l80 -79 29 28 29 28 48 -25 c27 -14
58 -35 69 -47 11 -12 43 -33 70 -47 28 -14 66 -40 86 -59 l35 -34 24 25 24 25
22 -21 c17 -16 30 -20 50 -15 18 5 75 -4 161 -26 l133 -32 58 57 c54 54 61 66
89 155 17 53 41 141 54 194 l23 98 -31 32 c-17 18 -42 56 -56 83 -21 41 -34
55 -75 74 l-49 23 -22 137 c-11 75 -21 155 -21 177 0 58 -22 75 -56 44 l-24
-24 -53 52 -53 52 -44 -45 c-24 -25 -47 -45 -50 -45 -3 0 -16 21 -29 46 l-22
47 -33 -32 -32 -31 -64 21 c-36 12 -79 34 -95 50 -17 15 -50 35 -75 44 -25 8
-51 18 -59 20 -11 4 -10 9 4 25 18 20 18 21 -10 50 l-28 30 18 62 c15 50 31
75 76 123 31 33 69 85 84 116 14 31 39 69 56 85 l29 28 -49 51 -50 50 74 81
74 81 -49 48 c-48 47 -49 50 -32 68 9 11 38 30 65 43 42 22 46 27 36 45 -6 11
-16 19 -22 16 -7 -2 -36 -12 -65 -22 l-54 -17 -29 28 -29 28 -53 -52 c-53 -52
-54 -52 -71 -33 -10 11 -53 32 -95 46 -66 22 -86 34 -136 85 l-59 60 -36 -34
c-19 -19 -57 -45 -85 -59 -27 -14 -63 -39 -78 -55 -16 -16 -46 -38 -68 -48
l-40 -17 -52 50 -52 50 -110 17 c-148 23 -147 23 -133 46 11 16 8 24 -17 50
-40 41 -71 38 -114 -11z m73 -16 c3 -4 -8 -21 -25 -39 l-32 -33 24 -5 c13 -3
91 -17 173 -31 l150 -24 55 -55 56 -54 66 33 c37 19 69 40 72 48 3 8 36 32 74
52 37 21 73 46 80 54 10 14 18 10 60 -30 36 -35 65 -52 117 -69 43 -14 84 -36
108 -58 l39 -35 53 52 52 51 22 -23 c17 -18 19 -26 10 -35 -9 -9 -2 -23 35
-60 26 -26 47 -52 47 -58 0 -5 -31 -41 -70 -79 -38 -38 -70 -72 -70 -76 0 -4
21 -30 46 -58 l47 -52 -21 -22 c-11 -12 -30 -42 -42 -67 -12 -25 -46 -70 -75
-100 -45 -47 -57 -68 -81 -142 l-28 -87 22 -24 22 -23 -30 -29 c-36 -34 -35
-35 75 -71 45 -15 93 -39 110 -54 17 -16 66 -39 114 -55 77 -25 85 -26 96 -11
18 23 22 21 46 -26 12 -24 23 -45 25 -47 3 -3 29 19 59 49 l55 54 48 -54 c42
-46 52 -53 64 -42 19 15 18 18 48 -169 l23 -136 53 -26 c45 -22 58 -35 80 -79
14 -29 35 -63 46 -75 19 -21 19 -23 3 -100 -36 -163 -72 -258 -119 -309 l-43
-48 -77 18 c-62 15 -76 21 -72 34 3 10 1 24 -4 32 -8 12 -19 11 -80 -9 l-72
-23 -29 28 -29 28 -25 -24 -25 -23 -22 20 c-13 11 -43 31 -68 43 -25 12 -58
34 -75 49 -16 16 -56 42 -89 60 l-58 32 -24 -22 -25 -23 -77 77 -78 77 -25
-27 c-53 -59 -52 -57 -23 -115 14 -29 37 -65 51 -79 l25 -27 -22 -43 c-12 -24
-36 -59 -53 -76 l-31 -33 24 -25 23 -25 -20 -22 c-11 -13 -32 -63 -47 -112
l-28 -89 48 -48 47 -48 -24 -28 c-13 -16 -35 -52 -48 -81 l-24 -52 22 -24 c18
-20 20 -25 7 -35 -11 -9 -35 -7 -112 13 l-99 25 -22 -21 -22 -21 -28 24 c-16
13 -52 35 -81 48 l-52 24 -25 -23 -25 -24 -28 26 c-15 14 -74 49 -131 78
l-103 51 -28 -26 -28 -26 -81 40 c-44 23 -81 44 -81 47 0 20 41 78 93 132 l61
62 -83 84 -83 84 -25 122 -25 122 31 32 31 32 -25 24 -25 24 20 21 c11 12 47
34 80 50 l60 29 -30 31 -30 31 20 19 c11 10 30 39 41 64 11 25 47 73 80 106
l59 61 -30 88 c-16 49 -37 98 -47 108 -15 17 -15 20 11 47 l28 29 -53 28 c-30
15 -81 41 -114 56 -33 16 -87 55 -120 87 -58 57 -63 59 -165 84 l-105 26 -45
-44 c-25 -25 -50 -45 -56 -45 -6 0 -21 11 -34 25 l-24 26 -28 -56 -28 -55 -33
16 c-52 26 -137 115 -137 143 0 14 -10 35 -22 48 l-22 24 71 72 c92 93 117
147 152 315 39 193 50 211 162 267 l90 46 31 -26 c17 -14 53 -38 81 -51 l50
-26 40 41 41 40 -24 26 -24 25 64 65 63 64 50 -26 50 -25 46 46 c47 47 53 51
65 39z"/>
</g>
</svg>
