<?xml version="1.0" standalone="no"?>
<!DOCTYPE svg PUBLIC "-//W3C//DTD SVG 20010904//EN"
 "http://www.w3.org/TR/2001/REC-SVG-20010904/DTD/svg10.dtd">
<svg version="1.0" xmlns="http://www.w3.org/2000/svg"
 width="3000.000000pt" height="4000.000000pt" viewBox="0 0 3000.000000 4000.000000"
 preserveAspectRatio="xMidYMid meet">
<metadata>
Created by potrace 1.16, written by Peter Selinger 2001-2019
</metadata>
<g transform="translate(0.000000,4000.000000) scale(0.100000,-0.100000)"
fill="#000000" stroke="none">
<path d="M8937 19653 c-2 -4 -16 -44 -31 -89 -15 -45 -37 -90 -49 -101 -12
-11 -52 -30 -89 -42 l-66 -22 -52 26 c-29 15 -59 24 -68 20 -11 -4 -42 21
-101 79 l-86 86 -83 -27 -82 -27 -79 26 -79 25 -108 -109 c-71 -71 -128 -119
-164 -138 -30 -16 -74 -48 -98 -73 l-43 -44 -102 25 -102 25 -85 -87 c-95 -98
-116 -131 -161 -264 l-31 -93 23 -25 c23 -24 23 -25 3 -43 -10 -10 -48 -28
-84 -40 l-64 -21 -53 52 -52 52 -53 -25 c-29 -13 -65 -35 -81 -48 -28 -24 -30
-24 -43 -6 -24 32 -57 7 -77 -59 -10 -31 -22 -56 -28 -56 -5 0 -27 9 -48 19
l-38 20 -39 -40 -38 -39 26 -26 c25 -26 25 -28 11 -63 -8 -20 -26 -48 -40 -63
l-26 -27 -50 25 -50 26 -46 -46 c-26 -25 -51 -46 -56 -46 -5 0 -19 12 -31 27
l-22 27 -36 -71 -36 -72 26 -58 c14 -32 35 -68 47 -80 l20 -23 -23 -25 -24
-25 28 -29 c24 -25 26 -31 15 -55 -13 -28 -20 -31 -35 -17 -9 10 -175 71 -192
71 -6 0 -20 -42 -32 -92 -29 -127 -27 -124 -55 -136 -19 -9 -25 -19 -25 -45 0
-27 12 -45 78 -110 72 -72 81 -85 103 -154 13 -41 28 -77 35 -80 19 -7 213 46
268 74 28 14 65 37 81 52 21 20 60 36 134 55 57 15 125 38 150 51 l47 23 119
-24 120 -24 56 -56 57 -57 84 16 c45 9 120 23 165 31 111 21 164 50 253 140
l74 76 -64 65 -64 65 69 70 c61 62 78 73 145 95 54 18 87 36 110 60 l34 35
-24 24 -23 25 61 68 c33 37 83 90 111 117 l51 50 28 -27 28 -27 25 25 25 25
34 -35 34 -35 -24 -25 -24 -26 43 -42 42 -42 90 94 90 94 -26 26 -25 27 46 44
c25 25 54 65 65 90 11 25 30 55 41 67 21 23 22 23 42 4 12 -10 93 -55 182 -99
l161 -81 29 29 c26 26 45 31 184 55 l155 26 56 55 c48 48 59 66 80 132 20 66
32 86 83 140 l59 62 -23 25 c-22 23 -22 26 -7 43 19 21 58 130 88 246 l20 79
-28 23 c-15 13 -63 35 -105 49 l-78 27 -82 -27 c-46 -15 -92 -36 -103 -46 -21
-18 -22 -18 -80 41 l-59 60 32 33 32 32 -138 29 c-75 15 -147 30 -158 33 -12
2 -24 1 -27 -4z m166 -73 c57 -11 58 -12 41 -31 -17 -19 -15 -22 76 -114 l94
-95 36 34 c21 20 62 43 103 56 l67 24 68 -24 c94 -32 94 -33 76 -105 -34 -134
-57 -190 -92 -227 l-36 -38 27 -28 27 -28 -45 -44 c-34 -34 -50 -61 -70 -119
-19 -56 -38 -89 -71 -126 l-46 -49 -156 -28 c-123 -22 -161 -33 -180 -51 l-24
-22 -141 74 c-78 40 -158 89 -177 107 l-36 34 -36 -37 c-20 -21 -47 -60 -61
-88 -14 -27 -50 -78 -81 -111 -55 -61 -55 -62 -36 -79 11 -10 20 -23 20 -29 0
-20 -117 -129 -125 -116 -4 6 2 21 14 34 12 12 21 26 21 30 0 4 -28 37 -62 72
l-62 64 -28 -27 -28 -27 -25 24 -26 24 -144 -144 -145 -144 27 -28 c35 -37 23
-50 -80 -84 -87 -28 -111 -46 -199 -147 l-51 -58 63 -64 63 -63 -49 -52 c-72
-77 -140 -107 -308 -136 l-141 -24 -50 50 -50 50 -136 28 -136 29 -55 -28
c-31 -15 -102 -40 -159 -54 -78 -20 -112 -33 -134 -55 -16 -15 -50 -38 -75
-51 -53 -26 -222 -71 -231 -61 -4 4 -16 36 -28 72 -18 56 -32 76 -96 140 -75
74 -75 75 -51 87 20 10 28 30 47 108 13 52 28 95 34 95 34 0 115 -37 145 -66
20 -19 38 -34 41 -34 3 0 20 32 39 70 l34 70 -22 22 -22 22 27 28 27 28 -36
38 c-20 20 -45 56 -57 80 -20 40 -21 44 -5 73 l16 31 24 -23 24 -23 56 55 55
54 49 -27 48 -27 39 42 c21 23 49 66 62 95 l24 52 -23 25 c-18 20 -21 28 -12
37 9 9 25 6 67 -15 31 -15 57 -27 59 -27 2 0 9 20 15 44 6 25 16 57 21 72 l11
27 23 -22 24 -22 28 34 c16 19 49 44 73 57 l44 22 52 -52 52 -51 79 27 c57 19
90 37 119 65 l39 39 -27 28 -27 28 29 85 c41 122 61 156 139 233 l70 69 104
-26 103 -26 60 58 c33 33 83 70 111 84 33 17 82 59 141 121 50 53 97 96 105
96 8 0 43 -10 77 -21 l64 -22 74 24 74 23 64 -64 c61 -61 64 -65 48 -82 -16
-17 -16 -20 0 -35 15 -16 19 -15 56 5 l40 23 52 -27 52 -26 81 27 c97 33 146
74 163 138 25 93 28 96 70 87 21 -5 64 -14 96 -20z"/>
</g>
</svg>
