<?xml version="1.0" standalone="no"?>
<!DOCTYPE svg PUBLIC "-//W3C//DTD SVG 20010904//EN"
 "http://www.w3.org/TR/2001/REC-SVG-20010904/DTD/svg10.dtd">
<svg version="1.0" xmlns="http://www.w3.org/2000/svg"
 width="3000.000000pt" height="4000.000000pt" viewBox="0 0 3000.000000 4000.000000"
 preserveAspectRatio="xMidYMid meet">
<metadata>
Created by potrace 1.16, written by Peter Selinger 2001-2019
</metadata>
<g transform="translate(0.000000,4000.000000) scale(0.100000,-0.100000)"
fill="#000000" stroke="none">
<path d="M16934 9673 c-3 -10 -9 -27 -13 -38 -5 -12 2 -88 15 -180 l23 -160
-25 -100 c-22 -88 -30 -105 -67 -143 -23 -24 -64 -55 -91 -69 l-49 -25 -83 83
c-46 46 -85 81 -87 78 -2 -2 -16 -54 -32 -116 -15 -63 -34 -118 -44 -127 -16
-14 -21 -11 -66 34 l-49 50 -56 -55 -56 -55 -77 27 -77 28 -52 -52 -53 -51
-47 23 -46 24 -73 -24 -73 -25 -76 74 -75 75 -112 29 c-109 30 -112 30 -129
11 -9 -10 -22 -19 -28 -19 -7 0 -36 25 -66 55 -77 78 -90 75 -126 -29 l-28
-84 -46 23 -47 24 -67 -68 -67 -67 26 -24 25 -24 -25 -26 -25 -26 27 -27 27
-26 -23 -25 -23 -25 26 -77 26 -78 -30 -31 -30 -31 125 -124 c69 -69 125 -129
125 -135 0 -6 -18 -29 -41 -50 -62 -60 -89 -120 -83 -185 2 -29 9 -59 15 -66
7 -9 6 -20 -6 -38 -10 -14 -20 -26 -24 -26 -4 0 -16 -9 -28 -19 -11 -11 -43
-31 -72 -45 -28 -15 -51 -31 -51 -37 0 -5 9 -28 21 -50 18 -35 19 -45 8 -70
-6 -16 -24 -37 -39 -45 -63 -38 -62 -40 103 -202 84 -82 171 -171 194 -198
l42 -49 51 54 50 54 24 -22 24 -23 134 28 c73 15 138 32 144 38 6 6 21 45 34
86 26 89 75 189 96 197 8 3 25 -3 37 -14 17 -16 56 -25 182 -42 88 -12 163
-21 166 -21 3 0 14 18 24 40 l18 40 23 -21 23 -22 58 33 c32 18 69 43 83 56
19 17 57 30 145 49 l120 26 82 -28 82 -27 23 22 24 22 21 -22 22 -21 163 27
c223 38 208 30 160 80 -22 22 -50 60 -61 84 l-22 43 23 70 c20 63 32 81 114
167 78 83 93 95 107 84 13 -11 12 -21 -11 -92 l-26 -80 39 -41 40 -40 26 31
c15 17 33 30 40 29 18 -4 69 24 90 47 9 11 28 56 43 100 15 45 36 90 48 100
11 11 35 49 54 85 33 66 33 67 14 84 -25 23 -25 33 2 62 l22 23 -54 55 -54 54
24 76 c20 63 22 80 12 96 -11 18 -9 21 21 34 18 7 45 17 60 20 15 4 30 11 32
16 3 4 -8 37 -26 71 -21 44 -60 92 -125 158 l-95 96 26 24 25 24 -27 28 -27
28 24 25 24 25 -26 54 -27 54 23 73 c13 41 29 86 36 102 9 17 10 31 4 37 -5 5
-48 23 -94 40 -51 18 -97 42 -114 60 l-29 29 -61 -31 c-37 -18 -90 -58 -133
-101 -86 -84 -87 -84 -127 40 -15 45 -34 84 -42 87 -27 10 -44 6 -50 -11z
m116 -218 l34 -35 91 89 c49 49 105 97 124 106 32 16 34 16 55 -4 12 -12 57
-33 99 -47 42 -14 77 -29 77 -33 0 -4 -13 -47 -30 -95 l-29 -88 25 -50 26 -50
-28 -29 -28 -29 24 -25 23 -25 -21 -23 c-12 -13 -22 -28 -22 -33 0 -5 48 -57
106 -114 89 -88 155 -174 142 -185 -2 -1 -34 -12 -73 -25 -38 -12 -74 -25 -78
-27 -5 -3 6 -21 24 -39 l33 -34 -26 -79 -26 -79 49 -48 49 -48 -25 -26 -25
-26 27 -26 27 -27 -18 -40 c-10 -22 -31 -52 -47 -67 -18 -17 -38 -56 -55 -108
-29 -90 -67 -140 -97 -130 -12 4 -27 -2 -41 -15 -20 -19 -25 -20 -35 -7 -11
13 -8 29 12 89 l24 73 -36 42 -36 42 -117 -118 c-113 -114 -116 -119 -142
-199 l-27 -81 36 -71 c25 -51 32 -73 23 -76 -7 -2 -62 -12 -121 -21 l-108 -17
-29 28 -30 29 -29 -28 -30 -28 -74 25 -74 25 -136 -28 c-123 -24 -140 -31
-174 -61 -21 -19 -53 -41 -72 -49 -33 -13 -35 -13 -62 18 l-28 31 -25 -54
c-15 -34 -31 -55 -41 -55 -9 0 -76 9 -148 20 -119 19 -135 24 -162 50 l-31 30
-36 -38 c-43 -44 -72 -100 -108 -207 l-27 -79 -114 -23 -113 -23 -30 30 -30
30 -53 -52 -53 -53 -160 160 c-88 88 -160 164 -160 170 0 5 21 30 46 56 l46
46 -25 49 -25 49 47 27 c25 15 61 34 79 43 17 8 32 21 32 28 1 6 11 25 24 41
l24 29 -20 32 c-10 19 -25 39 -33 45 -22 18 24 102 96 175 l59 60 -127 133
-126 133 22 23 21 22 -26 78 -26 77 28 30 28 29 -24 25 -23 25 22 24 23 24
-23 31 -23 32 35 35 36 36 51 -26 c28 -14 55 -26 59 -26 4 0 19 36 32 80 13
45 28 83 34 87 5 3 37 -22 71 -56 l62 -62 24 26 c28 30 43 30 139 5 71 -18 78
-23 158 -102 l83 -83 79 28 78 28 57 -28 56 -27 53 52 53 52 74 -25 74 -25 46
45 c25 25 49 45 54 45 4 0 28 -23 53 -51 l46 -50 38 37 c31 30 41 50 55 110
10 41 21 79 25 86 6 9 28 -6 76 -54 l68 -66 55 28 c30 16 81 55 113 87 56 58
58 61 84 169 l26 109 -22 160 c-12 88 -21 167 -20 175 0 8 13 -20 27 -62 18
-51 39 -89 62 -113z"/>
</g>
</svg>
