<?xml version="1.0" standalone="no"?>
<!DOCTYPE svg PUBLIC "-//W3C//DTD SVG 20010904//EN"
 "http://www.w3.org/TR/2001/REC-SVG-20010904/DTD/svg10.dtd">
<svg version="1.0" xmlns="http://www.w3.org/2000/svg"
 width="3000.000000pt" height="4000.000000pt" viewBox="0 0 3000.000000 4000.000000"
 preserveAspectRatio="xMidYMid meet">
<metadata>
Created by potrace 1.16, written by Peter Selinger 2001-2019
</metadata>
<g transform="translate(0.000000,4000.000000) scale(0.100000,-0.100000)"
fill="#000000" stroke="none">
<path d="M4106 25090 l-98 -99 -47 23 c-25 13 -84 36 -131 51 l-85 28 -78 -84
c-98 -104 -137 -160 -137 -194 0 -29 43 -120 71 -151 18 -19 18 -22 4 -34 -9
-8 -28 -37 -42 -64 -14 -28 -35 -61 -46 -74 -31 -34 -30 -75 2 -105 14 -14 64
-37 111 -52 47 -14 100 -34 117 -43 l33 -16 42 41 43 41 46 -23 c29 -15 103
-83 203 -186 l157 -162 37 35 c20 20 55 45 77 56 l40 20 45 -23 c58 -30 191
-166 222 -227 36 -72 277 -312 350 -349 32 -16 62 -37 65 -45 3 -8 37 -31 74
-50 l69 -34 87 30 c48 17 89 33 91 34 2 2 -9 28 -23 56 l-27 53 71 71 72 72
277 26 c237 22 284 29 325 49 l47 23 53 -51 c48 -47 59 -52 147 -73 71 -17
103 -30 125 -51 23 -21 56 -34 142 -56 l112 -27 24 22 23 22 69 -71 c42 -42
94 -83 129 -100 l58 -30 24 22 24 22 24 -22 23 -22 122 31 c190 48 248 73 311
134 35 34 87 70 140 96 47 24 97 54 112 69 l27 26 -35 100 c-19 55 -46 111
-58 125 -23 25 -70 109 -64 115 2 1 21 12 43 23 22 11 49 30 60 42 11 12 45
35 75 50 30 16 70 44 89 63 l33 35 -27 84 c-32 97 -65 137 -146 178 -65 34
-100 71 -124 135 -10 25 -20 45 -24 46 -3 0 -116 12 -249 28 l-244 27 -9 -22
c-4 -13 -16 -49 -25 -81 -19 -68 -42 -97 -105 -128 -35 -18 -49 -21 -58 -12
-8 8 -4 19 19 42 l30 31 -88 28 c-110 36 -189 76 -225 114 l-29 30 -79 -26
-79 -26 -30 29 -30 29 -29 -28 -29 -28 -51 26 -51 26 -25 -50 -25 -50 -40 20
c-31 16 -47 34 -71 81 l-30 61 -29 -27 -29 -28 -28 24 c-16 13 -53 35 -82 49
l-53 24 -50 -52 -49 -52 -51 26 -50 25 -24 -22 -24 -22 -24 22 -24 22 -58 -29
c-33 -16 -84 -37 -114 -47 -30 -9 -85 -31 -123 -48 l-68 -30 -27 25 c-15 14
-74 49 -131 78 l-103 51 -30 -28 c-17 -15 -45 -58 -63 -94 l-34 -66 21 -21 21
-20 -30 -16 c-30 -15 -30 -15 -74 30 -34 34 -50 63 -70 122 -25 75 -27 78 -81
107 -91 49 -94 53 -61 87 l27 28 -88 89 -89 89 -103 26 c-57 14 -109 26 -117
26 -7 0 -57 -45 -111 -100z m218 29 c95 -24 84 -17 160 -97 l60 -62 -24 -25
-24 -25 35 -36 c19 -19 56 -47 83 -62 47 -26 51 -31 75 -104 22 -66 35 -87 83
-135 l57 -57 71 34 c38 19 70 36 70 39 0 3 -12 17 -27 33 l-26 28 18 39 c9 22
28 50 41 62 l24 23 83 -40 c45 -21 100 -56 123 -77 l41 -37 46 25 c25 14 83
38 129 54 45 15 102 38 125 50 54 27 63 27 89 -6 l22 -28 31 29 31 30 50 -24
51 -24 52 51 52 51 45 -23 c25 -13 58 -37 74 -54 l30 -31 22 21 23 21 20 -41
c17 -32 35 -48 81 -71 33 -16 62 -30 65 -30 2 0 16 23 30 50 l25 50 49 -24 48
-25 24 25 23 24 23 -22 23 -22 75 24 75 24 22 -21 c29 -26 126 -75 196 -97 28
-10 52 -20 52 -24 0 -3 -8 -14 -17 -24 -16 -18 -15 -21 22 -58 l38 -39 68 34
c80 41 108 75 138 167 22 66 23 66 54 62 46 -6 377 -44 388 -44 5 0 20 -21 33
-47 31 -60 86 -114 153 -147 62 -31 75 -49 102 -135 24 -76 22 -80 -58 -121
-31 -15 -67 -40 -81 -55 -14 -15 -52 -41 -85 -57 -33 -17 -61 -32 -63 -33 -7
-6 61 -131 84 -156 32 -34 87 -194 71 -207 -7 -5 -52 -30 -102 -55 -59 -30
-107 -63 -139 -96 -43 -44 -62 -55 -140 -80 -50 -17 -129 -40 -175 -51 l-84
-21 -26 31 -26 31 -29 -30 -29 -30 -41 20 c-22 12 -80 60 -128 107 l-88 86
-29 -28 -30 -29 -88 22 c-63 16 -96 30 -118 50 -23 22 -54 34 -130 52 -96 22
-102 26 -160 80 l-60 57 -55 -28 c-51 -26 -75 -30 -340 -54 l-285 -26 -82 -82
c-46 -46 -83 -88 -83 -96 0 -7 9 -30 20 -52 22 -44 24 -41 -47 -64 -51 -17
-52 -17 -100 7 -26 14 -57 35 -68 47 -11 12 -45 35 -75 50 -79 41 -298 264
-338 345 -38 76 -175 210 -248 244 l-51 23 -54 -27 c-30 -15 -64 -37 -77 -48
l-23 -21 -152 151 c-107 106 -168 159 -206 178 l-54 27 -38 -38 -38 -37 -116
37 c-119 38 -139 53 -112 84 8 9 27 42 42 72 15 30 41 70 58 88 l31 32 -31 33
c-17 17 -41 52 -53 76 -21 43 -22 44 -4 85 10 22 51 75 92 118 l74 76 71 -24
c40 -13 97 -37 128 -54 l55 -29 104 104 c58 58 108 105 113 105 4 0 45 -9 91
-21z"/>
</g>
</svg>
