<?xml version="1.0" standalone="no"?>
<!DOCTYPE svg PUBLIC "-//W3C//DTD SVG 20010904//EN"
 "http://www.w3.org/TR/2001/REC-SVG-20010904/DTD/svg10.dtd">
<svg version="1.0" xmlns="http://www.w3.org/2000/svg"
 width="3000.000000pt" height="4000.000000pt" viewBox="0 0 3000.000000 4000.000000"
 preserveAspectRatio="xMidYMid meet">
<metadata>
Created by potrace 1.16, written by Peter Selinger 2001-2019
</metadata>
<g transform="translate(0.000000,4000.000000) scale(0.100000,-0.100000)"
fill="#000000" stroke="none">
<path d="M3744 24300 c-77 -78 -118 -128 -139 -170 l-29 -60 34 -36 c19 -20
61 -49 92 -65 31 -16 60 -33 63 -39 10 -17 -24 -49 -85 -80 -67 -34 -89 -57
-128 -136 l-31 -61 37 -35 c20 -20 56 -46 80 -57 31 -16 42 -27 38 -39 -3 -9
-13 -48 -22 -87 -11 -46 -26 -80 -44 -100 -15 -16 -39 -53 -54 -81 l-25 -52
37 -25 c20 -14 51 -25 67 -25 17 0 73 -10 125 -22 l94 -21 136 27 c96 19 142
32 158 47 38 35 48 8 18 -50 l-25 -50 21 -40 c18 -36 29 -44 91 -67 l71 -26
30 29 c17 16 51 39 75 51 l43 22 34 -33 c40 -39 41 -45 13 -75 l-21 -22 35
-39 c19 -21 45 -58 57 -83 12 -25 24 -47 25 -48 2 -2 63 -16 135 -32 126 -26
134 -29 173 -69 l41 -41 -26 -53 -26 -54 107 -107 c107 -107 108 -108 136
-197 16 -49 31 -89 34 -89 3 0 18 12 33 27 l28 27 80 -39 c44 -21 80 -42 80
-45 0 -3 -5 -11 -12 -18 -10 -9 -9 -16 4 -28 14 -15 22 -14 85 6 l69 23 50
-26 50 -26 103 26 102 26 45 -44 c24 -24 44 -37 44 -30 0 6 -14 66 -30 132
l-30 119 24 48 c36 71 102 140 165 171 66 34 168 137 195 197 16 38 23 43 91
64 l73 23 93 -23 c52 -13 111 -32 133 -42 l38 -19 -23 -25 -23 -25 86 -87 c47
-48 97 -108 110 -134 12 -25 72 -97 132 -159 l109 -112 112 27 c108 26 114 29
161 77 27 28 70 61 95 74 l46 24 26 -27 27 -26 29 28 29 28 43 -22 c48 -24
179 -147 179 -167 0 -20 40 -40 110 -53 35 -6 91 -25 124 -42 l59 -30 89 90
90 89 -27 53 -27 53 50 51 c28 28 60 71 72 96 12 25 38 62 58 83 l36 37 -36
38 c-25 25 -43 60 -59 109 -33 106 -60 128 -197 162 l-110 28 -48 -48 -48 -49
-35 34 -34 35 138 143 c76 79 143 146 149 150 6 3 50 16 96 28 47 11 122 33
168 48 l82 26 52 -25 53 -26 85 29 86 28 57 117 58 116 -76 77 c-88 88 -90 78
37 151 42 24 82 54 87 66 10 21 6 25 -52 54 -34 17 -87 56 -118 86 -54 52 -60
55 -167 82 l-111 28 -29 -31 c-17 -17 -43 -58 -60 -91 l-30 -60 25 -49 25 -48
-38 -39 -38 -39 -23 22 -23 22 -53 -26 -53 -26 -45 24 c-26 13 -98 36 -161 52
l-115 29 -21 -41 -20 -41 -12 27 -13 28 -31 -24 c-17 -13 -72 -44 -121 -69
-59 -30 -107 -63 -139 -96 -43 -44 -62 -55 -140 -80 -50 -17 -129 -40 -175
-51 l-84 -21 -26 31 -26 31 -29 -30 -29 -30 -41 20 c-22 12 -80 60 -128 107
l-88 86 -29 -28 -30 -29 -88 22 c-63 16 -96 30 -118 50 -23 22 -54 34 -130 52
-96 22 -102 26 -160 80 l-60 57 -55 -28 c-51 -26 -75 -30 -340 -54 l-285 -26
-82 -82 c-46 -46 -83 -88 -83 -96 0 -7 9 -30 20 -52 22 -44 24 -41 -47 -64
-51 -17 -52 -17 -100 7 -26 14 -57 35 -68 47 -11 12 -45 35 -75 50 -79 41
-298 264 -338 345 -38 76 -175 210 -248 244 l-51 23 -54 -27 c-30 -15 -64 -37
-77 -48 l-23 -21 -152 151 c-104 104 -168 159 -204 177 -29 14 -54 26 -56 26
-2 0 -52 -50 -113 -110z m370 -151 l157 -162 37 35 c20 20 55 45 77 56 l40 20
45 -23 c58 -30 191 -166 222 -227 36 -72 277 -312 350 -349 32 -16 62 -37 65
-45 3 -8 37 -31 74 -50 l69 -34 87 30 c48 17 89 33 91 34 2 2 -9 28 -23 56
l-27 53 71 71 72 72 277 26 c237 22 284 29 325 49 l47 23 53 -51 c48 -47 59
-52 147 -73 71 -17 103 -30 125 -51 23 -21 56 -34 142 -56 l112 -27 24 22 23
22 69 -71 c42 -42 94 -83 129 -100 l58 -30 24 22 24 22 24 -22 23 -22 122 31
c190 48 248 73 311 134 36 35 87 70 146 99 l91 46 31 -31 31 -31 27 56 c16 32
32 57 37 57 31 0 180 -46 228 -71 l59 -29 51 26 51 26 29 -28 29 -28 65 64 64
63 -25 48 c-13 27 -24 55 -24 64 0 23 35 87 59 109 22 20 23 20 115 -3 87 -21
96 -25 142 -72 27 -28 66 -60 87 -70 47 -25 40 -37 -44 -79 -31 -16 -68 -43
-83 -61 l-27 -32 33 -36 c18 -20 53 -57 77 -83 l45 -48 -44 -90 -44 -89 -71
-24 -71 -24 -49 24 -49 25 -100 -31 c-56 -17 -140 -41 -189 -53 l-87 -23 -165
-165 -165 -165 71 -70 70 -70 49 53 c27 28 56 52 65 52 9 0 53 -9 100 -21 100
-25 115 -39 145 -134 12 -38 31 -83 42 -98 17 -25 18 -30 5 -45 -8 -9 -27 -42
-42 -72 -15 -30 -52 -81 -83 -112 l-56 -57 24 -50 23 -50 -57 -66 c-32 -36
-62 -65 -67 -65 -5 0 -27 9 -47 19 -21 11 -67 25 -102 31 -63 12 -67 15 -165
110 -59 58 -121 109 -151 124 l-51 25 -24 -25 -23 -25 -25 25 -24 25 -61 -31
c-37 -18 -79 -51 -107 -82 -45 -50 -50 -52 -144 -75 l-97 -23 -95 93 c-64 64
-104 113 -125 154 -17 34 -59 89 -96 127 l-66 68 28 29 28 30 -68 34 c-38 19
-116 47 -174 62 l-105 27 -86 -27 c-87 -28 -87 -28 -110 -79 -32 -69 -112
-152 -179 -186 -71 -37 -161 -130 -192 -200 -23 -51 -24 -58 -11 -105 21 -83
24 -80 -89 -108 l-102 -26 -50 26 c-42 21 -56 24 -86 16 -32 -9 -45 -5 -158
55 -119 61 -124 63 -143 46 -10 -9 -21 -15 -23 -13 -2 2 -11 29 -21 59 -15 47
-33 71 -118 157 l-101 103 26 53 26 54 -61 61 -62 60 -110 22 c-60 12 -117 23
-126 26 -9 2 -26 27 -39 54 -13 28 -32 58 -42 67 -18 16 -18 17 6 42 l24 26
-63 68 -63 68 -58 -29 c-33 -17 -69 -41 -82 -55 -23 -25 -24 -25 -74 -9 -69
22 -77 44 -47 116 l23 56 -39 40 -39 40 -36 -34 c-31 -30 -47 -36 -155 -56
l-120 -23 -120 25 c-115 23 -120 25 -123 50 -2 18 7 37 30 63 26 31 38 59 60
153 16 63 27 116 26 117 -2 2 -30 16 -64 33 -86 44 -90 50 -61 109 30 58 56
83 122 116 28 14 65 40 82 59 l33 34 -43 41 c-23 22 -65 52 -93 66 -27 14 -56
32 -63 40 -21 26 22 93 127 199 l95 97 47 -24 c30 -15 101 -79 204 -186z"/>
</g>
</svg>
