<?xml version="1.0" standalone="no"?>
<!DOCTYPE svg PUBLIC "-//W3C//DTD SVG 20010904//EN"
 "http://www.w3.org/TR/2001/REC-SVG-20010904/DTD/svg10.dtd">
<svg version="1.0" xmlns="http://www.w3.org/2000/svg"
 width="3000.000000pt" height="4000.000000pt" viewBox="0 0 3000.000000 4000.000000"
 preserveAspectRatio="xMidYMid meet">
<metadata>
Created by potrace 1.16, written by Peter Selinger 2001-2019
</metadata>
<g transform="translate(0.000000,4000.000000) scale(0.100000,-0.100000)"
fill="#000000" stroke="none">
<path d="M17350 26282 c0 -5 -26 -16 -57 -26 -32 -10 -74 -33 -93 -50 -19 -17
-54 -39 -76 -49 -41 -19 -41 -19 -90 6 l-49 25 -65 -33 c-43 -22 -90 -59 -140
-110 -41 -42 -97 -88 -125 -102 -27 -14 -60 -35 -73 -46 l-22 -21 -94 23 c-85
20 -97 26 -138 69 -26 26 -60 75 -77 109 l-31 62 -87 -30 c-48 -16 -97 -39
-110 -51 l-23 -21 -50 23 -51 24 -47 -46 c-72 -69 -106 -98 -115 -98 -4 0 -24
-7 -44 -15 l-36 -15 28 -30 29 -30 -21 -22 c-11 -13 -31 -43 -43 -66 -17 -36
-25 -43 -43 -39 -12 3 -62 13 -112 23 -103 20 -175 51 -225 100 l-36 34 -94
-95 -94 -95 28 -29 c27 -29 28 -29 11 -62 -26 -50 -103 -137 -136 -155 -25
-12 -29 -21 -30 -57 -2 -72 -11 -90 -63 -118 -26 -14 -88 -66 -137 -115 l-89
-89 64 -65 c35 -36 75 -87 89 -115 14 -27 39 -63 56 -79 l31 -30 25 24 26 24
26 -27 27 -27 47 46 47 46 22 -66 c30 -92 60 -115 185 -145 74 -17 108 -30
130 -51 17 -15 64 -39 105 -54 58 -21 87 -39 130 -81 45 -43 69 -57 127 -76
63 -20 81 -31 140 -91 l67 -68 -50 -52 c-28 -29 -61 -77 -74 -105 l-23 -53 24
-52 c13 -29 35 -65 48 -81 l24 -29 -26 -52 -25 -53 73 -73 74 -73 -26 -34
c-28 -36 -39 -40 -62 -19 -9 7 -65 40 -125 72 l-109 58 -104 -53 c-127 -65
-157 -89 -190 -155 -33 -67 -76 -112 -138 -143 -27 -14 -60 -37 -72 -50 l-23
-24 24 -48 c14 -26 32 -53 41 -61 14 -12 13 -16 -11 -41 l-26 -27 72 -75 c39
-42 72 -78 73 -81 1 -3 -17 -28 -39 -54 -23 -26 -51 -68 -64 -92 -12 -25 -37
-61 -56 -80 l-34 -36 105 -111 104 -111 -25 -76 -26 -77 21 -23 21 -22 -25
-24 -25 -24 42 -43 42 -43 36 34 c19 19 54 43 77 55 l43 21 47 -24 c27 -13
104 -35 172 -49 139 -29 165 -45 157 -92 -5 -29 -3 -31 52 -55 31 -13 74 -40
95 -59 l37 -33 105 26 105 26 98 -49 c53 -27 108 -61 122 -76 14 -15 48 -38
75 -52 28 -14 86 -61 130 -104 l81 -80 109 -28 110 -29 27 25 26 25 69 -22
c37 -12 80 -33 94 -47 40 -37 74 -24 94 36 10 31 33 65 69 100 29 29 65 78 81
111 l28 59 -34 38 c-19 21 -42 56 -52 79 l-19 41 27 53 c14 28 24 55 20 58 -3
4 -32 20 -62 37 -73 39 -84 57 -55 88 l22 23 -28 28 c-16 15 -39 49 -52 76
l-23 49 23 56 23 55 -23 118 c-28 145 -76 300 -101 327 -18 20 -18 21 0 40 13
14 27 64 46 161 l27 141 -25 49 -25 49 24 45 c13 25 23 50 24 55 0 6 -21 34
-46 63 -45 51 -46 54 -33 85 7 18 42 62 78 100 l65 67 -27 28 -27 28 43 42
c31 30 62 48 117 67 57 19 86 36 122 72 l48 47 25 -24 25 -23 25 23 25 24 28
-27 28 -27 30 31 c16 17 48 42 72 56 l43 26 28 -27 27 -26 80 26 c58 19 90 37
119 65 l40 39 -60 115 c-54 102 -64 116 -100 132 -22 9 -71 47 -108 83 l-68
65 -52 -28 -51 -27 -28 27 -28 27 -27 -27 -28 -26 -49 27 c-69 38 -75 51 -48
107 l22 45 -26 109 c-18 79 -31 114 -49 131 l-23 22 25 54 25 55 -34 37 c-18
20 -41 56 -51 78 -19 41 -19 42 3 85 12 24 36 59 53 77 l31 32 -31 33 c-17 17
-43 57 -58 87 -15 30 -36 65 -47 76 -19 22 -19 22 6 72 25 49 25 50 6 67 -26
23 -27 86 -2 107 9 9 37 26 62 38 44 22 160 126 160 144 0 5 -48 60 -106 122
-88 95 -111 114 -135 114 -16 0 -29 -4 -29 -8z m124 -131 l89 -90 -38 -43
c-21 -24 -67 -58 -101 -76 -35 -17 -71 -43 -79 -56 -20 -30 -18 -104 3 -129
14 -16 14 -22 -6 -63 -28 -57 -28 -65 4 -95 14 -13 37 -46 51 -74 14 -27 34
-60 45 -72 l21 -22 -24 -28 c-13 -16 -35 -52 -47 -79 l-24 -51 30 -59 c16 -32
39 -67 50 -78 l21 -18 -27 -54 -26 -54 31 -32 c24 -26 36 -53 53 -128 l23 -95
-27 -54 -28 -54 36 -36 c20 -20 61 -49 91 -65 l56 -29 24 23 25 23 25 -23 25
-23 50 23 50 23 52 -49 c29 -27 72 -58 96 -69 35 -15 49 -29 69 -69 14 -28 39
-66 56 -83 l31 -33 -20 -27 c-14 -19 -45 -37 -95 -54 l-74 -27 -27 26 -28 26
-52 -25 c-29 -13 -65 -35 -81 -48 l-28 -24 -24 23 -25 23 -25 -23 -25 -23 -25
23 -25 24 -58 -57 c-47 -46 -71 -61 -132 -82 -63 -21 -85 -35 -137 -87 l-62
-61 21 -30 21 -29 -41 -41 c-22 -23 -54 -71 -72 -106 l-32 -64 52 -52 52 -52
-25 -49 -25 -48 26 -53 26 -52 -23 -123 c-19 -106 -27 -127 -52 -153 -16 -17
-29 -36 -29 -41 0 -6 13 -23 30 -39 37 -35 63 -112 99 -286 l28 -136 -28 -54
-27 -54 33 -66 c18 -36 41 -71 50 -79 14 -12 14 -15 -9 -39 l-25 -26 35 -37
c18 -21 52 -47 74 -58 22 -11 40 -22 40 -25 0 -2 -9 -24 -21 -48 l-21 -43 30
-60 c16 -32 39 -67 51 -78 l20 -18 -21 -42 c-11 -22 -44 -66 -73 -97 -33 -34
-58 -72 -66 -97 -14 -48 -19 -50 -44 -22 -10 11 -55 32 -101 47 l-84 27 -28
-27 -28 -27 -97 27 -97 26 -74 78 c-49 52 -94 88 -134 108 -33 16 -62 37 -65
45 -4 9 -60 42 -125 75 l-119 60 -97 -25 -97 -25 -32 28 c-18 15 -52 37 -75
47 -36 16 -43 24 -39 42 3 16 -6 32 -29 55 -29 28 -48 35 -166 59 -79 16 -154
38 -185 53 l-53 27 -58 -29 c-32 -16 -64 -36 -71 -45 -14 -17 -41 -22 -41 -8
0 5 11 19 25 32 l25 24 -30 31 -30 31 26 78 27 78 -97 97 c-53 53 -96 101 -96
107 0 7 7 17 16 25 9 7 28 38 44 68 16 31 54 81 84 111 l56 54 -77 78 -77 77
23 25 24 25 -37 41 c-32 36 -36 46 -30 73 8 38 -1 30 59 60 61 30 95 66 128
132 34 67 66 95 172 148 l90 45 90 -45 c49 -25 107 -61 128 -81 l37 -36 70 69
70 70 -81 81 -81 81 26 50 25 50 -28 27 c-15 15 -38 49 -51 76 -23 50 -23 50
-4 92 10 24 45 71 78 106 l60 63 -89 89 c-82 82 -95 92 -164 115 -61 20 -86
36 -131 79 -44 43 -69 58 -125 76 -39 13 -83 35 -100 51 -22 20 -56 34 -129
53 -124 31 -142 48 -180 170 l-28 88 -57 -56 -57 -56 -24 25 -24 25 -27 -26
c-15 -14 -32 -23 -38 -19 -6 3 -25 34 -42 68 -17 34 -51 83 -75 108 l-44 45
77 75 c43 41 97 83 121 93 35 16 44 26 52 58 6 21 14 55 20 76 6 24 28 56 66
92 50 50 114 151 114 182 0 6 -9 21 -20 33 l-20 21 60 59 60 59 22 -21 c44
-40 124 -71 252 -97 71 -14 135 -26 143 -26 7 0 24 24 37 53 13 28 37 65 55
81 35 33 38 48 16 66 -20 17 -12 24 55 45 72 23 72 23 59 47 -9 16 -7 24 11
43 l22 24 54 -27 54 -26 33 32 c25 24 127 72 153 72 2 0 15 -21 28 -47 13 -27
49 -72 79 -101 52 -51 59 -55 165 -81 l111 -28 28 29 c15 17 51 41 78 55 28
14 91 64 140 112 50 48 105 93 123 101 30 12 38 11 78 -8 25 -12 51 -22 60
-22 23 0 90 37 130 73 29 25 127 71 164 76 3 1 45 -39 94 -88z"/>
</g>
</svg>
