<?xml version="1.0" standalone="no"?>
<!DOCTYPE svg PUBLIC "-//W3C//DTD SVG 20010904//EN"
 "http://www.w3.org/TR/2001/REC-SVG-20010904/DTD/svg10.dtd">
<svg version="1.0" xmlns="http://www.w3.org/2000/svg"
 width="3000.000000pt" height="4000.000000pt" viewBox="0 0 3000.000000 4000.000000"
 preserveAspectRatio="xMidYMid meet">
<metadata>
Created by potrace 1.16, written by Peter Selinger 2001-2019
</metadata>
<g transform="translate(0.000000,4000.000000) scale(0.100000,-0.100000)"
fill="#000000" stroke="none">
<path d="M20073 37122 c-122 -27 -123 -27 -176 -80 -52 -51 -55 -57 -78 -155
-20 -89 -29 -108 -63 -145 l-40 -43 -22 43 c-12 24 -37 58 -56 75 l-34 33 -36
-38 c-30 -31 -44 -63 -91 -212 -31 -96 -66 -214 -77 -262 -35 -138 22 -123
-597 -153 l-531 -27 -48 25 c-27 14 -60 37 -74 52 -14 15 -51 40 -84 57 l-58
30 -34 -33 c-24 -24 -47 -66 -80 -153 -67 -172 -106 -245 -159 -296 -32 -31
-64 -79 -102 -155 -46 -92 -69 -124 -139 -196 -46 -48 -84 -94 -84 -103 0 -8
17 -24 38 -35 46 -24 74 -53 102 -111 12 -25 46 -70 76 -100 l54 -56 26 -131
26 -131 82 -85 81 -85 112 -28 113 -28 23 22 23 22 94 -96 c60 -60 116 -106
150 -124 30 -15 68 -42 84 -59 l30 -31 27 26 c26 25 30 26 61 13 18 -7 62 -41
98 -75 36 -34 88 -73 115 -87 28 -14 63 -39 80 -56 l29 -31 61 59 c42 41 88
73 154 106 l93 46 30 -28 29 -28 50 53 c28 28 56 52 62 52 7 0 54 -10 104 -22
l93 -22 28 27 c15 15 61 38 102 52 41 14 84 35 97 47 l24 22 141 -141 142
-142 -24 -81 -23 -82 123 -123 c116 -116 123 -125 108 -142 -9 -10 -30 -47
-48 -82 l-31 -63 25 -27 26 -28 -21 -94 c-18 -78 -27 -100 -55 -129 l-34 -36
37 -36 c21 -20 61 -48 90 -62 28 -14 58 -35 66 -46 7 -11 29 -23 48 -26 45 -9
75 -37 109 -104 24 -47 36 -59 79 -79 27 -13 64 -38 81 -56 l31 -32 132 23
c211 38 229 32 148 -50 l-51 -52 75 -74 c41 -41 75 -79 75 -84 0 -5 -8 -19
-19 -30 -10 -12 -30 -57 -45 -100 l-26 -80 21 -22 21 -23 -20 -28 c-10 -15
-29 -48 -42 -73 -12 -25 -37 -61 -55 -80 l-33 -35 64 -69 65 -69 31 30 30 31
79 -26 79 -26 35 34 c19 19 35 38 35 44 0 5 -12 22 -26 37 l-26 28 18 95 c10
53 21 96 26 96 4 0 21 -26 37 -58 33 -66 86 -118 147 -146 31 -13 47 -29 60
-57 l17 -40 -32 -33 -31 -32 52 -25 c29 -13 71 -40 94 -60 38 -33 54 -39 166
-60 108 -21 127 -28 158 -56 l35 -32 77 77 78 76 50 -49 51 -50 49 28 49 28
42 -21 c36 -19 41 -25 36 -48 -3 -15 -13 -78 -23 -141 -14 -95 -22 -119 -44
-145 -15 -17 -37 -51 -50 -76 -12 -25 -69 -92 -125 -150 -97 -98 -103 -106
-89 -124 14 -20 15 -20 58 1 l43 21 25 -24 25 -25 113 30 113 30 86 84 c65 64
106 95 170 126 l83 42 27 -25 c15 -14 30 -26 33 -26 4 0 22 16 41 37 l35 36
-28 82 c-15 45 -39 153 -54 241 -31 188 -68 307 -106 349 -15 17 -38 62 -50
100 -12 39 -34 82 -48 98 l-26 27 26 133 26 132 -28 30 c-23 25 -32 50 -50
140 -12 61 -24 120 -27 131 -3 13 -21 29 -44 39 -40 18 -47 29 -29 40 6 4 26
37 45 74 l34 68 -32 31 c-18 16 -61 44 -96 62 l-63 32 -32 -31 c-27 -26 -49
-34 -149 -55 l-118 -24 -72 25 c-40 13 -85 37 -102 52 -17 16 -61 38 -100 51
-58 19 -81 33 -137 86 -36 35 -72 64 -79 64 -31 0 13 20 121 55 102 33 121 43
165 86 l51 49 25 -25 25 -25 27 28 28 29 159 -27 159 -27 32 95 31 94 -25 26
-25 25 26 54 26 53 -264 266 -265 265 -155 81 c-195 101 -225 129 -300 278
l-58 115 -85 28 -86 28 -50 -26 -51 -25 -52 26 -52 26 -65 -31 c-116 -55 -475
-171 -529 -171 -4 0 -19 44 -32 99 l-23 98 -101 24 c-58 14 -110 32 -124 44
-21 18 -22 23 -11 48 7 15 15 27 19 27 3 0 26 -20 50 -45 l44 -45 92 91 93 92
-51 59 -51 58 18 41 c15 31 30 46 69 66 28 14 63 36 77 50 18 17 58 33 125 50
55 13 108 33 120 44 41 38 49 10 8 -32 l-25 -26 76 -28 76 -28 -22 -23 c-12
-13 -21 -26 -18 -28 2 -2 29 -16 59 -31 30 -15 83 -54 116 -87 l62 -60 65 68
65 69 -25 49 -25 49 76 76 c42 42 76 81 76 86 0 6 -74 84 -165 175 l-164 164
-52 -24 -51 -24 -22 25 c-13 15 -28 59 -40 112 l-19 88 100 102 100 102 27
115 26 114 -32 33 c-32 32 -37 33 -218 59 l-185 27 -111 -21 c-61 -12 -117
-22 -126 -22 -14 0 -88 148 -88 175 0 6 18 29 41 50 49 47 116 173 97 180 -38
13 -219 55 -235 54 -10 0 -73 -13 -140 -27z m235 -38 c37 -9 71 -20 75 -24 14
-13 -22 -72 -81 -133 l-56 -57 47 -95 c26 -52 47 -106 47 -119 0 -15 9 -27 25
-34 36 -17 52 -15 67 7 9 13 42 25 110 38 l96 20 168 -24 c143 -20 173 -28
192 -47 l23 -22 -23 -92 -22 -91 -107 -107 -106 -106 29 -116 c24 -98 34 -122
62 -150 l33 -34 53 27 53 27 137 -144 138 -143 -73 -75 -73 -75 26 -53 26 -52
-37 -37 -37 -37 -47 46 c-27 25 -63 53 -80 62 -37 18 -40 28 -18 46 14 12 14
15 0 30 -9 10 -36 23 -61 30 -53 15 -61 25 -40 49 15 16 13 20 -24 56 l-40 39
-32 -31 c-26 -24 -54 -36 -133 -54 -81 -20 -107 -31 -140 -59 -22 -19 -59 -43
-81 -53 -33 -15 -46 -30 -73 -84 l-32 -66 47 -48 48 -48 -55 -58 c-30 -32 -59
-59 -65 -61 -6 -1 -32 20 -58 48 -27 28 -49 50 -51 48 -1 -2 -19 -35 -39 -75
l-35 -71 37 -34 c29 -26 57 -38 134 -56 l96 -23 27 -110 c22 -90 30 -109 44
-105 9 3 61 16 116 30 128 32 408 127 461 156 l41 22 51 -26 52 -26 50 25 51
26 71 -23 71 -23 44 -95 c68 -146 127 -201 323 -300 l155 -78 246 -254 246
-253 -26 -53 -25 -52 26 -26 c26 -26 26 -27 11 -78 -8 -28 -19 -55 -24 -60 -5
-6 -64 0 -147 14 -136 23 -149 23 -184 -2 -14 -10 -21 -8 -43 12 l-25 24 -63
-61 c-60 -59 -67 -62 -202 -107 -77 -26 -153 -53 -170 -60 l-30 -13 75 -37
c42 -21 99 -61 130 -91 43 -41 70 -58 123 -75 37 -12 84 -36 105 -53 22 -19
70 -42 115 -56 l76 -24 132 26 c97 20 139 33 156 49 22 21 23 21 62 3 22 -10
49 -28 61 -40 l21 -23 -21 -43 c-12 -24 -37 -60 -56 -80 l-34 -35 59 -29 c39
-18 61 -35 65 -49 2 -12 14 -70 26 -131 16 -81 28 -117 45 -135 l23 -25 -25
-128 -26 -128 30 -32 c20 -21 38 -58 53 -107 14 -47 32 -86 50 -105 38 -39 72
-153 100 -325 11 -74 32 -172 46 -218 20 -66 23 -87 13 -98 -10 -13 -15 -12
-36 8 l-24 22 -102 -50 c-84 -40 -118 -64 -192 -135 -89 -85 -91 -86 -179
-108 l-89 -22 -26 25 -25 26 56 57 c31 32 68 83 83 113 15 30 40 69 55 85 25
27 31 48 54 187 14 86 26 161 26 167 0 6 -28 25 -62 42 l-62 31 -52 -25 -51
-25 -54 54 -53 54 -78 -77 -77 -77 -23 21 c-16 14 -60 28 -142 44 -100 20
-126 29 -157 55 -20 17 -51 37 -68 44 l-32 13 21 22 21 22 -32 66 c-27 54 -40
69 -73 84 -60 27 -104 69 -136 132 -15 31 -46 73 -68 95 -47 45 -40 58 -78
-137 l-27 -138 22 -23 c18 -19 19 -25 8 -34 -11 -9 -31 -6 -87 13 l-74 25 -23
-22 -24 -22 -36 37 -37 36 21 23 c11 13 31 43 43 68 12 25 37 61 56 81 l34 35
-29 28 -29 28 24 71 c14 40 37 85 53 102 l29 30 -74 80 -73 80 49 50 50 51
-39 39 -40 38 -153 -25 -153 -26 -30 28 c-16 15 -49 37 -72 49 -33 16 -49 34
-69 74 -35 69 -70 105 -110 113 -18 3 -39 13 -46 21 -6 8 -37 27 -67 43 -31
15 -65 37 -75 49 -19 21 -19 22 1 44 12 13 31 67 47 131 l27 110 -25 24 -25
25 24 46 c13 25 37 59 54 76 l32 29 -133 133 -132 133 25 78 26 78 -166 173
-166 173 -33 -34 c-22 -24 -54 -41 -105 -57 -39 -13 -84 -35 -100 -49 l-27
-26 -105 25 -104 26 -48 -49 -47 -48 -25 25 -25 25 -106 -56 c-59 -32 -126
-76 -152 -102 -44 -42 -49 -44 -65 -30 -10 9 -38 26 -63 38 -24 13 -72 49
-105 80 -33 32 -88 71 -121 88 -61 31 -62 31 -79 12 -22 -24 -38 -25 -56 -4
-7 9 -38 29 -70 44 -41 21 -84 58 -155 135 -54 58 -103 105 -108 105 -6 0 -22
-12 -37 -26 l-27 -26 -89 22 c-86 22 -90 25 -164 97 l-76 74 -23 127 -24 127
-63 67 c-35 37 -63 73 -63 81 0 26 -61 108 -95 128 l-35 21 76 80 c62 65 85
99 121 177 32 70 60 111 99 151 58 60 92 123 164 305 23 61 53 121 65 133 l22
24 49 -25 c27 -14 58 -35 69 -47 11 -12 45 -35 76 -50 l55 -28 260 13 c142 7
387 19 543 26 l285 13 32 28 c26 23 35 44 54 121 32 131 129 429 148 449 20
24 35 11 73 -63 16 -32 34 -61 40 -65 6 -4 36 19 71 53 59 59 60 61 84 165 24
100 27 107 75 154 48 47 54 50 152 70 128 27 143 28 225 8z"/>
</g>
</svg>
