<?xml version="1.0" standalone="no"?>
<!DOCTYPE svg PUBLIC "-//W3C//DTD SVG 20010904//EN"
 "http://www.w3.org/TR/2001/REC-SVG-20010904/DTD/svg10.dtd">
<svg version="1.0" xmlns="http://www.w3.org/2000/svg"
 width="3000.000000pt" height="4000.000000pt" viewBox="0 0 3000.000000 4000.000000"
 preserveAspectRatio="xMidYMid meet">
<metadata>
Created by potrace 1.16, written by Peter Selinger 2001-2019
</metadata>
<g transform="translate(0.000000,4000.000000) scale(0.100000,-0.100000)"
fill="#000000" stroke="none">
<path d="M3389 18114 c-36 -18 -71 -40 -79 -49 -12 -14 -15 -13 -39 9 l-27 26
-88 -89 -89 -90 -28 -193 -28 -193 21 -22 21 -23 -20 -22 c-11 -13 -33 -60
-48 -106 l-27 -83 23 -25 23 -25 -62 -61 -61 -62 -46 22 c-25 12 -52 22 -59
22 -8 0 -74 -64 -147 -142 -130 -138 -135 -146 -158 -219 l-24 -76 27 -59 c15
-33 38 -70 51 -84 l24 -25 -24 -94 c-22 -86 -28 -99 -73 -145 -28 -28 -61 -73
-75 -101 -14 -27 -39 -63 -56 -79 -37 -36 -38 -46 -6 -76 l24 -23 -23 -46
c-13 -25 -34 -55 -46 -66 -12 -11 -37 -50 -56 -86 -18 -37 -47 -78 -63 -92
-39 -32 -39 -51 -1 -74 16 -9 30 -21 30 -26 0 -5 13 -7 30 -4 30 6 216 -23
443 -69 l129 -27 56 55 c54 53 62 57 152 78 97 23 312 121 340 154 12 15 15
15 39 -9 l27 -25 54 56 c30 31 78 67 105 81 28 14 64 38 80 53 28 27 33 28 80
20 28 -5 103 -16 168 -26 l117 -17 55 -56 54 -56 54 27 54 26 78 -78 78 -79
50 29 c48 27 51 28 83 12 l34 -16 -21 -22 -22 -23 28 -33 c49 -59 48 -60 169
60 105 104 115 111 183 133 62 19 81 31 133 84 l60 61 -25 73 -24 72 32 14
c18 7 46 17 61 21 33 8 55 47 38 67 -7 8 -30 19 -52 26 -35 10 -44 20 -67 66
-21 42 -35 57 -67 72 -22 10 -53 29 -69 42 l-28 24 50 51 51 52 -51 49 c-28
28 -64 75 -79 106 l-29 57 27 81 26 81 -64 65 -64 65 -56 -54 -55 -55 -35 19
c-19 11 -71 31 -115 46 -44 14 -89 35 -100 45 -19 19 -19 20 33 71 l52 53
-162 162 c-154 154 -165 168 -217 270 l-56 108 -85 30 c-47 17 -104 40 -126
52 -37 20 -42 27 -48 67 -4 26 -13 47 -22 50 -28 11 -57 6 -77 -11 -19 -17
-22 -15 -116 83 l-97 101 -65 -33z m161 -129 l104 -105 28 27 c15 15 30 24 33
22 2 -3 8 -23 13 -45 7 -33 15 -43 57 -66 28 -15 87 -40 131 -54 l81 -27 49
-101 c46 -95 57 -110 198 -254 l150 -152 -52 -53 -52 -53 37 -36 c26 -24 61
-43 108 -58 39 -13 100 -38 136 -56 l66 -33 49 50 48 49 38 -37 37 -38 -24
-79 -24 -78 29 -57 c15 -31 47 -74 69 -96 23 -21 41 -44 41 -49 0 -6 -21 -32
-47 -58 l-47 -48 38 -39 c20 -21 59 -48 85 -61 40 -18 53 -31 72 -73 18 -37
33 -54 59 -65 l35 -15 -60 -20 c-33 -11 -62 -21 -64 -24 -3 -2 6 -39 18 -82
l23 -80 -38 -45 c-33 -39 -49 -49 -118 -71 -79 -26 -83 -29 -178 -128 -68 -71
-100 -99 -108 -91 -7 7 -1 19 20 39 l31 29 -73 37 -73 37 -49 -25 -49 -25 -78
78 -78 78 -42 -22 c-22 -12 -46 -22 -52 -22 -6 0 -32 20 -57 45 l-46 45 -164
25 c-204 31 -226 31 -240 5 -6 -11 -39 -34 -73 -51 -36 -18 -80 -51 -104 -78
l-41 -46 -29 27 -29 28 -35 -36 c-50 -52 -208 -128 -330 -159 -97 -25 -107
-29 -156 -77 l-51 -51 -164 31 c-89 17 -212 40 -271 51 -125 21 -145 34 -124
74 8 15 16 24 19 22 3 -3 15 16 26 42 11 26 34 61 50 76 16 16 42 58 57 93
l28 65 -22 23 c-20 21 -20 24 -6 36 9 8 30 39 46 69 16 31 52 82 80 113 47 52
53 64 79 167 l27 110 -27 26 c-15 14 -37 48 -50 75 l-23 48 18 69 c18 66 22
72 143 195 l125 127 50 -25 50 -26 93 93 94 93 -29 31 -29 30 20 65 c13 42 32
77 54 100 l34 36 -30 30 -30 30 25 174 25 175 65 65 64 64 30 -28 29 -27 22
31 c17 24 97 77 120 80 3 0 52 -47 110 -105z"/>
</g>
</svg>
