<?xml version="1.0" standalone="no"?>
<!DOCTYPE svg PUBLIC "-//W3C//DTD SVG 20010904//EN"
 "http://www.w3.org/TR/2001/REC-SVG-20010904/DTD/svg10.dtd">
<svg version="1.0" xmlns="http://www.w3.org/2000/svg"
 width="3000.000000pt" height="4000.000000pt" viewBox="0 0 3000.000000 4000.000000"
 preserveAspectRatio="xMidYMid meet">
<metadata>
Created by potrace 1.16, written by Peter Selinger 2001-2019
</metadata>
<g transform="translate(0.000000,4000.000000) scale(0.100000,-0.100000)"
fill="#000000" stroke="none">
<path d="M6914 13207 c-16 -18 -40 -53 -54 -76 -14 -24 -39 -60 -56 -80 -46
-53 -75 -117 -134 -296 -29 -88 -60 -168 -69 -179 -9 -10 -38 -30 -66 -43 -27
-14 -67 -41 -87 -59 -21 -18 -60 -45 -87 -59 -42 -21 -52 -31 -60 -62 -46
-179 -35 -161 -176 -310 -122 -129 -134 -145 -182 -248 l-52 -110 -22 -195
c-20 -184 -23 -197 -49 -225 -22 -24 -31 -52 -49 -145 -29 -151 -54 -238 -98
-333 l-37 -78 22 -68 c12 -37 22 -74 22 -81 0 -8 -21 -35 -46 -61 -45 -46 -46
-49 -74 -180 -23 -109 -26 -136 -15 -147 7 -8 60 -20 126 -27 63 -8 128 -18
144 -24 17 -5 91 -22 165 -37 74 -15 158 -38 185 -52 28 -14 88 -38 135 -54
l84 -28 48 47 48 47 23 -22 c29 -27 35 -27 64 0 l23 22 49 -48 48 -48 41 21
c23 12 45 21 50 21 5 0 17 -17 26 -39 10 -21 58 -78 106 -126 l89 -88 38 34
c21 19 54 41 72 49 19 8 54 32 77 54 33 33 47 58 68 121 l26 81 -26 128 -26
129 52 52 52 53 -27 83 c-23 70 -36 93 -80 139 -29 30 -65 80 -80 110 -15 30
-36 65 -48 77 -20 23 -20 23 -1 85 11 39 32 78 53 101 l34 38 -23 24 -23 25
21 23 c12 13 22 27 22 32 0 5 -25 35 -56 66 -52 52 -57 62 -78 147 l-24 91 22
20 c15 14 60 29 147 46 l124 25 167 167 168 167 -27 28 -27 28 52 53 52 53
-30 29 -29 30 26 103 26 103 -53 54 c-53 53 -86 100 -116 165 -9 19 -24 40
-33 46 -9 7 -29 39 -46 73 l-29 61 -31 -30 -31 -30 -20 21 c-10 12 -41 32 -69
46 -51 25 -125 89 -125 107 0 5 10 20 22 33 l21 23 -23 25 -24 25 47 48 c26
26 47 52 47 58 0 30 -122 111 -192 128 -14 3 -40 17 -56 31 -17 14 -32 25 -35
25 -3 0 -18 -15 -33 -33z m63 -59 c17 -16 26 -19 35 -10 12 12 96 -25 136 -61
l22 -21 -52 -53 -52 -53 27 -28 27 -28 -25 -24 -25 -24 57 -58 c32 -33 83 -73
113 -89 30 -17 70 -45 87 -62 l33 -31 24 23 23 22 16 -38 c8 -21 27 -49 42
-63 15 -14 40 -52 57 -85 16 -33 50 -81 74 -106 l45 -45 -26 -104 -25 -104 22
-23 22 -23 -48 -49 -49 -49 21 -28 20 -28 -138 -146 -138 -145 -133 -27 c-116
-24 -137 -32 -165 -59 l-31 -30 29 -117 c27 -108 33 -120 74 -163 l44 -45 -25
-24 -25 -24 27 -28 27 -28 -22 -23 c-21 -23 -72 -154 -72 -187 0 -9 12 -27 26
-41 14 -13 37 -46 51 -74 14 -27 49 -75 78 -105 41 -43 58 -70 75 -124 l22
-68 -51 -52 -51 -52 26 -129 26 -130 -22 -70 c-30 -94 -42 -110 -103 -141 -28
-14 -64 -38 -80 -52 l-27 -26 -69 68 c-43 43 -78 89 -96 127 -16 32 -32 59
-37 59 -5 0 -30 -11 -57 -24 l-48 -25 -54 55 -53 54 -26 -25 -26 -25 -24 25
-24 25 -56 -55 -56 -55 -69 23 c-39 13 -94 36 -122 51 -33 16 -116 39 -220 61
-93 19 -190 41 -218 50 -27 8 -75 15 -106 15 l-56 0 24 118 23 117 54 54 54
54 -26 75 c-22 66 -23 79 -12 106 46 111 85 240 109 359 23 111 34 144 54 165
23 25 27 45 51 235 l27 208 50 102 c46 93 62 113 180 232 l128 130 24 100 24
100 47 26 c25 14 61 39 79 56 17 17 55 42 82 56 83 42 99 65 156 242 56 174
85 239 119 270 12 11 33 43 47 70 24 47 60 95 72 95 2 0 15 -10 28 -22z"/>
</g>
</svg>
