<?xml version="1.0" standalone="no"?>
<!DOCTYPE svg PUBLIC "-//W3C//DTD SVG 20010904//EN"
 "http://www.w3.org/TR/2001/REC-SVG-20010904/DTD/svg10.dtd">
<svg version="1.0" xmlns="http://www.w3.org/2000/svg"
 width="3000.000000pt" height="4000.000000pt" viewBox="0 0 3000.000000 4000.000000"
 preserveAspectRatio="xMidYMid meet">
<metadata>
Created by potrace 1.16, written by Peter Selinger 2001-2019
</metadata>
<g transform="translate(0.000000,4000.000000) scale(0.100000,-0.100000)"
fill="#000000" stroke="none">
<path d="M10891 19286 l-62 -63 27 -56 28 -56 -19 -41 c-10 -22 -23 -44 -29
-48 -6 -4 -21 -19 -34 -33 l-23 -27 26 -52 27 -53 -100 -101 c-89 -90 -106
-113 -155 -211 l-54 -110 30 -62 c25 -51 38 -65 71 -80 59 -25 154 -119 186
-183 16 -30 49 -75 75 -100 26 -25 62 -75 80 -111 18 -36 41 -71 50 -79 14
-12 13 -15 -10 -40 l-25 -26 38 -37 c25 -25 61 -45 111 -62 90 -30 107 -31
122 -4 11 21 11 21 32 1 12 -11 50 -34 83 -50 61 -31 62 -31 79 -12 23 25 33
25 62 -2 l23 -21 25 23 c45 43 39 11 -10 -45 l-48 -56 47 -48 47 -48 -32 -13
c-17 -8 -45 -25 -61 -38 l-29 -25 -50 24 -50 23 -66 -67 c-65 -64 -66 -67 -49
-86 20 -22 26 -19 -107 -52 -41 -10 -51 -18 -68 -50 -22 -45 -29 -47 -48 -18
-12 21 -16 19 -100 -65 -78 -78 -93 -88 -162 -111 -55 -19 -86 -36 -112 -63
l-37 -38 25 -24 c25 -23 25 -24 6 -44 -17 -19 -56 -164 -65 -245 -3 -20 -17
-46 -37 -67 l-33 -34 29 -30 29 -30 -22 -45 c-21 -43 -21 -44 -2 -50 11 -4 20
-13 20 -20 0 -8 12 -17 28 -20 15 -4 47 -15 71 -26 24 -11 45 -19 46 -17 1 2
12 23 25 47 l22 44 49 -49 49 -48 34 33 c18 18 42 50 51 72 31 69 37 60 71
-108 23 -110 31 -133 58 -163 17 -19 39 -54 49 -76 19 -41 18 -42 -2 -83 -17
-32 -35 -48 -81 -71 -33 -17 -60 -34 -60 -38 0 -4 42 -49 93 -100 l93 -92 39
40 c21 22 42 40 46 40 3 0 16 -48 28 -107 27 -137 47 -161 168 -200 l83 -27
90 89 c111 111 141 175 171 367 11 75 12 76 51 94 l39 17 54 -53 55 -54 68 66
c37 36 81 73 98 81 30 16 32 15 59 -14 l29 -29 28 27 28 27 23 -22 23 -22 82
27 c72 24 89 34 143 89 l61 62 -25 76 -26 76 26 31 26 30 -21 28 -20 28 63 63
63 62 75 -25 74 -25 59 32 59 31 30 87 30 87 -35 37 c-19 20 -60 48 -90 64
-69 35 -83 51 -105 120 -10 30 -20 60 -22 67 -3 6 15 22 39 34 47 24 91 66 83
79 -3 4 -17 11 -32 15 -16 3 -53 18 -85 32 l-56 25 15 36 c8 21 31 54 51 74
l36 38 -35 36 c-18 20 -59 48 -89 64 -41 21 -91 66 -194 174 -155 164 -153
157 -62 203 47 23 176 137 176 155 0 4 -22 19 -50 33 -27 14 -50 27 -50 30 0
2 9 24 21 48 l21 43 -25 51 -26 50 75 74 c41 40 74 79 74 85 0 15 -30 75 -48
97 -8 9 -11 17 -7 17 19 0 -43 54 -88 76 -65 34 -120 85 -142 134 l-18 40 26
28 27 28 -40 39 -40 39 -78 -77 c-54 -54 -85 -77 -102 -77 -14 0 -103 9 -198
22 l-174 22 -25 51 c-25 50 -28 53 -97 75 -126 40 -196 82 -259 153 l-57 65 0
66 c0 57 5 77 40 145 36 73 38 80 22 94 -46 40 -56 39 -107 -13 l-49 -50 -26
25 -26 25 -24 -25 -24 -25 -21 20 c-12 11 -60 33 -107 49 l-86 29 -61 -62z
m156 -18 c32 -12 73 -35 90 -51 l33 -31 25 24 25 23 25 -23 25 -24 48 47 c26
26 51 47 55 47 4 0 -9 -33 -29 -72 -34 -67 -37 -80 -35 -148 l2 -75 72 -73
c82 -83 139 -118 252 -156 80 -26 81 -27 107 -80 30 -61 3 -53 281 -87 l179
-22 74 74 c50 50 77 70 84 63 7 -7 2 -18 -14 -33 l-25 -24 31 -61 c38 -77 70
-111 133 -143 66 -33 92 -58 121 -115 l24 -47 -75 -80 -76 -79 27 -54 26 -54
-26 -52 c-14 -28 -26 -53 -26 -56 0 -2 17 -15 38 -27 20 -12 39 -24 41 -26 11
-8 -69 -77 -120 -104 -31 -17 -72 -46 -90 -65 l-33 -34 164 -166 c119 -119
180 -173 221 -194 70 -36 85 -53 63 -71 -13 -10 -84 -139 -84 -152 0 -2 37
-21 82 -42 l81 -39 -51 -25 c-29 -14 -52 -30 -52 -36 0 -5 12 -46 26 -90 31
-94 64 -134 145 -175 83 -42 85 -47 60 -128 -19 -63 -23 -69 -65 -89 l-44 -22
-81 27 -80 26 -27 -24 c-14 -14 -53 -56 -86 -93 l-61 -68 23 -24 23 -25 -21
-23 -22 -23 26 -78 26 -78 -46 -47 c-36 -36 -62 -52 -113 -69 l-67 -22 -31 30
-31 30 -24 -25 -24 -25 -23 22 -23 21 -52 -24 c-29 -13 -77 -46 -106 -73 l-53
-50 -48 48 -48 47 -65 -32 -65 -32 -22 -121 c-31 -164 -65 -235 -151 -321
l-68 -67 -68 22 c-101 33 -108 42 -133 173 -12 62 -23 119 -25 128 -1 10 -8
24 -15 33 -10 12 -16 13 -32 3 -10 -6 -19 -17 -19 -23 0 -5 -14 -23 -30 -39
l-30 -29 -55 54 c-30 30 -55 57 -55 60 0 4 16 14 35 23 25 12 42 32 66 78 l31
62 -24 51 c-12 28 -37 67 -54 86 -27 30 -34 52 -55 160 -22 118 -26 128 -63
168 l-40 44 -32 -64 c-17 -35 -40 -71 -51 -80 -18 -17 -21 -16 -68 32 -27 28
-52 50 -55 50 -4 0 -17 -22 -30 -50 -13 -27 -25 -50 -27 -50 -2 0 -21 9 -42
20 -47 23 -55 42 -36 79 13 27 13 30 -10 51 l-25 24 20 21 c14 15 28 61 46
151 23 112 30 133 57 161 l31 33 -24 25 c-35 37 -19 53 81 87 79 26 88 32 151
100 l67 73 30 -29 30 -28 30 60 30 59 111 28 c60 15 112 31 115 35 2 4 -7 18
-20 30 -32 30 -31 37 6 76 l32 33 53 -27 54 -26 37 36 c21 20 64 49 96 65 l57
28 -55 55 -55 54 51 52 51 52 -40 44 -41 43 -28 -28 -29 -27 -24 25 -24 25
-27 -26 c-26 -25 -30 -26 -61 -13 -18 7 -52 31 -76 53 l-43 39 -29 -28 -28
-27 -73 24 c-88 29 -103 47 -69 83 l24 25 -37 38 c-19 20 -45 57 -55 82 -11
25 -43 68 -72 95 -31 30 -62 72 -77 105 -31 70 -112 153 -183 190 -54 27 -90
74 -90 116 0 30 89 190 125 224 20 19 69 70 107 113 l71 78 -23 49 -23 49 24
28 c13 16 35 52 48 81 l24 52 -23 50 -24 50 39 40 c22 22 44 40 51 40 7 0 38
-10 71 -22z"/>
</g>
</svg>
