<?xml version="1.0" standalone="no"?>
<!DOCTYPE svg PUBLIC "-//W3C//DTD SVG 20010904//EN"
 "http://www.w3.org/TR/2001/REC-SVG-20010904/DTD/svg10.dtd">
<svg version="1.0" xmlns="http://www.w3.org/2000/svg"
 width="3000.000000pt" height="4000.000000pt" viewBox="0 0 3000.000000 4000.000000"
 preserveAspectRatio="xMidYMid meet">
<metadata>
Created by potrace 1.16, written by Peter Selinger 2001-2019
</metadata>
<g transform="translate(0.000000,4000.000000) scale(0.100000,-0.100000)"
fill="#000000" stroke="none">
<path d="M10389 9178 c-6 -13 -19 -31 -27 -41 -15 -17 -17 -16 -42 8 l-26 25
-29 -30 c-18 -19 -60 -41 -117 -61 -112 -40 -129 -59 -158 -181 -12 -51 -36
-137 -53 -190 l-31 -97 23 -25 c16 -17 19 -26 11 -31 -8 -5 -42 22 -89 69
l-77 77 -24 -26 -24 -25 -53 52 -53 53 -52 -58 c-28 -32 -73 -69 -99 -82 -42
-22 -49 -23 -60 -9 -10 12 -8 25 11 70 12 30 21 56 19 58 -2 2 -31 17 -64 34
-70 35 -84 48 -120 122 -15 30 -40 69 -56 86 l-30 31 -163 -28 c-194 -32 -252
-57 -341 -148 -33 -34 -62 -61 -66 -61 -3 0 -11 12 -18 26 -6 15 -28 46 -48
71 l-36 44 -36 -34 c-20 -19 -59 -46 -87 -60 -27 -14 -56 -33 -63 -41 -18 -21
-30 -20 -58 6 l-24 22 -66 -67 -67 -66 28 -30 c37 -39 15 -53 -25 -15 l-29 27
-30 -66 c-38 -84 -61 -180 -55 -232 2 -22 4 -45 4 -52 2 -25 42 -26 68 -2 l24
24 72 -76 c40 -42 87 -81 105 -89 37 -15 39 -21 12 -45 -21 -19 -20 -19 14
-54 40 -42 54 -84 36 -107 -11 -12 -8 -20 20 -49 27 -28 36 -32 50 -23 14 9
16 17 9 41 -7 26 -3 35 38 83 25 30 49 54 53 54 5 0 45 -39 89 -87 l81 -87
-25 -26 -25 -26 70 -69 70 -69 37 36 c21 20 58 46 83 58 25 12 57 33 71 46
l26 25 120 -26 c75 -16 140 -36 175 -55 l55 -30 23 25 24 25 22 -21 c18 -17
55 -25 201 -46 163 -23 180 -28 208 -53 17 -15 53 -39 80 -53 28 -14 73 -49
100 -77 36 -37 80 -67 155 -105 58 -29 114 -63 125 -75 11 -12 41 -33 67 -46
26 -13 63 -37 81 -54 34 -29 59 -36 91 -24 9 3 16 12 16 20 0 8 3 14 8 14 4 0
16 15 26 34 9 18 51 66 92 107 l74 74 113 -29 c62 -15 122 -27 132 -25 12 3
30 24 45 56 16 33 61 89 125 153 l100 102 45 -22 c45 -23 212 -82 216 -77 1 1
15 29 32 63 40 80 53 90 93 73 18 -7 45 -24 61 -37 l29 -25 -25 -26 -26 -27
43 -42 43 -43 87 94 86 94 27 106 26 106 -27 83 c-22 66 -37 93 -73 130 l-46
47 50 53 c27 29 60 77 73 106 l24 52 -24 52 c-13 29 -34 64 -46 79 l-22 26 24
23 25 24 -27 28 -27 28 27 28 27 28 -27 27 -27 26 24 52 25 52 -55 48 c-30 27
-61 49 -68 49 -25 0 -87 -39 -126 -78 l-39 -41 -47 52 -48 52 -24 -22 c-29
-27 -41 -29 -59 -7 -7 9 -39 29 -71 45 l-58 29 -53 -26 c-28 -14 -64 -38 -80
-52 l-27 -26 -118 23 c-102 19 -121 27 -149 54 l-33 31 -25 -24 -25 -23 -23
21 c-29 28 -35 28 -67 -3 l-26 -25 -65 21 c-76 26 -108 53 -139 119 -21 45
-27 50 -56 50 -24 0 -36 -6 -45 -22z m119 -131 c28 -28 56 -44 119 -64 l83
-27 22 22 22 22 26 -25 26 -25 24 25 c23 25 24 25 44 6 14 -13 67 -29 158 -48
l137 -28 28 26 c15 14 49 38 75 53 l48 27 42 -22 c24 -12 59 -36 79 -55 l35
-34 24 25 24 25 53 -52 53 -52 63 61 c88 86 95 88 134 51 l32 -31 -27 -53 -26
-54 24 -25 23 -25 -23 -25 -23 -25 23 -25 24 -25 -27 -28 -27 -28 39 -38 c21
-21 47 -55 56 -77 23 -51 11 -80 -73 -177 l-65 -74 56 -56 c45 -47 59 -70 78
-129 l23 -73 -23 -97 c-23 -97 -24 -99 -89 -165 -37 -38 -70 -68 -74 -68 -15
0 -8 24 14 47 l22 23 -29 30 c-16 17 -58 46 -94 66 l-64 35 -37 -36 c-21 -20
-46 -55 -55 -76 -10 -21 -23 -39 -30 -39 -21 0 -119 37 -181 68 l-61 31 -157
-158 -158 -158 -99 26 -99 26 -85 -85 c-47 -47 -100 -106 -116 -132 -17 -27
-34 -48 -38 -48 -4 0 -18 12 -32 26 -13 14 -49 39 -79 54 -30 15 -64 38 -75
50 -11 12 -67 46 -125 75 -75 38 -119 68 -155 105 -27 28 -72 63 -100 77 -27
14 -64 38 -80 54 -28 26 -44 31 -205 55 -162 24 -177 28 -205 55 -17 16 -34
29 -38 29 -5 0 -18 -12 -31 -26 l-22 -26 -45 22 c-24 13 -107 36 -184 52
l-139 28 -36 -34 c-19 -19 -55 -44 -80 -56 -25 -12 -54 -31 -66 -42 -21 -19
-21 -19 -53 18 l-32 36 25 27 26 27 -120 119 -120 120 -59 -59 c-59 -59 -60
-59 -66 -33 -4 14 -15 33 -26 43 -19 17 -19 18 8 46 14 15 25 30 22 32 -2 2
-29 16 -59 31 -34 16 -89 60 -142 113 l-88 86 -30 -29 c-36 -34 -37 -29 -14
81 16 76 38 134 51 134 4 0 15 -8 25 -17 18 -16 21 -15 60 25 l42 41 -24 26
-24 25 34 35 34 35 26 -25 26 -25 30 31 c16 17 52 42 79 56 28 14 60 34 72 46
29 26 44 14 85 -67 17 -34 32 -63 34 -65 2 -3 48 38 102 90 54 53 115 102 137
112 22 9 104 27 182 40 l142 24 25 -26 c13 -14 35 -49 49 -77 28 -56 76 -103
125 -123 18 -7 32 -17 32 -22 0 -5 -10 -29 -22 -54 l-22 -45 37 -37 36 -37 60
29 c33 15 79 48 103 72 23 23 47 43 53 43 6 0 28 -20 48 -45 21 -25 43 -45 49
-45 7 0 22 10 35 22 l24 22 77 -77 78 -77 39 40 39 40 -29 30 -28 30 31 102
c17 57 39 135 48 173 22 90 45 115 136 144 40 13 83 32 96 44 l22 20 26 -24
26 -24 46 51 47 51 19 -36 c10 -20 34 -53 54 -74z"/>
</g>
</svg>
