<?xml version="1.0" standalone="no"?>
<!DOCTYPE svg PUBLIC "-//W3C//DTD SVG 20010904//EN"
 "http://www.w3.org/TR/2001/REC-SVG-20010904/DTD/svg10.dtd">
<svg version="1.0" xmlns="http://www.w3.org/2000/svg"
 width="3000.000000pt" height="4000.000000pt" viewBox="0 0 3000.000000 4000.000000"
 preserveAspectRatio="xMidYMid meet">
<metadata>
Created by potrace 1.16, written by Peter Selinger 2001-2019
</metadata>
<g transform="translate(0.000000,4000.000000) scale(0.100000,-0.100000)"
fill="#000000" stroke="none">
<path d="M3343 20608 l-102 -102 -23 21 c-35 32 -104 63 -145 66 -33 2 -37 -1
-48 -32 -17 -51 -38 -61 -70 -31 l-25 24 -58 -57 c-51 -51 -61 -67 -86 -145
-16 -48 -41 -112 -56 -142 -15 -30 -35 -80 -45 -110 -10 -30 -21 -59 -25 -63
-4 -4 -50 3 -103 16 l-95 24 -59 -33 c-32 -18 -95 -70 -141 -116 l-83 -84 26
-24 c29 -28 31 -40 9 -83 -20 -39 -113 -137 -131 -137 -7 0 -21 -15 -30 -34
-15 -33 -15 -37 6 -88 13 -29 45 -76 72 -103 27 -28 49 -58 49 -66 0 -37 -43
-136 -72 -166 l-32 -33 77 -78 77 -78 -37 -36 -38 -36 -45 23 c-25 13 -50 24
-56 25 -6 0 -21 -24 -34 -52 -18 -39 -64 -94 -181 -213 -121 -124 -164 -174
-189 -224 l-31 -63 22 -24 22 -24 -54 -57 c-30 -32 -63 -65 -74 -74 -19 -17
-19 -17 8 -76 l29 -58 -25 -99 c-18 -69 -33 -106 -51 -125 -37 -39 -34 -73 25
-251 l52 -155 81 -85 c76 -79 84 -91 104 -160 l21 -75 165 -165 165 -164 26
24 25 23 52 -49 c43 -40 68 -54 130 -73 76 -24 78 -24 118 -6 36 16 42 24 60
83 18 62 27 73 141 188 l122 123 50 -26 50 -25 93 93 94 93 -29 31 -29 30 20
65 c13 42 32 77 54 100 l34 36 -30 30 -30 30 25 174 25 175 65 65 64 64 30
-28 29 -27 22 31 c12 17 45 42 72 56 l51 26 106 -106 107 -106 47 48 c26 26
47 55 47 64 0 8 -16 98 -36 198 l-35 184 65 65 65 65 26 -24 26 -24 65 65 66
66 -31 61 c-27 53 -38 65 -93 94 -83 44 -88 55 -58 117 l23 51 -23 25 -24 26
49 100 c27 55 59 108 70 118 11 10 62 29 113 41 l93 23 29 -28 28 -27 59 31
c32 16 103 41 157 55 l99 25 93 92 c51 51 95 100 97 110 3 11 -9 31 -34 55
-34 33 -46 58 -91 197 l-53 159 -56 28 c-69 35 -86 54 -69 75 7 9 11 17 9 18
-2 1 -20 10 -40 19 -35 16 -37 16 -60 -7 -13 -13 -54 -35 -91 -49 l-68 -25
-72 25 c-39 13 -77 24 -84 24 -7 0 -55 -44 -108 -97 l-94 -98 -24 23 c-30 27
-36 27 -65 0 l-24 -22 -61 61 -62 62 24 50 c23 50 23 51 5 97 -10 26 -33 64
-51 84 l-33 37 25 149 c23 134 28 152 54 179 l30 31 -68 67 -67 67 -102 -102z
m144 0 l33 -32 -21 -22 c-15 -16 -26 -60 -48 -187 l-28 -166 27 -26 c15 -14
38 -48 50 -76 l24 -50 -26 -53 -26 -53 92 -92 92 -92 24 26 24 26 25 -26 26
-25 106 106 107 107 73 -25 74 -25 84 28 c46 16 93 37 104 46 19 17 19 17 13
-3 -8 -25 20 -52 91 -88 l51 -25 52 -158 c40 -120 60 -166 83 -191 l31 -32
-78 -79 -79 -80 -91 -21 c-50 -13 -117 -34 -149 -48 l-58 -25 -24 23 -24 23
-109 -28 c-137 -33 -159 -54 -232 -209 l-51 -110 25 -24 25 -25 -25 -50 -26
-49 34 -35 c18 -19 54 -46 80 -59 34 -17 54 -36 68 -64 23 -45 19 -59 -24 -99
l-26 -25 -28 27 -28 27 -87 -88 -88 -88 38 -200 39 -199 -30 -25 -29 -24 -96
100 -97 101 -65 -33 c-36 -18 -71 -40 -79 -49 -12 -14 -15 -13 -39 9 l-27 26
-88 -89 -89 -90 -28 -193 -28 -193 21 -22 21 -23 -20 -22 c-11 -13 -33 -60
-48 -106 l-27 -83 23 -25 23 -25 -62 -61 -61 -62 -46 22 c-25 12 -52 22 -59
22 -23 0 -283 -284 -290 -317 -4 -16 -22 -45 -40 -62 l-34 -33 -72 23 c-64 21
-78 30 -122 82 l-51 58 -30 -28 -29 -28 -144 150 c-137 143 -145 153 -169 224
-22 66 -34 84 -103 155 l-79 81 -43 135 c-47 147 -53 210 -21 245 10 11 30 68
45 128 l26 107 -24 49 -25 48 79 78 79 78 -25 29 c-13 16 -24 34 -24 39 0 31
49 92 194 239 100 101 168 179 176 200 7 19 14 36 16 38 1 2 24 -8 51 -22 l50
-25 61 62 c34 35 62 67 62 73 0 5 -31 41 -70 79 -38 38 -70 74 -70 79 0 5 8
19 19 30 10 12 29 58 43 103 l25 82 -49 48 c-49 47 -98 127 -98 158 0 9 8 19
18 23 31 13 129 126 157 181 l26 53 -22 24 -22 24 64 67 c35 38 86 80 113 94
l49 26 108 -27 108 -28 27 82 c15 44 39 106 54 136 15 30 39 91 54 136 21 63
36 89 69 122 l43 42 24 -25 24 -25 38 37 c21 20 38 43 38 49 0 7 4 16 10 19
14 9 91 -33 133 -73 l37 -36 103 102 c56 56 104 102 106 102 3 0 20 -14 38
-32z"/>
</g>
</svg>
